<?xml version="1.0" encoding="utf-8" standalone="no"?>
<!DOCTYPE svg PUBLIC "-//W3C//DTD SVG 1.1//EN"
  "http://www.w3.org/Graphics/SVG/1.1/DTD/svg11.dtd">
<!-- Created with matplotlib (http://matplotlib.org/) -->
<svg height="1440pt" version="1.1" viewBox="0 0 6480 1440" width="6480pt" xmlns="http://www.w3.org/2000/svg" xmlns:xlink="http://www.w3.org/1999/xlink">
 <defs>
  <style type="text/css">
*{stroke-linecap:butt;stroke-linejoin:round;}
  </style>
 </defs>
 <g id="figure_1">
  <g id="patch_1">
   <path d="M 0 1440 
L 6480 1440 
L 6480 0 
L 0 0 
z
" style="fill:#f0f0f0;"/>
  </g>
  <g id="axes_1">
   <g id="patch_2">
    <path d="M 777.6 1180.8 
L 6091.2 1180.8 
L 6091.2 216 
L 777.6 216 
z
" style="fill:#f0f0f0;"/>
   </g>
   <g id="matplotlib.axis_1">
    <g id="xtick_1">
     <g id="line2d_1">
      <path clip-path="url(#pbd090dcbfe)" d="M 777.6 1180.8 
L 777.6 216 
" style="fill:none;stroke:#b0b0b0;stroke-linecap:square;stroke-width:0.8;"/>
     </g>
     <g id="line2d_2">
      <defs>
       <path d="M 0 0 
L 0 3.5 
" id="mbb27933331" style="stroke:#000000;stroke-width:0.8;"/>
      </defs>
      <g>
       <use style="stroke:#000000;stroke-width:0.8;" x="777.6" xlink:href="#mbb27933331" y="1180.8"/>
      </g>
     </g>
     <g id="text_1">
      <!-- 0 -->
      <defs>
       <path d="M 48.203125 52.59375 
L 48.203125 17.40625 
Q 48.203125 9.703125 42.953125 4.34375 
Q 37.703125 -1 29.890625 -1 
Q 22.09375 -1 16.9375 4.390625 
Q 11.796875 9.796875 11.796875 17.5 
L 11.796875 52.59375 
Q 11.796875 60.296875 16.9375 65.640625 
Q 22.09375 71 29.890625 71 
Q 37.703125 71 42.953125 65.640625 
Q 48.203125 60.296875 48.203125 52.59375 
z
M 39.90625 17.296875 
L 39.90625 52.5 
Q 39.90625 56.90625 37 60 
Q 34.09375 63.09375 29.90625 63.09375 
Q 25.796875 63.09375 22.890625 60 
Q 20 56.90625 20 52.5 
L 20 17.40625 
Q 20 13 22.890625 9.953125 
Q 25.796875 6.90625 30 6.90625 
Q 34.09375 6.90625 37 9.90625 
Q 39.90625 12.90625 39.90625 17.296875 
z
" id="DecimaMonoPro-30"/>
      </defs>
      <g style="fill:#303030;" transform="translate(773.4 1197.613125)scale(0.14 -0.14)">
       <use xlink:href="#DecimaMonoPro-30"/>
      </g>
     </g>
    </g>
    <g id="xtick_2">
     <g id="line2d_3">
      <path clip-path="url(#pbd090dcbfe)" d="M 1537.771674 1180.8 
L 1537.771674 216 
" style="fill:none;stroke:#b0b0b0;stroke-linecap:square;stroke-width:0.8;"/>
     </g>
     <g id="line2d_4">
      <g>
       <use style="stroke:#000000;stroke-width:0.8;" x="1537.771674" xlink:href="#mbb27933331" y="1180.8"/>
      </g>
     </g>
     <g id="text_2">
      <!-- 100 -->
      <defs>
       <path d="M 13.90625 68.203125 
L 25.203125 70 
L 32.296875 70 
Q 33 70 33.546875 69.5 
Q 34.09375 69 34.09375 68.203125 
L 34.09375 7.703125 
L 47.296875 7.703125 
Q 48 7.703125 48.546875 7.140625 
Q 49.09375 6.59375 49.09375 5.90625 
L 49.09375 1.796875 
Q 49.09375 1 48.546875 0.5 
Q 48 0 47.296875 0 
L 12.59375 0 
Q 11.796875 0 11.296875 0.5 
Q 10.796875 1 10.796875 1.796875 
L 10.796875 5.90625 
Q 10.796875 6.59375 11.296875 7.140625 
Q 11.796875 7.703125 12.59375 7.703125 
L 25.703125 7.703125 
L 25.703125 62.09375 
L 14.703125 60.40625 
L 14.40625 60.40625 
Q 14 60.296875 13.5 60.296875 
Q 12.09375 60.296875 12.09375 62.09375 
L 12.09375 66.296875 
Q 12.09375 67.796875 13.90625 68.203125 
z
" id="DecimaMonoPro-31"/>
      </defs>
      <g style="fill:#303030;" transform="translate(1525.171674 1197.613125)scale(0.14 -0.14)">
       <use xlink:href="#DecimaMonoPro-31"/>
       <use x="59.999985" xlink:href="#DecimaMonoPro-30"/>
       <use x="119.999969" xlink:href="#DecimaMonoPro-30"/>
      </g>
     </g>
    </g>
    <g id="xtick_3">
     <g id="line2d_5">
      <path clip-path="url(#pbd090dcbfe)" d="M 2297.943348 1180.8 
L 2297.943348 216 
" style="fill:none;stroke:#b0b0b0;stroke-linecap:square;stroke-width:0.8;"/>
     </g>
     <g id="line2d_6">
      <g>
       <use style="stroke:#000000;stroke-width:0.8;" x="2297.943348" xlink:href="#mbb27933331" y="1180.8"/>
      </g>
     </g>
     <g id="text_3">
      <!-- 200 -->
      <defs>
       <path d="M 11.703125 53 
Q 11.703125 59.703125 17.203125 65.34375 
Q 22.703125 71 30.59375 71 
Q 38.40625 71 43.796875 65.75 
Q 49.203125 60.5 49.203125 52.703125 
Q 49.203125 46.90625 46.09375 41.75 
Q 43 36.59375 38.59375 32.84375 
Q 34.203125 29.09375 29.796875 25.4375 
Q 25.40625 21.796875 22.296875 17.296875 
Q 19.203125 12.796875 19.203125 7.796875 
L 47.40625 7.796875 
Q 48.203125 7.796875 48.703125 7.296875 
Q 49.203125 6.796875 49.203125 6 
L 49.203125 1.796875 
Q 49.203125 1 48.703125 0.5 
Q 48.203125 0 47.40625 0 
L 12.59375 0 
Q 11.796875 0 11.296875 0.5 
Q 10.796875 1 10.796875 1.796875 
L 10.796875 7.296875 
Q 10.796875 13.90625 13.890625 19.453125 
Q 17 25 21.390625 28.890625 
Q 25.796875 32.796875 30.1875 36.390625 
Q 34.59375 40 37.6875 44.296875 
Q 40.796875 48.59375 40.796875 53.296875 
Q 40.796875 57.40625 37.75 60.25 
Q 34.703125 63.09375 30.5 63.09375 
Q 26.09375 63.09375 23.1875 59.6875 
Q 20.296875 56.296875 20.09375 53 
Q 19.90625 51 17.796875 51 
L 14 51 
Q 12.90625 51 12.296875 51.59375 
Q 11.703125 52.203125 11.703125 53 
z
" id="DecimaMonoPro-32"/>
      </defs>
      <g style="fill:#303030;" transform="translate(2285.343348 1197.613125)scale(0.14 -0.14)">
       <use xlink:href="#DecimaMonoPro-32"/>
       <use x="59.999985" xlink:href="#DecimaMonoPro-30"/>
       <use x="119.999969" xlink:href="#DecimaMonoPro-30"/>
      </g>
     </g>
    </g>
    <g id="xtick_4">
     <g id="line2d_7">
      <path clip-path="url(#pbd090dcbfe)" d="M 3058.115021 1180.8 
L 3058.115021 216 
" style="fill:none;stroke:#b0b0b0;stroke-linecap:square;stroke-width:0.8;"/>
     </g>
     <g id="line2d_8">
      <g>
       <use style="stroke:#000000;stroke-width:0.8;" x="3058.115021" xlink:href="#mbb27933331" y="1180.8"/>
      </g>
     </g>
     <g id="text_4">
      <!-- 300 -->
      <defs>
       <path d="M 46.203125 61.09375 
L 35.40625 47.09375 
Q 40.796875 46.40625 44.890625 41.953125 
Q 49 37.5 49 31.5 
L 49 17.5 
Q 49 9.796875 43.5 4.390625 
Q 38 -1 30 -1 
Q 21.796875 -1 16.34375 4.34375 
Q 10.90625 9.703125 10.90625 17.40625 
Q 10.90625 18.203125 11.5 18.796875 
Q 12.09375 19.40625 13.203125 19.40625 
L 17 19.40625 
Q 19.09375 19.40625 19.296875 17.40625 
Q 19.296875 13 22.390625 9.953125 
Q 25.5 6.90625 30 6.90625 
Q 34.40625 6.90625 37.5 9.953125 
Q 40.59375 13 40.59375 17.40625 
L 40.59375 31.40625 
Q 40.59375 34.59375 38.296875 36.9375 
Q 36 39.296875 32.703125 39.296875 
L 27.40625 39.296875 
Q 25.203125 39.296875 25.203125 41.59375 
L 25.203125 45 
Q 25.203125 46.703125 26.296875 48.203125 
L 36.59375 62.09375 
L 16.90625 62.09375 
Q 14.703125 62.09375 14.703125 64.40625 
L 14.703125 67.703125 
Q 14.703125 70 16.90625 70 
L 45.09375 70 
Q 47.296875 70 47.296875 67.703125 
L 47.296875 64.296875 
Q 47.296875 62.59375 46.203125 61.09375 
z
" id="DecimaMonoPro-33"/>
      </defs>
      <g style="fill:#303030;" transform="translate(3045.515021 1197.613125)scale(0.14 -0.14)">
       <use xlink:href="#DecimaMonoPro-33"/>
       <use x="59.999985" xlink:href="#DecimaMonoPro-30"/>
       <use x="119.999969" xlink:href="#DecimaMonoPro-30"/>
      </g>
     </g>
    </g>
    <g id="xtick_5">
     <g id="line2d_9">
      <path clip-path="url(#pbd090dcbfe)" d="M 3818.286695 1180.8 
L 3818.286695 216 
" style="fill:none;stroke:#b0b0b0;stroke-linecap:square;stroke-width:0.8;"/>
     </g>
     <g id="line2d_10">
      <g>
       <use style="stroke:#000000;stroke-width:0.8;" x="3818.286695" xlink:href="#mbb27933331" y="1180.8"/>
      </g>
     </g>
     <g id="text_5">
      <!-- 400 -->
      <defs>
       <path d="M 40.09375 67.5 
L 19.5 22.90625 
L 35.796875 22.90625 
L 35.796875 38.90625 
Q 35.796875 39.703125 36.390625 40.296875 
Q 37 40.90625 38.09375 40.90625 
L 42.203125 40.90625 
Q 43 40.90625 43.59375 40.25 
Q 44.203125 39.59375 44.203125 38.90625 
L 44.203125 22.90625 
L 48 22.90625 
Q 48.796875 22.90625 49.390625 22.296875 
Q 50 21.703125 50 20.59375 
L 50 17.40625 
Q 50 16.296875 49.390625 15.6875 
Q 48.796875 15.09375 48 15.09375 
L 44.203125 15.09375 
L 44.203125 2 
Q 44.203125 1.203125 43.59375 0.59375 
Q 43 0 42.203125 0 
L 38.09375 0 
Q 37 0 36.390625 0.59375 
Q 35.796875 1.203125 35.796875 2 
L 35.796875 15.09375 
L 12.09375 15.09375 
Q 9.90625 15.09375 9.90625 17.40625 
L 9.90625 21.296875 
Q 9.90625 22.5 11 24.703125 
L 31.296875 68 
Q 32.296875 70 34 70 
L 38.796875 70 
Q 40.5 70 40.5 68.796875 
Q 40.5 68.5 40.09375 67.5 
z
" id="DecimaMonoPro-34"/>
      </defs>
      <g style="fill:#303030;" transform="translate(3805.686695 1197.613125)scale(0.14 -0.14)">
       <use xlink:href="#DecimaMonoPro-34"/>
       <use x="59.999985" xlink:href="#DecimaMonoPro-30"/>
       <use x="119.999969" xlink:href="#DecimaMonoPro-30"/>
      </g>
     </g>
    </g>
    <g id="xtick_6">
     <g id="line2d_11">
      <path clip-path="url(#pbd090dcbfe)" d="M 4578.458369 1180.8 
L 4578.458369 216 
" style="fill:none;stroke:#b0b0b0;stroke-linecap:square;stroke-width:0.8;"/>
     </g>
     <g id="line2d_12">
      <g>
       <use style="stroke:#000000;stroke-width:0.8;" x="4578.458369" xlink:href="#mbb27933331" y="1180.8"/>
      </g>
     </g>
     <g id="text_6">
      <!-- 500 -->
      <defs>
       <path d="M 21.90625 35.59375 
Q 21.09375 34.40625 19.796875 34.40625 
Q 19.40625 34.40625 18.203125 34.796875 
L 14.796875 35.796875 
Q 13.203125 36.296875 13.40625 38.5 
L 15.90625 67.703125 
Q 16.09375 70 18.09375 70 
L 44.40625 70 
Q 46.59375 70 46.59375 67.703125 
L 46.59375 64.40625 
Q 46.59375 62.09375 44.40625 62.09375 
L 24.09375 62.09375 
L 22.40625 44.796875 
Q 25.203125 47.203125 30.703125 47.203125 
Q 38.40625 47.203125 43.703125 42 
Q 49 36.796875 49 28.90625 
L 49 17.5 
Q 49 9.796875 43.5 4.390625 
Q 38 -1 30.09375 -1 
Q 21.90625 -1 16.453125 4.34375 
Q 11 9.703125 11 17.40625 
Q 11 18.203125 11.59375 18.796875 
Q 12.203125 19.40625 13.296875 19.40625 
L 17.09375 19.40625 
Q 18.203125 19.40625 18.796875 18.796875 
Q 19.40625 18.203125 19.40625 17.40625 
Q 19.40625 13 22.5 9.953125 
Q 25.59375 6.90625 30.09375 6.90625 
Q 34.5 6.90625 37.546875 9.953125 
Q 40.59375 13 40.59375 17.40625 
L 40.59375 28.796875 
Q 40.59375 33.203125 37.5 36.25 
Q 34.40625 39.296875 29.796875 39.296875 
Q 27.703125 39.296875 25.796875 38.4375 
Q 23.90625 37.59375 23.09375 36.890625 
Q 22.296875 36.203125 21.90625 35.59375 
z
" id="DecimaMonoPro-35"/>
      </defs>
      <g style="fill:#303030;" transform="translate(4565.858369 1197.613125)scale(0.14 -0.14)">
       <use xlink:href="#DecimaMonoPro-35"/>
       <use x="59.999985" xlink:href="#DecimaMonoPro-30"/>
       <use x="119.999969" xlink:href="#DecimaMonoPro-30"/>
      </g>
     </g>
    </g>
    <g id="xtick_7">
     <g id="line2d_13">
      <path clip-path="url(#pbd090dcbfe)" d="M 5338.630043 1180.8 
L 5338.630043 216 
" style="fill:none;stroke:#b0b0b0;stroke-linecap:square;stroke-width:0.8;"/>
     </g>
     <g id="line2d_14">
      <g>
       <use style="stroke:#000000;stroke-width:0.8;" x="5338.630043" xlink:href="#mbb27933331" y="1180.8"/>
      </g>
     </g>
     <g id="text_7">
      <!-- 600 -->
      <defs>
       <path d="M 11 60.203125 
Q 21.59375 71 29.5 71 
Q 37.40625 71 42.65625 65.953125 
Q 47.90625 60.90625 47.90625 54.40625 
Q 47.90625 53.59375 47.296875 53 
Q 46.703125 52.40625 45.59375 52.40625 
L 41.796875 52.40625 
Q 39.703125 52.40625 39.5 54.40625 
Q 39.296875 57.59375 36.640625 60.296875 
Q 34 63 29.5 63 
Q 25.203125 63 22.25 59.890625 
Q 19.296875 56.796875 19.296875 52.40625 
L 19.296875 42.796875 
Q 19.703125 43.296875 20.59375 44.046875 
Q 21.5 44.796875 24.546875 46 
Q 27.59375 47.203125 31 47.203125 
Q 38.40625 47.203125 43.703125 42 
Q 49 36.796875 49 28.90625 
L 49 17.5 
Q 49 9.796875 43.546875 4.390625 
Q 38.09375 -1 30 -1 
Q 21.90625 -1 16.453125 4.34375 
Q 11 9.703125 11 17.40625 
L 11 52.5 
Q 11 60.203125 21.59375 71 
z
M 30 39.296875 
Q 25.40625 39.296875 22.34375 36.390625 
Q 19.296875 33.5 19.296875 28.796875 
L 19.296875 17.296875 
Q 19.296875 12.90625 22.390625 9.90625 
Q 25.5 6.90625 30 6.90625 
Q 34.40625 6.90625 37.5 9.953125 
Q 40.59375 13 40.59375 17.40625 
L 40.59375 28.796875 
Q 40.59375 33.40625 37.546875 36.34375 
Q 34.5 39.296875 30 39.296875 
z
" id="DecimaMonoPro-36"/>
      </defs>
      <g style="fill:#303030;" transform="translate(5326.030043 1197.613125)scale(0.14 -0.14)">
       <use xlink:href="#DecimaMonoPro-36"/>
       <use x="59.999985" xlink:href="#DecimaMonoPro-30"/>
       <use x="119.999969" xlink:href="#DecimaMonoPro-30"/>
      </g>
     </g>
    </g>
    <g id="text_8">
     <!-- x -->
     <defs>
      <path d="M 3.59375 50.40625 
L 13.09375 50.40625 
L 22.90625 34.40625 
L 32.703125 50.40625 
L 42.203125 50.40625 
L 27.59375 26.59375 
L 44 0 
L 34.5 0 
L 22.90625 18.90625 
L 11.296875 0 
L 1.796875 0 
L 18.203125 26.59375 
z
" id="Apercu-78"/>
     </defs>
     <g style="opacity:0.75;" transform="translate(3431.194219 1214.044688)scale(0.14 -0.14)">
      <use xlink:href="#Apercu-78"/>
     </g>
    </g>
   </g>
   <g id="matplotlib.axis_2">
    <g id="ytick_1">
     <g id="line2d_15">
      <path clip-path="url(#pbd090dcbfe)" d="M 777.6 1007.959618 
L 6091.2 1007.959618 
" style="fill:none;stroke:#b0b0b0;stroke-linecap:square;stroke-width:0.8;"/>
     </g>
     <g id="line2d_16">
      <defs>
       <path d="M 0 0 
L -3.5 0 
" id="mad162dd008" style="stroke:#000000;stroke-width:0.8;"/>
      </defs>
      <g>
       <use style="stroke:#000000;stroke-width:0.8;" x="777.6" xlink:href="#mad162dd008" y="1007.959618"/>
      </g>
     </g>
     <g id="text_9">
      <!-- −4 -->
      <defs>
       <path d="M 50.203125 25.296875 
L 9.796875 25.296875 
Q 9 25.296875 8.5 25.84375 
Q 8 26.40625 8 27.09375 
L 8 31.296875 
Q 8 32 8.5 32.546875 
Q 9 33.09375 9.796875 33.09375 
L 50.203125 33.09375 
Q 51 33.09375 51.5 32.546875 
Q 52 32 52 31.296875 
L 52 27.09375 
Q 52 26.40625 51.5 25.84375 
Q 51 25.296875 50.203125 25.296875 
z
" id="DecimaMonoPro-2212"/>
      </defs>
      <g style="fill:#303030;" transform="translate(753.8 1012.866181)scale(0.14 -0.14)">
       <use xlink:href="#DecimaMonoPro-2212"/>
       <use x="59.999985" xlink:href="#DecimaMonoPro-34"/>
      </g>
     </g>
    </g>
    <g id="ytick_2">
     <g id="line2d_17">
      <path clip-path="url(#pbd090dcbfe)" d="M 777.6 821.720634 
L 6091.2 821.720634 
" style="fill:none;stroke:#b0b0b0;stroke-linecap:square;stroke-width:0.8;"/>
     </g>
     <g id="line2d_18">
      <g>
       <use style="stroke:#000000;stroke-width:0.8;" x="777.6" xlink:href="#mad162dd008" y="821.720634"/>
      </g>
     </g>
     <g id="text_10">
      <!-- −2 -->
      <g style="fill:#303030;" transform="translate(753.8 826.627197)scale(0.14 -0.14)">
       <use xlink:href="#DecimaMonoPro-2212"/>
       <use x="59.999985" xlink:href="#DecimaMonoPro-32"/>
      </g>
     </g>
    </g>
    <g id="ytick_3">
     <g id="line2d_19">
      <path clip-path="url(#pbd090dcbfe)" d="M 777.6 635.481651 
L 6091.2 635.481651 
" style="fill:none;stroke:#b0b0b0;stroke-linecap:square;stroke-width:0.8;"/>
     </g>
     <g id="line2d_20">
      <g>
       <use style="stroke:#000000;stroke-width:0.8;" x="777.6" xlink:href="#mad162dd008" y="635.481651"/>
      </g>
     </g>
     <g id="text_11">
      <!-- 0 -->
      <g style="fill:#303030;" transform="translate(762.2 640.388213)scale(0.14 -0.14)">
       <use xlink:href="#DecimaMonoPro-30"/>
      </g>
     </g>
    </g>
    <g id="ytick_4">
     <g id="line2d_21">
      <path clip-path="url(#pbd090dcbfe)" d="M 777.6 449.242667 
L 6091.2 449.242667 
" style="fill:none;stroke:#b0b0b0;stroke-linecap:square;stroke-width:0.8;"/>
     </g>
     <g id="line2d_22">
      <g>
       <use style="stroke:#000000;stroke-width:0.8;" x="777.6" xlink:href="#mad162dd008" y="449.242667"/>
      </g>
     </g>
     <g id="text_12">
      <!-- 2 -->
      <g style="fill:#303030;" transform="translate(762.2 454.149229)scale(0.14 -0.14)">
       <use xlink:href="#DecimaMonoPro-32"/>
      </g>
     </g>
    </g>
    <g id="ytick_5">
     <g id="line2d_23">
      <path clip-path="url(#pbd090dcbfe)" d="M 777.6 263.003683 
L 6091.2 263.003683 
" style="fill:none;stroke:#b0b0b0;stroke-linecap:square;stroke-width:0.8;"/>
     </g>
     <g id="line2d_24">
      <g>
       <use style="stroke:#000000;stroke-width:0.8;" x="777.6" xlink:href="#mad162dd008" y="263.003683"/>
      </g>
     </g>
     <g id="text_13">
      <!-- 4 -->
      <g style="fill:#303030;" transform="translate(762.2 267.910246)scale(0.14 -0.14)">
       <use xlink:href="#DecimaMonoPro-34"/>
      </g>
     </g>
    </g>
    <g id="text_14">
     <!-- P -->
     <defs>
      <path d="M 34.09375 30 
L 18.5 30 
L 18.5 0 
L 9.703125 0 
L 9.703125 70 
L 34.09375 70 
Q 43.90625 70 49.40625 64.59375 
Q 54.90625 59.203125 54.90625 50 
Q 54.90625 40.796875 49.40625 35.390625 
Q 43.90625 30 34.09375 30 
z
M 34.59375 38.40625 
Q 40 38.40625 42.890625 41.40625 
Q 45.796875 44.40625 45.796875 50 
Q 45.796875 55.59375 42.890625 58.59375 
Q 40 61.59375 34.59375 61.59375 
L 18.5 61.59375 
L 18.5 38.40625 
z
" id="Apercu-50"/>
     </defs>
     <g style="opacity:0.75;" transform="translate(746.943125 702.488438)rotate(-90)scale(0.14 -0.14)">
      <use xlink:href="#Apercu-50"/>
     </g>
    </g>
   </g>
   <g id="line2d_25">
    <path clip-path="url(#pbd090dcbfe)" d="M 777.6 537.558372 
L 785.201717 539.225287 
L 792.803433 541.500666 
L 800.40515 555.477391 
L 808.006867 559.732131 
L 815.608584 558.267309 
L 823.2103 558.956125 
L 830.812017 588.96179 
L 838.413734 539.055757 
L 846.015451 521.484501 
L 853.617167 512.716573 
L 861.218884 508.488869 
L 868.820601 510.612978 
L 876.422318 499.103786 
L 884.024034 490.291333 
L 891.625751 507.836746 
L 899.227468 514.719152 
L 906.829185 516.473875 
L 914.430901 517.565663 
L 922.032618 530.534953 
L 929.634335 539.490827 
L 937.236052 534.219878 
L 944.837768 544.248419 
L 952.439485 527.163924 
L 960.041202 537.10644 
L 967.642918 538.05807 
L 975.244635 554.423917 
L 982.846352 552.86657 
L 990.448069 565.564216 
L 998.049785 564.145168 
L 1005.651502 558.00546 
L 1013.253219 564.830359 
L 1020.854936 858.008495 
L 1028.456652 687.174142 
L 1043.660086 887.768384 
L 1051.261803 890.436129 
L 1058.863519 911.867867 
L 1066.465236 934.708929 
L 1074.066953 930.885068 
L 1081.66867 923.690122 
L 1089.270386 904.079654 
L 1096.872103 880.229272 
L 1104.47382 861.661383 
L 1112.075536 830.363047 
L 1119.677253 811.945273 
L 1127.27897 732.193565 
L 1134.880687 693.458142 
L 1142.482403 698.480103 
L 1150.08412 583.477401 
L 1157.685837 662.86782 
L 1165.287554 653.033106 
L 1172.88927 591.70211 
L 1180.490987 629.776665 
L 1188.092704 648.418173 
L 1195.694421 650.520399 
L 1203.296137 621.877546 
L 1210.897854 589.596672 
L 1218.499571 547.639602 
L 1226.101288 540.757951 
L 1233.703004 546.512558 
L 1241.304721 555.582919 
L 1248.906438 556.382653 
L 1256.508155 559.893308 
L 1264.109871 559.587017 
L 1271.711588 572.046541 
L 1279.313305 649.241971 
L 1286.915021 632.018386 
L 1294.516738 632.175717 
L 1302.118455 638.23339 
L 1309.720172 647.195093 
L 1317.321888 664.805238 
L 1324.923605 684.545539 
L 1332.525322 656.785553 
L 1340.127039 637.685439 
L 1347.728755 669.585516 
L 1355.330472 749.153538 
L 1362.932189 687.447714 
L 1370.533906 549.287946 
L 1378.135622 761.996858 
L 1385.737339 760.747618 
L 1393.339056 535.951089 
L 1400.940773 549.063279 
L 1408.542489 517.311168 
L 1416.144206 586.653686 
L 1423.745923 662.216339 
L 1431.347639 687.869557 
L 1438.949356 725.914538 
L 1446.551073 722.557068 
L 1454.15279 733.990004 
L 1461.754506 716.661198 
L 1469.356223 709.110874 
L 1476.95794 710.022886 
L 1484.559657 707.497769 
L 1492.161373 714.261192 
L 1499.76309 713.951349 
L 1507.364807 694.10649 
L 1514.966524 639.395235 
L 1522.56824 443.814221 
L 1530.169957 416.08716 
L 1537.771674 422.080121 
L 1545.373391 437.45609 
L 1552.975107 462.02793 
L 1560.576824 486.051706 
L 1568.178541 402.337778 
L 1575.780258 407.277282 
L 1583.381974 416.229715 
L 1590.983691 441.92881 
L 1598.585408 444.811753 
L 1606.187124 471.660681 
L 1613.788841 486.15391 
L 1621.390558 492.183116 
L 1628.992275 497.033615 
L 1636.593991 503.684282 
L 1644.195708 493.666026 
L 1651.797425 522.123669 
L 1659.399142 530.32818 
L 1667.000858 536.470291 
L 1674.602575 545.572289 
L 1682.204292 552.014203 
L 1689.806009 559.058224 
L 1697.407725 562.457366 
L 1705.009442 574.670155 
L 1712.611159 573.901314 
L 1720.212876 575.913873 
L 1727.814592 583.874274 
L 1735.416309 595.358356 
L 1743.018026 587.466369 
L 1750.619742 581.451805 
L 1758.221459 580.295183 
L 1765.823176 562.902199 
L 1773.424893 430.409538 
L 1781.026609 478.138699 
L 1788.628326 454.963994 
L 1796.230043 459.655964 
L 1803.83176 468.797242 
L 1811.433476 476.573677 
L 1819.035193 491.465433 
L 1826.63691 498.330744 
L 1834.238627 501.430738 
L 1841.840343 505.749946 
L 1849.44206 463.172757 
L 1857.043777 440.738658 
L 1864.645494 441.259015 
L 1872.24721 440.144304 
L 1879.848927 488.655399 
L 1887.450644 500.892154 
L 1895.052361 511.935283 
L 1902.654077 551.288627 
L 1910.255794 549.505282 
L 1917.857511 555.965183 
L 1925.459227 560.280312 
L 1933.060944 564.325743 
L 1940.662661 561.634737 
L 1948.264378 560.643016 
L 1955.866094 561.543373 
L 1963.467811 635.564033 
L 1971.069528 535.711092 
L 1978.671245 540.692557 
L 1986.272961 400.937978 
L 1993.874678 379.105993 
L 2001.476395 388.835253 
L 2009.078112 405.220721 
L 2016.679828 420.16838 
L 2024.281545 442.825569 
L 2031.883262 462.95212 
L 2039.484979 483.66058 
L 2047.086695 501.849058 
L 2054.688412 510.720633 
L 2062.290129 518.936678 
L 2069.891845 520.649761 
L 2077.493562 524.437723 
L 2085.095279 524.824072 
L 2092.696996 527.977672 
L 2100.298712 530.122218 
L 2107.900429 535.699103 
L 2115.502146 697.901018 
L 2123.103863 698.991512 
L 2130.705579 708.9646 
L 2138.307296 749.800854 
L 2153.51073 398.80924 
L 2161.112446 381.623301 
L 2168.714163 370.618858 
L 2176.31588 371.065595 
L 2183.917597 394.484049 
L 2191.519313 409.814793 
L 2199.12103 457.887999 
L 2206.722747 470.908663 
L 2214.324464 481.163587 
L 2221.92618 491.742784 
L 2229.527897 498.56266 
L 2237.129614 488.697904 
L 2244.73133 494.825195 
L 2252.333047 544.790866 
L 2259.934764 532.313709 
L 2267.536481 539.577468 
L 2275.138197 544.578798 
L 2290.341631 555.80908 
L 2297.943348 558.852705 
L 2305.545064 565.120831 
L 2313.146781 567.517002 
L 2320.748498 570.97081 
L 2328.350215 570.274246 
L 2335.951931 572.819778 
L 2343.553648 572.566409 
L 2351.155365 572.652063 
L 2358.757082 548.737989 
L 2366.358798 534.696531 
L 2373.960515 515.64716 
L 2381.562232 519.950217 
L 2389.163948 512.114404 
L 2396.765665 512.516739 
L 2404.367382 511.972415 
L 2411.969099 513.621426 
L 2419.570815 516.854318 
L 2427.172532 520.403747 
L 2434.774249 522.40556 
L 2442.375966 528.767132 
L 2449.977682 533.02865 
L 2457.579399 539.943348 
L 2465.181116 533.940073 
L 2472.782833 520.239146 
L 2480.384549 527.652765 
L 2495.587983 539.855697 
L 2503.1897 545.269745 
L 2510.791416 950.804579 
L 2518.393133 946.509493 
L 2525.99485 868.711265 
L 2533.596567 908.657298 
L 2548.8 840.45086 
L 2556.401717 818.00455 
L 2564.003433 796.203136 
L 2571.60515 784.269619 
L 2579.206867 774.259278 
L 2586.808584 772.152152 
L 2594.4103 769.347492 
L 2602.012017 767.065297 
L 2609.613734 763.345061 
L 2617.215451 761.039622 
L 2624.817167 756.628023 
L 2632.418884 565.551666 
L 2640.020601 560.195591 
L 2647.622318 518.457682 
L 2655.224034 514.669055 
L 2662.825751 508.51853 
L 2670.427468 569.118757 
L 2678.029185 518.2843 
L 2685.630901 520.74394 
L 2693.232618 525.538014 
L 2700.834335 526.806903 
L 2708.436052 525.101234 
L 2716.037768 518.349006 
L 2723.639485 494.562464 
L 2731.241202 491.499379 
L 2738.842918 500.007883 
L 2746.444635 504.931258 
L 2754.046352 525.052935 
L 2761.648069 535.308402 
L 2769.249785 535.008839 
L 2776.851502 541.259115 
L 2784.453219 536.698633 
L 2792.054936 550.138083 
L 2799.656652 559.681606 
L 2807.258369 556.692474 
L 2814.860086 566.5173 
L 2822.461803 565.397916 
L 2830.063519 559.44152 
L 2837.665236 559.172872 
L 2845.266953 525.40707 
L 2852.86867 517.505552 
L 2860.470386 529.497847 
L 2868.072103 559.209837 
L 2875.67382 558.097235 
L 2883.275536 558.561323 
L 2890.877253 795.361403 
L 2898.47897 662.832456 
L 2906.080687 773.524788 
L 2913.682403 775.24461 
L 2921.28412 712.28702 
L 2928.885837 606.222689 
L 2936.487554 617.688601 
L 2944.08927 641.526965 
L 2951.690987 780.22522 
L 2959.292704 786.760441 
L 2966.894421 707.691842 
L 2974.496137 713.558167 
L 2982.097854 641.606635 
L 2989.699571 633.131527 
L 2997.301288 645.036867 
L 3004.903004 646.542059 
L 3012.504721 639.693754 
L 3020.106438 624.555241 
L 3027.708155 802.097268 
L 3035.309871 722.231617 
L 3042.911588 752.074101 
L 3050.513305 569.416617 
L 3058.115021 567.142986 
L 3065.716738 531.84436 
L 3073.318455 540.144803 
L 3080.920172 510.432381 
L 3088.521888 437.36149 
L 3096.123605 392.047954 
L 3103.725322 377.459802 
L 3111.327039 402.116097 
L 3118.928755 428.171147 
L 3126.530472 449.601808 
L 3134.132189 476.358689 
L 3141.733906 513.710242 
L 3149.335622 533.043824 
L 3156.937339 447.321268 
L 3164.539056 552.716311 
L 3172.140773 547.496592 
L 3179.742489 581.824328 
L 3187.344206 570.95054 
L 3194.945923 660.234002 
L 3202.547639 649.494636 
L 3210.149356 657.464256 
L 3217.751073 658.638211 
L 3225.35279 664.241824 
L 3232.954506 632.997091 
L 3240.556223 734.883588 
L 3248.15794 669.586835 
L 3255.759657 813.586479 
L 3263.361373 794.383941 
L 3270.96309 778.098169 
L 3278.564807 721.531445 
L 3286.166524 761.664403 
L 3293.76824 762.257924 
L 3301.369957 770.175705 
L 3308.971674 768.625957 
L 3316.573391 755.546214 
L 3324.175107 766.442769 
L 3331.776824 795.209179 
L 3339.378541 806.270813 
L 3346.980258 787.402195 
L 3354.581974 767.956473 
L 3362.183691 778.710307 
L 3369.785408 759.852001 
L 3377.387124 752.859931 
L 3384.988841 753.084776 
L 3392.590558 742.173468 
L 3400.192275 791.701899 
L 3407.793991 798.589877 
L 3415.395708 809.46029 
L 3422.997425 766.032054 
L 3430.599142 768.951951 
L 3438.200858 754.107074 
L 3445.802575 648.769898 
L 3453.404292 545.243109 
L 3461.006009 569.031677 
L 3468.607725 530.481481 
L 3476.209442 603.508929 
L 3483.811159 872.227948 
L 3491.412876 555.815329 
L 3499.014592 549.571436 
L 3506.616309 546.503433 
L 3514.218026 542.447335 
L 3521.819742 543.930101 
L 3529.421459 628.310302 
L 3537.023176 540.822413 
L 3544.624893 563.190302 
L 3552.226609 624.221673 
L 3559.828326 696.089743 
L 3567.430043 689.570136 
L 3575.03176 475.517555 
L 3582.633476 490.193813 
L 3590.235193 493.719265 
L 3597.83691 505.246962 
L 3605.438627 552.065854 
L 3613.040343 545.663016 
L 3620.64206 532.489444 
L 3628.243777 580.109247 
L 3635.845494 640.95682 
L 3643.44721 664.047437 
L 3651.048927 662.139627 
L 3658.650644 574.240796 
L 3666.252361 592.71079 
L 3681.455794 599.781636 
L 3689.057511 578.966945 
L 3696.659227 579.703455 
L 3704.260944 734.601431 
L 3711.862661 744.567835 
L 3719.464378 853.484623 
L 3727.066094 842.54543 
L 3734.667811 832.235803 
L 3742.269528 776.810654 
L 3749.871245 764.447606 
L 3757.472961 764.777597 
L 3765.074678 746.210707 
L 3772.676395 763.446277 
L 3780.278112 764.776586 
L 3787.879828 637.377755 
L 3795.481545 600.819436 
L 3803.083262 591.846886 
L 3810.684979 580.479511 
L 3818.286695 564.925259 
L 3825.888412 513.259287 
L 3833.490129 530.261698 
L 3841.091845 527.297121 
L 3848.693562 521.781456 
L 3856.295279 535.601106 
L 3863.896996 541.457151 
L 3871.498712 533.909946 
L 3879.100429 549.856075 
L 3886.702146 554.761517 
L 3894.303863 626.25818 
L 3901.905579 746.8704 
L 3909.507296 702.897075 
L 3917.109013 590.599258 
L 3924.71073 572.107895 
L 3932.312446 632.452933 
L 3939.914163 577.722628 
L 3947.51588 488.96865 
L 3955.117597 474.317025 
L 3962.719313 478.900452 
L 3970.32103 472.618206 
L 3977.922747 540.363532 
L 3985.524464 479.503787 
L 3993.12618 485.895974 
L 4000.727897 490.569117 
L 4008.329614 491.177369 
L 4015.93133 504.474797 
L 4023.533047 548.111532 
L 4031.134764 516.502015 
L 4038.736481 516.900941 
L 4046.338197 527.105767 
L 4053.939914 545.77884 
L 4061.541631 542.363524 
L 4069.143348 547.52401 
L 4076.745064 727.516231 
L 4084.346781 848.873123 
L 4091.948498 821.949797 
L 4099.550215 807.649077 
L 4107.151931 794.740562 
L 4114.753648 781.349556 
L 4122.355365 763.687651 
L 4129.957082 762.690952 
L 4137.558798 772.050314 
L 4145.160515 776.440833 
L 4152.762232 779.669075 
L 4160.363948 780.395405 
L 4167.965665 773.83704 
L 4175.567382 766.507609 
L 4183.169099 760.231701 
L 4190.770815 558.312689 
L 4198.372532 555.185986 
L 4205.974249 740.349511 
L 4213.575966 743.760403 
L 4221.177682 740.576132 
L 4228.779399 628.061754 
L 4236.381116 647.621678 
L 4243.982833 726.295725 
L 4251.584549 775.396445 
L 4259.186266 596.862053 
L 4266.787983 683.481142 
L 4274.3897 683.486731 
L 4281.991416 680.594702 
L 4289.593133 733.470391 
L 4297.19485 646.655722 
L 4304.796567 637.065593 
L 4312.398283 708.325637 
L 4320 627.24031 
L 4327.601717 628.703411 
L 4335.203433 802.823654 
L 4342.80515 665.873073 
L 4350.406867 676.275106 
L 4358.008584 677.99031 
L 4365.6103 844.830356 
L 4373.212017 702.55494 
L 4380.813734 917.547833 
L 4388.415451 914.069826 
L 4396.017167 935.239876 
L 4403.618884 942.199887 
L 4411.220601 924.562215 
L 4418.822318 924.358784 
L 4426.424034 904.690926 
L 4434.025751 873.960679 
L 4441.627468 832.873538 
L 4449.229185 780.853787 
L 4456.830901 777.065981 
L 4464.432618 822.596769 
L 4472.034335 809.163835 
L 4479.636052 770.82584 
L 4487.237768 762.678464 
L 4494.839485 764.627337 
L 4502.441202 762.818799 
L 4510.042918 755.84136 
L 4517.644635 745.041725 
L 4525.246352 733.106165 
L 4532.848069 732.062155 
L 4540.449785 691.282831 
L 4548.051502 730.430295 
L 4555.653219 697.146447 
L 4563.254936 699.908287 
L 4570.856652 693.809235 
L 4578.458369 628.493824 
L 4586.060086 624.726985 
L 4593.661803 637.04363 
L 4601.263519 702.68106 
L 4608.865236 718.303287 
L 4616.466953 744.823374 
L 4624.06867 706.849787 
L 4631.670386 718.339653 
L 4639.272103 717.518639 
L 4646.87382 850.44909 
L 4654.475536 819.492056 
L 4662.077253 822.541976 
L 4669.67897 779.35417 
L 4677.280687 876.501743 
L 4684.882403 896.225792 
L 4692.48412 901.846214 
L 4700.085837 886.418294 
L 4707.687554 862.67994 
L 4715.28927 683.593298 
L 4722.890987 831.665448 
L 4730.492704 610.996507 
L 4738.094421 788.190734 
L 4745.696137 719.392283 
L 4753.297854 700.779176 
L 4760.899571 700.99922 
L 4768.501288 685.438857 
L 4776.103004 685.360453 
L 4783.704721 764.021794 
L 4791.306438 637.847298 
L 4798.908155 642.682013 
L 4806.509871 792.733166 
L 4814.111588 554.77062 
L 4821.713305 699.293368 
L 4829.315021 689.093799 
L 4836.916738 529.052365 
L 4844.518455 740.453191 
L 4852.120172 745.363745 
L 4859.721888 560.471799 
L 4867.323605 579.625511 
L 4874.925322 586.067996 
L 4882.527039 675.062095 
L 4890.128755 612.468078 
L 4897.730472 759.11457 
L 4905.332189 612.403597 
L 4912.933906 520.226558 
L 4920.535622 519.870281 
L 4928.137339 449.015635 
L 4935.739056 565.456778 
L 4943.340773 774.764416 
L 4950.942489 573.708828 
L 4958.544206 503.156899 
L 4966.145923 514.640482 
L 4973.747639 579.479725 
L 4981.349356 541.61648 
L 4988.951073 553.417743 
L 4996.55279 557.592386 
L 5004.154506 562.628123 
L 5011.756223 559.593028 
L 5019.35794 631.673982 
L 5026.959657 651.085282 
L 5034.561373 578.930995 
L 5042.16309 579.848347 
L 5049.764807 695.983526 
L 5057.366524 690.679507 
L 5064.96824 593.611871 
L 5072.569957 577.293058 
L 5080.171674 714.495611 
L 5087.773391 604.123559 
L 5095.375107 654.084482 
L 5102.976824 719.984773 
L 5110.578541 630.733169 
L 5118.180258 634.189301 
L 5125.781974 631.321296 
L 5133.383691 894.244316 
L 5140.985408 890.405558 
L 5148.587124 889.564235 
L 5156.188841 885.215355 
L 5163.790558 898.321828 
L 5171.392275 889.681392 
L 5178.993991 871.976161 
L 5186.595708 849.847188 
L 5194.197425 806.582787 
L 5201.799142 803.006205 
L 5209.400858 789.682269 
L 5217.002575 758.966087 
L 5224.604292 755.72468 
L 5232.206009 749.122079 
L 5239.807725 730.020412 
L 5247.409442 676.162572 
L 5255.011159 603.862071 
L 5262.612876 603.776382 
L 5270.214592 589.965338 
L 5277.816309 696.224439 
L 5285.418026 674.652088 
L 5293.019742 673.269511 
L 5300.621459 621.12903 
L 5308.223176 685.968122 
L 5315.824893 618.153671 
L 5323.426609 611.02833 
L 5331.028326 610.098834 
L 5338.630043 676.379136 
L 5346.23176 562.929085 
L 5353.833476 561.535702 
L 5361.435193 566.09675 
L 5369.03691 568.152268 
L 5376.638627 558.714302 
L 5384.240343 609.004524 
L 5391.84206 582.556226 
L 5399.443777 619.312324 
L 5407.045494 605.343102 
L 5414.64721 593.155465 
L 5422.248927 604.956442 
L 5429.850644 581.719637 
L 5437.452361 494.521891 
L 5445.054077 402.435553 
L 5452.655794 514.9886 
L 5460.257511 414.862285 
L 5467.859227 439.352269 
L 5475.460944 446.28899 
L 5483.062661 462.839825 
L 5490.664378 477.613935 
L 5498.266094 489.246379 
L 5505.867811 505.213594 
L 5513.469528 532.70028 
L 5521.071245 522.863132 
L 5528.672961 533.522076 
L 5536.274678 532.744139 
L 5543.876395 532.651281 
L 5559.079828 546.081817 
L 5566.681545 543.207178 
L 5574.283262 552.689536 
L 5581.884979 560.547456 
L 5589.486695 567.664181 
L 5597.088412 570.386747 
L 5604.690129 570.814973 
L 5612.291845 571.131404 
L 5619.893562 577.292181 
L 5635.096996 576.279297 
L 5642.698712 579.303485 
L 5650.300429 581.722957 
L 5657.902146 612.08771 
L 5665.503863 608.439057 
L 5673.105579 619.585418 
L 5680.707296 683.736319 
L 5688.309013 673.663192 
L 5695.91073 716.999703 
L 5703.512446 722.506609 
L 5733.919313 722.506609 
L 5741.52103 947.07403 
L 5749.122747 946.674472 
L 5756.724464 930.677729 
L 5764.32618 910.963581 
L 5771.927897 880.081677 
L 5779.529614 846.150518 
L 5787.13133 823.134865 
L 5794.733047 804.917769 
L 5802.334764 789.079323 
L 5809.936481 779.556947 
L 5817.538197 774.645849 
L 5832.741631 767.849174 
L 5840.343348 765.432605 
L 5847.945064 762.751551 
L 5855.546781 759.130999 
L 5863.148498 524.419173 
L 5870.750215 520.799632 
L 5878.351931 516.750959 
L 5885.953648 514.513034 
L 5901.157082 514.857367 
L 5908.758798 737.356016 
L 5916.360515 848.559106 
L 5923.962232 862.244836 
L 5931.563948 858.211638 
L 5939.165665 858.128982 
L 5946.767382 840.529697 
L 5954.369099 834.862741 
L 5961.970815 829.022125 
L 5969.572532 827.516447 
L 5977.174249 805.211561 
L 5984.775966 806.118755 
L 5992.377682 794.822175 
L 5999.979399 804.600422 
L 6007.581116 812.019581 
L 6015.182833 809.17145 
L 6022.784549 800.138526 
L 6030.386266 795.411678 
L 6037.987983 785.512965 
L 6045.5897 800.428077 
L 6053.191416 794.251321 
L 6060.793133 737.27649 
L 6068.39485 714.11383 
L 6075.996567 783.790579 
L 6083.598283 771.607718 
L 6091.2 747.686391 
L 6091.2 747.686391 
" style="fill:none;stroke:#000004;stroke-width:3;"/>
   </g>
   <g id="line2d_26">
    <path clip-path="url(#pbd090dcbfe)" d="M 777.6 557.964854 
L 785.201717 561.832846 
L 792.803433 561.747531 
L 800.40515 566.732205 
L 808.006867 571.540787 
L 815.608584 576.20233 
L 823.2103 580.732307 
L 830.812017 576.68283 
L 838.413734 580.070977 
L 846.015451 582.027771 
L 853.617167 578.148284 
L 861.218884 501.99713 
L 868.820601 508.153916 
L 876.422318 506.979294 
L 884.024034 512.535543 
L 891.625751 520.58228 
L 899.227468 527.847505 
L 906.829185 526.844856 
L 914.430901 540.495508 
L 922.032618 538.243641 
L 929.634335 543.512015 
L 937.236052 548.191929 
L 944.837768 552.395257 
L 952.439485 548.660856 
L 960.041202 560.891139 
L 967.642918 555.461905 
L 975.244635 556.571537 
L 982.846352 584.646955 
L 990.448069 587.179304 
L 998.049785 591.360256 
L 1005.651502 573.581708 
L 1013.253219 576.628753 
L 1020.854936 889.235121 
L 1028.456652 678.363596 
L 1036.058369 736.208425 
L 1043.660086 847.677532 
L 1051.261803 844.543003 
L 1058.863519 904.739325 
L 1066.465236 1061.032105 
L 1074.066953 964.633619 
L 1081.66867 907.065612 
L 1089.270386 867.855112 
L 1096.872103 865.462421 
L 1104.47382 835.156887 
L 1112.075536 809.528116 
L 1119.677253 805.872053 
L 1127.27897 782.051353 
L 1134.880687 675.943056 
L 1142.482403 672.44545 
L 1150.08412 622.330375 
L 1157.685837 648.579073 
L 1165.287554 645.2963 
L 1172.88927 612.042627 
L 1180.490987 608.837639 
L 1188.092704 650.072985 
L 1195.694421 646.035948 
L 1203.296137 642.993311 
L 1210.897854 634.677732 
L 1218.499571 581.423354 
L 1226.101288 572.67947 
L 1233.703004 567.506185 
L 1241.304721 561.763505 
L 1248.906438 561.523269 
L 1256.508155 557.244224 
L 1264.109871 553.679187 
L 1271.711588 536.255204 
L 1279.313305 642.276734 
L 1286.915021 639.383592 
L 1294.516738 642.607411 
L 1302.118455 646.591911 
L 1309.720172 651.036556 
L 1317.321888 655.864501 
L 1324.923605 663.622016 
L 1332.525322 628.117393 
L 1340.127039 572.960407 
L 1347.728755 605.755605 
L 1355.330472 746.676193 
L 1362.932189 743.980053 
L 1370.533906 494.663713 
L 1378.135622 740.903813 
L 1385.737339 735.608154 
L 1393.339056 493.985982 
L 1400.940773 560.639087 
L 1408.542489 560.270094 
L 1416.144206 564.759242 
L 1423.745923 683.169062 
L 1431.347639 672.814724 
L 1438.949356 724.200156 
L 1446.551073 719.243106 
L 1454.15279 736.303025 
L 1461.754506 707.480751 
L 1469.356223 682.793342 
L 1476.95794 678.282977 
L 1484.559657 668.545269 
L 1492.161373 663.836362 
L 1499.76309 658.166599 
L 1507.364807 655.028297 
L 1514.966524 642.081943 
L 1522.56824 417.220253 
L 1530.169957 388.473726 
L 1537.771674 411.695453 
L 1545.373391 436.693804 
L 1552.975107 432.32239 
L 1560.576824 446.64257 
L 1568.178541 333.033857 
L 1575.780258 383.08593 
L 1583.381974 398.028305 
L 1590.983691 454.654928 
L 1598.585408 469.83739 
L 1606.187124 483.359251 
L 1613.788841 494.877691 
L 1621.390558 504.475008 
L 1628.992275 511.359312 
L 1636.593991 520.448572 
L 1644.195708 504.052049 
L 1651.797425 540.225916 
L 1659.399142 546.372123 
L 1667.000858 552.09773 
L 1674.602575 557.519538 
L 1682.204292 562.620585 
L 1697.407725 572.438285 
L 1705.009442 593.603545 
L 1712.611159 598.628944 
L 1720.212876 603.95507 
L 1727.814592 609.797928 
L 1735.416309 616.562814 
L 1743.018026 625.209879 
L 1750.619742 597.623742 
L 1758.221459 602.98716 
L 1765.823176 597.542745 
L 1773.424893 496.707853 
L 1781.026609 485.264311 
L 1788.628326 448.724419 
L 1796.230043 463.124847 
L 1803.83176 475.303401 
L 1811.433476 477.349672 
L 1819.035193 489.726773 
L 1826.63691 500.396164 
L 1834.238627 509.774397 
L 1841.840343 518.141878 
L 1849.44206 445.240773 
L 1857.043777 402.44652 
L 1864.645494 430.46422 
L 1872.24721 448.731057 
L 1879.848927 519.832338 
L 1887.450644 527.512275 
L 1895.052361 534.542509 
L 1902.654077 564.617164 
L 1910.255794 569.369972 
L 1933.060944 583.255848 
L 1948.264378 592.936864 
L 1955.866094 598.000211 
L 1963.467811 729.184773 
L 1971.069528 566.759601 
L 1978.671245 477.527139 
L 1986.272961 357.28391 
L 1993.874678 384.426452 
L 2001.476395 416.844028 
L 2009.078112 440.72456 
L 2016.679828 459.376026 
L 2024.281545 474.548575 
L 2031.883262 487.266812 
L 2039.484979 498.175511 
L 2047.086695 507.702728 
L 2054.688412 516.144161 
L 2062.290129 523.709672 
L 2077.493562 537.307718 
L 2085.095279 542.382279 
L 2092.696996 547.146153 
L 2100.298712 551.641524 
L 2107.900429 557.035014 
L 2115.502146 689.627654 
L 2123.103863 691.040952 
L 2130.705579 693.98819 
L 2138.307296 837.163274 
L 2145.909013 564.750933 
L 2153.51073 286.613447 
L 2161.112446 353.743938 
L 2168.714163 372.025895 
L 2176.31588 407.384737 
L 2183.917597 432.922428 
L 2191.519313 450.224025 
L 2199.12103 466.703093 
L 2206.722747 480.896348 
L 2214.324464 493.043132 
L 2221.92618 503.56657 
L 2229.527897 512.848261 
L 2237.129614 504.676497 
L 2244.73133 513.878818 
L 2252.333047 550.274155 
L 2259.934764 555.687127 
L 2267.536481 560.839255 
L 2275.138197 565.778071 
L 2282.739914 570.545587 
L 2297.943348 579.717913 
L 2328.350215 597.645408 
L 2335.951931 602.293258 
L 2343.553648 607.831876 
L 2351.155365 614.042335 
L 2358.757082 593.382261 
L 2366.358798 587.421255 
L 2373.960515 539.070499 
L 2381.562232 544.829069 
L 2389.163948 550.147957 
L 2404.367382 554.678811 
L 2419.570815 558.934401 
L 2434.774249 562.950537 
L 2449.977682 566.757192 
L 2457.579399 568.59003 
L 2465.181116 559.51655 
L 2472.782833 548.376339 
L 2480.384549 554.051016 
L 2487.986266 559.449901 
L 2495.587983 564.628343 
L 2503.1897 569.636228 
L 2510.791416 1133.889652 
L 2518.393133 982.887958 
L 2525.99485 914.32996 
L 2533.596567 843.526511 
L 2541.198283 821.653619 
L 2548.8 804.28201 
L 2556.401717 789.964061 
L 2564.003433 777.827967 
L 2571.60515 767.312355 
L 2579.206867 758.036436 
L 2586.808584 749.690035 
L 2594.4103 742.120529 
L 2602.012017 735.177513 
L 2609.613734 728.744397 
L 2617.215451 722.728396 
L 2624.817167 717.053697 
L 2632.418884 538.533913 
L 2640.020601 542.030492 
L 2647.622318 535.678333 
L 2655.224034 535.678333 
L 2662.825751 527.087551 
L 2670.427468 528.940725 
L 2678.029185 529.294915 
L 2685.630901 534.080264 
L 2693.232618 535.331014 
L 2700.834335 536.175623 
L 2708.436052 534.675895 
L 2716.037768 534.940736 
L 2723.639485 515.160916 
L 2731.241202 517.234862 
L 2738.842918 524.898802 
L 2746.444635 531.865784 
L 2754.046352 546.78064 
L 2761.648069 558.221136 
L 2769.249785 560.028365 
L 2776.851502 562.735317 
L 2784.453219 557.951222 
L 2792.054936 569.597353 
L 2799.656652 574.414195 
L 2807.258369 579.031229 
L 2814.860086 576.032472 
L 2822.461803 580.310735 
L 2830.063519 585.730384 
L 2837.665236 610.08043 
L 2845.266953 588.915511 
L 2852.86867 535.294859 
L 2860.470386 541.042429 
L 2868.072103 570.343942 
L 2875.67382 576.870054 
L 2883.275536 581.583915 
L 2890.877253 760.431403 
L 2898.47897 645.192722 
L 2906.080687 761.048658 
L 2913.682403 763.481145 
L 2921.28412 801.031234 
L 2928.885837 626.551713 
L 2936.487554 632.273188 
L 2944.08927 638.77642 
L 2951.690987 781.607481 
L 2959.292704 770.851771 
L 2966.894421 649.641082 
L 2974.496137 645.909694 
L 2982.097854 651.546958 
L 2989.699571 648.563293 
L 2997.301288 655.470003 
L 3004.903004 655.264054 
L 3012.504721 651.129358 
L 3020.106438 649.371311 
L 3027.708155 831.519496 
L 3035.309871 760.816176 
L 3042.911588 745.89114 
L 3050.513305 621.216326 
L 3058.115021 616.539199 
L 3065.716738 551.670502 
L 3073.318455 558.036359 
L 3080.920172 479.64743 
L 3088.521888 408.679768 
L 3096.123605 259.854545 
L 3103.725322 339.440098 
L 3111.327039 437.049249 
L 3118.928755 503.868521 
L 3126.530472 512.644663 
L 3134.132189 520.955641 
L 3141.733906 545.672712 
L 3149.335622 516.203672 
L 3156.937339 450.278308 
L 3164.539056 552.682826 
L 3172.140773 557.48214 
L 3179.742489 600.374853 
L 3187.344206 604.607345 
L 3194.945923 637.870529 
L 3202.547639 640.258214 
L 3217.751073 645.308113 
L 3225.35279 633.957292 
L 3232.954506 628.556585 
L 3240.556223 706.993619 
L 3248.15794 627.774497 
L 3255.759657 774.92693 
L 3263.361373 779.270415 
L 3270.96309 783.327657 
L 3278.564807 694.786114 
L 3286.166524 761.418267 
L 3293.76824 757.870025 
L 3301.369957 754.877507 
L 3308.971674 749.679023 
L 3316.573391 743.134701 
L 3324.175107 768.28471 
L 3331.776824 788.228831 
L 3339.378541 809.005483 
L 3346.980258 764.834021 
L 3354.581974 756.127247 
L 3362.183691 748.327668 
L 3369.785408 740.972638 
L 3377.387124 735.023824 
L 3384.988841 735.963299 
L 3392.590558 731.136333 
L 3400.192275 834.569949 
L 3407.793991 818.19395 
L 3415.395708 805.118193 
L 3422.997425 774.23268 
L 3430.599142 765.247201 
L 3438.200858 757.392351 
L 3445.802575 630.036511 
L 3453.404292 558.511797 
L 3461.006009 468.35348 
L 3468.607725 498.098672 
L 3476.209442 576.85019 
L 3483.811159 888.952053 
L 3491.412876 598.060305 
L 3499.014592 598.176885 
L 3506.616309 570.165565 
L 3514.218026 568.352686 
L 3521.819742 524.234413 
L 3529.421459 631.98616 
L 3537.023176 558.684241 
L 3544.624893 573.776281 
L 3552.226609 625.564326 
L 3559.828326 657.832584 
L 3567.430043 658.689369 
L 3575.03176 499.763856 
L 3582.633476 503.487988 
L 3590.235193 512.157753 
L 3597.83691 496.997593 
L 3605.438627 555.947666 
L 3613.040343 560.179018 
L 3620.64206 538.27641 
L 3628.243777 596.602446 
L 3635.845494 652.021866 
L 3643.44721 657.871492 
L 3651.048927 663.361044 
L 3658.650644 610.657025 
L 3666.252361 616.154206 
L 3673.854077 618.209385 
L 3681.455794 617.777532 
L 3689.057511 613.585636 
L 3696.659227 610.419209 
L 3704.260944 702.232259 
L 3711.862661 749.412851 
L 3719.464378 844.578703 
L 3727.066094 824.531844 
L 3734.667811 807.110348 
L 3742.269528 792.718568 
L 3749.871245 780.274408 
L 3757.472961 772.924784 
L 3765.074678 763.1258 
L 3772.676395 754.723685 
L 3780.278112 749.133823 
L 3787.879828 628.739377 
L 3795.481545 631.303887 
L 3803.083262 627.187222 
L 3810.684979 622.466415 
L 3818.286695 617.296689 
L 3825.888412 524.085531 
L 3841.091845 522.273173 
L 3848.693562 530.062052 
L 3856.295279 531.42704 
L 3863.896996 536.781644 
L 3871.498712 537.778277 
L 3879.100429 542.799493 
L 3886.702146 544.167828 
L 3894.303863 601.383072 
L 3901.905579 743.575909 
L 3909.507296 736.515293 
L 3917.109013 590.340711 
L 3924.71073 588.60186 
L 3932.312446 589.005315 
L 3939.914163 593.474208 
L 3947.51588 445.508744 
L 3955.117597 461.707486 
L 3962.719313 474.95415 
L 3970.32103 486.005072 
L 3977.922747 495.328468 
L 3985.524464 503.206963 
L 3993.12618 509.781591 
L 4000.727897 515.053617 
L 4008.329614 518.833008 
L 4015.93133 526.624762 
L 4023.533047 533.748309 
L 4031.134764 540.329408 
L 4038.736481 546.467406 
L 4046.338197 552.242816 
L 4053.939914 573.780816 
L 4069.143348 579.900381 
L 4076.745064 682.353576 
L 4084.346781 805.874362 
L 4091.948498 793.202781 
L 4099.550215 782.159763 
L 4107.151931 772.522117 
L 4114.753648 763.985084 
L 4122.355365 758.47155 
L 4129.957082 763.394149 
L 4137.558798 768.736176 
L 4145.160515 762.914487 
L 4152.762232 757.539224 
L 4160.363948 752.459962 
L 4167.965665 747.810208 
L 4175.567382 740.402361 
L 4183.169099 733.590511 
L 4190.770815 605.479427 
L 4198.372532 602.662797 
L 4205.974249 726.097561 
L 4213.575966 720.261108 
L 4221.177682 714.739305 
L 4228.779399 679.309793 
L 4236.381116 661.848237 
L 4243.982833 803.928474 
L 4251.584549 792.806441 
L 4259.186266 552.307728 
L 4266.787983 673.133292 
L 4274.3897 667.877084 
L 4281.991416 662.330024 
L 4289.593133 791.217553 
L 4297.19485 642.419785 
L 4304.796567 636.675266 
L 4312.398283 715.338588 
L 4320 634.646601 
L 4327.601717 634.990357 
L 4335.203433 809.134374 
L 4342.80515 659.058529 
L 4358.008584 657.632913 
L 4365.6103 753.490552 
L 4373.212017 692.112265 
L 4380.813734 889.927827 
L 4388.415451 856.060143 
L 4396.017167 1061.999332 
L 4403.618884 916.3268 
L 4411.220601 873.873073 
L 4418.822318 971.439042 
L 4426.424034 880.234134 
L 4434.025751 849.079529 
L 4441.627468 830.374724 
L 4449.229185 740.790475 
L 4456.830901 744.282347 
L 4464.432618 811.794281 
L 4472.034335 796.154604 
L 4479.636052 755.18372 
L 4487.237768 745.809316 
L 4494.839485 738.587273 
L 4502.441202 731.929745 
L 4510.042918 725.733835 
L 4517.644635 726.183036 
L 4525.246352 706.833536 
L 4532.848069 725.542054 
L 4540.449785 678.401868 
L 4548.051502 703.412703 
L 4555.653219 675.351671 
L 4563.254936 690.518713 
L 4570.856652 685.778683 
L 4578.458369 632.338826 
L 4586.060086 623.982307 
L 4593.661803 645.382779 
L 4601.263519 688.613815 
L 4608.865236 694.417882 
L 4616.466953 722.393088 
L 4624.06867 679.419584 
L 4631.670386 674.419767 
L 4639.272103 669.148568 
L 4646.87382 760.44983 
L 4654.475536 755.425849 
L 4662.077253 750.741761 
L 4669.67897 747.458982 
L 4677.280687 938.599838 
L 4684.882403 897.650413 
L 4692.48412 923.572299 
L 4700.085837 834.234108 
L 4707.687554 814.326175 
L 4715.28927 670.863344 
L 4722.890987 799.619601 
L 4730.492704 561.057334 
L 4738.094421 761.71954 
L 4745.696137 692.654956 
L 4753.297854 688.56223 
L 4760.899571 685.76927 
L 4768.501288 715.074901 
L 4776.103004 728.210764 
L 4783.704721 794.134841 
L 4791.306438 647.853572 
L 4798.908155 701.8089 
L 4806.509871 770.56212 
L 4814.111588 552.507157 
L 4821.713305 687.763917 
L 4829.315021 683.258162 
L 4836.916738 525.559105 
L 4844.518455 696.780817 
L 4852.120172 691.987143 
L 4859.721888 605.392667 
L 4867.323605 599.883741 
L 4874.925322 597.036464 
L 4882.527039 663.499106 
L 4890.128755 630.563306 
L 4897.730472 732.041896 
L 4905.332189 683.569043 
L 4912.933906 565.931716 
L 4920.535622 398.028172 
L 4928.137339 439.126081 
L 4935.739056 513.713473 
L 4943.340773 732.769203 
L 4950.942489 571.288646 
L 4958.544206 450.578471 
L 4966.145923 413.85221 
L 4973.747639 622.446157 
L 4981.349356 532.750455 
L 4988.951073 538.231829 
L 4996.55279 591.616796 
L 5004.154506 547.301486 
L 5011.756223 552.309831 
L 5019.35794 624.329821 
L 5026.959657 646.435422 
L 5034.561373 613.967757 
L 5042.16309 612.622951 
L 5049.764807 758.205178 
L 5057.366524 636.467025 
L 5064.96824 613.069799 
L 5072.569957 608.381116 
L 5080.171674 769.064257 
L 5087.773391 619.081895 
L 5095.375107 649.965861 
L 5102.976824 798.11329 
L 5110.578541 639.163247 
L 5118.180258 641.691422 
L 5125.781974 648.0447 
L 5133.383691 913.281787 
L 5140.985408 862.885991 
L 5148.587124 838.99347 
L 5156.188841 905.771269 
L 5163.790558 902.369613 
L 5171.392275 867.439457 
L 5178.993991 839.705403 
L 5186.595708 819.786913 
L 5194.197425 770.961124 
L 5201.799142 777.714307 
L 5209.400858 762.221081 
L 5217.002575 731.847034 
L 5224.604292 725.425629 
L 5232.206009 719.656946 
L 5239.807725 701.472387 
L 5247.409442 698.299883 
L 5255.011159 625.632727 
L 5262.612876 621.625078 
L 5270.214592 617.333552 
L 5277.816309 680.167794 
L 5285.418026 675.630341 
L 5293.019742 693.659254 
L 5300.621459 633.592617 
L 5308.223176 667.927923 
L 5315.824893 633.935251 
L 5323.426609 627.189665 
L 5331.028326 623.715889 
L 5338.630043 690.596346 
L 5346.23176 595.132487 
L 5353.833476 574.059693 
L 5361.435193 573.104477 
L 5369.03691 573.851677 
L 5376.638627 571.726175 
L 5384.240343 620.946427 
L 5391.84206 578.794046 
L 5399.443777 634.137549 
L 5407.045494 641.209952 
L 5414.64721 588.372808 
L 5422.248927 629.543212 
L 5429.850644 596.490598 
L 5437.452361 530.013742 
L 5445.054077 359.345844 
L 5452.655794 608.901745 
L 5460.257511 389.755147 
L 5467.859227 420.358468 
L 5475.460944 445.655318 
L 5483.062661 457.78857 
L 5490.664378 468.299664 
L 5498.266094 477.539805 
L 5505.867811 490.132948 
L 5513.469528 500.986832 
L 5528.672961 517.918754 
L 5536.274678 525.56107 
L 5543.876395 532.730896 
L 5551.478112 539.344054 
L 5559.079828 545.50165 
L 5566.681545 549.877488 
L 5574.283262 555.44869 
L 5581.884979 560.757714 
L 5589.486695 565.857064 
L 5604.690129 575.637859 
L 5635.096996 594.43647 
L 5642.698712 599.588564 
L 5650.300429 604.898513 
L 5657.902146 611.027239 
L 5665.503863 618.544002 
L 5673.105579 618.77416 
L 5680.707296 660.368881 
L 5688.309013 652.773506 
L 5695.91073 728.601142 
L 5733.919313 728.601142 
L 5741.52103 1136.945455 
L 5749.122747 999.583534 
L 5756.724464 923.351195 
L 5764.32618 878.466235 
L 5771.927897 847.746823 
L 5779.529614 824.847437 
L 5787.13133 806.802414 
L 5794.733047 792.013373 
L 5802.334764 779.531326 
L 5809.936481 768.751584 
L 5817.538197 759.267371 
L 5825.139914 750.792946 
L 5832.741631 743.120159 
L 5840.343348 736.092667 
L 5847.945064 729.589638 
L 5855.546781 723.515264 
L 5863.148498 532.72096 
L 5901.157082 533.992202 
L 5908.758798 787.018687 
L 5916.360515 881.296227 
L 5923.962232 851.499861 
L 5931.563948 829.243851 
L 5939.165665 869.664949 
L 5946.767382 808.619034 
L 5954.369099 794.89968 
L 5961.970815 783.386036 
L 5969.572532 835.688767 
L 5977.174249 762.308033 
L 5984.775966 761.222184 
L 5992.377682 786.143929 
L 5999.979399 784.220576 
L 6007.581116 786.252195 
L 6015.182833 781.741022 
L 6022.784549 770.705075 
L 6030.386266 761.026068 
L 6037.987983 752.401184 
L 6045.5897 817.022526 
L 6053.191416 786.958022 
L 6060.793133 729.887426 
L 6068.39485 684.416476 
L 6075.996567 778.287192 
L 6083.598283 767.850239 
L 6091.2 734.535137 
L 6091.2 734.535137 
" style="fill:none;stroke:#b73779;stroke-width:3;"/>
   </g>
   <g id="line2d_27">
    <path clip-path="url(#pbd090dcbfe)" d="M 777.6 635.481651 
L 6091.2 635.481651 
" style="fill:none;opacity:0.7;stroke:#000000;stroke-width:1.3;"/>
   </g>
   <g id="patch_3">
    <path d="M 777.6 1180.8 
L 777.6 216 
" style="fill:none;stroke:#000000;stroke-linecap:square;stroke-linejoin:miter;stroke-width:0.8;"/>
   </g>
   <g id="patch_4">
    <path d="M 6091.2 1180.8 
L 6091.2 216 
" style="fill:none;stroke:#000000;stroke-linecap:square;stroke-linejoin:miter;stroke-width:0.8;"/>
   </g>
   <g id="patch_5">
    <path d="M 777.6 1180.8 
L 6091.2 1180.8 
" style="fill:none;stroke:#000000;stroke-linecap:square;stroke-linejoin:miter;stroke-width:0.8;"/>
   </g>
   <g id="patch_6">
    <path d="M 777.6 216 
L 6091.2 216 
" style="fill:none;stroke:#000000;stroke-linecap:square;stroke-linejoin:miter;stroke-width:0.8;"/>
   </g>
   <g id="patch_7">
    <path d="M 0 1440 
L 6480 1440 
L 6480 1416.729153 
L 0 1416.729153 
z
" style="fill:#808080;"/>
   </g>
   <g id="text_15">
    <!-- ©spred -->
    <defs>
     <path d="M 50.90625 25.90625 
L 50.90625 44 
Q 50.90625 52.40625 44.75 58.40625 
Q 38.59375 64.40625 30 64.40625 
Q 21.296875 64.40625 15.09375 58.40625 
Q 8.90625 52.40625 8.90625 44 
L 8.90625 25.90625 
Q 8.90625 17.5 15.09375 11.453125 
Q 21.296875 5.40625 30 5.40625 
Q 38.59375 5.40625 44.75 11.453125 
Q 50.90625 17.5 50.90625 25.90625 
z
M 57.703125 43.203125 
L 57.703125 26.59375 
Q 57.703125 15.203125 49.59375 7.09375 
Q 41.5 -1 30 -1 
Q 18.40625 -1 10.296875 7.09375 
Q 2.203125 15.203125 2.203125 26.59375 
L 2.203125 43.203125 
Q 2.203125 54.59375 10.296875 62.6875 
Q 18.40625 70.796875 30 70.796875 
Q 41.5 70.796875 49.59375 62.6875 
Q 57.703125 54.59375 57.703125 43.203125 
z
M 38.59375 29.40625 
L 41.40625 29.40625 
Q 42.40625 29.40625 42.90625 28.84375 
Q 43.40625 28.296875 43.40625 27.59375 
Q 43.40625 21.59375 39.796875 17.9375 
Q 36.203125 14.296875 30.40625 14.296875 
Q 24.40625 14.296875 20.75 17.9375 
Q 17.09375 21.59375 17.09375 27.09375 
L 17.09375 43.40625 
Q 17.09375 48.703125 20.75 52.390625 
Q 24.40625 56.09375 30.40625 56.09375 
Q 35.90625 56.09375 39.40625 52.25 
Q 42.90625 48.40625 42.90625 42.296875 
Q 42.90625 41.59375 42.40625 41.046875 
Q 41.90625 40.5 40.90625 40.5 
L 38.09375 40.5 
Q 37.09375 40.5 36.546875 41.046875 
Q 36 41.59375 36 42.296875 
Q 36 45.203125 34.390625 47.046875 
Q 32.796875 48.90625 30.40625 48.90625 
Q 27.703125 48.90625 25.796875 46.90625 
Q 23.90625 44.90625 23.90625 42.203125 
L 23.90625 28.203125 
Q 23.90625 25.59375 25.796875 23.59375 
Q 27.703125 21.59375 30.40625 21.59375 
Q 32.90625 21.59375 34.703125 23.1875 
Q 36.5 24.796875 36.5 27.59375 
Q 36.5 28.296875 37.046875 28.84375 
Q 37.59375 29.40625 38.59375 29.40625 
z
" id="DecimaMonoPro-a9"/>
     <path d="M 30.09375 -1 
Q 25.296875 -1 21.546875 0.59375 
Q 17.796875 2.203125 15.84375 4.59375 
Q 13.90625 7 12.953125 9.390625 
Q 12 11.796875 12 14 
Q 12 14.796875 12.5 15.296875 
Q 13 15.796875 13.796875 15.796875 
L 18.296875 15.796875 
Q 19.90625 15.796875 20.09375 14.09375 
Q 20.40625 11.203125 22.796875 8.703125 
Q 25.203125 6.203125 30.09375 6.203125 
Q 34.296875 6.203125 36.890625 8.296875 
Q 39.5 10.40625 39.5 13.59375 
Q 39.5 16.5 36.84375 18.5 
Q 34.203125 20.5 30.390625 21.84375 
Q 26.59375 23.203125 22.84375 24.796875 
Q 19.09375 26.40625 16.4375 29.5 
Q 13.796875 32.59375 13.796875 37.09375 
Q 13.796875 43.296875 18.4375 47.140625 
Q 23.09375 51 30.703125 51 
Q 38.90625 51 43.25 46.5 
Q 47.59375 42 47.59375 37.5 
Q 47.59375 36.796875 47.09375 36.25 
Q 46.59375 35.703125 45.796875 35.703125 
L 41.203125 35.703125 
Q 39.703125 35.703125 39.40625 37.40625 
Q 38.90625 40 36.75 41.890625 
Q 34.59375 43.796875 30.703125 43.796875 
Q 26.90625 43.796875 24.546875 42.09375 
Q 22.203125 40.40625 22.203125 37.703125 
Q 22.203125 35 24.84375 33.09375 
Q 27.5 31.203125 31.25 29.890625 
Q 35 28.59375 38.703125 26.9375 
Q 42.40625 25.296875 45.046875 21.84375 
Q 47.703125 18.40625 47.703125 13.40625 
Q 47.703125 7.40625 42.59375 3.203125 
Q 37.5 -1 30.09375 -1 
z
" id="DecimaMonoPro-73"/>
     <path d="M 42.09375 17.09375 
L 42.09375 33.09375 
Q 42.09375 37.703125 38.84375 40.796875 
Q 35.59375 43.90625 30.5 43.90625 
Q 25.40625 43.90625 22.046875 40.75 
Q 18.703125 37.59375 18.703125 33 
L 18.703125 17.09375 
Q 18.703125 12.5 22.046875 9.390625 
Q 25.40625 6.296875 30.5 6.296875 
Q 35.59375 6.296875 38.84375 9.390625 
Q 42.09375 12.5 42.09375 17.09375 
z
M 18.703125 3.703125 
L 18.796875 -16.203125 
Q 18.796875 -18 16.5 -18 
L 13 -18 
Q 10.703125 -18 10.703125 -16.203125 
L 10.703125 48.203125 
Q 10.703125 50 13 50 
L 15.90625 50 
Q 18.203125 50 18.203125 48.203125 
L 18.203125 45.90625 
Q 18.59375 46.5 19.5 47.34375 
Q 20.40625 48.203125 23.75 49.59375 
Q 27.09375 51 31.296875 51 
Q 39.296875 51 44.796875 45.640625 
Q 50.296875 40.296875 50.296875 32.59375 
L 50.296875 17.40625 
Q 50.296875 9.796875 44.75 4.390625 
Q 39.203125 -1 31.296875 -1 
Q 27.40625 -1 24.25 0.203125 
Q 21.09375 1.40625 19.90625 2.59375 
z
" id="DecimaMonoPro-70"/>
     <path d="M 37.203125 51 
Q 44.09375 51 48.140625 46.453125 
Q 52.203125 41.90625 52.203125 37.5 
Q 52.203125 35.703125 50.5 35.703125 
L 45.90625 35.703125 
Q 44.296875 35.703125 44.09375 37.40625 
Q 43.796875 39.796875 41.75 41.796875 
Q 39.703125 43.796875 36.59375 43.796875 
Q 32.40625 43.796875 29.203125 40.796875 
Q 26 37.796875 26 34 
L 26 7.203125 
L 45.09375 7.203125 
Q 45.796875 7.203125 46.34375 6.703125 
Q 46.90625 6.203125 46.90625 5.40625 
L 46.90625 1.796875 
Q 46.90625 1 46.34375 0.5 
Q 45.796875 0 45.09375 0 
L 9.296875 0 
Q 8.59375 0 8.046875 0.5 
Q 7.5 1 7.5 1.796875 
L 7.5 5.40625 
Q 7.5 6.203125 8.046875 6.703125 
Q 8.59375 7.203125 9.296875 7.203125 
L 18 7.203125 
L 18 48.203125 
Q 18 50 20.296875 50 
L 23.5 50 
Q 25.796875 50 25.796875 48.203125 
L 25.796875 45.703125 
Q 29.796875 51 37.203125 51 
z
" id="DecimaMonoPro-72"/>
     <path d="M 48.796875 13.5 
Q 48.796875 9.09375 43.75 4.046875 
Q 38.703125 -1 30.203125 -1 
Q 21.203125 -1 15.75 4.453125 
Q 10.296875 9.90625 10.296875 17.5 
L 10.296875 32.703125 
Q 10.296875 40.203125 15.75 45.59375 
Q 21.203125 51 30.203125 51 
Q 39.203125 51 44.453125 45.59375 
Q 49.703125 40.203125 49.703125 32.703125 
L 49.703125 24.796875 
Q 49.703125 23.796875 49.046875 23.140625 
Q 48.40625 22.5 47.40625 22.5 
L 18.40625 22.5 
L 18.40625 17 
Q 18.40625 12.5 21.65625 9.296875 
Q 24.90625 6.09375 30.203125 6.09375 
Q 38.5 6.09375 40.59375 13.59375 
Q 41.09375 15.296875 42.40625 15.296875 
L 47 15.296875 
Q 47.796875 15.296875 48.296875 14.75 
Q 48.796875 14.203125 48.796875 13.5 
z
M 18.40625 33 
L 18.40625 29.703125 
L 41.796875 29.703125 
L 41.796875 33 
Q 41.796875 37.5 38.640625 40.640625 
Q 35.5 43.796875 30.203125 43.796875 
Q 24.90625 43.796875 21.65625 40.640625 
Q 18.40625 37.5 18.40625 33 
z
" id="DecimaMonoPro-65"/>
     <path d="M 17.90625 32.90625 
L 17.90625 16.90625 
Q 17.90625 12.296875 21.15625 9.1875 
Q 24.40625 6.09375 29.5 6.09375 
Q 34.59375 6.09375 37.9375 9.25 
Q 41.296875 12.40625 41.296875 17 
L 41.296875 32.90625 
Q 41.296875 37.5 37.9375 40.59375 
Q 34.59375 43.703125 29.5 43.703125 
Q 24.40625 43.703125 21.15625 40.59375 
Q 17.90625 37.5 17.90625 32.90625 
z
M 41.296875 46.296875 
L 41.203125 68.203125 
Q 41.203125 70 43.5 70 
L 47 70 
Q 49.296875 70 49.296875 68.203125 
L 49.296875 1.796875 
Q 49.296875 0 47 0 
L 44.09375 0 
Q 41.796875 0 41.796875 1.796875 
L 41.796875 4.09375 
Q 41.40625 3.5 40.5 2.640625 
Q 39.59375 1.796875 36.25 0.390625 
Q 32.90625 -1 28.703125 -1 
Q 20.703125 -1 15.203125 4.34375 
Q 9.703125 9.703125 9.703125 17.40625 
L 9.703125 32.59375 
Q 9.703125 40.203125 15.25 45.59375 
Q 20.796875 51 28.703125 51 
Q 32.59375 51 35.75 49.796875 
Q 38.90625 48.59375 40.09375 47.40625 
z
" id="DecimaMonoPro-64"/>
    </defs>
    <g style="fill:#ffffff;" transform="translate(64.8 1432.8)scale(0.14 -0.14)">
     <use xlink:href="#DecimaMonoPro-a9"/>
     <use x="59.999985" xlink:href="#DecimaMonoPro-73"/>
     <use x="119.999969" xlink:href="#DecimaMonoPro-70"/>
     <use x="179.999954" xlink:href="#DecimaMonoPro-72"/>
     <use x="239.999939" xlink:href="#DecimaMonoPro-65"/>
     <use x="299.999924" xlink:href="#DecimaMonoPro-64"/>
    </g>
   </g>
   <g id="text_16">
    <!-- ETHBTC_drop -->
    <defs>
     <path d="M 9.40625 70 
L 9.40625 0 
L 51.90625 0 
L 51.90625 10.40625 
L 20.40625 10.40625 
L 20.40625 32 
L 45 32 
L 45 42.40625 
L 20.40625 42.40625 
L 20.40625 59.59375 
L 50.90625 59.59375 
L 50.90625 70 
z
" id="ApercuPro-Medium-45"/>
     <path d="M 1.09375 59.59375 
L 20.703125 59.59375 
L 20.703125 0 
L 31.703125 0 
L 31.703125 59.59375 
L 51.296875 59.59375 
L 51.296875 70 
L 1.09375 70 
z
" id="ApercuPro-Medium-54"/>
     <path d="M 9.40625 0 
L 20.40625 0 
L 20.40625 32.203125 
L 48.796875 32.203125 
L 48.796875 0 
L 59.796875 0 
L 59.796875 70 
L 48.796875 70 
L 48.796875 42.59375 
L 20.40625 42.59375 
L 20.40625 70 
L 9.40625 70 
z
" id="ApercuPro-Medium-48"/>
     <path d="M 9.40625 70 
L 9.40625 0 
L 35.40625 0 
C 49.203125 0 57.40625 7.5 57.40625 20.59375 
C 57.40625 28.703125 53.296875 35.40625 46.703125 38.203125 
C 50.796875 40.40625 53.796875 46.296875 53.796875 51.703125 
C 53.796875 63.796875 45.796875 70 34.203125 70 
z
M 33.203125 59.59375 
C 39.40625 59.59375 42.796875 56.703125 42.796875 51 
C 42.796875 45.296875 39.40625 42.40625 33.203125 42.40625 
L 20.40625 42.40625 
L 20.40625 59.59375 
z
M 33.90625 32 
C 42 32 46.203125 28.203125 46.203125 21.203125 
C 46.203125 14.203125 42 10.40625 33.90625 10.40625 
L 20.40625 10.40625 
L 20.40625 32 
z
" id="ApercuPro-Medium-42"/>
     <path d="M 65.796875 49.59375 
C 62.203125 62.796875 52.40625 70.796875 37.5 70.796875 
C 20.59375 70.796875 5.09375 58.703125 5.09375 35 
C 5.09375 11.296875 20.59375 -0.796875 37.5 -0.796875 
C 52.40625 -0.796875 62.203125 7.203125 65.796875 20.40625 
L 55.40625 23 
C 51.90625 14.09375 47 9.59375 37.5 9.59375 
C 25.703125 9.59375 16.296875 17.90625 16.296875 35 
C 16.296875 52.09375 25.703125 60.40625 37.5 60.40625 
C 47 60.40625 51.90625 55.90625 55.40625 47 
z
" id="ApercuPro-Medium-43"/>
     <path d="M 2.703125 -9.203125 
L 47.203125 -9.203125 
L 47.203125 0 
L 2.703125 0 
z
" id="ApercuPro-Medium-5f"/>
     <path d="M 4.90625 25.203125 
C 4.90625 9.09375 12.5 -0.796875 27.40625 -0.796875 
C 34 -0.796875 39.40625 2.90625 41.09375 5.796875 
L 41.09375 0 
L 51.5 0 
L 51.5 70.796875 
L 41.09375 70.796875 
L 41.09375 44.796875 
C 38.796875 48.09375 32.59375 51.203125 27.59375 51.203125 
C 12.5 51.203125 4.90625 40.796875 4.90625 25.203125 
z
M 15.90625 25.203125 
C 15.90625 35.59375 21.296875 42 28.796875 42 
C 36.296875 42 41.703125 35.59375 41.703125 25.203125 
C 41.703125 14.796875 36.296875 8.40625 28.796875 8.40625 
C 21.296875 8.40625 15.90625 14.796875 15.90625 25.203125 
z
" id="ApercuPro-Medium-64"/>
     <path d="M 19 0 
L 19 18.703125 
C 19 34.59375 25.90625 42 32.59375 42 
C 34.703125 42 36.90625 41.5 38.5 40.5 
L 40.296875 50 
C 38.796875 50.59375 36.59375 51.203125 33.90625 51.203125 
C 28.5 51.203125 22.5 48 19 42 
L 19 50.40625 
L 8.59375 50.40625 
L 8.59375 0 
z
" id="ApercuPro-Medium-72"/>
     <path d="M 4.90625 25.203125 
C 4.90625 11 14.09375 -0.796875 29.703125 -0.796875 
C 45.296875 -0.796875 54.5 11 54.5 25.203125 
C 54.5 39.40625 45.296875 51.203125 29.703125 51.203125 
C 14.09375 51.203125 4.90625 39.40625 4.90625 25.203125 
z
M 15.90625 25.203125 
C 15.90625 33.703125 20.59375 42 29.703125 42 
C 38.796875 42 43.5 33.703125 43.5 25.203125 
C 43.5 16.703125 38.796875 8.40625 29.703125 8.40625 
C 20.59375 8.40625 15.90625 16.703125 15.90625 25.203125 
z
" id="ApercuPro-Medium-6f"/>
     <path d="M 55.203125 25.203125 
C 55.203125 41.296875 47.59375 51.203125 32.703125 51.203125 
C 26.09375 51.203125 20.703125 47.5 19 44.59375 
L 19 50.40625 
L 8.59375 50.40625 
L 8.59375 -20.40625 
L 19 -20.40625 
L 19 5.59375 
C 21.296875 2.296875 26.296875 -0.796875 32.5 -0.796875 
C 47.59375 -0.796875 55.203125 9.59375 55.203125 25.203125 
z
M 44.203125 25.203125 
C 44.203125 14.796875 38.796875 8.40625 31.296875 8.40625 
C 23.796875 8.40625 18.40625 14.796875 18.40625 25.203125 
C 18.40625 35.59375 23.796875 42 31.296875 42 
C 38.796875 42 44.203125 35.59375 44.203125 25.203125 
z
" id="ApercuPro-Medium-70"/>
    </defs>
    <g style="opacity:0.75;" transform="translate(1044 144)scale(0.3 -0.3)">
     <use xlink:href="#ApercuPro-Medium-45"/>
     <use x="56.846863" xlink:href="#ApercuPro-Medium-54"/>
     <use x="109.246857" xlink:href="#ApercuPro-Medium-48"/>
     <use x="178.384338" xlink:href="#ApercuPro-Medium-42"/>
     <use x="240.684326" xlink:href="#ApercuPro-Medium-54"/>
     <use x="293.068695" xlink:href="#ApercuPro-Medium-43"/>
     <use x="362.56868" xlink:href="#ApercuPro-Medium-5f"/>
     <use x="412.468674" xlink:href="#ApercuPro-Medium-64"/>
     <use x="472.52179" xlink:href="#ApercuPro-Medium-72"/>
     <use x="514.221786" xlink:href="#ApercuPro-Medium-6f"/>
     <use x="573.62178" xlink:href="#ApercuPro-Medium-70"/>
    </g>
   </g>
   <g id="text_17">
    <!-- None -->
    <defs>
     <path d="M 51.59375 70 
L 60.40625 70 
L 60.40625 0 
L 50.09375 0 
L 18.5 54.5 
L 18.5 0 
L 9.703125 0 
L 9.703125 70 
L 20 70 
L 51.59375 15.296875 
z
" id="Apercu-4e"/>
     <path d="M 12 6.796875 
Q 5.40625 14.5 5.40625 25.203125 
Q 5.40625 35.90625 12.046875 43.546875 
Q 18.703125 51.203125 29.59375 51.203125 
Q 40.5 51.203125 47.140625 43.546875 
Q 53.796875 35.90625 53.796875 25.203125 
Q 53.796875 14.5 47.140625 6.84375 
Q 40.5 -0.796875 29.59375 -0.796875 
Q 18.703125 -0.796875 12 6.796875 
z
M 18.09375 38.09375 
Q 14 32.703125 14 25.203125 
Q 14 17.703125 18.140625 12.25 
Q 22.296875 6.796875 29.59375 6.796875 
Q 36.90625 6.796875 41.046875 12.25 
Q 45.203125 17.703125 45.203125 25.203125 
Q 45.203125 32.703125 41.046875 38.140625 
Q 36.90625 43.59375 29.59375 43.59375 
Q 22.296875 43.59375 18.09375 38.09375 
z
" id="Apercu-6f"/>
     <path d="M 49.09375 35.5 
L 49.09375 0 
L 40.703125 0 
L 40.703125 33.296875 
Q 40.703125 43.59375 32 43.59375 
Q 26.09375 43.59375 21.84375 37.390625 
Q 17.59375 31.203125 17.59375 21.09375 
L 17.59375 0 
L 9.203125 0 
L 9.203125 50.40625 
L 17.59375 50.40625 
L 17.59375 41.09375 
Q 23.296875 51.203125 34.296875 51.203125 
Q 41.203125 51.203125 45.140625 47.09375 
Q 49.09375 43 49.09375 35.5 
z
" id="Apercu-6e"/>
     <path d="M 51 27.296875 
L 51 23.40625 
L 14 23.40625 
Q 14.40625 16 18.046875 11.390625 
Q 21.703125 6.796875 28.203125 6.796875 
Q 33.5 6.796875 36.75 9.140625 
Q 40 11.5 42.203125 16.40625 
L 49.59375 13.203125 
Q 46.09375 5.796875 41.046875 2.5 
Q 36 -0.796875 28.203125 -0.796875 
Q 17.296875 -0.796875 11.34375 6.75 
Q 5.40625 14.296875 5.40625 25.1875 
Q 5.40625 36.09375 11.34375 43.640625 
Q 17.296875 51.203125 28.203125 51.203125 
Q 38.90625 51.203125 44.953125 44.25 
Q 51 37.296875 51 27.296875 
z
M 28.203125 43.59375 
Q 22.59375 43.59375 19.140625 40.1875 
Q 15.703125 36.796875 14.5 31 
L 42.203125 31 
Q 41 36.703125 37.5 40.140625 
Q 34 43.59375 28.203125 43.59375 
z
" id="Apercu-65"/>
    </defs>
    <g style="opacity:0.75;" transform="translate(1045 158.4)scale(0.14 -0.14)">
     <use xlink:href="#Apercu-4e"/>
     <use x="70.099991" xlink:href="#Apercu-6f"/>
     <use x="129.299988" xlink:href="#Apercu-6e"/>
     <use x="186.999985" xlink:href="#Apercu-65"/>
    </g>
   </g>
   <g id="legend_1">
    <g id="patch_8">
     <path d="M 5997.58375 266.736875 
L 6081.4 266.736875 
Q 6084.2 266.736875 6084.2 263.936875 
L 6084.2 225.8 
Q 6084.2 223 6081.4 223 
L 5997.58375 223 
Q 5994.78375 223 5994.78375 225.8 
L 5994.78375 263.936875 
Q 5994.78375 266.736875 5997.58375 266.736875 
z
" style="fill:#f0f0f0;opacity:0.8;stroke:#cccccc;stroke-linejoin:miter;stroke-width:0.5;"/>
    </g>
    <g id="line2d_28">
     <path d="M 6000.38375 233.611563 
L 6028.38375 233.611563 
" style="fill:none;stroke:#000004;stroke-width:3;"/>
    </g>
    <g id="line2d_29"/>
    <g id="text_18">
     <!-- pred -->
     <defs>
      <path d="M 32.296875 -0.796875 
Q 27.796875 -0.796875 23.390625 1.390625 
Q 19 3.59375 17.59375 6 
L 17.59375 -20.40625 
L 9.203125 -20.40625 
L 9.203125 50.40625 
L 17.59375 50.40625 
L 17.59375 44.203125 
Q 19.5 47.09375 23.640625 49.140625 
Q 27.796875 51.203125 32.296875 51.203125 
Q 43.09375 51.203125 48.890625 44.046875 
Q 54.703125 36.90625 54.703125 25.203125 
Q 54.703125 13.5 48.890625 6.34375 
Q 43.09375 -0.796875 32.296875 -0.796875 
z
M 31.5 43.59375 
Q 24.703125 43.59375 20.796875 38.5 
Q 16.90625 33.40625 16.90625 25.203125 
Q 16.90625 17 20.796875 11.890625 
Q 24.703125 6.796875 31.5 6.796875 
Q 38.09375 6.796875 42.09375 11.890625 
Q 46.09375 17 46.09375 25.203125 
Q 46.09375 33.40625 42.09375 38.5 
Q 38.09375 43.59375 31.5 43.59375 
z
" id="Apercu-70"/>
      <path d="M 39.296875 49.703125 
L 37.59375 42.203125 
Q 34.796875 43.59375 31.703125 43.59375 
Q 26 43.59375 21.796875 37.140625 
Q 17.59375 30.703125 17.59375 19.09375 
L 17.59375 0 
L 9.203125 0 
L 9.203125 50.40625 
L 17.59375 50.40625 
L 17.59375 41.796875 
Q 19.796875 46 24 48.59375 
Q 28.203125 51.203125 32.40625 51.203125 
Q 36.5 51.203125 39.296875 49.703125 
z
" id="Apercu-72"/>
      <path d="M 27.796875 51.203125 
Q 32.296875 51.203125 36.6875 49 
Q 41.09375 46.796875 42.5 44.40625 
L 42.5 70.796875 
L 50.90625 70.796875 
L 50.90625 0 
L 42.5 0 
L 42.5 6.203125 
Q 40.59375 3.296875 36.4375 1.25 
Q 32.296875 -0.796875 27.796875 -0.796875 
Q 17 -0.796875 11.203125 6.34375 
Q 5.40625 13.5 5.40625 25.203125 
Q 5.40625 36.90625 11.203125 44.046875 
Q 17 51.203125 27.796875 51.203125 
z
M 28.59375 6.796875 
Q 35.40625 6.796875 39.296875 11.890625 
Q 43.203125 17 43.203125 25.203125 
Q 43.203125 33.40625 39.296875 38.5 
Q 35.40625 43.59375 28.59375 43.59375 
Q 22 43.59375 18 38.5 
Q 14 33.40625 14 25.203125 
Q 14 17 18 11.890625 
Q 22 6.796875 28.59375 6.796875 
z
" id="Apercu-64"/>
     </defs>
     <g style="opacity:0.75;" transform="translate(6039.58375 238.511563)scale(0.14 -0.14)">
      <use xlink:href="#Apercu-70"/>
      <use x="60.099991" xlink:href="#Apercu-72"/>
      <use x="101.399979" xlink:href="#Apercu-65"/>
      <use x="157.399963" xlink:href="#Apercu-64"/>
     </g>
    </g>
    <g id="line2d_30">
     <path d="M 6000.38375 253.38 
L 6028.38375 253.38 
" style="fill:none;stroke:#b73779;stroke-width:3;"/>
    </g>
    <g id="line2d_31"/>
    <g id="text_19">
     <!-- actual -->
     <defs>
      <path d="M 14.203125 14.5 
Q 14.203125 10.90625 16.34375 8.84375 
Q 18.5 6.796875 22.5 6.796875 
Q 28.203125 6.796875 32.390625 10.546875 
Q 36.59375 14.296875 36.59375 22.203125 
L 36.59375 23.40625 
L 27.59375 23.40625 
Q 21.203125 23.40625 17.703125 21.09375 
Q 14.203125 18.796875 14.203125 14.5 
z
M 45 32.203125 
L 45 0 
L 38.40625 0 
L 37 7.09375 
Q 31.5 -0.796875 21.203125 -0.796875 
Q 14.40625 -0.796875 10 3 
Q 5.59375 6.796875 5.59375 14.5 
Q 5.59375 22.5 11.6875 26.75 
Q 17.796875 31 28.40625 31 
L 36.59375 31 
L 36.59375 33.203125 
Q 36.59375 43.59375 25.59375 43.59375 
Q 21.59375 43.59375 18.75 41.5 
Q 15.90625 39.40625 15.09375 35.703125 
L 7.703125 37.40625 
Q 8.703125 43.796875 13.59375 47.5 
Q 18.5 51.203125 25.59375 51.203125 
Q 34.40625 51.203125 39.703125 46.5 
Q 45 41.796875 45 32.203125 
z
" id="Apercu-61"/>
      <path d="M 42.09375 16.09375 
L 49.40625 13.09375 
Q 43.296875 -0.796875 28.296875 -0.796875 
Q 17.296875 -0.796875 11.34375 6.75 
Q 5.40625 14.296875 5.40625 25.1875 
Q 5.40625 36.09375 11.34375 43.640625 
Q 17.296875 51.203125 28.296875 51.203125 
Q 43.296875 51.203125 49.40625 37.296875 
L 42.09375 34.296875 
Q 38.09375 43.59375 28.296875 43.59375 
Q 21.296875 43.59375 17.640625 38.4375 
Q 14 33.296875 14 25.1875 
Q 14 17.09375 17.640625 11.9375 
Q 21.296875 6.796875 28.296875 6.796875 
Q 38.09375 6.796875 42.09375 16.09375 
z
" id="Apercu-63"/>
      <path d="M 2.5 42.796875 
L 2.5 50.40625 
L 11.203125 50.40625 
L 11.203125 65.5 
L 19.59375 70.796875 
L 19.59375 50.40625 
L 32.796875 50.40625 
L 32.796875 42.796875 
L 19.59375 42.796875 
L 19.59375 15.09375 
Q 19.59375 11.09375 21.34375 8.9375 
Q 23.09375 6.796875 26.296875 6.796875 
Q 29.59375 6.796875 32 8.40625 
L 34 1.09375 
Q 30.703125 -0.796875 25.796875 -0.796875 
Q 19.09375 -0.796875 15.140625 3.390625 
Q 11.203125 7.59375 11.203125 15.796875 
L 11.203125 42.796875 
z
" id="Apercu-74"/>
      <path d="M 8.59375 14.90625 
L 8.59375 50.40625 
L 17 50.40625 
L 17 17.09375 
Q 17 6.796875 25.703125 6.796875 
Q 31.59375 6.796875 35.84375 13 
Q 40.09375 19.203125 40.09375 29.296875 
L 40.09375 50.40625 
L 48.5 50.40625 
L 48.5 0 
L 40.09375 0 
L 40.09375 9.296875 
Q 34.40625 -0.796875 23.40625 -0.796875 
Q 16.5 -0.796875 12.546875 3.296875 
Q 8.59375 7.40625 8.59375 14.90625 
z
" id="Apercu-75"/>
      <path d="M 9 70.796875 
L 17.40625 70.796875 
L 17.40625 0 
L 9 0 
z
" id="Apercu-6c"/>
     </defs>
     <g style="opacity:0.75;" transform="translate(6039.58375 258.28)scale(0.14 -0.14)">
      <use xlink:href="#Apercu-61"/>
      <use x="51.799988" xlink:href="#Apercu-63"/>
      <use x="105.615601" xlink:href="#Apercu-74"/>
      <use x="143.399963" xlink:href="#Apercu-75"/>
      <use x="201.09996" xlink:href="#Apercu-61"/>
      <use x="252.899948" xlink:href="#Apercu-6c"/>
     </g>
    </g>
   </g>
  </g>
 </g>
 <defs>
  <clipPath id="pbd090dcbfe">
   <rect height="964.8" width="5313.6" x="777.6" y="216"/>
  </clipPath>
 </defs>
</svg>
