<?xml version="1.0" encoding="utf-8" standalone="no"?>
<!DOCTYPE svg PUBLIC "-//W3C//DTD SVG 1.1//EN"
  "http://www.w3.org/Graphics/SVG/1.1/DTD/svg11.dtd">
<!-- Created with matplotlib (http://matplotlib.org/) -->
<svg height="1440pt" version="1.1" viewBox="0 0 6480 1440" width="6480pt" xmlns="http://www.w3.org/2000/svg" xmlns:xlink="http://www.w3.org/1999/xlink">
 <defs>
  <style type="text/css">
*{stroke-linecap:butt;stroke-linejoin:round;}
  </style>
 </defs>
 <g id="figure_1">
  <g id="patch_1">
   <path d="M 0 1440 
L 6480 1440 
L 6480 0 
L 0 0 
z
" style="fill:#f0f0f0;"/>
  </g>
  <g id="axes_1">
   <g id="patch_2">
    <path d="M 777.6 1180.8 
L 6091.2 1180.8 
L 6091.2 216 
L 777.6 216 
z
" style="fill:#f0f0f0;"/>
   </g>
   <g id="matplotlib.axis_1">
    <g id="xtick_1">
     <g id="line2d_1">
      <path clip-path="url(#p3bb0336f0d)" d="M 777.6 1180.8 
L 777.6 216 
" style="fill:none;stroke:#b0b0b0;stroke-linecap:square;stroke-width:0.8;"/>
     </g>
     <g id="line2d_2">
      <defs>
       <path d="M 0 0 
L 0 3.5 
" id="m527f001ef1" style="stroke:#000000;stroke-width:0.8;"/>
      </defs>
      <g>
       <use style="stroke:#000000;stroke-width:0.8;" x="777.6" xlink:href="#m527f001ef1" y="1180.8"/>
      </g>
     </g>
     <g id="text_1">
      <!-- 0 -->
      <defs>
       <path d="M 48.203125 52.59375 
L 48.203125 17.40625 
Q 48.203125 9.703125 42.953125 4.34375 
Q 37.703125 -1 29.890625 -1 
Q 22.09375 -1 16.9375 4.390625 
Q 11.796875 9.796875 11.796875 17.5 
L 11.796875 52.59375 
Q 11.796875 60.296875 16.9375 65.640625 
Q 22.09375 71 29.890625 71 
Q 37.703125 71 42.953125 65.640625 
Q 48.203125 60.296875 48.203125 52.59375 
z
M 39.90625 17.296875 
L 39.90625 52.5 
Q 39.90625 56.90625 37 60 
Q 34.09375 63.09375 29.90625 63.09375 
Q 25.796875 63.09375 22.890625 60 
Q 20 56.90625 20 52.5 
L 20 17.40625 
Q 20 13 22.890625 9.953125 
Q 25.796875 6.90625 30 6.90625 
Q 34.09375 6.90625 37 9.90625 
Q 39.90625 12.90625 39.90625 17.296875 
z
" id="DecimaMonoPro-30"/>
      </defs>
      <g style="fill:#303030;" transform="translate(773.4 1197.613125)scale(0.14 -0.14)">
       <use xlink:href="#DecimaMonoPro-30"/>
      </g>
     </g>
    </g>
    <g id="xtick_2">
     <g id="line2d_3">
      <path clip-path="url(#p3bb0336f0d)" d="M 1537.771674 1180.8 
L 1537.771674 216 
" style="fill:none;stroke:#b0b0b0;stroke-linecap:square;stroke-width:0.8;"/>
     </g>
     <g id="line2d_4">
      <g>
       <use style="stroke:#000000;stroke-width:0.8;" x="1537.771674" xlink:href="#m527f001ef1" y="1180.8"/>
      </g>
     </g>
     <g id="text_2">
      <!-- 100 -->
      <defs>
       <path d="M 13.90625 68.203125 
L 25.203125 70 
L 32.296875 70 
Q 33 70 33.546875 69.5 
Q 34.09375 69 34.09375 68.203125 
L 34.09375 7.703125 
L 47.296875 7.703125 
Q 48 7.703125 48.546875 7.140625 
Q 49.09375 6.59375 49.09375 5.90625 
L 49.09375 1.796875 
Q 49.09375 1 48.546875 0.5 
Q 48 0 47.296875 0 
L 12.59375 0 
Q 11.796875 0 11.296875 0.5 
Q 10.796875 1 10.796875 1.796875 
L 10.796875 5.90625 
Q 10.796875 6.59375 11.296875 7.140625 
Q 11.796875 7.703125 12.59375 7.703125 
L 25.703125 7.703125 
L 25.703125 62.09375 
L 14.703125 60.40625 
L 14.40625 60.40625 
Q 14 60.296875 13.5 60.296875 
Q 12.09375 60.296875 12.09375 62.09375 
L 12.09375 66.296875 
Q 12.09375 67.796875 13.90625 68.203125 
z
" id="DecimaMonoPro-31"/>
      </defs>
      <g style="fill:#303030;" transform="translate(1525.171674 1197.613125)scale(0.14 -0.14)">
       <use xlink:href="#DecimaMonoPro-31"/>
       <use x="59.999985" xlink:href="#DecimaMonoPro-30"/>
       <use x="119.999969" xlink:href="#DecimaMonoPro-30"/>
      </g>
     </g>
    </g>
    <g id="xtick_3">
     <g id="line2d_5">
      <path clip-path="url(#p3bb0336f0d)" d="M 2297.943348 1180.8 
L 2297.943348 216 
" style="fill:none;stroke:#b0b0b0;stroke-linecap:square;stroke-width:0.8;"/>
     </g>
     <g id="line2d_6">
      <g>
       <use style="stroke:#000000;stroke-width:0.8;" x="2297.943348" xlink:href="#m527f001ef1" y="1180.8"/>
      </g>
     </g>
     <g id="text_3">
      <!-- 200 -->
      <defs>
       <path d="M 11.703125 53 
Q 11.703125 59.703125 17.203125 65.34375 
Q 22.703125 71 30.59375 71 
Q 38.40625 71 43.796875 65.75 
Q 49.203125 60.5 49.203125 52.703125 
Q 49.203125 46.90625 46.09375 41.75 
Q 43 36.59375 38.59375 32.84375 
Q 34.203125 29.09375 29.796875 25.4375 
Q 25.40625 21.796875 22.296875 17.296875 
Q 19.203125 12.796875 19.203125 7.796875 
L 47.40625 7.796875 
Q 48.203125 7.796875 48.703125 7.296875 
Q 49.203125 6.796875 49.203125 6 
L 49.203125 1.796875 
Q 49.203125 1 48.703125 0.5 
Q 48.203125 0 47.40625 0 
L 12.59375 0 
Q 11.796875 0 11.296875 0.5 
Q 10.796875 1 10.796875 1.796875 
L 10.796875 7.296875 
Q 10.796875 13.90625 13.890625 19.453125 
Q 17 25 21.390625 28.890625 
Q 25.796875 32.796875 30.1875 36.390625 
Q 34.59375 40 37.6875 44.296875 
Q 40.796875 48.59375 40.796875 53.296875 
Q 40.796875 57.40625 37.75 60.25 
Q 34.703125 63.09375 30.5 63.09375 
Q 26.09375 63.09375 23.1875 59.6875 
Q 20.296875 56.296875 20.09375 53 
Q 19.90625 51 17.796875 51 
L 14 51 
Q 12.90625 51 12.296875 51.59375 
Q 11.703125 52.203125 11.703125 53 
z
" id="DecimaMonoPro-32"/>
      </defs>
      <g style="fill:#303030;" transform="translate(2285.343348 1197.613125)scale(0.14 -0.14)">
       <use xlink:href="#DecimaMonoPro-32"/>
       <use x="59.999985" xlink:href="#DecimaMonoPro-30"/>
       <use x="119.999969" xlink:href="#DecimaMonoPro-30"/>
      </g>
     </g>
    </g>
    <g id="xtick_4">
     <g id="line2d_7">
      <path clip-path="url(#p3bb0336f0d)" d="M 3058.115021 1180.8 
L 3058.115021 216 
" style="fill:none;stroke:#b0b0b0;stroke-linecap:square;stroke-width:0.8;"/>
     </g>
     <g id="line2d_8">
      <g>
       <use style="stroke:#000000;stroke-width:0.8;" x="3058.115021" xlink:href="#m527f001ef1" y="1180.8"/>
      </g>
     </g>
     <g id="text_4">
      <!-- 300 -->
      <defs>
       <path d="M 46.203125 61.09375 
L 35.40625 47.09375 
Q 40.796875 46.40625 44.890625 41.953125 
Q 49 37.5 49 31.5 
L 49 17.5 
Q 49 9.796875 43.5 4.390625 
Q 38 -1 30 -1 
Q 21.796875 -1 16.34375 4.34375 
Q 10.90625 9.703125 10.90625 17.40625 
Q 10.90625 18.203125 11.5 18.796875 
Q 12.09375 19.40625 13.203125 19.40625 
L 17 19.40625 
Q 19.09375 19.40625 19.296875 17.40625 
Q 19.296875 13 22.390625 9.953125 
Q 25.5 6.90625 30 6.90625 
Q 34.40625 6.90625 37.5 9.953125 
Q 40.59375 13 40.59375 17.40625 
L 40.59375 31.40625 
Q 40.59375 34.59375 38.296875 36.9375 
Q 36 39.296875 32.703125 39.296875 
L 27.40625 39.296875 
Q 25.203125 39.296875 25.203125 41.59375 
L 25.203125 45 
Q 25.203125 46.703125 26.296875 48.203125 
L 36.59375 62.09375 
L 16.90625 62.09375 
Q 14.703125 62.09375 14.703125 64.40625 
L 14.703125 67.703125 
Q 14.703125 70 16.90625 70 
L 45.09375 70 
Q 47.296875 70 47.296875 67.703125 
L 47.296875 64.296875 
Q 47.296875 62.59375 46.203125 61.09375 
z
" id="DecimaMonoPro-33"/>
      </defs>
      <g style="fill:#303030;" transform="translate(3045.515021 1197.613125)scale(0.14 -0.14)">
       <use xlink:href="#DecimaMonoPro-33"/>
       <use x="59.999985" xlink:href="#DecimaMonoPro-30"/>
       <use x="119.999969" xlink:href="#DecimaMonoPro-30"/>
      </g>
     </g>
    </g>
    <g id="xtick_5">
     <g id="line2d_9">
      <path clip-path="url(#p3bb0336f0d)" d="M 3818.286695 1180.8 
L 3818.286695 216 
" style="fill:none;stroke:#b0b0b0;stroke-linecap:square;stroke-width:0.8;"/>
     </g>
     <g id="line2d_10">
      <g>
       <use style="stroke:#000000;stroke-width:0.8;" x="3818.286695" xlink:href="#m527f001ef1" y="1180.8"/>
      </g>
     </g>
     <g id="text_5">
      <!-- 400 -->
      <defs>
       <path d="M 40.09375 67.5 
L 19.5 22.90625 
L 35.796875 22.90625 
L 35.796875 38.90625 
Q 35.796875 39.703125 36.390625 40.296875 
Q 37 40.90625 38.09375 40.90625 
L 42.203125 40.90625 
Q 43 40.90625 43.59375 40.25 
Q 44.203125 39.59375 44.203125 38.90625 
L 44.203125 22.90625 
L 48 22.90625 
Q 48.796875 22.90625 49.390625 22.296875 
Q 50 21.703125 50 20.59375 
L 50 17.40625 
Q 50 16.296875 49.390625 15.6875 
Q 48.796875 15.09375 48 15.09375 
L 44.203125 15.09375 
L 44.203125 2 
Q 44.203125 1.203125 43.59375 0.59375 
Q 43 0 42.203125 0 
L 38.09375 0 
Q 37 0 36.390625 0.59375 
Q 35.796875 1.203125 35.796875 2 
L 35.796875 15.09375 
L 12.09375 15.09375 
Q 9.90625 15.09375 9.90625 17.40625 
L 9.90625 21.296875 
Q 9.90625 22.5 11 24.703125 
L 31.296875 68 
Q 32.296875 70 34 70 
L 38.796875 70 
Q 40.5 70 40.5 68.796875 
Q 40.5 68.5 40.09375 67.5 
z
" id="DecimaMonoPro-34"/>
      </defs>
      <g style="fill:#303030;" transform="translate(3805.686695 1197.613125)scale(0.14 -0.14)">
       <use xlink:href="#DecimaMonoPro-34"/>
       <use x="59.999985" xlink:href="#DecimaMonoPro-30"/>
       <use x="119.999969" xlink:href="#DecimaMonoPro-30"/>
      </g>
     </g>
    </g>
    <g id="xtick_6">
     <g id="line2d_11">
      <path clip-path="url(#p3bb0336f0d)" d="M 4578.458369 1180.8 
L 4578.458369 216 
" style="fill:none;stroke:#b0b0b0;stroke-linecap:square;stroke-width:0.8;"/>
     </g>
     <g id="line2d_12">
      <g>
       <use style="stroke:#000000;stroke-width:0.8;" x="4578.458369" xlink:href="#m527f001ef1" y="1180.8"/>
      </g>
     </g>
     <g id="text_6">
      <!-- 500 -->
      <defs>
       <path d="M 21.90625 35.59375 
Q 21.09375 34.40625 19.796875 34.40625 
Q 19.40625 34.40625 18.203125 34.796875 
L 14.796875 35.796875 
Q 13.203125 36.296875 13.40625 38.5 
L 15.90625 67.703125 
Q 16.09375 70 18.09375 70 
L 44.40625 70 
Q 46.59375 70 46.59375 67.703125 
L 46.59375 64.40625 
Q 46.59375 62.09375 44.40625 62.09375 
L 24.09375 62.09375 
L 22.40625 44.796875 
Q 25.203125 47.203125 30.703125 47.203125 
Q 38.40625 47.203125 43.703125 42 
Q 49 36.796875 49 28.90625 
L 49 17.5 
Q 49 9.796875 43.5 4.390625 
Q 38 -1 30.09375 -1 
Q 21.90625 -1 16.453125 4.34375 
Q 11 9.703125 11 17.40625 
Q 11 18.203125 11.59375 18.796875 
Q 12.203125 19.40625 13.296875 19.40625 
L 17.09375 19.40625 
Q 18.203125 19.40625 18.796875 18.796875 
Q 19.40625 18.203125 19.40625 17.40625 
Q 19.40625 13 22.5 9.953125 
Q 25.59375 6.90625 30.09375 6.90625 
Q 34.5 6.90625 37.546875 9.953125 
Q 40.59375 13 40.59375 17.40625 
L 40.59375 28.796875 
Q 40.59375 33.203125 37.5 36.25 
Q 34.40625 39.296875 29.796875 39.296875 
Q 27.703125 39.296875 25.796875 38.4375 
Q 23.90625 37.59375 23.09375 36.890625 
Q 22.296875 36.203125 21.90625 35.59375 
z
" id="DecimaMonoPro-35"/>
      </defs>
      <g style="fill:#303030;" transform="translate(4565.858369 1197.613125)scale(0.14 -0.14)">
       <use xlink:href="#DecimaMonoPro-35"/>
       <use x="59.999985" xlink:href="#DecimaMonoPro-30"/>
       <use x="119.999969" xlink:href="#DecimaMonoPro-30"/>
      </g>
     </g>
    </g>
    <g id="xtick_7">
     <g id="line2d_13">
      <path clip-path="url(#p3bb0336f0d)" d="M 5338.630043 1180.8 
L 5338.630043 216 
" style="fill:none;stroke:#b0b0b0;stroke-linecap:square;stroke-width:0.8;"/>
     </g>
     <g id="line2d_14">
      <g>
       <use style="stroke:#000000;stroke-width:0.8;" x="5338.630043" xlink:href="#m527f001ef1" y="1180.8"/>
      </g>
     </g>
     <g id="text_7">
      <!-- 600 -->
      <defs>
       <path d="M 11 60.203125 
Q 21.59375 71 29.5 71 
Q 37.40625 71 42.65625 65.953125 
Q 47.90625 60.90625 47.90625 54.40625 
Q 47.90625 53.59375 47.296875 53 
Q 46.703125 52.40625 45.59375 52.40625 
L 41.796875 52.40625 
Q 39.703125 52.40625 39.5 54.40625 
Q 39.296875 57.59375 36.640625 60.296875 
Q 34 63 29.5 63 
Q 25.203125 63 22.25 59.890625 
Q 19.296875 56.796875 19.296875 52.40625 
L 19.296875 42.796875 
Q 19.703125 43.296875 20.59375 44.046875 
Q 21.5 44.796875 24.546875 46 
Q 27.59375 47.203125 31 47.203125 
Q 38.40625 47.203125 43.703125 42 
Q 49 36.796875 49 28.90625 
L 49 17.5 
Q 49 9.796875 43.546875 4.390625 
Q 38.09375 -1 30 -1 
Q 21.90625 -1 16.453125 4.34375 
Q 11 9.703125 11 17.40625 
L 11 52.5 
Q 11 60.203125 21.59375 71 
z
M 30 39.296875 
Q 25.40625 39.296875 22.34375 36.390625 
Q 19.296875 33.5 19.296875 28.796875 
L 19.296875 17.296875 
Q 19.296875 12.90625 22.390625 9.90625 
Q 25.5 6.90625 30 6.90625 
Q 34.40625 6.90625 37.5 9.953125 
Q 40.59375 13 40.59375 17.40625 
L 40.59375 28.796875 
Q 40.59375 33.40625 37.546875 36.34375 
Q 34.5 39.296875 30 39.296875 
z
" id="DecimaMonoPro-36"/>
      </defs>
      <g style="fill:#303030;" transform="translate(5326.030043 1197.613125)scale(0.14 -0.14)">
       <use xlink:href="#DecimaMonoPro-36"/>
       <use x="59.999985" xlink:href="#DecimaMonoPro-30"/>
       <use x="119.999969" xlink:href="#DecimaMonoPro-30"/>
      </g>
     </g>
    </g>
    <g id="text_8">
     <!-- x -->
     <defs>
      <path d="M 3.59375 50.40625 
L 13.09375 50.40625 
L 22.90625 34.40625 
L 32.703125 50.40625 
L 42.203125 50.40625 
L 27.59375 26.59375 
L 44 0 
L 34.5 0 
L 22.90625 18.90625 
L 11.296875 0 
L 1.796875 0 
L 18.203125 26.59375 
z
" id="Apercu-78"/>
     </defs>
     <g style="opacity:0.75;" transform="translate(3431.194219 1214.044688)scale(0.14 -0.14)">
      <use xlink:href="#Apercu-78"/>
     </g>
    </g>
   </g>
   <g id="matplotlib.axis_2">
    <g id="ytick_1">
     <g id="line2d_15">
      <path clip-path="url(#p3bb0336f0d)" d="M 777.6 1096.867718 
L 6091.2 1096.867718 
" style="fill:none;stroke:#b0b0b0;stroke-linecap:square;stroke-width:0.8;"/>
     </g>
     <g id="line2d_16">
      <defs>
       <path d="M 0 0 
L -3.5 0 
" id="m5a6d723563" style="stroke:#000000;stroke-width:0.8;"/>
      </defs>
      <g>
       <use style="stroke:#000000;stroke-width:0.8;" x="777.6" xlink:href="#m5a6d723563" y="1096.867718"/>
      </g>
     </g>
     <g id="text_9">
      <!-- −4 -->
      <defs>
       <path d="M 50.203125 25.296875 
L 9.796875 25.296875 
Q 9 25.296875 8.5 25.84375 
Q 8 26.40625 8 27.09375 
L 8 31.296875 
Q 8 32 8.5 32.546875 
Q 9 33.09375 9.796875 33.09375 
L 50.203125 33.09375 
Q 51 33.09375 51.5 32.546875 
Q 52 32 52 31.296875 
L 52 27.09375 
Q 52 26.40625 51.5 25.84375 
Q 51 25.296875 50.203125 25.296875 
z
" id="DecimaMonoPro-2212"/>
      </defs>
      <g style="fill:#303030;" transform="translate(753.8 1101.77428)scale(0.14 -0.14)">
       <use xlink:href="#DecimaMonoPro-2212"/>
       <use x="59.999985" xlink:href="#DecimaMonoPro-34"/>
      </g>
     </g>
    </g>
    <g id="ytick_2">
     <g id="line2d_17">
      <path clip-path="url(#p3bb0336f0d)" d="M 777.6 886.592503 
L 6091.2 886.592503 
" style="fill:none;stroke:#b0b0b0;stroke-linecap:square;stroke-width:0.8;"/>
     </g>
     <g id="line2d_18">
      <g>
       <use style="stroke:#000000;stroke-width:0.8;" x="777.6" xlink:href="#m5a6d723563" y="886.592503"/>
      </g>
     </g>
     <g id="text_10">
      <!-- −2 -->
      <g style="fill:#303030;" transform="translate(753.8 891.499065)scale(0.14 -0.14)">
       <use xlink:href="#DecimaMonoPro-2212"/>
       <use x="59.999985" xlink:href="#DecimaMonoPro-32"/>
      </g>
     </g>
    </g>
    <g id="ytick_3">
     <g id="line2d_19">
      <path clip-path="url(#p3bb0336f0d)" d="M 777.6 676.317288 
L 6091.2 676.317288 
" style="fill:none;stroke:#b0b0b0;stroke-linecap:square;stroke-width:0.8;"/>
     </g>
     <g id="line2d_20">
      <g>
       <use style="stroke:#000000;stroke-width:0.8;" x="777.6" xlink:href="#m5a6d723563" y="676.317288"/>
      </g>
     </g>
     <g id="text_11">
      <!-- 0 -->
      <g style="fill:#303030;" transform="translate(762.2 681.223851)scale(0.14 -0.14)">
       <use xlink:href="#DecimaMonoPro-30"/>
      </g>
     </g>
    </g>
    <g id="ytick_4">
     <g id="line2d_21">
      <path clip-path="url(#p3bb0336f0d)" d="M 777.6 466.042074 
L 6091.2 466.042074 
" style="fill:none;stroke:#b0b0b0;stroke-linecap:square;stroke-width:0.8;"/>
     </g>
     <g id="line2d_22">
      <g>
       <use style="stroke:#000000;stroke-width:0.8;" x="777.6" xlink:href="#m5a6d723563" y="466.042074"/>
      </g>
     </g>
     <g id="text_12">
      <!-- 2 -->
      <g style="fill:#303030;" transform="translate(762.2 470.948636)scale(0.14 -0.14)">
       <use xlink:href="#DecimaMonoPro-32"/>
      </g>
     </g>
    </g>
    <g id="ytick_5">
     <g id="line2d_23">
      <path clip-path="url(#p3bb0336f0d)" d="M 777.6 255.766859 
L 6091.2 255.766859 
" style="fill:none;stroke:#b0b0b0;stroke-linecap:square;stroke-width:0.8;"/>
     </g>
     <g id="line2d_24">
      <g>
       <use style="stroke:#000000;stroke-width:0.8;" x="777.6" xlink:href="#m5a6d723563" y="255.766859"/>
      </g>
     </g>
     <g id="text_13">
      <!-- 4 -->
      <g style="fill:#303030;" transform="translate(762.2 260.673421)scale(0.14 -0.14)">
       <use xlink:href="#DecimaMonoPro-34"/>
      </g>
     </g>
    </g>
    <g id="text_14">
     <!-- P -->
     <defs>
      <path d="M 34.09375 30 
L 18.5 30 
L 18.5 0 
L 9.703125 0 
L 9.703125 70 
L 34.09375 70 
Q 43.90625 70 49.40625 64.59375 
Q 54.90625 59.203125 54.90625 50 
Q 54.90625 40.796875 49.40625 35.390625 
Q 43.90625 30 34.09375 30 
z
M 34.59375 38.40625 
Q 40 38.40625 42.890625 41.40625 
Q 45.796875 44.40625 45.796875 50 
Q 45.796875 55.59375 42.890625 58.59375 
Q 40 61.59375 34.59375 61.59375 
L 18.5 61.59375 
L 18.5 38.40625 
z
" id="Apercu-50"/>
     </defs>
     <g style="opacity:0.75;" transform="translate(746.943125 702.488438)rotate(-90)scale(0.14 -0.14)">
      <use xlink:href="#Apercu-50"/>
     </g>
    </g>
   </g>
   <g id="line2d_25">
    <path clip-path="url(#p3bb0336f0d)" d="M 777.6 643.843703 
L 785.201717 634.415074 
L 792.803433 642.356066 
L 800.40515 631.066136 
L 808.006867 618.341441 
L 815.608584 629.274467 
L 823.2103 448.410867 
L 830.812017 580.285689 
L 838.413734 578.322993 
L 846.015451 584.530738 
L 853.617167 590.471673 
L 861.218884 596.097293 
L 868.820601 601.513875 
L 876.422318 608.026808 
L 884.024034 613.830878 
L 891.625751 620.116506 
L 899.227468 446.305009 
L 906.829185 446.3203 
L 914.430901 445.055606 
L 922.032618 448.677853 
L 929.634335 454.478903 
L 937.236052 459.34599 
L 944.837768 468.223634 
L 952.439485 453.779515 
L 960.041202 465.982565 
L 967.642918 485.553061 
L 975.244635 445.210143 
L 982.846352 446.784912 
L 990.448069 496.608655 
L 998.049785 510.227901 
L 1005.651502 520.762733 
L 1013.253219 529.576832 
L 1020.854936 536.776657 
L 1028.456652 543.676195 
L 1036.058369 666.552546 
L 1043.660086 551.342725 
L 1051.261803 546.25485 
L 1058.863519 473.303914 
L 1074.066953 492.012489 
L 1081.66867 501.550002 
L 1089.270386 509.69032 
L 1096.872103 516.109465 
L 1104.47382 592.234919 
L 1112.075536 596.728981 
L 1119.677253 604.305184 
L 1127.27897 610.255543 
L 1134.880687 607.472694 
L 1142.482403 613.992414 
L 1150.08412 620.8044 
L 1165.287554 635.460686 
L 1172.88927 643.758899 
L 1180.490987 644.969389 
L 1188.092704 444.728134 
L 1195.694421 633.000754 
L 1203.296137 874.000843 
L 1210.897854 614.403653 
L 1218.499571 896.67117 
L 1226.101288 616.567391 
L 1233.703004 625.070061 
L 1241.304721 655.783467 
L 1248.906438 659.172785 
L 1256.508155 662.91138 
L 1264.109871 672.833309 
L 1271.711588 679.227514 
L 1279.313305 685.271017 
L 1286.915021 648.892014 
L 1294.516738 644.180221 
L 1302.118455 640.930817 
L 1309.720172 636.806972 
L 1317.321888 445.472918 
L 1324.923605 444.359678 
L 1332.525322 444.805942 
L 1340.127039 691.036124 
L 1347.728755 448.379785 
L 1355.330472 456.15988 
L 1362.932189 469.027261 
L 1370.533906 491.324394 
L 1378.135622 529.20508 
L 1385.737339 537.545204 
L 1393.339056 545.274088 
L 1400.940773 552.468574 
L 1408.542489 559.282859 
L 1416.144206 556.94472 
L 1423.745923 566.257497 
L 1431.347639 570.199533 
L 1438.949356 579.367211 
L 1446.551073 579.122102 
L 1454.15279 584.831558 
L 1461.754506 772.419451 
L 1469.356223 773.742481 
L 1484.559657 775.387831 
L 1492.161373 777.838364 
L 1499.76309 780.477856 
L 1507.364807 784.136162 
L 1514.966524 786.76574 
L 1522.56824 783.875918 
L 1530.169957 795.452211 
L 1537.771674 745.096608 
L 1545.373391 738.799569 
L 1552.975107 731.014322 
L 1560.576824 727.979528 
L 1568.178541 737.050655 
L 1575.780258 869.85346 
L 1583.381974 830.404247 
L 1590.983691 822.10616 
L 1598.585408 444.733674 
L 1606.187124 444.915007 
L 1613.788841 446.369907 
L 1621.390558 462.434466 
L 1628.992275 568.6947 
L 1636.593991 569.355874 
L 1644.195708 570.86765 
L 1651.797425 571.248088 
L 1667.000858 572.361272 
L 1682.204292 572.917177 
L 1689.806009 579.910302 
L 1697.407725 585.813949 
L 1712.611159 598.212069 
L 1720.212876 605.850537 
L 1727.814592 610.248462 
L 1735.416309 615.966058 
L 1743.018026 444.314959 
L 1750.619742 444.340151 
L 1758.221459 757.830685 
L 1765.823176 546.25584 
L 1773.424893 554.371316 
L 1781.026609 558.173191 
L 1796.230043 572.294538 
L 1803.83176 577.952324 
L 1811.433476 585.545165 
L 1819.035193 591.931354 
L 1826.63691 590.605711 
L 1834.238627 588.110428 
L 1841.840343 586.732822 
L 1849.44206 586.601679 
L 1857.043777 676.404184 
L 1864.645494 884.636331 
L 1872.24721 875.0827 
L 1879.848927 864.279779 
L 1887.450644 853.257749 
L 1895.052361 840.367118 
L 1902.654077 829.953961 
L 1910.255794 820.876347 
L 1917.857511 813.67097 
L 1925.459227 807.155956 
L 1933.060944 806.869869 
L 1940.662661 794.429011 
L 1948.264378 564.737875 
L 1955.866094 571.265108 
L 1963.467811 690.748496 
L 1971.069528 565.10197 
L 1978.671245 552.441 
L 1986.272961 555.815725 
L 1993.874678 558.100122 
L 2001.476395 753.362792 
L 2009.078112 556.51218 
L 2016.679828 558.055854 
L 2024.281545 557.939832 
L 2031.883262 559.488169 
L 2039.484979 559.582921 
L 2047.086695 568.185356 
L 2054.688412 555.554317 
L 2062.290129 537.576688 
L 2069.891845 444.513237 
L 2077.493562 447.261832 
L 2085.095279 454.388287 
L 2092.696996 462.487607 
L 2100.298712 598.633792 
L 2107.900429 471.559292 
L 2115.502146 484.398988 
L 2123.103863 494.44592 
L 2130.705579 507.941086 
L 2138.307296 647.934228 
L 2145.909013 517.693948 
L 2153.51073 530.370446 
L 2161.112446 531.218968 
L 2168.714163 535.390967 
L 2176.31588 542.587257 
L 2183.917597 552.06461 
L 2191.519313 555.472762 
L 2199.12103 561.299869 
L 2206.722747 567.559565 
L 2214.324464 572.970845 
L 2221.92618 581.161358 
L 2229.527897 582.936467 
L 2237.129614 587.682238 
L 2252.333047 596.893733 
L 2267.536481 607.246674 
L 2275.138197 449.481469 
L 2282.739914 686.103429 
L 2290.341631 447.536965 
L 2297.943348 446.315988 
L 2305.545064 472.013126 
L 2313.146781 445.187458 
L 2320.748498 443.582207 
L 2328.350215 443.762463 
L 2335.951931 446.946492 
L 2343.553648 456.386759 
L 2351.155365 460.357183 
L 2358.757082 445.635726 
L 2366.358798 444.30789 
L 2373.960515 444.103446 
L 2381.562232 444.647043 
L 2389.163948 448.89626 
L 2396.765665 458.462412 
L 2404.367382 469.811387 
L 2411.969099 486.597154 
L 2419.570815 466.475628 
L 2427.172532 481.411581 
L 2434.774249 493.684956 
L 2442.375966 507.860321 
L 2449.977682 516.609635 
L 2457.579399 512.386137 
L 2465.181116 522.231319 
L 2472.782833 525.970779 
L 2480.384549 584.313472 
L 2487.986266 511.374593 
L 2495.587983 517.642787 
L 2503.1897 524.982822 
L 2510.791416 529.408497 
L 2518.393133 566.707809 
L 2525.99485 717.337056 
L 2533.596567 530.991487 
L 2541.198283 537.468813 
L 2548.8 541.154391 
L 2556.401717 542.000645 
L 2564.003433 543.108871 
L 2571.60515 847.677375 
L 2579.206867 495.606837 
L 2586.808584 507.27441 
L 2594.4103 517.267825 
L 2602.012017 524.939708 
L 2609.613734 532.048239 
L 2617.215451 538.18373 
L 2624.817167 535.140023 
L 2632.418884 519.010366 
L 2640.020601 522.518798 
L 2647.622318 770.499086 
L 2655.224034 755.214737 
L 2662.825751 756.11964 
L 2670.427468 755.564675 
L 2678.029185 766.817224 
L 2685.630901 760.819933 
L 2693.232618 756.317931 
L 2700.834335 752.761296 
L 2708.436052 509.729273 
L 2716.037768 518.886912 
L 2723.639485 538.847309 
L 2731.241202 543.255474 
L 2738.842918 613.793585 
L 2746.444635 552.841843 
L 2754.046352 551.542319 
L 2761.648069 611.535082 
L 2769.249785 612.526285 
L 2776.851502 615.07553 
L 2784.453219 617.196899 
L 2792.054936 621.901722 
L 2799.656652 629.133551 
L 2807.258369 629.015496 
L 2814.860086 881.779384 
L 2822.461803 864.91591 
L 2830.063519 848.60373 
L 2837.665236 833.425005 
L 2845.266953 819.624977 
L 2852.86867 808.511855 
L 2860.470386 799.219683 
L 2868.072103 743.510854 
L 2875.67382 560.50534 
L 2883.275536 570.187338 
L 2890.877253 784.080426 
L 2898.47897 573.096505 
L 2913.682403 583.086949 
L 2921.28412 816.99961 
L 2928.885837 816.700839 
L 2936.487554 552.773787 
L 2944.08927 443.253507 
L 2951.690987 443.687713 
L 2959.292704 445.609081 
L 2966.894421 447.325301 
L 2974.496137 647.077635 
L 2982.097854 616.719816 
L 2989.699571 492.962419 
L 2997.301288 506.599099 
L 3004.903004 518.864829 
L 3012.504721 528.712969 
L 3020.106438 536.62093 
L 3027.708155 543.100512 
L 3035.309871 550.536528 
L 3042.911588 558.391047 
L 3050.513305 545.862066 
L 3058.115021 680.151447 
L 3065.716738 577.226516 
L 3073.318455 589.407006 
L 3080.920172 599.068725 
L 3088.521888 595.617872 
L 3096.123605 597.670338 
L 3103.725322 574.786994 
L 3111.327039 464.941041 
L 3118.928755 465.776692 
L 3126.530472 475.542839 
L 3134.132189 450.439445 
L 3141.733906 510.628406 
L 3149.335622 453.958191 
L 3156.937339 552.187287 
L 3164.539056 588.852304 
L 3172.140773 593.458246 
L 3179.742489 595.318224 
L 3187.344206 597.890706 
L 3194.945923 601.40365 
L 3202.547639 611.198304 
L 3210.149356 615.518842 
L 3217.751073 620.317541 
L 3225.35279 751.898611 
L 3232.954506 755.432072 
L 3240.556223 755.238099 
L 3248.15794 868.496471 
L 3255.759657 745.729281 
L 3263.361373 743.75659 
L 3270.96309 743.027253 
L 3278.564807 848.086289 
L 3286.166524 852.724241 
L 3293.76824 842.078714 
L 3301.369957 832.015125 
L 3308.971674 827.849092 
L 3316.573391 822.074488 
L 3324.175107 819.655496 
L 3331.776824 814.064969 
L 3339.378541 855.42274 
L 3346.980258 791.241861 
L 3354.581974 782.441974 
L 3362.183691 773.268662 
L 3369.785408 773.117265 
L 3377.387124 772.089328 
L 3384.988841 764.559305 
L 3392.590558 594.184122 
L 3400.192275 589.520251 
L 3407.793991 583.914102 
L 3415.395708 577.791484 
L 3422.997425 570.657302 
L 3430.599142 561.911096 
L 3438.200858 552.541781 
L 3445.802575 545.635676 
L 3453.404292 585.300664 
L 3461.006009 584.274944 
L 3468.607725 582.438221 
L 3476.209442 904.604147 
L 3483.811159 899.298768 
L 3491.412876 892.992949 
L 3499.014592 885.547407 
L 3506.616309 871.234338 
L 3514.218026 853.207992 
L 3521.819742 838.232872 
L 3529.421459 823.591416 
L 3537.023176 812.393593 
L 3544.624893 803.002332 
L 3552.226609 795.305145 
L 3559.828326 787.345709 
L 3567.430043 536.317823 
L 3575.03176 536.001593 
L 3582.633476 519.980575 
L 3590.235193 527.931024 
L 3597.83691 534.854588 
L 3605.438627 542.306635 
L 3613.040343 582.371331 
L 3628.243777 581.007248 
L 3635.845494 582.813596 
L 3643.44721 580.318088 
L 3651.048927 559.858079 
L 3658.650644 495.208727 
L 3666.252361 519.775955 
L 3673.854077 732.410541 
L 3681.455794 590.059174 
L 3689.057511 590.36982 
L 3696.659227 786.499268 
L 3704.260944 793.115024 
L 3711.862661 790.771019 
L 3719.464378 789.440764 
L 3727.066094 787.354458 
L 3734.667811 785.626268 
L 3742.269528 889.373234 
L 3749.871245 885.918295 
L 3757.472961 878.332918 
L 3765.074678 867.91298 
L 3772.676395 889.63656 
L 3780.278112 844.076886 
L 3787.879828 876.698854 
L 3795.481545 862.373276 
L 3803.083262 843.977622 
L 3810.684979 832.987214 
L 3818.286695 821.730497 
L 3825.888412 787.712962 
L 3833.490129 781.99338 
L 3841.091845 765.757408 
L 3848.693562 734.04386 
L 3856.295279 615.895677 
L 3871.498712 608.141501 
L 3879.100429 602.350929 
L 3886.702146 590.143286 
L 3894.303863 625.788985 
L 3901.905579 632.988368 
L 3909.507296 620.708965 
L 3917.109013 603.576455 
L 3924.71073 603.662942 
L 3932.312446 595.582465 
L 3939.914163 443.368012 
L 3947.51588 444.39061 
L 3955.117597 446.783308 
L 3962.719313 452.675951 
L 3970.32103 462.811996 
L 3977.922747 458.75068 
L 3985.524464 470.843712 
L 3993.12618 491.195914 
L 4000.727897 514.229985 
L 4008.329614 525.853967 
L 4015.93133 685.498314 
L 4023.533047 654.215625 
L 4031.134764 771.578812 
L 4038.736481 662.55074 
L 4046.338197 669.275392 
L 4053.939914 678.794011 
L 4061.541631 687.55732 
L 4069.143348 697.181878 
L 4076.745064 707.419819 
L 4084.346781 725.778146 
L 4091.948498 698.634979 
L 4099.550215 874.933226 
L 4107.151931 864.542867 
L 4114.753648 670.914298 
L 4122.355365 671.915295 
L 4129.957082 674.770927 
L 4137.558798 789.49294 
L 4145.160515 794.40407 
L 4152.762232 796.714837 
L 4160.363948 793.969876 
L 4167.965665 787.726386 
L 4175.567382 781.077823 
L 4183.169099 775.202889 
L 4190.770815 770.71243 
L 4198.372532 763.420597 
L 4205.974249 749.610737 
L 4213.575966 711.825017 
L 4221.177682 770.705104 
L 4228.779399 674.846419 
L 4236.381116 580.90935 
L 4243.982833 573.531908 
L 4251.584549 573.364424 
L 4259.186266 577.926117 
L 4266.787983 575.85658 
L 4274.3897 443.201844 
L 4281.991416 442.93917 
L 4289.593133 443.427295 
L 4297.19485 482.805732 
L 4304.796567 491.041967 
L 4312.398283 454.987859 
L 4320 519.975286 
L 4327.601717 468.745849 
L 4335.203433 473.323842 
L 4342.80515 490.382874 
L 4350.406867 647.037014 
L 4358.008584 648.302816 
L 4365.6103 652.289807 
L 4373.212017 879.739527 
L 4380.813734 645.816335 
L 4388.415451 673.84673 
L 4396.017167 834.039303 
L 4403.618884 827.310646 
L 4411.220601 888.806575 
L 4418.822318 807.390218 
L 4426.424034 822.367443 
L 4434.025751 869.048078 
L 4441.627468 853.506725 
L 4449.229185 850.439469 
L 4456.830901 855.607583 
L 4464.432618 842.039898 
L 4472.034335 827.063362 
L 4479.636052 816.798524 
L 4487.237768 813.536637 
L 4494.839485 801.520598 
L 4502.441202 799.219056 
L 4510.042918 788.14683 
L 4517.644635 782.344151 
L 4525.246352 780.10809 
L 4532.848069 774.264026 
L 4540.449785 755.423681 
L 4548.051502 752.189831 
L 4555.653219 743.744125 
L 4563.254936 739.44923 
L 4570.856652 741.781467 
L 4578.458369 731.707456 
L 4586.060086 613.892216 
L 4593.661803 592.991998 
L 4601.263519 600.676263 
L 4608.865236 589.274397 
L 4616.466953 669.497917 
L 4624.06867 658.885277 
L 4631.670386 449.667715 
L 4639.272103 459.647067 
L 4646.87382 454.348406 
L 4654.475536 453.215714 
L 4662.077253 464.815181 
L 4669.67897 482.978078 
L 4677.280687 445.147476 
L 4684.882403 444.216321 
L 4692.48412 444.443852 
L 4700.085837 446.186193 
L 4707.687554 450.636219 
L 4715.28927 458.909102 
L 4722.890987 471.409293 
L 4730.492704 485.984924 
L 4738.094421 504.139938 
L 4745.696137 526.85447 
L 4753.297854 535.545228 
L 4760.899571 767.817031 
L 4768.501288 552.061866 
L 4776.103004 622.511415 
L 4791.306438 635.167656 
L 4798.908155 643.05442 
L 4806.509871 650.362063 
L 4814.111588 640.34758 
L 4821.713305 557.574647 
L 4829.315021 565.859487 
L 4836.916738 572.041094 
L 4844.518455 577.430992 
L 4852.120172 578.50954 
L 4859.721888 583.973786 
L 4874.925322 593.256897 
L 4882.527039 599.094011 
L 4890.128755 605.965148 
L 4897.730472 615.357437 
L 4905.332189 610.724285 
L 4912.933906 609.82761 
L 4920.535622 608.634583 
L 4928.137339 607.126441 
L 4935.739056 605.092994 
L 4943.340773 603.962659 
L 4950.942489 601.99567 
L 4958.544206 624.109001 
L 4966.145923 596.300365 
L 4973.747639 596.081488 
L 4981.349356 598.153049 
L 4988.951073 694.988831 
L 4996.55279 901.154661 
L 5004.154506 904.280109 
L 5011.756223 895.772752 
L 5019.35794 886.545678 
L 5026.959657 874.530692 
L 5034.561373 905.466519 
L 5042.16309 828.807858 
L 5049.764807 816.726132 
L 5057.366524 806.020031 
L 5064.96824 796.346343 
L 5072.569957 786.416836 
L 5080.171674 884.613959 
L 5087.773391 667.51138 
L 5095.375107 605.17218 
L 5102.976824 817.958175 
L 5110.578541 895.681359 
L 5118.180258 862.817409 
L 5125.781974 751.81873 
L 5133.383691 792.589462 
L 5140.985408 789.918574 
L 5148.587124 884.596236 
L 5156.188841 820.363945 
L 5163.790558 804.846506 
L 5171.392275 884.452328 
L 5178.993991 872.925529 
L 5186.595708 883.249036 
L 5194.197425 905.166595 
L 5201.799142 831.132412 
L 5209.400858 800.714852 
L 5217.002575 798.779886 
L 5224.604292 791.250797 
L 5232.206009 783.552382 
L 5239.807725 774.18771 
L 5247.409442 779.152909 
L 5255.011159 813.676322 
L 5262.612876 767.524414 
L 5270.214592 759.367446 
L 5277.816309 751.96141 
L 5285.418026 747.893582 
L 5293.019742 742.582513 
L 5300.621459 868.128905 
L 5308.223176 627.584977 
L 5315.824893 620.46791 
L 5323.426609 607.394574 
L 5331.028326 601.770646 
L 5338.630043 602.56738 
L 5346.23176 599.988938 
L 5353.833476 590.154503 
L 5361.435193 581.993518 
L 5369.03691 574.594131 
L 5376.638627 572.590933 
L 5384.240343 568.565657 
L 5391.84206 562.735693 
L 5399.443777 564.517149 
L 5407.045494 566.832152 
L 5414.64721 553.948741 
L 5422.248927 554.104405 
L 5429.850644 736.406276 
L 5437.452361 743.084349 
L 5445.054077 744.016106 
L 5452.655794 738.51493 
L 5460.257511 728.075026 
L 5467.859227 722.078568 
L 5475.460944 727.38663 
L 5483.062661 730.028215 
L 5490.664378 902.898605 
L 5498.266094 898.648687 
L 5505.867811 894.797179 
L 5513.469528 883.542605 
L 5521.071245 891.863717 
L 5528.672961 882.699685 
L 5536.274678 850.04206 
L 5543.876395 836.332761 
L 5551.478112 823.914288 
L 5559.079828 812.295933 
L 5566.681545 805.534074 
L 5574.283262 793.56491 
L 5581.884979 785.942685 
L 5589.486695 777.68812 
L 5597.088412 771.088782 
L 5604.690129 692.381166 
L 5612.291845 510.206783 
L 5619.893562 759.157794 
L 5627.495279 454.103453 
L 5635.096996 456.194698 
L 5642.698712 763.914425 
L 5650.300429 766.05574 
L 5657.902146 777.782528 
L 5665.503863 772.583162 
L 5673.105579 766.923589 
L 5680.707296 759.709451 
L 5688.309013 754.65336 
L 5695.91073 443.46863 
L 5703.512446 443.633995 
L 5711.114163 446.113825 
L 5718.71588 453.107952 
L 5726.317597 443.506481 
L 5733.919313 449.158509 
L 5741.52103 494.327592 
L 5749.122747 520.561911 
L 5756.724464 544.905531 
L 5764.32618 540.034872 
L 5771.927897 580.098396 
L 5779.529614 705.541914 
L 5787.13133 709.745582 
L 5794.733047 801.384385 
L 5802.334764 787.793489 
L 5809.936481 769.4951 
L 5817.538197 842.966241 
L 5825.139914 860.514864 
L 5832.741631 891.811302 
L 5840.343348 887.750688 
L 5847.945064 903.252723 
L 5855.546781 857.548802 
L 5863.148498 856.589234 
L 5870.750215 882.360031 
L 5878.351931 865.88558 
L 5885.953648 848.900858 
L 5893.555365 717.885294 
L 5901.157082 712.168666 
L 5908.758798 693.211826 
L 5916.360515 691.685204 
L 5923.962232 686.222648 
L 5931.563948 685.43278 
L 5946.767382 677.082475 
L 5954.369099 670.287279 
L 5961.970815 662.529988 
L 5969.572532 650.689198 
L 5977.174249 638.223084 
L 5984.775966 629.788314 
L 5992.377682 566.933347 
L 5999.979399 480.364844 
L 6007.581116 478.255037 
L 6015.182833 479.548194 
L 6022.784549 491.017753 
L 6030.386266 521.796186 
L 6037.987983 724.387746 
L 6045.5897 902.326281 
L 6053.191416 898.828014 
L 6060.793133 865.106831 
L 6068.39485 892.630183 
L 6075.996567 836.685175 
L 6083.598283 739.186687 
L 6091.2 795.550009 
L 6091.2 795.550009 
" style="fill:none;stroke:#000004;stroke-width:3;"/>
   </g>
   <g id="line2d_26">
    <path clip-path="url(#p3bb0336f0d)" d="M 777.6 657.291308 
L 785.201717 649.266972 
L 800.40515 643.699848 
L 808.006867 632.952187 
L 815.608584 629.361339 
L 823.2103 457.920394 
L 830.812017 604.50939 
L 838.413734 600.812037 
L 853.617167 611.756196 
L 876.422318 627.989404 
L 884.024034 633.640902 
L 891.625751 639.612159 
L 899.227468 435.133882 
L 906.829185 444.426832 
L 914.430901 444.600419 
L 922.032618 466.632233 
L 929.634335 484.261835 
L 937.236052 497.133089 
L 944.837768 508.793845 
L 952.439485 469.908859 
L 960.041202 486.961124 
L 967.642918 502.784365 
L 975.244635 358.56669 
L 982.846352 405.610404 
L 990.448069 527.628218 
L 998.049785 537.987745 
L 1005.651502 547.259125 
L 1013.253219 555.658808 
L 1020.854936 563.349039 
L 1028.456652 570.453948 
L 1036.058369 648.73863 
L 1043.660086 579.466789 
L 1051.261803 583.924329 
L 1058.863519 489.367119 
L 1066.465236 502.973631 
L 1074.066953 514.443692 
L 1081.66867 524.192931 
L 1089.270386 532.467268 
L 1096.872103 539.372295 
L 1104.47382 610.232075 
L 1112.075536 615.031582 
L 1119.677253 619.4243 
L 1127.27897 624.505902 
L 1134.880687 623.326874 
L 1150.08412 633.982559 
L 1157.685837 639.581781 
L 1165.287554 645.497241 
L 1172.88927 651.945383 
L 1180.490987 657.680004 
L 1188.092704 411.676159 
L 1195.694421 645.851034 
L 1203.296137 848.600884 
L 1210.897854 633.536766 
L 1218.499571 992.863554 
L 1226.101288 635.69936 
L 1233.703004 639.262834 
L 1241.304721 661.411085 
L 1256.508155 667.650333 
L 1264.109871 675.17732 
L 1271.711588 678.783074 
L 1279.313305 682.529977 
L 1286.915021 659.58982 
L 1302.118455 653.321885 
L 1309.720172 649.993243 
L 1317.321888 424.00938 
L 1324.923605 446.814215 
L 1332.525322 470.258152 
L 1340.127039 695.165022 
L 1347.728755 489.233852 
L 1355.330472 504.786146 
L 1362.932189 517.958954 
L 1370.533906 529.422747 
L 1378.135622 565.106018 
L 1385.737339 571.911098 
L 1393.339056 578.276469 
L 1400.940773 584.274261 
L 1408.542489 589.964359 
L 1416.144206 588.348913 
L 1438.949356 603.506857 
L 1446.551073 600.550308 
L 1454.15279 605.912909 
L 1461.754506 753.190652 
L 1469.356223 756.832013 
L 1476.95794 760.696417 
L 1484.559657 762.702679 
L 1492.161373 767.196303 
L 1499.76309 772.038029 
L 1507.364807 777.285366 
L 1514.966524 781.054109 
L 1522.56824 785.05477 
L 1530.169957 789.316521 
L 1537.771674 743.682223 
L 1552.975107 733.486613 
L 1560.576824 728.438121 
L 1568.178541 737.145476 
L 1575.780258 892.436392 
L 1583.381974 827.087903 
L 1590.983691 817.928058 
L 1598.585408 408.949923 
L 1606.187124 435.235879 
L 1613.788841 456.015119 
L 1621.390558 473.039134 
L 1628.992275 603.359578 
L 1682.204292 604.102162 
L 1697.407725 613.774509 
L 1712.611159 623.056611 
L 1735.416309 636.772405 
L 1743.018026 383.570908 
L 1750.619742 421.285802 
L 1758.221459 740.474705 
L 1765.823176 584.950638 
L 1773.424893 590.940697 
L 1781.026609 594.860912 
L 1788.628326 600.479438 
L 1796.230043 605.936253 
L 1803.83176 610.40899 
L 1811.433476 615.210471 
L 1819.035193 619.606892 
L 1841.840343 615.852543 
L 1849.44206 614.557193 
L 1857.043777 618.926142 
L 1864.645494 863.310209 
L 1872.24721 851.971774 
L 1879.848927 841.973697 
L 1887.450644 833.050821 
L 1895.052361 825.006021 
L 1902.654077 817.689209 
L 1910.255794 810.983801 
L 1917.857511 804.797613 
L 1925.459227 799.056623 
L 1933.060944 793.700622 
L 1940.662661 788.679975 
L 1948.264378 607.480014 
L 1955.866094 611.118272 
L 1963.467811 730.158593 
L 1971.069528 599.27337 
L 1978.671245 584.832605 
L 1986.272961 590.891146 
L 1993.874678 591.020904 
L 2001.476395 786.239914 
L 2009.078112 585.104892 
L 2054.688412 585.104892 
L 2062.290129 563.310812 
L 2069.891845 398.871808 
L 2077.493562 430.517262 
L 2085.095279 454.623764 
L 2092.696996 475.51326 
L 2100.298712 613.756787 
L 2107.900429 494.799825 
L 2115.502146 508.357946 
L 2123.103863 519.942574 
L 2130.705579 529.974416 
L 2138.307296 663.12285 
L 2145.909013 538.315506 
L 2153.51073 545.370557 
L 2161.112446 551.257573 
L 2168.714163 555.831668 
L 2176.31588 563.599944 
L 2183.917597 570.794555 
L 2191.519313 576.209151 
L 2199.12103 582.675052 
L 2206.722747 588.810229 
L 2214.324464 594.677881 
L 2221.92618 600.333901 
L 2229.527897 602.335087 
L 2244.73133 613.240982 
L 2259.934764 624.029583 
L 2267.536481 629.545737 
L 2275.138197 478.84264 
L 2282.739914 680.172165 
L 2290.341631 451.832154 
L 2297.943348 473.388903 
L 2305.545064 490.886002 
L 2313.146781 280.976248 
L 2320.748498 449.028111 
L 2328.350215 462.294242 
L 2335.951931 482.666035 
L 2343.553648 499.360446 
L 2351.155365 305.56912 
L 2358.757082 300.642148 
L 2366.358798 365.101243 
L 2373.960515 411.578248 
L 2381.562232 443.464945 
L 2389.163948 467.631469 
L 2396.765665 486.889834 
L 2404.367382 502.800157 
L 2411.969099 516.307919 
L 2419.570815 483.143005 
L 2427.172532 499.372278 
L 2434.774249 513.082366 
L 2442.375966 524.915944 
L 2449.977682 535.305715 
L 2457.579399 526.779307 
L 2465.181116 536.625655 
L 2472.782833 545.369367 
L 2480.384549 585.374905 
L 2487.986266 525.06924 
L 2495.587983 533.432714 
L 2503.1897 541.982221 
L 2510.791416 547.60393 
L 2518.393133 554.01681 
L 2525.99485 719.2426 
L 2533.596567 555.828622 
L 2541.198283 562.644136 
L 2548.8 566.87914 
L 2556.401717 569.518331 
L 2564.003433 569.379374 
L 2571.60515 850.71405 
L 2579.206867 521.726901 
L 2586.808584 532.564953 
L 2594.4103 542.18357 
L 2602.012017 550.799215 
L 2609.613734 558.613552 
L 2617.215451 565.754821 
L 2624.817167 572.314516 
L 2632.418884 549.593667 
L 2640.020601 556.060966 
L 2647.622318 740.45761 
L 2670.427468 744.524246 
L 2678.029185 745.933612 
L 2700.834335 743.051035 
L 2708.436052 563.450647 
L 2716.037768 567.984133 
L 2723.639485 587.195316 
L 2738.842918 593.066696 
L 2746.444635 595.857404 
L 2754.046352 596.989876 
L 2761.648069 643.20133 
L 2792.054936 646.748304 
L 2799.656652 654.865358 
L 2807.258369 653.575482 
L 2814.860086 872.047767 
L 2822.461803 854.977279 
L 2830.063519 840.615593 
L 2837.665236 828.244332 
L 2845.266953 817.383119 
L 2852.86867 807.696133 
L 2860.470386 799.365245 
L 2868.072103 791.793004 
L 2875.67382 599.674476 
L 2883.275536 604.769219 
L 2890.877253 777.874648 
L 2898.47897 609.508911 
L 2913.682403 619.090893 
L 2921.28412 807.876237 
L 2928.885837 805.535979 
L 2936.487554 614.800679 
L 2944.08927 391.569234 
L 2951.690987 423.710735 
L 2959.292704 448.1791 
L 2966.894421 467.698849 
L 2974.496137 651.651624 
L 2982.097854 650.358546 
L 2989.699571 531.950567 
L 2997.301288 540.088778 
L 3004.903004 547.496494 
L 3012.504721 554.295025 
L 3020.106438 560.579801 
L 3027.708155 566.427149 
L 3035.309871 571.89899 
L 3042.911588 578.600388 
L 3050.513305 584.923052 
L 3058.115021 666.923219 
L 3065.716738 595.627748 
L 3073.318455 601.209978 
L 3088.521888 611.9077 
L 3096.123605 617.088961 
L 3103.725322 621.460591 
L 3111.327039 486.476972 
L 3118.928755 494.495139 
L 3126.530472 508.760431 
L 3134.132189 452.531843 
L 3141.733906 473.474568 
L 3149.335622 479.093019 
L 3156.937339 606.807968 
L 3164.539056 612.167874 
L 3172.140773 615.309635 
L 3194.945923 619.354288 
L 3210.149356 630.363605 
L 3217.751073 634.165825 
L 3225.35279 724.22369 
L 3232.954506 725.710801 
L 3240.556223 740.974599 
L 3248.15794 865.250589 
L 3255.759657 735.143269 
L 3270.96309 736.951472 
L 3278.564807 849.383832 
L 3286.166524 852.135761 
L 3293.76824 842.932526 
L 3301.369957 834.653928 
L 3308.971674 827.141533 
L 3316.573391 820.272426 
L 3324.175107 813.9496 
L 3331.776824 808.095271 
L 3339.378541 896.759931 
L 3346.980258 781.596811 
L 3354.581974 774.820865 
L 3362.183691 769.931205 
L 3369.785408 765.87039 
L 3377.387124 763.074187 
L 3384.988841 757.204617 
L 3392.590558 628.444382 
L 3400.192275 623.192736 
L 3407.793991 617.422744 
L 3415.395708 611.007239 
L 3422.997425 603.771124 
L 3430.599142 595.464959 
L 3438.200858 585.718063 
L 3445.802575 573.949389 
L 3453.404292 614.409901 
L 3461.006009 610.992901 
L 3468.607725 608.654122 
L 3476.209442 1057.547323 
L 3483.811159 879.507045 
L 3491.412876 861.698003 
L 3499.014592 846.859396 
L 3506.616309 835.007695 
L 3514.218026 824.600165 
L 3521.819742 815.331104 
L 3529.421459 806.977368 
L 3537.023176 799.371512 
L 3544.624893 792.384968 
L 3552.226609 785.916967 
L 3559.828326 779.887108 
L 3567.430043 582.170007 
L 3575.03176 585.86142 
L 3582.633476 562.654739 
L 3590.235193 568.090779 
L 3597.83691 573.197035 
L 3605.438627 578.015706 
L 3613.040343 615.034358 
L 3635.845494 610.65371 
L 3651.048927 607.574547 
L 3658.650644 527.204 
L 3666.252361 531.766865 
L 3673.854077 721.172273 
L 3681.455794 610.794529 
L 3689.057511 610.293125 
L 3696.659227 770.271919 
L 3704.260944 779.692991 
L 3734.667811 783.22125 
L 3742.269528 919.98867 
L 3749.871245 899.928896 
L 3757.472961 883.379772 
L 3765.074678 869.382544 
L 3772.676395 903.002231 
L 3780.278112 839.903108 
L 3787.879828 879.501455 
L 3795.481545 861.28108 
L 3803.083262 846.107256 
L 3810.684979 833.429793 
L 3818.286695 822.389302 
L 3825.888412 783.322933 
L 3833.490129 776.54339 
L 3841.091845 770.046237 
L 3848.693562 738.868521 
L 3856.295279 645.31996 
L 3863.896996 640.458043 
L 3871.498712 635.172767 
L 3879.100429 629.361809 
L 3886.702146 618.242678 
L 3894.303863 653.749281 
L 3901.905579 649.672082 
L 3909.507296 639.454319 
L 3917.109013 626.125603 
L 3924.71073 623.007731 
L 3932.312446 619.735528 
L 3939.914163 394.084358 
L 3947.51588 424.422781 
L 3955.117597 447.808037 
L 3962.719313 466.623046 
L 3970.32103 486.203481 
L 3977.922747 474.781286 
L 3985.524464 492.826871 
L 3993.12618 507.885638 
L 4000.727897 535.683383 
L 4008.329614 545.321615 
L 4015.93133 659.407127 
L 4023.533047 652.064505 
L 4031.134764 785.803327 
L 4038.736481 659.504466 
L 4046.338197 665.929214 
L 4053.939914 671.796424 
L 4061.541631 678.289421 
L 4069.143348 685.684219 
L 4076.745064 692.467778 
L 4091.948498 695.423976 
L 4099.550215 868.502262 
L 4107.151931 855.065953 
L 4114.753648 686.006413 
L 4122.355365 689.337118 
L 4129.957082 692.801651 
L 4137.558798 785.370674 
L 4160.363948 786.330694 
L 4167.965665 779.249221 
L 4175.567382 772.608053 
L 4183.169099 766.32737 
L 4190.770815 760.339673 
L 4198.372532 754.586169 
L 4205.974249 749.498908 
L 4213.575966 714.213565 
L 4221.177682 781.271739 
L 4228.779399 697.476176 
L 4236.381116 609.349092 
L 4243.982833 609.089833 
L 4251.584549 607.116433 
L 4259.186266 612.167266 
L 4266.787983 610.069686 
L 4274.3897 354.749173 
L 4281.991416 399.709764 
L 4289.593133 431.554675 
L 4297.19485 531.722534 
L 4304.796567 538.646863 
L 4312.398283 480.415679 
L 4320 557.447897 
L 4327.601717 499.738804 
L 4335.203433 509.987561 
L 4342.80515 521.367694 
L 4350.406867 646.570782 
L 4358.008584 647.514395 
L 4365.6103 651.489599 
L 4373.212017 869.092245 
L 4380.813734 653.348299 
L 4388.415451 673.813975 
L 4396.017167 817.765036 
L 4403.618884 815.033749 
L 4411.220601 907.570874 
L 4418.822318 798.559863 
L 4426.424034 815.863735 
L 4434.025751 866.258148 
L 4441.627468 853.455589 
L 4449.229185 845.693178 
L 4456.830901 854.583906 
L 4464.432618 841.233827 
L 4472.034335 829.662158 
L 4479.636052 819.462883 
L 4487.237768 810.347506 
L 4494.839485 802.104415 
L 4502.441202 794.339786 
L 4510.042918 787.259003 
L 4517.644635 780.776038 
L 4525.246352 774.076157 
L 4532.848069 767.755787 
L 4540.449785 752.039869 
L 4548.051502 746.51555 
L 4555.653219 741.603894 
L 4563.254936 737.027857 
L 4570.856652 733.0875 
L 4578.458369 727.712379 
L 4586.060086 641.349811 
L 4593.661803 626.278708 
L 4601.263519 627.482395 
L 4608.865236 595.556684 
L 4616.466953 677.154983 
L 4624.06867 669.189652 
L 4631.670386 481.311001 
L 4639.272103 498.249224 
L 4646.87382 488.366404 
L 4654.475536 488.366404 
L 4662.077253 503.608698 
L 4669.67897 516.613107 
L 4677.280687 259.854545 
L 4684.882403 363.511033 
L 4692.48412 409.32788 
L 4700.085837 441.45231 
L 4707.687554 465.748667 
L 4715.28927 485.072343 
L 4722.890987 501.00351 
L 4730.492704 514.497184 
L 4738.094421 526.168944 
L 4745.696137 551.686792 
L 4753.297854 559.62749 
L 4760.899571 743.147323 
L 4768.501288 566.90739 
L 4776.103004 635.662248 
L 4783.704721 640.67456 
L 4791.306438 645.85928 
L 4798.908155 651.300057 
L 4806.509871 657.113159 
L 4814.111588 661.188147 
L 4821.713305 588.886225 
L 4829.315021 596.854572 
L 4836.916738 602.481896 
L 4844.518455 607.512789 
L 4852.120172 609.778561 
L 4874.925322 626.062347 
L 4882.527039 631.692573 
L 4890.128755 637.618333 
L 4897.730472 644.070322 
L 4905.332189 640.607321 
L 4928.137339 635.415808 
L 4943.340773 631.758953 
L 4958.544206 627.919208 
L 4966.145923 625.922462 
L 4981.349356 625.922462 
L 4988.951073 622.868234 
L 4996.55279 1035.799478 
L 5004.154506 1136.945455 
L 5011.756223 866.222377 
L 5019.35794 854.14228 
L 5026.959657 843.561689 
L 5034.561373 981.684456 
L 5042.16309 802.87132 
L 5049.764807 794.72431 
L 5057.366524 787.261071 
L 5064.96824 780.334437 
L 5072.569957 773.852091 
L 5080.171674 952.154335 
L 5087.773391 745.554258 
L 5095.375107 617.146232 
L 5102.976824 914.779572 
L 5110.578541 889.695342 
L 5118.180258 869.853097 
L 5125.781974 751.290899 
L 5133.383691 780.895073 
L 5140.985408 774.143279 
L 5148.587124 909.233075 
L 5156.188841 798.922604 
L 5163.790558 791.215967 
L 5171.392275 877.561351 
L 5178.993991 861.86397 
L 5186.595708 874.114408 
L 5194.197425 1013.508938 
L 5201.799142 816.735294 
L 5209.400858 784.417448 
L 5217.002575 779.680796 
L 5224.604292 773.010105 
L 5232.206009 768.422406 
L 5239.807725 762.34727 
L 5247.409442 756.524688 
L 5255.011159 802.641884 
L 5262.612876 757.395595 
L 5270.214592 751.711262 
L 5285.418026 740.738752 
L 5293.019742 735.342813 
L 5300.621459 932.983905 
L 5308.223176 652.024563 
L 5315.824893 644.941706 
L 5323.426609 629.571433 
L 5346.23176 625.642338 
L 5353.833476 617.277413 
L 5361.435193 610.562498 
L 5369.03691 604.839087 
L 5376.638627 607.553303 
L 5384.240343 604.006269 
L 5391.84206 600.248053 
L 5399.443777 603.280204 
L 5407.045494 604.281376 
L 5414.64721 593.004036 
L 5422.248927 588.885498 
L 5429.850644 616.568801 
L 5437.452361 707.003551 
L 5475.460944 707.003551 
L 5483.062661 711.642778 
L 5490.664378 940.174355 
L 5498.266094 872.745237 
L 5505.867811 858.001959 
L 5513.469528 845.386925 
L 5521.071245 877.853905 
L 5528.672961 857.82465 
L 5536.274678 828.017278 
L 5543.876395 819.050096 
L 5551.478112 809.185248 
L 5559.079828 800.286048 
L 5566.681545 792.161585 
L 5574.283262 784.665496 
L 5581.884979 777.682649 
L 5589.486695 771.120015 
L 5597.088412 764.896384 
L 5604.690129 758.949533 
L 5612.291845 498.989019 
L 5619.893562 747.055914 
L 5627.495279 492.928441 
L 5635.096996 497.585394 
L 5642.698712 741.481756 
L 5650.300429 736.080233 
L 5657.902146 752.006204 
L 5673.105579 741.494734 
L 5688.309013 731.319297 
L 5695.91073 434.884368 
L 5703.512446 453.032576 
L 5711.114163 468.244865 
L 5718.71588 486.991705 
L 5726.317597 377.598527 
L 5733.919313 419.231806 
L 5741.52103 528.757626 
L 5749.122747 560.556915 
L 5756.724464 566.740609 
L 5764.32618 573.732448 
L 5771.927897 580.299776 
L 5779.529614 670.10224 
L 5787.13133 673.492923 
L 5794.733047 791.116326 
L 5802.334764 790.130125 
L 5809.936481 744.249615 
L 5817.538197 837.971275 
L 5825.139914 831.97379 
L 5832.741631 914.20632 
L 5840.343348 889.048343 
L 5847.945064 976.349774 
L 5855.546781 851.690287 
L 5863.148498 837.907142 
L 5870.750215 885.787923 
L 5878.351931 867.48781 
L 5885.953648 852.549877 
L 5893.555365 733.822539 
L 5901.157082 731.93849 
L 5908.758798 711.985898 
L 5916.360515 710.942062 
L 5931.563948 702.95782 
L 5946.767382 694.65428 
L 5954.369099 688.2253 
L 5961.970815 680.936277 
L 5977.174249 668.314211 
L 5984.775966 661.048724 
L 5992.377682 595.55607 
L 5999.979399 522.043757 
L 6015.182833 516.884918 
L 6022.784549 524.142547 
L 6030.386266 460.672022 
L 6037.987983 617.903249 
L 6045.5897 1010.080331 
L 6053.191416 956.888669 
L 6060.793133 827.502407 
L 6068.39485 911.894137 
L 6075.996567 847.475826 
L 6083.598283 780.377846 
L 6091.2 798.434617 
L 6091.2 798.434617 
" style="fill:none;stroke:#b73779;stroke-width:3;"/>
   </g>
   <g id="line2d_27">
    <path clip-path="url(#p3bb0336f0d)" d="M 777.6 676.317288 
L 6091.2 676.317288 
" style="fill:none;opacity:0.7;stroke:#000000;stroke-width:1.3;"/>
   </g>
   <g id="patch_3">
    <path d="M 777.6 1180.8 
L 777.6 216 
" style="fill:none;stroke:#000000;stroke-linecap:square;stroke-linejoin:miter;stroke-width:0.8;"/>
   </g>
   <g id="patch_4">
    <path d="M 6091.2 1180.8 
L 6091.2 216 
" style="fill:none;stroke:#000000;stroke-linecap:square;stroke-linejoin:miter;stroke-width:0.8;"/>
   </g>
   <g id="patch_5">
    <path d="M 777.6 1180.8 
L 6091.2 1180.8 
" style="fill:none;stroke:#000000;stroke-linecap:square;stroke-linejoin:miter;stroke-width:0.8;"/>
   </g>
   <g id="patch_6">
    <path d="M 777.6 216 
L 6091.2 216 
" style="fill:none;stroke:#000000;stroke-linecap:square;stroke-linejoin:miter;stroke-width:0.8;"/>
   </g>
   <g id="patch_7">
    <path d="M 0 1440 
L 6480 1440 
L 6480 1416.729153 
L 0 1416.729153 
z
" style="fill:#808080;"/>
   </g>
   <g id="text_15">
    <!-- ©spred -->
    <defs>
     <path d="M 50.90625 25.90625 
L 50.90625 44 
Q 50.90625 52.40625 44.75 58.40625 
Q 38.59375 64.40625 30 64.40625 
Q 21.296875 64.40625 15.09375 58.40625 
Q 8.90625 52.40625 8.90625 44 
L 8.90625 25.90625 
Q 8.90625 17.5 15.09375 11.453125 
Q 21.296875 5.40625 30 5.40625 
Q 38.59375 5.40625 44.75 11.453125 
Q 50.90625 17.5 50.90625 25.90625 
z
M 57.703125 43.203125 
L 57.703125 26.59375 
Q 57.703125 15.203125 49.59375 7.09375 
Q 41.5 -1 30 -1 
Q 18.40625 -1 10.296875 7.09375 
Q 2.203125 15.203125 2.203125 26.59375 
L 2.203125 43.203125 
Q 2.203125 54.59375 10.296875 62.6875 
Q 18.40625 70.796875 30 70.796875 
Q 41.5 70.796875 49.59375 62.6875 
Q 57.703125 54.59375 57.703125 43.203125 
z
M 38.59375 29.40625 
L 41.40625 29.40625 
Q 42.40625 29.40625 42.90625 28.84375 
Q 43.40625 28.296875 43.40625 27.59375 
Q 43.40625 21.59375 39.796875 17.9375 
Q 36.203125 14.296875 30.40625 14.296875 
Q 24.40625 14.296875 20.75 17.9375 
Q 17.09375 21.59375 17.09375 27.09375 
L 17.09375 43.40625 
Q 17.09375 48.703125 20.75 52.390625 
Q 24.40625 56.09375 30.40625 56.09375 
Q 35.90625 56.09375 39.40625 52.25 
Q 42.90625 48.40625 42.90625 42.296875 
Q 42.90625 41.59375 42.40625 41.046875 
Q 41.90625 40.5 40.90625 40.5 
L 38.09375 40.5 
Q 37.09375 40.5 36.546875 41.046875 
Q 36 41.59375 36 42.296875 
Q 36 45.203125 34.390625 47.046875 
Q 32.796875 48.90625 30.40625 48.90625 
Q 27.703125 48.90625 25.796875 46.90625 
Q 23.90625 44.90625 23.90625 42.203125 
L 23.90625 28.203125 
Q 23.90625 25.59375 25.796875 23.59375 
Q 27.703125 21.59375 30.40625 21.59375 
Q 32.90625 21.59375 34.703125 23.1875 
Q 36.5 24.796875 36.5 27.59375 
Q 36.5 28.296875 37.046875 28.84375 
Q 37.59375 29.40625 38.59375 29.40625 
z
" id="DecimaMonoPro-a9"/>
     <path d="M 30.09375 -1 
Q 25.296875 -1 21.546875 0.59375 
Q 17.796875 2.203125 15.84375 4.59375 
Q 13.90625 7 12.953125 9.390625 
Q 12 11.796875 12 14 
Q 12 14.796875 12.5 15.296875 
Q 13 15.796875 13.796875 15.796875 
L 18.296875 15.796875 
Q 19.90625 15.796875 20.09375 14.09375 
Q 20.40625 11.203125 22.796875 8.703125 
Q 25.203125 6.203125 30.09375 6.203125 
Q 34.296875 6.203125 36.890625 8.296875 
Q 39.5 10.40625 39.5 13.59375 
Q 39.5 16.5 36.84375 18.5 
Q 34.203125 20.5 30.390625 21.84375 
Q 26.59375 23.203125 22.84375 24.796875 
Q 19.09375 26.40625 16.4375 29.5 
Q 13.796875 32.59375 13.796875 37.09375 
Q 13.796875 43.296875 18.4375 47.140625 
Q 23.09375 51 30.703125 51 
Q 38.90625 51 43.25 46.5 
Q 47.59375 42 47.59375 37.5 
Q 47.59375 36.796875 47.09375 36.25 
Q 46.59375 35.703125 45.796875 35.703125 
L 41.203125 35.703125 
Q 39.703125 35.703125 39.40625 37.40625 
Q 38.90625 40 36.75 41.890625 
Q 34.59375 43.796875 30.703125 43.796875 
Q 26.90625 43.796875 24.546875 42.09375 
Q 22.203125 40.40625 22.203125 37.703125 
Q 22.203125 35 24.84375 33.09375 
Q 27.5 31.203125 31.25 29.890625 
Q 35 28.59375 38.703125 26.9375 
Q 42.40625 25.296875 45.046875 21.84375 
Q 47.703125 18.40625 47.703125 13.40625 
Q 47.703125 7.40625 42.59375 3.203125 
Q 37.5 -1 30.09375 -1 
z
" id="DecimaMonoPro-73"/>
     <path d="M 42.09375 17.09375 
L 42.09375 33.09375 
Q 42.09375 37.703125 38.84375 40.796875 
Q 35.59375 43.90625 30.5 43.90625 
Q 25.40625 43.90625 22.046875 40.75 
Q 18.703125 37.59375 18.703125 33 
L 18.703125 17.09375 
Q 18.703125 12.5 22.046875 9.390625 
Q 25.40625 6.296875 30.5 6.296875 
Q 35.59375 6.296875 38.84375 9.390625 
Q 42.09375 12.5 42.09375 17.09375 
z
M 18.703125 3.703125 
L 18.796875 -16.203125 
Q 18.796875 -18 16.5 -18 
L 13 -18 
Q 10.703125 -18 10.703125 -16.203125 
L 10.703125 48.203125 
Q 10.703125 50 13 50 
L 15.90625 50 
Q 18.203125 50 18.203125 48.203125 
L 18.203125 45.90625 
Q 18.59375 46.5 19.5 47.34375 
Q 20.40625 48.203125 23.75 49.59375 
Q 27.09375 51 31.296875 51 
Q 39.296875 51 44.796875 45.640625 
Q 50.296875 40.296875 50.296875 32.59375 
L 50.296875 17.40625 
Q 50.296875 9.796875 44.75 4.390625 
Q 39.203125 -1 31.296875 -1 
Q 27.40625 -1 24.25 0.203125 
Q 21.09375 1.40625 19.90625 2.59375 
z
" id="DecimaMonoPro-70"/>
     <path d="M 37.203125 51 
Q 44.09375 51 48.140625 46.453125 
Q 52.203125 41.90625 52.203125 37.5 
Q 52.203125 35.703125 50.5 35.703125 
L 45.90625 35.703125 
Q 44.296875 35.703125 44.09375 37.40625 
Q 43.796875 39.796875 41.75 41.796875 
Q 39.703125 43.796875 36.59375 43.796875 
Q 32.40625 43.796875 29.203125 40.796875 
Q 26 37.796875 26 34 
L 26 7.203125 
L 45.09375 7.203125 
Q 45.796875 7.203125 46.34375 6.703125 
Q 46.90625 6.203125 46.90625 5.40625 
L 46.90625 1.796875 
Q 46.90625 1 46.34375 0.5 
Q 45.796875 0 45.09375 0 
L 9.296875 0 
Q 8.59375 0 8.046875 0.5 
Q 7.5 1 7.5 1.796875 
L 7.5 5.40625 
Q 7.5 6.203125 8.046875 6.703125 
Q 8.59375 7.203125 9.296875 7.203125 
L 18 7.203125 
L 18 48.203125 
Q 18 50 20.296875 50 
L 23.5 50 
Q 25.796875 50 25.796875 48.203125 
L 25.796875 45.703125 
Q 29.796875 51 37.203125 51 
z
" id="DecimaMonoPro-72"/>
     <path d="M 48.796875 13.5 
Q 48.796875 9.09375 43.75 4.046875 
Q 38.703125 -1 30.203125 -1 
Q 21.203125 -1 15.75 4.453125 
Q 10.296875 9.90625 10.296875 17.5 
L 10.296875 32.703125 
Q 10.296875 40.203125 15.75 45.59375 
Q 21.203125 51 30.203125 51 
Q 39.203125 51 44.453125 45.59375 
Q 49.703125 40.203125 49.703125 32.703125 
L 49.703125 24.796875 
Q 49.703125 23.796875 49.046875 23.140625 
Q 48.40625 22.5 47.40625 22.5 
L 18.40625 22.5 
L 18.40625 17 
Q 18.40625 12.5 21.65625 9.296875 
Q 24.90625 6.09375 30.203125 6.09375 
Q 38.5 6.09375 40.59375 13.59375 
Q 41.09375 15.296875 42.40625 15.296875 
L 47 15.296875 
Q 47.796875 15.296875 48.296875 14.75 
Q 48.796875 14.203125 48.796875 13.5 
z
M 18.40625 33 
L 18.40625 29.703125 
L 41.796875 29.703125 
L 41.796875 33 
Q 41.796875 37.5 38.640625 40.640625 
Q 35.5 43.796875 30.203125 43.796875 
Q 24.90625 43.796875 21.65625 40.640625 
Q 18.40625 37.5 18.40625 33 
z
" id="DecimaMonoPro-65"/>
     <path d="M 17.90625 32.90625 
L 17.90625 16.90625 
Q 17.90625 12.296875 21.15625 9.1875 
Q 24.40625 6.09375 29.5 6.09375 
Q 34.59375 6.09375 37.9375 9.25 
Q 41.296875 12.40625 41.296875 17 
L 41.296875 32.90625 
Q 41.296875 37.5 37.9375 40.59375 
Q 34.59375 43.703125 29.5 43.703125 
Q 24.40625 43.703125 21.15625 40.59375 
Q 17.90625 37.5 17.90625 32.90625 
z
M 41.296875 46.296875 
L 41.203125 68.203125 
Q 41.203125 70 43.5 70 
L 47 70 
Q 49.296875 70 49.296875 68.203125 
L 49.296875 1.796875 
Q 49.296875 0 47 0 
L 44.09375 0 
Q 41.796875 0 41.796875 1.796875 
L 41.796875 4.09375 
Q 41.40625 3.5 40.5 2.640625 
Q 39.59375 1.796875 36.25 0.390625 
Q 32.90625 -1 28.703125 -1 
Q 20.703125 -1 15.203125 4.34375 
Q 9.703125 9.703125 9.703125 17.40625 
L 9.703125 32.59375 
Q 9.703125 40.203125 15.25 45.59375 
Q 20.796875 51 28.703125 51 
Q 32.59375 51 35.75 49.796875 
Q 38.90625 48.59375 40.09375 47.40625 
z
" id="DecimaMonoPro-64"/>
    </defs>
    <g style="fill:#ffffff;" transform="translate(64.8 1432.8)scale(0.14 -0.14)">
     <use xlink:href="#DecimaMonoPro-a9"/>
     <use x="59.999985" xlink:href="#DecimaMonoPro-73"/>
     <use x="119.999969" xlink:href="#DecimaMonoPro-70"/>
     <use x="179.999954" xlink:href="#DecimaMonoPro-72"/>
     <use x="239.999939" xlink:href="#DecimaMonoPro-65"/>
     <use x="299.999924" xlink:href="#DecimaMonoPro-64"/>
    </g>
   </g>
   <g id="text_16">
    <!-- ETHUSDT_drop -->
    <defs>
     <path d="M 9.40625 70 
L 9.40625 0 
L 51.90625 0 
L 51.90625 10.40625 
L 20.40625 10.40625 
L 20.40625 32 
L 45 32 
L 45 42.40625 
L 20.40625 42.40625 
L 20.40625 59.59375 
L 50.90625 59.59375 
L 50.90625 70 
z
" id="ApercuPro-Medium-45"/>
     <path d="M 1.09375 59.59375 
L 20.703125 59.59375 
L 20.703125 0 
L 31.703125 0 
L 31.703125 59.59375 
L 51.296875 59.59375 
L 51.296875 70 
L 1.09375 70 
z
" id="ApercuPro-Medium-54"/>
     <path d="M 9.40625 0 
L 20.40625 0 
L 20.40625 32.203125 
L 48.796875 32.203125 
L 48.796875 0 
L 59.796875 0 
L 59.796875 70 
L 48.796875 70 
L 48.796875 42.59375 
L 20.40625 42.59375 
L 20.40625 70 
L 9.40625 70 
z
" id="ApercuPro-Medium-48"/>
     <path d="M 7.5 25.203125 
C 7.5 8.40625 18.40625 -0.796875 32.703125 -0.796875 
C 47 -0.796875 57.90625 8.296875 57.90625 25.203125 
L 57.90625 70 
L 46.90625 70 
L 46.90625 24.703125 
C 46.90625 15.203125 42.09375 9.59375 32.703125 9.59375 
C 23.296875 9.59375 18.5 15.203125 18.5 24.703125 
L 18.5 70 
L 7.5 70 
z
" id="ApercuPro-Medium-55"/>
     <path d="M 45.40625 59 
C 41.703125 65.59375 35.703125 70.796875 26.09375 70.796875 
C 15.90625 70.796875 7.796875 63 7.796875 52.40625 
C 7.796875 30.796875 37.59375 33.796875 37.59375 20.09375 
C 37.59375 13.90625 33.203125 9.59375 26.90625 9.59375 
C 18.90625 9.59375 14.796875 16.59375 12.796875 24.40625 
L 3.796875 18.703125 
C 6.296875 7.5 14.59375 -0.796875 26.90625 -0.796875 
C 39.5 -0.796875 48.796875 7.703125 48.796875 20.5 
C 48.796875 42.09375 18.796875 39.40625 18.796875 53.203125 
C 18.796875 57.296875 21.59375 60.796875 26.09375 60.796875 
C 30.203125 60.796875 33.703125 58.40625 36.5 53.09375 
z
" id="ApercuPro-Medium-53"/>
     <path d="M 9.40625 70 
L 9.40625 0 
L 30 0 
C 46.796875 0 62.203125 11.40625 62.203125 35 
C 62.203125 58.59375 46.796875 70 30 70 
z
M 26.796875 59.59375 
C 39 59.59375 51 54.09375 51 35 
C 51 15.90625 39 10.40625 26.796875 10.40625 
L 20.40625 10.40625 
L 20.40625 59.59375 
z
" id="ApercuPro-Medium-44"/>
     <path d="M 2.703125 -9.203125 
L 47.203125 -9.203125 
L 47.203125 0 
L 2.703125 0 
z
" id="ApercuPro-Medium-5f"/>
     <path d="M 4.90625 25.203125 
C 4.90625 9.09375 12.5 -0.796875 27.40625 -0.796875 
C 34 -0.796875 39.40625 2.90625 41.09375 5.796875 
L 41.09375 0 
L 51.5 0 
L 51.5 70.796875 
L 41.09375 70.796875 
L 41.09375 44.796875 
C 38.796875 48.09375 32.59375 51.203125 27.59375 51.203125 
C 12.5 51.203125 4.90625 40.796875 4.90625 25.203125 
z
M 15.90625 25.203125 
C 15.90625 35.59375 21.296875 42 28.796875 42 
C 36.296875 42 41.703125 35.59375 41.703125 25.203125 
C 41.703125 14.796875 36.296875 8.40625 28.796875 8.40625 
C 21.296875 8.40625 15.90625 14.796875 15.90625 25.203125 
z
" id="ApercuPro-Medium-64"/>
     <path d="M 19 0 
L 19 18.703125 
C 19 34.59375 25.90625 42 32.59375 42 
C 34.703125 42 36.90625 41.5 38.5 40.5 
L 40.296875 50 
C 38.796875 50.59375 36.59375 51.203125 33.90625 51.203125 
C 28.5 51.203125 22.5 48 19 42 
L 19 50.40625 
L 8.59375 50.40625 
L 8.59375 0 
z
" id="ApercuPro-Medium-72"/>
     <path d="M 4.90625 25.203125 
C 4.90625 11 14.09375 -0.796875 29.703125 -0.796875 
C 45.296875 -0.796875 54.5 11 54.5 25.203125 
C 54.5 39.40625 45.296875 51.203125 29.703125 51.203125 
C 14.09375 51.203125 4.90625 39.40625 4.90625 25.203125 
z
M 15.90625 25.203125 
C 15.90625 33.703125 20.59375 42 29.703125 42 
C 38.796875 42 43.5 33.703125 43.5 25.203125 
C 43.5 16.703125 38.796875 8.40625 29.703125 8.40625 
C 20.59375 8.40625 15.90625 16.703125 15.90625 25.203125 
z
" id="ApercuPro-Medium-6f"/>
     <path d="M 55.203125 25.203125 
C 55.203125 41.296875 47.59375 51.203125 32.703125 51.203125 
C 26.09375 51.203125 20.703125 47.5 19 44.59375 
L 19 50.40625 
L 8.59375 50.40625 
L 8.59375 -20.40625 
L 19 -20.40625 
L 19 5.59375 
C 21.296875 2.296875 26.296875 -0.796875 32.5 -0.796875 
C 47.59375 -0.796875 55.203125 9.59375 55.203125 25.203125 
z
M 44.203125 25.203125 
C 44.203125 14.796875 38.796875 8.40625 31.296875 8.40625 
C 23.796875 8.40625 18.40625 14.796875 18.40625 25.203125 
C 18.40625 35.59375 23.796875 42 31.296875 42 
C 38.796875 42 44.203125 35.59375 44.203125 25.203125 
z
" id="ApercuPro-Medium-70"/>
    </defs>
    <g style="opacity:0.75;" transform="translate(1044 144)scale(0.3 -0.3)">
     <use xlink:href="#ApercuPro-Medium-45"/>
     <use x="56.846863" xlink:href="#ApercuPro-Medium-54"/>
     <use x="109.246857" xlink:href="#ApercuPro-Medium-48"/>
     <use x="178.415588" xlink:href="#ApercuPro-Medium-55"/>
     <use x="243.799957" xlink:href="#ApercuPro-Medium-53"/>
     <use x="296.799942" xlink:href="#ApercuPro-Medium-44"/>
     <use x="364.06868" xlink:href="#ApercuPro-Medium-54"/>
     <use x="416.468674" xlink:href="#ApercuPro-Medium-5f"/>
     <use x="466.368668" xlink:href="#ApercuPro-Medium-64"/>
     <use x="526.421783" xlink:href="#ApercuPro-Medium-72"/>
     <use x="568.12178" xlink:href="#ApercuPro-Medium-6f"/>
     <use x="627.521774" xlink:href="#ApercuPro-Medium-70"/>
    </g>
   </g>
   <g id="text_17">
    <!-- None -->
    <defs>
     <path d="M 51.59375 70 
L 60.40625 70 
L 60.40625 0 
L 50.09375 0 
L 18.5 54.5 
L 18.5 0 
L 9.703125 0 
L 9.703125 70 
L 20 70 
L 51.59375 15.296875 
z
" id="Apercu-4e"/>
     <path d="M 12 6.796875 
Q 5.40625 14.5 5.40625 25.203125 
Q 5.40625 35.90625 12.046875 43.546875 
Q 18.703125 51.203125 29.59375 51.203125 
Q 40.5 51.203125 47.140625 43.546875 
Q 53.796875 35.90625 53.796875 25.203125 
Q 53.796875 14.5 47.140625 6.84375 
Q 40.5 -0.796875 29.59375 -0.796875 
Q 18.703125 -0.796875 12 6.796875 
z
M 18.09375 38.09375 
Q 14 32.703125 14 25.203125 
Q 14 17.703125 18.140625 12.25 
Q 22.296875 6.796875 29.59375 6.796875 
Q 36.90625 6.796875 41.046875 12.25 
Q 45.203125 17.703125 45.203125 25.203125 
Q 45.203125 32.703125 41.046875 38.140625 
Q 36.90625 43.59375 29.59375 43.59375 
Q 22.296875 43.59375 18.09375 38.09375 
z
" id="Apercu-6f"/>
     <path d="M 49.09375 35.5 
L 49.09375 0 
L 40.703125 0 
L 40.703125 33.296875 
Q 40.703125 43.59375 32 43.59375 
Q 26.09375 43.59375 21.84375 37.390625 
Q 17.59375 31.203125 17.59375 21.09375 
L 17.59375 0 
L 9.203125 0 
L 9.203125 50.40625 
L 17.59375 50.40625 
L 17.59375 41.09375 
Q 23.296875 51.203125 34.296875 51.203125 
Q 41.203125 51.203125 45.140625 47.09375 
Q 49.09375 43 49.09375 35.5 
z
" id="Apercu-6e"/>
     <path d="M 51 27.296875 
L 51 23.40625 
L 14 23.40625 
Q 14.40625 16 18.046875 11.390625 
Q 21.703125 6.796875 28.203125 6.796875 
Q 33.5 6.796875 36.75 9.140625 
Q 40 11.5 42.203125 16.40625 
L 49.59375 13.203125 
Q 46.09375 5.796875 41.046875 2.5 
Q 36 -0.796875 28.203125 -0.796875 
Q 17.296875 -0.796875 11.34375 6.75 
Q 5.40625 14.296875 5.40625 25.1875 
Q 5.40625 36.09375 11.34375 43.640625 
Q 17.296875 51.203125 28.203125 51.203125 
Q 38.90625 51.203125 44.953125 44.25 
Q 51 37.296875 51 27.296875 
z
M 28.203125 43.59375 
Q 22.59375 43.59375 19.140625 40.1875 
Q 15.703125 36.796875 14.5 31 
L 42.203125 31 
Q 41 36.703125 37.5 40.140625 
Q 34 43.59375 28.203125 43.59375 
z
" id="Apercu-65"/>
    </defs>
    <g style="opacity:0.75;" transform="translate(1045 158.4)scale(0.14 -0.14)">
     <use xlink:href="#Apercu-4e"/>
     <use x="70.099991" xlink:href="#Apercu-6f"/>
     <use x="129.299988" xlink:href="#Apercu-6e"/>
     <use x="186.999985" xlink:href="#Apercu-65"/>
    </g>
   </g>
   <g id="legend_1">
    <g id="patch_8">
     <path d="M 5997.58375 266.736875 
L 6081.4 266.736875 
Q 6084.2 266.736875 6084.2 263.936875 
L 6084.2 225.8 
Q 6084.2 223 6081.4 223 
L 5997.58375 223 
Q 5994.78375 223 5994.78375 225.8 
L 5994.78375 263.936875 
Q 5994.78375 266.736875 5997.58375 266.736875 
z
" style="fill:#f0f0f0;opacity:0.8;stroke:#cccccc;stroke-linejoin:miter;stroke-width:0.5;"/>
    </g>
    <g id="line2d_28">
     <path d="M 6000.38375 233.611563 
L 6028.38375 233.611563 
" style="fill:none;stroke:#000004;stroke-width:3;"/>
    </g>
    <g id="line2d_29"/>
    <g id="text_18">
     <!-- pred -->
     <defs>
      <path d="M 32.296875 -0.796875 
Q 27.796875 -0.796875 23.390625 1.390625 
Q 19 3.59375 17.59375 6 
L 17.59375 -20.40625 
L 9.203125 -20.40625 
L 9.203125 50.40625 
L 17.59375 50.40625 
L 17.59375 44.203125 
Q 19.5 47.09375 23.640625 49.140625 
Q 27.796875 51.203125 32.296875 51.203125 
Q 43.09375 51.203125 48.890625 44.046875 
Q 54.703125 36.90625 54.703125 25.203125 
Q 54.703125 13.5 48.890625 6.34375 
Q 43.09375 -0.796875 32.296875 -0.796875 
z
M 31.5 43.59375 
Q 24.703125 43.59375 20.796875 38.5 
Q 16.90625 33.40625 16.90625 25.203125 
Q 16.90625 17 20.796875 11.890625 
Q 24.703125 6.796875 31.5 6.796875 
Q 38.09375 6.796875 42.09375 11.890625 
Q 46.09375 17 46.09375 25.203125 
Q 46.09375 33.40625 42.09375 38.5 
Q 38.09375 43.59375 31.5 43.59375 
z
" id="Apercu-70"/>
      <path d="M 39.296875 49.703125 
L 37.59375 42.203125 
Q 34.796875 43.59375 31.703125 43.59375 
Q 26 43.59375 21.796875 37.140625 
Q 17.59375 30.703125 17.59375 19.09375 
L 17.59375 0 
L 9.203125 0 
L 9.203125 50.40625 
L 17.59375 50.40625 
L 17.59375 41.796875 
Q 19.796875 46 24 48.59375 
Q 28.203125 51.203125 32.40625 51.203125 
Q 36.5 51.203125 39.296875 49.703125 
z
" id="Apercu-72"/>
      <path d="M 27.796875 51.203125 
Q 32.296875 51.203125 36.6875 49 
Q 41.09375 46.796875 42.5 44.40625 
L 42.5 70.796875 
L 50.90625 70.796875 
L 50.90625 0 
L 42.5 0 
L 42.5 6.203125 
Q 40.59375 3.296875 36.4375 1.25 
Q 32.296875 -0.796875 27.796875 -0.796875 
Q 17 -0.796875 11.203125 6.34375 
Q 5.40625 13.5 5.40625 25.203125 
Q 5.40625 36.90625 11.203125 44.046875 
Q 17 51.203125 27.796875 51.203125 
z
M 28.59375 6.796875 
Q 35.40625 6.796875 39.296875 11.890625 
Q 43.203125 17 43.203125 25.203125 
Q 43.203125 33.40625 39.296875 38.5 
Q 35.40625 43.59375 28.59375 43.59375 
Q 22 43.59375 18 38.5 
Q 14 33.40625 14 25.203125 
Q 14 17 18 11.890625 
Q 22 6.796875 28.59375 6.796875 
z
" id="Apercu-64"/>
     </defs>
     <g style="opacity:0.75;" transform="translate(6039.58375 238.511563)scale(0.14 -0.14)">
      <use xlink:href="#Apercu-70"/>
      <use x="60.099991" xlink:href="#Apercu-72"/>
      <use x="101.399979" xlink:href="#Apercu-65"/>
      <use x="157.399963" xlink:href="#Apercu-64"/>
     </g>
    </g>
    <g id="line2d_30">
     <path d="M 6000.38375 253.38 
L 6028.38375 253.38 
" style="fill:none;stroke:#b73779;stroke-width:3;"/>
    </g>
    <g id="line2d_31"/>
    <g id="text_19">
     <!-- actual -->
     <defs>
      <path d="M 14.203125 14.5 
Q 14.203125 10.90625 16.34375 8.84375 
Q 18.5 6.796875 22.5 6.796875 
Q 28.203125 6.796875 32.390625 10.546875 
Q 36.59375 14.296875 36.59375 22.203125 
L 36.59375 23.40625 
L 27.59375 23.40625 
Q 21.203125 23.40625 17.703125 21.09375 
Q 14.203125 18.796875 14.203125 14.5 
z
M 45 32.203125 
L 45 0 
L 38.40625 0 
L 37 7.09375 
Q 31.5 -0.796875 21.203125 -0.796875 
Q 14.40625 -0.796875 10 3 
Q 5.59375 6.796875 5.59375 14.5 
Q 5.59375 22.5 11.6875 26.75 
Q 17.796875 31 28.40625 31 
L 36.59375 31 
L 36.59375 33.203125 
Q 36.59375 43.59375 25.59375 43.59375 
Q 21.59375 43.59375 18.75 41.5 
Q 15.90625 39.40625 15.09375 35.703125 
L 7.703125 37.40625 
Q 8.703125 43.796875 13.59375 47.5 
Q 18.5 51.203125 25.59375 51.203125 
Q 34.40625 51.203125 39.703125 46.5 
Q 45 41.796875 45 32.203125 
z
" id="Apercu-61"/>
      <path d="M 42.09375 16.09375 
L 49.40625 13.09375 
Q 43.296875 -0.796875 28.296875 -0.796875 
Q 17.296875 -0.796875 11.34375 6.75 
Q 5.40625 14.296875 5.40625 25.1875 
Q 5.40625 36.09375 11.34375 43.640625 
Q 17.296875 51.203125 28.296875 51.203125 
Q 43.296875 51.203125 49.40625 37.296875 
L 42.09375 34.296875 
Q 38.09375 43.59375 28.296875 43.59375 
Q 21.296875 43.59375 17.640625 38.4375 
Q 14 33.296875 14 25.1875 
Q 14 17.09375 17.640625 11.9375 
Q 21.296875 6.796875 28.296875 6.796875 
Q 38.09375 6.796875 42.09375 16.09375 
z
" id="Apercu-63"/>
      <path d="M 2.5 42.796875 
L 2.5 50.40625 
L 11.203125 50.40625 
L 11.203125 65.5 
L 19.59375 70.796875 
L 19.59375 50.40625 
L 32.796875 50.40625 
L 32.796875 42.796875 
L 19.59375 42.796875 
L 19.59375 15.09375 
Q 19.59375 11.09375 21.34375 8.9375 
Q 23.09375 6.796875 26.296875 6.796875 
Q 29.59375 6.796875 32 8.40625 
L 34 1.09375 
Q 30.703125 -0.796875 25.796875 -0.796875 
Q 19.09375 -0.796875 15.140625 3.390625 
Q 11.203125 7.59375 11.203125 15.796875 
L 11.203125 42.796875 
z
" id="Apercu-74"/>
      <path d="M 8.59375 14.90625 
L 8.59375 50.40625 
L 17 50.40625 
L 17 17.09375 
Q 17 6.796875 25.703125 6.796875 
Q 31.59375 6.796875 35.84375 13 
Q 40.09375 19.203125 40.09375 29.296875 
L 40.09375 50.40625 
L 48.5 50.40625 
L 48.5 0 
L 40.09375 0 
L 40.09375 9.296875 
Q 34.40625 -0.796875 23.40625 -0.796875 
Q 16.5 -0.796875 12.546875 3.296875 
Q 8.59375 7.40625 8.59375 14.90625 
z
" id="Apercu-75"/>
      <path d="M 9 70.796875 
L 17.40625 70.796875 
L 17.40625 0 
L 9 0 
z
" id="Apercu-6c"/>
     </defs>
     <g style="opacity:0.75;" transform="translate(6039.58375 258.28)scale(0.14 -0.14)">
      <use xlink:href="#Apercu-61"/>
      <use x="51.799988" xlink:href="#Apercu-63"/>
      <use x="105.615601" xlink:href="#Apercu-74"/>
      <use x="143.399963" xlink:href="#Apercu-75"/>
      <use x="201.09996" xlink:href="#Apercu-61"/>
      <use x="252.899948" xlink:href="#Apercu-6c"/>
     </g>
    </g>
   </g>
  </g>
 </g>
 <defs>
  <clipPath id="p3bb0336f0d">
   <rect height="964.8" width="5313.6" x="777.6" y="216"/>
  </clipPath>
 </defs>
</svg>
