<?xml version="1.0" encoding="utf-8" standalone="no"?>
<!DOCTYPE svg PUBLIC "-//W3C//DTD SVG 1.1//EN"
  "http://www.w3.org/Graphics/SVG/1.1/DTD/svg11.dtd">
<!-- Created with matplotlib (http://matplotlib.org/) -->
<svg height="1440pt" version="1.1" viewBox="0 0 6480 1440" width="6480pt" xmlns="http://www.w3.org/2000/svg" xmlns:xlink="http://www.w3.org/1999/xlink">
 <defs>
  <style type="text/css">
*{stroke-linecap:butt;stroke-linejoin:round;}
  </style>
 </defs>
 <g id="figure_1">
  <g id="patch_1">
   <path d="M 0 1440 
L 6480 1440 
L 6480 0 
L 0 0 
z
" style="fill:#f0f0f0;"/>
  </g>
  <g id="axes_1">
   <g id="patch_2">
    <path d="M 777.6 1180.8 
L 6091.2 1180.8 
L 6091.2 216 
L 777.6 216 
z
" style="fill:#f0f0f0;"/>
   </g>
   <g id="matplotlib.axis_1">
    <g id="xtick_1">
     <g id="line2d_1">
      <path clip-path="url(#p4c1036095c)" d="M 777.6 1180.8 
L 777.6 216 
" style="fill:none;stroke:#b0b0b0;stroke-linecap:square;stroke-width:0.8;"/>
     </g>
     <g id="line2d_2">
      <defs>
       <path d="M 0 0 
L 0 3.5 
" id="md3f00a6a46" style="stroke:#000000;stroke-width:0.8;"/>
      </defs>
      <g>
       <use style="stroke:#000000;stroke-width:0.8;" x="777.6" xlink:href="#md3f00a6a46" y="1180.8"/>
      </g>
     </g>
     <g id="text_1">
      <!-- 0 -->
      <defs>
       <path d="M 48.203125 52.59375 
L 48.203125 17.40625 
Q 48.203125 9.703125 42.953125 4.34375 
Q 37.703125 -1 29.890625 -1 
Q 22.09375 -1 16.9375 4.390625 
Q 11.796875 9.796875 11.796875 17.5 
L 11.796875 52.59375 
Q 11.796875 60.296875 16.9375 65.640625 
Q 22.09375 71 29.890625 71 
Q 37.703125 71 42.953125 65.640625 
Q 48.203125 60.296875 48.203125 52.59375 
z
M 39.90625 17.296875 
L 39.90625 52.5 
Q 39.90625 56.90625 37 60 
Q 34.09375 63.09375 29.90625 63.09375 
Q 25.796875 63.09375 22.890625 60 
Q 20 56.90625 20 52.5 
L 20 17.40625 
Q 20 13 22.890625 9.953125 
Q 25.796875 6.90625 30 6.90625 
Q 34.09375 6.90625 37 9.90625 
Q 39.90625 12.90625 39.90625 17.296875 
z
" id="DecimaMonoPro-30"/>
      </defs>
      <g style="fill:#303030;" transform="translate(773.4 1197.613125)scale(0.14 -0.14)">
       <use xlink:href="#DecimaMonoPro-30"/>
      </g>
     </g>
    </g>
    <g id="xtick_2">
     <g id="line2d_3">
      <path clip-path="url(#p4c1036095c)" d="M 1844.587952 1180.8 
L 1844.587952 216 
" style="fill:none;stroke:#b0b0b0;stroke-linecap:square;stroke-width:0.8;"/>
     </g>
     <g id="line2d_4">
      <g>
       <use style="stroke:#000000;stroke-width:0.8;" x="1844.587952" xlink:href="#md3f00a6a46" y="1180.8"/>
      </g>
     </g>
     <g id="text_2">
      <!-- 50 -->
      <defs>
       <path d="M 21.90625 35.59375 
Q 21.09375 34.40625 19.796875 34.40625 
Q 19.40625 34.40625 18.203125 34.796875 
L 14.796875 35.796875 
Q 13.203125 36.296875 13.40625 38.5 
L 15.90625 67.703125 
Q 16.09375 70 18.09375 70 
L 44.40625 70 
Q 46.59375 70 46.59375 67.703125 
L 46.59375 64.40625 
Q 46.59375 62.09375 44.40625 62.09375 
L 24.09375 62.09375 
L 22.40625 44.796875 
Q 25.203125 47.203125 30.703125 47.203125 
Q 38.40625 47.203125 43.703125 42 
Q 49 36.796875 49 28.90625 
L 49 17.5 
Q 49 9.796875 43.5 4.390625 
Q 38 -1 30.09375 -1 
Q 21.90625 -1 16.453125 4.34375 
Q 11 9.703125 11 17.40625 
Q 11 18.203125 11.59375 18.796875 
Q 12.203125 19.40625 13.296875 19.40625 
L 17.09375 19.40625 
Q 18.203125 19.40625 18.796875 18.796875 
Q 19.40625 18.203125 19.40625 17.40625 
Q 19.40625 13 22.5 9.953125 
Q 25.59375 6.90625 30.09375 6.90625 
Q 34.5 6.90625 37.546875 9.953125 
Q 40.59375 13 40.59375 17.40625 
L 40.59375 28.796875 
Q 40.59375 33.203125 37.5 36.25 
Q 34.40625 39.296875 29.796875 39.296875 
Q 27.703125 39.296875 25.796875 38.4375 
Q 23.90625 37.59375 23.09375 36.890625 
Q 22.296875 36.203125 21.90625 35.59375 
z
" id="DecimaMonoPro-35"/>
      </defs>
      <g style="fill:#303030;" transform="translate(1836.187952 1197.613125)scale(0.14 -0.14)">
       <use xlink:href="#DecimaMonoPro-35"/>
       <use x="59.999985" xlink:href="#DecimaMonoPro-30"/>
      </g>
     </g>
    </g>
    <g id="xtick_3">
     <g id="line2d_5">
      <path clip-path="url(#p4c1036095c)" d="M 2911.575904 1180.8 
L 2911.575904 216 
" style="fill:none;stroke:#b0b0b0;stroke-linecap:square;stroke-width:0.8;"/>
     </g>
     <g id="line2d_6">
      <g>
       <use style="stroke:#000000;stroke-width:0.8;" x="2911.575904" xlink:href="#md3f00a6a46" y="1180.8"/>
      </g>
     </g>
     <g id="text_3">
      <!-- 100 -->
      <defs>
       <path d="M 13.90625 68.203125 
L 25.203125 70 
L 32.296875 70 
Q 33 70 33.546875 69.5 
Q 34.09375 69 34.09375 68.203125 
L 34.09375 7.703125 
L 47.296875 7.703125 
Q 48 7.703125 48.546875 7.140625 
Q 49.09375 6.59375 49.09375 5.90625 
L 49.09375 1.796875 
Q 49.09375 1 48.546875 0.5 
Q 48 0 47.296875 0 
L 12.59375 0 
Q 11.796875 0 11.296875 0.5 
Q 10.796875 1 10.796875 1.796875 
L 10.796875 5.90625 
Q 10.796875 6.59375 11.296875 7.140625 
Q 11.796875 7.703125 12.59375 7.703125 
L 25.703125 7.703125 
L 25.703125 62.09375 
L 14.703125 60.40625 
L 14.40625 60.40625 
Q 14 60.296875 13.5 60.296875 
Q 12.09375 60.296875 12.09375 62.09375 
L 12.09375 66.296875 
Q 12.09375 67.796875 13.90625 68.203125 
z
" id="DecimaMonoPro-31"/>
      </defs>
      <g style="fill:#303030;" transform="translate(2898.975904 1197.613125)scale(0.14 -0.14)">
       <use xlink:href="#DecimaMonoPro-31"/>
       <use x="59.999985" xlink:href="#DecimaMonoPro-30"/>
       <use x="119.999969" xlink:href="#DecimaMonoPro-30"/>
      </g>
     </g>
    </g>
    <g id="xtick_4">
     <g id="line2d_7">
      <path clip-path="url(#p4c1036095c)" d="M 3978.563855 1180.8 
L 3978.563855 216 
" style="fill:none;stroke:#b0b0b0;stroke-linecap:square;stroke-width:0.8;"/>
     </g>
     <g id="line2d_8">
      <g>
       <use style="stroke:#000000;stroke-width:0.8;" x="3978.563855" xlink:href="#md3f00a6a46" y="1180.8"/>
      </g>
     </g>
     <g id="text_4">
      <!-- 150 -->
      <g style="fill:#303030;" transform="translate(3965.963855 1197.613125)scale(0.14 -0.14)">
       <use xlink:href="#DecimaMonoPro-31"/>
       <use x="59.999985" xlink:href="#DecimaMonoPro-35"/>
       <use x="119.999969" xlink:href="#DecimaMonoPro-30"/>
      </g>
     </g>
    </g>
    <g id="xtick_5">
     <g id="line2d_9">
      <path clip-path="url(#p4c1036095c)" d="M 5045.551807 1180.8 
L 5045.551807 216 
" style="fill:none;stroke:#b0b0b0;stroke-linecap:square;stroke-width:0.8;"/>
     </g>
     <g id="line2d_10">
      <g>
       <use style="stroke:#000000;stroke-width:0.8;" x="5045.551807" xlink:href="#md3f00a6a46" y="1180.8"/>
      </g>
     </g>
     <g id="text_5">
      <!-- 200 -->
      <defs>
       <path d="M 11.703125 53 
Q 11.703125 59.703125 17.203125 65.34375 
Q 22.703125 71 30.59375 71 
Q 38.40625 71 43.796875 65.75 
Q 49.203125 60.5 49.203125 52.703125 
Q 49.203125 46.90625 46.09375 41.75 
Q 43 36.59375 38.59375 32.84375 
Q 34.203125 29.09375 29.796875 25.4375 
Q 25.40625 21.796875 22.296875 17.296875 
Q 19.203125 12.796875 19.203125 7.796875 
L 47.40625 7.796875 
Q 48.203125 7.796875 48.703125 7.296875 
Q 49.203125 6.796875 49.203125 6 
L 49.203125 1.796875 
Q 49.203125 1 48.703125 0.5 
Q 48.203125 0 47.40625 0 
L 12.59375 0 
Q 11.796875 0 11.296875 0.5 
Q 10.796875 1 10.796875 1.796875 
L 10.796875 7.296875 
Q 10.796875 13.90625 13.890625 19.453125 
Q 17 25 21.390625 28.890625 
Q 25.796875 32.796875 30.1875 36.390625 
Q 34.59375 40 37.6875 44.296875 
Q 40.796875 48.59375 40.796875 53.296875 
Q 40.796875 57.40625 37.75 60.25 
Q 34.703125 63.09375 30.5 63.09375 
Q 26.09375 63.09375 23.1875 59.6875 
Q 20.296875 56.296875 20.09375 53 
Q 19.90625 51 17.796875 51 
L 14 51 
Q 12.90625 51 12.296875 51.59375 
Q 11.703125 52.203125 11.703125 53 
z
" id="DecimaMonoPro-32"/>
      </defs>
      <g style="fill:#303030;" transform="translate(5032.951807 1197.613125)scale(0.14 -0.14)">
       <use xlink:href="#DecimaMonoPro-32"/>
       <use x="59.999985" xlink:href="#DecimaMonoPro-30"/>
       <use x="119.999969" xlink:href="#DecimaMonoPro-30"/>
      </g>
     </g>
    </g>
    <g id="text_6">
     <!-- x -->
     <defs>
      <path d="M 3.59375 50.40625 
L 13.09375 50.40625 
L 22.90625 34.40625 
L 32.703125 50.40625 
L 42.203125 50.40625 
L 27.59375 26.59375 
L 44 0 
L 34.5 0 
L 22.90625 18.90625 
L 11.296875 0 
L 1.796875 0 
L 18.203125 26.59375 
z
" id="Apercu-78"/>
     </defs>
     <g style="opacity:0.75;" transform="translate(3431.194219 1214.044688)scale(0.14 -0.14)">
      <use xlink:href="#Apercu-78"/>
     </g>
    </g>
   </g>
   <g id="matplotlib.axis_2">
    <g id="ytick_1">
     <g id="line2d_11">
      <path clip-path="url(#p4c1036095c)" d="M 777.6 1069.567851 
L 6091.2 1069.567851 
" style="fill:none;stroke:#b0b0b0;stroke-linecap:square;stroke-width:0.8;"/>
     </g>
     <g id="line2d_12">
      <defs>
       <path d="M 0 0 
L -3.5 0 
" id="m25bccb5a87" style="stroke:#000000;stroke-width:0.8;"/>
      </defs>
      <g>
       <use style="stroke:#000000;stroke-width:0.8;" x="777.6" xlink:href="#m25bccb5a87" y="1069.567851"/>
      </g>
     </g>
     <g id="text_7">
      <!-- −3 -->
      <defs>
       <path d="M 50.203125 25.296875 
L 9.796875 25.296875 
Q 9 25.296875 8.5 25.84375 
Q 8 26.40625 8 27.09375 
L 8 31.296875 
Q 8 32 8.5 32.546875 
Q 9 33.09375 9.796875 33.09375 
L 50.203125 33.09375 
Q 51 33.09375 51.5 32.546875 
Q 52 32 52 31.296875 
L 52 27.09375 
Q 52 26.40625 51.5 25.84375 
Q 51 25.296875 50.203125 25.296875 
z
" id="DecimaMonoPro-2212"/>
       <path d="M 46.203125 61.09375 
L 35.40625 47.09375 
Q 40.796875 46.40625 44.890625 41.953125 
Q 49 37.5 49 31.5 
L 49 17.5 
Q 49 9.796875 43.5 4.390625 
Q 38 -1 30 -1 
Q 21.796875 -1 16.34375 4.34375 
Q 10.90625 9.703125 10.90625 17.40625 
Q 10.90625 18.203125 11.5 18.796875 
Q 12.09375 19.40625 13.203125 19.40625 
L 17 19.40625 
Q 19.09375 19.40625 19.296875 17.40625 
Q 19.296875 13 22.390625 9.953125 
Q 25.5 6.90625 30 6.90625 
Q 34.40625 6.90625 37.5 9.953125 
Q 40.59375 13 40.59375 17.40625 
L 40.59375 31.40625 
Q 40.59375 34.59375 38.296875 36.9375 
Q 36 39.296875 32.703125 39.296875 
L 27.40625 39.296875 
Q 25.203125 39.296875 25.203125 41.59375 
L 25.203125 45 
Q 25.203125 46.703125 26.296875 48.203125 
L 36.59375 62.09375 
L 16.90625 62.09375 
Q 14.703125 62.09375 14.703125 64.40625 
L 14.703125 67.703125 
Q 14.703125 70 16.90625 70 
L 45.09375 70 
Q 47.296875 70 47.296875 67.703125 
L 47.296875 64.296875 
Q 47.296875 62.59375 46.203125 61.09375 
z
" id="DecimaMonoPro-33"/>
      </defs>
      <g style="fill:#303030;" transform="translate(753.8 1074.474414)scale(0.14 -0.14)">
       <use xlink:href="#DecimaMonoPro-2212"/>
       <use x="59.999985" xlink:href="#DecimaMonoPro-33"/>
      </g>
     </g>
    </g>
    <g id="ytick_2">
     <g id="line2d_13">
      <path clip-path="url(#p4c1036095c)" d="M 777.6 951.361529 
L 6091.2 951.361529 
" style="fill:none;stroke:#b0b0b0;stroke-linecap:square;stroke-width:0.8;"/>
     </g>
     <g id="line2d_14">
      <g>
       <use style="stroke:#000000;stroke-width:0.8;" x="777.6" xlink:href="#m25bccb5a87" y="951.361529"/>
      </g>
     </g>
     <g id="text_8">
      <!-- −2 -->
      <g style="fill:#303030;" transform="translate(753.8 956.268092)scale(0.14 -0.14)">
       <use xlink:href="#DecimaMonoPro-2212"/>
       <use x="59.999985" xlink:href="#DecimaMonoPro-32"/>
      </g>
     </g>
    </g>
    <g id="ytick_3">
     <g id="line2d_15">
      <path clip-path="url(#p4c1036095c)" d="M 777.6 833.155207 
L 6091.2 833.155207 
" style="fill:none;stroke:#b0b0b0;stroke-linecap:square;stroke-width:0.8;"/>
     </g>
     <g id="line2d_16">
      <g>
       <use style="stroke:#000000;stroke-width:0.8;" x="777.6" xlink:href="#m25bccb5a87" y="833.155207"/>
      </g>
     </g>
     <g id="text_9">
      <!-- −1 -->
      <g style="fill:#303030;" transform="translate(753.8 838.06177)scale(0.14 -0.14)">
       <use xlink:href="#DecimaMonoPro-2212"/>
       <use x="59.999985" xlink:href="#DecimaMonoPro-31"/>
      </g>
     </g>
    </g>
    <g id="ytick_4">
     <g id="line2d_17">
      <path clip-path="url(#p4c1036095c)" d="M 777.6 714.948885 
L 6091.2 714.948885 
" style="fill:none;stroke:#b0b0b0;stroke-linecap:square;stroke-width:0.8;"/>
     </g>
     <g id="line2d_18">
      <g>
       <use style="stroke:#000000;stroke-width:0.8;" x="777.6" xlink:href="#m25bccb5a87" y="714.948885"/>
      </g>
     </g>
     <g id="text_10">
      <!-- 0 -->
      <g style="fill:#303030;" transform="translate(762.2 719.855448)scale(0.14 -0.14)">
       <use xlink:href="#DecimaMonoPro-30"/>
      </g>
     </g>
    </g>
    <g id="ytick_5">
     <g id="line2d_19">
      <path clip-path="url(#p4c1036095c)" d="M 777.6 596.742563 
L 6091.2 596.742563 
" style="fill:none;stroke:#b0b0b0;stroke-linecap:square;stroke-width:0.8;"/>
     </g>
     <g id="line2d_20">
      <g>
       <use style="stroke:#000000;stroke-width:0.8;" x="777.6" xlink:href="#m25bccb5a87" y="596.742563"/>
      </g>
     </g>
     <g id="text_11">
      <!-- 1 -->
      <g style="fill:#303030;" transform="translate(762.2 601.649126)scale(0.14 -0.14)">
       <use xlink:href="#DecimaMonoPro-31"/>
      </g>
     </g>
    </g>
    <g id="ytick_6">
     <g id="line2d_21">
      <path clip-path="url(#p4c1036095c)" d="M 777.6 478.536241 
L 6091.2 478.536241 
" style="fill:none;stroke:#b0b0b0;stroke-linecap:square;stroke-width:0.8;"/>
     </g>
     <g id="line2d_22">
      <g>
       <use style="stroke:#000000;stroke-width:0.8;" x="777.6" xlink:href="#m25bccb5a87" y="478.536241"/>
      </g>
     </g>
     <g id="text_12">
      <!-- 2 -->
      <g style="fill:#303030;" transform="translate(762.2 483.442804)scale(0.14 -0.14)">
       <use xlink:href="#DecimaMonoPro-32"/>
      </g>
     </g>
    </g>
    <g id="ytick_7">
     <g id="line2d_23">
      <path clip-path="url(#p4c1036095c)" d="M 777.6 360.329919 
L 6091.2 360.329919 
" style="fill:none;stroke:#b0b0b0;stroke-linecap:square;stroke-width:0.8;"/>
     </g>
     <g id="line2d_24">
      <g>
       <use style="stroke:#000000;stroke-width:0.8;" x="777.6" xlink:href="#m25bccb5a87" y="360.329919"/>
      </g>
     </g>
     <g id="text_13">
      <!-- 3 -->
      <g style="fill:#303030;" transform="translate(762.2 365.236482)scale(0.14 -0.14)">
       <use xlink:href="#DecimaMonoPro-33"/>
      </g>
     </g>
    </g>
    <g id="ytick_8">
     <g id="line2d_25">
      <path clip-path="url(#p4c1036095c)" d="M 777.6 242.123597 
L 6091.2 242.123597 
" style="fill:none;stroke:#b0b0b0;stroke-linecap:square;stroke-width:0.8;"/>
     </g>
     <g id="line2d_26">
      <g>
       <use style="stroke:#000000;stroke-width:0.8;" x="777.6" xlink:href="#m25bccb5a87" y="242.123597"/>
      </g>
     </g>
     <g id="text_14">
      <!-- 4 -->
      <defs>
       <path d="M 40.09375 67.5 
L 19.5 22.90625 
L 35.796875 22.90625 
L 35.796875 38.90625 
Q 35.796875 39.703125 36.390625 40.296875 
Q 37 40.90625 38.09375 40.90625 
L 42.203125 40.90625 
Q 43 40.90625 43.59375 40.25 
Q 44.203125 39.59375 44.203125 38.90625 
L 44.203125 22.90625 
L 48 22.90625 
Q 48.796875 22.90625 49.390625 22.296875 
Q 50 21.703125 50 20.59375 
L 50 17.40625 
Q 50 16.296875 49.390625 15.6875 
Q 48.796875 15.09375 48 15.09375 
L 44.203125 15.09375 
L 44.203125 2 
Q 44.203125 1.203125 43.59375 0.59375 
Q 43 0 42.203125 0 
L 38.09375 0 
Q 37 0 36.390625 0.59375 
Q 35.796875 1.203125 35.796875 2 
L 35.796875 15.09375 
L 12.09375 15.09375 
Q 9.90625 15.09375 9.90625 17.40625 
L 9.90625 21.296875 
Q 9.90625 22.5 11 24.703125 
L 31.296875 68 
Q 32.296875 70 34 70 
L 38.796875 70 
Q 40.5 70 40.5 68.796875 
Q 40.5 68.5 40.09375 67.5 
z
" id="DecimaMonoPro-34"/>
      </defs>
      <g style="fill:#303030;" transform="translate(762.2 247.03016)scale(0.14 -0.14)">
       <use xlink:href="#DecimaMonoPro-34"/>
      </g>
     </g>
    </g>
    <g id="text_15">
     <!-- Predictions v. Input. -->
     <defs>
      <path d="M 34.09375 30 
L 18.5 30 
L 18.5 0 
L 9.703125 0 
L 9.703125 70 
L 34.09375 70 
Q 43.90625 70 49.40625 64.59375 
Q 54.90625 59.203125 54.90625 50 
Q 54.90625 40.796875 49.40625 35.390625 
Q 43.90625 30 34.09375 30 
z
M 34.59375 38.40625 
Q 40 38.40625 42.890625 41.40625 
Q 45.796875 44.40625 45.796875 50 
Q 45.796875 55.59375 42.890625 58.59375 
Q 40 61.59375 34.59375 61.59375 
L 18.5 61.59375 
L 18.5 38.40625 
z
" id="Apercu-50"/>
      <path d="M 39.296875 49.703125 
L 37.59375 42.203125 
Q 34.796875 43.59375 31.703125 43.59375 
Q 26 43.59375 21.796875 37.140625 
Q 17.59375 30.703125 17.59375 19.09375 
L 17.59375 0 
L 9.203125 0 
L 9.203125 50.40625 
L 17.59375 50.40625 
L 17.59375 41.796875 
Q 19.796875 46 24 48.59375 
Q 28.203125 51.203125 32.40625 51.203125 
Q 36.5 51.203125 39.296875 49.703125 
z
" id="Apercu-72"/>
      <path d="M 51 27.296875 
L 51 23.40625 
L 14 23.40625 
Q 14.40625 16 18.046875 11.390625 
Q 21.703125 6.796875 28.203125 6.796875 
Q 33.5 6.796875 36.75 9.140625 
Q 40 11.5 42.203125 16.40625 
L 49.59375 13.203125 
Q 46.09375 5.796875 41.046875 2.5 
Q 36 -0.796875 28.203125 -0.796875 
Q 17.296875 -0.796875 11.34375 6.75 
Q 5.40625 14.296875 5.40625 25.1875 
Q 5.40625 36.09375 11.34375 43.640625 
Q 17.296875 51.203125 28.203125 51.203125 
Q 38.90625 51.203125 44.953125 44.25 
Q 51 37.296875 51 27.296875 
z
M 28.203125 43.59375 
Q 22.59375 43.59375 19.140625 40.1875 
Q 15.703125 36.796875 14.5 31 
L 42.203125 31 
Q 41 36.703125 37.5 40.140625 
Q 34 43.59375 28.203125 43.59375 
z
" id="Apercu-65"/>
      <path d="M 27.796875 51.203125 
Q 32.296875 51.203125 36.6875 49 
Q 41.09375 46.796875 42.5 44.40625 
L 42.5 70.796875 
L 50.90625 70.796875 
L 50.90625 0 
L 42.5 0 
L 42.5 6.203125 
Q 40.59375 3.296875 36.4375 1.25 
Q 32.296875 -0.796875 27.796875 -0.796875 
Q 17 -0.796875 11.203125 6.34375 
Q 5.40625 13.5 5.40625 25.203125 
Q 5.40625 36.90625 11.203125 44.046875 
Q 17 51.203125 27.796875 51.203125 
z
M 28.59375 6.796875 
Q 35.40625 6.796875 39.296875 11.890625 
Q 43.203125 17 43.203125 25.203125 
Q 43.203125 33.40625 39.296875 38.5 
Q 35.40625 43.59375 28.59375 43.59375 
Q 22 43.59375 18 38.5 
Q 14 33.40625 14 25.203125 
Q 14 17 18 11.890625 
Q 22 6.796875 28.59375 6.796875 
z
" id="Apercu-64"/>
      <path d="M 9.296875 50.40625 
L 17.703125 50.40625 
L 17.703125 0 
L 9.296875 0 
z
M 7.203125 64.40625 
Q 7.203125 67.09375 9 68.9375 
Q 10.796875 70.796875 13.5 70.796875 
Q 16.203125 70.796875 18 68.9375 
Q 19.796875 67.09375 19.796875 64.40625 
Q 19.796875 61.796875 18 60 
Q 16.203125 58.203125 13.5 58.203125 
Q 10.796875 58.203125 9 60 
Q 7.203125 61.796875 7.203125 64.40625 
z
" id="Apercu-69"/>
      <path d="M 42.09375 16.09375 
L 49.40625 13.09375 
Q 43.296875 -0.796875 28.296875 -0.796875 
Q 17.296875 -0.796875 11.34375 6.75 
Q 5.40625 14.296875 5.40625 25.1875 
Q 5.40625 36.09375 11.34375 43.640625 
Q 17.296875 51.203125 28.296875 51.203125 
Q 43.296875 51.203125 49.40625 37.296875 
L 42.09375 34.296875 
Q 38.09375 43.59375 28.296875 43.59375 
Q 21.296875 43.59375 17.640625 38.4375 
Q 14 33.296875 14 25.1875 
Q 14 17.09375 17.640625 11.9375 
Q 21.296875 6.796875 28.296875 6.796875 
Q 38.09375 6.796875 42.09375 16.09375 
z
" id="Apercu-63"/>
      <path d="M 2.5 42.796875 
L 2.5 50.40625 
L 11.203125 50.40625 
L 11.203125 65.5 
L 19.59375 70.796875 
L 19.59375 50.40625 
L 32.796875 50.40625 
L 32.796875 42.796875 
L 19.59375 42.796875 
L 19.59375 15.09375 
Q 19.59375 11.09375 21.34375 8.9375 
Q 23.09375 6.796875 26.296875 6.796875 
Q 29.59375 6.796875 32 8.40625 
L 34 1.09375 
Q 30.703125 -0.796875 25.796875 -0.796875 
Q 19.09375 -0.796875 15.140625 3.390625 
Q 11.203125 7.59375 11.203125 15.796875 
L 11.203125 42.796875 
z
" id="Apercu-74"/>
      <path d="M 12 6.796875 
Q 5.40625 14.5 5.40625 25.203125 
Q 5.40625 35.90625 12.046875 43.546875 
Q 18.703125 51.203125 29.59375 51.203125 
Q 40.5 51.203125 47.140625 43.546875 
Q 53.796875 35.90625 53.796875 25.203125 
Q 53.796875 14.5 47.140625 6.84375 
Q 40.5 -0.796875 29.59375 -0.796875 
Q 18.703125 -0.796875 12 6.796875 
z
M 18.09375 38.09375 
Q 14 32.703125 14 25.203125 
Q 14 17.703125 18.140625 12.25 
Q 22.296875 6.796875 29.59375 6.796875 
Q 36.90625 6.796875 41.046875 12.25 
Q 45.203125 17.703125 45.203125 25.203125 
Q 45.203125 32.703125 41.046875 38.140625 
Q 36.90625 43.59375 29.59375 43.59375 
Q 22.296875 43.59375 18.09375 38.09375 
z
" id="Apercu-6f"/>
      <path d="M 49.09375 35.5 
L 49.09375 0 
L 40.703125 0 
L 40.703125 33.296875 
Q 40.703125 43.59375 32 43.59375 
Q 26.09375 43.59375 21.84375 37.390625 
Q 17.59375 31.203125 17.59375 21.09375 
L 17.59375 0 
L 9.203125 0 
L 9.203125 50.40625 
L 17.59375 50.40625 
L 17.59375 41.09375 
Q 23.296875 51.203125 34.296875 51.203125 
Q 41.203125 51.203125 45.140625 47.09375 
Q 49.09375 43 49.09375 35.5 
z
" id="Apercu-6e"/>
      <path d="M 23.59375 51.203125 
Q 32.796875 51.203125 38.203125 43.5 
L 32.5 38.59375 
Q 27.90625 43.59375 23.296875 43.59375 
Q 20.703125 43.59375 18.953125 41.890625 
Q 17.203125 40.203125 17.203125 37.203125 
Q 17.203125 34.703125 19.59375 32.890625 
Q 22 31.09375 25.453125 29.75 
Q 28.90625 28.40625 32.34375 26.796875 
Q 35.796875 25.203125 38.1875 22.25 
Q 40.59375 19.296875 40.59375 15.203125 
Q 40.59375 7.703125 36.09375 3.453125 
Q 31.59375 -0.796875 23.90625 -0.796875 
Q 16.796875 -0.796875 12.046875 3.09375 
Q 7.296875 7 5.09375 12.796875 
L 12.203125 16.703125 
Q 16.203125 6.796875 23.90625 6.796875 
Q 32 6.796875 32 14.703125 
Q 32 17.203125 29.59375 19 
Q 27.203125 20.796875 23.796875 22.046875 
Q 20.40625 23.296875 17 24.890625 
Q 13.59375 26.5 11.1875 29.640625 
Q 8.796875 32.796875 8.796875 37.296875 
Q 8.796875 43.296875 12.84375 47.25 
Q 16.90625 51.203125 23.59375 51.203125 
z
" id="Apercu-73"/>
      <path id="Apercu-20"/>
      <path d="M 35.09375 50.40625 
L 43.703125 50.40625 
L 27.09375 0 
L 18.5 0 
L 1.90625 50.40625 
L 10.5 50.40625 
L 22.796875 10.703125 
z
" id="Apercu-76"/>
      <path d="M 9 5.90625 
Q 9 8.5 10.796875 10.34375 
Q 12.59375 12.203125 15.296875 12.203125 
Q 17.90625 12.203125 19.75 10.34375 
Q 21.59375 8.5 21.59375 5.90625 
Q 21.59375 3.203125 19.75 1.390625 
Q 17.90625 -0.40625 15.296875 -0.40625 
Q 12.59375 -0.40625 10.796875 1.390625 
Q 9 3.203125 9 5.90625 
z
" id="Apercu-2e"/>
      <path d="M 9.703125 70 
L 18.5 70 
L 18.5 0 
L 9.703125 0 
z
" id="Apercu-49"/>
      <path d="M 32.296875 -0.796875 
Q 27.796875 -0.796875 23.390625 1.390625 
Q 19 3.59375 17.59375 6 
L 17.59375 -20.40625 
L 9.203125 -20.40625 
L 9.203125 50.40625 
L 17.59375 50.40625 
L 17.59375 44.203125 
Q 19.5 47.09375 23.640625 49.140625 
Q 27.796875 51.203125 32.296875 51.203125 
Q 43.09375 51.203125 48.890625 44.046875 
Q 54.703125 36.90625 54.703125 25.203125 
Q 54.703125 13.5 48.890625 6.34375 
Q 43.09375 -0.796875 32.296875 -0.796875 
z
M 31.5 43.59375 
Q 24.703125 43.59375 20.796875 38.5 
Q 16.90625 33.40625 16.90625 25.203125 
Q 16.90625 17 20.796875 11.890625 
Q 24.703125 6.796875 31.5 6.796875 
Q 38.09375 6.796875 42.09375 11.890625 
Q 46.09375 17 46.09375 25.203125 
Q 46.09375 33.40625 42.09375 38.5 
Q 38.09375 43.59375 31.5 43.59375 
z
" id="Apercu-70"/>
      <path d="M 8.59375 14.90625 
L 8.59375 50.40625 
L 17 50.40625 
L 17 17.09375 
Q 17 6.796875 25.703125 6.796875 
Q 31.59375 6.796875 35.84375 13 
Q 40.09375 19.203125 40.09375 29.296875 
L 40.09375 50.40625 
L 48.5 50.40625 
L 48.5 0 
L 40.09375 0 
L 40.09375 9.296875 
Q 34.40625 -0.796875 23.40625 -0.796875 
Q 16.5 -0.796875 12.546875 3.296875 
Q 8.59375 7.40625 8.59375 14.90625 
z
" id="Apercu-75"/>
     </defs>
     <g style="opacity:0.75;" transform="translate(746.943125 763.235312)rotate(-90)scale(0.14 -0.14)">
      <use xlink:href="#Apercu-50"/>
      <use x="58.399994" xlink:href="#Apercu-72"/>
      <use x="99.699982" xlink:href="#Apercu-65"/>
      <use x="155.699966" xlink:href="#Apercu-64"/>
      <use x="215.768707" xlink:href="#Apercu-69"/>
      <use x="242.753067" xlink:href="#Apercu-63"/>
      <use x="296.56868" xlink:href="#Apercu-74"/>
      <use x="334.368668" xlink:href="#Apercu-69"/>
      <use x="361.368652" xlink:href="#Apercu-6f"/>
      <use x="420.568649" xlink:href="#Apercu-6e"/>
      <use x="478.253021" xlink:href="#Apercu-73"/>
      <use x="524.353012" xlink:href="#Apercu-20"/>
      <use x="551.153" xlink:href="#Apercu-76"/>
      <use x="596.752991" xlink:href="#Apercu-2e"/>
      <use x="627.352982" xlink:href="#Apercu-20"/>
      <use x="654.152969" xlink:href="#Apercu-49"/>
      <use x="682.352966" xlink:href="#Apercu-6e"/>
      <use x="740.052963" xlink:href="#Apercu-70"/>
      <use x="800.152954" xlink:href="#Apercu-75"/>
      <use x="857.852951" xlink:href="#Apercu-74"/>
      <use x="895.652939" xlink:href="#Apercu-2e"/>
     </g>
    </g>
   </g>
   <g id="line2d_27">
    <path clip-path="url(#p4c1036095c)" d="M 777.6 688.824205 
L 798.939759 698.38879 
L 820.279518 701.412078 
L 841.619277 695.973214 
L 862.959036 738.198539 
L 884.298795 698.943837 
L 905.638554 693.956577 
L 926.978313 733.767824 
L 948.318072 691.683447 
L 969.657831 695.848268 
L 990.99759 735.111154 
L 1012.337349 708.32779 
L 1033.677108 700.42569 
L 1055.016867 736.963823 
L 1076.356627 730.999821 
L 1097.696386 696.151507 
L 1119.036145 739.820568 
L 1140.375904 733.947067 
L 1161.715663 691.369097 
L 1183.055422 737.419181 
L 1204.395181 701.509955 
L 1225.73494 695.520573 
L 1247.074699 691.077501 
L 1268.414458 699.775072 
L 1289.754217 737.115442 
L 1311.093976 691.849955 
L 1332.433735 743.137068 
L 1353.773494 695.202964 
L 1375.113253 740.50077 
L 1396.453012 695.082339 
L 1417.792771 695.740475 
L 1439.13253 690.225807 
L 1460.472289 696.01228 
L 1481.812048 695.957105 
L 1503.151807 686.174434 
L 1524.491566 696.716642 
L 1545.831325 688.412866 
L 1567.171084 701.436784 
L 1588.510843 697.617606 
L 1609.850602 696.467872 
L 1631.190361 696.155104 
L 1652.53012 743.691581 
L 1673.86988 691.382878 
L 1695.209639 743.167967 
L 1716.549398 728.756982 
L 1737.889157 689.169734 
L 1759.228916 738.431177 
L 1780.568675 698.988945 
L 1801.908434 730.295309 
L 1823.248193 690.452688 
L 1844.587952 700.627749 
L 1865.927711 739.929168 
L 1887.26747 699.314919 
L 1908.607229 690.205262 
L 1929.946988 742.171709 
L 1951.286747 739.825294 
L 1972.626506 731.38306 
L 1993.966265 690.160596 
L 2015.306024 693.155154 
L 2036.645783 698.904482 
L 2057.985542 739.794254 
L 2079.325301 694.917695 
L 2100.66506 742.733902 
L 2122.004819 739.492778 
L 2143.344578 742.545526 
L 2164.684337 692.046552 
L 2186.024096 697.996961 
L 2207.363855 696.029077 
L 2228.703614 697.843163 
L 2250.043373 691.131455 
L 2271.383133 740.459893 
L 2292.722892 693.904409 
L 2314.062651 738.682656 
L 2335.40241 689.763951 
L 2356.742169 689.491374 
L 2378.081928 696.935293 
L 2399.421687 740.0185 
L 2420.761446 734.077685 
L 2442.101205 696.525173 
L 2463.440964 738.171515 
L 2484.780723 740.576219 
L 2506.120482 735.893565 
L 2527.460241 696.963921 
L 2548.8 734.898117 
L 2570.139759 738.598761 
L 2591.479518 738.763089 
L 2612.819277 734.351116 
L 2634.159036 743.078799 
L 2655.498795 700.775614 
L 2676.838554 698.506454 
L 2698.178313 693.457317 
L 2719.518072 698.544557 
L 2740.857831 695.755785 
L 2762.19759 741.830721 
L 2783.537349 694.796312 
L 2804.877108 693.681209 
L 2826.216867 742.545029 
L 2847.556627 693.361534 
L 2868.896386 740.371687 
L 2890.236145 695.557654 
L 2911.575904 691.145179 
L 2932.915663 698.584506 
L 2954.255422 701.612097 
L 2975.595181 737.064132 
L 2996.93494 688.113847 
L 3018.274699 697.589224 
L 3039.614458 699.548844 
L 3060.954217 686.529358 
L 3082.293976 697.144445 
L 3103.633735 702.699057 
L 3124.973494 697.362227 
L 3146.313253 687.775376 
L 3167.653012 743.350237 
L 3188.992771 730.533868 
L 3210.33253 695.898581 
L 3231.672289 696.61191 
L 3253.012048 691.871323 
L 3274.351807 734.029568 
L 3295.691566 685.639615 
L 3317.031325 741.262389 
L 3338.371084 736.830644 
L 3359.710843 688.084251 
L 3381.050602 744.962181 
L 3402.390361 733.603689 
L 3423.73012 697.366573 
L 3445.06988 696.090316 
L 3466.409639 693.874626 
L 3487.749398 737.877331 
L 3509.089157 734.586012 
L 3530.428916 700.267949 
L 3551.768675 734.577612 
L 3573.108434 731.139839 
L 3594.448193 690.502659 
L 3615.787952 702.198431 
L 3637.127711 698.019334 
L 3658.46747 739.538603 
L 3679.807229 742.5061 
L 3701.146988 686.440129 
L 3722.486747 691.088233 
L 3743.826506 695.170188 
L 3765.166265 693.252423 
L 3786.506024 698.706385 
L 3807.845783 744.269504 
L 3829.185542 689.981108 
L 3850.525301 696.426039 
L 3871.86506 696.592001 
L 3893.204819 737.830439 
L 3914.544578 744.770409 
L 3935.884337 692.290789 
L 3957.224096 692.42423 
L 3978.563855 694.252818 
L 3999.903614 697.172539 
L 4021.243373 740.202787 
L 4042.583133 730.488238 
L 4063.922892 729.384239 
L 4085.262651 685.550521 
L 4106.60241 742.414118 
L 4127.942169 728.973436 
L 4149.281928 702.217285 
L 4170.621687 703.023641 
L 4191.961446 692.19178 
L 4213.301205 731.343259 
L 4234.640964 689.203414 
L 4255.980723 700.88695 
L 4277.320482 738.65007 
L 4298.660241 737.158017 
L 4320 694.061839 
L 4341.339759 702.453688 
L 4362.679518 689.76025 
L 4384.019277 698.583789 
L 4405.359036 700.205105 
L 4426.698795 701.3486 
L 4448.038554 693.006813 
L 4469.378313 703.346348 
L 4490.718072 703.055176 
L 4512.057831 704.687011 
L 4533.39759 700.782458 
L 4554.737349 729.983631 
L 4576.077108 702.369268 
L 4597.416867 734.879155 
L 4618.756627 705.306621 
L 4640.096386 701.602005 
L 4661.436145 699.756234 
L 4682.775904 734.589149 
L 4704.115663 705.301518 
L 4725.455422 740.256287 
L 4746.795181 692.346023 
L 4768.13494 729.613669 
L 4789.474699 738.783127 
L 4810.814458 729.079902 
L 4832.154217 688.505102 
L 4853.493976 697.916403 
L 4874.833735 742.963555 
L 4896.173494 687.201476 
L 4917.513253 696.728739 
L 4938.853012 695.72047 
L 4960.192771 743.065907 
L 4981.53253 739.815486 
L 5002.872289 735.402442 
L 5024.212048 734.597689 
L 5045.551807 735.123474 
L 5066.891566 690.659634 
L 5088.231325 741.317188 
L 5109.571084 699.946866 
L 5130.910843 698.591407 
L 5152.250602 733.326434 
L 5173.590361 700.746096 
L 5194.93012 704.977722 
L 5216.26988 699.025546 
L 5237.609639 739.626554 
L 5258.949398 689.548647 
L 5280.289157 698.994143 
L 5301.628916 702.777718 
L 5322.968675 688.117667 
L 5344.308434 741.024424 
L 5365.648193 691.750087 
L 5386.987952 701.194108 
L 5408.327711 689.334137 
L 5429.66747 702.253989 
L 5451.007229 686.613577 
L 5472.346988 736.873151 
L 5493.686747 694.220768 
L 5515.026506 738.644148 
L 5536.366265 731.353604 
L 5557.706024 693.205118 
L 5579.045783 696.033693 
L 5600.385542 701.498367 
L 5621.725301 737.79027 
L 5643.06506 702.247566 
L 5664.404819 703.717591 
L 5685.744578 701.159488 
L 5707.084337 705.166505 
L 5728.424096 724.199064 
L 5749.763855 700.753712 
L 5771.103614 730.666757 
L 5792.443373 730.805881 
L 5813.783133 728.234923 
L 5835.122892 692.126515 
L 5856.462651 702.918567 
L 5877.80241 733.095566 
L 5899.142169 695.002457 
L 5920.481928 693.426986 
L 5941.821687 689.771414 
L 5963.161446 697.478195 
L 5984.501205 695.391065 
L 6005.840964 738.205914 
L 6027.180723 736.143651 
L 6048.520482 698.012798 
L 6069.860241 695.926418 
L 6091.2 741.006155 
L 6091.2 741.006155 
" style="fill:none;stroke:#000004;stroke-width:3;"/>
   </g>
   <g id="line2d_28">
    <path clip-path="url(#p4c1036095c)" d="M 777.6 993.915805 
L 798.939759 769.323793 
L 820.279518 976.184857 
L 841.619277 898.168684 
L 862.959036 1002.190247 
L 884.298795 441.892281 
L 905.638554 671.212546 
L 926.978313 641.660965 
L 948.318072 743.318402 
L 969.657831 602.652879 
L 990.99759 835.519333 
L 1012.337349 653.481598 
L 1033.677108 705.492379 
L 1055.016867 547.095908 
L 1076.356627 605.017006 
L 1097.696386 706.674443 
L 1119.036145 450.166724 
L 1140.375904 625.11208 
L 1161.715663 725.587454 
L 1183.055422 852.068219 
L 1204.395181 567.190983 
L 1225.73494 690.125557 
L 1247.074699 816.606322 
L 1268.414458 744.500466 
L 1289.754217 605.017006 
L 1311.093976 646.389218 
L 1332.433735 432.435776 
L 1353.773494 707.856506 
L 1375.113253 486.810684 
L 1396.453012 595.5605 
L 1417.792771 706.674443 
L 1439.13253 1041.198334 
L 1460.472289 730.315707 
L 1481.812048 716.130948 
L 1503.151807 1089.662926 
L 1524.491566 764.59554 
L 1545.831325 752.774908 
L 1567.171084 783.508552 
L 1588.510843 571.919235 
L 1609.850602 649.935408 
L 1631.190361 766.959667 
L 1652.53012 362.694046 
L 1673.86988 1066.021661 
L 1695.209639 534.093212 
L 1716.549398 621.565891 
L 1737.889157 755.139035 
L 1759.228916 765.777604 
L 1780.568675 651.117471 
L 1801.908434 719.677138 
L 1823.248193 957.271845 
L 1844.587952 742.136339 
L 1865.927711 911.17138 
L 1887.26747 740.954276 
L 1908.607229 896.986621 
L 1929.946988 639.296839 
L 1951.286747 342.598971 
L 1972.626506 745.682529 
L 1993.966265 465.533546 
L 2015.306024 1047.10865 
L 2036.645783 848.522029 
L 2057.985542 960.818035 
L 2079.325301 879.255673 
L 2100.66506 785.872678 
L 2122.004819 595.5605 
L 2143.344578 356.783729 
L 2164.684337 854.432345 
L 2186.024096 694.85381 
L 2207.363855 710.220632 
L 2228.703614 809.513943 
L 2250.043373 722.041264 
L 2271.383133 822.516638 
L 2292.722892 726.769517 
L 2314.062651 785.872678 
L 2335.40241 861.524724 
L 2356.742169 1018.739133 
L 2378.081928 891.076305 
L 2399.421687 654.663661 
L 2420.761446 574.283362 
L 2442.101205 438.346092 
L 2463.440964 784.690615 
L 2484.780723 538.821465 
L 2506.120482 626.294144 
L 2527.460241 503.359569 
L 2548.8 687.761431 
L 2570.139759 528.182896 
L 2591.479518 491.538937 
L 2612.819277 500.995442 
L 2634.159036 1034.105954 
L 2655.498795 990.369615 
L 2676.838554 452.53085 
L 2698.178313 641.660965 
L 2719.518072 787.054741 
L 2740.857831 725.587454 
L 2762.19759 816.606322 
L 2783.537349 1079.024357 
L 2804.877108 868.617104 
L 2826.216867 775.234109 
L 2847.556627 489.17481 
L 2868.896386 600.288753 
L 2890.236145 541.185592 
L 2911.575904 828.426954 
L 2932.915663 716.130948 
L 2975.595181 713.766822 
L 2996.93494 789.418868 
L 3018.274699 718.495075 
L 3039.614458 710.220632 
L 3060.954217 813.060132 
L 3082.293976 999.826121 
L 3103.633735 800.057437 
L 3124.973494 716.130948 
L 3146.313253 576.647488 
L 3167.653012 434.799902 
L 3188.992771 718.495075 
L 3210.33253 534.093212 
L 3231.672289 648.753345 
L 3253.012048 513.998138 
L 3274.351807 849.704092 
L 3295.691566 788.236805 
L 3317.031325 719.677138 
L 3338.371084 548.277971 
L 3359.710843 896.986621 
L 3381.050602 463.169419 
L 3402.390361 730.315707 
L 3423.73012 714.948885 
L 3445.06988 717.313012 
L 3466.409639 651.117471 
L 3487.749398 428.889586 
L 3509.089157 710.220632 
L 3530.428916 603.834942 
L 3551.768675 671.212546 
L 3573.108434 626.294144 
L 3594.448193 713.766822 
L 3615.787952 639.296839 
L 3637.127711 751.592845 
L 3658.46747 781.144425 
L 3679.807229 711.402695 
L 3701.146988 453.712914 
L 3722.486747 952.543592 
L 3743.826506 1014.01088 
L 3765.166265 818.970448 
L 3786.506024 821.334575 
L 3807.845783 264.582798 
L 3829.185542 891.076305 
L 3850.525301 818.970448 
L 3871.86506 736.226023 
L 3893.204819 867.43504 
L 3914.544578 512.816074 
L 3935.884337 259.854545 
L 3957.224096 971.456604 
L 3978.563855 694.85381 
L 3999.903614 685.397305 
L 4021.243373 426.525459 
L 4042.583133 629.840333 
L 4063.922892 655.845724 
L 4085.262651 1048.290713 
L 4106.60241 266.946925 
L 4127.942169 716.130948 
L 4149.281928 940.72296 
L 4170.621687 638.114776 
L 4191.961446 823.698701 
L 4213.301205 625.11208 
L 4234.640964 1131.035138 
L 4255.980723 714.948885 
L 4277.320482 714.948885 
L 4298.660241 480.900368 
L 4320 739.772213 
L 4341.339759 573.101299 
L 4362.679518 928.902328 
L 4384.019277 735.04396 
L 4405.359036 713.766822 
L 4426.698795 649.935408 
L 4448.038554 753.956971 
L 4469.378313 711.402695 
L 4490.718072 714.948885 
L 4512.057831 683.033178 
L 4533.39759 752.774908 
L 4554.737349 677.122862 
L 4576.077108 714.948885 
L 4597.416867 543.549718 
L 4618.756627 872.163293 
L 4640.096386 713.766822 
L 4661.436145 712.584759 
L 4682.775904 618.019701 
L 4704.115663 665.30223 
L 4725.455422 595.5605 
L 4746.795181 548.277971 
L 4768.13494 743.318402 
L 4789.474699 687.761431 
L 4810.814458 711.402695 
L 4832.154217 842.611713 
L 4853.493976 720.859201 
L 4874.833735 625.11208 
L 4896.173494 915.899632 
L 4917.513253 1082.570546 
L 4938.853012 1136.945455 
L 4960.192771 576.647488 
L 4981.53253 570.737172 
L 5002.872289 696.035874 
L 5024.212048 638.114776 
L 5045.551807 603.834942 
L 5066.891566 817.788385 
L 5088.231325 764.59554 
L 5109.571084 729.133644 
L 5130.910843 742.136339 
L 5152.250602 732.679833 
L 5173.590361 761.049351 
L 5194.93012 693.671747 
L 5216.26988 744.500466 
L 5237.609639 596.742563 
L 5258.949398 831.973144 
L 5280.289157 946.633276 
L 5301.628916 749.228718 
L 5322.968675 954.907719 
L 5344.308434 439.528155 
L 5365.648193 904.079 
L 5386.987952 713.766822 
L 5408.327711 915.899632 
L 5429.66747 772.869983 
L 5451.007229 759.867287 
L 5472.346988 667.666356 
L 5493.686747 639.296839 
L 5515.026506 542.367655 
L 5536.366265 667.666356 
L 5557.706024 634.568586 
L 5579.045783 480.900368 
L 5600.385542 547.095908 
L 5621.725301 726.769517 
L 5643.06506 745.682529 
L 5664.404819 716.130948 
L 5685.744578 709.038569 
L 5707.084337 690.125557 
L 5728.424096 713.766822 
L 5749.763855 516.362264 
L 5771.103614 765.777604 
L 5792.443373 541.185592 
L 5813.783133 717.313012 
L 5835.122892 925.356138 
L 5856.462651 711.402695 
L 5877.80241 623.930017 
L 5899.142169 704.310316 
L 5920.481928 725.587454 
L 5941.821687 852.068219 
L 5963.161446 1119.214506 
L 5984.501205 882.801862 
L 6005.840964 608.563195 
L 6027.180723 704.310316 
L 6048.520482 709.038569 
L 6069.860241 727.95158 
L 6091.2 865.070914 
L 6091.2 865.070914 
" style="fill:none;stroke:#b73779;stroke-width:3;"/>
   </g>
   <g id="line2d_29">
    <path clip-path="url(#p4c1036095c)" d="M 777.6 714.948885 
L 6091.2 714.948885 
" style="fill:none;opacity:0.7;stroke:#000000;stroke-width:1.3;"/>
   </g>
   <g id="patch_3">
    <path d="M 777.6 1180.8 
L 777.6 216 
" style="fill:none;stroke:#000000;stroke-linecap:square;stroke-linejoin:miter;stroke-width:0.8;"/>
   </g>
   <g id="patch_4">
    <path d="M 6091.2 1180.8 
L 6091.2 216 
" style="fill:none;stroke:#000000;stroke-linecap:square;stroke-linejoin:miter;stroke-width:0.8;"/>
   </g>
   <g id="patch_5">
    <path d="M 777.6 1180.8 
L 6091.2 1180.8 
" style="fill:none;stroke:#000000;stroke-linecap:square;stroke-linejoin:miter;stroke-width:0.8;"/>
   </g>
   <g id="patch_6">
    <path d="M 777.6 216 
L 6091.2 216 
" style="fill:none;stroke:#000000;stroke-linecap:square;stroke-linejoin:miter;stroke-width:0.8;"/>
   </g>
   <g id="patch_7">
    <path d="M 0 1440 
L 6480 1440 
L 6480 1416.729153 
L 0 1416.729153 
z
" style="fill:#808080;"/>
   </g>
   <g id="text_16">
    <!-- ©spred -->
    <defs>
     <path d="M 50.90625 25.90625 
L 50.90625 44 
Q 50.90625 52.40625 44.75 58.40625 
Q 38.59375 64.40625 30 64.40625 
Q 21.296875 64.40625 15.09375 58.40625 
Q 8.90625 52.40625 8.90625 44 
L 8.90625 25.90625 
Q 8.90625 17.5 15.09375 11.453125 
Q 21.296875 5.40625 30 5.40625 
Q 38.59375 5.40625 44.75 11.453125 
Q 50.90625 17.5 50.90625 25.90625 
z
M 57.703125 43.203125 
L 57.703125 26.59375 
Q 57.703125 15.203125 49.59375 7.09375 
Q 41.5 -1 30 -1 
Q 18.40625 -1 10.296875 7.09375 
Q 2.203125 15.203125 2.203125 26.59375 
L 2.203125 43.203125 
Q 2.203125 54.59375 10.296875 62.6875 
Q 18.40625 70.796875 30 70.796875 
Q 41.5 70.796875 49.59375 62.6875 
Q 57.703125 54.59375 57.703125 43.203125 
z
M 38.59375 29.40625 
L 41.40625 29.40625 
Q 42.40625 29.40625 42.90625 28.84375 
Q 43.40625 28.296875 43.40625 27.59375 
Q 43.40625 21.59375 39.796875 17.9375 
Q 36.203125 14.296875 30.40625 14.296875 
Q 24.40625 14.296875 20.75 17.9375 
Q 17.09375 21.59375 17.09375 27.09375 
L 17.09375 43.40625 
Q 17.09375 48.703125 20.75 52.390625 
Q 24.40625 56.09375 30.40625 56.09375 
Q 35.90625 56.09375 39.40625 52.25 
Q 42.90625 48.40625 42.90625 42.296875 
Q 42.90625 41.59375 42.40625 41.046875 
Q 41.90625 40.5 40.90625 40.5 
L 38.09375 40.5 
Q 37.09375 40.5 36.546875 41.046875 
Q 36 41.59375 36 42.296875 
Q 36 45.203125 34.390625 47.046875 
Q 32.796875 48.90625 30.40625 48.90625 
Q 27.703125 48.90625 25.796875 46.90625 
Q 23.90625 44.90625 23.90625 42.203125 
L 23.90625 28.203125 
Q 23.90625 25.59375 25.796875 23.59375 
Q 27.703125 21.59375 30.40625 21.59375 
Q 32.90625 21.59375 34.703125 23.1875 
Q 36.5 24.796875 36.5 27.59375 
Q 36.5 28.296875 37.046875 28.84375 
Q 37.59375 29.40625 38.59375 29.40625 
z
" id="DecimaMonoPro-a9"/>
     <path d="M 30.09375 -1 
Q 25.296875 -1 21.546875 0.59375 
Q 17.796875 2.203125 15.84375 4.59375 
Q 13.90625 7 12.953125 9.390625 
Q 12 11.796875 12 14 
Q 12 14.796875 12.5 15.296875 
Q 13 15.796875 13.796875 15.796875 
L 18.296875 15.796875 
Q 19.90625 15.796875 20.09375 14.09375 
Q 20.40625 11.203125 22.796875 8.703125 
Q 25.203125 6.203125 30.09375 6.203125 
Q 34.296875 6.203125 36.890625 8.296875 
Q 39.5 10.40625 39.5 13.59375 
Q 39.5 16.5 36.84375 18.5 
Q 34.203125 20.5 30.390625 21.84375 
Q 26.59375 23.203125 22.84375 24.796875 
Q 19.09375 26.40625 16.4375 29.5 
Q 13.796875 32.59375 13.796875 37.09375 
Q 13.796875 43.296875 18.4375 47.140625 
Q 23.09375 51 30.703125 51 
Q 38.90625 51 43.25 46.5 
Q 47.59375 42 47.59375 37.5 
Q 47.59375 36.796875 47.09375 36.25 
Q 46.59375 35.703125 45.796875 35.703125 
L 41.203125 35.703125 
Q 39.703125 35.703125 39.40625 37.40625 
Q 38.90625 40 36.75 41.890625 
Q 34.59375 43.796875 30.703125 43.796875 
Q 26.90625 43.796875 24.546875 42.09375 
Q 22.203125 40.40625 22.203125 37.703125 
Q 22.203125 35 24.84375 33.09375 
Q 27.5 31.203125 31.25 29.890625 
Q 35 28.59375 38.703125 26.9375 
Q 42.40625 25.296875 45.046875 21.84375 
Q 47.703125 18.40625 47.703125 13.40625 
Q 47.703125 7.40625 42.59375 3.203125 
Q 37.5 -1 30.09375 -1 
z
" id="DecimaMonoPro-73"/>
     <path d="M 42.09375 17.09375 
L 42.09375 33.09375 
Q 42.09375 37.703125 38.84375 40.796875 
Q 35.59375 43.90625 30.5 43.90625 
Q 25.40625 43.90625 22.046875 40.75 
Q 18.703125 37.59375 18.703125 33 
L 18.703125 17.09375 
Q 18.703125 12.5 22.046875 9.390625 
Q 25.40625 6.296875 30.5 6.296875 
Q 35.59375 6.296875 38.84375 9.390625 
Q 42.09375 12.5 42.09375 17.09375 
z
M 18.703125 3.703125 
L 18.796875 -16.203125 
Q 18.796875 -18 16.5 -18 
L 13 -18 
Q 10.703125 -18 10.703125 -16.203125 
L 10.703125 48.203125 
Q 10.703125 50 13 50 
L 15.90625 50 
Q 18.203125 50 18.203125 48.203125 
L 18.203125 45.90625 
Q 18.59375 46.5 19.5 47.34375 
Q 20.40625 48.203125 23.75 49.59375 
Q 27.09375 51 31.296875 51 
Q 39.296875 51 44.796875 45.640625 
Q 50.296875 40.296875 50.296875 32.59375 
L 50.296875 17.40625 
Q 50.296875 9.796875 44.75 4.390625 
Q 39.203125 -1 31.296875 -1 
Q 27.40625 -1 24.25 0.203125 
Q 21.09375 1.40625 19.90625 2.59375 
z
" id="DecimaMonoPro-70"/>
     <path d="M 37.203125 51 
Q 44.09375 51 48.140625 46.453125 
Q 52.203125 41.90625 52.203125 37.5 
Q 52.203125 35.703125 50.5 35.703125 
L 45.90625 35.703125 
Q 44.296875 35.703125 44.09375 37.40625 
Q 43.796875 39.796875 41.75 41.796875 
Q 39.703125 43.796875 36.59375 43.796875 
Q 32.40625 43.796875 29.203125 40.796875 
Q 26 37.796875 26 34 
L 26 7.203125 
L 45.09375 7.203125 
Q 45.796875 7.203125 46.34375 6.703125 
Q 46.90625 6.203125 46.90625 5.40625 
L 46.90625 1.796875 
Q 46.90625 1 46.34375 0.5 
Q 45.796875 0 45.09375 0 
L 9.296875 0 
Q 8.59375 0 8.046875 0.5 
Q 7.5 1 7.5 1.796875 
L 7.5 5.40625 
Q 7.5 6.203125 8.046875 6.703125 
Q 8.59375 7.203125 9.296875 7.203125 
L 18 7.203125 
L 18 48.203125 
Q 18 50 20.296875 50 
L 23.5 50 
Q 25.796875 50 25.796875 48.203125 
L 25.796875 45.703125 
Q 29.796875 51 37.203125 51 
z
" id="DecimaMonoPro-72"/>
     <path d="M 48.796875 13.5 
Q 48.796875 9.09375 43.75 4.046875 
Q 38.703125 -1 30.203125 -1 
Q 21.203125 -1 15.75 4.453125 
Q 10.296875 9.90625 10.296875 17.5 
L 10.296875 32.703125 
Q 10.296875 40.203125 15.75 45.59375 
Q 21.203125 51 30.203125 51 
Q 39.203125 51 44.453125 45.59375 
Q 49.703125 40.203125 49.703125 32.703125 
L 49.703125 24.796875 
Q 49.703125 23.796875 49.046875 23.140625 
Q 48.40625 22.5 47.40625 22.5 
L 18.40625 22.5 
L 18.40625 17 
Q 18.40625 12.5 21.65625 9.296875 
Q 24.90625 6.09375 30.203125 6.09375 
Q 38.5 6.09375 40.59375 13.59375 
Q 41.09375 15.296875 42.40625 15.296875 
L 47 15.296875 
Q 47.796875 15.296875 48.296875 14.75 
Q 48.796875 14.203125 48.796875 13.5 
z
M 18.40625 33 
L 18.40625 29.703125 
L 41.796875 29.703125 
L 41.796875 33 
Q 41.796875 37.5 38.640625 40.640625 
Q 35.5 43.796875 30.203125 43.796875 
Q 24.90625 43.796875 21.65625 40.640625 
Q 18.40625 37.5 18.40625 33 
z
" id="DecimaMonoPro-65"/>
     <path d="M 17.90625 32.90625 
L 17.90625 16.90625 
Q 17.90625 12.296875 21.15625 9.1875 
Q 24.40625 6.09375 29.5 6.09375 
Q 34.59375 6.09375 37.9375 9.25 
Q 41.296875 12.40625 41.296875 17 
L 41.296875 32.90625 
Q 41.296875 37.5 37.9375 40.59375 
Q 34.59375 43.703125 29.5 43.703125 
Q 24.40625 43.703125 21.15625 40.59375 
Q 17.90625 37.5 17.90625 32.90625 
z
M 41.296875 46.296875 
L 41.203125 68.203125 
Q 41.203125 70 43.5 70 
L 47 70 
Q 49.296875 70 49.296875 68.203125 
L 49.296875 1.796875 
Q 49.296875 0 47 0 
L 44.09375 0 
Q 41.796875 0 41.796875 1.796875 
L 41.796875 4.09375 
Q 41.40625 3.5 40.5 2.640625 
Q 39.59375 1.796875 36.25 0.390625 
Q 32.90625 -1 28.703125 -1 
Q 20.703125 -1 15.203125 4.34375 
Q 9.703125 9.703125 9.703125 17.40625 
L 9.703125 32.59375 
Q 9.703125 40.203125 15.25 45.59375 
Q 20.796875 51 28.703125 51 
Q 32.59375 51 35.75 49.796875 
Q 38.90625 48.59375 40.09375 47.40625 
z
" id="DecimaMonoPro-64"/>
    </defs>
    <g style="fill:#ffffff;" transform="translate(64.8 1432.8)scale(0.14 -0.14)">
     <use xlink:href="#DecimaMonoPro-a9"/>
     <use x="59.999985" xlink:href="#DecimaMonoPro-73"/>
     <use x="119.999969" xlink:href="#DecimaMonoPro-70"/>
     <use x="179.999954" xlink:href="#DecimaMonoPro-72"/>
     <use x="239.999939" xlink:href="#DecimaMonoPro-65"/>
     <use x="299.999924" xlink:href="#DecimaMonoPro-64"/>
    </g>
   </g>
   <g id="text_17">
    <!-- ETHUSDT_drop -->
    <defs>
     <path d="M 9.40625 70 
L 9.40625 0 
L 51.90625 0 
L 51.90625 10.40625 
L 20.40625 10.40625 
L 20.40625 32 
L 45 32 
L 45 42.40625 
L 20.40625 42.40625 
L 20.40625 59.59375 
L 50.90625 59.59375 
L 50.90625 70 
z
" id="ApercuPro-Medium-45"/>
     <path d="M 1.09375 59.59375 
L 20.703125 59.59375 
L 20.703125 0 
L 31.703125 0 
L 31.703125 59.59375 
L 51.296875 59.59375 
L 51.296875 70 
L 1.09375 70 
z
" id="ApercuPro-Medium-54"/>
     <path d="M 9.40625 0 
L 20.40625 0 
L 20.40625 32.203125 
L 48.796875 32.203125 
L 48.796875 0 
L 59.796875 0 
L 59.796875 70 
L 48.796875 70 
L 48.796875 42.59375 
L 20.40625 42.59375 
L 20.40625 70 
L 9.40625 70 
z
" id="ApercuPro-Medium-48"/>
     <path d="M 7.5 25.203125 
C 7.5 8.40625 18.40625 -0.796875 32.703125 -0.796875 
C 47 -0.796875 57.90625 8.296875 57.90625 25.203125 
L 57.90625 70 
L 46.90625 70 
L 46.90625 24.703125 
C 46.90625 15.203125 42.09375 9.59375 32.703125 9.59375 
C 23.296875 9.59375 18.5 15.203125 18.5 24.703125 
L 18.5 70 
L 7.5 70 
z
" id="ApercuPro-Medium-55"/>
     <path d="M 45.40625 59 
C 41.703125 65.59375 35.703125 70.796875 26.09375 70.796875 
C 15.90625 70.796875 7.796875 63 7.796875 52.40625 
C 7.796875 30.796875 37.59375 33.796875 37.59375 20.09375 
C 37.59375 13.90625 33.203125 9.59375 26.90625 9.59375 
C 18.90625 9.59375 14.796875 16.59375 12.796875 24.40625 
L 3.796875 18.703125 
C 6.296875 7.5 14.59375 -0.796875 26.90625 -0.796875 
C 39.5 -0.796875 48.796875 7.703125 48.796875 20.5 
C 48.796875 42.09375 18.796875 39.40625 18.796875 53.203125 
C 18.796875 57.296875 21.59375 60.796875 26.09375 60.796875 
C 30.203125 60.796875 33.703125 58.40625 36.5 53.09375 
z
" id="ApercuPro-Medium-53"/>
     <path d="M 9.40625 70 
L 9.40625 0 
L 30 0 
C 46.796875 0 62.203125 11.40625 62.203125 35 
C 62.203125 58.59375 46.796875 70 30 70 
z
M 26.796875 59.59375 
C 39 59.59375 51 54.09375 51 35 
C 51 15.90625 39 10.40625 26.796875 10.40625 
L 20.40625 10.40625 
L 20.40625 59.59375 
z
" id="ApercuPro-Medium-44"/>
     <path d="M 2.703125 -9.203125 
L 47.203125 -9.203125 
L 47.203125 0 
L 2.703125 0 
z
" id="ApercuPro-Medium-5f"/>
     <path d="M 4.90625 25.203125 
C 4.90625 9.09375 12.5 -0.796875 27.40625 -0.796875 
C 34 -0.796875 39.40625 2.90625 41.09375 5.796875 
L 41.09375 0 
L 51.5 0 
L 51.5 70.796875 
L 41.09375 70.796875 
L 41.09375 44.796875 
C 38.796875 48.09375 32.59375 51.203125 27.59375 51.203125 
C 12.5 51.203125 4.90625 40.796875 4.90625 25.203125 
z
M 15.90625 25.203125 
C 15.90625 35.59375 21.296875 42 28.796875 42 
C 36.296875 42 41.703125 35.59375 41.703125 25.203125 
C 41.703125 14.796875 36.296875 8.40625 28.796875 8.40625 
C 21.296875 8.40625 15.90625 14.796875 15.90625 25.203125 
z
" id="ApercuPro-Medium-64"/>
     <path d="M 19 0 
L 19 18.703125 
C 19 34.59375 25.90625 42 32.59375 42 
C 34.703125 42 36.90625 41.5 38.5 40.5 
L 40.296875 50 
C 38.796875 50.59375 36.59375 51.203125 33.90625 51.203125 
C 28.5 51.203125 22.5 48 19 42 
L 19 50.40625 
L 8.59375 50.40625 
L 8.59375 0 
z
" id="ApercuPro-Medium-72"/>
     <path d="M 4.90625 25.203125 
C 4.90625 11 14.09375 -0.796875 29.703125 -0.796875 
C 45.296875 -0.796875 54.5 11 54.5 25.203125 
C 54.5 39.40625 45.296875 51.203125 29.703125 51.203125 
C 14.09375 51.203125 4.90625 39.40625 4.90625 25.203125 
z
M 15.90625 25.203125 
C 15.90625 33.703125 20.59375 42 29.703125 42 
C 38.796875 42 43.5 33.703125 43.5 25.203125 
C 43.5 16.703125 38.796875 8.40625 29.703125 8.40625 
C 20.59375 8.40625 15.90625 16.703125 15.90625 25.203125 
z
" id="ApercuPro-Medium-6f"/>
     <path d="M 55.203125 25.203125 
C 55.203125 41.296875 47.59375 51.203125 32.703125 51.203125 
C 26.09375 51.203125 20.703125 47.5 19 44.59375 
L 19 50.40625 
L 8.59375 50.40625 
L 8.59375 -20.40625 
L 19 -20.40625 
L 19 5.59375 
C 21.296875 2.296875 26.296875 -0.796875 32.5 -0.796875 
C 47.59375 -0.796875 55.203125 9.59375 55.203125 25.203125 
z
M 44.203125 25.203125 
C 44.203125 14.796875 38.796875 8.40625 31.296875 8.40625 
C 23.796875 8.40625 18.40625 14.796875 18.40625 25.203125 
C 18.40625 35.59375 23.796875 42 31.296875 42 
C 38.796875 42 44.203125 35.59375 44.203125 25.203125 
z
" id="ApercuPro-Medium-70"/>
    </defs>
    <g style="opacity:0.75;" transform="translate(1044 144)scale(0.3 -0.3)">
     <use xlink:href="#ApercuPro-Medium-45"/>
     <use x="56.846863" xlink:href="#ApercuPro-Medium-54"/>
     <use x="109.246857" xlink:href="#ApercuPro-Medium-48"/>
     <use x="178.415588" xlink:href="#ApercuPro-Medium-55"/>
     <use x="243.799957" xlink:href="#ApercuPro-Medium-53"/>
     <use x="296.799942" xlink:href="#ApercuPro-Medium-44"/>
     <use x="364.06868" xlink:href="#ApercuPro-Medium-54"/>
     <use x="416.468674" xlink:href="#ApercuPro-Medium-5f"/>
     <use x="466.368668" xlink:href="#ApercuPro-Medium-64"/>
     <use x="526.421783" xlink:href="#ApercuPro-Medium-72"/>
     <use x="568.12178" xlink:href="#ApercuPro-Medium-6f"/>
     <use x="627.521774" xlink:href="#ApercuPro-Medium-70"/>
    </g>
   </g>
   <g id="text_18">
    <!-- None -->
    <defs>
     <path d="M 51.59375 70 
L 60.40625 70 
L 60.40625 0 
L 50.09375 0 
L 18.5 54.5 
L 18.5 0 
L 9.703125 0 
L 9.703125 70 
L 20 70 
L 51.59375 15.296875 
z
" id="Apercu-4e"/>
    </defs>
    <g style="opacity:0.75;" transform="translate(1045 158.4)scale(0.14 -0.14)">
     <use xlink:href="#Apercu-4e"/>
     <use x="70.099991" xlink:href="#Apercu-6f"/>
     <use x="129.299988" xlink:href="#Apercu-6e"/>
     <use x="186.999985" xlink:href="#Apercu-65"/>
    </g>
   </g>
   <g id="legend_1">
    <g id="patch_8">
     <path d="M 5997.58375 266.736875 
L 6081.4 266.736875 
Q 6084.2 266.736875 6084.2 263.936875 
L 6084.2 225.8 
Q 6084.2 223 6081.4 223 
L 5997.58375 223 
Q 5994.78375 223 5994.78375 225.8 
L 5994.78375 263.936875 
Q 5994.78375 266.736875 5997.58375 266.736875 
z
" style="fill:#f0f0f0;opacity:0.8;stroke:#cccccc;stroke-linejoin:miter;stroke-width:0.5;"/>
    </g>
    <g id="line2d_30">
     <path d="M 6000.38375 233.611563 
L 6028.38375 233.611563 
" style="fill:none;stroke:#000004;stroke-width:3;"/>
    </g>
    <g id="line2d_31"/>
    <g id="text_19">
     <!-- pred -->
     <g style="opacity:0.75;" transform="translate(6039.58375 238.511563)scale(0.14 -0.14)">
      <use xlink:href="#Apercu-70"/>
      <use x="60.099991" xlink:href="#Apercu-72"/>
      <use x="101.399979" xlink:href="#Apercu-65"/>
      <use x="157.399963" xlink:href="#Apercu-64"/>
     </g>
    </g>
    <g id="line2d_32">
     <path d="M 6000.38375 253.38 
L 6028.38375 253.38 
" style="fill:none;stroke:#b73779;stroke-width:3;"/>
    </g>
    <g id="line2d_33"/>
    <g id="text_20">
     <!-- actual -->
     <defs>
      <path d="M 14.203125 14.5 
Q 14.203125 10.90625 16.34375 8.84375 
Q 18.5 6.796875 22.5 6.796875 
Q 28.203125 6.796875 32.390625 10.546875 
Q 36.59375 14.296875 36.59375 22.203125 
L 36.59375 23.40625 
L 27.59375 23.40625 
Q 21.203125 23.40625 17.703125 21.09375 
Q 14.203125 18.796875 14.203125 14.5 
z
M 45 32.203125 
L 45 0 
L 38.40625 0 
L 37 7.09375 
Q 31.5 -0.796875 21.203125 -0.796875 
Q 14.40625 -0.796875 10 3 
Q 5.59375 6.796875 5.59375 14.5 
Q 5.59375 22.5 11.6875 26.75 
Q 17.796875 31 28.40625 31 
L 36.59375 31 
L 36.59375 33.203125 
Q 36.59375 43.59375 25.59375 43.59375 
Q 21.59375 43.59375 18.75 41.5 
Q 15.90625 39.40625 15.09375 35.703125 
L 7.703125 37.40625 
Q 8.703125 43.796875 13.59375 47.5 
Q 18.5 51.203125 25.59375 51.203125 
Q 34.40625 51.203125 39.703125 46.5 
Q 45 41.796875 45 32.203125 
z
" id="Apercu-61"/>
      <path d="M 9 70.796875 
L 17.40625 70.796875 
L 17.40625 0 
L 9 0 
z
" id="Apercu-6c"/>
     </defs>
     <g style="opacity:0.75;" transform="translate(6039.58375 258.28)scale(0.14 -0.14)">
      <use xlink:href="#Apercu-61"/>
      <use x="51.799988" xlink:href="#Apercu-63"/>
      <use x="105.615601" xlink:href="#Apercu-74"/>
      <use x="143.399963" xlink:href="#Apercu-75"/>
      <use x="201.09996" xlink:href="#Apercu-61"/>
      <use x="252.899948" xlink:href="#Apercu-6c"/>
     </g>
    </g>
   </g>
  </g>
 </g>
 <defs>
  <clipPath id="p4c1036095c">
   <rect height="964.8" width="5313.6" x="777.6" y="216"/>
  </clipPath>
 </defs>
</svg>
