<?xml version="1.0" encoding="utf-8" standalone="no"?>
<!DOCTYPE svg PUBLIC "-//W3C//DTD SVG 1.1//EN"
  "http://www.w3.org/Graphics/SVG/1.1/DTD/svg11.dtd">
<!-- Created with matplotlib (http://matplotlib.org/) -->
<svg height="504pt" version="1.1" viewBox="0 0 6480 504" width="6480pt" xmlns="http://www.w3.org/2000/svg" xmlns:xlink="http://www.w3.org/1999/xlink">
 <defs>
  <style type="text/css">
*{stroke-linecap:butt;stroke-linejoin:round;}
  </style>
 </defs>
 <g id="figure_1">
  <g id="patch_1">
   <path d="M 0 504 
L 6480 504 
L 6480 0 
L 0 0 
z
" style="fill:#f0f0f0;"/>
  </g>
  <g id="axes_1">
   <g id="patch_2">
    <path d="M 777.6 413.28 
L 6091.2 413.28 
L 6091.2 75.6 
L 777.6 75.6 
z
" style="fill:#f0f0f0;"/>
   </g>
   <g id="matplotlib.axis_1">
    <g id="xtick_1">
     <g id="line2d_1">
      <path clip-path="url(#p806043c232)" d="M 777.6 413.28 
L 777.6 75.6 
" style="fill:none;stroke:#b0b0b0;stroke-linecap:square;stroke-width:0.8;"/>
     </g>
     <g id="line2d_2">
      <defs>
       <path d="M 0 0 
L 0 3.5 
" id="m479e6aa3a5" style="stroke:#000000;stroke-width:0.8;"/>
      </defs>
      <g>
       <use style="stroke:#000000;stroke-width:0.8;" x="777.6" xlink:href="#m479e6aa3a5" y="413.28"/>
      </g>
     </g>
     <g id="text_1">
      <!-- 0 -->
      <defs>
       <path d="M 48.203125 52.59375 
L 48.203125 17.40625 
Q 48.203125 9.703125 42.953125 4.34375 
Q 37.703125 -1 29.890625 -1 
Q 22.09375 -1 16.9375 4.390625 
Q 11.796875 9.796875 11.796875 17.5 
L 11.796875 52.59375 
Q 11.796875 60.296875 16.9375 65.640625 
Q 22.09375 71 29.890625 71 
Q 37.703125 71 42.953125 65.640625 
Q 48.203125 60.296875 48.203125 52.59375 
z
M 39.90625 17.296875 
L 39.90625 52.5 
Q 39.90625 56.90625 37 60 
Q 34.09375 63.09375 29.90625 63.09375 
Q 25.796875 63.09375 22.890625 60 
Q 20 56.90625 20 52.5 
L 20 17.40625 
Q 20 13 22.890625 9.953125 
Q 25.796875 6.90625 30 6.90625 
Q 34.09375 6.90625 37 9.90625 
Q 39.90625 12.90625 39.90625 17.296875 
z
" id="DecimaMonoPro-30"/>
      </defs>
      <g style="fill:#303030;" transform="translate(773.4 430.093125)scale(0.14 -0.14)">
       <use xlink:href="#DecimaMonoPro-30"/>
      </g>
     </g>
    </g>
    <g id="xtick_2">
     <g id="line2d_3">
      <path clip-path="url(#p806043c232)" d="M 1841.383784 413.28 
L 1841.383784 75.6 
" style="fill:none;stroke:#b0b0b0;stroke-linecap:square;stroke-width:0.8;"/>
     </g>
     <g id="line2d_4">
      <g>
       <use style="stroke:#000000;stroke-width:0.8;" x="1841.383784" xlink:href="#m479e6aa3a5" y="413.28"/>
      </g>
     </g>
     <g id="text_2">
      <!-- 200 -->
      <defs>
       <path d="M 11.703125 53 
Q 11.703125 59.703125 17.203125 65.34375 
Q 22.703125 71 30.59375 71 
Q 38.40625 71 43.796875 65.75 
Q 49.203125 60.5 49.203125 52.703125 
Q 49.203125 46.90625 46.09375 41.75 
Q 43 36.59375 38.59375 32.84375 
Q 34.203125 29.09375 29.796875 25.4375 
Q 25.40625 21.796875 22.296875 17.296875 
Q 19.203125 12.796875 19.203125 7.796875 
L 47.40625 7.796875 
Q 48.203125 7.796875 48.703125 7.296875 
Q 49.203125 6.796875 49.203125 6 
L 49.203125 1.796875 
Q 49.203125 1 48.703125 0.5 
Q 48.203125 0 47.40625 0 
L 12.59375 0 
Q 11.796875 0 11.296875 0.5 
Q 10.796875 1 10.796875 1.796875 
L 10.796875 7.296875 
Q 10.796875 13.90625 13.890625 19.453125 
Q 17 25 21.390625 28.890625 
Q 25.796875 32.796875 30.1875 36.390625 
Q 34.59375 40 37.6875 44.296875 
Q 40.796875 48.59375 40.796875 53.296875 
Q 40.796875 57.40625 37.75 60.25 
Q 34.703125 63.09375 30.5 63.09375 
Q 26.09375 63.09375 23.1875 59.6875 
Q 20.296875 56.296875 20.09375 53 
Q 19.90625 51 17.796875 51 
L 14 51 
Q 12.90625 51 12.296875 51.59375 
Q 11.703125 52.203125 11.703125 53 
z
" id="DecimaMonoPro-32"/>
      </defs>
      <g style="fill:#303030;" transform="translate(1828.783784 430.093125)scale(0.14 -0.14)">
       <use xlink:href="#DecimaMonoPro-32"/>
       <use x="59.999985" xlink:href="#DecimaMonoPro-30"/>
       <use x="119.999969" xlink:href="#DecimaMonoPro-30"/>
      </g>
     </g>
    </g>
    <g id="xtick_3">
     <g id="line2d_5">
      <path clip-path="url(#p806043c232)" d="M 2905.167568 413.28 
L 2905.167568 75.6 
" style="fill:none;stroke:#b0b0b0;stroke-linecap:square;stroke-width:0.8;"/>
     </g>
     <g id="line2d_6">
      <g>
       <use style="stroke:#000000;stroke-width:0.8;" x="2905.167568" xlink:href="#m479e6aa3a5" y="413.28"/>
      </g>
     </g>
     <g id="text_3">
      <!-- 400 -->
      <defs>
       <path d="M 40.09375 67.5 
L 19.5 22.90625 
L 35.796875 22.90625 
L 35.796875 38.90625 
Q 35.796875 39.703125 36.390625 40.296875 
Q 37 40.90625 38.09375 40.90625 
L 42.203125 40.90625 
Q 43 40.90625 43.59375 40.25 
Q 44.203125 39.59375 44.203125 38.90625 
L 44.203125 22.90625 
L 48 22.90625 
Q 48.796875 22.90625 49.390625 22.296875 
Q 50 21.703125 50 20.59375 
L 50 17.40625 
Q 50 16.296875 49.390625 15.6875 
Q 48.796875 15.09375 48 15.09375 
L 44.203125 15.09375 
L 44.203125 2 
Q 44.203125 1.203125 43.59375 0.59375 
Q 43 0 42.203125 0 
L 38.09375 0 
Q 37 0 36.390625 0.59375 
Q 35.796875 1.203125 35.796875 2 
L 35.796875 15.09375 
L 12.09375 15.09375 
Q 9.90625 15.09375 9.90625 17.40625 
L 9.90625 21.296875 
Q 9.90625 22.5 11 24.703125 
L 31.296875 68 
Q 32.296875 70 34 70 
L 38.796875 70 
Q 40.5 70 40.5 68.796875 
Q 40.5 68.5 40.09375 67.5 
z
" id="DecimaMonoPro-34"/>
      </defs>
      <g style="fill:#303030;" transform="translate(2892.567568 430.093125)scale(0.14 -0.14)">
       <use xlink:href="#DecimaMonoPro-34"/>
       <use x="59.999985" xlink:href="#DecimaMonoPro-30"/>
       <use x="119.999969" xlink:href="#DecimaMonoPro-30"/>
      </g>
     </g>
    </g>
    <g id="xtick_4">
     <g id="line2d_7">
      <path clip-path="url(#p806043c232)" d="M 3968.951351 413.28 
L 3968.951351 75.6 
" style="fill:none;stroke:#b0b0b0;stroke-linecap:square;stroke-width:0.8;"/>
     </g>
     <g id="line2d_8">
      <g>
       <use style="stroke:#000000;stroke-width:0.8;" x="3968.951351" xlink:href="#m479e6aa3a5" y="413.28"/>
      </g>
     </g>
     <g id="text_4">
      <!-- 600 -->
      <defs>
       <path d="M 11 60.203125 
Q 21.59375 71 29.5 71 
Q 37.40625 71 42.65625 65.953125 
Q 47.90625 60.90625 47.90625 54.40625 
Q 47.90625 53.59375 47.296875 53 
Q 46.703125 52.40625 45.59375 52.40625 
L 41.796875 52.40625 
Q 39.703125 52.40625 39.5 54.40625 
Q 39.296875 57.59375 36.640625 60.296875 
Q 34 63 29.5 63 
Q 25.203125 63 22.25 59.890625 
Q 19.296875 56.796875 19.296875 52.40625 
L 19.296875 42.796875 
Q 19.703125 43.296875 20.59375 44.046875 
Q 21.5 44.796875 24.546875 46 
Q 27.59375 47.203125 31 47.203125 
Q 38.40625 47.203125 43.703125 42 
Q 49 36.796875 49 28.90625 
L 49 17.5 
Q 49 9.796875 43.546875 4.390625 
Q 38.09375 -1 30 -1 
Q 21.90625 -1 16.453125 4.34375 
Q 11 9.703125 11 17.40625 
L 11 52.5 
Q 11 60.203125 21.59375 71 
z
M 30 39.296875 
Q 25.40625 39.296875 22.34375 36.390625 
Q 19.296875 33.5 19.296875 28.796875 
L 19.296875 17.296875 
Q 19.296875 12.90625 22.390625 9.90625 
Q 25.5 6.90625 30 6.90625 
Q 34.40625 6.90625 37.5 9.953125 
Q 40.59375 13 40.59375 17.40625 
L 40.59375 28.796875 
Q 40.59375 33.40625 37.546875 36.34375 
Q 34.5 39.296875 30 39.296875 
z
" id="DecimaMonoPro-36"/>
      </defs>
      <g style="fill:#303030;" transform="translate(3956.351351 430.093125)scale(0.14 -0.14)">
       <use xlink:href="#DecimaMonoPro-36"/>
       <use x="59.999985" xlink:href="#DecimaMonoPro-30"/>
       <use x="119.999969" xlink:href="#DecimaMonoPro-30"/>
      </g>
     </g>
    </g>
    <g id="xtick_5">
     <g id="line2d_9">
      <path clip-path="url(#p806043c232)" d="M 5032.735135 413.28 
L 5032.735135 75.6 
" style="fill:none;stroke:#b0b0b0;stroke-linecap:square;stroke-width:0.8;"/>
     </g>
     <g id="line2d_10">
      <g>
       <use style="stroke:#000000;stroke-width:0.8;" x="5032.735135" xlink:href="#m479e6aa3a5" y="413.28"/>
      </g>
     </g>
     <g id="text_5">
      <!-- 800 -->
      <defs>
       <path d="M 48.09375 53.5 
L 48.09375 49.796875 
Q 48.09375 41.5 41.796875 36.40625 
Q 49 30.796875 49 21.703125 
L 49 17.40625 
Q 49 9.703125 43.640625 4.34375 
Q 38.296875 -1 30.5 -1 
L 29.59375 -1 
Q 21.796875 -1 16.390625 4.390625 
Q 11 9.796875 11 17.5 
L 11 21.703125 
Q 11 30.703125 18.296875 36.40625 
Q 11.796875 41.296875 11.796875 49.90625 
L 11.796875 53.5 
Q 11.796875 60.796875 16.9375 65.890625 
Q 22.09375 71 29.5 71 
L 30.40625 71 
Q 37.796875 71 42.9375 65.890625 
Q 48.09375 60.796875 48.09375 53.5 
z
M 40.59375 17.296875 
L 40.59375 21.59375 
Q 40.59375 26 37.5 29.09375 
Q 34.40625 32.203125 30 32.203125 
Q 25.59375 32.203125 22.5 29.09375 
Q 19.40625 26 19.40625 21.59375 
L 19.40625 17.40625 
Q 19.40625 13 22.546875 9.953125 
Q 25.703125 6.90625 30.203125 6.90625 
Q 34.5 6.90625 37.546875 9.90625 
Q 40.59375 12.90625 40.59375 17.296875 
z
M 39.703125 49.703125 
L 39.703125 53.09375 
Q 39.703125 57.296875 36.84375 60.1875 
Q 34 63.09375 29.796875 63.09375 
Q 25.796875 63.09375 23 60.1875 
Q 20.203125 57.296875 20.203125 53.09375 
L 20.203125 49.796875 
Q 20.203125 45.90625 22.84375 43 
Q 25.5 40.09375 29.59375 40.09375 
L 30.5 40.09375 
Q 34.296875 40.09375 37 42.84375 
Q 39.703125 45.59375 39.703125 49.703125 
z
" id="DecimaMonoPro-38"/>
      </defs>
      <g style="fill:#303030;" transform="translate(5020.135135 430.093125)scale(0.14 -0.14)">
       <use xlink:href="#DecimaMonoPro-38"/>
       <use x="59.999985" xlink:href="#DecimaMonoPro-30"/>
       <use x="119.999969" xlink:href="#DecimaMonoPro-30"/>
      </g>
     </g>
    </g>
    <g id="text_6">
     <!-- x -->
     <defs>
      <path d="M 3.59375 50.40625 
L 13.09375 50.40625 
L 22.90625 34.40625 
L 32.703125 50.40625 
L 42.203125 50.40625 
L 27.59375 26.59375 
L 44 0 
L 34.5 0 
L 22.90625 18.90625 
L 11.296875 0 
L 1.796875 0 
L 18.203125 26.59375 
z
" id="Apercu-78"/>
     </defs>
     <g style="opacity:0.75;" transform="translate(3431.194219 446.524687)scale(0.14 -0.14)">
      <use xlink:href="#Apercu-78"/>
     </g>
    </g>
   </g>
   <g id="matplotlib.axis_2">
    <g id="ytick_1">
     <g id="line2d_11">
      <path clip-path="url(#p806043c232)" d="M 777.6 379.402155 
L 6091.2 379.402155 
" style="fill:none;stroke:#b0b0b0;stroke-linecap:square;stroke-width:0.8;"/>
     </g>
     <g id="line2d_12">
      <defs>
       <path d="M 0 0 
L -3.5 0 
" id="m40fbf033d8" style="stroke:#000000;stroke-width:0.8;"/>
      </defs>
      <g>
       <use style="stroke:#000000;stroke-width:0.8;" x="777.6" xlink:href="#m40fbf033d8" y="379.402155"/>
      </g>
     </g>
     <g id="text_7">
      <!-- −0.04 -->
      <defs>
       <path d="M 50.203125 25.296875 
L 9.796875 25.296875 
Q 9 25.296875 8.5 25.84375 
Q 8 26.40625 8 27.09375 
L 8 31.296875 
Q 8 32 8.5 32.546875 
Q 9 33.09375 9.796875 33.09375 
L 50.203125 33.09375 
Q 51 33.09375 51.5 32.546875 
Q 52 32 52 31.296875 
L 52 27.09375 
Q 52 26.40625 51.5 25.84375 
Q 51 25.296875 50.203125 25.296875 
z
" id="DecimaMonoPro-2212"/>
       <path d="M 35.09375 7.5 
L 35.09375 2.59375 
Q 35.09375 0 32.5 0 
L 27.5 0 
Q 24.90625 0 24.90625 2.59375 
L 24.90625 7.5 
Q 24.90625 10.09375 27.5 10.09375 
L 32.5 10.09375 
Q 35.09375 10.09375 35.09375 7.5 
z
" id="DecimaMonoPro-2e"/>
      </defs>
      <g style="fill:#303030;" transform="translate(728.6 384.308717)scale(0.14 -0.14)">
       <use xlink:href="#DecimaMonoPro-2212"/>
       <use x="59.999985" xlink:href="#DecimaMonoPro-30"/>
       <use x="119.999969" xlink:href="#DecimaMonoPro-2e"/>
       <use x="179.999954" xlink:href="#DecimaMonoPro-30"/>
       <use x="239.999939" xlink:href="#DecimaMonoPro-34"/>
      </g>
     </g>
    </g>
    <g id="ytick_2">
     <g id="line2d_13">
      <path clip-path="url(#p806043c232)" d="M 777.6 316.961586 
L 6091.2 316.961586 
" style="fill:none;stroke:#b0b0b0;stroke-linecap:square;stroke-width:0.8;"/>
     </g>
     <g id="line2d_14">
      <g>
       <use style="stroke:#000000;stroke-width:0.8;" x="777.6" xlink:href="#m40fbf033d8" y="316.961586"/>
      </g>
     </g>
     <g id="text_8">
      <!-- −0.02 -->
      <g style="fill:#303030;" transform="translate(728.6 321.868149)scale(0.14 -0.14)">
       <use xlink:href="#DecimaMonoPro-2212"/>
       <use x="59.999985" xlink:href="#DecimaMonoPro-30"/>
       <use x="119.999969" xlink:href="#DecimaMonoPro-2e"/>
       <use x="179.999954" xlink:href="#DecimaMonoPro-30"/>
       <use x="239.999939" xlink:href="#DecimaMonoPro-32"/>
      </g>
     </g>
    </g>
    <g id="ytick_3">
     <g id="line2d_15">
      <path clip-path="url(#p806043c232)" d="M 777.6 254.521017 
L 6091.2 254.521017 
" style="fill:none;stroke:#b0b0b0;stroke-linecap:square;stroke-width:0.8;"/>
     </g>
     <g id="line2d_16">
      <g>
       <use style="stroke:#000000;stroke-width:0.8;" x="777.6" xlink:href="#m40fbf033d8" y="254.521017"/>
      </g>
     </g>
     <g id="text_9">
      <!-- 0.00 -->
      <g style="fill:#303030;" transform="translate(737 259.42758)scale(0.14 -0.14)">
       <use xlink:href="#DecimaMonoPro-30"/>
       <use x="59.999985" xlink:href="#DecimaMonoPro-2e"/>
       <use x="119.999969" xlink:href="#DecimaMonoPro-30"/>
       <use x="179.999954" xlink:href="#DecimaMonoPro-30"/>
      </g>
     </g>
    </g>
    <g id="ytick_4">
     <g id="line2d_17">
      <path clip-path="url(#p806043c232)" d="M 777.6 192.080448 
L 6091.2 192.080448 
" style="fill:none;stroke:#b0b0b0;stroke-linecap:square;stroke-width:0.8;"/>
     </g>
     <g id="line2d_18">
      <g>
       <use style="stroke:#000000;stroke-width:0.8;" x="777.6" xlink:href="#m40fbf033d8" y="192.080448"/>
      </g>
     </g>
     <g id="text_10">
      <!-- 0.02 -->
      <g style="fill:#303030;" transform="translate(737 196.987011)scale(0.14 -0.14)">
       <use xlink:href="#DecimaMonoPro-30"/>
       <use x="59.999985" xlink:href="#DecimaMonoPro-2e"/>
       <use x="119.999969" xlink:href="#DecimaMonoPro-30"/>
       <use x="179.999954" xlink:href="#DecimaMonoPro-32"/>
      </g>
     </g>
    </g>
    <g id="ytick_5">
     <g id="line2d_19">
      <path clip-path="url(#p806043c232)" d="M 777.6 129.639879 
L 6091.2 129.639879 
" style="fill:none;stroke:#b0b0b0;stroke-linecap:square;stroke-width:0.8;"/>
     </g>
     <g id="line2d_20">
      <g>
       <use style="stroke:#000000;stroke-width:0.8;" x="777.6" xlink:href="#m40fbf033d8" y="129.639879"/>
      </g>
     </g>
     <g id="text_11">
      <!-- 0.04 -->
      <g style="fill:#303030;" transform="translate(737 134.546442)scale(0.14 -0.14)">
       <use xlink:href="#DecimaMonoPro-30"/>
       <use x="59.999985" xlink:href="#DecimaMonoPro-2e"/>
       <use x="119.999969" xlink:href="#DecimaMonoPro-30"/>
       <use x="179.999954" xlink:href="#DecimaMonoPro-34"/>
      </g>
     </g>
    </g>
    <g id="text_12">
     <!-- P -->
     <defs>
      <path d="M 34.09375 30 
L 18.5 30 
L 18.5 0 
L 9.703125 0 
L 9.703125 70 
L 34.09375 70 
Q 43.90625 70 49.40625 64.59375 
Q 54.90625 59.203125 54.90625 50 
Q 54.90625 40.796875 49.40625 35.390625 
Q 43.90625 30 34.09375 30 
z
M 34.59375 38.40625 
Q 40 38.40625 42.890625 41.40625 
Q 45.796875 44.40625 45.796875 50 
Q 45.796875 55.59375 42.890625 58.59375 
Q 40 61.59375 34.59375 61.59375 
L 18.5 61.59375 
L 18.5 38.40625 
z
" id="Apercu-50"/>
     </defs>
     <g style="opacity:0.75;" transform="translate(721.743125 248.528437)rotate(-90)scale(0.14 -0.14)">
      <use xlink:href="#Apercu-50"/>
     </g>
    </g>
   </g>
   <g id="line2d_21">
    <path clip-path="url(#p806043c232)" d="M 777.6 254.772961 
L 782.918919 253.78473 
L 788.237838 257.412434 
L 793.556757 256.02396 
L 798.875676 253.045131 
L 804.194595 257.573827 
L 809.513514 256.123177 
L 814.832432 250.058676 
L 820.151351 255.107256 
L 825.47027 256.07305 
L 830.789189 251.157423 
L 836.108108 252.685674 
L 841.427027 254.458706 
L 846.745946 253.566926 
L 852.064865 252.148083 
L 857.383784 251.817623 
L 862.702703 252.356524 
L 868.021622 252.596262 
L 873.340541 252.132169 
L 883.978378 252.418479 
L 889.297297 253.85487 
L 894.616216 255.932353 
L 899.935135 255.624617 
L 905.254054 255.49986 
L 910.572973 253.675081 
L 915.891892 252.649806 
L 921.210811 256.339009 
L 926.52973 255.85148 
L 931.848649 254.536348 
L 937.167568 253.704352 
L 942.486486 251.141916 
L 947.805405 254.528382 
L 953.124324 253.320933 
L 958.443243 257.364089 
L 963.762162 255.318407 
L 969.081081 252.298238 
L 974.4 254.119021 
L 985.037838 251.841361 
L 990.356757 251.754749 
L 995.675676 252.318323 
L 1000.994595 254.012015 
L 1006.313514 251.886435 
L 1011.632432 255.325821 
L 1016.951351 254.058313 
L 1022.27027 253.432181 
L 1027.589189 254.724006 
L 1032.908108 253.319674 
L 1038.227027 255.332634 
L 1043.545946 250.539604 
L 1048.864865 254.11826 
L 1054.183784 251.884245 
L 1059.502703 254.377895 
L 1064.821622 253.757006 
L 1070.140541 252.711337 
L 1075.459459 256.958192 
L 1080.778378 256.186399 
L 1086.097297 256.313317 
L 1091.416216 255.302947 
L 1096.735135 252.597521 
L 1102.054054 252.632802 
L 1107.372973 252.265768 
L 1112.691892 254.316422 
L 1118.010811 252.560103 
L 1123.32973 254.800037 
L 1128.648649 253.464976 
L 1133.967568 252.895503 
L 1139.286486 252.767265 
L 1144.605405 254.53215 
L 1149.924324 258.39449 
L 1155.243243 256.093318 
L 1160.562162 252.336845 
L 1165.881081 254.40693 
L 1171.2 257.915131 
L 1176.518919 255.274647 
L 1181.837838 251.573134 
L 1192.475676 257.767035 
L 1197.794595 255.944521 
L 1203.113514 254.937503 
L 1208.432432 252.280257 
L 1213.751351 255.134032 
L 1219.07027 252.879537 
L 1224.389189 251.990237 
L 1229.708108 251.930776 
L 1235.027027 250.208168 
L 1240.345946 252.870075 
L 1245.664865 252.130454 
L 1250.983784 253.954601 
L 1256.302703 253.923961 
L 1261.621622 254.121414 
L 1266.940541 255.768541 
L 1272.259459 252.280298 
L 1277.578378 251.763739 
L 1282.897297 254.75924 
L 1288.216216 252.079585 
L 1293.535135 252.229603 
L 1298.854054 252.768207 
L 1304.172973 250.561789 
L 1309.491892 253.259219 
L 1314.810811 253.135142 
L 1320.12973 251.756421 
L 1325.448649 254.740184 
L 1330.767568 251.479162 
L 1336.086486 257.249791 
L 1341.405405 255.52071 
L 1346.724324 254.266516 
L 1352.043243 254.086439 
L 1357.362162 256.404177 
L 1362.681081 254.98158 
L 1368 253.371715 
L 1373.318919 255.165149 
L 1378.637838 253.725653 
L 1383.956757 251.676976 
L 1389.275676 251.853 
L 1394.594595 254.825647 
L 1405.232432 251.929093 
L 1410.551351 253.807328 
L 1415.87027 253.797512 
L 1421.189189 254.322668 
L 1426.508108 252.812705 
L 1431.827027 254.818157 
L 1437.145946 257.499421 
L 1442.464865 251.699089 
L 1447.783784 254.489004 
L 1453.102703 251.985602 
L 1458.421622 253.9993 
L 1463.740541 256.409775 
L 1469.059459 256.574113 
L 1474.378378 252.12055 
L 1479.697297 256.366803 
L 1485.016216 254.08413 
L 1490.335135 254.769929 
L 1495.654054 252.020805 
L 1506.291892 255.26318 
L 1511.610811 253.831688 
L 1516.92973 251.414159 
L 1522.248649 251.225792 
L 1532.886486 252.724477 
L 1538.205405 254.54991 
L 1543.524324 257.555617 
L 1548.843243 253.747861 
L 1554.162162 255.646046 
L 1559.481081 256.006337 
L 1564.8 254.407753 
L 1570.118919 255.857831 
L 1575.437838 254.920224 
L 1580.756757 253.115071 
L 1586.075676 256.36983 
L 1591.394595 255.297914 
L 1596.713514 251.034902 
L 1602.032432 251.560852 
L 1607.351351 257.432063 
L 1612.67027 254.49399 
L 1617.989189 253.309529 
L 1623.308108 255.026901 
L 1628.627027 255.102098 
L 1633.945946 257.123891 
L 1639.264865 255.587952 
L 1644.583784 251.768447 
L 1649.902703 253.293346 
L 1655.221622 252.330803 
L 1660.540541 251.79891 
L 1665.859459 255.320666 
L 1671.178378 252.219973 
L 1676.497297 252.012858 
L 1681.816216 252.96657 
L 1687.135135 255.908717 
L 1692.454054 254.874583 
L 1697.772973 251.173205 
L 1703.091892 257.667536 
L 1708.410811 255.979718 
L 1713.72973 256.973442 
L 1724.367568 251.661699 
L 1729.686486 255.687142 
L 1735.005405 254.488879 
L 1740.324324 254.342204 
L 1745.643243 256.541527 
L 1750.962162 252.486512 
L 1756.281081 256.425865 
L 1761.6 256.928028 
L 1766.918919 255.799425 
L 1772.237838 254.312212 
L 1777.556757 256.089094 
L 1782.875676 254.237149 
L 1788.194595 251.884379 
L 1793.513514 253.271204 
L 1798.832432 252.794027 
L 1804.151351 250.761641 
L 1809.47027 254.89161 
L 1814.789189 251.38317 
L 1820.108108 253.205762 
L 1825.427027 251.716476 
L 1830.745946 257.084452 
L 1836.064865 256.272855 
L 1841.383784 250.645043 
L 1846.702703 255.682263 
L 1852.021622 254.431011 
L 1857.340541 252.970577 
L 1862.659459 254.412522 
L 1867.978378 254.417418 
L 1873.297297 255.291564 
L 1878.616216 254.849504 
L 1883.935135 253.688398 
L 1889.254054 252.78572 
L 1894.572973 252.298491 
L 1899.891892 255.633482 
L 1905.210811 252.359219 
L 1910.52973 252.753928 
L 1915.848649 251.319717 
L 1921.167568 254.408919 
L 1931.805405 250.787013 
L 1937.124324 254.279245 
L 1942.443243 254.102625 
L 1947.762162 253.215654 
L 1953.081081 252.548575 
L 1958.4 252.301718 
L 1963.718919 253.042264 
L 1969.037838 257.950566 
L 1974.356757 256.230366 
L 1979.675676 251.696786 
L 1984.994595 252.472997 
L 1990.313514 255.710513 
L 1995.632432 254.459006 
L 2000.951351 251.839087 
L 2006.27027 251.747855 
L 2011.589189 254.342998 
L 2016.908108 254.605393 
L 2022.227027 253.837637 
L 2027.545946 252.260991 
L 2032.864865 252.105896 
L 2038.183784 253.992834 
L 2043.502703 255.030099 
L 2048.821622 254.374226 
L 2054.140541 253.162451 
L 2059.459459 255.482228 
L 2064.778378 252.022622 
L 2070.097297 254.396626 
L 2075.416216 253.881745 
L 2080.735135 252.777279 
L 2086.054054 252.613077 
L 2091.372973 256.052368 
L 2096.691892 252.879737 
L 2102.010811 251.16746 
L 2107.32973 254.690199 
L 2112.648649 252.805599 
L 2123.286486 252.04879 
L 2128.605405 250.899657 
L 2133.924324 252.501852 
L 2139.243243 253.471955 
L 2144.562162 252.882648 
L 2149.881081 253.719422 
L 2155.2 251.133034 
L 2160.518919 252.052861 
L 2165.837838 254.190104 
L 2171.156757 254.598557 
L 2176.475676 253.629498 
L 2181.794595 255.885857 
L 2187.113514 251.763984 
L 2192.432432 251.636214 
L 2197.751351 253.478503 
L 2203.07027 252.423503 
L 2208.389189 254.203205 
L 2213.708108 254.576607 
L 2219.027027 253.915087 
L 2224.345946 253.429483 
L 2229.664865 253.147857 
L 2234.983784 252.513227 
L 2240.302703 253.933073 
L 2245.621622 255.760492 
L 2250.940541 255.969477 
L 2256.259459 256.366911 
L 2261.578378 256.002502 
L 2266.897297 255.255733 
L 2272.216216 252.77142 
L 2277.535135 253.653614 
L 2282.854054 255.15738 
L 2288.172973 253.713208 
L 2293.491892 254.785691 
L 2298.810811 254.779373 
L 2304.12973 254.045959 
L 2309.448649 254.686317 
L 2314.767568 257.906763 
L 2320.086486 253.497917 
L 2325.405405 254.597057 
L 2330.724324 254.400566 
L 2336.043243 256.476952 
L 2341.362162 253.255532 
L 2346.681081 250.655513 
L 2352 251.639008 
L 2357.318919 255.294687 
L 2362.637838 257.583934 
L 2367.956757 251.855347 
L 2373.275676 255.703904 
L 2378.594595 255.877951 
L 2383.913514 257.261811 
L 2389.232432 252.41465 
L 2394.551351 255.919394 
L 2399.87027 254.238312 
L 2405.189189 254.492531 
L 2410.508108 254.339131 
L 2415.827027 251.460437 
L 2421.145946 251.566647 
L 2426.464865 253.248292 
L 2431.783784 255.206853 
L 2437.102703 252.066661 
L 2442.421622 253.274455 
L 2447.740541 254.832608 
L 2453.059459 251.586663 
L 2458.378378 252.88311 
L 2463.697297 255.148288 
L 2474.335135 252.390502 
L 2479.654054 253.88941 
L 2484.972973 252.893243 
L 2490.291892 252.30767 
L 2495.610811 254.237428 
L 2500.92973 252.576464 
L 2506.248649 256.88915 
L 2511.567568 255.848363 
L 2516.886486 251.788812 
L 2522.205405 253.977877 
L 2527.524324 252.75523 
L 2532.843243 254.479243 
L 2538.162162 255.508501 
L 2543.481081 251.934065 
L 2548.8 254.516786 
L 2554.118919 251.509215 
L 2559.437838 251.893154 
L 2564.756757 254.34155 
L 2570.075676 253.520326 
L 2575.394595 255.333026 
L 2580.713514 252.288651 
L 2586.032432 252.545373 
L 2591.351351 252.107806 
L 2596.67027 253.699452 
L 2601.989189 252.198934 
L 2607.308108 255.248871 
L 2612.627027 254.505377 
L 2617.945946 254.786517 
L 2623.264865 254.232729 
L 2628.583784 252.040195 
L 2633.902703 254.649495 
L 2639.221622 252.703521 
L 2644.540541 255.463241 
L 2649.859459 255.871621 
L 2655.178378 254.937454 
L 2660.497297 251.637031 
L 2665.816216 257.055995 
L 2671.135135 257.202661 
L 2676.454054 256.670373 
L 2681.772973 255.167132 
L 2687.091892 255.414262 
L 2692.410811 253.575381 
L 2697.72973 254.30198 
L 2703.048649 252.844811 
L 2708.367568 253.058381 
L 2713.686486 253.543537 
L 2719.005405 252.639234 
L 2724.324324 251.88481 
L 2729.643243 251.47749 
L 2734.962162 253.276135 
L 2740.281081 255.213332 
L 2745.6 258.710893 
L 2750.918919 253.613026 
L 2756.237838 255.031294 
L 2761.556757 252.361589 
L 2766.875676 252.169442 
L 2772.194595 253.148671 
L 2777.513514 255.773577 
L 2782.832432 253.96167 
L 2788.151351 253.395513 
L 2793.47027 254.321575 
L 2798.789189 251.709434 
L 2804.108108 256.28607 
L 2809.427027 257.119457 
L 2814.745946 254.452449 
L 2820.064865 257.86305 
L 2825.383784 255.201588 
L 2830.702703 250.568657 
L 2836.021622 254.344219 
L 2841.340541 253.077484 
L 2846.659459 250.733347 
L 2851.978378 253.173328 
L 2862.616216 251.540908 
L 2867.935135 253.695193 
L 2873.254054 258.360264 
L 2878.572973 255.853391 
L 2883.891892 251.972401 
L 2889.210811 254.8486 
L 2894.52973 255.324304 
L 2899.848649 254.036192 
L 2905.167568 254.249716 
L 2910.486486 253.744227 
L 2915.805405 252.949323 
L 2921.124324 252.878673 
L 2926.443243 254.510168 
L 2931.762162 252.697561 
L 2937.081081 252.165409 
L 2942.4 253.138489 
L 2947.718919 252.691135 
L 2953.037838 251.700647 
L 2958.356757 253.871618 
L 2963.675676 254.104079 
L 2968.994595 251.553522 
L 2974.313514 254.051948 
L 2979.632432 257.211983 
L 2984.951351 255.193455 
L 2990.27027 251.678302 
L 2995.589189 256.371836 
L 3000.908108 254.86269 
L 3006.227027 254.480839 
L 3011.545946 252.717632 
L 3016.864865 251.885138 
L 3022.183784 254.854221 
L 3027.502703 253.441925 
L 3032.821622 254.236861 
L 3038.140541 255.292657 
L 3043.459459 257.65335 
L 3048.778378 255.987065 
L 3054.097297 254.78804 
L 3059.416216 254.230712 
L 3064.735135 254.671233 
L 3070.054054 254.494296 
L 3075.372973 252.688547 
L 3080.691892 253.977037 
L 3086.010811 254.152657 
L 3091.32973 252.76056 
L 3096.648649 253.886767 
L 3101.967568 253.270823 
L 3107.286486 255.102848 
L 3112.605405 253.307041 
L 3117.924324 253.336189 
L 3123.243243 251.978888 
L 3128.562162 253.307927 
L 3133.881081 254.383754 
L 3139.2 252.815907 
L 3144.518919 255.101202 
L 3149.837838 255.084591 
L 3155.156757 251.526708 
L 3160.475676 254.200693 
L 3165.794595 252.982208 
L 3171.113514 253.53084 
L 3176.432432 250.949363 
L 3181.751351 254.041714 
L 3187.07027 256.659391 
L 3192.389189 255.268358 
L 3197.708108 251.656079 
L 3203.027027 252.91164 
L 3208.345946 253.202683 
L 3213.664865 254.158736 
L 3218.983784 252.499128 
L 3224.302703 250.017068 
L 3229.621622 252.369527 
L 3234.940541 255.227788 
L 3240.259459 257.67962 
L 3245.578378 255.205682 
L 3250.897297 255.41999 
L 3256.216216 254.65083 
L 3261.535135 253.308314 
L 3266.854054 255.870956 
L 3272.172973 255.564522 
L 3277.491892 255.540857 
L 3282.810811 254.316283 
L 3288.12973 251.277464 
L 3293.448649 254.405735 
L 3298.767568 251.377686 
L 3304.086486 251.058753 
L 3309.405405 256.116309 
L 3314.724324 252.414487 
L 3320.043243 257.623355 
L 3325.362162 255.176821 
L 3330.681081 255.325388 
L 3336 256.460486 
L 3341.318919 254.663618 
L 3346.637838 252.364636 
L 3351.956757 253.309163 
L 3357.275676 253.14631 
L 3362.594595 254.706395 
L 3367.913514 253.47852 
L 3373.232432 257.181273 
L 3378.551351 255.589676 
L 3383.87027 255.646869 
L 3389.189189 256.027891 
L 3394.508108 254.746796 
L 3399.827027 255.389405 
L 3405.145946 251.259687 
L 3410.464865 254.191703 
L 3415.783784 252.589127 
L 3421.102703 253.586026 
L 3426.421622 250.453597 
L 3431.740541 254.885998 
L 3437.059459 254.978257 
L 3442.378378 251.318417 
L 3447.697297 253.79188 
L 3453.016216 254.014696 
L 3458.335135 256.457393 
L 3463.654054 255.317096 
L 3468.972973 255.827272 
L 3474.291892 253.957032 
L 3479.610811 252.624917 
L 3484.92973 252.488727 
L 3490.248649 251.799645 
L 3495.567568 253.675182 
L 3500.886486 254.468272 
L 3506.205405 255.993314 
L 3511.524324 254.632864 
L 3516.843243 250.851626 
L 3522.162162 251.665671 
L 3527.481081 253.211738 
L 3532.8 251.459117 
L 3538.118919 252.507307 
L 3543.437838 251.227601 
L 3548.756757 255.192024 
L 3554.075676 253.654248 
L 3559.394595 252.741192 
L 3564.713514 257.775537 
L 3570.032432 255.644569 
L 3575.351351 251.943151 
L 3580.67027 256.786509 
L 3585.989189 255.822195 
L 3591.308108 253.568348 
L 3596.627027 252.055562 
L 3601.945946 254.381849 
L 3607.264865 251.0368 
L 3612.583784 251.830341 
L 3617.902703 251.705959 
L 3623.221622 252.317431 
L 3628.540541 254.456482 
L 3633.859459 254.814546 
L 3639.178378 255.513938 
L 3644.497297 253.989019 
L 3649.816216 254.497802 
L 3655.135135 255.410383 
L 3660.454054 252.27197 
L 3665.772973 251.249103 
L 3671.091892 252.454321 
L 3676.410811 253.255846 
L 3681.72973 253.929474 
L 3687.048649 253.04277 
L 3692.367568 254.785714 
L 3697.686486 253.963635 
L 3703.005405 258.224734 
L 3708.324324 256.189831 
L 3713.643243 252.18359 
L 3718.962162 256.649971 
L 3724.281081 257.579215 
L 3734.918919 251.675264 
L 3740.237838 253.467212 
L 3745.556757 253.493343 
L 3750.875676 252.706188 
L 3756.194595 257.565895 
L 3761.513514 255.095364 
L 3766.832432 252.296162 
L 3772.151351 251.491764 
L 3777.47027 253.529302 
L 3782.789189 252.565639 
L 3788.108108 254.537602 
L 3793.427027 251.378515 
L 3798.745946 254.447791 
L 3804.064865 253.88827 
L 3809.383784 253.538461 
L 3814.702703 255.914378 
L 3820.021622 252.334216 
L 3825.340541 253.768997 
L 3830.659459 255.57924 
L 3835.978378 256.216279 
L 3841.297297 255.169238 
L 3846.616216 258.266825 
L 3851.935135 254.828788 
L 3857.254054 257.343656 
L 3862.572973 255.205495 
L 3867.891892 257.691367 
L 3873.210811 253.622819 
L 3878.52973 256.160797 
L 3883.848649 253.361646 
L 3889.167568 252.983199 
L 3894.486486 251.154544 
L 3899.805405 255.223677 
L 3905.124324 256.685178 
L 3910.443243 255.377472 
L 3915.762162 257.031344 
L 3921.081081 254.353686 
L 3931.718919 254.955298 
L 3937.037838 252.471657 
L 3942.356757 258.974419 
L 3947.675676 256.033957 
L 3952.994595 250.403661 
L 3958.313514 253.38126 
L 3963.632432 253.962879 
L 3968.951351 254.667901 
L 3974.27027 254.022468 
L 3979.589189 252.767634 
L 3984.908108 252.516099 
L 3990.227027 252.931667 
L 3995.545946 251.441561 
L 4000.864865 253.25033 
L 4006.183784 250.669051 
L 4011.502703 252.262157 
L 4016.821622 252.358975 
L 4022.140541 253.228811 
L 4027.459459 253.440491 
L 4032.778378 254.728306 
L 4038.097297 253.554979 
L 4043.416216 256.334523 
L 4048.735135 255.338315 
L 4054.054054 252.496226 
L 4059.372973 251.654506 
L 4064.691892 256.453305 
L 4070.010811 257.020246 
L 4075.32973 256.771121 
L 4080.648649 255.588309 
L 4085.967568 255.996553 
L 4091.286486 254.626706 
L 4096.605405 258.141981 
L 4101.924324 253.77767 
L 4107.243243 253.105863 
L 4112.562162 253.531558 
L 4117.881081 252.07468 
L 4123.2 251.281203 
L 4128.518919 254.855055 
L 4139.156757 252.474442 
L 4144.475676 252.709668 
L 4149.794595 252.642246 
L 4155.113514 251.067229 
L 4160.432432 253.23264 
L 4165.751351 253.704049 
L 4171.07027 254.996851 
L 4176.389189 252.05999 
L 4181.708108 254.054475 
L 4187.027027 252.537476 
L 4192.345946 253.613553 
L 4197.664865 253.410953 
L 4202.983784 253.465017 
L 4208.302703 255.804182 
L 4213.621622 251.330112 
L 4218.940541 252.616235 
L 4224.259459 251.538853 
L 4229.578378 251.340949 
L 4234.897297 254.699448 
L 4240.216216 255.573335 
L 4245.535135 255.490232 
L 4250.854054 252.756638 
L 4256.172973 254.502164 
L 4261.491892 254.471916 
L 4266.810811 254.703862 
L 4272.12973 256.021997 
L 4277.448649 253.287548 
L 4282.767568 256.662964 
L 4288.086486 254.801491 
L 4293.405405 253.960556 
L 4298.724324 253.260655 
L 4304.043243 255.904405 
L 4309.362162 257.055289 
L 4314.681081 254.116166 
L 4320 255.562658 
L 4325.318919 252.432898 
L 4330.637838 256.533497 
L 4335.956757 254.395323 
L 4341.275676 254.630933 
L 4346.594595 254.489469 
L 4351.913514 255.198479 
L 4362.551351 252.899457 
L 4367.87027 254.014647 
L 4373.189189 252.451789 
L 4378.508108 255.180772 
L 4383.827027 252.012239 
L 4389.145946 252.964329 
L 4394.464865 251.617111 
L 4399.783784 252.167386 
L 4410.421622 256.433914 
L 4415.740541 253.911537 
L 4421.059459 251.858437 
L 4426.378378 253.667259 
L 4431.697297 252.373769 
L 4437.016216 251.570049 
L 4442.335135 251.91292 
L 4447.654054 255.880272 
L 4452.972973 256.558697 
L 4458.291892 256.923928 
L 4463.610811 254.714952 
L 4468.92973 254.331612 
L 4474.248649 255.26092 
L 4479.567568 252.819175 
L 4484.886486 251.483876 
L 4490.205405 254.202624 
L 4495.524324 252.831297 
L 4500.843243 256.925318 
L 4506.162162 255.842752 
L 4511.481081 252.779099 
L 4516.8 255.633685 
L 4522.118919 257.859587 
L 4527.437838 254.794661 
L 4532.756757 252.616616 
L 4538.075676 252.560566 
L 4543.394595 255.040753 
L 4548.713514 250.466786 
L 4554.032432 252.201574 
L 4559.351351 254.722575 
L 4564.67027 251.035701 
L 4569.989189 253.219739 
L 4575.308108 253.601986 
L 4580.627027 255.474802 
L 4585.945946 256.080638 
L 4591.264865 255.413477 
L 4596.583784 256.882364 
L 4601.902703 252.835588 
L 4607.221622 252.631982 
L 4612.540541 251.874708 
L 4617.859459 254.600996 
L 4623.178378 250.889905 
L 4628.497297 254.969868 
L 4633.816216 253.303412 
L 4639.135135 252.608341 
L 4644.454054 251.343359 
L 4649.772973 251.991475 
L 4655.091892 252.459695 
L 4660.410811 252.363086 
L 4665.72973 251.921405 
L 4671.048649 253.971003 
L 4676.367568 251.693613 
L 4681.686486 251.719727 
L 4687.005405 254.177453 
L 4692.324324 254.336139 
L 4697.643243 251.715706 
L 4702.962162 255.925959 
L 4708.281081 254.25315 
L 4713.6 254.250076 
L 4724.237838 253.260897 
L 4729.556757 255.958312 
L 4734.875676 255.985359 
L 4740.194595 255.690369 
L 4745.513514 251.777277 
L 4750.832432 251.470061 
L 4756.151351 252.180854 
L 4761.47027 251.971864 
L 4766.789189 252.431723 
L 4772.108108 252.365162 
L 4782.745946 253.947074 
L 4788.064865 254.077358 
L 4793.383784 253.352815 
L 4798.702703 255.750304 
L 4809.340541 253.368816 
L 4814.659459 251.777425 
L 4819.978378 253.283974 
L 4825.297297 254.964408 
L 4830.616216 255.050357 
L 4835.935135 255.896522 
L 4841.254054 254.878496 
L 4846.572973 254.015754 
L 4851.891892 254.756941 
L 4857.210811 252.324572 
L 4862.52973 253.595787 
L 4867.848649 251.120397 
L 4873.167568 253.81972 
L 4878.486486 256.864604 
L 4883.805405 253.80283 
L 4889.124324 253.842222 
L 4894.443243 253.604789 
L 4899.762162 253.736106 
L 4905.081081 254.638601 
L 4910.4 254.87465 
L 4915.718919 253.976621 
L 4921.037838 251.712016 
L 4926.356757 255.273702 
L 4931.675676 252.114165 
L 4936.994595 250.798835 
L 4942.313514 253.751981 
L 4947.632432 256.242145 
L 4952.951351 255.684923 
L 4958.27027 253.287434 
L 4963.589189 253.127056 
L 4968.908108 253.78238 
L 4974.227027 253.726263 
L 4979.545946 252.776322 
L 4984.864865 253.55379 
L 4990.183784 253.607685 
L 4995.502703 253.962001 
L 5000.821622 255.209581 
L 5006.140541 253.60836 
L 5011.459459 255.203675 
L 5016.778378 257.389554 
L 5022.097297 255.56474 
L 5027.416216 251.864186 
L 5032.735135 254.045017 
L 5038.054054 251.308093 
L 5048.691892 252.203159 
L 5054.010811 251.742889 
L 5059.32973 251.735032 
L 5064.648649 252.419322 
L 5069.967568 252.20021 
L 5075.286486 253.784111 
L 5080.605405 252.960569 
L 5085.924324 253.076525 
L 5091.243243 253.583729 
L 5096.562162 252.631314 
L 5101.881081 252.535723 
L 5107.2 252.952518 
L 5112.518919 252.662233 
L 5117.837838 254.594387 
L 5123.156757 255.380798 
L 5128.475676 252.406628 
L 5133.794595 253.344886 
L 5139.113514 254.614508 
L 5144.432432 250.92586 
L 5149.751351 254.475975 
L 5155.07027 257.418429 
L 5160.389189 250.41931 
L 5165.708108 252.876827 
L 5171.027027 251.76649 
L 5176.345946 251.902715 
L 5181.664865 254.430921 
L 5186.983784 255.6574 
L 5192.302703 253.405443 
L 5197.621622 253.274449 
L 5202.940541 254.28313 
L 5208.259459 252.561103 
L 5213.578378 254.531388 
L 5224.216216 255.387826 
L 5229.535135 255.618266 
L 5234.854054 253.048629 
L 5240.172973 251.535012 
L 5245.491892 254.09845 
L 5250.810811 257.00107 
L 5256.12973 257.398739 
L 5261.448649 256.359018 
L 5266.767568 253.838835 
L 5272.086486 251.616047 
L 5277.405405 251.476066 
L 5282.724324 252.230301 
L 5288.043243 252.618488 
L 5293.362162 253.435418 
L 5298.681081 253.555415 
L 5304 254.685468 
L 5309.318919 254.223495 
L 5314.637838 255.107015 
L 5319.956757 254.738832 
L 5325.275676 254.959625 
L 5330.594595 253.053278 
L 5335.913514 254.526588 
L 5341.232432 254.616942 
L 5346.551351 253.876134 
L 5351.87027 254.783019 
L 5357.189189 256.27052 
L 5362.508108 252.126432 
L 5367.827027 252.934127 
L 5373.145946 252.533443 
L 5378.464865 251.424874 
L 5383.783784 254.74602 
L 5389.102703 254.138499 
L 5394.421622 250.451172 
L 5399.740541 251.896626 
L 5405.059459 252.261433 
L 5410.378378 255.052726 
L 5415.697297 251.651415 
L 5421.016216 253.674104 
L 5426.335135 254.3217 
L 5431.654054 254.625066 
L 5436.972973 253.350873 
L 5442.291892 253.389736 
L 5447.610811 251.992054 
L 5452.92973 253.948722 
L 5458.248649 252.510432 
L 5463.567568 256.314498 
L 5468.886486 255.199715 
L 5474.205405 254.200074 
L 5479.524324 260.073867 
L 5484.843243 256.191177 
L 5490.162162 255.459362 
L 5495.481081 256.642366 
L 5500.8 251.526411 
L 5506.118919 255.502255 
L 5511.437838 254.780129 
L 5516.756757 251.926345 
L 5522.075676 252.452344 
L 5527.394595 253.529726 
L 5532.713514 253.384921 
L 5538.032432 251.242846 
L 5543.351351 253.733312 
L 5548.67027 253.931413 
L 5553.989189 254.624176 
L 5559.308108 254.50663 
L 5564.627027 253.797794 
L 5569.945946 253.889087 
L 5575.264865 252.390645 
L 5580.583784 253.362486 
L 5585.902703 253.84044 
L 5591.221622 255.189975 
L 5596.540541 252.407773 
L 5601.859459 252.25733 
L 5607.178378 253.634485 
L 5612.497297 251.800471 
L 5617.816216 254.910221 
L 5623.135135 251.155044 
L 5628.454054 252.235166 
L 5633.772973 251.909379 
L 5639.091892 249.326212 
L 5644.410811 254.892587 
L 5649.72973 255.283603 
L 5655.048649 255.076752 
L 5660.367568 255.295094 
L 5665.686486 254.047575 
L 5671.005405 251.946466 
L 5676.324324 252.265742 
L 5681.643243 255.06682 
L 5686.962162 254.721854 
L 5692.281081 251.767441 
L 5697.6 250.91844 
L 5702.918919 252.671607 
L 5708.237838 257.945266 
L 5713.556757 255.371648 
L 5718.875676 254.70372 
L 5724.194595 256.210562 
L 5729.513514 257.440033 
L 5734.832432 255.369497 
L 5740.151351 254.491025 
L 5745.47027 255.9759 
L 5750.789189 256.576858 
L 5756.108108 253.63379 
L 5761.427027 253.624311 
L 5766.745946 251.294572 
L 5772.064865 252.319181 
L 5777.383784 250.50915 
L 5782.702703 252.886178 
L 5788.021622 252.213623 
L 5793.340541 254.934195 
L 5798.659459 252.493222 
L 5803.978378 254.718638 
L 5809.297297 256.618992 
L 5814.616216 255.133 
L 5819.935135 253.135773 
L 5825.254054 254.693046 
L 5830.572973 254.458599 
L 5835.891892 254.870596 
L 5841.210811 253.84818 
L 5846.52973 254.676533 
L 5851.848649 253.144077 
L 5857.167568 253.270032 
L 5862.486486 252.037247 
L 5873.124324 255.480347 
L 5878.443243 257.890074 
L 5883.762162 255.012828 
L 5889.081081 252.535862 
L 5894.4 253.267459 
L 5899.718919 255.229416 
L 5905.037838 254.604733 
L 5910.356757 255.121018 
L 5915.675676 252.638719 
L 5920.994595 252.392944 
L 5926.313514 253.079336 
L 5931.632432 254.950887 
L 5936.951351 251.567033 
L 5942.27027 253.165315 
L 5947.589189 251.071008 
L 5952.908108 251.720343 
L 5958.227027 251.954784 
L 5963.545946 250.851928 
L 5968.864865 251.520416 
L 5974.183784 254.118847 
L 5979.502703 252.593855 
L 5984.821622 252.025811 
L 5990.140541 253.812974 
L 5995.459459 254.616032 
L 6000.778378 253.29969 
L 6006.097297 255.087638 
L 6011.416216 251.84936 
L 6016.735135 252.593113 
L 6022.054054 255.339458 
L 6027.372973 250.975665 
L 6032.691892 255.682001 
L 6038.010811 255.141731 
L 6043.32973 253.667146 
L 6048.648649 252.722296 
L 6053.967568 252.177958 
L 6059.286486 253.484158 
L 6064.605405 252.939692 
L 6069.924324 253.891846 
L 6075.243243 251.634743 
L 6080.562162 254.258247 
L 6085.881081 256.526166 
L 6091.2 255.632581 
L 6091.2 255.632581 
" style="fill:none;stroke:#000004;stroke-width:3;"/>
   </g>
   <g id="line2d_22">
    <path clip-path="url(#p806043c232)" d="M 777.6 254.521017 
L 804.194595 254.521017 
L 809.513514 222.01655 
L 814.832432 282.143365 
L 820.151351 254.521017 
L 857.383784 254.521017 
L 862.702703 226.66686 
L 868.021622 254.752829 
L 873.340541 254.521017 
L 883.978378 254.521017 
L 889.297297 254.289206 
L 894.616216 254.521017 
L 899.935135 246.874115 
L 905.254054 254.521017 
L 910.572973 254.521017 
L 915.891892 221.217936 
L 921.210811 254.521017 
L 926.52973 276.711298 
L 931.848649 254.521017 
L 953.124324 254.521017 
L 958.443243 269.804163 
L 963.762162 239.237872 
L 969.081081 254.521017 
L 974.4 232.330736 
L 979.718919 254.521017 
L 1000.994595 254.521017 
L 1006.313514 267.459633 
L 1011.632432 254.521017 
L 1022.27027 254.521017 
L 1027.589189 253.5963 
L 1032.908108 254.521017 
L 1059.502703 254.521017 
L 1064.821622 226.125732 
L 1070.140541 279.218251 
L 1075.459459 276.728946 
L 1080.778378 232.313089 
L 1086.097297 298.752034 
L 1091.416216 210.29 
L 1096.735135 254.521017 
L 1102.054054 256.832147 
L 1107.372973 254.521017 
L 1128.648649 254.521017 
L 1133.967568 252.440978 
L 1139.286486 254.521017 
L 1149.924324 254.521017 
L 1155.243243 229.592694 
L 1160.562162 254.521017 
L 1165.881081 254.521017 
L 1171.2 282.222819 
L 1176.518919 226.819216 
L 1181.837838 254.521017 
L 1192.475676 254.521017 
L 1197.794595 258.671624 
L 1203.113514 254.521017 
L 1250.983784 254.521017 
L 1256.302703 270.677903 
L 1261.621622 254.521017 
L 1266.940541 254.521017 
L 1272.259459 254.290029 
L 1277.578378 254.521017 
L 1304.172973 254.521017 
L 1309.491892 249.902324 
L 1314.810811 254.521017 
L 1330.767568 254.521017 
L 1336.086486 268.152022 
L 1341.405405 250.129435 
L 1346.724324 254.521017 
L 1352.043243 219.915088 
L 1357.362162 254.521017 
L 1368 254.521017 
L 1373.318919 268.349685 
L 1378.637838 254.521017 
L 1447.783784 254.521017 
L 1453.102703 223.892009 
L 1458.421622 254.521017 
L 1463.740541 293.455987 
L 1469.059459 234.920279 
L 1474.378378 254.521017 
L 1479.697297 254.290638 
L 1485.016216 254.521017 
L 1532.886486 254.521017 
L 1538.205405 275.967947 
L 1543.524324 254.521017 
L 1591.394595 254.521017 
L 1596.713514 233.074087 
L 1602.032432 254.521017 
L 1607.351351 268.583408 
L 1612.67027 240.458627 
L 1617.989189 254.521017 
L 1628.627027 254.521017 
L 1633.945946 274.352134 
L 1639.264865 234.6899 
L 1644.583784 254.521017 
L 1671.178378 254.521017 
L 1676.497297 252.217505 
L 1681.816216 233.812124 
L 1687.135135 254.521017 
L 1697.772973 254.521017 
L 1703.091892 273.157181 
L 1708.410811 235.884853 
L 1713.72973 254.521017 
L 1724.367568 254.521017 
L 1729.686486 273.157181 
L 1735.005405 235.884853 
L 1740.324324 254.521017 
L 1820.108108 254.521017 
L 1825.427027 243.033698 
L 1830.745946 267.847474 
L 1836.064865 241.19456 
L 1841.383784 254.521017 
L 1846.702703 254.521017 
L 1852.021622 231.125742 
L 1857.340541 266.212148 
L 1862.659459 254.521017 
L 1873.297297 254.521017 
L 1878.616216 220.858229 
L 1883.935135 234.648721 
L 1889.254054 254.521017 
L 1894.572973 254.749222 
L 1899.891892 254.521017 
L 1921.167568 254.521017 
L 1926.486486 238.558622 
L 1931.805405 254.521017 
L 1947.762162 254.521017 
L 1953.081081 247.687378 
L 1958.4 254.521017 
L 1963.718919 254.521017 
L 1969.037838 266.368806 
L 1974.356757 230.61127 
L 1979.675676 254.521017 
L 1995.632432 254.521017 
L 2000.951351 302.166351 
L 2006.27027 206.875683 
L 2011.589189 254.521017 
L 2027.545946 254.521017 
L 2032.864865 302.166351 
L 2038.183784 200.281571 
L 2043.502703 254.521017 
L 2070.097297 254.521017 
L 2075.416216 249.975752 
L 2080.735135 254.521017 
L 2086.054054 280.683053 
L 2091.372973 254.521017 
L 2123.286486 254.521017 
L 2128.605405 228.358981 
L 2133.924324 254.521017 
L 2139.243243 256.793405 
L 2144.562162 254.521017 
L 2160.518919 254.521017 
L 2165.837838 260.204127 
L 2171.156757 254.521017 
L 2197.751351 254.521017 
L 2203.07027 277.2841 
L 2208.389189 254.521017 
L 2240.302703 254.521017 
L 2245.621622 231.757935 
L 2250.940541 254.521017 
L 2256.259459 274.549937 
L 2261.578378 234.492098 
L 2266.897297 254.521017 
L 2272.216216 254.521017 
L 2277.535135 276.144778 
L 2288.172973 232.897256 
L 2293.491892 224.548673 
L 2298.810811 254.521017 
L 2309.448649 254.521017 
L 2314.767568 284.493361 
L 2320.086486 254.521017 
L 2325.405405 234.076111 
L 2330.724324 254.521017 
L 2367.956757 254.521017 
L 2373.275676 268.828296 
L 2378.594595 240.667641 
L 2383.913514 254.521017 
L 2405.189189 254.521017 
L 2410.508108 232.755681 
L 2415.827027 254.521017 
L 2421.145946 254.521017 
L 2426.464865 242.297664 
L 2431.783784 254.521017 
L 2437.102703 254.521017 
L 2442.421622 273.994506 
L 2447.740541 254.521017 
L 2453.059459 254.747664 
L 2458.378378 254.521017 
L 2484.972973 254.521017 
L 2490.291892 264.49829 
L 2495.610811 254.521017 
L 2500.92973 256.109179 
L 2506.248649 269.734079 
L 2511.567568 239.307955 
L 2516.886486 254.521017 
L 2522.205405 254.521017 
L 2527.524324 268.59802 
L 2532.843243 254.521017 
L 2564.756757 254.521017 
L 2570.075676 270.664529 
L 2575.394595 238.377505 
L 2580.713514 254.521017 
L 2601.989189 254.521017 
L 2607.308108 240.444014 
L 2612.627027 254.521017 
L 2644.540541 254.521017 
L 2649.859459 257.925025 
L 2655.178378 254.521017 
L 2660.497297 254.521017 
L 2665.816216 298.417385 
L 2671.135135 239.034107 
L 2676.454054 254.521017 
L 2724.324324 254.521017 
L 2729.643243 226.11156 
L 2734.962162 254.521017 
L 2740.281081 250.43634 
L 2745.6 254.521017 
L 2756.237838 254.521017 
L 2761.556757 259.740607 
L 2766.875676 254.521017 
L 2788.151351 254.521017 
L 2793.47027 242.043673 
L 2798.789189 254.521017 
L 2804.108108 284.036697 
L 2809.427027 237.936682 
L 2814.745946 254.521017 
L 2820.064865 279.521068 
L 2825.383784 254.521017 
L 2846.659459 254.521017 
L 2851.978378 277.299823 
L 2857.297297 254.521017 
L 2867.935135 254.521017 
L 2873.254054 265.01581 
L 2878.572973 244.026224 
L 2883.891892 266.385467 
L 2889.210811 254.521017 
L 2905.167568 254.521017 
L 2910.486486 246.761982 
L 2915.805405 254.521017 
L 2921.124324 254.521017 
L 2926.443243 248.363495 
L 2931.762162 233.794319 
L 2937.081081 254.521017 
L 2953.037838 254.521017 
L 2958.356757 263.171171 
L 2963.675676 254.521017 
L 2984.951351 254.521017 
L 2990.27027 220.870813 
L 2995.589189 254.521017 
L 3011.545946 254.521017 
L 3016.864865 248.166801 
L 3022.183784 254.521017 
L 3027.502703 254.521017 
L 3032.821622 258.378478 
L 3038.140541 254.521017 
L 3043.459459 278.832709 
L 3048.778378 251.791685 
L 3054.097297 281.162161 
L 3059.416216 227.879873 
L 3064.735135 254.521017 
L 3096.648649 254.521017 
L 3101.967568 281.162161 
L 3112.605405 227.879873 
L 3117.924324 254.521017 
L 3123.243243 254.521017 
L 3128.562162 268.402452 
L 3133.881081 254.521017 
L 3176.432432 254.521017 
L 3181.751351 250.650585 
L 3187.07027 262.946716 
L 3192.389189 246.095318 
L 3197.708108 247.694304 
L 3203.027027 254.521017 
L 3218.983784 254.521017 
L 3224.302703 229.754369 
L 3229.621622 254.521017 
L 3234.940541 254.521017 
L 3240.259459 264.965917 
L 3245.578378 254.521017 
L 3250.897297 245.43791 
L 3256.216216 263.604124 
L 3261.535135 245.43791 
L 3266.854054 254.521017 
L 3272.172973 254.521017 
L 3277.491892 271.10357 
L 3282.810811 254.521017 
L 3288.12973 254.521017 
L 3293.448649 284.800173 
L 3298.767568 224.241862 
L 3304.086486 256.794628 
L 3309.405405 274.09431 
L 3314.724324 254.521017 
L 3320.043243 270.251466 
L 3325.362162 238.790568 
L 3330.681081 257.710806 
L 3336 264.096175 
L 3341.318919 254.521017 
L 3346.637838 254.521017 
L 3351.956757 258.39915 
L 3357.275676 254.521017 
L 3405.145946 254.521017 
L 3410.464865 252.467711 
L 3415.783784 254.521017 
L 3437.059459 254.521017 
L 3442.378378 245.400045 
L 3447.697297 254.521017 
L 3453.016216 254.521017 
L 3458.335135 253.837262 
L 3463.654054 261.816691 
L 3468.972973 254.521017 
L 3474.291892 245.630087 
L 3479.610811 254.521017 
L 3500.886486 254.521017 
L 3506.205405 229.484325 
L 3511.524324 256.794628 
L 3516.843243 254.521017 
L 3548.756757 254.521017 
L 3554.075676 256.795118 
L 3559.394595 254.521017 
L 3564.713514 278.884611 
L 3570.032432 230.157423 
L 3575.351351 262.939451 
L 3580.67027 254.521017 
L 3601.945946 254.521017 
L 3607.264865 246.102583 
L 3612.583784 254.748454 
L 3617.902703 254.521017 
L 3623.221622 254.521017 
L 3628.540541 254.29358 
L 3633.859459 254.521017 
L 3724.281081 254.521017 
L 3729.6 271.592405 
L 3734.918919 272.076427 
L 3740.237838 236.965608 
L 3745.556757 254.521017 
L 3750.875676 254.521017 
L 3756.194595 270.479272 
L 3761.513514 238.562763 
L 3766.832432 254.521017 
L 3782.789189 254.521017 
L 3788.108108 277.325924 
L 3793.427027 231.71611 
L 3798.745946 240.179196 
L 3804.064865 291.667745 
L 3809.383784 254.521017 
L 3814.702703 254.521017 
L 3820.021622 239.008317 
L 3825.340541 259.537335 
L 3830.659459 254.521017 
L 3835.978378 276.895478 
L 3841.297297 239.67551 
L 3846.616216 254.521017 
L 3851.935135 269.823641 
L 3857.254054 254.521017 
L 3862.572973 259.093276 
L 3867.891892 289.794093 
L 3873.210811 219.247942 
L 3878.52973 249.720198 
L 3883.848649 254.749578 
L 3889.167568 254.521017 
L 3905.124324 254.521017 
L 3910.443243 264.125054 
L 3915.762162 247.431477 
L 3921.081081 254.521017 
L 3937.037838 254.521017 
L 3942.356757 290.704764 
L 3947.675676 207.597708 
L 3952.994595 254.521017 
L 3984.908108 254.521017 
L 3990.227027 254.749405 
L 3995.545946 254.521017 
L 4011.502703 254.521017 
L 4016.821622 254.29263 
L 4022.140541 252.694096 
L 4027.459459 254.521017 
L 4032.778378 256.576326 
L 4038.097297 262.517697 
L 4043.416216 254.521017 
L 4070.010811 254.521017 
L 4075.32973 277.631255 
L 4080.648649 249.711739 
L 4085.967568 254.521017 
L 4091.286486 254.521017 
L 4096.605405 260.475686 
L 4101.924324 248.566348 
L 4107.243243 252.689489 
L 4112.562162 254.749941 
L 4117.881081 254.521017 
L 4155.113514 254.521017 
L 4160.432432 225.259175 
L 4165.751351 283.096103 
L 4171.07027 225.945931 
L 4181.708108 283.096103 
L 4187.027027 254.521017 
L 4192.345946 256.810378 
L 4197.664865 254.521017 
L 4213.621622 254.521017 
L 4218.940541 223.65657 
L 4224.259459 254.521017 
L 4234.897297 254.521017 
L 4240.216216 233.311308 
L 4245.535135 254.521017 
L 4250.854054 270.024998 
L 4256.172973 258.400577 
L 4261.491892 254.292768 
L 4266.810811 254.521017 
L 4272.12973 254.521017 
L 4277.448649 268.910363 
L 4282.767568 254.521017 
L 4288.086486 273.737443 
L 4293.405405 254.521017 
L 4298.724324 246.738715 
L 4304.043243 270.778841 
L 4309.362162 254.521017 
L 4314.681081 273.099412 
L 4320 254.521017 
L 4325.318919 284.176809 
L 4330.637838 229.227879 
L 4335.956757 254.521017 
L 4341.275676 272.219814 
L 4346.594595 254.521017 
L 4351.913514 254.521017 
L 4357.232432 219.38246 
L 4362.551351 254.521017 
L 4367.87027 248.790571 
L 4373.189189 254.521017 
L 4421.059459 254.521017 
L 4426.378378 243.06948 
L 4431.697297 242.624621 
L 4437.016216 254.521017 
L 4447.654054 254.521017 
L 4452.972973 238.984439 
L 4458.291892 285.846118 
L 4463.610811 349.753481 
L 4468.92973 254.752097 
L 4474.248649 221.067519 
L 4479.567568 287.974515 
L 4484.886486 236.281394 
L 4490.205405 234.010517 
L 4495.524324 262.58216 
L 4500.843243 254.521017 
L 4522.118919 254.521017 
L 4527.437838 218.409324 
L 4532.756757 244.881574 
L 4538.075676 254.521017 
L 4543.394595 237.558708 
L 4548.713514 241.931587 
L 4554.032432 254.521017 
L 4564.67027 254.521017 
L 4569.989189 233.72423 
L 4575.308108 275.317804 
L 4580.627027 233.72423 
L 4585.945946 254.521017 
L 4596.583784 254.521017 
L 4601.902703 231.259005 
L 4607.221622 254.521017 
L 4612.540541 239.951392 
L 4617.859459 254.521017 
L 4623.178378 230.434208 
L 4628.497297 254.521017 
L 4633.816216 239.551254 
L 4639.135135 254.521017 
L 4660.410811 254.521017 
L 4665.72973 230.522912 
L 4671.048649 254.521017 
L 4676.367568 254.74716 
L 4681.686486 254.521017 
L 4697.643243 254.521017 
L 4702.962162 349.246783 
L 4708.281081 254.521017 
L 4729.556757 254.521017 
L 4734.875676 267.992374 
L 4740.194595 257.491599 
L 4745.513514 254.521017 
L 4750.832432 254.521017 
L 4756.151351 238.079079 
L 4761.47027 254.521017 
L 4883.805405 254.521017 
L 4889.124324 246.993692 
L 4894.443243 254.521017 
L 4942.313514 254.521017 
L 4947.632432 307.325584 
L 4952.951351 301.375029 
L 4958.27027 254.521017 
L 4995.502703 254.521017 
L 5000.821622 161.933413 
L 5006.140541 254.521017 
L 5011.459459 254.521017 
L 5016.778378 249.958558 
L 5022.097297 254.521017 
L 5075.286486 254.521017 
L 5080.605405 252.012506 
L 5085.924324 254.521017 
L 5107.2 254.521017 
L 5112.518919 212.194413 
L 5117.837838 254.521017 
L 5155.07027 254.521017 
L 5160.389189 291.148678 
L 5165.708108 254.521017 
L 5208.259459 254.521017 
L 5213.578378 207.678481 
L 5218.897297 254.521017 
L 5245.491892 254.521017 
L 5250.810811 234.347278 
L 5256.12973 397.930909 
L 5261.448649 329.855371 
L 5266.767568 254.521017 
L 5293.362162 254.521017 
L 5298.681081 90.949091 
L 5304 254.521017 
L 5431.654054 254.521017 
L 5436.972973 256.797668 
L 5442.291892 254.521017 
L 5463.567568 254.521017 
L 5468.886486 235.412392 
L 5474.205405 254.521017 
L 5479.524324 386.713107 
L 5484.843243 296.954174 
L 5490.162162 254.521017 
L 5500.8 254.521017 
L 5506.118919 174.869715 
L 5511.437838 254.521017 
L 5543.351351 254.521017 
L 5548.67027 185.26076 
L 5553.989189 254.521017 
L 5569.945946 254.521017 
L 5575.264865 246.777564 
L 5580.583784 254.521017 
L 5617.816216 254.521017 
L 5623.135135 246.328254 
L 5628.454054 254.521017 
L 5697.6 254.521017 
L 5702.918919 254.748508 
L 5708.237838 362.218749 
L 5713.556757 325.780482 
L 5718.875676 254.521017 
L 5724.194595 254.521017 
L 5729.513514 242.726317 
L 5734.832432 254.521017 
L 5740.151351 254.521017 
L 5745.47027 216.452395 
L 5750.789189 125.427143 
L 5756.108108 263.624676 
L 5761.427027 254.521017 
L 5777.383784 254.521017 
L 5782.702703 277.314588 
L 5788.021622 254.521017 
L 5825.254054 254.521017 
L 5830.572973 392.32912 
L 5835.891892 139.555875 
L 5841.210811 254.521017 
L 5851.848649 254.521017 
L 5857.167568 369.48616 
L 5862.486486 139.555875 
L 5867.805405 254.521017 
L 5873.124324 277.413637 
L 5878.443243 335.040179 
L 5883.762162 268.849075 
L 5889.081081 254.521017 
L 5894.4 254.521017 
L 5899.718919 260.998184 
L 5905.037838 258.687027 
L 5910.356757 254.521017 
L 5915.675676 254.058045 
L 5920.994595 254.521017 
L 5926.313514 254.521017 
L 5931.632432 241.56611 
L 5936.951351 254.521017 
L 5963.545946 254.521017 
L 5968.864865 237.195759 
L 5974.183784 254.521017 
L 5995.459459 254.521017 
L 6000.778378 223.407519 
L 6006.097297 254.521017 
L 6011.416216 238.654113 
L 6016.735135 254.521017 
L 6059.286486 254.521017 
L 6064.605405 232.026518 
L 6069.924324 254.521017 
L 6080.562162 254.521017 
L 6085.881081 289.431053 
L 6091.2 247.391784 
L 6091.2 247.391784 
" style="fill:none;stroke:#b73779;stroke-width:3;"/>
   </g>
   <g id="line2d_23">
    <path clip-path="url(#p806043c232)" d="M 777.6 254.521017 
L 6091.2 254.521017 
" style="fill:none;opacity:0.7;stroke:#000000;stroke-width:1.3;"/>
   </g>
   <g id="patch_3">
    <path d="M 777.6 413.28 
L 777.6 75.6 
" style="fill:none;stroke:#000000;stroke-linecap:square;stroke-linejoin:miter;stroke-width:0.8;"/>
   </g>
   <g id="patch_4">
    <path d="M 6091.2 413.28 
L 6091.2 75.6 
" style="fill:none;stroke:#000000;stroke-linecap:square;stroke-linejoin:miter;stroke-width:0.8;"/>
   </g>
   <g id="patch_5">
    <path d="M 777.6 413.28 
L 6091.2 413.28 
" style="fill:none;stroke:#000000;stroke-linecap:square;stroke-linejoin:miter;stroke-width:0.8;"/>
   </g>
   <g id="patch_6">
    <path d="M 777.6 75.6 
L 6091.2 75.6 
" style="fill:none;stroke:#000000;stroke-linecap:square;stroke-linejoin:miter;stroke-width:0.8;"/>
   </g>
   <g id="patch_7">
    <path d="M 0 504 
L 6480 504 
L 6480 480.923077 
L 0 480.923077 
z
" style="fill:#808080;"/>
   </g>
   <g id="text_13">
    <!-- ©spred -->
    <defs>
     <path d="M 50.90625 25.90625 
L 50.90625 44 
Q 50.90625 52.40625 44.75 58.40625 
Q 38.59375 64.40625 30 64.40625 
Q 21.296875 64.40625 15.09375 58.40625 
Q 8.90625 52.40625 8.90625 44 
L 8.90625 25.90625 
Q 8.90625 17.5 15.09375 11.453125 
Q 21.296875 5.40625 30 5.40625 
Q 38.59375 5.40625 44.75 11.453125 
Q 50.90625 17.5 50.90625 25.90625 
z
M 57.703125 43.203125 
L 57.703125 26.59375 
Q 57.703125 15.203125 49.59375 7.09375 
Q 41.5 -1 30 -1 
Q 18.40625 -1 10.296875 7.09375 
Q 2.203125 15.203125 2.203125 26.59375 
L 2.203125 43.203125 
Q 2.203125 54.59375 10.296875 62.6875 
Q 18.40625 70.796875 30 70.796875 
Q 41.5 70.796875 49.59375 62.6875 
Q 57.703125 54.59375 57.703125 43.203125 
z
M 38.59375 29.40625 
L 41.40625 29.40625 
Q 42.40625 29.40625 42.90625 28.84375 
Q 43.40625 28.296875 43.40625 27.59375 
Q 43.40625 21.59375 39.796875 17.9375 
Q 36.203125 14.296875 30.40625 14.296875 
Q 24.40625 14.296875 20.75 17.9375 
Q 17.09375 21.59375 17.09375 27.09375 
L 17.09375 43.40625 
Q 17.09375 48.703125 20.75 52.390625 
Q 24.40625 56.09375 30.40625 56.09375 
Q 35.90625 56.09375 39.40625 52.25 
Q 42.90625 48.40625 42.90625 42.296875 
Q 42.90625 41.59375 42.40625 41.046875 
Q 41.90625 40.5 40.90625 40.5 
L 38.09375 40.5 
Q 37.09375 40.5 36.546875 41.046875 
Q 36 41.59375 36 42.296875 
Q 36 45.203125 34.390625 47.046875 
Q 32.796875 48.90625 30.40625 48.90625 
Q 27.703125 48.90625 25.796875 46.90625 
Q 23.90625 44.90625 23.90625 42.203125 
L 23.90625 28.203125 
Q 23.90625 25.59375 25.796875 23.59375 
Q 27.703125 21.59375 30.40625 21.59375 
Q 32.90625 21.59375 34.703125 23.1875 
Q 36.5 24.796875 36.5 27.59375 
Q 36.5 28.296875 37.046875 28.84375 
Q 37.59375 29.40625 38.59375 29.40625 
z
" id="DecimaMonoPro-a9"/>
     <path d="M 30.09375 -1 
Q 25.296875 -1 21.546875 0.59375 
Q 17.796875 2.203125 15.84375 4.59375 
Q 13.90625 7 12.953125 9.390625 
Q 12 11.796875 12 14 
Q 12 14.796875 12.5 15.296875 
Q 13 15.796875 13.796875 15.796875 
L 18.296875 15.796875 
Q 19.90625 15.796875 20.09375 14.09375 
Q 20.40625 11.203125 22.796875 8.703125 
Q 25.203125 6.203125 30.09375 6.203125 
Q 34.296875 6.203125 36.890625 8.296875 
Q 39.5 10.40625 39.5 13.59375 
Q 39.5 16.5 36.84375 18.5 
Q 34.203125 20.5 30.390625 21.84375 
Q 26.59375 23.203125 22.84375 24.796875 
Q 19.09375 26.40625 16.4375 29.5 
Q 13.796875 32.59375 13.796875 37.09375 
Q 13.796875 43.296875 18.4375 47.140625 
Q 23.09375 51 30.703125 51 
Q 38.90625 51 43.25 46.5 
Q 47.59375 42 47.59375 37.5 
Q 47.59375 36.796875 47.09375 36.25 
Q 46.59375 35.703125 45.796875 35.703125 
L 41.203125 35.703125 
Q 39.703125 35.703125 39.40625 37.40625 
Q 38.90625 40 36.75 41.890625 
Q 34.59375 43.796875 30.703125 43.796875 
Q 26.90625 43.796875 24.546875 42.09375 
Q 22.203125 40.40625 22.203125 37.703125 
Q 22.203125 35 24.84375 33.09375 
Q 27.5 31.203125 31.25 29.890625 
Q 35 28.59375 38.703125 26.9375 
Q 42.40625 25.296875 45.046875 21.84375 
Q 47.703125 18.40625 47.703125 13.40625 
Q 47.703125 7.40625 42.59375 3.203125 
Q 37.5 -1 30.09375 -1 
z
" id="DecimaMonoPro-73"/>
     <path d="M 42.09375 17.09375 
L 42.09375 33.09375 
Q 42.09375 37.703125 38.84375 40.796875 
Q 35.59375 43.90625 30.5 43.90625 
Q 25.40625 43.90625 22.046875 40.75 
Q 18.703125 37.59375 18.703125 33 
L 18.703125 17.09375 
Q 18.703125 12.5 22.046875 9.390625 
Q 25.40625 6.296875 30.5 6.296875 
Q 35.59375 6.296875 38.84375 9.390625 
Q 42.09375 12.5 42.09375 17.09375 
z
M 18.703125 3.703125 
L 18.796875 -16.203125 
Q 18.796875 -18 16.5 -18 
L 13 -18 
Q 10.703125 -18 10.703125 -16.203125 
L 10.703125 48.203125 
Q 10.703125 50 13 50 
L 15.90625 50 
Q 18.203125 50 18.203125 48.203125 
L 18.203125 45.90625 
Q 18.59375 46.5 19.5 47.34375 
Q 20.40625 48.203125 23.75 49.59375 
Q 27.09375 51 31.296875 51 
Q 39.296875 51 44.796875 45.640625 
Q 50.296875 40.296875 50.296875 32.59375 
L 50.296875 17.40625 
Q 50.296875 9.796875 44.75 4.390625 
Q 39.203125 -1 31.296875 -1 
Q 27.40625 -1 24.25 0.203125 
Q 21.09375 1.40625 19.90625 2.59375 
z
" id="DecimaMonoPro-70"/>
     <path d="M 37.203125 51 
Q 44.09375 51 48.140625 46.453125 
Q 52.203125 41.90625 52.203125 37.5 
Q 52.203125 35.703125 50.5 35.703125 
L 45.90625 35.703125 
Q 44.296875 35.703125 44.09375 37.40625 
Q 43.796875 39.796875 41.75 41.796875 
Q 39.703125 43.796875 36.59375 43.796875 
Q 32.40625 43.796875 29.203125 40.796875 
Q 26 37.796875 26 34 
L 26 7.203125 
L 45.09375 7.203125 
Q 45.796875 7.203125 46.34375 6.703125 
Q 46.90625 6.203125 46.90625 5.40625 
L 46.90625 1.796875 
Q 46.90625 1 46.34375 0.5 
Q 45.796875 0 45.09375 0 
L 9.296875 0 
Q 8.59375 0 8.046875 0.5 
Q 7.5 1 7.5 1.796875 
L 7.5 5.40625 
Q 7.5 6.203125 8.046875 6.703125 
Q 8.59375 7.203125 9.296875 7.203125 
L 18 7.203125 
L 18 48.203125 
Q 18 50 20.296875 50 
L 23.5 50 
Q 25.796875 50 25.796875 48.203125 
L 25.796875 45.703125 
Q 29.796875 51 37.203125 51 
z
" id="DecimaMonoPro-72"/>
     <path d="M 48.796875 13.5 
Q 48.796875 9.09375 43.75 4.046875 
Q 38.703125 -1 30.203125 -1 
Q 21.203125 -1 15.75 4.453125 
Q 10.296875 9.90625 10.296875 17.5 
L 10.296875 32.703125 
Q 10.296875 40.203125 15.75 45.59375 
Q 21.203125 51 30.203125 51 
Q 39.203125 51 44.453125 45.59375 
Q 49.703125 40.203125 49.703125 32.703125 
L 49.703125 24.796875 
Q 49.703125 23.796875 49.046875 23.140625 
Q 48.40625 22.5 47.40625 22.5 
L 18.40625 22.5 
L 18.40625 17 
Q 18.40625 12.5 21.65625 9.296875 
Q 24.90625 6.09375 30.203125 6.09375 
Q 38.5 6.09375 40.59375 13.59375 
Q 41.09375 15.296875 42.40625 15.296875 
L 47 15.296875 
Q 47.796875 15.296875 48.296875 14.75 
Q 48.796875 14.203125 48.796875 13.5 
z
M 18.40625 33 
L 18.40625 29.703125 
L 41.796875 29.703125 
L 41.796875 33 
Q 41.796875 37.5 38.640625 40.640625 
Q 35.5 43.796875 30.203125 43.796875 
Q 24.90625 43.796875 21.65625 40.640625 
Q 18.40625 37.5 18.40625 33 
z
" id="DecimaMonoPro-65"/>
     <path d="M 17.90625 32.90625 
L 17.90625 16.90625 
Q 17.90625 12.296875 21.15625 9.1875 
Q 24.40625 6.09375 29.5 6.09375 
Q 34.59375 6.09375 37.9375 9.25 
Q 41.296875 12.40625 41.296875 17 
L 41.296875 32.90625 
Q 41.296875 37.5 37.9375 40.59375 
Q 34.59375 43.703125 29.5 43.703125 
Q 24.40625 43.703125 21.15625 40.59375 
Q 17.90625 37.5 17.90625 32.90625 
z
M 41.296875 46.296875 
L 41.203125 68.203125 
Q 41.203125 70 43.5 70 
L 47 70 
Q 49.296875 70 49.296875 68.203125 
L 49.296875 1.796875 
Q 49.296875 0 47 0 
L 44.09375 0 
Q 41.796875 0 41.796875 1.796875 
L 41.796875 4.09375 
Q 41.40625 3.5 40.5 2.640625 
Q 39.59375 1.796875 36.25 0.390625 
Q 32.90625 -1 28.703125 -1 
Q 20.703125 -1 15.203125 4.34375 
Q 9.703125 9.703125 9.703125 17.40625 
L 9.703125 32.59375 
Q 9.703125 40.203125 15.25 45.59375 
Q 20.796875 51 28.703125 51 
Q 32.59375 51 35.75 49.796875 
Q 38.90625 48.59375 40.09375 47.40625 
z
" id="DecimaMonoPro-64"/>
    </defs>
    <g style="fill:#ffffff;" transform="translate(64.8 496.8)scale(0.14 -0.14)">
     <use xlink:href="#DecimaMonoPro-a9"/>
     <use x="59.999985" xlink:href="#DecimaMonoPro-73"/>
     <use x="119.999969" xlink:href="#DecimaMonoPro-70"/>
     <use x="179.999954" xlink:href="#DecimaMonoPro-72"/>
     <use x="239.999939" xlink:href="#DecimaMonoPro-65"/>
     <use x="299.999924" xlink:href="#DecimaMonoPro-64"/>
    </g>
   </g>
   <g id="text_14">
    <!-- ETHUSDT_drop -->
    <defs>
     <path d="M 9.40625 70 
L 9.40625 0 
L 51.90625 0 
L 51.90625 10.40625 
L 20.40625 10.40625 
L 20.40625 32 
L 45 32 
L 45 42.40625 
L 20.40625 42.40625 
L 20.40625 59.59375 
L 50.90625 59.59375 
L 50.90625 70 
z
" id="ApercuPro-Medium-45"/>
     <path d="M 1.09375 59.59375 
L 20.703125 59.59375 
L 20.703125 0 
L 31.703125 0 
L 31.703125 59.59375 
L 51.296875 59.59375 
L 51.296875 70 
L 1.09375 70 
z
" id="ApercuPro-Medium-54"/>
     <path d="M 9.40625 0 
L 20.40625 0 
L 20.40625 32.203125 
L 48.796875 32.203125 
L 48.796875 0 
L 59.796875 0 
L 59.796875 70 
L 48.796875 70 
L 48.796875 42.59375 
L 20.40625 42.59375 
L 20.40625 70 
L 9.40625 70 
z
" id="ApercuPro-Medium-48"/>
     <path d="M 7.5 25.203125 
C 7.5 8.40625 18.40625 -0.796875 32.703125 -0.796875 
C 47 -0.796875 57.90625 8.296875 57.90625 25.203125 
L 57.90625 70 
L 46.90625 70 
L 46.90625 24.703125 
C 46.90625 15.203125 42.09375 9.59375 32.703125 9.59375 
C 23.296875 9.59375 18.5 15.203125 18.5 24.703125 
L 18.5 70 
L 7.5 70 
z
" id="ApercuPro-Medium-55"/>
     <path d="M 45.40625 59 
C 41.703125 65.59375 35.703125 70.796875 26.09375 70.796875 
C 15.90625 70.796875 7.796875 63 7.796875 52.40625 
C 7.796875 30.796875 37.59375 33.796875 37.59375 20.09375 
C 37.59375 13.90625 33.203125 9.59375 26.90625 9.59375 
C 18.90625 9.59375 14.796875 16.59375 12.796875 24.40625 
L 3.796875 18.703125 
C 6.296875 7.5 14.59375 -0.796875 26.90625 -0.796875 
C 39.5 -0.796875 48.796875 7.703125 48.796875 20.5 
C 48.796875 42.09375 18.796875 39.40625 18.796875 53.203125 
C 18.796875 57.296875 21.59375 60.796875 26.09375 60.796875 
C 30.203125 60.796875 33.703125 58.40625 36.5 53.09375 
z
" id="ApercuPro-Medium-53"/>
     <path d="M 9.40625 70 
L 9.40625 0 
L 30 0 
C 46.796875 0 62.203125 11.40625 62.203125 35 
C 62.203125 58.59375 46.796875 70 30 70 
z
M 26.796875 59.59375 
C 39 59.59375 51 54.09375 51 35 
C 51 15.90625 39 10.40625 26.796875 10.40625 
L 20.40625 10.40625 
L 20.40625 59.59375 
z
" id="ApercuPro-Medium-44"/>
     <path d="M 2.703125 -9.203125 
L 47.203125 -9.203125 
L 47.203125 0 
L 2.703125 0 
z
" id="ApercuPro-Medium-5f"/>
     <path d="M 4.90625 25.203125 
C 4.90625 9.09375 12.5 -0.796875 27.40625 -0.796875 
C 34 -0.796875 39.40625 2.90625 41.09375 5.796875 
L 41.09375 0 
L 51.5 0 
L 51.5 70.796875 
L 41.09375 70.796875 
L 41.09375 44.796875 
C 38.796875 48.09375 32.59375 51.203125 27.59375 51.203125 
C 12.5 51.203125 4.90625 40.796875 4.90625 25.203125 
z
M 15.90625 25.203125 
C 15.90625 35.59375 21.296875 42 28.796875 42 
C 36.296875 42 41.703125 35.59375 41.703125 25.203125 
C 41.703125 14.796875 36.296875 8.40625 28.796875 8.40625 
C 21.296875 8.40625 15.90625 14.796875 15.90625 25.203125 
z
" id="ApercuPro-Medium-64"/>
     <path d="M 19 0 
L 19 18.703125 
C 19 34.59375 25.90625 42 32.59375 42 
C 34.703125 42 36.90625 41.5 38.5 40.5 
L 40.296875 50 
C 38.796875 50.59375 36.59375 51.203125 33.90625 51.203125 
C 28.5 51.203125 22.5 48 19 42 
L 19 50.40625 
L 8.59375 50.40625 
L 8.59375 0 
z
" id="ApercuPro-Medium-72"/>
     <path d="M 4.90625 25.203125 
C 4.90625 11 14.09375 -0.796875 29.703125 -0.796875 
C 45.296875 -0.796875 54.5 11 54.5 25.203125 
C 54.5 39.40625 45.296875 51.203125 29.703125 51.203125 
C 14.09375 51.203125 4.90625 39.40625 4.90625 25.203125 
z
M 15.90625 25.203125 
C 15.90625 33.703125 20.59375 42 29.703125 42 
C 38.796875 42 43.5 33.703125 43.5 25.203125 
C 43.5 16.703125 38.796875 8.40625 29.703125 8.40625 
C 20.59375 8.40625 15.90625 16.703125 15.90625 25.203125 
z
" id="ApercuPro-Medium-6f"/>
     <path d="M 55.203125 25.203125 
C 55.203125 41.296875 47.59375 51.203125 32.703125 51.203125 
C 26.09375 51.203125 20.703125 47.5 19 44.59375 
L 19 50.40625 
L 8.59375 50.40625 
L 8.59375 -20.40625 
L 19 -20.40625 
L 19 5.59375 
C 21.296875 2.296875 26.296875 -0.796875 32.5 -0.796875 
C 47.59375 -0.796875 55.203125 9.59375 55.203125 25.203125 
z
M 44.203125 25.203125 
C 44.203125 14.796875 38.796875 8.40625 31.296875 8.40625 
C 23.796875 8.40625 18.40625 14.796875 18.40625 25.203125 
C 18.40625 35.59375 23.796875 42 31.296875 42 
C 38.796875 42 44.203125 35.59375 44.203125 25.203125 
z
" id="ApercuPro-Medium-70"/>
    </defs>
    <g style="opacity:0.75;" transform="translate(1044 50.4)scale(0.3 -0.3)">
     <use xlink:href="#ApercuPro-Medium-45"/>
     <use x="56.846863" xlink:href="#ApercuPro-Medium-54"/>
     <use x="109.246857" xlink:href="#ApercuPro-Medium-48"/>
     <use x="178.415588" xlink:href="#ApercuPro-Medium-55"/>
     <use x="243.799957" xlink:href="#ApercuPro-Medium-53"/>
     <use x="296.799942" xlink:href="#ApercuPro-Medium-44"/>
     <use x="364.06868" xlink:href="#ApercuPro-Medium-54"/>
     <use x="416.468674" xlink:href="#ApercuPro-Medium-5f"/>
     <use x="466.368668" xlink:href="#ApercuPro-Medium-64"/>
     <use x="526.421783" xlink:href="#ApercuPro-Medium-72"/>
     <use x="568.12178" xlink:href="#ApercuPro-Medium-6f"/>
     <use x="627.521774" xlink:href="#ApercuPro-Medium-70"/>
    </g>
   </g>
   <g id="text_15">
    <!-- None -->
    <defs>
     <path d="M 51.59375 70 
L 60.40625 70 
L 60.40625 0 
L 50.09375 0 
L 18.5 54.5 
L 18.5 0 
L 9.703125 0 
L 9.703125 70 
L 20 70 
L 51.59375 15.296875 
z
" id="Apercu-4e"/>
     <path d="M 12 6.796875 
Q 5.40625 14.5 5.40625 25.203125 
Q 5.40625 35.90625 12.046875 43.546875 
Q 18.703125 51.203125 29.59375 51.203125 
Q 40.5 51.203125 47.140625 43.546875 
Q 53.796875 35.90625 53.796875 25.203125 
Q 53.796875 14.5 47.140625 6.84375 
Q 40.5 -0.796875 29.59375 -0.796875 
Q 18.703125 -0.796875 12 6.796875 
z
M 18.09375 38.09375 
Q 14 32.703125 14 25.203125 
Q 14 17.703125 18.140625 12.25 
Q 22.296875 6.796875 29.59375 6.796875 
Q 36.90625 6.796875 41.046875 12.25 
Q 45.203125 17.703125 45.203125 25.203125 
Q 45.203125 32.703125 41.046875 38.140625 
Q 36.90625 43.59375 29.59375 43.59375 
Q 22.296875 43.59375 18.09375 38.09375 
z
" id="Apercu-6f"/>
     <path d="M 49.09375 35.5 
L 49.09375 0 
L 40.703125 0 
L 40.703125 33.296875 
Q 40.703125 43.59375 32 43.59375 
Q 26.09375 43.59375 21.84375 37.390625 
Q 17.59375 31.203125 17.59375 21.09375 
L 17.59375 0 
L 9.203125 0 
L 9.203125 50.40625 
L 17.59375 50.40625 
L 17.59375 41.09375 
Q 23.296875 51.203125 34.296875 51.203125 
Q 41.203125 51.203125 45.140625 47.09375 
Q 49.09375 43 49.09375 35.5 
z
" id="Apercu-6e"/>
     <path d="M 51 27.296875 
L 51 23.40625 
L 14 23.40625 
Q 14.40625 16 18.046875 11.390625 
Q 21.703125 6.796875 28.203125 6.796875 
Q 33.5 6.796875 36.75 9.140625 
Q 40 11.5 42.203125 16.40625 
L 49.59375 13.203125 
Q 46.09375 5.796875 41.046875 2.5 
Q 36 -0.796875 28.203125 -0.796875 
Q 17.296875 -0.796875 11.34375 6.75 
Q 5.40625 14.296875 5.40625 25.1875 
Q 5.40625 36.09375 11.34375 43.640625 
Q 17.296875 51.203125 28.203125 51.203125 
Q 38.90625 51.203125 44.953125 44.25 
Q 51 37.296875 51 27.296875 
z
M 28.203125 43.59375 
Q 22.59375 43.59375 19.140625 40.1875 
Q 15.703125 36.796875 14.5 31 
L 42.203125 31 
Q 41 36.703125 37.5 40.140625 
Q 34 43.59375 28.203125 43.59375 
z
" id="Apercu-65"/>
    </defs>
    <g style="opacity:0.75;" transform="translate(1045 55.44)scale(0.14 -0.14)">
     <use xlink:href="#Apercu-4e"/>
     <use x="70.099991" xlink:href="#Apercu-6f"/>
     <use x="129.299988" xlink:href="#Apercu-6e"/>
     <use x="186.999985" xlink:href="#Apercu-65"/>
    </g>
   </g>
   <g id="legend_1">
    <g id="patch_8">
     <path d="M 5997.58375 126.336875 
L 6081.4 126.336875 
Q 6084.2 126.336875 6084.2 123.536875 
L 6084.2 85.4 
Q 6084.2 82.6 6081.4 82.6 
L 5997.58375 82.6 
Q 5994.78375 82.6 5994.78375 85.4 
L 5994.78375 123.536875 
Q 5994.78375 126.336875 5997.58375 126.336875 
z
" style="fill:#f0f0f0;opacity:0.8;stroke:#cccccc;stroke-linejoin:miter;stroke-width:0.5;"/>
    </g>
    <g id="line2d_24">
     <path d="M 6000.38375 93.211562 
L 6028.38375 93.211562 
" style="fill:none;stroke:#000004;stroke-width:3;"/>
    </g>
    <g id="line2d_25"/>
    <g id="text_16">
     <!-- pred -->
     <defs>
      <path d="M 32.296875 -0.796875 
Q 27.796875 -0.796875 23.390625 1.390625 
Q 19 3.59375 17.59375 6 
L 17.59375 -20.40625 
L 9.203125 -20.40625 
L 9.203125 50.40625 
L 17.59375 50.40625 
L 17.59375 44.203125 
Q 19.5 47.09375 23.640625 49.140625 
Q 27.796875 51.203125 32.296875 51.203125 
Q 43.09375 51.203125 48.890625 44.046875 
Q 54.703125 36.90625 54.703125 25.203125 
Q 54.703125 13.5 48.890625 6.34375 
Q 43.09375 -0.796875 32.296875 -0.796875 
z
M 31.5 43.59375 
Q 24.703125 43.59375 20.796875 38.5 
Q 16.90625 33.40625 16.90625 25.203125 
Q 16.90625 17 20.796875 11.890625 
Q 24.703125 6.796875 31.5 6.796875 
Q 38.09375 6.796875 42.09375 11.890625 
Q 46.09375 17 46.09375 25.203125 
Q 46.09375 33.40625 42.09375 38.5 
Q 38.09375 43.59375 31.5 43.59375 
z
" id="Apercu-70"/>
      <path d="M 39.296875 49.703125 
L 37.59375 42.203125 
Q 34.796875 43.59375 31.703125 43.59375 
Q 26 43.59375 21.796875 37.140625 
Q 17.59375 30.703125 17.59375 19.09375 
L 17.59375 0 
L 9.203125 0 
L 9.203125 50.40625 
L 17.59375 50.40625 
L 17.59375 41.796875 
Q 19.796875 46 24 48.59375 
Q 28.203125 51.203125 32.40625 51.203125 
Q 36.5 51.203125 39.296875 49.703125 
z
" id="Apercu-72"/>
      <path d="M 27.796875 51.203125 
Q 32.296875 51.203125 36.6875 49 
Q 41.09375 46.796875 42.5 44.40625 
L 42.5 70.796875 
L 50.90625 70.796875 
L 50.90625 0 
L 42.5 0 
L 42.5 6.203125 
Q 40.59375 3.296875 36.4375 1.25 
Q 32.296875 -0.796875 27.796875 -0.796875 
Q 17 -0.796875 11.203125 6.34375 
Q 5.40625 13.5 5.40625 25.203125 
Q 5.40625 36.90625 11.203125 44.046875 
Q 17 51.203125 27.796875 51.203125 
z
M 28.59375 6.796875 
Q 35.40625 6.796875 39.296875 11.890625 
Q 43.203125 17 43.203125 25.203125 
Q 43.203125 33.40625 39.296875 38.5 
Q 35.40625 43.59375 28.59375 43.59375 
Q 22 43.59375 18 38.5 
Q 14 33.40625 14 25.203125 
Q 14 17 18 11.890625 
Q 22 6.796875 28.59375 6.796875 
z
" id="Apercu-64"/>
     </defs>
     <g style="opacity:0.75;" transform="translate(6039.58375 98.111562)scale(0.14 -0.14)">
      <use xlink:href="#Apercu-70"/>
      <use x="60.099991" xlink:href="#Apercu-72"/>
      <use x="101.399979" xlink:href="#Apercu-65"/>
      <use x="157.399963" xlink:href="#Apercu-64"/>
     </g>
    </g>
    <g id="line2d_26">
     <path d="M 6000.38375 112.98 
L 6028.38375 112.98 
" style="fill:none;stroke:#b73779;stroke-width:3;"/>
    </g>
    <g id="line2d_27"/>
    <g id="text_17">
     <!-- actual -->
     <defs>
      <path d="M 14.203125 14.5 
Q 14.203125 10.90625 16.34375 8.84375 
Q 18.5 6.796875 22.5 6.796875 
Q 28.203125 6.796875 32.390625 10.546875 
Q 36.59375 14.296875 36.59375 22.203125 
L 36.59375 23.40625 
L 27.59375 23.40625 
Q 21.203125 23.40625 17.703125 21.09375 
Q 14.203125 18.796875 14.203125 14.5 
z
M 45 32.203125 
L 45 0 
L 38.40625 0 
L 37 7.09375 
Q 31.5 -0.796875 21.203125 -0.796875 
Q 14.40625 -0.796875 10 3 
Q 5.59375 6.796875 5.59375 14.5 
Q 5.59375 22.5 11.6875 26.75 
Q 17.796875 31 28.40625 31 
L 36.59375 31 
L 36.59375 33.203125 
Q 36.59375 43.59375 25.59375 43.59375 
Q 21.59375 43.59375 18.75 41.5 
Q 15.90625 39.40625 15.09375 35.703125 
L 7.703125 37.40625 
Q 8.703125 43.796875 13.59375 47.5 
Q 18.5 51.203125 25.59375 51.203125 
Q 34.40625 51.203125 39.703125 46.5 
Q 45 41.796875 45 32.203125 
z
" id="Apercu-61"/>
      <path d="M 42.09375 16.09375 
L 49.40625 13.09375 
Q 43.296875 -0.796875 28.296875 -0.796875 
Q 17.296875 -0.796875 11.34375 6.75 
Q 5.40625 14.296875 5.40625 25.1875 
Q 5.40625 36.09375 11.34375 43.640625 
Q 17.296875 51.203125 28.296875 51.203125 
Q 43.296875 51.203125 49.40625 37.296875 
L 42.09375 34.296875 
Q 38.09375 43.59375 28.296875 43.59375 
Q 21.296875 43.59375 17.640625 38.4375 
Q 14 33.296875 14 25.1875 
Q 14 17.09375 17.640625 11.9375 
Q 21.296875 6.796875 28.296875 6.796875 
Q 38.09375 6.796875 42.09375 16.09375 
z
" id="Apercu-63"/>
      <path d="M 2.5 42.796875 
L 2.5 50.40625 
L 11.203125 50.40625 
L 11.203125 65.5 
L 19.59375 70.796875 
L 19.59375 50.40625 
L 32.796875 50.40625 
L 32.796875 42.796875 
L 19.59375 42.796875 
L 19.59375 15.09375 
Q 19.59375 11.09375 21.34375 8.9375 
Q 23.09375 6.796875 26.296875 6.796875 
Q 29.59375 6.796875 32 8.40625 
L 34 1.09375 
Q 30.703125 -0.796875 25.796875 -0.796875 
Q 19.09375 -0.796875 15.140625 3.390625 
Q 11.203125 7.59375 11.203125 15.796875 
L 11.203125 42.796875 
z
" id="Apercu-74"/>
      <path d="M 8.59375 14.90625 
L 8.59375 50.40625 
L 17 50.40625 
L 17 17.09375 
Q 17 6.796875 25.703125 6.796875 
Q 31.59375 6.796875 35.84375 13 
Q 40.09375 19.203125 40.09375 29.296875 
L 40.09375 50.40625 
L 48.5 50.40625 
L 48.5 0 
L 40.09375 0 
L 40.09375 9.296875 
Q 34.40625 -0.796875 23.40625 -0.796875 
Q 16.5 -0.796875 12.546875 3.296875 
Q 8.59375 7.40625 8.59375 14.90625 
z
" id="Apercu-75"/>
      <path d="M 9 70.796875 
L 17.40625 70.796875 
L 17.40625 0 
L 9 0 
z
" id="Apercu-6c"/>
     </defs>
     <g style="opacity:0.75;" transform="translate(6039.58375 117.88)scale(0.14 -0.14)">
      <use xlink:href="#Apercu-61"/>
      <use x="51.799988" xlink:href="#Apercu-63"/>
      <use x="105.615601" xlink:href="#Apercu-74"/>
      <use x="143.399963" xlink:href="#Apercu-75"/>
      <use x="201.09996" xlink:href="#Apercu-61"/>
      <use x="252.899948" xlink:href="#Apercu-6c"/>
     </g>
    </g>
   </g>
  </g>
 </g>
 <defs>
  <clipPath id="p806043c232">
   <rect height="337.68" width="5313.6" x="777.6" y="75.6"/>
  </clipPath>
 </defs>
</svg>
