<?xml version="1.0" encoding="utf-8" standalone="no"?>
<!DOCTYPE svg PUBLIC "-//W3C//DTD SVG 1.1//EN"
  "http://www.w3.org/Graphics/SVG/1.1/DTD/svg11.dtd">
<!-- Created with matplotlib (http://matplotlib.org/) -->
<svg height="504pt" version="1.1" viewBox="0 0 648 504" width="648pt" xmlns="http://www.w3.org/2000/svg" xmlns:xlink="http://www.w3.org/1999/xlink">
 <defs>
  <style type="text/css">
*{stroke-linecap:butt;stroke-linejoin:round;}
  </style>
 </defs>
 <g id="figure_1">
  <g id="patch_1">
   <path d="M 0 504 
L 648 504 
L 648 0 
L 0 0 
z
" style="fill:#f0f0f0;"/>
  </g>
  <g id="axes_1">
   <g id="patch_2">
    <path d="M 77.76 413.28 
L 609.12 413.28 
L 609.12 75.6 
L 77.76 75.6 
z
" style="fill:#f0f0f0;"/>
   </g>
   <g id="matplotlib.axis_1">
    <g id="xtick_1">
     <g id="line2d_1">
      <path clip-path="url(#p7316933ab1)" d="M 77.76 413.28 
L 77.76 75.6 
" style="fill:none;stroke:#b0b0b0;stroke-linecap:square;stroke-width:0.8;"/>
     </g>
     <g id="line2d_2">
      <defs>
       <path d="M 0 0 
L 0 3.5 
" id="m8be546e5e0" style="stroke:#000000;stroke-width:0.8;"/>
      </defs>
      <g>
       <use style="stroke:#000000;stroke-width:0.8;" x="77.76" xlink:href="#m8be546e5e0" y="413.28"/>
      </g>
     </g>
     <g id="text_1">
      <!-- 0 -->
      <defs>
       <path d="M 48.203125 52.59375 
L 48.203125 17.40625 
Q 48.203125 9.703125 42.953125 4.34375 
Q 37.703125 -1 29.890625 -1 
Q 22.09375 -1 16.9375 4.390625 
Q 11.796875 9.796875 11.796875 17.5 
L 11.796875 52.59375 
Q 11.796875 60.296875 16.9375 65.640625 
Q 22.09375 71 29.890625 71 
Q 37.703125 71 42.953125 65.640625 
Q 48.203125 60.296875 48.203125 52.59375 
z
M 39.90625 17.296875 
L 39.90625 52.5 
Q 39.90625 56.90625 37 60 
Q 34.09375 63.09375 29.90625 63.09375 
Q 25.796875 63.09375 22.890625 60 
Q 20 56.90625 20 52.5 
L 20 17.40625 
Q 20 13 22.890625 9.953125 
Q 25.796875 6.90625 30 6.90625 
Q 34.09375 6.90625 37 9.90625 
Q 39.90625 12.90625 39.90625 17.296875 
z
" id="DecimaMonoPro-30"/>
      </defs>
      <g style="fill:#303030;" transform="translate(73.56 430.093125)scale(0.14 -0.14)">
       <use xlink:href="#DecimaMonoPro-30"/>
      </g>
     </g>
    </g>
    <g id="xtick_2">
     <g id="line2d_3">
      <path clip-path="url(#p7316933ab1)" d="M 184.138378 413.28 
L 184.138378 75.6 
" style="fill:none;stroke:#b0b0b0;stroke-linecap:square;stroke-width:0.8;"/>
     </g>
     <g id="line2d_4">
      <g>
       <use style="stroke:#000000;stroke-width:0.8;" x="184.138378" xlink:href="#m8be546e5e0" y="413.28"/>
      </g>
     </g>
     <g id="text_2">
      <!-- 200 -->
      <defs>
       <path d="M 11.703125 53 
Q 11.703125 59.703125 17.203125 65.34375 
Q 22.703125 71 30.59375 71 
Q 38.40625 71 43.796875 65.75 
Q 49.203125 60.5 49.203125 52.703125 
Q 49.203125 46.90625 46.09375 41.75 
Q 43 36.59375 38.59375 32.84375 
Q 34.203125 29.09375 29.796875 25.4375 
Q 25.40625 21.796875 22.296875 17.296875 
Q 19.203125 12.796875 19.203125 7.796875 
L 47.40625 7.796875 
Q 48.203125 7.796875 48.703125 7.296875 
Q 49.203125 6.796875 49.203125 6 
L 49.203125 1.796875 
Q 49.203125 1 48.703125 0.5 
Q 48.203125 0 47.40625 0 
L 12.59375 0 
Q 11.796875 0 11.296875 0.5 
Q 10.796875 1 10.796875 1.796875 
L 10.796875 7.296875 
Q 10.796875 13.90625 13.890625 19.453125 
Q 17 25 21.390625 28.890625 
Q 25.796875 32.796875 30.1875 36.390625 
Q 34.59375 40 37.6875 44.296875 
Q 40.796875 48.59375 40.796875 53.296875 
Q 40.796875 57.40625 37.75 60.25 
Q 34.703125 63.09375 30.5 63.09375 
Q 26.09375 63.09375 23.1875 59.6875 
Q 20.296875 56.296875 20.09375 53 
Q 19.90625 51 17.796875 51 
L 14 51 
Q 12.90625 51 12.296875 51.59375 
Q 11.703125 52.203125 11.703125 53 
z
" id="DecimaMonoPro-32"/>
      </defs>
      <g style="fill:#303030;" transform="translate(171.538378 430.093125)scale(0.14 -0.14)">
       <use xlink:href="#DecimaMonoPro-32"/>
       <use x="59.999985" xlink:href="#DecimaMonoPro-30"/>
       <use x="119.999969" xlink:href="#DecimaMonoPro-30"/>
      </g>
     </g>
    </g>
    <g id="xtick_3">
     <g id="line2d_5">
      <path clip-path="url(#p7316933ab1)" d="M 290.516757 413.28 
L 290.516757 75.6 
" style="fill:none;stroke:#b0b0b0;stroke-linecap:square;stroke-width:0.8;"/>
     </g>
     <g id="line2d_6">
      <g>
       <use style="stroke:#000000;stroke-width:0.8;" x="290.516757" xlink:href="#m8be546e5e0" y="413.28"/>
      </g>
     </g>
     <g id="text_3">
      <!-- 400 -->
      <defs>
       <path d="M 40.09375 67.5 
L 19.5 22.90625 
L 35.796875 22.90625 
L 35.796875 38.90625 
Q 35.796875 39.703125 36.390625 40.296875 
Q 37 40.90625 38.09375 40.90625 
L 42.203125 40.90625 
Q 43 40.90625 43.59375 40.25 
Q 44.203125 39.59375 44.203125 38.90625 
L 44.203125 22.90625 
L 48 22.90625 
Q 48.796875 22.90625 49.390625 22.296875 
Q 50 21.703125 50 20.59375 
L 50 17.40625 
Q 50 16.296875 49.390625 15.6875 
Q 48.796875 15.09375 48 15.09375 
L 44.203125 15.09375 
L 44.203125 2 
Q 44.203125 1.203125 43.59375 0.59375 
Q 43 0 42.203125 0 
L 38.09375 0 
Q 37 0 36.390625 0.59375 
Q 35.796875 1.203125 35.796875 2 
L 35.796875 15.09375 
L 12.09375 15.09375 
Q 9.90625 15.09375 9.90625 17.40625 
L 9.90625 21.296875 
Q 9.90625 22.5 11 24.703125 
L 31.296875 68 
Q 32.296875 70 34 70 
L 38.796875 70 
Q 40.5 70 40.5 68.796875 
Q 40.5 68.5 40.09375 67.5 
z
" id="DecimaMonoPro-34"/>
      </defs>
      <g style="fill:#303030;" transform="translate(277.916757 430.093125)scale(0.14 -0.14)">
       <use xlink:href="#DecimaMonoPro-34"/>
       <use x="59.999985" xlink:href="#DecimaMonoPro-30"/>
       <use x="119.999969" xlink:href="#DecimaMonoPro-30"/>
      </g>
     </g>
    </g>
    <g id="xtick_4">
     <g id="line2d_7">
      <path clip-path="url(#p7316933ab1)" d="M 396.895135 413.28 
L 396.895135 75.6 
" style="fill:none;stroke:#b0b0b0;stroke-linecap:square;stroke-width:0.8;"/>
     </g>
     <g id="line2d_8">
      <g>
       <use style="stroke:#000000;stroke-width:0.8;" x="396.895135" xlink:href="#m8be546e5e0" y="413.28"/>
      </g>
     </g>
     <g id="text_4">
      <!-- 600 -->
      <defs>
       <path d="M 11 60.203125 
Q 21.59375 71 29.5 71 
Q 37.40625 71 42.65625 65.953125 
Q 47.90625 60.90625 47.90625 54.40625 
Q 47.90625 53.59375 47.296875 53 
Q 46.703125 52.40625 45.59375 52.40625 
L 41.796875 52.40625 
Q 39.703125 52.40625 39.5 54.40625 
Q 39.296875 57.59375 36.640625 60.296875 
Q 34 63 29.5 63 
Q 25.203125 63 22.25 59.890625 
Q 19.296875 56.796875 19.296875 52.40625 
L 19.296875 42.796875 
Q 19.703125 43.296875 20.59375 44.046875 
Q 21.5 44.796875 24.546875 46 
Q 27.59375 47.203125 31 47.203125 
Q 38.40625 47.203125 43.703125 42 
Q 49 36.796875 49 28.90625 
L 49 17.5 
Q 49 9.796875 43.546875 4.390625 
Q 38.09375 -1 30 -1 
Q 21.90625 -1 16.453125 4.34375 
Q 11 9.703125 11 17.40625 
L 11 52.5 
Q 11 60.203125 21.59375 71 
z
M 30 39.296875 
Q 25.40625 39.296875 22.34375 36.390625 
Q 19.296875 33.5 19.296875 28.796875 
L 19.296875 17.296875 
Q 19.296875 12.90625 22.390625 9.90625 
Q 25.5 6.90625 30 6.90625 
Q 34.40625 6.90625 37.5 9.953125 
Q 40.59375 13 40.59375 17.40625 
L 40.59375 28.796875 
Q 40.59375 33.40625 37.546875 36.34375 
Q 34.5 39.296875 30 39.296875 
z
" id="DecimaMonoPro-36"/>
      </defs>
      <g style="fill:#303030;" transform="translate(384.295135 430.093125)scale(0.14 -0.14)">
       <use xlink:href="#DecimaMonoPro-36"/>
       <use x="59.999985" xlink:href="#DecimaMonoPro-30"/>
       <use x="119.999969" xlink:href="#DecimaMonoPro-30"/>
      </g>
     </g>
    </g>
    <g id="xtick_5">
     <g id="line2d_9">
      <path clip-path="url(#p7316933ab1)" d="M 503.273514 413.28 
L 503.273514 75.6 
" style="fill:none;stroke:#b0b0b0;stroke-linecap:square;stroke-width:0.8;"/>
     </g>
     <g id="line2d_10">
      <g>
       <use style="stroke:#000000;stroke-width:0.8;" x="503.273514" xlink:href="#m8be546e5e0" y="413.28"/>
      </g>
     </g>
     <g id="text_5">
      <!-- 800 -->
      <defs>
       <path d="M 48.09375 53.5 
L 48.09375 49.796875 
Q 48.09375 41.5 41.796875 36.40625 
Q 49 30.796875 49 21.703125 
L 49 17.40625 
Q 49 9.703125 43.640625 4.34375 
Q 38.296875 -1 30.5 -1 
L 29.59375 -1 
Q 21.796875 -1 16.390625 4.390625 
Q 11 9.796875 11 17.5 
L 11 21.703125 
Q 11 30.703125 18.296875 36.40625 
Q 11.796875 41.296875 11.796875 49.90625 
L 11.796875 53.5 
Q 11.796875 60.796875 16.9375 65.890625 
Q 22.09375 71 29.5 71 
L 30.40625 71 
Q 37.796875 71 42.9375 65.890625 
Q 48.09375 60.796875 48.09375 53.5 
z
M 40.59375 17.296875 
L 40.59375 21.59375 
Q 40.59375 26 37.5 29.09375 
Q 34.40625 32.203125 30 32.203125 
Q 25.59375 32.203125 22.5 29.09375 
Q 19.40625 26 19.40625 21.59375 
L 19.40625 17.40625 
Q 19.40625 13 22.546875 9.953125 
Q 25.703125 6.90625 30.203125 6.90625 
Q 34.5 6.90625 37.546875 9.90625 
Q 40.59375 12.90625 40.59375 17.296875 
z
M 39.703125 49.703125 
L 39.703125 53.09375 
Q 39.703125 57.296875 36.84375 60.1875 
Q 34 63.09375 29.796875 63.09375 
Q 25.796875 63.09375 23 60.1875 
Q 20.203125 57.296875 20.203125 53.09375 
L 20.203125 49.796875 
Q 20.203125 45.90625 22.84375 43 
Q 25.5 40.09375 29.59375 40.09375 
L 30.5 40.09375 
Q 34.296875 40.09375 37 42.84375 
Q 39.703125 45.59375 39.703125 49.703125 
z
" id="DecimaMonoPro-38"/>
      </defs>
      <g style="fill:#303030;" transform="translate(490.673514 430.093125)scale(0.14 -0.14)">
       <use xlink:href="#DecimaMonoPro-38"/>
       <use x="59.999985" xlink:href="#DecimaMonoPro-30"/>
       <use x="119.999969" xlink:href="#DecimaMonoPro-30"/>
      </g>
     </g>
    </g>
    <g id="text_6">
     <!-- x -->
     <defs>
      <path d="M 3.59375 50.40625 
L 13.09375 50.40625 
L 22.90625 34.40625 
L 32.703125 50.40625 
L 42.203125 50.40625 
L 27.59375 26.59375 
L 44 0 
L 34.5 0 
L 22.90625 18.90625 
L 11.296875 0 
L 1.796875 0 
L 18.203125 26.59375 
z
" id="Apercu-78"/>
     </defs>
     <g style="opacity:0.75;" transform="translate(340.234219 446.524687)scale(0.14 -0.14)">
      <use xlink:href="#Apercu-78"/>
     </g>
    </g>
   </g>
   <g id="matplotlib.axis_2">
    <g id="ytick_1">
     <g id="line2d_11">
      <path clip-path="url(#p7316933ab1)" d="M 77.76 379.402155 
L 609.12 379.402155 
" style="fill:none;stroke:#b0b0b0;stroke-linecap:square;stroke-width:0.8;"/>
     </g>
     <g id="line2d_12">
      <defs>
       <path d="M 0 0 
L -3.5 0 
" id="m0a09a83701" style="stroke:#000000;stroke-width:0.8;"/>
      </defs>
      <g>
       <use style="stroke:#000000;stroke-width:0.8;" x="77.76" xlink:href="#m0a09a83701" y="379.402155"/>
      </g>
     </g>
     <g id="text_7">
      <!-- −0.04 -->
      <defs>
       <path d="M 50.203125 25.296875 
L 9.796875 25.296875 
Q 9 25.296875 8.5 25.84375 
Q 8 26.40625 8 27.09375 
L 8 31.296875 
Q 8 32 8.5 32.546875 
Q 9 33.09375 9.796875 33.09375 
L 50.203125 33.09375 
Q 51 33.09375 51.5 32.546875 
Q 52 32 52 31.296875 
L 52 27.09375 
Q 52 26.40625 51.5 25.84375 
Q 51 25.296875 50.203125 25.296875 
z
" id="DecimaMonoPro-2212"/>
       <path d="M 35.09375 7.5 
L 35.09375 2.59375 
Q 35.09375 0 32.5 0 
L 27.5 0 
Q 24.90625 0 24.90625 2.59375 
L 24.90625 7.5 
Q 24.90625 10.09375 27.5 10.09375 
L 32.5 10.09375 
Q 35.09375 10.09375 35.09375 7.5 
z
" id="DecimaMonoPro-2e"/>
      </defs>
      <g style="fill:#303030;" transform="translate(28.76 384.308717)scale(0.14 -0.14)">
       <use xlink:href="#DecimaMonoPro-2212"/>
       <use x="59.999985" xlink:href="#DecimaMonoPro-30"/>
       <use x="119.999969" xlink:href="#DecimaMonoPro-2e"/>
       <use x="179.999954" xlink:href="#DecimaMonoPro-30"/>
       <use x="239.999939" xlink:href="#DecimaMonoPro-34"/>
      </g>
     </g>
    </g>
    <g id="ytick_2">
     <g id="line2d_13">
      <path clip-path="url(#p7316933ab1)" d="M 77.76 316.961586 
L 609.12 316.961586 
" style="fill:none;stroke:#b0b0b0;stroke-linecap:square;stroke-width:0.8;"/>
     </g>
     <g id="line2d_14">
      <g>
       <use style="stroke:#000000;stroke-width:0.8;" x="77.76" xlink:href="#m0a09a83701" y="316.961586"/>
      </g>
     </g>
     <g id="text_8">
      <!-- −0.02 -->
      <g style="fill:#303030;" transform="translate(28.76 321.868149)scale(0.14 -0.14)">
       <use xlink:href="#DecimaMonoPro-2212"/>
       <use x="59.999985" xlink:href="#DecimaMonoPro-30"/>
       <use x="119.999969" xlink:href="#DecimaMonoPro-2e"/>
       <use x="179.999954" xlink:href="#DecimaMonoPro-30"/>
       <use x="239.999939" xlink:href="#DecimaMonoPro-32"/>
      </g>
     </g>
    </g>
    <g id="ytick_3">
     <g id="line2d_15">
      <path clip-path="url(#p7316933ab1)" d="M 77.76 254.521017 
L 609.12 254.521017 
" style="fill:none;stroke:#b0b0b0;stroke-linecap:square;stroke-width:0.8;"/>
     </g>
     <g id="line2d_16">
      <g>
       <use style="stroke:#000000;stroke-width:0.8;" x="77.76" xlink:href="#m0a09a83701" y="254.521017"/>
      </g>
     </g>
     <g id="text_9">
      <!-- 0.00 -->
      <g style="fill:#303030;" transform="translate(37.16 259.42758)scale(0.14 -0.14)">
       <use xlink:href="#DecimaMonoPro-30"/>
       <use x="59.999985" xlink:href="#DecimaMonoPro-2e"/>
       <use x="119.999969" xlink:href="#DecimaMonoPro-30"/>
       <use x="179.999954" xlink:href="#DecimaMonoPro-30"/>
      </g>
     </g>
    </g>
    <g id="ytick_4">
     <g id="line2d_17">
      <path clip-path="url(#p7316933ab1)" d="M 77.76 192.080448 
L 609.12 192.080448 
" style="fill:none;stroke:#b0b0b0;stroke-linecap:square;stroke-width:0.8;"/>
     </g>
     <g id="line2d_18">
      <g>
       <use style="stroke:#000000;stroke-width:0.8;" x="77.76" xlink:href="#m0a09a83701" y="192.080448"/>
      </g>
     </g>
     <g id="text_10">
      <!-- 0.02 -->
      <g style="fill:#303030;" transform="translate(37.16 196.987011)scale(0.14 -0.14)">
       <use xlink:href="#DecimaMonoPro-30"/>
       <use x="59.999985" xlink:href="#DecimaMonoPro-2e"/>
       <use x="119.999969" xlink:href="#DecimaMonoPro-30"/>
       <use x="179.999954" xlink:href="#DecimaMonoPro-32"/>
      </g>
     </g>
    </g>
    <g id="ytick_5">
     <g id="line2d_19">
      <path clip-path="url(#p7316933ab1)" d="M 77.76 129.639879 
L 609.12 129.639879 
" style="fill:none;stroke:#b0b0b0;stroke-linecap:square;stroke-width:0.8;"/>
     </g>
     <g id="line2d_20">
      <g>
       <use style="stroke:#000000;stroke-width:0.8;" x="77.76" xlink:href="#m0a09a83701" y="129.639879"/>
      </g>
     </g>
     <g id="text_11">
      <!-- 0.04 -->
      <g style="fill:#303030;" transform="translate(37.16 134.546442)scale(0.14 -0.14)">
       <use xlink:href="#DecimaMonoPro-30"/>
       <use x="59.999985" xlink:href="#DecimaMonoPro-2e"/>
       <use x="119.999969" xlink:href="#DecimaMonoPro-30"/>
       <use x="179.999954" xlink:href="#DecimaMonoPro-34"/>
      </g>
     </g>
    </g>
    <g id="text_12">
     <!-- P -->
     <defs>
      <path d="M 34.09375 30 
L 18.5 30 
L 18.5 0 
L 9.703125 0 
L 9.703125 70 
L 34.09375 70 
Q 43.90625 70 49.40625 64.59375 
Q 54.90625 59.203125 54.90625 50 
Q 54.90625 40.796875 49.40625 35.390625 
Q 43.90625 30 34.09375 30 
z
M 34.59375 38.40625 
Q 40 38.40625 42.890625 41.40625 
Q 45.796875 44.40625 45.796875 50 
Q 45.796875 55.59375 42.890625 58.59375 
Q 40 61.59375 34.59375 61.59375 
L 18.5 61.59375 
L 18.5 38.40625 
z
" id="Apercu-50"/>
     </defs>
     <g style="opacity:0.75;" transform="translate(21.903125 248.528437)rotate(-90)scale(0.14 -0.14)">
      <use xlink:href="#Apercu-50"/>
     </g>
    </g>
   </g>
   <g id="line2d_21">
    <path clip-path="url(#p7316933ab1)" d="M 77.76 254.772961 
L 78.291892 253.78473 
L 78.823784 257.412434 
L 79.355676 256.02396 
L 79.887568 253.045131 
L 80.419459 257.573827 
L 80.951351 256.123177 
L 81.483243 250.058676 
L 82.015135 255.107256 
L 82.547027 256.07305 
L 83.078919 251.157423 
L 84.142703 254.458706 
L 84.674595 253.566926 
L 85.206486 252.148083 
L 85.738378 251.817623 
L 86.27027 252.356524 
L 86.802162 252.596262 
L 87.334054 252.132169 
L 88.397838 252.418479 
L 88.92973 253.85487 
L 89.461622 255.932353 
L 89.993514 255.624617 
L 90.525405 255.49986 
L 91.057297 253.675081 
L 91.589189 252.649806 
L 92.121081 256.339009 
L 92.652973 255.85148 
L 93.184865 254.536348 
L 93.716757 253.704352 
L 94.248649 251.141916 
L 94.780541 254.528382 
L 95.312432 253.320933 
L 95.844324 257.364089 
L 96.376216 255.318407 
L 96.908108 252.298238 
L 97.44 254.119021 
L 98.503784 251.841361 
L 99.035676 251.754749 
L 99.567568 252.318323 
L 100.099459 254.012015 
L 100.631351 251.886435 
L 101.163243 255.325821 
L 101.695135 254.058313 
L 102.227027 253.432181 
L 102.758919 254.724006 
L 103.290811 253.319674 
L 103.822703 255.332634 
L 104.354595 250.539604 
L 104.886486 254.11826 
L 105.418378 251.884245 
L 105.95027 254.377895 
L 106.482162 253.757006 
L 107.014054 252.711337 
L 107.545946 256.958192 
L 108.077838 256.186399 
L 108.60973 256.313317 
L 109.141622 255.302947 
L 109.673514 252.597521 
L 110.205405 252.632802 
L 110.737297 252.265768 
L 111.269189 254.316422 
L 111.801081 252.560103 
L 112.332973 254.800037 
L 112.864865 253.464976 
L 113.396757 252.895503 
L 113.928649 252.767265 
L 114.460541 254.53215 
L 114.992432 258.39449 
L 115.524324 256.093318 
L 116.056216 252.336845 
L 116.588108 254.40693 
L 117.12 257.915131 
L 117.651892 255.274647 
L 118.183784 251.573134 
L 119.247568 257.767035 
L 119.779459 255.944521 
L 120.311351 254.937503 
L 120.843243 252.280257 
L 121.375135 255.134032 
L 121.907027 252.879537 
L 122.438919 251.990237 
L 122.970811 251.930776 
L 123.502703 250.208168 
L 124.034595 252.870075 
L 124.566486 252.130454 
L 125.098378 253.954601 
L 125.63027 253.923961 
L 126.162162 254.121414 
L 126.694054 255.768541 
L 127.225946 252.280298 
L 127.757838 251.763739 
L 128.28973 254.75924 
L 128.821622 252.079585 
L 129.353514 252.229603 
L 129.885405 252.768207 
L 130.417297 250.561789 
L 130.949189 253.259219 
L 131.481081 253.135142 
L 132.012973 251.756421 
L 132.544865 254.740184 
L 133.076757 251.479162 
L 133.608649 257.249791 
L 134.140541 255.52071 
L 134.672432 254.266516 
L 135.204324 254.086439 
L 135.736216 256.404177 
L 136.8 253.371715 
L 137.331892 255.165149 
L 137.863784 253.725653 
L 138.395676 251.676976 
L 138.927568 251.853 
L 139.459459 254.825647 
L 140.523243 251.929093 
L 141.055135 253.807328 
L 141.587027 253.797512 
L 142.118919 254.322668 
L 142.650811 252.812705 
L 143.182703 254.818157 
L 143.714595 257.499421 
L 144.246486 251.699089 
L 144.778378 254.489004 
L 145.31027 251.985602 
L 146.374054 256.409775 
L 146.905946 256.574113 
L 147.437838 252.12055 
L 147.96973 256.366803 
L 148.501622 254.08413 
L 149.033514 254.769929 
L 149.565405 252.020805 
L 150.629189 255.26318 
L 151.161081 253.831688 
L 151.692973 251.414159 
L 152.224865 251.225792 
L 153.288649 252.724477 
L 153.820541 254.54991 
L 154.352432 257.555617 
L 154.884324 253.747861 
L 155.416216 255.646046 
L 155.948108 256.006337 
L 156.48 254.407753 
L 157.011892 255.857831 
L 157.543784 254.920224 
L 158.075676 253.115071 
L 158.607568 256.36983 
L 159.139459 255.297914 
L 159.671351 251.034902 
L 160.203243 251.560852 
L 160.735135 257.432063 
L 161.267027 254.49399 
L 161.798919 253.309529 
L 162.330811 255.026901 
L 162.862703 255.102098 
L 163.394595 257.123891 
L 163.926486 255.587952 
L 164.458378 251.768447 
L 164.99027 253.293346 
L 165.522162 252.330803 
L 166.054054 251.79891 
L 166.585946 255.320666 
L 167.117838 252.219973 
L 167.64973 252.012858 
L 168.181622 252.96657 
L 168.713514 255.908717 
L 169.245405 254.874583 
L 169.777297 251.173205 
L 170.309189 257.667536 
L 170.841081 255.979718 
L 171.372973 256.973442 
L 172.436757 251.661699 
L 172.968649 255.687142 
L 173.500541 254.488879 
L 174.032432 254.342204 
L 174.564324 256.541527 
L 175.096216 252.486512 
L 175.628108 256.425865 
L 176.16 256.928028 
L 176.691892 255.799425 
L 177.223784 254.312212 
L 177.755676 256.089094 
L 178.287568 254.237149 
L 178.819459 251.884379 
L 179.351351 253.271204 
L 179.883243 252.794027 
L 180.415135 250.761641 
L 180.947027 254.89161 
L 181.478919 251.38317 
L 182.010811 253.205762 
L 182.542703 251.716476 
L 183.074595 257.084452 
L 183.606486 256.272855 
L 184.138378 250.645043 
L 184.67027 255.682263 
L 185.734054 252.970577 
L 186.265946 254.412522 
L 186.797838 254.417418 
L 187.32973 255.291564 
L 187.861622 254.849504 
L 188.925405 252.78572 
L 189.457297 252.298491 
L 189.989189 255.633482 
L 190.521081 252.359219 
L 191.052973 252.753928 
L 191.584865 251.319717 
L 192.116757 254.408919 
L 193.180541 250.787013 
L 193.712432 254.279245 
L 194.244324 254.102625 
L 194.776216 253.215654 
L 195.308108 252.548575 
L 195.84 252.301718 
L 196.371892 253.042264 
L 196.903784 257.950566 
L 197.435676 256.230366 
L 197.967568 251.696786 
L 198.499459 252.472997 
L 199.031351 255.710513 
L 199.563243 254.459006 
L 200.095135 251.839087 
L 200.627027 251.747855 
L 201.158919 254.342998 
L 201.690811 254.605393 
L 202.222703 253.837637 
L 202.754595 252.260991 
L 203.286486 252.105896 
L 203.818378 253.992834 
L 204.35027 255.030099 
L 204.882162 254.374226 
L 205.414054 253.162451 
L 205.945946 255.482228 
L 206.477838 252.022622 
L 207.00973 254.396626 
L 207.541622 253.881745 
L 208.073514 252.777279 
L 208.605405 252.613077 
L 209.137297 256.052368 
L 209.669189 252.879737 
L 210.201081 251.16746 
L 210.732973 254.690199 
L 211.264865 252.805599 
L 212.328649 252.04879 
L 212.860541 250.899657 
L 213.392432 252.501852 
L 213.924324 253.471955 
L 214.456216 252.882648 
L 214.988108 253.719422 
L 215.52 251.133034 
L 216.051892 252.052861 
L 216.583784 254.190104 
L 217.115676 254.598557 
L 217.647568 253.629498 
L 218.179459 255.885857 
L 218.711351 251.763984 
L 219.243243 251.636214 
L 219.775135 253.478503 
L 220.307027 252.423503 
L 220.838919 254.203205 
L 221.370811 254.576607 
L 222.434595 253.429483 
L 222.966486 253.147857 
L 223.498378 252.513227 
L 224.03027 253.933073 
L 224.562162 255.760492 
L 225.094054 255.969477 
L 225.625946 256.366911 
L 226.157838 256.002502 
L 226.68973 255.255733 
L 227.221622 252.77142 
L 227.753514 253.653614 
L 228.285405 255.15738 
L 228.817297 253.713208 
L 229.349189 254.785691 
L 229.881081 254.779373 
L 230.412973 254.045959 
L 230.944865 254.686317 
L 231.476757 257.906763 
L 232.008649 253.497917 
L 232.540541 254.597057 
L 233.072432 254.400566 
L 233.604324 256.476952 
L 234.668108 250.655513 
L 235.2 251.639008 
L 235.731892 255.294687 
L 236.263784 257.583934 
L 236.795676 251.855347 
L 237.327568 255.703904 
L 237.859459 255.877951 
L 238.391351 257.261811 
L 238.923243 252.41465 
L 239.455135 255.919394 
L 239.987027 254.238312 
L 240.518919 254.492531 
L 241.050811 254.339131 
L 241.582703 251.460437 
L 242.114595 251.566647 
L 243.178378 255.206853 
L 243.71027 252.066661 
L 244.242162 253.274455 
L 244.774054 254.832608 
L 245.305946 251.586663 
L 245.837838 252.88311 
L 246.36973 255.148288 
L 247.433514 252.390502 
L 247.965405 253.88941 
L 248.497297 252.893243 
L 249.029189 252.30767 
L 249.561081 254.237428 
L 250.092973 252.576464 
L 250.624865 256.88915 
L 251.156757 255.848363 
L 251.688649 251.788812 
L 252.220541 253.977877 
L 252.752432 252.75523 
L 253.284324 254.479243 
L 253.816216 255.508501 
L 254.348108 251.934065 
L 254.88 254.516786 
L 255.411892 251.509215 
L 255.943784 251.893154 
L 256.475676 254.34155 
L 257.007568 253.520326 
L 257.539459 255.333026 
L 258.071351 252.288651 
L 258.603243 252.545373 
L 259.135135 252.107806 
L 259.667027 253.699452 
L 260.198919 252.198934 
L 260.730811 255.248871 
L 261.262703 254.505377 
L 261.794595 254.786517 
L 262.326486 254.232729 
L 262.858378 252.040195 
L 263.39027 254.649495 
L 263.922162 252.703521 
L 264.454054 255.463241 
L 264.985946 255.871621 
L 265.517838 254.937454 
L 266.04973 251.637031 
L 266.581622 257.055995 
L 267.113514 257.202661 
L 267.645405 256.670373 
L 268.177297 255.167132 
L 268.709189 255.414262 
L 269.241081 253.575381 
L 269.772973 254.30198 
L 270.304865 252.844811 
L 270.836757 253.058381 
L 271.368649 253.543537 
L 272.432432 251.88481 
L 272.964324 251.47749 
L 274.028108 255.213332 
L 274.56 258.710893 
L 275.091892 253.613026 
L 275.623784 255.031294 
L 276.155676 252.361589 
L 276.687568 252.169442 
L 277.219459 253.148671 
L 277.751351 255.773577 
L 278.283243 253.96167 
L 278.815135 253.395513 
L 279.347027 254.321575 
L 279.878919 251.709434 
L 280.410811 256.28607 
L 280.942703 257.119457 
L 281.474595 254.452449 
L 282.006486 257.86305 
L 282.538378 255.201588 
L 283.07027 250.568657 
L 283.602162 254.344219 
L 284.134054 253.077484 
L 284.665946 250.733347 
L 285.197838 253.173328 
L 286.261622 251.540908 
L 286.793514 253.695193 
L 287.325405 258.360264 
L 287.857297 255.853391 
L 288.389189 251.972401 
L 288.921081 254.8486 
L 289.452973 255.324304 
L 289.984865 254.036192 
L 290.516757 254.249716 
L 291.048649 253.744227 
L 291.580541 252.949323 
L 292.112432 252.878673 
L 292.644324 254.510168 
L 293.176216 252.697561 
L 293.708108 252.165409 
L 294.24 253.138489 
L 294.771892 252.691135 
L 295.303784 251.700647 
L 295.835676 253.871618 
L 296.367568 254.104079 
L 296.899459 251.553522 
L 297.431351 254.051948 
L 297.963243 257.211983 
L 298.495135 255.193455 
L 299.027027 251.678302 
L 299.558919 256.371836 
L 300.090811 254.86269 
L 300.622703 254.480839 
L 301.154595 252.717632 
L 301.686486 251.885138 
L 302.218378 254.854221 
L 302.75027 253.441925 
L 303.282162 254.236861 
L 303.814054 255.292657 
L 304.345946 257.65335 
L 304.877838 255.987065 
L 305.40973 254.78804 
L 305.941622 254.230712 
L 306.473514 254.671233 
L 307.005405 254.494296 
L 307.537297 252.688547 
L 308.069189 253.977037 
L 308.601081 254.152657 
L 309.132973 252.76056 
L 309.664865 253.886767 
L 310.196757 253.270823 
L 310.728649 255.102848 
L 311.260541 253.307041 
L 311.792432 253.336189 
L 312.324324 251.978888 
L 313.388108 254.383754 
L 313.92 252.815907 
L 314.451892 255.101202 
L 314.983784 255.084591 
L 315.515676 251.526708 
L 316.047568 254.200693 
L 316.579459 252.982208 
L 317.111351 253.53084 
L 317.643243 250.949363 
L 318.707027 256.659391 
L 319.238919 255.268358 
L 319.770811 251.656079 
L 320.302703 252.91164 
L 320.834595 253.202683 
L 321.366486 254.158736 
L 321.898378 252.499128 
L 322.43027 250.017068 
L 322.962162 252.369527 
L 324.025946 257.67962 
L 324.557838 255.205682 
L 325.08973 255.41999 
L 325.621622 254.65083 
L 326.153514 253.308314 
L 326.685405 255.870956 
L 327.217297 255.564522 
L 327.749189 255.540857 
L 328.281081 254.316283 
L 328.812973 251.277464 
L 329.344865 254.405735 
L 329.876757 251.377686 
L 330.408649 251.058753 
L 330.940541 256.116309 
L 331.472432 252.414487 
L 332.004324 257.623355 
L 332.536216 255.176821 
L 333.068108 255.325388 
L 333.6 256.460486 
L 334.131892 254.663618 
L 334.663784 252.364636 
L 335.195676 253.309163 
L 335.727568 253.14631 
L 336.259459 254.706395 
L 336.791351 253.47852 
L 337.323243 257.181273 
L 337.855135 255.589676 
L 338.387027 255.646869 
L 338.918919 256.027891 
L 339.450811 254.746796 
L 339.982703 255.389405 
L 340.514595 251.259687 
L 341.046486 254.191703 
L 341.578378 252.589127 
L 342.11027 253.586026 
L 342.642162 250.453597 
L 343.174054 254.885998 
L 343.705946 254.978257 
L 344.237838 251.318417 
L 344.76973 253.79188 
L 345.301622 254.014696 
L 345.833514 256.457393 
L 346.365405 255.317096 
L 346.897297 255.827272 
L 347.429189 253.957032 
L 347.961081 252.624917 
L 348.492973 252.488727 
L 349.024865 251.799645 
L 349.556757 253.675182 
L 350.088649 254.468272 
L 350.620541 255.993314 
L 351.152432 254.632864 
L 351.684324 250.851626 
L 352.216216 251.665671 
L 352.748108 253.211738 
L 353.28 251.459117 
L 353.811892 252.507307 
L 354.343784 251.227601 
L 354.875676 255.192024 
L 355.407568 253.654248 
L 355.939459 252.741192 
L 356.471351 257.775537 
L 357.003243 255.644569 
L 357.535135 251.943151 
L 358.067027 256.786509 
L 358.598919 255.822195 
L 359.130811 253.568348 
L 359.662703 252.055562 
L 360.194595 254.381849 
L 360.726486 251.0368 
L 361.258378 251.830341 
L 361.79027 251.705959 
L 362.322162 252.317431 
L 362.854054 254.456482 
L 363.385946 254.814546 
L 363.917838 255.513938 
L 364.44973 253.989019 
L 364.981622 254.497802 
L 365.513514 255.410383 
L 366.045405 252.27197 
L 366.577297 251.249103 
L 367.109189 252.454321 
L 368.172973 253.929474 
L 368.704865 253.04277 
L 369.236757 254.785714 
L 369.768649 253.963635 
L 370.300541 258.224734 
L 370.832432 256.189831 
L 371.364324 252.18359 
L 371.896216 256.649971 
L 372.428108 257.579215 
L 373.491892 251.675264 
L 374.023784 253.467212 
L 374.555676 253.493343 
L 375.087568 252.706188 
L 375.619459 257.565895 
L 376.683243 252.296162 
L 377.215135 251.491764 
L 377.747027 253.529302 
L 378.278919 252.565639 
L 378.810811 254.537602 
L 379.342703 251.378515 
L 379.874595 254.447791 
L 380.406486 253.88827 
L 380.938378 253.538461 
L 381.47027 255.914378 
L 382.002162 252.334216 
L 382.534054 253.768997 
L 383.065946 255.57924 
L 383.597838 256.216279 
L 384.12973 255.169238 
L 384.661622 258.266825 
L 385.193514 254.828788 
L 385.725405 257.343656 
L 386.257297 255.205495 
L 386.789189 257.691367 
L 387.321081 253.622819 
L 387.852973 256.160797 
L 388.384865 253.361646 
L 388.916757 252.983199 
L 389.448649 251.154544 
L 389.980541 255.223677 
L 390.512432 256.685178 
L 391.044324 255.377472 
L 391.576216 257.031344 
L 392.108108 254.353686 
L 393.171892 254.955298 
L 393.703784 252.471657 
L 394.235676 258.974419 
L 394.767568 256.033957 
L 395.299459 250.403661 
L 395.831351 253.38126 
L 396.895135 254.667901 
L 397.427027 254.022468 
L 397.958919 252.767634 
L 398.490811 252.516099 
L 399.022703 252.931667 
L 399.554595 251.441561 
L 400.086486 253.25033 
L 400.618378 250.669051 
L 401.15027 252.262157 
L 401.682162 252.358975 
L 402.214054 253.228811 
L 402.745946 253.440491 
L 403.277838 254.728306 
L 403.80973 253.554979 
L 404.341622 256.334523 
L 404.873514 255.338315 
L 405.405405 252.496226 
L 405.937297 251.654506 
L 406.469189 256.453305 
L 407.001081 257.020246 
L 407.532973 256.771121 
L 408.064865 255.588309 
L 408.596757 255.996553 
L 409.128649 254.626706 
L 409.660541 258.141981 
L 410.192432 253.77767 
L 410.724324 253.105863 
L 411.256216 253.531558 
L 411.788108 252.07468 
L 412.32 251.281203 
L 412.851892 254.855055 
L 413.915676 252.474442 
L 414.447568 252.709668 
L 414.979459 252.642246 
L 415.511351 251.067229 
L 416.043243 253.23264 
L 416.575135 253.704049 
L 417.107027 254.996851 
L 417.638919 252.05999 
L 418.170811 254.054475 
L 418.702703 252.537476 
L 419.234595 253.613553 
L 419.766486 253.410953 
L 420.298378 253.465017 
L 420.83027 255.804182 
L 421.362162 251.330112 
L 421.894054 252.616235 
L 422.425946 251.538853 
L 422.957838 251.340949 
L 423.48973 254.699448 
L 424.021622 255.573335 
L 424.553514 255.490232 
L 425.085405 252.756638 
L 425.617297 254.502164 
L 426.149189 254.471916 
L 426.681081 254.703862 
L 427.212973 256.021997 
L 427.744865 253.287548 
L 428.276757 256.662964 
L 428.808649 254.801491 
L 429.872432 253.260655 
L 430.404324 255.904405 
L 430.936216 257.055289 
L 431.468108 254.116166 
L 432 255.562658 
L 432.531892 252.432898 
L 433.063784 256.533497 
L 433.595676 254.395323 
L 434.127568 254.630933 
L 434.659459 254.489469 
L 435.191351 255.198479 
L 436.255135 252.899457 
L 436.787027 254.014647 
L 437.318919 252.451789 
L 437.850811 255.180772 
L 438.382703 252.012239 
L 438.914595 252.964329 
L 439.446486 251.617111 
L 439.978378 252.167386 
L 441.042162 256.433914 
L 442.105946 251.858437 
L 442.637838 253.667259 
L 443.16973 252.373769 
L 443.701622 251.570049 
L 444.233514 251.91292 
L 444.765405 255.880272 
L 445.297297 256.558697 
L 445.829189 256.923928 
L 446.361081 254.714952 
L 446.892973 254.331612 
L 447.424865 255.26092 
L 447.956757 252.819175 
L 448.488649 251.483876 
L 449.020541 254.202624 
L 449.552432 252.831297 
L 450.084324 256.925318 
L 450.616216 255.842752 
L 451.148108 252.779099 
L 451.68 255.633685 
L 452.211892 257.859587 
L 452.743784 254.794661 
L 453.275676 252.616616 
L 453.807568 252.560566 
L 454.339459 255.040753 
L 454.871351 250.466786 
L 455.403243 252.201574 
L 455.935135 254.722575 
L 456.467027 251.035701 
L 456.998919 253.219739 
L 457.530811 253.601986 
L 458.062703 255.474802 
L 458.594595 256.080638 
L 459.126486 255.413477 
L 459.658378 256.882364 
L 460.19027 252.835588 
L 460.722162 252.631982 
L 461.254054 251.874708 
L 461.785946 254.600996 
L 462.317838 250.889905 
L 462.84973 254.969868 
L 463.381622 253.303412 
L 463.913514 252.608341 
L 464.445405 251.343359 
L 464.977297 251.991475 
L 465.509189 252.459695 
L 466.041081 252.363086 
L 466.572973 251.921405 
L 467.104865 253.971003 
L 467.636757 251.693613 
L 468.168649 251.719727 
L 468.700541 254.177453 
L 469.232432 254.336139 
L 469.764324 251.715706 
L 470.296216 255.925959 
L 470.828108 254.25315 
L 471.36 254.250076 
L 472.423784 253.260897 
L 472.955676 255.958312 
L 473.487568 255.985359 
L 474.019459 255.690369 
L 474.551351 251.777277 
L 475.083243 251.470061 
L 475.615135 252.180854 
L 476.147027 251.971864 
L 476.678919 252.431723 
L 477.210811 252.365162 
L 478.274595 253.947074 
L 478.806486 254.077358 
L 479.338378 253.352815 
L 479.87027 255.750304 
L 480.934054 253.368816 
L 481.465946 251.777425 
L 482.52973 254.964408 
L 483.061622 255.050357 
L 483.593514 255.896522 
L 484.657297 254.015754 
L 485.189189 254.756941 
L 485.721081 252.324572 
L 486.252973 253.595787 
L 486.784865 251.120397 
L 487.848649 256.864604 
L 488.380541 253.80283 
L 488.912432 253.842222 
L 489.444324 253.604789 
L 489.976216 253.736106 
L 490.508108 254.638601 
L 491.04 254.87465 
L 491.571892 253.976621 
L 492.103784 251.712016 
L 492.635676 255.273702 
L 493.167568 252.114165 
L 493.699459 250.798835 
L 494.763243 256.242145 
L 495.295135 255.684923 
L 495.827027 253.287434 
L 496.358919 253.127056 
L 496.890811 253.78238 
L 497.422703 253.726263 
L 497.954595 252.776322 
L 498.486486 253.55379 
L 499.018378 253.607685 
L 499.55027 253.962001 
L 500.082162 255.209581 
L 500.614054 253.60836 
L 501.145946 255.203675 
L 501.677838 257.389554 
L 502.20973 255.56474 
L 502.741622 251.864186 
L 503.273514 254.045017 
L 503.805405 251.308093 
L 504.869189 252.203159 
L 505.401081 251.742889 
L 505.932973 251.735032 
L 506.464865 252.419322 
L 506.996757 252.20021 
L 507.528649 253.784111 
L 508.060541 252.960569 
L 508.592432 253.076525 
L 509.124324 253.583729 
L 509.656216 252.631314 
L 510.188108 252.535723 
L 510.72 252.952518 
L 511.251892 252.662233 
L 511.783784 254.594387 
L 512.315676 255.380798 
L 512.847568 252.406628 
L 513.379459 253.344886 
L 513.911351 254.614508 
L 514.443243 250.92586 
L 515.507027 257.418429 
L 516.038919 250.41931 
L 516.570811 252.876827 
L 517.102703 251.76649 
L 517.634595 251.902715 
L 518.166486 254.430921 
L 518.698378 255.6574 
L 519.23027 253.405443 
L 519.762162 253.274449 
L 520.294054 254.28313 
L 520.825946 252.561103 
L 521.357838 254.531388 
L 522.421622 255.387826 
L 522.953514 255.618266 
L 523.485405 253.048629 
L 524.017297 251.535012 
L 525.081081 257.00107 
L 525.612973 257.398739 
L 526.144865 256.359018 
L 527.208649 251.616047 
L 527.740541 251.476066 
L 528.272432 252.230301 
L 528.804324 252.618488 
L 529.336216 253.435418 
L 529.868108 253.555415 
L 530.4 254.685468 
L 530.931892 254.223495 
L 531.463784 255.107015 
L 531.995676 254.738832 
L 532.527568 254.959625 
L 533.059459 253.053278 
L 533.591351 254.526588 
L 534.123243 254.616942 
L 534.655135 253.876134 
L 535.187027 254.783019 
L 535.718919 256.27052 
L 536.250811 252.126432 
L 536.782703 252.934127 
L 537.314595 252.533443 
L 537.846486 251.424874 
L 538.378378 254.74602 
L 538.91027 254.138499 
L 539.442162 250.451172 
L 539.974054 251.896626 
L 540.505946 252.261433 
L 541.037838 255.052726 
L 541.56973 251.651415 
L 542.101622 253.674104 
L 542.633514 254.3217 
L 543.165405 254.625066 
L 543.697297 253.350873 
L 544.229189 253.389736 
L 544.761081 251.992054 
L 545.292973 253.948722 
L 545.824865 252.510432 
L 546.356757 256.314498 
L 547.420541 254.200074 
L 547.952432 260.073867 
L 548.484324 256.191177 
L 549.016216 255.459362 
L 549.548108 256.642366 
L 550.08 251.526411 
L 550.611892 255.502255 
L 551.143784 254.780129 
L 551.675676 251.926345 
L 552.207568 252.452344 
L 552.739459 253.529726 
L 553.271351 253.384921 
L 553.803243 251.242846 
L 554.335135 253.733312 
L 554.867027 253.931413 
L 555.398919 254.624176 
L 555.930811 254.50663 
L 556.462703 253.797794 
L 556.994595 253.889087 
L 557.526486 252.390645 
L 558.058378 253.362486 
L 558.59027 253.84044 
L 559.122162 255.189975 
L 559.654054 252.407773 
L 560.185946 252.25733 
L 560.717838 253.634485 
L 561.24973 251.800471 
L 561.781622 254.910221 
L 562.313514 251.155044 
L 562.845405 252.235166 
L 563.377297 251.909379 
L 563.909189 249.326212 
L 564.441081 254.892587 
L 564.972973 255.283603 
L 565.504865 255.076752 
L 566.036757 255.295094 
L 566.568649 254.047575 
L 567.100541 251.946466 
L 567.632432 252.265742 
L 568.164324 255.06682 
L 568.696216 254.721854 
L 569.228108 251.767441 
L 569.76 250.91844 
L 570.291892 252.671607 
L 570.823784 257.945266 
L 571.355676 255.371648 
L 571.887568 254.70372 
L 572.951351 257.440033 
L 573.483243 255.369497 
L 574.015135 254.491025 
L 574.547027 255.9759 
L 575.078919 256.576858 
L 575.610811 253.63379 
L 576.142703 253.624311 
L 576.674595 251.294572 
L 577.206486 252.319181 
L 577.738378 250.50915 
L 578.27027 252.886178 
L 578.802162 252.213623 
L 579.334054 254.934195 
L 579.865946 252.493222 
L 580.92973 256.618992 
L 581.461622 255.133 
L 581.993514 253.135773 
L 582.525405 254.693046 
L 583.057297 254.458599 
L 583.589189 254.870596 
L 584.121081 253.84818 
L 584.652973 254.676533 
L 585.184865 253.144077 
L 585.716757 253.270032 
L 586.248649 252.037247 
L 587.312432 255.480347 
L 587.844324 257.890074 
L 588.908108 252.535862 
L 589.44 253.267459 
L 589.971892 255.229416 
L 590.503784 254.604733 
L 591.035676 255.121018 
L 591.567568 252.638719 
L 592.099459 252.392944 
L 592.631351 253.079336 
L 593.163243 254.950887 
L 593.695135 251.567033 
L 594.227027 253.165315 
L 594.758919 251.071008 
L 595.290811 251.720343 
L 595.822703 251.954784 
L 596.354595 250.851928 
L 596.886486 251.520416 
L 597.418378 254.118847 
L 597.95027 252.593855 
L 598.482162 252.025811 
L 599.014054 253.812974 
L 599.545946 254.616032 
L 600.077838 253.29969 
L 600.60973 255.087638 
L 601.141622 251.84936 
L 601.673514 252.593113 
L 602.205405 255.339458 
L 602.737297 250.975665 
L 603.269189 255.682001 
L 603.801081 255.141731 
L 604.332973 253.667146 
L 604.864865 252.722296 
L 605.396757 252.177958 
L 605.928649 253.484158 
L 606.460541 252.939692 
L 606.992432 253.891846 
L 607.524324 251.634743 
L 608.588108 256.526166 
L 609.12 255.632581 
L 609.12 255.632581 
" style="fill:none;stroke:#000004;stroke-width:3;"/>
   </g>
   <g id="line2d_22">
    <path clip-path="url(#p7316933ab1)" d="M 77.76 254.521017 
L 80.419459 254.521017 
L 80.951351 222.01655 
L 81.483243 282.143365 
L 82.015135 254.521017 
L 85.738378 254.521017 
L 86.27027 226.66686 
L 86.802162 254.752829 
L 87.334054 254.521017 
L 88.397838 254.521017 
L 88.92973 254.289206 
L 89.461622 254.521017 
L 89.993514 246.874115 
L 90.525405 254.521017 
L 91.057297 254.521017 
L 91.589189 221.217936 
L 92.121081 254.521017 
L 92.652973 276.711298 
L 93.184865 254.521017 
L 95.312432 254.521017 
L 95.844324 269.804163 
L 96.376216 239.237872 
L 96.908108 254.521017 
L 97.44 232.330736 
L 97.971892 254.521017 
L 100.099459 254.521017 
L 100.631351 267.459633 
L 101.163243 254.521017 
L 102.227027 254.521017 
L 102.758919 253.5963 
L 103.290811 254.521017 
L 105.95027 254.521017 
L 106.482162 226.125732 
L 107.014054 279.218251 
L 107.545946 276.728946 
L 108.077838 232.313089 
L 108.60973 298.752034 
L 109.141622 210.29 
L 109.673514 254.521017 
L 110.205405 256.832147 
L 110.737297 254.521017 
L 112.864865 254.521017 
L 113.396757 252.440978 
L 113.928649 254.521017 
L 114.992432 254.521017 
L 115.524324 229.592694 
L 116.056216 254.521017 
L 116.588108 254.521017 
L 117.12 282.222819 
L 117.651892 226.819216 
L 118.183784 254.521017 
L 119.247568 254.521017 
L 119.779459 258.671624 
L 120.311351 254.521017 
L 125.098378 254.521017 
L 125.63027 270.677903 
L 126.162162 254.521017 
L 126.694054 254.521017 
L 127.225946 254.290029 
L 127.757838 254.521017 
L 130.417297 254.521017 
L 130.949189 249.902324 
L 131.481081 254.521017 
L 133.076757 254.521017 
L 133.608649 268.152022 
L 134.140541 250.129435 
L 134.672432 254.521017 
L 135.204324 219.915088 
L 135.736216 254.521017 
L 136.8 254.521017 
L 137.331892 268.349685 
L 137.863784 254.521017 
L 144.778378 254.521017 
L 145.31027 223.892009 
L 145.842162 254.521017 
L 146.374054 293.455987 
L 146.905946 234.920279 
L 147.437838 254.521017 
L 147.96973 254.290638 
L 148.501622 254.521017 
L 153.288649 254.521017 
L 153.820541 275.967947 
L 154.352432 254.521017 
L 159.139459 254.521017 
L 159.671351 233.074087 
L 160.203243 254.521017 
L 160.735135 268.583408 
L 161.267027 240.458627 
L 161.798919 254.521017 
L 162.862703 254.521017 
L 163.394595 274.352134 
L 163.926486 234.6899 
L 164.458378 254.521017 
L 167.117838 254.521017 
L 167.64973 252.217505 
L 168.181622 233.812124 
L 168.713514 254.521017 
L 169.777297 254.521017 
L 170.309189 273.157181 
L 170.841081 235.884853 
L 171.372973 254.521017 
L 172.436757 254.521017 
L 172.968649 273.157181 
L 173.500541 235.884853 
L 174.032432 254.521017 
L 182.010811 254.521017 
L 182.542703 243.033698 
L 183.074595 267.847474 
L 183.606486 241.19456 
L 184.138378 254.521017 
L 184.67027 254.521017 
L 185.202162 231.125742 
L 185.734054 266.212148 
L 186.265946 254.521017 
L 187.32973 254.521017 
L 187.861622 220.858229 
L 188.393514 234.648721 
L 188.925405 254.521017 
L 189.457297 254.749222 
L 189.989189 254.521017 
L 192.116757 254.521017 
L 192.648649 238.558622 
L 193.180541 254.521017 
L 194.776216 254.521017 
L 195.308108 247.687378 
L 195.84 254.521017 
L 196.371892 254.521017 
L 196.903784 266.368806 
L 197.435676 230.61127 
L 197.967568 254.521017 
L 199.563243 254.521017 
L 200.095135 302.166351 
L 200.627027 206.875683 
L 201.158919 254.521017 
L 202.754595 254.521017 
L 203.286486 302.166351 
L 203.818378 200.281571 
L 204.35027 254.521017 
L 207.00973 254.521017 
L 207.541622 249.975752 
L 208.073514 254.521017 
L 208.605405 280.683053 
L 209.137297 254.521017 
L 212.328649 254.521017 
L 212.860541 228.358981 
L 213.392432 254.521017 
L 213.924324 256.793405 
L 214.456216 254.521017 
L 216.051892 254.521017 
L 216.583784 260.204127 
L 217.115676 254.521017 
L 219.775135 254.521017 
L 220.307027 277.2841 
L 220.838919 254.521017 
L 224.03027 254.521017 
L 224.562162 231.757935 
L 225.625946 274.549937 
L 226.157838 234.492098 
L 226.68973 254.521017 
L 227.221622 254.521017 
L 227.753514 276.144778 
L 228.817297 232.897256 
L 229.349189 224.548673 
L 229.881081 254.521017 
L 230.944865 254.521017 
L 231.476757 284.493361 
L 232.008649 254.521017 
L 232.540541 234.076111 
L 233.072432 254.521017 
L 236.795676 254.521017 
L 237.327568 268.828296 
L 237.859459 240.667641 
L 238.391351 254.521017 
L 240.518919 254.521017 
L 241.050811 232.755681 
L 241.582703 254.521017 
L 242.114595 254.521017 
L 242.646486 242.297664 
L 243.178378 254.521017 
L 243.71027 254.521017 
L 244.242162 273.994506 
L 244.774054 254.521017 
L 245.305946 254.747664 
L 245.837838 254.521017 
L 248.497297 254.521017 
L 249.029189 264.49829 
L 249.561081 254.521017 
L 250.092973 256.109179 
L 250.624865 269.734079 
L 251.156757 239.307955 
L 251.688649 254.521017 
L 252.220541 254.521017 
L 252.752432 268.59802 
L 253.284324 254.521017 
L 256.475676 254.521017 
L 257.007568 270.664529 
L 257.539459 238.377505 
L 258.071351 254.521017 
L 260.198919 254.521017 
L 260.730811 240.444014 
L 261.262703 254.521017 
L 264.454054 254.521017 
L 264.985946 257.925025 
L 265.517838 254.521017 
L 266.04973 254.521017 
L 266.581622 298.417385 
L 267.113514 239.034107 
L 267.645405 254.521017 
L 272.432432 254.521017 
L 272.964324 226.11156 
L 273.496216 254.521017 
L 274.028108 250.43634 
L 274.56 254.521017 
L 275.623784 254.521017 
L 276.155676 259.740607 
L 276.687568 254.521017 
L 278.815135 254.521017 
L 279.347027 242.043673 
L 279.878919 254.521017 
L 280.410811 284.036697 
L 280.942703 237.936682 
L 281.474595 254.521017 
L 282.006486 279.521068 
L 282.538378 254.521017 
L 284.665946 254.521017 
L 285.197838 277.299823 
L 285.72973 254.521017 
L 286.793514 254.521017 
L 287.325405 265.01581 
L 287.857297 244.026224 
L 288.389189 266.385467 
L 288.921081 254.521017 
L 290.516757 254.521017 
L 291.048649 246.761982 
L 291.580541 254.521017 
L 292.112432 254.521017 
L 292.644324 248.363495 
L 293.176216 233.794319 
L 293.708108 254.521017 
L 295.303784 254.521017 
L 295.835676 263.171171 
L 296.367568 254.521017 
L 298.495135 254.521017 
L 299.027027 220.870813 
L 299.558919 254.521017 
L 301.154595 254.521017 
L 301.686486 248.166801 
L 302.218378 254.521017 
L 302.75027 254.521017 
L 303.282162 258.378478 
L 303.814054 254.521017 
L 304.345946 278.832709 
L 304.877838 251.791685 
L 305.40973 281.162161 
L 305.941622 227.879873 
L 306.473514 254.521017 
L 309.664865 254.521017 
L 310.196757 281.162161 
L 311.260541 227.879873 
L 311.792432 254.521017 
L 312.324324 254.521017 
L 312.856216 268.402452 
L 313.388108 254.521017 
L 317.643243 254.521017 
L 318.175135 250.650585 
L 318.707027 262.946716 
L 319.238919 246.095318 
L 319.770811 247.694304 
L 320.302703 254.521017 
L 321.898378 254.521017 
L 322.43027 229.754369 
L 322.962162 254.521017 
L 323.494054 254.521017 
L 324.025946 264.965917 
L 325.08973 245.43791 
L 325.621622 263.604124 
L 326.153514 245.43791 
L 326.685405 254.521017 
L 327.217297 254.521017 
L 327.749189 271.10357 
L 328.281081 254.521017 
L 328.812973 254.521017 
L 329.344865 284.800173 
L 329.876757 224.241862 
L 330.408649 256.794628 
L 330.940541 274.09431 
L 331.472432 254.521017 
L 332.004324 270.251466 
L 332.536216 238.790568 
L 333.068108 257.710806 
L 333.6 264.096175 
L 334.131892 254.521017 
L 334.663784 254.521017 
L 335.195676 258.39915 
L 335.727568 254.521017 
L 340.514595 254.521017 
L 341.046486 252.467711 
L 341.578378 254.521017 
L 343.705946 254.521017 
L 344.237838 245.400045 
L 344.76973 254.521017 
L 345.301622 254.521017 
L 345.833514 253.837262 
L 346.365405 261.816691 
L 346.897297 254.521017 
L 347.429189 245.630087 
L 347.961081 254.521017 
L 350.088649 254.521017 
L 350.620541 229.484325 
L 351.152432 256.794628 
L 351.684324 254.521017 
L 354.875676 254.521017 
L 355.407568 256.795118 
L 355.939459 254.521017 
L 356.471351 278.884611 
L 357.003243 230.157423 
L 357.535135 262.939451 
L 358.067027 254.521017 
L 360.194595 254.521017 
L 360.726486 246.102583 
L 361.258378 254.748454 
L 361.79027 254.521017 
L 362.322162 254.521017 
L 362.854054 254.29358 
L 363.385946 254.521017 
L 372.428108 254.521017 
L 372.96 271.592405 
L 373.491892 272.076427 
L 374.023784 236.965608 
L 374.555676 254.521017 
L 375.087568 254.521017 
L 375.619459 270.479272 
L 376.151351 238.562763 
L 376.683243 254.521017 
L 378.278919 254.521017 
L 378.810811 277.325924 
L 379.342703 231.71611 
L 379.874595 240.179196 
L 380.406486 291.667745 
L 380.938378 254.521017 
L 381.47027 254.521017 
L 382.002162 239.008317 
L 382.534054 259.537335 
L 383.065946 254.521017 
L 383.597838 276.895478 
L 384.12973 239.67551 
L 385.193514 269.823641 
L 385.725405 254.521017 
L 386.257297 259.093276 
L 386.789189 289.794093 
L 387.321081 219.247942 
L 387.852973 249.720198 
L 388.384865 254.749578 
L 388.916757 254.521017 
L 390.512432 254.521017 
L 391.044324 264.125054 
L 391.576216 247.431477 
L 392.108108 254.521017 
L 393.703784 254.521017 
L 394.235676 290.704764 
L 394.767568 207.597708 
L 395.299459 254.521017 
L 398.490811 254.521017 
L 399.022703 254.749405 
L 399.554595 254.521017 
L 401.15027 254.521017 
L 401.682162 254.29263 
L 402.214054 252.694096 
L 403.277838 256.576326 
L 403.80973 262.517697 
L 404.341622 254.521017 
L 407.001081 254.521017 
L 407.532973 277.631255 
L 408.064865 249.711739 
L 408.596757 254.521017 
L 409.128649 254.521017 
L 409.660541 260.475686 
L 410.192432 248.566348 
L 410.724324 252.689489 
L 411.256216 254.749941 
L 411.788108 254.521017 
L 415.511351 254.521017 
L 416.043243 225.259175 
L 416.575135 283.096103 
L 417.107027 225.945931 
L 418.170811 283.096103 
L 418.702703 254.521017 
L 419.234595 256.810378 
L 419.766486 254.521017 
L 421.362162 254.521017 
L 421.894054 223.65657 
L 422.425946 254.521017 
L 423.48973 254.521017 
L 424.021622 233.311308 
L 424.553514 254.521017 
L 425.085405 270.024998 
L 425.617297 258.400577 
L 426.149189 254.292768 
L 426.681081 254.521017 
L 427.212973 254.521017 
L 427.744865 268.910363 
L 428.276757 254.521017 
L 428.808649 273.737443 
L 429.340541 254.521017 
L 429.872432 246.738715 
L 430.404324 270.778841 
L 430.936216 254.521017 
L 431.468108 273.099412 
L 432 254.521017 
L 432.531892 284.176809 
L 433.063784 229.227879 
L 433.595676 254.521017 
L 434.127568 272.219814 
L 434.659459 254.521017 
L 435.191351 254.521017 
L 435.723243 219.38246 
L 436.255135 254.521017 
L 436.787027 248.790571 
L 437.318919 254.521017 
L 442.105946 254.521017 
L 442.637838 243.06948 
L 443.16973 242.624621 
L 443.701622 254.521017 
L 444.765405 254.521017 
L 445.297297 238.984439 
L 445.829189 285.846118 
L 446.361081 349.753481 
L 446.892973 254.752097 
L 447.424865 221.067519 
L 447.956757 287.974515 
L 448.488649 236.281394 
L 449.020541 234.010517 
L 449.552432 262.58216 
L 450.084324 254.521017 
L 452.211892 254.521017 
L 452.743784 218.409324 
L 453.275676 244.881574 
L 453.807568 254.521017 
L 454.339459 237.558708 
L 454.871351 241.931587 
L 455.403243 254.521017 
L 456.467027 254.521017 
L 456.998919 233.72423 
L 457.530811 275.317804 
L 458.062703 233.72423 
L 458.594595 254.521017 
L 459.658378 254.521017 
L 460.19027 231.259005 
L 460.722162 254.521017 
L 461.254054 239.951392 
L 461.785946 254.521017 
L 462.317838 230.434208 
L 462.84973 254.521017 
L 463.381622 239.551254 
L 463.913514 254.521017 
L 466.041081 254.521017 
L 466.572973 230.522912 
L 467.104865 254.521017 
L 467.636757 254.74716 
L 468.168649 254.521017 
L 469.764324 254.521017 
L 470.296216 349.246783 
L 470.828108 254.521017 
L 472.955676 254.521017 
L 473.487568 267.992374 
L 474.019459 257.491599 
L 474.551351 254.521017 
L 475.083243 254.521017 
L 475.615135 238.079079 
L 476.147027 254.521017 
L 488.380541 254.521017 
L 488.912432 246.993692 
L 489.444324 254.521017 
L 494.231351 254.521017 
L 494.763243 307.325584 
L 495.295135 301.375029 
L 495.827027 254.521017 
L 499.55027 254.521017 
L 500.082162 161.933413 
L 500.614054 254.521017 
L 501.145946 254.521017 
L 501.677838 249.958558 
L 502.20973 254.521017 
L 507.528649 254.521017 
L 508.060541 252.012506 
L 508.592432 254.521017 
L 510.72 254.521017 
L 511.251892 212.194413 
L 511.783784 254.521017 
L 515.507027 254.521017 
L 516.038919 291.148678 
L 516.570811 254.521017 
L 520.825946 254.521017 
L 521.357838 207.678481 
L 521.88973 254.521017 
L 524.549189 254.521017 
L 525.081081 234.347278 
L 525.612973 397.930909 
L 526.676757 254.521017 
L 529.336216 254.521017 
L 529.868108 90.949091 
L 530.4 254.521017 
L 543.165405 254.521017 
L 543.697297 256.797668 
L 544.229189 254.521017 
L 546.356757 254.521017 
L 546.888649 235.412392 
L 547.420541 254.521017 
L 547.952432 386.713107 
L 548.484324 296.954174 
L 549.016216 254.521017 
L 550.08 254.521017 
L 550.611892 174.869715 
L 551.143784 254.521017 
L 554.335135 254.521017 
L 554.867027 185.26076 
L 555.398919 254.521017 
L 556.994595 254.521017 
L 557.526486 246.777564 
L 558.058378 254.521017 
L 561.781622 254.521017 
L 562.313514 246.328254 
L 562.845405 254.521017 
L 569.76 254.521017 
L 570.291892 254.748508 
L 570.823784 362.218749 
L 571.355676 325.780482 
L 571.887568 254.521017 
L 572.419459 254.521017 
L 572.951351 242.726317 
L 573.483243 254.521017 
L 574.015135 254.521017 
L 574.547027 216.452395 
L 575.078919 125.427143 
L 575.610811 263.624676 
L 576.142703 254.521017 
L 577.738378 254.521017 
L 578.27027 277.314588 
L 578.802162 254.521017 
L 582.525405 254.521017 
L 583.057297 392.32912 
L 583.589189 139.555875 
L 584.121081 254.521017 
L 585.184865 254.521017 
L 585.716757 369.48616 
L 586.248649 139.555875 
L 586.780541 254.521017 
L 587.312432 277.413637 
L 587.844324 335.040179 
L 588.376216 268.849075 
L 588.908108 254.521017 
L 589.44 254.521017 
L 589.971892 260.998184 
L 590.503784 258.687027 
L 591.035676 254.521017 
L 591.567568 254.058045 
L 592.099459 254.521017 
L 592.631351 254.521017 
L 593.163243 241.56611 
L 593.695135 254.521017 
L 596.354595 254.521017 
L 596.886486 237.195759 
L 597.418378 254.521017 
L 599.545946 254.521017 
L 600.077838 223.407519 
L 600.60973 254.521017 
L 601.141622 238.654113 
L 601.673514 254.521017 
L 605.928649 254.521017 
L 606.460541 232.026518 
L 606.992432 254.521017 
L 608.056216 254.521017 
L 608.588108 289.431053 
L 609.12 247.391784 
L 609.12 247.391784 
" style="fill:none;stroke:#b73779;stroke-width:3;"/>
   </g>
   <g id="line2d_23">
    <path clip-path="url(#p7316933ab1)" d="M 77.76 254.521017 
L 609.12 254.521017 
" style="fill:none;opacity:0.7;stroke:#000000;stroke-width:1.3;"/>
   </g>
   <g id="patch_3">
    <path d="M 77.76 413.28 
L 77.76 75.6 
" style="fill:none;stroke:#000000;stroke-linecap:square;stroke-linejoin:miter;stroke-width:0.8;"/>
   </g>
   <g id="patch_4">
    <path d="M 609.12 413.28 
L 609.12 75.6 
" style="fill:none;stroke:#000000;stroke-linecap:square;stroke-linejoin:miter;stroke-width:0.8;"/>
   </g>
   <g id="patch_5">
    <path d="M 77.76 413.28 
L 609.12 413.28 
" style="fill:none;stroke:#000000;stroke-linecap:square;stroke-linejoin:miter;stroke-width:0.8;"/>
   </g>
   <g id="patch_6">
    <path d="M 77.76 75.6 
L 609.12 75.6 
" style="fill:none;stroke:#000000;stroke-linecap:square;stroke-linejoin:miter;stroke-width:0.8;"/>
   </g>
   <g id="patch_7">
    <path d="M 0 504 
L 648 504 
L 648 480.923077 
L 0 480.923077 
z
" style="fill:#808080;"/>
   </g>
   <g id="text_13">
    <!-- ©spred -->
    <defs>
     <path d="M 50.90625 25.90625 
L 50.90625 44 
Q 50.90625 52.40625 44.75 58.40625 
Q 38.59375 64.40625 30 64.40625 
Q 21.296875 64.40625 15.09375 58.40625 
Q 8.90625 52.40625 8.90625 44 
L 8.90625 25.90625 
Q 8.90625 17.5 15.09375 11.453125 
Q 21.296875 5.40625 30 5.40625 
Q 38.59375 5.40625 44.75 11.453125 
Q 50.90625 17.5 50.90625 25.90625 
z
M 57.703125 43.203125 
L 57.703125 26.59375 
Q 57.703125 15.203125 49.59375 7.09375 
Q 41.5 -1 30 -1 
Q 18.40625 -1 10.296875 7.09375 
Q 2.203125 15.203125 2.203125 26.59375 
L 2.203125 43.203125 
Q 2.203125 54.59375 10.296875 62.6875 
Q 18.40625 70.796875 30 70.796875 
Q 41.5 70.796875 49.59375 62.6875 
Q 57.703125 54.59375 57.703125 43.203125 
z
M 38.59375 29.40625 
L 41.40625 29.40625 
Q 42.40625 29.40625 42.90625 28.84375 
Q 43.40625 28.296875 43.40625 27.59375 
Q 43.40625 21.59375 39.796875 17.9375 
Q 36.203125 14.296875 30.40625 14.296875 
Q 24.40625 14.296875 20.75 17.9375 
Q 17.09375 21.59375 17.09375 27.09375 
L 17.09375 43.40625 
Q 17.09375 48.703125 20.75 52.390625 
Q 24.40625 56.09375 30.40625 56.09375 
Q 35.90625 56.09375 39.40625 52.25 
Q 42.90625 48.40625 42.90625 42.296875 
Q 42.90625 41.59375 42.40625 41.046875 
Q 41.90625 40.5 40.90625 40.5 
L 38.09375 40.5 
Q 37.09375 40.5 36.546875 41.046875 
Q 36 41.59375 36 42.296875 
Q 36 45.203125 34.390625 47.046875 
Q 32.796875 48.90625 30.40625 48.90625 
Q 27.703125 48.90625 25.796875 46.90625 
Q 23.90625 44.90625 23.90625 42.203125 
L 23.90625 28.203125 
Q 23.90625 25.59375 25.796875 23.59375 
Q 27.703125 21.59375 30.40625 21.59375 
Q 32.90625 21.59375 34.703125 23.1875 
Q 36.5 24.796875 36.5 27.59375 
Q 36.5 28.296875 37.046875 28.84375 
Q 37.59375 29.40625 38.59375 29.40625 
z
" id="DecimaMonoPro-a9"/>
     <path d="M 30.09375 -1 
Q 25.296875 -1 21.546875 0.59375 
Q 17.796875 2.203125 15.84375 4.59375 
Q 13.90625 7 12.953125 9.390625 
Q 12 11.796875 12 14 
Q 12 14.796875 12.5 15.296875 
Q 13 15.796875 13.796875 15.796875 
L 18.296875 15.796875 
Q 19.90625 15.796875 20.09375 14.09375 
Q 20.40625 11.203125 22.796875 8.703125 
Q 25.203125 6.203125 30.09375 6.203125 
Q 34.296875 6.203125 36.890625 8.296875 
Q 39.5 10.40625 39.5 13.59375 
Q 39.5 16.5 36.84375 18.5 
Q 34.203125 20.5 30.390625 21.84375 
Q 26.59375 23.203125 22.84375 24.796875 
Q 19.09375 26.40625 16.4375 29.5 
Q 13.796875 32.59375 13.796875 37.09375 
Q 13.796875 43.296875 18.4375 47.140625 
Q 23.09375 51 30.703125 51 
Q 38.90625 51 43.25 46.5 
Q 47.59375 42 47.59375 37.5 
Q 47.59375 36.796875 47.09375 36.25 
Q 46.59375 35.703125 45.796875 35.703125 
L 41.203125 35.703125 
Q 39.703125 35.703125 39.40625 37.40625 
Q 38.90625 40 36.75 41.890625 
Q 34.59375 43.796875 30.703125 43.796875 
Q 26.90625 43.796875 24.546875 42.09375 
Q 22.203125 40.40625 22.203125 37.703125 
Q 22.203125 35 24.84375 33.09375 
Q 27.5 31.203125 31.25 29.890625 
Q 35 28.59375 38.703125 26.9375 
Q 42.40625 25.296875 45.046875 21.84375 
Q 47.703125 18.40625 47.703125 13.40625 
Q 47.703125 7.40625 42.59375 3.203125 
Q 37.5 -1 30.09375 -1 
z
" id="DecimaMonoPro-73"/>
     <path d="M 42.09375 17.09375 
L 42.09375 33.09375 
Q 42.09375 37.703125 38.84375 40.796875 
Q 35.59375 43.90625 30.5 43.90625 
Q 25.40625 43.90625 22.046875 40.75 
Q 18.703125 37.59375 18.703125 33 
L 18.703125 17.09375 
Q 18.703125 12.5 22.046875 9.390625 
Q 25.40625 6.296875 30.5 6.296875 
Q 35.59375 6.296875 38.84375 9.390625 
Q 42.09375 12.5 42.09375 17.09375 
z
M 18.703125 3.703125 
L 18.796875 -16.203125 
Q 18.796875 -18 16.5 -18 
L 13 -18 
Q 10.703125 -18 10.703125 -16.203125 
L 10.703125 48.203125 
Q 10.703125 50 13 50 
L 15.90625 50 
Q 18.203125 50 18.203125 48.203125 
L 18.203125 45.90625 
Q 18.59375 46.5 19.5 47.34375 
Q 20.40625 48.203125 23.75 49.59375 
Q 27.09375 51 31.296875 51 
Q 39.296875 51 44.796875 45.640625 
Q 50.296875 40.296875 50.296875 32.59375 
L 50.296875 17.40625 
Q 50.296875 9.796875 44.75 4.390625 
Q 39.203125 -1 31.296875 -1 
Q 27.40625 -1 24.25 0.203125 
Q 21.09375 1.40625 19.90625 2.59375 
z
" id="DecimaMonoPro-70"/>
     <path d="M 37.203125 51 
Q 44.09375 51 48.140625 46.453125 
Q 52.203125 41.90625 52.203125 37.5 
Q 52.203125 35.703125 50.5 35.703125 
L 45.90625 35.703125 
Q 44.296875 35.703125 44.09375 37.40625 
Q 43.796875 39.796875 41.75 41.796875 
Q 39.703125 43.796875 36.59375 43.796875 
Q 32.40625 43.796875 29.203125 40.796875 
Q 26 37.796875 26 34 
L 26 7.203125 
L 45.09375 7.203125 
Q 45.796875 7.203125 46.34375 6.703125 
Q 46.90625 6.203125 46.90625 5.40625 
L 46.90625 1.796875 
Q 46.90625 1 46.34375 0.5 
Q 45.796875 0 45.09375 0 
L 9.296875 0 
Q 8.59375 0 8.046875 0.5 
Q 7.5 1 7.5 1.796875 
L 7.5 5.40625 
Q 7.5 6.203125 8.046875 6.703125 
Q 8.59375 7.203125 9.296875 7.203125 
L 18 7.203125 
L 18 48.203125 
Q 18 50 20.296875 50 
L 23.5 50 
Q 25.796875 50 25.796875 48.203125 
L 25.796875 45.703125 
Q 29.796875 51 37.203125 51 
z
" id="DecimaMonoPro-72"/>
     <path d="M 48.796875 13.5 
Q 48.796875 9.09375 43.75 4.046875 
Q 38.703125 -1 30.203125 -1 
Q 21.203125 -1 15.75 4.453125 
Q 10.296875 9.90625 10.296875 17.5 
L 10.296875 32.703125 
Q 10.296875 40.203125 15.75 45.59375 
Q 21.203125 51 30.203125 51 
Q 39.203125 51 44.453125 45.59375 
Q 49.703125 40.203125 49.703125 32.703125 
L 49.703125 24.796875 
Q 49.703125 23.796875 49.046875 23.140625 
Q 48.40625 22.5 47.40625 22.5 
L 18.40625 22.5 
L 18.40625 17 
Q 18.40625 12.5 21.65625 9.296875 
Q 24.90625 6.09375 30.203125 6.09375 
Q 38.5 6.09375 40.59375 13.59375 
Q 41.09375 15.296875 42.40625 15.296875 
L 47 15.296875 
Q 47.796875 15.296875 48.296875 14.75 
Q 48.796875 14.203125 48.796875 13.5 
z
M 18.40625 33 
L 18.40625 29.703125 
L 41.796875 29.703125 
L 41.796875 33 
Q 41.796875 37.5 38.640625 40.640625 
Q 35.5 43.796875 30.203125 43.796875 
Q 24.90625 43.796875 21.65625 40.640625 
Q 18.40625 37.5 18.40625 33 
z
" id="DecimaMonoPro-65"/>
     <path d="M 17.90625 32.90625 
L 17.90625 16.90625 
Q 17.90625 12.296875 21.15625 9.1875 
Q 24.40625 6.09375 29.5 6.09375 
Q 34.59375 6.09375 37.9375 9.25 
Q 41.296875 12.40625 41.296875 17 
L 41.296875 32.90625 
Q 41.296875 37.5 37.9375 40.59375 
Q 34.59375 43.703125 29.5 43.703125 
Q 24.40625 43.703125 21.15625 40.59375 
Q 17.90625 37.5 17.90625 32.90625 
z
M 41.296875 46.296875 
L 41.203125 68.203125 
Q 41.203125 70 43.5 70 
L 47 70 
Q 49.296875 70 49.296875 68.203125 
L 49.296875 1.796875 
Q 49.296875 0 47 0 
L 44.09375 0 
Q 41.796875 0 41.796875 1.796875 
L 41.796875 4.09375 
Q 41.40625 3.5 40.5 2.640625 
Q 39.59375 1.796875 36.25 0.390625 
Q 32.90625 -1 28.703125 -1 
Q 20.703125 -1 15.203125 4.34375 
Q 9.703125 9.703125 9.703125 17.40625 
L 9.703125 32.59375 
Q 9.703125 40.203125 15.25 45.59375 
Q 20.796875 51 28.703125 51 
Q 32.59375 51 35.75 49.796875 
Q 38.90625 48.59375 40.09375 47.40625 
z
" id="DecimaMonoPro-64"/>
    </defs>
    <g style="fill:#ffffff;" transform="translate(6.48 496.8)scale(0.14 -0.14)">
     <use xlink:href="#DecimaMonoPro-a9"/>
     <use x="59.999985" xlink:href="#DecimaMonoPro-73"/>
     <use x="119.999969" xlink:href="#DecimaMonoPro-70"/>
     <use x="179.999954" xlink:href="#DecimaMonoPro-72"/>
     <use x="239.999939" xlink:href="#DecimaMonoPro-65"/>
     <use x="299.999924" xlink:href="#DecimaMonoPro-64"/>
    </g>
   </g>
   <g id="text_14">
    <!-- ETHUSDT_drop -->
    <defs>
     <path d="M 9.40625 70 
L 9.40625 0 
L 51.90625 0 
L 51.90625 10.40625 
L 20.40625 10.40625 
L 20.40625 32 
L 45 32 
L 45 42.40625 
L 20.40625 42.40625 
L 20.40625 59.59375 
L 50.90625 59.59375 
L 50.90625 70 
z
" id="ApercuPro-Medium-45"/>
     <path d="M 1.09375 59.59375 
L 20.703125 59.59375 
L 20.703125 0 
L 31.703125 0 
L 31.703125 59.59375 
L 51.296875 59.59375 
L 51.296875 70 
L 1.09375 70 
z
" id="ApercuPro-Medium-54"/>
     <path d="M 9.40625 0 
L 20.40625 0 
L 20.40625 32.203125 
L 48.796875 32.203125 
L 48.796875 0 
L 59.796875 0 
L 59.796875 70 
L 48.796875 70 
L 48.796875 42.59375 
L 20.40625 42.59375 
L 20.40625 70 
L 9.40625 70 
z
" id="ApercuPro-Medium-48"/>
     <path d="M 7.5 25.203125 
C 7.5 8.40625 18.40625 -0.796875 32.703125 -0.796875 
C 47 -0.796875 57.90625 8.296875 57.90625 25.203125 
L 57.90625 70 
L 46.90625 70 
L 46.90625 24.703125 
C 46.90625 15.203125 42.09375 9.59375 32.703125 9.59375 
C 23.296875 9.59375 18.5 15.203125 18.5 24.703125 
L 18.5 70 
L 7.5 70 
z
" id="ApercuPro-Medium-55"/>
     <path d="M 45.40625 59 
C 41.703125 65.59375 35.703125 70.796875 26.09375 70.796875 
C 15.90625 70.796875 7.796875 63 7.796875 52.40625 
C 7.796875 30.796875 37.59375 33.796875 37.59375 20.09375 
C 37.59375 13.90625 33.203125 9.59375 26.90625 9.59375 
C 18.90625 9.59375 14.796875 16.59375 12.796875 24.40625 
L 3.796875 18.703125 
C 6.296875 7.5 14.59375 -0.796875 26.90625 -0.796875 
C 39.5 -0.796875 48.796875 7.703125 48.796875 20.5 
C 48.796875 42.09375 18.796875 39.40625 18.796875 53.203125 
C 18.796875 57.296875 21.59375 60.796875 26.09375 60.796875 
C 30.203125 60.796875 33.703125 58.40625 36.5 53.09375 
z
" id="ApercuPro-Medium-53"/>
     <path d="M 9.40625 70 
L 9.40625 0 
L 30 0 
C 46.796875 0 62.203125 11.40625 62.203125 35 
C 62.203125 58.59375 46.796875 70 30 70 
z
M 26.796875 59.59375 
C 39 59.59375 51 54.09375 51 35 
C 51 15.90625 39 10.40625 26.796875 10.40625 
L 20.40625 10.40625 
L 20.40625 59.59375 
z
" id="ApercuPro-Medium-44"/>
     <path d="M 2.703125 -9.203125 
L 47.203125 -9.203125 
L 47.203125 0 
L 2.703125 0 
z
" id="ApercuPro-Medium-5f"/>
     <path d="M 4.90625 25.203125 
C 4.90625 9.09375 12.5 -0.796875 27.40625 -0.796875 
C 34 -0.796875 39.40625 2.90625 41.09375 5.796875 
L 41.09375 0 
L 51.5 0 
L 51.5 70.796875 
L 41.09375 70.796875 
L 41.09375 44.796875 
C 38.796875 48.09375 32.59375 51.203125 27.59375 51.203125 
C 12.5 51.203125 4.90625 40.796875 4.90625 25.203125 
z
M 15.90625 25.203125 
C 15.90625 35.59375 21.296875 42 28.796875 42 
C 36.296875 42 41.703125 35.59375 41.703125 25.203125 
C 41.703125 14.796875 36.296875 8.40625 28.796875 8.40625 
C 21.296875 8.40625 15.90625 14.796875 15.90625 25.203125 
z
" id="ApercuPro-Medium-64"/>
     <path d="M 19 0 
L 19 18.703125 
C 19 34.59375 25.90625 42 32.59375 42 
C 34.703125 42 36.90625 41.5 38.5 40.5 
L 40.296875 50 
C 38.796875 50.59375 36.59375 51.203125 33.90625 51.203125 
C 28.5 51.203125 22.5 48 19 42 
L 19 50.40625 
L 8.59375 50.40625 
L 8.59375 0 
z
" id="ApercuPro-Medium-72"/>
     <path d="M 4.90625 25.203125 
C 4.90625 11 14.09375 -0.796875 29.703125 -0.796875 
C 45.296875 -0.796875 54.5 11 54.5 25.203125 
C 54.5 39.40625 45.296875 51.203125 29.703125 51.203125 
C 14.09375 51.203125 4.90625 39.40625 4.90625 25.203125 
z
M 15.90625 25.203125 
C 15.90625 33.703125 20.59375 42 29.703125 42 
C 38.796875 42 43.5 33.703125 43.5 25.203125 
C 43.5 16.703125 38.796875 8.40625 29.703125 8.40625 
C 20.59375 8.40625 15.90625 16.703125 15.90625 25.203125 
z
" id="ApercuPro-Medium-6f"/>
     <path d="M 55.203125 25.203125 
C 55.203125 41.296875 47.59375 51.203125 32.703125 51.203125 
C 26.09375 51.203125 20.703125 47.5 19 44.59375 
L 19 50.40625 
L 8.59375 50.40625 
L 8.59375 -20.40625 
L 19 -20.40625 
L 19 5.59375 
C 21.296875 2.296875 26.296875 -0.796875 32.5 -0.796875 
C 47.59375 -0.796875 55.203125 9.59375 55.203125 25.203125 
z
M 44.203125 25.203125 
C 44.203125 14.796875 38.796875 8.40625 31.296875 8.40625 
C 23.796875 8.40625 18.40625 14.796875 18.40625 25.203125 
C 18.40625 35.59375 23.796875 42 31.296875 42 
C 38.796875 42 44.203125 35.59375 44.203125 25.203125 
z
" id="ApercuPro-Medium-70"/>
    </defs>
    <g style="opacity:0.75;" transform="translate(72 50.4)scale(0.3 -0.3)">
     <use xlink:href="#ApercuPro-Medium-45"/>
     <use x="56.846863" xlink:href="#ApercuPro-Medium-54"/>
     <use x="109.246857" xlink:href="#ApercuPro-Medium-48"/>
     <use x="178.415588" xlink:href="#ApercuPro-Medium-55"/>
     <use x="243.799957" xlink:href="#ApercuPro-Medium-53"/>
     <use x="296.799942" xlink:href="#ApercuPro-Medium-44"/>
     <use x="364.06868" xlink:href="#ApercuPro-Medium-54"/>
     <use x="416.468674" xlink:href="#ApercuPro-Medium-5f"/>
     <use x="466.368668" xlink:href="#ApercuPro-Medium-64"/>
     <use x="526.421783" xlink:href="#ApercuPro-Medium-72"/>
     <use x="568.12178" xlink:href="#ApercuPro-Medium-6f"/>
     <use x="627.521774" xlink:href="#ApercuPro-Medium-70"/>
    </g>
   </g>
   <g id="text_15">
    <!-- None -->
    <defs>
     <path d="M 51.59375 70 
L 60.40625 70 
L 60.40625 0 
L 50.09375 0 
L 18.5 54.5 
L 18.5 0 
L 9.703125 0 
L 9.703125 70 
L 20 70 
L 51.59375 15.296875 
z
" id="Apercu-4e"/>
     <path d="M 12 6.796875 
Q 5.40625 14.5 5.40625 25.203125 
Q 5.40625 35.90625 12.046875 43.546875 
Q 18.703125 51.203125 29.59375 51.203125 
Q 40.5 51.203125 47.140625 43.546875 
Q 53.796875 35.90625 53.796875 25.203125 
Q 53.796875 14.5 47.140625 6.84375 
Q 40.5 -0.796875 29.59375 -0.796875 
Q 18.703125 -0.796875 12 6.796875 
z
M 18.09375 38.09375 
Q 14 32.703125 14 25.203125 
Q 14 17.703125 18.140625 12.25 
Q 22.296875 6.796875 29.59375 6.796875 
Q 36.90625 6.796875 41.046875 12.25 
Q 45.203125 17.703125 45.203125 25.203125 
Q 45.203125 32.703125 41.046875 38.140625 
Q 36.90625 43.59375 29.59375 43.59375 
Q 22.296875 43.59375 18.09375 38.09375 
z
" id="Apercu-6f"/>
     <path d="M 49.09375 35.5 
L 49.09375 0 
L 40.703125 0 
L 40.703125 33.296875 
Q 40.703125 43.59375 32 43.59375 
Q 26.09375 43.59375 21.84375 37.390625 
Q 17.59375 31.203125 17.59375 21.09375 
L 17.59375 0 
L 9.203125 0 
L 9.203125 50.40625 
L 17.59375 50.40625 
L 17.59375 41.09375 
Q 23.296875 51.203125 34.296875 51.203125 
Q 41.203125 51.203125 45.140625 47.09375 
Q 49.09375 43 49.09375 35.5 
z
" id="Apercu-6e"/>
     <path d="M 51 27.296875 
L 51 23.40625 
L 14 23.40625 
Q 14.40625 16 18.046875 11.390625 
Q 21.703125 6.796875 28.203125 6.796875 
Q 33.5 6.796875 36.75 9.140625 
Q 40 11.5 42.203125 16.40625 
L 49.59375 13.203125 
Q 46.09375 5.796875 41.046875 2.5 
Q 36 -0.796875 28.203125 -0.796875 
Q 17.296875 -0.796875 11.34375 6.75 
Q 5.40625 14.296875 5.40625 25.1875 
Q 5.40625 36.09375 11.34375 43.640625 
Q 17.296875 51.203125 28.203125 51.203125 
Q 38.90625 51.203125 44.953125 44.25 
Q 51 37.296875 51 27.296875 
z
M 28.203125 43.59375 
Q 22.59375 43.59375 19.140625 40.1875 
Q 15.703125 36.796875 14.5 31 
L 42.203125 31 
Q 41 36.703125 37.5 40.140625 
Q 34 43.59375 28.203125 43.59375 
z
" id="Apercu-65"/>
    </defs>
    <g style="opacity:0.75;" transform="translate(73 55.44)scale(0.14 -0.14)">
     <use xlink:href="#Apercu-4e"/>
     <use x="70.099991" xlink:href="#Apercu-6f"/>
     <use x="129.299988" xlink:href="#Apercu-6e"/>
     <use x="186.999985" xlink:href="#Apercu-65"/>
    </g>
   </g>
   <g id="legend_1">
    <g id="patch_8">
     <path d="M 87.56 126.336875 
L 171.37625 126.336875 
Q 174.17625 126.336875 174.17625 123.536875 
L 174.17625 85.4 
Q 174.17625 82.6 171.37625 82.6 
L 87.56 82.6 
Q 84.76 82.6 84.76 85.4 
L 84.76 123.536875 
Q 84.76 126.336875 87.56 126.336875 
z
" style="fill:#f0f0f0;opacity:0.8;stroke:#cccccc;stroke-linejoin:miter;stroke-width:0.5;"/>
    </g>
    <g id="line2d_24">
     <path d="M 90.36 93.211562 
L 118.36 93.211562 
" style="fill:none;stroke:#000004;stroke-width:3;"/>
    </g>
    <g id="line2d_25"/>
    <g id="text_16">
     <!-- pred -->
     <defs>
      <path d="M 32.296875 -0.796875 
Q 27.796875 -0.796875 23.390625 1.390625 
Q 19 3.59375 17.59375 6 
L 17.59375 -20.40625 
L 9.203125 -20.40625 
L 9.203125 50.40625 
L 17.59375 50.40625 
L 17.59375 44.203125 
Q 19.5 47.09375 23.640625 49.140625 
Q 27.796875 51.203125 32.296875 51.203125 
Q 43.09375 51.203125 48.890625 44.046875 
Q 54.703125 36.90625 54.703125 25.203125 
Q 54.703125 13.5 48.890625 6.34375 
Q 43.09375 -0.796875 32.296875 -0.796875 
z
M 31.5 43.59375 
Q 24.703125 43.59375 20.796875 38.5 
Q 16.90625 33.40625 16.90625 25.203125 
Q 16.90625 17 20.796875 11.890625 
Q 24.703125 6.796875 31.5 6.796875 
Q 38.09375 6.796875 42.09375 11.890625 
Q 46.09375 17 46.09375 25.203125 
Q 46.09375 33.40625 42.09375 38.5 
Q 38.09375 43.59375 31.5 43.59375 
z
" id="Apercu-70"/>
      <path d="M 39.296875 49.703125 
L 37.59375 42.203125 
Q 34.796875 43.59375 31.703125 43.59375 
Q 26 43.59375 21.796875 37.140625 
Q 17.59375 30.703125 17.59375 19.09375 
L 17.59375 0 
L 9.203125 0 
L 9.203125 50.40625 
L 17.59375 50.40625 
L 17.59375 41.796875 
Q 19.796875 46 24 48.59375 
Q 28.203125 51.203125 32.40625 51.203125 
Q 36.5 51.203125 39.296875 49.703125 
z
" id="Apercu-72"/>
      <path d="M 27.796875 51.203125 
Q 32.296875 51.203125 36.6875 49 
Q 41.09375 46.796875 42.5 44.40625 
L 42.5 70.796875 
L 50.90625 70.796875 
L 50.90625 0 
L 42.5 0 
L 42.5 6.203125 
Q 40.59375 3.296875 36.4375 1.25 
Q 32.296875 -0.796875 27.796875 -0.796875 
Q 17 -0.796875 11.203125 6.34375 
Q 5.40625 13.5 5.40625 25.203125 
Q 5.40625 36.90625 11.203125 44.046875 
Q 17 51.203125 27.796875 51.203125 
z
M 28.59375 6.796875 
Q 35.40625 6.796875 39.296875 11.890625 
Q 43.203125 17 43.203125 25.203125 
Q 43.203125 33.40625 39.296875 38.5 
Q 35.40625 43.59375 28.59375 43.59375 
Q 22 43.59375 18 38.5 
Q 14 33.40625 14 25.203125 
Q 14 17 18 11.890625 
Q 22 6.796875 28.59375 6.796875 
z
" id="Apercu-64"/>
     </defs>
     <g style="opacity:0.75;" transform="translate(129.56 98.111562)scale(0.14 -0.14)">
      <use xlink:href="#Apercu-70"/>
      <use x="60.099991" xlink:href="#Apercu-72"/>
      <use x="101.399979" xlink:href="#Apercu-65"/>
      <use x="157.399963" xlink:href="#Apercu-64"/>
     </g>
    </g>
    <g id="line2d_26">
     <path d="M 90.36 112.98 
L 118.36 112.98 
" style="fill:none;stroke:#b73779;stroke-width:3;"/>
    </g>
    <g id="line2d_27"/>
    <g id="text_17">
     <!-- actual -->
     <defs>
      <path d="M 14.203125 14.5 
Q 14.203125 10.90625 16.34375 8.84375 
Q 18.5 6.796875 22.5 6.796875 
Q 28.203125 6.796875 32.390625 10.546875 
Q 36.59375 14.296875 36.59375 22.203125 
L 36.59375 23.40625 
L 27.59375 23.40625 
Q 21.203125 23.40625 17.703125 21.09375 
Q 14.203125 18.796875 14.203125 14.5 
z
M 45 32.203125 
L 45 0 
L 38.40625 0 
L 37 7.09375 
Q 31.5 -0.796875 21.203125 -0.796875 
Q 14.40625 -0.796875 10 3 
Q 5.59375 6.796875 5.59375 14.5 
Q 5.59375 22.5 11.6875 26.75 
Q 17.796875 31 28.40625 31 
L 36.59375 31 
L 36.59375 33.203125 
Q 36.59375 43.59375 25.59375 43.59375 
Q 21.59375 43.59375 18.75 41.5 
Q 15.90625 39.40625 15.09375 35.703125 
L 7.703125 37.40625 
Q 8.703125 43.796875 13.59375 47.5 
Q 18.5 51.203125 25.59375 51.203125 
Q 34.40625 51.203125 39.703125 46.5 
Q 45 41.796875 45 32.203125 
z
" id="Apercu-61"/>
      <path d="M 42.09375 16.09375 
L 49.40625 13.09375 
Q 43.296875 -0.796875 28.296875 -0.796875 
Q 17.296875 -0.796875 11.34375 6.75 
Q 5.40625 14.296875 5.40625 25.1875 
Q 5.40625 36.09375 11.34375 43.640625 
Q 17.296875 51.203125 28.296875 51.203125 
Q 43.296875 51.203125 49.40625 37.296875 
L 42.09375 34.296875 
Q 38.09375 43.59375 28.296875 43.59375 
Q 21.296875 43.59375 17.640625 38.4375 
Q 14 33.296875 14 25.1875 
Q 14 17.09375 17.640625 11.9375 
Q 21.296875 6.796875 28.296875 6.796875 
Q 38.09375 6.796875 42.09375 16.09375 
z
" id="Apercu-63"/>
      <path d="M 2.5 42.796875 
L 2.5 50.40625 
L 11.203125 50.40625 
L 11.203125 65.5 
L 19.59375 70.796875 
L 19.59375 50.40625 
L 32.796875 50.40625 
L 32.796875 42.796875 
L 19.59375 42.796875 
L 19.59375 15.09375 
Q 19.59375 11.09375 21.34375 8.9375 
Q 23.09375 6.796875 26.296875 6.796875 
Q 29.59375 6.796875 32 8.40625 
L 34 1.09375 
Q 30.703125 -0.796875 25.796875 -0.796875 
Q 19.09375 -0.796875 15.140625 3.390625 
Q 11.203125 7.59375 11.203125 15.796875 
L 11.203125 42.796875 
z
" id="Apercu-74"/>
      <path d="M 8.59375 14.90625 
L 8.59375 50.40625 
L 17 50.40625 
L 17 17.09375 
Q 17 6.796875 25.703125 6.796875 
Q 31.59375 6.796875 35.84375 13 
Q 40.09375 19.203125 40.09375 29.296875 
L 40.09375 50.40625 
L 48.5 50.40625 
L 48.5 0 
L 40.09375 0 
L 40.09375 9.296875 
Q 34.40625 -0.796875 23.40625 -0.796875 
Q 16.5 -0.796875 12.546875 3.296875 
Q 8.59375 7.40625 8.59375 14.90625 
z
" id="Apercu-75"/>
      <path d="M 9 70.796875 
L 17.40625 70.796875 
L 17.40625 0 
L 9 0 
z
" id="Apercu-6c"/>
     </defs>
     <g style="opacity:0.75;" transform="translate(129.56 117.88)scale(0.14 -0.14)">
      <use xlink:href="#Apercu-61"/>
      <use x="51.799988" xlink:href="#Apercu-63"/>
      <use x="105.615601" xlink:href="#Apercu-74"/>
      <use x="143.399963" xlink:href="#Apercu-75"/>
      <use x="201.09996" xlink:href="#Apercu-61"/>
      <use x="252.899948" xlink:href="#Apercu-6c"/>
     </g>
    </g>
   </g>
  </g>
 </g>
 <defs>
  <clipPath id="p7316933ab1">
   <rect height="337.68" width="531.36" x="77.76" y="75.6"/>
  </clipPath>
 </defs>
</svg>
