<?xml version="1.0" encoding="utf-8" standalone="no"?>
<!DOCTYPE svg PUBLIC "-//W3C//DTD SVG 1.1//EN"
  "http://www.w3.org/Graphics/SVG/1.1/DTD/svg11.dtd">
<!-- Created with matplotlib (http://matplotlib.org/) -->
<svg height="1440pt" version="1.1" viewBox="0 0 6480 1440" width="6480pt" xmlns="http://www.w3.org/2000/svg" xmlns:xlink="http://www.w3.org/1999/xlink">
 <defs>
  <style type="text/css">
*{stroke-linecap:butt;stroke-linejoin:round;}
  </style>
 </defs>
 <g id="figure_1">
  <g id="patch_1">
   <path d="M 0 1440 
L 6480 1440 
L 6480 0 
L 0 0 
z
" style="fill:#f0f0f0;"/>
  </g>
  <g id="axes_1">
   <g id="patch_2">
    <path d="M 777.6 1180.8 
L 6091.2 1180.8 
L 6091.2 216 
L 777.6 216 
z
" style="fill:#f0f0f0;"/>
   </g>
   <g id="matplotlib.axis_1">
    <g id="xtick_1">
     <g id="line2d_1">
      <path clip-path="url(#ped939f07f7)" d="M 777.6 1180.8 
L 777.6 216 
" style="fill:none;stroke:#b0b0b0;stroke-linecap:square;stroke-width:0.8;"/>
     </g>
     <g id="line2d_2">
      <defs>
       <path d="M 0 0 
L 0 3.5 
" id="m725ee40e15" style="stroke:#000000;stroke-width:0.8;"/>
      </defs>
      <g>
       <use style="stroke:#000000;stroke-width:0.8;" x="777.6" xlink:href="#m725ee40e15" y="1180.8"/>
      </g>
     </g>
     <g id="text_1">
      <!-- 0 -->
      <defs>
       <path d="M 48.203125 52.59375 
L 48.203125 17.40625 
Q 48.203125 9.703125 42.953125 4.34375 
Q 37.703125 -1 29.890625 -1 
Q 22.09375 -1 16.9375 4.390625 
Q 11.796875 9.796875 11.796875 17.5 
L 11.796875 52.59375 
Q 11.796875 60.296875 16.9375 65.640625 
Q 22.09375 71 29.890625 71 
Q 37.703125 71 42.953125 65.640625 
Q 48.203125 60.296875 48.203125 52.59375 
z
M 39.90625 17.296875 
L 39.90625 52.5 
Q 39.90625 56.90625 37 60 
Q 34.09375 63.09375 29.90625 63.09375 
Q 25.796875 63.09375 22.890625 60 
Q 20 56.90625 20 52.5 
L 20 17.40625 
Q 20 13 22.890625 9.953125 
Q 25.796875 6.90625 30 6.90625 
Q 34.09375 6.90625 37 9.90625 
Q 39.90625 12.90625 39.90625 17.296875 
z
" id="DecimaMonoPro-30"/>
      </defs>
      <g style="fill:#303030;" transform="translate(773.4 1197.613125)scale(0.14 -0.14)">
       <use xlink:href="#DecimaMonoPro-30"/>
      </g>
     </g>
    </g>
    <g id="xtick_2">
     <g id="line2d_3">
      <path clip-path="url(#ped939f07f7)" d="M 1841.383784 1180.8 
L 1841.383784 216 
" style="fill:none;stroke:#b0b0b0;stroke-linecap:square;stroke-width:0.8;"/>
     </g>
     <g id="line2d_4">
      <g>
       <use style="stroke:#000000;stroke-width:0.8;" x="1841.383784" xlink:href="#m725ee40e15" y="1180.8"/>
      </g>
     </g>
     <g id="text_2">
      <!-- 200 -->
      <defs>
       <path d="M 11.703125 53 
Q 11.703125 59.703125 17.203125 65.34375 
Q 22.703125 71 30.59375 71 
Q 38.40625 71 43.796875 65.75 
Q 49.203125 60.5 49.203125 52.703125 
Q 49.203125 46.90625 46.09375 41.75 
Q 43 36.59375 38.59375 32.84375 
Q 34.203125 29.09375 29.796875 25.4375 
Q 25.40625 21.796875 22.296875 17.296875 
Q 19.203125 12.796875 19.203125 7.796875 
L 47.40625 7.796875 
Q 48.203125 7.796875 48.703125 7.296875 
Q 49.203125 6.796875 49.203125 6 
L 49.203125 1.796875 
Q 49.203125 1 48.703125 0.5 
Q 48.203125 0 47.40625 0 
L 12.59375 0 
Q 11.796875 0 11.296875 0.5 
Q 10.796875 1 10.796875 1.796875 
L 10.796875 7.296875 
Q 10.796875 13.90625 13.890625 19.453125 
Q 17 25 21.390625 28.890625 
Q 25.796875 32.796875 30.1875 36.390625 
Q 34.59375 40 37.6875 44.296875 
Q 40.796875 48.59375 40.796875 53.296875 
Q 40.796875 57.40625 37.75 60.25 
Q 34.703125 63.09375 30.5 63.09375 
Q 26.09375 63.09375 23.1875 59.6875 
Q 20.296875 56.296875 20.09375 53 
Q 19.90625 51 17.796875 51 
L 14 51 
Q 12.90625 51 12.296875 51.59375 
Q 11.703125 52.203125 11.703125 53 
z
" id="DecimaMonoPro-32"/>
      </defs>
      <g style="fill:#303030;" transform="translate(1828.783784 1197.613125)scale(0.14 -0.14)">
       <use xlink:href="#DecimaMonoPro-32"/>
       <use x="59.999985" xlink:href="#DecimaMonoPro-30"/>
       <use x="119.999969" xlink:href="#DecimaMonoPro-30"/>
      </g>
     </g>
    </g>
    <g id="xtick_3">
     <g id="line2d_5">
      <path clip-path="url(#ped939f07f7)" d="M 2905.167568 1180.8 
L 2905.167568 216 
" style="fill:none;stroke:#b0b0b0;stroke-linecap:square;stroke-width:0.8;"/>
     </g>
     <g id="line2d_6">
      <g>
       <use style="stroke:#000000;stroke-width:0.8;" x="2905.167568" xlink:href="#m725ee40e15" y="1180.8"/>
      </g>
     </g>
     <g id="text_3">
      <!-- 400 -->
      <defs>
       <path d="M 40.09375 67.5 
L 19.5 22.90625 
L 35.796875 22.90625 
L 35.796875 38.90625 
Q 35.796875 39.703125 36.390625 40.296875 
Q 37 40.90625 38.09375 40.90625 
L 42.203125 40.90625 
Q 43 40.90625 43.59375 40.25 
Q 44.203125 39.59375 44.203125 38.90625 
L 44.203125 22.90625 
L 48 22.90625 
Q 48.796875 22.90625 49.390625 22.296875 
Q 50 21.703125 50 20.59375 
L 50 17.40625 
Q 50 16.296875 49.390625 15.6875 
Q 48.796875 15.09375 48 15.09375 
L 44.203125 15.09375 
L 44.203125 2 
Q 44.203125 1.203125 43.59375 0.59375 
Q 43 0 42.203125 0 
L 38.09375 0 
Q 37 0 36.390625 0.59375 
Q 35.796875 1.203125 35.796875 2 
L 35.796875 15.09375 
L 12.09375 15.09375 
Q 9.90625 15.09375 9.90625 17.40625 
L 9.90625 21.296875 
Q 9.90625 22.5 11 24.703125 
L 31.296875 68 
Q 32.296875 70 34 70 
L 38.796875 70 
Q 40.5 70 40.5 68.796875 
Q 40.5 68.5 40.09375 67.5 
z
" id="DecimaMonoPro-34"/>
      </defs>
      <g style="fill:#303030;" transform="translate(2892.567568 1197.613125)scale(0.14 -0.14)">
       <use xlink:href="#DecimaMonoPro-34"/>
       <use x="59.999985" xlink:href="#DecimaMonoPro-30"/>
       <use x="119.999969" xlink:href="#DecimaMonoPro-30"/>
      </g>
     </g>
    </g>
    <g id="xtick_4">
     <g id="line2d_7">
      <path clip-path="url(#ped939f07f7)" d="M 3968.951351 1180.8 
L 3968.951351 216 
" style="fill:none;stroke:#b0b0b0;stroke-linecap:square;stroke-width:0.8;"/>
     </g>
     <g id="line2d_8">
      <g>
       <use style="stroke:#000000;stroke-width:0.8;" x="3968.951351" xlink:href="#m725ee40e15" y="1180.8"/>
      </g>
     </g>
     <g id="text_4">
      <!-- 600 -->
      <defs>
       <path d="M 11 60.203125 
Q 21.59375 71 29.5 71 
Q 37.40625 71 42.65625 65.953125 
Q 47.90625 60.90625 47.90625 54.40625 
Q 47.90625 53.59375 47.296875 53 
Q 46.703125 52.40625 45.59375 52.40625 
L 41.796875 52.40625 
Q 39.703125 52.40625 39.5 54.40625 
Q 39.296875 57.59375 36.640625 60.296875 
Q 34 63 29.5 63 
Q 25.203125 63 22.25 59.890625 
Q 19.296875 56.796875 19.296875 52.40625 
L 19.296875 42.796875 
Q 19.703125 43.296875 20.59375 44.046875 
Q 21.5 44.796875 24.546875 46 
Q 27.59375 47.203125 31 47.203125 
Q 38.40625 47.203125 43.703125 42 
Q 49 36.796875 49 28.90625 
L 49 17.5 
Q 49 9.796875 43.546875 4.390625 
Q 38.09375 -1 30 -1 
Q 21.90625 -1 16.453125 4.34375 
Q 11 9.703125 11 17.40625 
L 11 52.5 
Q 11 60.203125 21.59375 71 
z
M 30 39.296875 
Q 25.40625 39.296875 22.34375 36.390625 
Q 19.296875 33.5 19.296875 28.796875 
L 19.296875 17.296875 
Q 19.296875 12.90625 22.390625 9.90625 
Q 25.5 6.90625 30 6.90625 
Q 34.40625 6.90625 37.5 9.953125 
Q 40.59375 13 40.59375 17.40625 
L 40.59375 28.796875 
Q 40.59375 33.40625 37.546875 36.34375 
Q 34.5 39.296875 30 39.296875 
z
" id="DecimaMonoPro-36"/>
      </defs>
      <g style="fill:#303030;" transform="translate(3956.351351 1197.613125)scale(0.14 -0.14)">
       <use xlink:href="#DecimaMonoPro-36"/>
       <use x="59.999985" xlink:href="#DecimaMonoPro-30"/>
       <use x="119.999969" xlink:href="#DecimaMonoPro-30"/>
      </g>
     </g>
    </g>
    <g id="xtick_5">
     <g id="line2d_9">
      <path clip-path="url(#ped939f07f7)" d="M 5032.735135 1180.8 
L 5032.735135 216 
" style="fill:none;stroke:#b0b0b0;stroke-linecap:square;stroke-width:0.8;"/>
     </g>
     <g id="line2d_10">
      <g>
       <use style="stroke:#000000;stroke-width:0.8;" x="5032.735135" xlink:href="#m725ee40e15" y="1180.8"/>
      </g>
     </g>
     <g id="text_5">
      <!-- 800 -->
      <defs>
       <path d="M 48.09375 53.5 
L 48.09375 49.796875 
Q 48.09375 41.5 41.796875 36.40625 
Q 49 30.796875 49 21.703125 
L 49 17.40625 
Q 49 9.703125 43.640625 4.34375 
Q 38.296875 -1 30.5 -1 
L 29.59375 -1 
Q 21.796875 -1 16.390625 4.390625 
Q 11 9.796875 11 17.5 
L 11 21.703125 
Q 11 30.703125 18.296875 36.40625 
Q 11.796875 41.296875 11.796875 49.90625 
L 11.796875 53.5 
Q 11.796875 60.796875 16.9375 65.890625 
Q 22.09375 71 29.5 71 
L 30.40625 71 
Q 37.796875 71 42.9375 65.890625 
Q 48.09375 60.796875 48.09375 53.5 
z
M 40.59375 17.296875 
L 40.59375 21.59375 
Q 40.59375 26 37.5 29.09375 
Q 34.40625 32.203125 30 32.203125 
Q 25.59375 32.203125 22.5 29.09375 
Q 19.40625 26 19.40625 21.59375 
L 19.40625 17.40625 
Q 19.40625 13 22.546875 9.953125 
Q 25.703125 6.90625 30.203125 6.90625 
Q 34.5 6.90625 37.546875 9.90625 
Q 40.59375 12.90625 40.59375 17.296875 
z
M 39.703125 49.703125 
L 39.703125 53.09375 
Q 39.703125 57.296875 36.84375 60.1875 
Q 34 63.09375 29.796875 63.09375 
Q 25.796875 63.09375 23 60.1875 
Q 20.203125 57.296875 20.203125 53.09375 
L 20.203125 49.796875 
Q 20.203125 45.90625 22.84375 43 
Q 25.5 40.09375 29.59375 40.09375 
L 30.5 40.09375 
Q 34.296875 40.09375 37 42.84375 
Q 39.703125 45.59375 39.703125 49.703125 
z
" id="DecimaMonoPro-38"/>
      </defs>
      <g style="fill:#303030;" transform="translate(5020.135135 1197.613125)scale(0.14 -0.14)">
       <use xlink:href="#DecimaMonoPro-38"/>
       <use x="59.999985" xlink:href="#DecimaMonoPro-30"/>
       <use x="119.999969" xlink:href="#DecimaMonoPro-30"/>
      </g>
     </g>
    </g>
    <g id="text_6">
     <!-- x -->
     <defs>
      <path d="M 3.59375 50.40625 
L 13.09375 50.40625 
L 22.90625 34.40625 
L 32.703125 50.40625 
L 42.203125 50.40625 
L 27.59375 26.59375 
L 44 0 
L 34.5 0 
L 22.90625 18.90625 
L 11.296875 0 
L 1.796875 0 
L 18.203125 26.59375 
z
" id="Apercu-78"/>
     </defs>
     <g style="opacity:0.75;" transform="translate(3431.194219 1214.044688)scale(0.14 -0.14)">
      <use xlink:href="#Apercu-78"/>
     </g>
    </g>
   </g>
   <g id="matplotlib.axis_2">
    <g id="ytick_1">
     <g id="line2d_11">
      <path clip-path="url(#ped939f07f7)" d="M 777.6 1084.006157 
L 6091.2 1084.006157 
" style="fill:none;stroke:#b0b0b0;stroke-linecap:square;stroke-width:0.8;"/>
     </g>
     <g id="line2d_12">
      <defs>
       <path d="M 0 0 
L -3.5 0 
" id="m5631e99565" style="stroke:#000000;stroke-width:0.8;"/>
      </defs>
      <g>
       <use style="stroke:#000000;stroke-width:0.8;" x="777.6" xlink:href="#m5631e99565" y="1084.006157"/>
      </g>
     </g>
     <g id="text_7">
      <!-- −0.04 -->
      <defs>
       <path d="M 50.203125 25.296875 
L 9.796875 25.296875 
Q 9 25.296875 8.5 25.84375 
Q 8 26.40625 8 27.09375 
L 8 31.296875 
Q 8 32 8.5 32.546875 
Q 9 33.09375 9.796875 33.09375 
L 50.203125 33.09375 
Q 51 33.09375 51.5 32.546875 
Q 52 32 52 31.296875 
L 52 27.09375 
Q 52 26.40625 51.5 25.84375 
Q 51 25.296875 50.203125 25.296875 
z
" id="DecimaMonoPro-2212"/>
       <path d="M 35.09375 7.5 
L 35.09375 2.59375 
Q 35.09375 0 32.5 0 
L 27.5 0 
Q 24.90625 0 24.90625 2.59375 
L 24.90625 7.5 
Q 24.90625 10.09375 27.5 10.09375 
L 32.5 10.09375 
Q 35.09375 10.09375 35.09375 7.5 
z
" id="DecimaMonoPro-2e"/>
      </defs>
      <g style="fill:#303030;" transform="translate(728.6 1088.912719)scale(0.14 -0.14)">
       <use xlink:href="#DecimaMonoPro-2212"/>
       <use x="59.999985" xlink:href="#DecimaMonoPro-30"/>
       <use x="119.999969" xlink:href="#DecimaMonoPro-2e"/>
       <use x="179.999954" xlink:href="#DecimaMonoPro-30"/>
       <use x="239.999939" xlink:href="#DecimaMonoPro-34"/>
      </g>
     </g>
    </g>
    <g id="ytick_2">
     <g id="line2d_13">
      <path clip-path="url(#ped939f07f7)" d="M 777.6 905.604532 
L 6091.2 905.604532 
" style="fill:none;stroke:#b0b0b0;stroke-linecap:square;stroke-width:0.8;"/>
     </g>
     <g id="line2d_14">
      <g>
       <use style="stroke:#000000;stroke-width:0.8;" x="777.6" xlink:href="#m5631e99565" y="905.604532"/>
      </g>
     </g>
     <g id="text_8">
      <!-- −0.02 -->
      <g style="fill:#303030;" transform="translate(728.6 910.511094)scale(0.14 -0.14)">
       <use xlink:href="#DecimaMonoPro-2212"/>
       <use x="59.999985" xlink:href="#DecimaMonoPro-30"/>
       <use x="119.999969" xlink:href="#DecimaMonoPro-2e"/>
       <use x="179.999954" xlink:href="#DecimaMonoPro-30"/>
       <use x="239.999939" xlink:href="#DecimaMonoPro-32"/>
      </g>
     </g>
    </g>
    <g id="ytick_3">
     <g id="line2d_15">
      <path clip-path="url(#ped939f07f7)" d="M 777.6 727.202906 
L 6091.2 727.202906 
" style="fill:none;stroke:#b0b0b0;stroke-linecap:square;stroke-width:0.8;"/>
     </g>
     <g id="line2d_16">
      <g>
       <use style="stroke:#000000;stroke-width:0.8;" x="777.6" xlink:href="#m5631e99565" y="727.202906"/>
      </g>
     </g>
     <g id="text_9">
      <!-- 0.00 -->
      <g style="fill:#303030;" transform="translate(737 732.109469)scale(0.14 -0.14)">
       <use xlink:href="#DecimaMonoPro-30"/>
       <use x="59.999985" xlink:href="#DecimaMonoPro-2e"/>
       <use x="119.999969" xlink:href="#DecimaMonoPro-30"/>
       <use x="179.999954" xlink:href="#DecimaMonoPro-30"/>
      </g>
     </g>
    </g>
    <g id="ytick_4">
     <g id="line2d_17">
      <path clip-path="url(#ped939f07f7)" d="M 777.6 548.801281 
L 6091.2 548.801281 
" style="fill:none;stroke:#b0b0b0;stroke-linecap:square;stroke-width:0.8;"/>
     </g>
     <g id="line2d_18">
      <g>
       <use style="stroke:#000000;stroke-width:0.8;" x="777.6" xlink:href="#m5631e99565" y="548.801281"/>
      </g>
     </g>
     <g id="text_10">
      <!-- 0.02 -->
      <g style="fill:#303030;" transform="translate(737 553.707843)scale(0.14 -0.14)">
       <use xlink:href="#DecimaMonoPro-30"/>
       <use x="59.999985" xlink:href="#DecimaMonoPro-2e"/>
       <use x="119.999969" xlink:href="#DecimaMonoPro-30"/>
       <use x="179.999954" xlink:href="#DecimaMonoPro-32"/>
      </g>
     </g>
    </g>
    <g id="ytick_5">
     <g id="line2d_19">
      <path clip-path="url(#ped939f07f7)" d="M 777.6 370.399656 
L 6091.2 370.399656 
" style="fill:none;stroke:#b0b0b0;stroke-linecap:square;stroke-width:0.8;"/>
     </g>
     <g id="line2d_20">
      <g>
       <use style="stroke:#000000;stroke-width:0.8;" x="777.6" xlink:href="#m5631e99565" y="370.399656"/>
      </g>
     </g>
     <g id="text_11">
      <!-- 0.04 -->
      <g style="fill:#303030;" transform="translate(737 375.306218)scale(0.14 -0.14)">
       <use xlink:href="#DecimaMonoPro-30"/>
       <use x="59.999985" xlink:href="#DecimaMonoPro-2e"/>
       <use x="119.999969" xlink:href="#DecimaMonoPro-30"/>
       <use x="179.999954" xlink:href="#DecimaMonoPro-34"/>
      </g>
     </g>
    </g>
    <g id="text_12">
     <!-- P -->
     <defs>
      <path d="M 34.09375 30 
L 18.5 30 
L 18.5 0 
L 9.703125 0 
L 9.703125 70 
L 34.09375 70 
Q 43.90625 70 49.40625 64.59375 
Q 54.90625 59.203125 54.90625 50 
Q 54.90625 40.796875 49.40625 35.390625 
Q 43.90625 30 34.09375 30 
z
M 34.59375 38.40625 
Q 40 38.40625 42.890625 41.40625 
Q 45.796875 44.40625 45.796875 50 
Q 45.796875 55.59375 42.890625 58.59375 
Q 40 61.59375 34.59375 61.59375 
L 18.5 61.59375 
L 18.5 38.40625 
z
" id="Apercu-50"/>
     </defs>
     <g style="opacity:0.75;" transform="translate(721.743125 702.488438)rotate(-90)scale(0.14 -0.14)">
      <use xlink:href="#Apercu-50"/>
     </g>
    </g>
   </g>
   <g id="line2d_21">
    <path clip-path="url(#ped939f07f7)" d="M 777.6 727.922747 
L 782.918919 725.099228 
L 788.237838 735.464097 
L 793.556757 731.497029 
L 798.875676 722.986089 
L 804.194595 735.925219 
L 809.513514 731.780505 
L 814.832432 714.453359 
L 820.151351 728.877874 
L 825.47027 731.637284 
L 830.789189 717.592637 
L 836.108108 721.95907 
L 841.427027 727.024875 
L 846.745946 724.476932 
L 852.064865 720.423093 
L 857.383784 719.478924 
L 862.702703 721.018639 
L 868.021622 721.703607 
L 873.340541 720.377626 
L 878.659459 720.695046 
L 883.978378 721.195655 
L 889.297297 725.299629 
L 894.616216 731.235294 
L 899.935135 730.356047 
L 905.254054 729.999599 
L 910.572973 724.785945 
L 915.891892 721.856589 
L 921.210811 732.397169 
L 926.52973 731.00423 
L 931.848649 727.24671 
L 937.167568 724.869576 
L 942.486486 717.548333 
L 947.805405 727.223947 
L 953.124324 723.774095 
L 958.443243 735.325968 
L 963.762162 729.481162 
L 969.081081 720.852107 
L 974.4 726.054347 
L 985.037838 719.546746 
L 990.356757 719.299283 
L 995.675676 720.909495 
L 1000.994595 725.748615 
L 1006.313514 719.675528 
L 1011.632432 729.502347 
L 1016.951351 725.880895 
L 1022.27027 724.091947 
L 1027.589189 727.782874 
L 1032.908108 723.770498 
L 1038.227027 729.521811 
L 1043.545946 715.82744 
L 1048.864865 726.05217 
L 1054.183784 719.669273 
L 1059.502703 726.793986 
L 1064.821622 725.020016 
L 1070.140541 722.032392 
L 1075.459459 734.166262 
L 1080.778378 731.961139 
L 1086.097297 732.323764 
L 1091.416216 729.436992 
L 1096.735135 721.707204 
L 1102.054054 721.808007 
L 1107.372973 720.759338 
L 1112.691892 726.618349 
L 1118.010811 721.600295 
L 1123.32973 728.000106 
L 1128.648649 724.185647 
L 1133.967568 722.558579 
L 1139.286486 722.192186 
L 1144.605405 727.234714 
L 1149.924324 738.26997 
L 1155.243243 731.695196 
L 1160.562162 720.962414 
L 1165.881081 726.876944 
L 1171.2 736.900375 
L 1176.518919 729.356135 
L 1181.837838 718.780381 
L 1192.475676 736.477243 
L 1197.794595 731.270061 
L 1203.113514 728.392867 
L 1208.432432 720.800734 
L 1213.751351 728.954377 
L 1219.07027 722.512962 
L 1224.389189 719.972105 
L 1229.708108 719.802217 
L 1235.027027 714.880479 
L 1240.345946 722.48593 
L 1245.664865 720.372725 
L 1250.983784 725.584576 
L 1256.302703 725.497031 
L 1261.621622 726.061184 
L 1266.940541 730.767259 
L 1272.259459 720.80085 
L 1277.578378 719.32497 
L 1282.897297 727.883544 
L 1288.216216 720.227385 
L 1293.535135 720.65601 
L 1298.854054 722.194878 
L 1304.172973 715.890826 
L 1309.491892 723.597769 
L 1314.810811 723.243264 
L 1320.12973 719.30406 
L 1325.448649 727.829097 
L 1330.767568 718.511892 
L 1336.086486 734.999402 
L 1341.405405 730.059172 
L 1346.724324 726.47576 
L 1352.043243 725.961253 
L 1357.362162 732.583364 
L 1362.681081 728.5188 
L 1368 723.919185 
L 1373.318919 729.043284 
L 1378.637838 724.930437 
L 1383.956757 719.077075 
L 1389.275676 719.580001 
L 1394.594595 728.073278 
L 1405.232432 719.797407 
L 1410.551351 725.163794 
L 1415.87027 725.135748 
L 1421.189189 726.636194 
L 1426.508108 722.322015 
L 1431.827027 728.051878 
L 1437.145946 735.712632 
L 1442.464865 719.140253 
L 1447.783784 727.111439 
L 1453.102703 719.958863 
L 1458.421622 725.712286 
L 1463.740541 732.599356 
L 1469.059459 733.068895 
L 1474.378378 720.344429 
L 1479.697297 732.47658 
L 1485.016216 725.954657 
L 1490.335135 727.914082 
L 1495.654054 720.059442 
L 1506.291892 729.32337 
L 1511.610811 725.233394 
L 1516.92973 718.32617 
L 1522.248649 717.787979 
L 1527.567568 719.830321 
L 1532.886486 722.069933 
L 1538.205405 727.285456 
L 1543.524324 735.87319 
L 1548.843243 724.993889 
L 1554.162162 730.417273 
L 1559.481081 731.446677 
L 1564.8 726.879295 
L 1570.118919 731.022373 
L 1575.437838 728.343496 
L 1580.756757 723.185917 
L 1586.075676 732.485228 
L 1591.394595 729.422611 
L 1596.713514 717.242576 
L 1602.032432 718.745291 
L 1607.351351 735.520181 
L 1612.67027 727.125687 
L 1617.989189 723.741513 
L 1623.308108 728.648289 
L 1628.627027 728.863136 
L 1633.945946 734.639688 
L 1639.264865 730.25129 
L 1644.583784 719.338419 
L 1649.902703 723.695273 
L 1655.221622 720.945151 
L 1660.540541 719.425457 
L 1665.859459 729.487617 
L 1671.178378 720.628495 
L 1676.497297 720.036737 
L 1681.816216 722.76163 
L 1687.135135 731.167762 
L 1692.454054 728.213093 
L 1697.772973 717.63773 
L 1703.091892 736.192961 
L 1708.410811 731.370622 
L 1713.72973 734.209835 
L 1724.367568 719.033427 
L 1729.686486 730.534691 
L 1735.005405 727.111082 
L 1740.324324 726.692012 
L 1745.643243 732.975793 
L 1750.962162 721.390033 
L 1756.281081 732.64533 
L 1761.6 734.08008 
L 1766.918919 730.855501 
L 1772.237838 726.60632 
L 1777.556757 731.683125 
L 1782.875676 726.391854 
L 1788.194595 719.669655 
L 1793.513514 723.632012 
L 1798.832432 722.268648 
L 1804.151351 716.461832 
L 1809.47027 728.261742 
L 1814.789189 718.237629 
L 1820.108108 723.445036 
L 1825.427027 719.189932 
L 1830.745946 734.527006 
L 1836.064865 732.208157 
L 1841.383784 716.128694 
L 1846.702703 730.520751 
L 1852.021622 726.945747 
L 1857.340541 722.773078 
L 1862.659459 726.892919 
L 1867.978378 726.906909 
L 1873.297297 729.404468 
L 1878.616216 728.141441 
L 1883.935135 724.823993 
L 1889.254054 722.244913 
L 1894.572973 720.85283 
L 1899.891892 730.381377 
L 1905.210811 721.02634 
L 1910.52973 722.15408 
L 1915.848649 718.056335 
L 1921.167568 726.882627 
L 1931.805405 716.534323 
L 1937.124324 726.51213 
L 1942.443243 726.007501 
L 1947.762162 723.473298 
L 1953.081081 721.567356 
L 1958.4 720.862051 
L 1963.718919 722.977898 
L 1969.037838 737.001619 
L 1974.356757 732.08676 
L 1979.675676 719.133673 
L 1984.994595 721.35142 
L 1990.313514 730.601467 
L 1995.632432 727.025731 
L 2000.951351 719.540249 
L 2006.27027 719.279586 
L 2011.589189 726.694279 
L 2016.908108 727.443979 
L 2022.227027 725.250391 
L 2027.545946 720.745689 
L 2032.864865 720.30256 
L 2038.183784 725.693811 
L 2043.502703 728.657427 
L 2048.821622 726.783502 
L 2054.140541 723.321288 
L 2059.459459 729.949222 
L 2064.778378 720.064634 
L 2070.097297 726.847503 
L 2075.416216 725.376415 
L 2080.735135 722.220797 
L 2086.054054 721.751649 
L 2091.372973 731.578193 
L 2096.691892 722.513536 
L 2102.010811 717.621314 
L 2107.32973 727.686283 
L 2112.648649 722.301712 
L 2117.967568 721.095741 
L 2123.286486 720.139401 
L 2128.605405 716.856163 
L 2133.924324 721.433863 
L 2139.243243 724.205585 
L 2144.562162 722.521851 
L 2149.881081 724.912634 
L 2155.2 717.522954 
L 2160.518919 720.151031 
L 2165.837838 726.257439 
L 2171.156757 727.424448 
L 2176.475676 724.655709 
L 2181.794595 731.102449 
L 2187.113514 719.325667 
L 2192.432432 718.960612 
L 2197.751351 724.224293 
L 2203.07027 721.21001 
L 2208.389189 726.294873 
L 2213.708108 727.361735 
L 2219.027027 725.471677 
L 2224.345946 724.084238 
L 2229.664865 723.279592 
L 2234.983784 721.466362 
L 2240.302703 725.523067 
L 2245.621622 730.744264 
L 2250.940541 731.341364 
L 2256.259459 732.476887 
L 2261.578378 731.43572 
L 2266.897297 729.302095 
L 2272.216216 722.204057 
L 2277.535135 724.724611 
L 2282.854054 729.021086 
L 2288.172973 724.894881 
L 2293.491892 727.959117 
L 2298.810811 727.941065 
L 2304.12973 725.845596 
L 2309.448649 727.675193 
L 2314.767568 736.876466 
L 2320.086486 724.279762 
L 2325.405405 727.420162 
L 2330.724324 726.858759 
L 2336.043243 732.791292 
L 2341.362162 723.587235 
L 2346.681081 716.158609 
L 2352 718.968596 
L 2357.318919 729.41339 
L 2362.637838 735.954096 
L 2367.956757 719.586705 
L 2373.275676 730.582584 
L 2378.594595 731.079861 
L 2383.913514 735.033745 
L 2389.232432 721.184714 
L 2394.551351 731.198267 
L 2399.87027 726.395177 
L 2405.189189 727.121516 
L 2410.508108 726.683231 
L 2415.827027 718.458392 
L 2421.145946 718.761848 
L 2426.464865 723.566549 
L 2431.783784 729.162438 
L 2437.102703 720.190459 
L 2442.421622 723.6413 
L 2447.740541 728.093167 
L 2453.059459 718.819036 
L 2458.378378 722.523172 
L 2463.697297 728.995109 
L 2469.016216 725.210266 
L 2474.335135 721.11572 
L 2479.654054 725.398314 
L 2484.972973 722.552124 
L 2490.291892 720.879057 
L 2495.610811 726.392652 
L 2500.92973 721.647041 
L 2506.248649 733.969001 
L 2511.567568 730.995324 
L 2516.886486 719.396605 
L 2522.205405 725.651077 
L 2527.524324 722.157801 
L 2532.843243 727.083551 
L 2538.162162 730.024288 
L 2543.481081 719.811613 
L 2548.8 727.190817 
L 2554.118919 718.597758 
L 2559.437838 719.694727 
L 2564.756757 726.690142 
L 2570.075676 724.343788 
L 2575.394595 729.522932 
L 2580.713514 720.824718 
L 2586.032432 721.558209 
L 2591.351351 720.308018 
L 2596.67027 724.855578 
L 2601.989189 720.568382 
L 2607.308108 729.282489 
L 2612.627027 727.158219 
L 2617.945946 727.961477 
L 2623.264865 726.379227 
L 2628.583784 720.114844 
L 2633.902703 727.569987 
L 2639.221622 722.010061 
L 2644.540541 729.894974 
L 2649.859459 731.061776 
L 2655.178378 728.392726 
L 2660.497297 718.962947 
L 2665.816216 734.4457 
L 2671.135135 734.864746 
L 2676.454054 733.343922 
L 2681.772973 729.04895 
L 2687.091892 729.755035 
L 2692.410811 724.50109 
L 2697.72973 726.577086 
L 2703.048649 722.413746 
L 2708.367568 723.023946 
L 2713.686486 724.410106 
L 2719.005405 721.826383 
L 2724.324324 719.670884 
L 2729.643243 718.507115 
L 2734.962162 723.646101 
L 2740.281081 729.180947 
L 2745.6 739.173981 
L 2750.918919 724.608647 
L 2756.237838 728.660841 
L 2761.556757 721.033111 
L 2766.875676 720.48412 
L 2772.194595 723.281918 
L 2777.513514 730.781648 
L 2782.832432 725.604771 
L 2788.151351 723.987181 
L 2793.47027 726.63307 
L 2798.789189 719.169811 
L 2804.108108 732.245915 
L 2809.427027 734.627019 
L 2814.745946 727.006998 
L 2820.064865 736.751572 
L 2825.383784 729.147393 
L 2830.702703 715.910448 
L 2836.021622 726.697769 
L 2841.340541 723.078527 
L 2846.659459 716.380992 
L 2851.978378 723.352366 
L 2857.297297 720.915527 
L 2862.616216 718.68831 
L 2867.935135 724.843408 
L 2873.254054 738.172183 
L 2878.572973 731.009688 
L 2883.891892 719.921147 
L 2889.210811 728.138858 
L 2894.52973 729.49801 
L 2899.848649 725.817692 
L 2905.167568 726.427759 
L 2910.486486 724.983505 
L 2915.805405 722.71235 
L 2921.124324 722.510495 
L 2926.443243 727.171909 
L 2931.762162 721.993031 
L 2937.081081 720.472597 
L 2942.4 723.252826 
L 2947.718919 721.974671 
L 2953.037838 719.144706 
L 2958.356757 725.34748 
L 2963.675676 726.011654 
L 2968.994595 718.724348 
L 2974.313514 725.86271 
L 2979.632432 734.89138 
L 2984.951351 729.124157 
L 2990.27027 719.080863 
L 2995.589189 732.49096 
L 3000.908108 728.179116 
L 3006.227027 727.088112 
L 3011.545946 722.050377 
L 3016.864865 719.671823 
L 3022.183784 728.154916 
L 3027.502703 724.119785 
L 3032.821622 726.391032 
L 3038.140541 729.407592 
L 3043.459459 736.152429 
L 3048.778378 731.391615 
L 3054.097297 727.96583 
L 3059.416216 726.373461 
L 3064.735135 727.632094 
L 3070.054054 727.126559 
L 3075.372973 721.967278 
L 3080.691892 725.648676 
L 3086.010811 726.150447 
L 3091.32973 722.173029 
L 3096.648649 725.390762 
L 3101.967568 723.630924 
L 3107.286486 728.86528 
L 3112.605405 723.734402 
L 3117.924324 723.817684 
L 3123.243243 719.939681 
L 3128.562162 723.736935 
L 3133.881081 726.810725 
L 3139.2 722.331162 
L 3144.518919 728.860578 
L 3149.837838 728.813117 
L 3155.156757 718.647736 
L 3160.475676 726.287695 
L 3165.794595 722.806308 
L 3171.113514 724.373828 
L 3176.432432 716.998179 
L 3181.751351 725.833468 
L 3187.07027 733.312544 
L 3192.389189 729.338166 
L 3197.708108 719.017369 
L 3203.027027 722.604685 
L 3208.345946 723.436238 
L 3213.664865 726.167818 
L 3218.983784 721.426079 
L 3224.302703 714.334479 
L 3229.621622 721.05579 
L 3234.940541 729.222252 
L 3240.259459 736.227487 
L 3245.578378 729.15909 
L 3250.897297 729.771401 
L 3256.216216 727.5738 
L 3261.535135 723.73804 
L 3266.854054 731.059873 
L 3272.172973 730.184349 
L 3277.491892 730.116734 
L 3282.810811 726.61795 
L 3288.12973 717.935611 
L 3293.448649 726.87353 
L 3298.767568 718.221961 
L 3304.086486 717.310723 
L 3309.405405 731.760883 
L 3314.724324 721.184248 
L 3320.043243 736.066729 
L 3325.362162 729.07663 
L 3330.681081 729.501109 
L 3336 732.744247 
L 3341.318919 727.610336 
L 3346.637838 721.041817 
L 3351.956757 723.740466 
L 3357.275676 723.275173 
L 3362.594595 727.732556 
L 3367.913514 724.224343 
L 3373.232432 734.803636 
L 3378.551351 730.256216 
L 3383.87027 730.419624 
L 3389.189189 731.508261 
L 3394.508108 727.847988 
L 3399.827027 729.684014 
L 3405.145946 717.884819 
L 3410.464865 726.262008 
L 3415.783784 721.68322 
L 3421.102703 724.531504 
L 3426.421622 715.581705 
L 3431.740541 728.245708 
L 3437.059459 728.509305 
L 3442.378378 718.052621 
L 3447.697297 725.119656 
L 3453.016216 725.756274 
L 3458.335135 732.735408 
L 3463.654054 729.477416 
L 3468.972973 730.935062 
L 3474.291892 725.591521 
L 3479.610811 721.785477 
L 3484.92973 721.396363 
L 3490.248649 719.427559 
L 3495.567568 724.786236 
L 3500.886486 727.052207 
L 3506.205405 731.409468 
L 3511.524324 727.522468 
L 3516.843243 716.718931 
L 3522.162162 719.044775 
L 3527.481081 723.462107 
L 3532.8 718.45462 
L 3538.118919 721.449448 
L 3543.437838 717.793146 
L 3548.756757 729.12007 
L 3554.075676 724.726422 
L 3559.394595 722.117693 
L 3564.713514 736.501534 
L 3570.032432 730.413053 
L 3575.351351 719.837574 
L 3580.67027 733.675739 
L 3585.989189 730.920557 
L 3591.308108 724.480994 
L 3596.627027 720.158749 
L 3601.945946 726.805284 
L 3607.264865 717.248001 
L 3612.583784 719.515261 
L 3617.902703 719.159883 
L 3623.221622 720.906945 
L 3628.540541 727.01852 
L 3633.859459 728.041561 
L 3639.178378 730.039823 
L 3644.497297 725.682911 
L 3649.816216 727.136578 
L 3655.135135 729.743953 
L 3660.454054 720.777058 
L 3665.772973 717.85458 
L 3671.091892 721.298061 
L 3676.410811 723.588132 
L 3681.72973 725.512782 
L 3687.048649 722.979344 
L 3692.367568 727.959184 
L 3697.686486 725.610387 
L 3703.005405 737.784955 
L 3708.324324 731.970946 
L 3713.643243 720.524544 
L 3718.962162 733.285632 
L 3724.281081 735.940613 
L 3734.918919 719.072181 
L 3740.237838 724.192035 
L 3745.556757 724.266695 
L 3750.875676 722.017679 
L 3756.194595 735.902557 
L 3761.513514 728.843896 
L 3766.832432 720.846176 
L 3772.151351 718.547897 
L 3777.47027 724.369433 
L 3782.789189 721.616112 
L 3788.108108 727.25029 
L 3793.427027 718.224329 
L 3798.745946 726.993689 
L 3804.064865 725.395057 
L 3809.383784 724.395602 
L 3814.702703 731.183937 
L 3820.021622 720.954904 
L 3825.340541 725.054276 
L 3830.659459 730.226401 
L 3835.978378 732.04651 
L 3841.297297 729.054964 
L 3846.616216 737.905214 
L 3851.935135 728.082251 
L 3857.254054 735.267588 
L 3862.572973 729.158559 
L 3867.891892 736.261049 
L 3873.210811 724.636626 
L 3878.52973 731.887991 
L 3883.848649 723.890416 
L 3889.167568 722.80914 
L 3894.486486 717.584412 
L 3899.805405 729.210505 
L 3905.124324 733.386223 
L 3910.443243 729.64992 
L 3915.762162 734.37527 
L 3921.081081 726.724818 
L 3931.718919 728.443709 
L 3937.037838 721.34759 
L 3942.356757 739.926912 
L 3947.675676 731.52559 
L 3952.994595 715.439032 
L 3958.313514 723.946458 
L 3963.632432 725.608227 
L 3968.951351 727.622573 
L 3974.27027 725.77848 
L 3979.589189 722.193241 
L 3984.908108 721.47457 
L 3990.227027 722.661907 
L 3995.545946 718.404459 
L 4000.864865 723.572373 
L 4006.183784 716.197289 
L 4011.502703 720.74902 
L 4016.821622 721.025642 
L 4022.140541 723.510889 
L 4027.459459 724.11569 
L 4032.778378 727.795161 
L 4038.097297 724.442796 
L 4043.416216 732.38435 
L 4048.735135 729.538044 
L 4054.054054 721.417788 
L 4059.372973 719.012874 
L 4064.691892 732.723727 
L 4070.010811 734.34356 
L 4075.32973 733.631776 
L 4080.648649 730.252312 
L 4085.967568 731.418723 
L 4091.286486 727.504873 
L 4096.605405 737.548516 
L 4101.924324 725.079058 
L 4107.243243 723.159607 
L 4112.562162 724.37588 
L 4117.881081 720.213371 
L 4123.2 717.946294 
L 4128.518919 728.1573 
L 4139.156757 721.355549 
L 4144.475676 722.027623 
L 4149.794595 721.834989 
L 4155.113514 717.334939 
L 4160.432432 723.52183 
L 4165.751351 724.868712 
L 4171.07027 728.562431 
L 4176.389189 720.171401 
L 4181.708108 725.869929 
L 4187.027027 721.535646 
L 4192.345946 724.61015 
L 4197.664865 724.031294 
L 4202.983784 724.185763 
L 4208.302703 730.869092 
L 4213.621622 718.086034 
L 4218.940541 721.760671 
L 4224.259459 718.682436 
L 4229.578378 718.116996 
L 4234.897297 727.712709 
L 4240.216216 730.209528 
L 4245.535135 729.972093 
L 4250.854054 722.161822 
L 4256.172973 727.149039 
L 4261.491892 727.062616 
L 4266.810811 727.72532 
L 4272.12973 731.491421 
L 4277.448649 723.678708 
L 4282.767568 733.322754 
L 4288.086486 728.00426 
L 4293.405405 725.601589 
L 4298.724324 723.601872 
L 4304.043243 731.155442 
L 4309.362162 734.443682 
L 4314.681081 726.046189 
L 4320 730.179023 
L 4325.318919 721.236851 
L 4330.637838 732.952847 
L 4335.956757 726.843781 
L 4341.275676 727.516952 
L 4346.594595 727.112768 
L 4351.913514 729.138513 
L 4357.232432 725.775581 
L 4362.551351 722.569877 
L 4367.87027 725.756133 
L 4373.189189 721.290825 
L 4378.508108 729.08792 
L 4383.827027 720.034968 
L 4389.145946 722.755225 
L 4394.464865 718.906032 
L 4399.783784 720.478246 
L 4410.421622 732.668325 
L 4415.740541 725.461534 
L 4421.059459 719.595536 
L 4426.378378 724.763598 
L 4431.697297 721.067911 
L 4437.016216 718.771567 
L 4442.335135 719.751201 
L 4447.654054 731.08649 
L 4452.972973 733.024848 
L 4458.291892 734.068367 
L 4463.610811 727.757005 
L 4468.92973 726.661747 
L 4474.248649 729.316916 
L 4479.567568 722.340499 
L 4484.886486 718.525359 
L 4490.205405 726.293211 
L 4495.524324 722.375133 
L 4500.843243 734.072338 
L 4506.162162 730.979291 
L 4511.481081 722.225997 
L 4516.8 730.381958 
L 4522.118919 736.741678 
L 4527.437838 727.984746 
L 4532.756757 721.761759 
L 4538.075676 721.601616 
L 4543.394595 728.687865 
L 4548.713514 715.619387 
L 4554.032432 720.575925 
L 4559.351351 727.778787 
L 4564.67027 717.244861 
L 4569.989189 723.48497 
L 4575.308108 724.577103 
L 4580.627027 729.928005 
L 4585.945946 731.658967 
L 4591.264865 729.752792 
L 4596.583784 733.949611 
L 4601.902703 722.387395 
L 4607.221622 721.805664 
L 4612.540541 719.642024 
L 4617.859459 727.431418 
L 4623.178378 716.828299 
L 4628.497297 728.485338 
L 4633.816216 723.724034 
L 4639.135135 721.738116 
L 4644.454054 718.123883 
L 4649.772973 719.975644 
L 4655.091892 721.313413 
L 4660.410811 721.037389 
L 4665.72973 719.775442 
L 4671.048649 725.631438 
L 4676.367568 719.12461 
L 4681.686486 719.199219 
L 4687.005405 726.221294 
L 4692.324324 726.674682 
L 4697.643243 719.18773 
L 4702.962162 731.217026 
L 4708.281081 726.43757 
L 4713.6 726.428789 
L 4718.918919 724.923724 
L 4724.237838 723.602562 
L 4729.556757 731.309463 
L 4734.875676 731.386739 
L 4740.194595 730.543913 
L 4745.513514 719.363649 
L 4750.832432 718.485889 
L 4756.151351 720.516726 
L 4761.47027 719.91961 
L 4766.789189 721.233495 
L 4772.108108 721.043321 
L 4782.745946 725.563068 
L 4788.064865 725.935309 
L 4793.383784 723.865186 
L 4798.702703 730.715155 
L 4804.021622 727.427588 
L 4809.340541 723.910902 
L 4814.659459 719.364073 
L 4819.978378 723.668498 
L 4825.297297 728.469736 
L 4830.616216 728.715305 
L 4835.935135 731.132921 
L 4841.254054 728.224275 
L 4846.572973 725.759298 
L 4851.891892 727.876973 
L 4857.210811 720.927348 
L 4862.52973 724.559392 
L 4867.848649 717.486849 
L 4873.167568 725.1992 
L 4878.486486 733.898869 
L 4883.805405 725.150942 
L 4889.124324 725.263492 
L 4894.443243 724.585112 
L 4899.762162 724.960302 
L 4905.081081 727.538859 
L 4910.4 728.213284 
L 4915.718919 725.647488 
L 4921.037838 719.177188 
L 4926.356757 729.353435 
L 4931.675676 720.326186 
L 4936.994595 716.568101 
L 4942.313514 725.005661 
L 4947.632432 732.120414 
L 4952.951351 730.528353 
L 4958.27027 723.678384 
L 4963.589189 723.220161 
L 4968.908108 725.092516 
L 4974.227027 724.932181 
L 4979.545946 722.218064 
L 4984.864865 724.439399 
L 4990.183784 724.593386 
L 4995.502703 725.605718 
L 5000.821622 729.170231 
L 5006.140541 724.595313 
L 5011.459459 729.153358 
L 5016.778378 735.398725 
L 5022.097297 730.184972 
L 5027.416216 719.61196 
L 5032.735135 725.842905 
L 5038.054054 718.023122 
L 5043.372973 719.370519 
L 5048.691892 720.580453 
L 5054.010811 719.265397 
L 5059.32973 719.24295 
L 5064.648649 721.198064 
L 5069.967568 720.572029 
L 5075.286486 725.097459 
L 5080.605405 722.744483 
L 5085.924324 723.075785 
L 5091.243243 724.524941 
L 5096.562162 721.803753 
L 5101.881081 721.530637 
L 5107.2 722.72148 
L 5112.518919 721.892095 
L 5117.837838 727.412535 
L 5123.156757 729.659424 
L 5128.475676 721.161793 
L 5133.794595 723.842532 
L 5139.113514 727.470023 
L 5144.432432 716.931029 
L 5149.751351 727.074213 
L 5155.07027 735.481227 
L 5160.389189 715.483743 
L 5165.708108 722.50522 
L 5171.027027 719.332828 
L 5176.345946 719.722042 
L 5181.664865 726.945489 
L 5186.983784 730.449714 
L 5192.302703 724.015551 
L 5197.621622 723.641283 
L 5202.940541 726.523229 
L 5208.259459 721.603153 
L 5213.578378 727.232537 
L 5218.897297 728.546132 
L 5224.216216 729.679503 
L 5229.535135 730.337904 
L 5234.854054 722.996083 
L 5240.172973 718.671462 
L 5245.491892 725.995571 
L 5250.810811 734.288772 
L 5256.12973 735.424969 
L 5261.448649 732.454337 
L 5266.767568 725.253814 
L 5272.086486 718.902991 
L 5277.405405 718.503045 
L 5282.724324 720.658003 
L 5288.043243 721.767109 
L 5293.362162 724.101193 
L 5298.681081 724.444043 
L 5304 727.672767 
L 5309.318919 726.352842 
L 5314.637838 728.877184 
L 5319.956757 727.825234 
L 5325.275676 728.45607 
L 5330.594595 723.009367 
L 5335.913514 727.218822 
L 5341.232432 727.476976 
L 5346.551351 725.360382 
L 5351.87027 727.951483 
L 5357.189189 732.201486 
L 5362.508108 720.361235 
L 5367.827027 722.668935 
L 5373.145946 721.524124 
L 5378.464865 718.356783 
L 5383.783784 727.84577 
L 5389.102703 726.109998 
L 5394.421622 715.574776 
L 5399.740541 719.704646 
L 5405.059459 720.746951 
L 5410.378378 728.722076 
L 5415.697297 719.004044 
L 5421.016216 724.783154 
L 5426.335135 726.633427 
L 5431.654054 727.500187 
L 5436.972973 723.859637 
L 5442.291892 723.970674 
L 5447.610811 719.977297 
L 5452.92973 725.567778 
L 5458.248649 721.458378 
L 5463.567568 732.327137 
L 5468.886486 729.142043 
L 5474.205405 726.285926 
L 5479.524324 743.068192 
L 5484.843243 731.974792 
L 5490.162162 729.883892 
L 5495.481081 733.263904 
L 5500.8 718.646889 
L 5506.118919 730.006444 
L 5511.437838 727.943225 
L 5516.756757 719.789557 
L 5522.075676 721.292412 
L 5527.394595 724.370646 
L 5532.713514 723.956917 
L 5538.032432 717.836702 
L 5543.351351 724.952319 
L 5548.67027 725.518324 
L 5553.989189 727.497645 
L 5559.308108 727.161799 
L 5564.627027 725.136554 
L 5569.945946 725.397392 
L 5575.264865 721.116127 
L 5580.583784 723.892817 
L 5585.902703 725.258399 
L 5591.221622 729.114213 
L 5596.540541 721.165067 
L 5601.859459 720.73523 
L 5607.178378 724.669956 
L 5612.497297 719.429918 
L 5617.816216 728.314918 
L 5623.135135 717.585841 
L 5628.454054 720.671902 
L 5633.772973 719.741083 
L 5639.091892 712.360607 
L 5644.410811 728.264533 
L 5649.72973 729.381722 
L 5655.048649 728.79072 
L 5660.367568 729.414553 
L 5665.686486 725.850215 
L 5671.005405 719.847044 
L 5676.324324 720.759263 
L 5681.643243 728.762342 
L 5686.962162 727.776727 
L 5692.281081 719.335545 
L 5697.6 716.909829 
L 5702.918919 721.918878 
L 5708.237838 736.986474 
L 5713.556757 729.633281 
L 5718.875676 727.724913 
L 5724.194595 732.030178 
L 5729.513514 735.542951 
L 5734.832432 729.627133 
L 5740.151351 727.117213 
L 5745.47027 731.359715 
L 5750.789189 733.076737 
L 5756.108108 724.66797 
L 5761.427027 724.640888 
L 5766.745946 717.984492 
L 5772.064865 720.911946 
L 5777.383784 715.740427 
L 5782.702703 722.531937 
L 5788.021622 720.610352 
L 5793.340541 728.383413 
L 5798.659459 721.409207 
L 5803.978378 727.767539 
L 5809.297297 733.19712 
L 5814.616216 728.951428 
L 5819.935135 723.245066 
L 5825.254054 727.694416 
L 5830.572973 727.024568 
L 5835.891892 728.201704 
L 5841.210811 725.280514 
L 5846.52973 727.647238 
L 5851.848649 723.268793 
L 5857.167568 723.628664 
L 5862.486486 720.10642 
L 5873.124324 729.943847 
L 5878.443243 736.828782 
L 5883.762162 728.60808 
L 5889.081081 721.531036 
L 5894.4 723.621312 
L 5899.718919 729.226904 
L 5905.037838 727.442093 
L 5910.356757 728.917193 
L 5915.675676 721.824913 
L 5920.994595 721.122698 
L 5926.313514 723.083818 
L 5931.632432 728.431106 
L 5936.951351 718.762952 
L 5942.27027 723.32947 
L 5947.589189 717.345739 
L 5952.908108 719.200981 
L 5958.227027 719.870812 
L 5963.545946 716.719795 
L 5968.864865 718.629759 
L 5974.183784 726.053848 
L 5979.502703 721.696728 
L 5984.821622 720.073747 
L 5990.140541 725.179927 
L 5995.459459 727.474376 
L 6000.778378 723.7134 
L 6006.097297 728.821823 
L 6011.416216 719.5696 
L 6016.735135 721.69461 
L 6022.054054 729.541309 
L 6027.372973 717.073328 
L 6032.691892 730.520004 
L 6038.010811 728.976376 
L 6043.32973 724.763274 
L 6048.648649 722.063703 
L 6053.967568 720.508452 
L 6059.286486 724.240451 
L 6064.605405 722.684836 
L 6069.924324 725.405275 
L 6075.243243 718.956409 
L 6080.562162 726.452133 
L 6085.881081 732.931904 
L 6091.2 730.378802 
L 6091.2 730.378802 
" style="fill:none;stroke:#000004;stroke-width:3;"/>
   </g>
   <g id="line2d_22">
    <path clip-path="url(#ped939f07f7)" d="M 777.6 727.202906 
L 804.194595 727.202906 
L 809.513514 634.333 
L 814.832432 806.1239 
L 820.151351 727.202906 
L 857.383784 727.202906 
L 862.702703 647.619599 
L 868.021622 727.865225 
L 873.340541 727.202906 
L 883.978378 727.202906 
L 889.297297 726.540587 
L 894.616216 727.202906 
L 899.935135 705.354614 
L 905.254054 727.202906 
L 910.572973 727.202906 
L 915.891892 632.051245 
L 921.210811 727.202906 
L 926.52973 790.603709 
L 931.848649 727.202906 
L 953.124324 727.202906 
L 958.443243 770.869037 
L 963.762162 683.536776 
L 969.081081 727.202906 
L 974.4 663.802104 
L 979.718919 727.202906 
L 1000.994595 727.202906 
L 1006.313514 764.17038 
L 1011.632432 727.202906 
L 1022.27027 727.202906 
L 1027.589189 724.560858 
L 1032.908108 727.202906 
L 1059.502703 727.202906 
L 1064.821622 646.07352 
L 1070.140541 797.766433 
L 1075.459459 790.654131 
L 1080.778378 663.751682 
L 1086.097297 853.577241 
L 1091.416216 600.828571 
L 1096.735135 727.202906 
L 1102.054054 733.806133 
L 1107.372973 727.202906 
L 1128.648649 727.202906 
L 1133.967568 721.259936 
L 1139.286486 727.202906 
L 1149.924324 727.202906 
L 1155.243243 655.979127 
L 1160.562162 727.202906 
L 1165.881081 727.202906 
L 1171.2 806.35091 
L 1176.518919 648.054902 
L 1181.837838 727.202906 
L 1192.475676 727.202906 
L 1197.794595 739.061781 
L 1203.113514 727.202906 
L 1250.983784 727.202906 
L 1256.302703 773.365436 
L 1261.621622 727.202906 
L 1266.940541 727.202906 
L 1272.259459 726.54294 
L 1277.578378 727.202906 
L 1304.172973 727.202906 
L 1309.491892 714.00664 
L 1314.810811 727.202906 
L 1330.767568 727.202906 
L 1336.086486 766.148635 
L 1341.405405 714.655528 
L 1346.724324 727.202906 
L 1352.043243 628.328824 
L 1357.362162 727.202906 
L 1368 727.202906 
L 1373.318919 766.713385 
L 1378.637838 727.202906 
L 1447.783784 727.202906 
L 1453.102703 639.691453 
L 1458.421622 727.202906 
L 1463.740541 838.445678 
L 1469.059459 671.200797 
L 1474.378378 727.202906 
L 1479.697297 726.54468 
L 1485.016216 727.202906 
L 1532.886486 727.202906 
L 1538.205405 788.479849 
L 1543.524324 727.202906 
L 1591.394595 727.202906 
L 1596.713514 665.925963 
L 1602.032432 727.202906 
L 1607.351351 767.381165 
L 1612.67027 687.024648 
L 1617.989189 727.202906 
L 1628.627027 727.202906 
L 1633.945946 783.863241 
L 1639.264865 670.542571 
L 1644.583784 727.202906 
L 1671.178378 727.202906 
L 1676.497297 720.621443 
L 1681.816216 668.034641 
L 1687.135135 727.202906 
L 1697.772973 727.202906 
L 1703.091892 780.44909 
L 1708.410811 673.956723 
L 1713.72973 727.202906 
L 1724.367568 727.202906 
L 1729.686486 780.44909 
L 1735.005405 673.956723 
L 1740.324324 727.202906 
L 1820.108108 727.202906 
L 1825.427027 694.381993 
L 1830.745946 765.278498 
L 1836.064865 689.127315 
L 1841.383784 727.202906 
L 1846.702703 727.202906 
L 1852.021622 660.359263 
L 1857.340541 760.606136 
L 1862.659459 727.202906 
L 1873.297297 727.202906 
L 1878.616216 631.023511 
L 1883.935135 670.424917 
L 1889.254054 727.202906 
L 1894.572973 727.854919 
L 1899.891892 727.202906 
L 1921.167568 727.202906 
L 1926.486486 681.596063 
L 1931.805405 727.202906 
L 1947.762162 727.202906 
L 1953.081081 707.678224 
L 1958.4 727.202906 
L 1963.718919 727.202906 
L 1969.037838 761.05373 
L 1974.356757 658.889342 
L 1979.675676 727.202906 
L 1995.632432 727.202906 
L 2000.951351 863.332433 
L 2006.27027 591.07338 
L 2011.589189 727.202906 
L 2027.545946 727.202906 
L 2032.864865 863.332433 
L 2038.183784 572.233061 
L 2043.502703 727.202906 
L 2070.097297 727.202906 
L 2075.416216 714.216434 
L 2080.735135 727.202906 
L 2086.054054 801.95158 
L 2091.372973 727.202906 
L 2123.286486 727.202906 
L 2128.605405 652.454233 
L 2133.924324 727.202906 
L 2139.243243 733.695444 
L 2144.562162 727.202906 
L 2160.518919 727.202906 
L 2165.837838 743.440364 
L 2171.156757 727.202906 
L 2197.751351 727.202906 
L 2203.07027 792.240285 
L 2208.389189 727.202906 
L 2240.302703 727.202906 
L 2245.621622 662.165527 
L 2250.940541 727.202906 
L 2256.259459 784.42839 
L 2261.578378 669.977422 
L 2266.897297 727.202906 
L 2272.216216 727.202906 
L 2277.535135 788.985081 
L 2288.172973 665.420732 
L 2293.491892 641.567638 
L 2298.810811 727.202906 
L 2309.448649 727.202906 
L 2314.767568 812.838174 
L 2320.086486 727.202906 
L 2325.405405 668.788889 
L 2330.724324 727.202906 
L 2367.956757 727.202906 
L 2373.275676 768.080845 
L 2378.594595 687.62183 
L 2383.913514 727.202906 
L 2405.189189 727.202906 
L 2410.508108 665.016233 
L 2415.827027 727.202906 
L 2421.145946 727.202906 
L 2426.464865 692.279041 
L 2431.783784 727.202906 
L 2437.102703 727.202906 
L 2442.421622 782.841447 
L 2447.740541 727.202906 
L 2453.059459 727.850469 
L 2458.378378 727.202906 
L 2484.972973 727.202906 
L 2490.291892 755.7094 
L 2495.610811 727.202906 
L 2500.92973 731.740511 
L 2506.248649 770.668797 
L 2511.567568 683.737015 
L 2516.886486 727.202906 
L 2522.205405 727.202906 
L 2527.524324 767.422914 
L 2532.843243 727.202906 
L 2564.756757 727.202906 
L 2570.075676 773.327226 
L 2575.394595 681.078586 
L 2580.713514 727.202906 
L 2601.989189 727.202906 
L 2607.308108 686.982899 
L 2612.627027 727.202906 
L 2644.540541 727.202906 
L 2649.859459 736.928642 
L 2655.178378 727.202906 
L 2660.497297 727.202906 
L 2665.816216 852.621101 
L 2671.135135 682.954592 
L 2676.454054 727.202906 
L 2724.324324 727.202906 
L 2729.643243 646.033029 
L 2734.962162 727.202906 
L 2740.281081 715.532399 
L 2745.6 727.202906 
L 2756.237838 727.202906 
L 2761.556757 742.116021 
L 2766.875676 727.202906 
L 2788.151351 727.202906 
L 2793.47027 691.55335 
L 2798.789189 727.202906 
L 2804.108108 811.533419 
L 2809.427027 679.81909 
L 2814.745946 727.202906 
L 2820.064865 798.631623 
L 2825.383784 727.202906 
L 2846.659459 727.202906 
L 2851.978378 792.285208 
L 2857.297297 727.202906 
L 2867.935135 727.202906 
L 2873.254054 757.188028 
L 2878.572973 697.217784 
L 2883.891892 761.101334 
L 2889.210811 727.202906 
L 2905.167568 727.202906 
L 2910.486486 705.034234 
L 2915.805405 727.202906 
L 2921.124324 727.202906 
L 2926.443243 709.609986 
L 2931.762162 667.98377 
L 2937.081081 727.202906 
L 2953.037838 727.202906 
L 2958.356757 751.917632 
L 2963.675676 727.202906 
L 2984.951351 727.202906 
L 2990.27027 631.059466 
L 2995.589189 727.202906 
L 3011.545946 727.202906 
L 3016.864865 709.048004 
L 3022.183784 727.202906 
L 3027.502703 727.202906 
L 3032.821622 738.224224 
L 3038.140541 727.202906 
L 3043.459459 796.664883 
L 3048.778378 719.404814 
L 3054.097297 803.32046 
L 3059.416216 651.085352 
L 3064.735135 727.202906 
L 3096.648649 727.202906 
L 3101.967568 803.32046 
L 3112.605405 651.085352 
L 3117.924324 727.202906 
L 3123.243243 727.202906 
L 3128.562162 766.864149 
L 3133.881081 727.202906 
L 3176.432432 727.202906 
L 3181.751351 716.14453 
L 3187.07027 751.276333 
L 3192.389189 703.12948 
L 3197.708108 707.69801 
L 3203.027027 727.202906 
L 3218.983784 727.202906 
L 3224.302703 656.441055 
L 3229.621622 727.202906 
L 3234.940541 727.202906 
L 3240.259459 757.045478 
L 3245.578378 727.202906 
L 3250.897297 701.251173 
L 3256.216216 753.15464 
L 3261.535135 701.251173 
L 3266.854054 727.202906 
L 3272.172973 727.202906 
L 3277.491892 774.58163 
L 3282.810811 727.202906 
L 3288.12973 727.202906 
L 3293.448649 813.714779 
L 3298.767568 640.691034 
L 3304.086486 733.698938 
L 3309.405405 783.126601 
L 3314.724324 727.202906 
L 3320.043243 772.147046 
L 3325.362162 682.258767 
L 3330.681081 736.316588 
L 3336 754.560501 
L 3341.318919 727.202906 
L 3346.637838 727.202906 
L 3351.956757 738.283285 
L 3357.275676 727.202906 
L 3405.145946 727.202906 
L 3410.464865 721.336316 
L 3415.783784 727.202906 
L 3437.059459 727.202906 
L 3442.378378 701.142984 
L 3447.697297 727.202906 
L 3453.016216 727.202906 
L 3458.335135 725.24932 
L 3463.654054 748.04769 
L 3468.972973 727.202906 
L 3474.291892 701.800249 
L 3479.610811 727.202906 
L 3500.886486 727.202906 
L 3506.205405 655.669499 
L 3511.524324 733.698938 
L 3516.843243 727.202906 
L 3548.756757 727.202906 
L 3554.075676 733.700337 
L 3559.394595 727.202906 
L 3564.713514 796.813175 
L 3570.032432 657.592637 
L 3575.351351 751.255575 
L 3580.67027 727.202906 
L 3601.945946 727.202906 
L 3607.264865 703.150238 
L 3612.583784 727.852726 
L 3617.902703 727.202906 
L 3623.221622 727.202906 
L 3628.540541 726.553086 
L 3633.859459 727.202906 
L 3724.281081 727.202906 
L 3729.6 775.978299 
L 3734.918919 777.361219 
L 3740.237838 677.044594 
L 3745.556757 727.202906 
L 3750.875676 727.202906 
L 3756.194595 772.79792 
L 3761.513514 681.607893 
L 3766.832432 727.202906 
L 3782.789189 727.202906 
L 3788.108108 792.359784 
L 3793.427027 662.046029 
L 3798.745946 686.226275 
L 3804.064865 833.336416 
L 3809.383784 727.202906 
L 3814.702703 727.202906 
L 3820.021622 682.880905 
L 3825.340541 741.535243 
L 3830.659459 727.202906 
L 3835.978378 791.129937 
L 3841.297297 684.787171 
L 3846.616216 727.202906 
L 3851.935135 770.924688 
L 3857.254054 727.202906 
L 3862.572973 740.266502 
L 3867.891892 827.983121 
L 3873.210811 626.422691 
L 3878.52973 713.48628 
L 3883.848649 727.855937 
L 3889.167568 727.202906 
L 3905.124324 727.202906 
L 3910.443243 754.643011 
L 3915.762162 706.947077 
L 3921.081081 727.202906 
L 3937.037838 727.202906 
L 3942.356757 830.585039 
L 3947.675676 593.136308 
L 3952.994595 727.202906 
L 3984.908108 727.202906 
L 3990.227027 727.855442 
L 3995.545946 727.202906 
L 4011.502703 727.202906 
L 4016.821622 726.550371 
L 4022.140541 721.983131 
L 4027.459459 727.202906 
L 4032.778378 733.075217 
L 4038.097297 750.050563 
L 4043.416216 727.202906 
L 4070.010811 727.202906 
L 4075.32973 793.232156 
L 4080.648649 713.46211 
L 4085.967568 727.202906 
L 4091.286486 727.202906 
L 4096.605405 744.216247 
L 4101.924324 710.189566 
L 4107.243243 721.969969 
L 4112.562162 727.856974 
L 4117.881081 727.202906 
L 4155.113514 727.202906 
L 4160.432432 643.597644 
L 4165.751351 808.84601 
L 4171.07027 645.559803 
L 4181.708108 808.84601 
L 4187.027027 727.202906 
L 4192.345946 733.743936 
L 4197.664865 727.202906 
L 4213.621622 727.202906 
L 4218.940541 639.018772 
L 4224.259459 727.202906 
L 4234.897297 727.202906 
L 4240.216216 666.603737 
L 4245.535135 727.202906 
L 4250.854054 771.499993 
L 4256.172973 738.287362 
L 4261.491892 726.550767 
L 4266.810811 727.202906 
L 4272.12973 727.202906 
L 4277.448649 768.315324 
L 4282.767568 727.202906 
L 4288.086486 782.106979 
L 4293.405405 727.202906 
L 4298.724324 704.967757 
L 4304.043243 773.65383 
L 4309.362162 727.202906 
L 4314.681081 780.284033 
L 4320 727.202906 
L 4325.318919 811.93374 
L 4330.637838 654.936796 
L 4335.956757 727.202906 
L 4341.275676 777.770898 
L 4346.594595 727.202906 
L 4351.913514 727.202906 
L 4357.232432 626.807028 
L 4362.551351 727.202906 
L 4367.87027 710.830203 
L 4373.189189 727.202906 
L 4421.059459 727.202906 
L 4426.378378 694.484229 
L 4431.697297 693.213202 
L 4437.016216 727.202906 
L 4447.654054 727.202906 
L 4452.972973 682.812684 
L 4458.291892 816.703193 
L 4463.610811 999.29566 
L 4468.92973 727.863134 
L 4474.248649 631.621483 
L 4479.567568 822.78433 
L 4484.886486 675.089696 
L 4490.205405 668.601476 
L 4495.524324 750.234744 
L 4500.843243 727.202906 
L 4522.118919 727.202906 
L 4527.437838 624.026641 
L 4532.756757 699.661639 
L 4538.075676 727.202906 
L 4543.394595 678.739165 
L 4548.713514 691.233106 
L 4554.032432 727.202906 
L 4564.67027 727.202906 
L 4569.989189 667.783514 
L 4575.308108 786.622298 
L 4580.627027 667.783514 
L 4585.945946 727.202906 
L 4596.583784 727.202906 
L 4601.902703 660.740015 
L 4607.221622 727.202906 
L 4612.540541 685.575405 
L 4617.859459 727.202906 
L 4623.178378 658.383451 
L 4628.497297 727.202906 
L 4633.816216 684.432155 
L 4639.135135 727.202906 
L 4660.410811 727.202906 
L 4665.72973 658.636891 
L 4671.048649 727.202906 
L 4676.367568 727.84903 
L 4681.686486 727.202906 
L 4697.643243 727.202906 
L 4702.962162 997.84795 
L 4708.281081 727.202906 
L 4729.556757 727.202906 
L 4734.875676 765.692496 
L 4740.194595 735.690283 
L 4745.513514 727.202906 
L 4750.832432 727.202906 
L 4756.151351 680.225941 
L 4761.47027 727.202906 
L 4883.805405 727.202906 
L 4889.124324 705.696263 
L 4894.443243 727.202906 
L 4942.313514 727.202906 
L 4947.632432 878.073097 
L 4952.951351 861.071513 
L 4958.27027 727.202906 
L 4995.502703 727.202906 
L 5000.821622 462.666895 
L 5006.140541 727.202906 
L 5011.459459 727.202906 
L 5016.778378 714.167308 
L 5022.097297 727.202906 
L 5075.286486 727.202906 
L 5080.605405 720.035731 
L 5085.924324 727.202906 
L 5107.2 727.202906 
L 5112.518919 606.26975 
L 5117.837838 727.202906 
L 5155.07027 727.202906 
L 5160.389189 831.853366 
L 5165.708108 727.202906 
L 5208.259459 727.202906 
L 5213.578378 593.36709 
L 5218.897297 727.202906 
L 5245.491892 727.202906 
L 5250.810811 669.563652 
L 5256.12973 1136.945455 
L 5261.448649 942.443917 
L 5266.767568 727.202906 
L 5293.362162 727.202906 
L 5298.681081 259.854545 
L 5304 727.202906 
L 5431.654054 727.202906 
L 5436.972973 733.707623 
L 5442.291892 727.202906 
L 5463.567568 727.202906 
L 5468.886486 672.606833 
L 5474.205405 727.202906 
L 5479.524324 1104.894592 
L 5484.843243 848.440498 
L 5490.162162 727.202906 
L 5500.8 727.202906 
L 5506.118919 499.627757 
L 5511.437838 727.202906 
L 5543.351351 727.202906 
L 5548.67027 529.316456 
L 5553.989189 727.202906 
L 5569.945946 727.202906 
L 5575.264865 705.078753 
L 5580.583784 727.202906 
L 5617.816216 727.202906 
L 5623.135135 703.795012 
L 5628.454054 727.202906 
L 5697.6 727.202906 
L 5702.918919 727.85288 
L 5708.237838 1034.910711 
L 5713.556757 930.801376 
L 5718.875676 727.202906 
L 5724.194595 727.202906 
L 5729.513514 693.503762 
L 5734.832432 727.202906 
L 5740.151351 727.202906 
L 5745.47027 618.435413 
L 5750.789189 358.363265 
L 5756.108108 753.213359 
L 5761.427027 727.202906 
L 5777.383784 727.202906 
L 5782.702703 792.327393 
L 5788.021622 727.202906 
L 5825.254054 727.202906 
L 5830.572973 1120.940343 
L 5835.891892 398.731071 
L 5841.210811 727.202906 
L 5851.848649 727.202906 
L 5857.167568 1055.674742 
L 5862.486486 398.731071 
L 5867.805405 727.202906 
L 5873.124324 792.610391 
L 5878.443243 957.257654 
L 5883.762162 768.140214 
L 5889.081081 727.202906 
L 5894.4 727.202906 
L 5899.718919 745.709096 
L 5905.037838 739.105791 
L 5910.356757 727.202906 
L 5915.675676 725.88013 
L 5920.994595 727.202906 
L 5926.313514 727.202906 
L 5931.632432 690.188885 
L 5936.951351 727.202906 
L 5963.545946 727.202906 
L 5968.864865 677.702168 
L 5974.183784 727.202906 
L 5995.459459 727.202906 
L 6000.778378 638.307196 
L 6006.097297 727.202906 
L 6011.416216 681.868893 
L 6016.735135 727.202906 
L 6059.286486 727.202906 
L 6064.605405 662.932909 
L 6069.924324 727.202906 
L 6080.562162 727.202906 
L 6085.881081 826.945867 
L 6091.2 706.83367 
L 6091.2 706.83367 
" style="fill:none;stroke:#b73779;stroke-width:3;"/>
   </g>
   <g id="line2d_23">
    <path clip-path="url(#ped939f07f7)" d="M 777.6 727.202906 
L 6091.2 727.202906 
" style="fill:none;opacity:0.7;stroke:#000000;stroke-width:1.3;"/>
   </g>
   <g id="patch_3">
    <path d="M 777.6 1180.8 
L 777.6 216 
" style="fill:none;stroke:#000000;stroke-linecap:square;stroke-linejoin:miter;stroke-width:0.8;"/>
   </g>
   <g id="patch_4">
    <path d="M 6091.2 1180.8 
L 6091.2 216 
" style="fill:none;stroke:#000000;stroke-linecap:square;stroke-linejoin:miter;stroke-width:0.8;"/>
   </g>
   <g id="patch_5">
    <path d="M 777.6 1180.8 
L 6091.2 1180.8 
" style="fill:none;stroke:#000000;stroke-linecap:square;stroke-linejoin:miter;stroke-width:0.8;"/>
   </g>
   <g id="patch_6">
    <path d="M 777.6 216 
L 6091.2 216 
" style="fill:none;stroke:#000000;stroke-linecap:square;stroke-linejoin:miter;stroke-width:0.8;"/>
   </g>
   <g id="patch_7">
    <path d="M 0 1440 
L 6480 1440 
L 6480 1416.729153 
L 0 1416.729153 
z
" style="fill:#808080;"/>
   </g>
   <g id="text_13">
    <!-- ©spred -->
    <defs>
     <path d="M 50.90625 25.90625 
L 50.90625 44 
Q 50.90625 52.40625 44.75 58.40625 
Q 38.59375 64.40625 30 64.40625 
Q 21.296875 64.40625 15.09375 58.40625 
Q 8.90625 52.40625 8.90625 44 
L 8.90625 25.90625 
Q 8.90625 17.5 15.09375 11.453125 
Q 21.296875 5.40625 30 5.40625 
Q 38.59375 5.40625 44.75 11.453125 
Q 50.90625 17.5 50.90625 25.90625 
z
M 57.703125 43.203125 
L 57.703125 26.59375 
Q 57.703125 15.203125 49.59375 7.09375 
Q 41.5 -1 30 -1 
Q 18.40625 -1 10.296875 7.09375 
Q 2.203125 15.203125 2.203125 26.59375 
L 2.203125 43.203125 
Q 2.203125 54.59375 10.296875 62.6875 
Q 18.40625 70.796875 30 70.796875 
Q 41.5 70.796875 49.59375 62.6875 
Q 57.703125 54.59375 57.703125 43.203125 
z
M 38.59375 29.40625 
L 41.40625 29.40625 
Q 42.40625 29.40625 42.90625 28.84375 
Q 43.40625 28.296875 43.40625 27.59375 
Q 43.40625 21.59375 39.796875 17.9375 
Q 36.203125 14.296875 30.40625 14.296875 
Q 24.40625 14.296875 20.75 17.9375 
Q 17.09375 21.59375 17.09375 27.09375 
L 17.09375 43.40625 
Q 17.09375 48.703125 20.75 52.390625 
Q 24.40625 56.09375 30.40625 56.09375 
Q 35.90625 56.09375 39.40625 52.25 
Q 42.90625 48.40625 42.90625 42.296875 
Q 42.90625 41.59375 42.40625 41.046875 
Q 41.90625 40.5 40.90625 40.5 
L 38.09375 40.5 
Q 37.09375 40.5 36.546875 41.046875 
Q 36 41.59375 36 42.296875 
Q 36 45.203125 34.390625 47.046875 
Q 32.796875 48.90625 30.40625 48.90625 
Q 27.703125 48.90625 25.796875 46.90625 
Q 23.90625 44.90625 23.90625 42.203125 
L 23.90625 28.203125 
Q 23.90625 25.59375 25.796875 23.59375 
Q 27.703125 21.59375 30.40625 21.59375 
Q 32.90625 21.59375 34.703125 23.1875 
Q 36.5 24.796875 36.5 27.59375 
Q 36.5 28.296875 37.046875 28.84375 
Q 37.59375 29.40625 38.59375 29.40625 
z
" id="DecimaMonoPro-a9"/>
     <path d="M 30.09375 -1 
Q 25.296875 -1 21.546875 0.59375 
Q 17.796875 2.203125 15.84375 4.59375 
Q 13.90625 7 12.953125 9.390625 
Q 12 11.796875 12 14 
Q 12 14.796875 12.5 15.296875 
Q 13 15.796875 13.796875 15.796875 
L 18.296875 15.796875 
Q 19.90625 15.796875 20.09375 14.09375 
Q 20.40625 11.203125 22.796875 8.703125 
Q 25.203125 6.203125 30.09375 6.203125 
Q 34.296875 6.203125 36.890625 8.296875 
Q 39.5 10.40625 39.5 13.59375 
Q 39.5 16.5 36.84375 18.5 
Q 34.203125 20.5 30.390625 21.84375 
Q 26.59375 23.203125 22.84375 24.796875 
Q 19.09375 26.40625 16.4375 29.5 
Q 13.796875 32.59375 13.796875 37.09375 
Q 13.796875 43.296875 18.4375 47.140625 
Q 23.09375 51 30.703125 51 
Q 38.90625 51 43.25 46.5 
Q 47.59375 42 47.59375 37.5 
Q 47.59375 36.796875 47.09375 36.25 
Q 46.59375 35.703125 45.796875 35.703125 
L 41.203125 35.703125 
Q 39.703125 35.703125 39.40625 37.40625 
Q 38.90625 40 36.75 41.890625 
Q 34.59375 43.796875 30.703125 43.796875 
Q 26.90625 43.796875 24.546875 42.09375 
Q 22.203125 40.40625 22.203125 37.703125 
Q 22.203125 35 24.84375 33.09375 
Q 27.5 31.203125 31.25 29.890625 
Q 35 28.59375 38.703125 26.9375 
Q 42.40625 25.296875 45.046875 21.84375 
Q 47.703125 18.40625 47.703125 13.40625 
Q 47.703125 7.40625 42.59375 3.203125 
Q 37.5 -1 30.09375 -1 
z
" id="DecimaMonoPro-73"/>
     <path d="M 42.09375 17.09375 
L 42.09375 33.09375 
Q 42.09375 37.703125 38.84375 40.796875 
Q 35.59375 43.90625 30.5 43.90625 
Q 25.40625 43.90625 22.046875 40.75 
Q 18.703125 37.59375 18.703125 33 
L 18.703125 17.09375 
Q 18.703125 12.5 22.046875 9.390625 
Q 25.40625 6.296875 30.5 6.296875 
Q 35.59375 6.296875 38.84375 9.390625 
Q 42.09375 12.5 42.09375 17.09375 
z
M 18.703125 3.703125 
L 18.796875 -16.203125 
Q 18.796875 -18 16.5 -18 
L 13 -18 
Q 10.703125 -18 10.703125 -16.203125 
L 10.703125 48.203125 
Q 10.703125 50 13 50 
L 15.90625 50 
Q 18.203125 50 18.203125 48.203125 
L 18.203125 45.90625 
Q 18.59375 46.5 19.5 47.34375 
Q 20.40625 48.203125 23.75 49.59375 
Q 27.09375 51 31.296875 51 
Q 39.296875 51 44.796875 45.640625 
Q 50.296875 40.296875 50.296875 32.59375 
L 50.296875 17.40625 
Q 50.296875 9.796875 44.75 4.390625 
Q 39.203125 -1 31.296875 -1 
Q 27.40625 -1 24.25 0.203125 
Q 21.09375 1.40625 19.90625 2.59375 
z
" id="DecimaMonoPro-70"/>
     <path d="M 37.203125 51 
Q 44.09375 51 48.140625 46.453125 
Q 52.203125 41.90625 52.203125 37.5 
Q 52.203125 35.703125 50.5 35.703125 
L 45.90625 35.703125 
Q 44.296875 35.703125 44.09375 37.40625 
Q 43.796875 39.796875 41.75 41.796875 
Q 39.703125 43.796875 36.59375 43.796875 
Q 32.40625 43.796875 29.203125 40.796875 
Q 26 37.796875 26 34 
L 26 7.203125 
L 45.09375 7.203125 
Q 45.796875 7.203125 46.34375 6.703125 
Q 46.90625 6.203125 46.90625 5.40625 
L 46.90625 1.796875 
Q 46.90625 1 46.34375 0.5 
Q 45.796875 0 45.09375 0 
L 9.296875 0 
Q 8.59375 0 8.046875 0.5 
Q 7.5 1 7.5 1.796875 
L 7.5 5.40625 
Q 7.5 6.203125 8.046875 6.703125 
Q 8.59375 7.203125 9.296875 7.203125 
L 18 7.203125 
L 18 48.203125 
Q 18 50 20.296875 50 
L 23.5 50 
Q 25.796875 50 25.796875 48.203125 
L 25.796875 45.703125 
Q 29.796875 51 37.203125 51 
z
" id="DecimaMonoPro-72"/>
     <path d="M 48.796875 13.5 
Q 48.796875 9.09375 43.75 4.046875 
Q 38.703125 -1 30.203125 -1 
Q 21.203125 -1 15.75 4.453125 
Q 10.296875 9.90625 10.296875 17.5 
L 10.296875 32.703125 
Q 10.296875 40.203125 15.75 45.59375 
Q 21.203125 51 30.203125 51 
Q 39.203125 51 44.453125 45.59375 
Q 49.703125 40.203125 49.703125 32.703125 
L 49.703125 24.796875 
Q 49.703125 23.796875 49.046875 23.140625 
Q 48.40625 22.5 47.40625 22.5 
L 18.40625 22.5 
L 18.40625 17 
Q 18.40625 12.5 21.65625 9.296875 
Q 24.90625 6.09375 30.203125 6.09375 
Q 38.5 6.09375 40.59375 13.59375 
Q 41.09375 15.296875 42.40625 15.296875 
L 47 15.296875 
Q 47.796875 15.296875 48.296875 14.75 
Q 48.796875 14.203125 48.796875 13.5 
z
M 18.40625 33 
L 18.40625 29.703125 
L 41.796875 29.703125 
L 41.796875 33 
Q 41.796875 37.5 38.640625 40.640625 
Q 35.5 43.796875 30.203125 43.796875 
Q 24.90625 43.796875 21.65625 40.640625 
Q 18.40625 37.5 18.40625 33 
z
" id="DecimaMonoPro-65"/>
     <path d="M 17.90625 32.90625 
L 17.90625 16.90625 
Q 17.90625 12.296875 21.15625 9.1875 
Q 24.40625 6.09375 29.5 6.09375 
Q 34.59375 6.09375 37.9375 9.25 
Q 41.296875 12.40625 41.296875 17 
L 41.296875 32.90625 
Q 41.296875 37.5 37.9375 40.59375 
Q 34.59375 43.703125 29.5 43.703125 
Q 24.40625 43.703125 21.15625 40.59375 
Q 17.90625 37.5 17.90625 32.90625 
z
M 41.296875 46.296875 
L 41.203125 68.203125 
Q 41.203125 70 43.5 70 
L 47 70 
Q 49.296875 70 49.296875 68.203125 
L 49.296875 1.796875 
Q 49.296875 0 47 0 
L 44.09375 0 
Q 41.796875 0 41.796875 1.796875 
L 41.796875 4.09375 
Q 41.40625 3.5 40.5 2.640625 
Q 39.59375 1.796875 36.25 0.390625 
Q 32.90625 -1 28.703125 -1 
Q 20.703125 -1 15.203125 4.34375 
Q 9.703125 9.703125 9.703125 17.40625 
L 9.703125 32.59375 
Q 9.703125 40.203125 15.25 45.59375 
Q 20.796875 51 28.703125 51 
Q 32.59375 51 35.75 49.796875 
Q 38.90625 48.59375 40.09375 47.40625 
z
" id="DecimaMonoPro-64"/>
    </defs>
    <g style="fill:#ffffff;" transform="translate(64.8 1432.8)scale(0.14 -0.14)">
     <use xlink:href="#DecimaMonoPro-a9"/>
     <use x="59.999985" xlink:href="#DecimaMonoPro-73"/>
     <use x="119.999969" xlink:href="#DecimaMonoPro-70"/>
     <use x="179.999954" xlink:href="#DecimaMonoPro-72"/>
     <use x="239.999939" xlink:href="#DecimaMonoPro-65"/>
     <use x="299.999924" xlink:href="#DecimaMonoPro-64"/>
    </g>
   </g>
   <g id="text_14">
    <!-- ETHUSDT_drop -->
    <defs>
     <path d="M 9.40625 70 
L 9.40625 0 
L 51.90625 0 
L 51.90625 10.40625 
L 20.40625 10.40625 
L 20.40625 32 
L 45 32 
L 45 42.40625 
L 20.40625 42.40625 
L 20.40625 59.59375 
L 50.90625 59.59375 
L 50.90625 70 
z
" id="ApercuPro-Medium-45"/>
     <path d="M 1.09375 59.59375 
L 20.703125 59.59375 
L 20.703125 0 
L 31.703125 0 
L 31.703125 59.59375 
L 51.296875 59.59375 
L 51.296875 70 
L 1.09375 70 
z
" id="ApercuPro-Medium-54"/>
     <path d="M 9.40625 0 
L 20.40625 0 
L 20.40625 32.203125 
L 48.796875 32.203125 
L 48.796875 0 
L 59.796875 0 
L 59.796875 70 
L 48.796875 70 
L 48.796875 42.59375 
L 20.40625 42.59375 
L 20.40625 70 
L 9.40625 70 
z
" id="ApercuPro-Medium-48"/>
     <path d="M 7.5 25.203125 
C 7.5 8.40625 18.40625 -0.796875 32.703125 -0.796875 
C 47 -0.796875 57.90625 8.296875 57.90625 25.203125 
L 57.90625 70 
L 46.90625 70 
L 46.90625 24.703125 
C 46.90625 15.203125 42.09375 9.59375 32.703125 9.59375 
C 23.296875 9.59375 18.5 15.203125 18.5 24.703125 
L 18.5 70 
L 7.5 70 
z
" id="ApercuPro-Medium-55"/>
     <path d="M 45.40625 59 
C 41.703125 65.59375 35.703125 70.796875 26.09375 70.796875 
C 15.90625 70.796875 7.796875 63 7.796875 52.40625 
C 7.796875 30.796875 37.59375 33.796875 37.59375 20.09375 
C 37.59375 13.90625 33.203125 9.59375 26.90625 9.59375 
C 18.90625 9.59375 14.796875 16.59375 12.796875 24.40625 
L 3.796875 18.703125 
C 6.296875 7.5 14.59375 -0.796875 26.90625 -0.796875 
C 39.5 -0.796875 48.796875 7.703125 48.796875 20.5 
C 48.796875 42.09375 18.796875 39.40625 18.796875 53.203125 
C 18.796875 57.296875 21.59375 60.796875 26.09375 60.796875 
C 30.203125 60.796875 33.703125 58.40625 36.5 53.09375 
z
" id="ApercuPro-Medium-53"/>
     <path d="M 9.40625 70 
L 9.40625 0 
L 30 0 
C 46.796875 0 62.203125 11.40625 62.203125 35 
C 62.203125 58.59375 46.796875 70 30 70 
z
M 26.796875 59.59375 
C 39 59.59375 51 54.09375 51 35 
C 51 15.90625 39 10.40625 26.796875 10.40625 
L 20.40625 10.40625 
L 20.40625 59.59375 
z
" id="ApercuPro-Medium-44"/>
     <path d="M 2.703125 -9.203125 
L 47.203125 -9.203125 
L 47.203125 0 
L 2.703125 0 
z
" id="ApercuPro-Medium-5f"/>
     <path d="M 4.90625 25.203125 
C 4.90625 9.09375 12.5 -0.796875 27.40625 -0.796875 
C 34 -0.796875 39.40625 2.90625 41.09375 5.796875 
L 41.09375 0 
L 51.5 0 
L 51.5 70.796875 
L 41.09375 70.796875 
L 41.09375 44.796875 
C 38.796875 48.09375 32.59375 51.203125 27.59375 51.203125 
C 12.5 51.203125 4.90625 40.796875 4.90625 25.203125 
z
M 15.90625 25.203125 
C 15.90625 35.59375 21.296875 42 28.796875 42 
C 36.296875 42 41.703125 35.59375 41.703125 25.203125 
C 41.703125 14.796875 36.296875 8.40625 28.796875 8.40625 
C 21.296875 8.40625 15.90625 14.796875 15.90625 25.203125 
z
" id="ApercuPro-Medium-64"/>
     <path d="M 19 0 
L 19 18.703125 
C 19 34.59375 25.90625 42 32.59375 42 
C 34.703125 42 36.90625 41.5 38.5 40.5 
L 40.296875 50 
C 38.796875 50.59375 36.59375 51.203125 33.90625 51.203125 
C 28.5 51.203125 22.5 48 19 42 
L 19 50.40625 
L 8.59375 50.40625 
L 8.59375 0 
z
" id="ApercuPro-Medium-72"/>
     <path d="M 4.90625 25.203125 
C 4.90625 11 14.09375 -0.796875 29.703125 -0.796875 
C 45.296875 -0.796875 54.5 11 54.5 25.203125 
C 54.5 39.40625 45.296875 51.203125 29.703125 51.203125 
C 14.09375 51.203125 4.90625 39.40625 4.90625 25.203125 
z
M 15.90625 25.203125 
C 15.90625 33.703125 20.59375 42 29.703125 42 
C 38.796875 42 43.5 33.703125 43.5 25.203125 
C 43.5 16.703125 38.796875 8.40625 29.703125 8.40625 
C 20.59375 8.40625 15.90625 16.703125 15.90625 25.203125 
z
" id="ApercuPro-Medium-6f"/>
     <path d="M 55.203125 25.203125 
C 55.203125 41.296875 47.59375 51.203125 32.703125 51.203125 
C 26.09375 51.203125 20.703125 47.5 19 44.59375 
L 19 50.40625 
L 8.59375 50.40625 
L 8.59375 -20.40625 
L 19 -20.40625 
L 19 5.59375 
C 21.296875 2.296875 26.296875 -0.796875 32.5 -0.796875 
C 47.59375 -0.796875 55.203125 9.59375 55.203125 25.203125 
z
M 44.203125 25.203125 
C 44.203125 14.796875 38.796875 8.40625 31.296875 8.40625 
C 23.796875 8.40625 18.40625 14.796875 18.40625 25.203125 
C 18.40625 35.59375 23.796875 42 31.296875 42 
C 38.796875 42 44.203125 35.59375 44.203125 25.203125 
z
" id="ApercuPro-Medium-70"/>
    </defs>
    <g style="opacity:0.75;" transform="translate(1044 144)scale(0.3 -0.3)">
     <use xlink:href="#ApercuPro-Medium-45"/>
     <use x="56.846863" xlink:href="#ApercuPro-Medium-54"/>
     <use x="109.246857" xlink:href="#ApercuPro-Medium-48"/>
     <use x="178.415588" xlink:href="#ApercuPro-Medium-55"/>
     <use x="243.799957" xlink:href="#ApercuPro-Medium-53"/>
     <use x="296.799942" xlink:href="#ApercuPro-Medium-44"/>
     <use x="364.06868" xlink:href="#ApercuPro-Medium-54"/>
     <use x="416.468674" xlink:href="#ApercuPro-Medium-5f"/>
     <use x="466.368668" xlink:href="#ApercuPro-Medium-64"/>
     <use x="526.421783" xlink:href="#ApercuPro-Medium-72"/>
     <use x="568.12178" xlink:href="#ApercuPro-Medium-6f"/>
     <use x="627.521774" xlink:href="#ApercuPro-Medium-70"/>
    </g>
   </g>
   <g id="text_15">
    <!-- None -->
    <defs>
     <path d="M 51.59375 70 
L 60.40625 70 
L 60.40625 0 
L 50.09375 0 
L 18.5 54.5 
L 18.5 0 
L 9.703125 0 
L 9.703125 70 
L 20 70 
L 51.59375 15.296875 
z
" id="Apercu-4e"/>
     <path d="M 12 6.796875 
Q 5.40625 14.5 5.40625 25.203125 
Q 5.40625 35.90625 12.046875 43.546875 
Q 18.703125 51.203125 29.59375 51.203125 
Q 40.5 51.203125 47.140625 43.546875 
Q 53.796875 35.90625 53.796875 25.203125 
Q 53.796875 14.5 47.140625 6.84375 
Q 40.5 -0.796875 29.59375 -0.796875 
Q 18.703125 -0.796875 12 6.796875 
z
M 18.09375 38.09375 
Q 14 32.703125 14 25.203125 
Q 14 17.703125 18.140625 12.25 
Q 22.296875 6.796875 29.59375 6.796875 
Q 36.90625 6.796875 41.046875 12.25 
Q 45.203125 17.703125 45.203125 25.203125 
Q 45.203125 32.703125 41.046875 38.140625 
Q 36.90625 43.59375 29.59375 43.59375 
Q 22.296875 43.59375 18.09375 38.09375 
z
" id="Apercu-6f"/>
     <path d="M 49.09375 35.5 
L 49.09375 0 
L 40.703125 0 
L 40.703125 33.296875 
Q 40.703125 43.59375 32 43.59375 
Q 26.09375 43.59375 21.84375 37.390625 
Q 17.59375 31.203125 17.59375 21.09375 
L 17.59375 0 
L 9.203125 0 
L 9.203125 50.40625 
L 17.59375 50.40625 
L 17.59375 41.09375 
Q 23.296875 51.203125 34.296875 51.203125 
Q 41.203125 51.203125 45.140625 47.09375 
Q 49.09375 43 49.09375 35.5 
z
" id="Apercu-6e"/>
     <path d="M 51 27.296875 
L 51 23.40625 
L 14 23.40625 
Q 14.40625 16 18.046875 11.390625 
Q 21.703125 6.796875 28.203125 6.796875 
Q 33.5 6.796875 36.75 9.140625 
Q 40 11.5 42.203125 16.40625 
L 49.59375 13.203125 
Q 46.09375 5.796875 41.046875 2.5 
Q 36 -0.796875 28.203125 -0.796875 
Q 17.296875 -0.796875 11.34375 6.75 
Q 5.40625 14.296875 5.40625 25.1875 
Q 5.40625 36.09375 11.34375 43.640625 
Q 17.296875 51.203125 28.203125 51.203125 
Q 38.90625 51.203125 44.953125 44.25 
Q 51 37.296875 51 27.296875 
z
M 28.203125 43.59375 
Q 22.59375 43.59375 19.140625 40.1875 
Q 15.703125 36.796875 14.5 31 
L 42.203125 31 
Q 41 36.703125 37.5 40.140625 
Q 34 43.59375 28.203125 43.59375 
z
" id="Apercu-65"/>
    </defs>
    <g style="opacity:0.75;" transform="translate(1045 158.4)scale(0.14 -0.14)">
     <use xlink:href="#Apercu-4e"/>
     <use x="70.099991" xlink:href="#Apercu-6f"/>
     <use x="129.299988" xlink:href="#Apercu-6e"/>
     <use x="186.999985" xlink:href="#Apercu-65"/>
    </g>
   </g>
   <g id="legend_1">
    <g id="patch_8">
     <path d="M 5997.58375 266.736875 
L 6081.4 266.736875 
Q 6084.2 266.736875 6084.2 263.936875 
L 6084.2 225.8 
Q 6084.2 223 6081.4 223 
L 5997.58375 223 
Q 5994.78375 223 5994.78375 225.8 
L 5994.78375 263.936875 
Q 5994.78375 266.736875 5997.58375 266.736875 
z
" style="fill:#f0f0f0;opacity:0.8;stroke:#cccccc;stroke-linejoin:miter;stroke-width:0.5;"/>
    </g>
    <g id="line2d_24">
     <path d="M 6000.38375 233.611563 
L 6028.38375 233.611563 
" style="fill:none;stroke:#000004;stroke-width:3;"/>
    </g>
    <g id="line2d_25"/>
    <g id="text_16">
     <!-- pred -->
     <defs>
      <path d="M 32.296875 -0.796875 
Q 27.796875 -0.796875 23.390625 1.390625 
Q 19 3.59375 17.59375 6 
L 17.59375 -20.40625 
L 9.203125 -20.40625 
L 9.203125 50.40625 
L 17.59375 50.40625 
L 17.59375 44.203125 
Q 19.5 47.09375 23.640625 49.140625 
Q 27.796875 51.203125 32.296875 51.203125 
Q 43.09375 51.203125 48.890625 44.046875 
Q 54.703125 36.90625 54.703125 25.203125 
Q 54.703125 13.5 48.890625 6.34375 
Q 43.09375 -0.796875 32.296875 -0.796875 
z
M 31.5 43.59375 
Q 24.703125 43.59375 20.796875 38.5 
Q 16.90625 33.40625 16.90625 25.203125 
Q 16.90625 17 20.796875 11.890625 
Q 24.703125 6.796875 31.5 6.796875 
Q 38.09375 6.796875 42.09375 11.890625 
Q 46.09375 17 46.09375 25.203125 
Q 46.09375 33.40625 42.09375 38.5 
Q 38.09375 43.59375 31.5 43.59375 
z
" id="Apercu-70"/>
      <path d="M 39.296875 49.703125 
L 37.59375 42.203125 
Q 34.796875 43.59375 31.703125 43.59375 
Q 26 43.59375 21.796875 37.140625 
Q 17.59375 30.703125 17.59375 19.09375 
L 17.59375 0 
L 9.203125 0 
L 9.203125 50.40625 
L 17.59375 50.40625 
L 17.59375 41.796875 
Q 19.796875 46 24 48.59375 
Q 28.203125 51.203125 32.40625 51.203125 
Q 36.5 51.203125 39.296875 49.703125 
z
" id="Apercu-72"/>
      <path d="M 27.796875 51.203125 
Q 32.296875 51.203125 36.6875 49 
Q 41.09375 46.796875 42.5 44.40625 
L 42.5 70.796875 
L 50.90625 70.796875 
L 50.90625 0 
L 42.5 0 
L 42.5 6.203125 
Q 40.59375 3.296875 36.4375 1.25 
Q 32.296875 -0.796875 27.796875 -0.796875 
Q 17 -0.796875 11.203125 6.34375 
Q 5.40625 13.5 5.40625 25.203125 
Q 5.40625 36.90625 11.203125 44.046875 
Q 17 51.203125 27.796875 51.203125 
z
M 28.59375 6.796875 
Q 35.40625 6.796875 39.296875 11.890625 
Q 43.203125 17 43.203125 25.203125 
Q 43.203125 33.40625 39.296875 38.5 
Q 35.40625 43.59375 28.59375 43.59375 
Q 22 43.59375 18 38.5 
Q 14 33.40625 14 25.203125 
Q 14 17 18 11.890625 
Q 22 6.796875 28.59375 6.796875 
z
" id="Apercu-64"/>
     </defs>
     <g style="opacity:0.75;" transform="translate(6039.58375 238.511563)scale(0.14 -0.14)">
      <use xlink:href="#Apercu-70"/>
      <use x="60.099991" xlink:href="#Apercu-72"/>
      <use x="101.399979" xlink:href="#Apercu-65"/>
      <use x="157.399963" xlink:href="#Apercu-64"/>
     </g>
    </g>
    <g id="line2d_26">
     <path d="M 6000.38375 253.38 
L 6028.38375 253.38 
" style="fill:none;stroke:#b73779;stroke-width:3;"/>
    </g>
    <g id="line2d_27"/>
    <g id="text_17">
     <!-- actual -->
     <defs>
      <path d="M 14.203125 14.5 
Q 14.203125 10.90625 16.34375 8.84375 
Q 18.5 6.796875 22.5 6.796875 
Q 28.203125 6.796875 32.390625 10.546875 
Q 36.59375 14.296875 36.59375 22.203125 
L 36.59375 23.40625 
L 27.59375 23.40625 
Q 21.203125 23.40625 17.703125 21.09375 
Q 14.203125 18.796875 14.203125 14.5 
z
M 45 32.203125 
L 45 0 
L 38.40625 0 
L 37 7.09375 
Q 31.5 -0.796875 21.203125 -0.796875 
Q 14.40625 -0.796875 10 3 
Q 5.59375 6.796875 5.59375 14.5 
Q 5.59375 22.5 11.6875 26.75 
Q 17.796875 31 28.40625 31 
L 36.59375 31 
L 36.59375 33.203125 
Q 36.59375 43.59375 25.59375 43.59375 
Q 21.59375 43.59375 18.75 41.5 
Q 15.90625 39.40625 15.09375 35.703125 
L 7.703125 37.40625 
Q 8.703125 43.796875 13.59375 47.5 
Q 18.5 51.203125 25.59375 51.203125 
Q 34.40625 51.203125 39.703125 46.5 
Q 45 41.796875 45 32.203125 
z
" id="Apercu-61"/>
      <path d="M 42.09375 16.09375 
L 49.40625 13.09375 
Q 43.296875 -0.796875 28.296875 -0.796875 
Q 17.296875 -0.796875 11.34375 6.75 
Q 5.40625 14.296875 5.40625 25.1875 
Q 5.40625 36.09375 11.34375 43.640625 
Q 17.296875 51.203125 28.296875 51.203125 
Q 43.296875 51.203125 49.40625 37.296875 
L 42.09375 34.296875 
Q 38.09375 43.59375 28.296875 43.59375 
Q 21.296875 43.59375 17.640625 38.4375 
Q 14 33.296875 14 25.1875 
Q 14 17.09375 17.640625 11.9375 
Q 21.296875 6.796875 28.296875 6.796875 
Q 38.09375 6.796875 42.09375 16.09375 
z
" id="Apercu-63"/>
      <path d="M 2.5 42.796875 
L 2.5 50.40625 
L 11.203125 50.40625 
L 11.203125 65.5 
L 19.59375 70.796875 
L 19.59375 50.40625 
L 32.796875 50.40625 
L 32.796875 42.796875 
L 19.59375 42.796875 
L 19.59375 15.09375 
Q 19.59375 11.09375 21.34375 8.9375 
Q 23.09375 6.796875 26.296875 6.796875 
Q 29.59375 6.796875 32 8.40625 
L 34 1.09375 
Q 30.703125 -0.796875 25.796875 -0.796875 
Q 19.09375 -0.796875 15.140625 3.390625 
Q 11.203125 7.59375 11.203125 15.796875 
L 11.203125 42.796875 
z
" id="Apercu-74"/>
      <path d="M 8.59375 14.90625 
L 8.59375 50.40625 
L 17 50.40625 
L 17 17.09375 
Q 17 6.796875 25.703125 6.796875 
Q 31.59375 6.796875 35.84375 13 
Q 40.09375 19.203125 40.09375 29.296875 
L 40.09375 50.40625 
L 48.5 50.40625 
L 48.5 0 
L 40.09375 0 
L 40.09375 9.296875 
Q 34.40625 -0.796875 23.40625 -0.796875 
Q 16.5 -0.796875 12.546875 3.296875 
Q 8.59375 7.40625 8.59375 14.90625 
z
" id="Apercu-75"/>
      <path d="M 9 70.796875 
L 17.40625 70.796875 
L 17.40625 0 
L 9 0 
z
" id="Apercu-6c"/>
     </defs>
     <g style="opacity:0.75;" transform="translate(6039.58375 258.28)scale(0.14 -0.14)">
      <use xlink:href="#Apercu-61"/>
      <use x="51.799988" xlink:href="#Apercu-63"/>
      <use x="105.615601" xlink:href="#Apercu-74"/>
      <use x="143.399963" xlink:href="#Apercu-75"/>
      <use x="201.09996" xlink:href="#Apercu-61"/>
      <use x="252.899948" xlink:href="#Apercu-6c"/>
     </g>
    </g>
   </g>
  </g>
 </g>
 <defs>
  <clipPath id="ped939f07f7">
   <rect height="964.8" width="5313.6" x="777.6" y="216"/>
  </clipPath>
 </defs>
</svg>
