<?xml version="1.0" encoding="utf-8" standalone="no"?>
<!DOCTYPE svg PUBLIC "-//W3C//DTD SVG 1.1//EN"
  "http://www.w3.org/Graphics/SVG/1.1/DTD/svg11.dtd">
<!-- Created with matplotlib (http://matplotlib.org/) -->
<svg height="1440pt" version="1.1" viewBox="0 0 6480 1440" width="6480pt" xmlns="http://www.w3.org/2000/svg" xmlns:xlink="http://www.w3.org/1999/xlink">
 <defs>
  <style type="text/css">
*{stroke-linecap:butt;stroke-linejoin:round;}
  </style>
 </defs>
 <g id="figure_1">
  <g id="patch_1">
   <path d="M 0 1440 
L 6480 1440 
L 6480 0 
L 0 0 
z
" style="fill:#f0f0f0;"/>
  </g>
  <g id="axes_1">
   <g id="patch_2">
    <path d="M 777.6 1180.8 
L 6091.2 1180.8 
L 6091.2 216 
L 777.6 216 
z
" style="fill:#f0f0f0;"/>
   </g>
   <g id="matplotlib.axis_1">
    <g id="xtick_1">
     <g id="line2d_1">
      <path clip-path="url(#pf3d4b0d3bf)" d="M 777.6 1180.8 
L 777.6 216 
" style="fill:none;stroke:#b0b0b0;stroke-linecap:square;stroke-width:0.8;"/>
     </g>
     <g id="line2d_2">
      <defs>
       <path d="M 0 0 
L 0 3.5 
" id="m8e3681f3e7" style="stroke:#000000;stroke-width:0.8;"/>
      </defs>
      <g>
       <use style="stroke:#000000;stroke-width:0.8;" x="777.6" xlink:href="#m8e3681f3e7" y="1180.8"/>
      </g>
     </g>
     <g id="text_1">
      <!-- 0 -->
      <defs>
       <path d="M 48.203125 52.59375 
L 48.203125 17.40625 
Q 48.203125 9.703125 42.953125 4.34375 
Q 37.703125 -1 29.890625 -1 
Q 22.09375 -1 16.9375 4.390625 
Q 11.796875 9.796875 11.796875 17.5 
L 11.796875 52.59375 
Q 11.796875 60.296875 16.9375 65.640625 
Q 22.09375 71 29.890625 71 
Q 37.703125 71 42.953125 65.640625 
Q 48.203125 60.296875 48.203125 52.59375 
z
M 39.90625 17.296875 
L 39.90625 52.5 
Q 39.90625 56.90625 37 60 
Q 34.09375 63.09375 29.90625 63.09375 
Q 25.796875 63.09375 22.890625 60 
Q 20 56.90625 20 52.5 
L 20 17.40625 
Q 20 13 22.890625 9.953125 
Q 25.796875 6.90625 30 6.90625 
Q 34.09375 6.90625 37 9.90625 
Q 39.90625 12.90625 39.90625 17.296875 
z
" id="DecimaMonoPro-30"/>
      </defs>
      <g style="fill:#303030;" transform="translate(773.4 1197.613125)scale(0.14 -0.14)">
       <use xlink:href="#DecimaMonoPro-30"/>
      </g>
     </g>
    </g>
    <g id="xtick_2">
     <g id="line2d_3">
      <path clip-path="url(#pf3d4b0d3bf)" d="M 1844.587952 1180.8 
L 1844.587952 216 
" style="fill:none;stroke:#b0b0b0;stroke-linecap:square;stroke-width:0.8;"/>
     </g>
     <g id="line2d_4">
      <g>
       <use style="stroke:#000000;stroke-width:0.8;" x="1844.587952" xlink:href="#m8e3681f3e7" y="1180.8"/>
      </g>
     </g>
     <g id="text_2">
      <!-- 50 -->
      <defs>
       <path d="M 21.90625 35.59375 
Q 21.09375 34.40625 19.796875 34.40625 
Q 19.40625 34.40625 18.203125 34.796875 
L 14.796875 35.796875 
Q 13.203125 36.296875 13.40625 38.5 
L 15.90625 67.703125 
Q 16.09375 70 18.09375 70 
L 44.40625 70 
Q 46.59375 70 46.59375 67.703125 
L 46.59375 64.40625 
Q 46.59375 62.09375 44.40625 62.09375 
L 24.09375 62.09375 
L 22.40625 44.796875 
Q 25.203125 47.203125 30.703125 47.203125 
Q 38.40625 47.203125 43.703125 42 
Q 49 36.796875 49 28.90625 
L 49 17.5 
Q 49 9.796875 43.5 4.390625 
Q 38 -1 30.09375 -1 
Q 21.90625 -1 16.453125 4.34375 
Q 11 9.703125 11 17.40625 
Q 11 18.203125 11.59375 18.796875 
Q 12.203125 19.40625 13.296875 19.40625 
L 17.09375 19.40625 
Q 18.203125 19.40625 18.796875 18.796875 
Q 19.40625 18.203125 19.40625 17.40625 
Q 19.40625 13 22.5 9.953125 
Q 25.59375 6.90625 30.09375 6.90625 
Q 34.5 6.90625 37.546875 9.953125 
Q 40.59375 13 40.59375 17.40625 
L 40.59375 28.796875 
Q 40.59375 33.203125 37.5 36.25 
Q 34.40625 39.296875 29.796875 39.296875 
Q 27.703125 39.296875 25.796875 38.4375 
Q 23.90625 37.59375 23.09375 36.890625 
Q 22.296875 36.203125 21.90625 35.59375 
z
" id="DecimaMonoPro-35"/>
      </defs>
      <g style="fill:#303030;" transform="translate(1836.187952 1197.613125)scale(0.14 -0.14)">
       <use xlink:href="#DecimaMonoPro-35"/>
       <use x="59.999985" xlink:href="#DecimaMonoPro-30"/>
      </g>
     </g>
    </g>
    <g id="xtick_3">
     <g id="line2d_5">
      <path clip-path="url(#pf3d4b0d3bf)" d="M 2911.575904 1180.8 
L 2911.575904 216 
" style="fill:none;stroke:#b0b0b0;stroke-linecap:square;stroke-width:0.8;"/>
     </g>
     <g id="line2d_6">
      <g>
       <use style="stroke:#000000;stroke-width:0.8;" x="2911.575904" xlink:href="#m8e3681f3e7" y="1180.8"/>
      </g>
     </g>
     <g id="text_3">
      <!-- 100 -->
      <defs>
       <path d="M 13.90625 68.203125 
L 25.203125 70 
L 32.296875 70 
Q 33 70 33.546875 69.5 
Q 34.09375 69 34.09375 68.203125 
L 34.09375 7.703125 
L 47.296875 7.703125 
Q 48 7.703125 48.546875 7.140625 
Q 49.09375 6.59375 49.09375 5.90625 
L 49.09375 1.796875 
Q 49.09375 1 48.546875 0.5 
Q 48 0 47.296875 0 
L 12.59375 0 
Q 11.796875 0 11.296875 0.5 
Q 10.796875 1 10.796875 1.796875 
L 10.796875 5.90625 
Q 10.796875 6.59375 11.296875 7.140625 
Q 11.796875 7.703125 12.59375 7.703125 
L 25.703125 7.703125 
L 25.703125 62.09375 
L 14.703125 60.40625 
L 14.40625 60.40625 
Q 14 60.296875 13.5 60.296875 
Q 12.09375 60.296875 12.09375 62.09375 
L 12.09375 66.296875 
Q 12.09375 67.796875 13.90625 68.203125 
z
" id="DecimaMonoPro-31"/>
      </defs>
      <g style="fill:#303030;" transform="translate(2898.975904 1197.613125)scale(0.14 -0.14)">
       <use xlink:href="#DecimaMonoPro-31"/>
       <use x="59.999985" xlink:href="#DecimaMonoPro-30"/>
       <use x="119.999969" xlink:href="#DecimaMonoPro-30"/>
      </g>
     </g>
    </g>
    <g id="xtick_4">
     <g id="line2d_7">
      <path clip-path="url(#pf3d4b0d3bf)" d="M 3978.563855 1180.8 
L 3978.563855 216 
" style="fill:none;stroke:#b0b0b0;stroke-linecap:square;stroke-width:0.8;"/>
     </g>
     <g id="line2d_8">
      <g>
       <use style="stroke:#000000;stroke-width:0.8;" x="3978.563855" xlink:href="#m8e3681f3e7" y="1180.8"/>
      </g>
     </g>
     <g id="text_4">
      <!-- 150 -->
      <g style="fill:#303030;" transform="translate(3965.963855 1197.613125)scale(0.14 -0.14)">
       <use xlink:href="#DecimaMonoPro-31"/>
       <use x="59.999985" xlink:href="#DecimaMonoPro-35"/>
       <use x="119.999969" xlink:href="#DecimaMonoPro-30"/>
      </g>
     </g>
    </g>
    <g id="xtick_5">
     <g id="line2d_9">
      <path clip-path="url(#pf3d4b0d3bf)" d="M 5045.551807 1180.8 
L 5045.551807 216 
" style="fill:none;stroke:#b0b0b0;stroke-linecap:square;stroke-width:0.8;"/>
     </g>
     <g id="line2d_10">
      <g>
       <use style="stroke:#000000;stroke-width:0.8;" x="5045.551807" xlink:href="#m8e3681f3e7" y="1180.8"/>
      </g>
     </g>
     <g id="text_5">
      <!-- 200 -->
      <defs>
       <path d="M 11.703125 53 
Q 11.703125 59.703125 17.203125 65.34375 
Q 22.703125 71 30.59375 71 
Q 38.40625 71 43.796875 65.75 
Q 49.203125 60.5 49.203125 52.703125 
Q 49.203125 46.90625 46.09375 41.75 
Q 43 36.59375 38.59375 32.84375 
Q 34.203125 29.09375 29.796875 25.4375 
Q 25.40625 21.796875 22.296875 17.296875 
Q 19.203125 12.796875 19.203125 7.796875 
L 47.40625 7.796875 
Q 48.203125 7.796875 48.703125 7.296875 
Q 49.203125 6.796875 49.203125 6 
L 49.203125 1.796875 
Q 49.203125 1 48.703125 0.5 
Q 48.203125 0 47.40625 0 
L 12.59375 0 
Q 11.796875 0 11.296875 0.5 
Q 10.796875 1 10.796875 1.796875 
L 10.796875 7.296875 
Q 10.796875 13.90625 13.890625 19.453125 
Q 17 25 21.390625 28.890625 
Q 25.796875 32.796875 30.1875 36.390625 
Q 34.59375 40 37.6875 44.296875 
Q 40.796875 48.59375 40.796875 53.296875 
Q 40.796875 57.40625 37.75 60.25 
Q 34.703125 63.09375 30.5 63.09375 
Q 26.09375 63.09375 23.1875 59.6875 
Q 20.296875 56.296875 20.09375 53 
Q 19.90625 51 17.796875 51 
L 14 51 
Q 12.90625 51 12.296875 51.59375 
Q 11.703125 52.203125 11.703125 53 
z
" id="DecimaMonoPro-32"/>
      </defs>
      <g style="fill:#303030;" transform="translate(5032.951807 1197.613125)scale(0.14 -0.14)">
       <use xlink:href="#DecimaMonoPro-32"/>
       <use x="59.999985" xlink:href="#DecimaMonoPro-30"/>
       <use x="119.999969" xlink:href="#DecimaMonoPro-30"/>
      </g>
     </g>
    </g>
    <g id="text_6">
     <!-- x -->
     <defs>
      <path d="M 3.59375 50.40625 
L 13.09375 50.40625 
L 22.90625 34.40625 
L 32.703125 50.40625 
L 42.203125 50.40625 
L 27.59375 26.59375 
L 44 0 
L 34.5 0 
L 22.90625 18.90625 
L 11.296875 0 
L 1.796875 0 
L 18.203125 26.59375 
z
" id="Apercu-78"/>
     </defs>
     <g style="opacity:0.75;" transform="translate(3431.194219 1214.044688)scale(0.14 -0.14)">
      <use xlink:href="#Apercu-78"/>
     </g>
    </g>
   </g>
   <g id="matplotlib.axis_2">
    <g id="ytick_1">
     <g id="line2d_11">
      <path clip-path="url(#pf3d4b0d3bf)" d="M 777.6 1105.177075 
L 6091.2 1105.177075 
" style="fill:none;stroke:#b0b0b0;stroke-linecap:square;stroke-width:0.8;"/>
     </g>
     <g id="line2d_12">
      <defs>
       <path d="M 0 0 
L -3.5 0 
" id="m96ec7599f0" style="stroke:#000000;stroke-width:0.8;"/>
      </defs>
      <g>
       <use style="stroke:#000000;stroke-width:0.8;" x="777.6" xlink:href="#m96ec7599f0" y="1105.177075"/>
      </g>
     </g>
     <g id="text_7">
      <!-- −3 -->
      <defs>
       <path d="M 50.203125 25.296875 
L 9.796875 25.296875 
Q 9 25.296875 8.5 25.84375 
Q 8 26.40625 8 27.09375 
L 8 31.296875 
Q 8 32 8.5 32.546875 
Q 9 33.09375 9.796875 33.09375 
L 50.203125 33.09375 
Q 51 33.09375 51.5 32.546875 
Q 52 32 52 31.296875 
L 52 27.09375 
Q 52 26.40625 51.5 25.84375 
Q 51 25.296875 50.203125 25.296875 
z
" id="DecimaMonoPro-2212"/>
       <path d="M 46.203125 61.09375 
L 35.40625 47.09375 
Q 40.796875 46.40625 44.890625 41.953125 
Q 49 37.5 49 31.5 
L 49 17.5 
Q 49 9.796875 43.5 4.390625 
Q 38 -1 30 -1 
Q 21.796875 -1 16.34375 4.34375 
Q 10.90625 9.703125 10.90625 17.40625 
Q 10.90625 18.203125 11.5 18.796875 
Q 12.09375 19.40625 13.203125 19.40625 
L 17 19.40625 
Q 19.09375 19.40625 19.296875 17.40625 
Q 19.296875 13 22.390625 9.953125 
Q 25.5 6.90625 30 6.90625 
Q 34.40625 6.90625 37.5 9.953125 
Q 40.59375 13 40.59375 17.40625 
L 40.59375 31.40625 
Q 40.59375 34.59375 38.296875 36.9375 
Q 36 39.296875 32.703125 39.296875 
L 27.40625 39.296875 
Q 25.203125 39.296875 25.203125 41.59375 
L 25.203125 45 
Q 25.203125 46.703125 26.296875 48.203125 
L 36.59375 62.09375 
L 16.90625 62.09375 
Q 14.703125 62.09375 14.703125 64.40625 
L 14.703125 67.703125 
Q 14.703125 70 16.90625 70 
L 45.09375 70 
Q 47.296875 70 47.296875 67.703125 
L 47.296875 64.296875 
Q 47.296875 62.59375 46.203125 61.09375 
z
" id="DecimaMonoPro-33"/>
      </defs>
      <g style="fill:#303030;" transform="translate(753.8 1110.083638)scale(0.14 -0.14)">
       <use xlink:href="#DecimaMonoPro-2212"/>
       <use x="59.999985" xlink:href="#DecimaMonoPro-33"/>
      </g>
     </g>
    </g>
    <g id="ytick_2">
     <g id="line2d_13">
      <path clip-path="url(#pf3d4b0d3bf)" d="M 777.6 946.335179 
L 6091.2 946.335179 
" style="fill:none;stroke:#b0b0b0;stroke-linecap:square;stroke-width:0.8;"/>
     </g>
     <g id="line2d_14">
      <g>
       <use style="stroke:#000000;stroke-width:0.8;" x="777.6" xlink:href="#m96ec7599f0" y="946.335179"/>
      </g>
     </g>
     <g id="text_8">
      <!-- −2 -->
      <g style="fill:#303030;" transform="translate(753.8 951.241742)scale(0.14 -0.14)">
       <use xlink:href="#DecimaMonoPro-2212"/>
       <use x="59.999985" xlink:href="#DecimaMonoPro-32"/>
      </g>
     </g>
    </g>
    <g id="ytick_3">
     <g id="line2d_15">
      <path clip-path="url(#pf3d4b0d3bf)" d="M 777.6 787.493283 
L 6091.2 787.493283 
" style="fill:none;stroke:#b0b0b0;stroke-linecap:square;stroke-width:0.8;"/>
     </g>
     <g id="line2d_16">
      <g>
       <use style="stroke:#000000;stroke-width:0.8;" x="777.6" xlink:href="#m96ec7599f0" y="787.493283"/>
      </g>
     </g>
     <g id="text_9">
      <!-- −1 -->
      <g style="fill:#303030;" transform="translate(753.8 792.399845)scale(0.14 -0.14)">
       <use xlink:href="#DecimaMonoPro-2212"/>
       <use x="59.999985" xlink:href="#DecimaMonoPro-31"/>
      </g>
     </g>
    </g>
    <g id="ytick_4">
     <g id="line2d_17">
      <path clip-path="url(#pf3d4b0d3bf)" d="M 777.6 628.651387 
L 6091.2 628.651387 
" style="fill:none;stroke:#b0b0b0;stroke-linecap:square;stroke-width:0.8;"/>
     </g>
     <g id="line2d_18">
      <g>
       <use style="stroke:#000000;stroke-width:0.8;" x="777.6" xlink:href="#m96ec7599f0" y="628.651387"/>
      </g>
     </g>
     <g id="text_10">
      <!-- 0 -->
      <g style="fill:#303030;" transform="translate(762.2 633.557949)scale(0.14 -0.14)">
       <use xlink:href="#DecimaMonoPro-30"/>
      </g>
     </g>
    </g>
    <g id="ytick_5">
     <g id="line2d_19">
      <path clip-path="url(#pf3d4b0d3bf)" d="M 777.6 469.809491 
L 6091.2 469.809491 
" style="fill:none;stroke:#b0b0b0;stroke-linecap:square;stroke-width:0.8;"/>
     </g>
     <g id="line2d_20">
      <g>
       <use style="stroke:#000000;stroke-width:0.8;" x="777.6" xlink:href="#m96ec7599f0" y="469.809491"/>
      </g>
     </g>
     <g id="text_11">
      <!-- 1 -->
      <g style="fill:#303030;" transform="translate(762.2 474.716053)scale(0.14 -0.14)">
       <use xlink:href="#DecimaMonoPro-31"/>
      </g>
     </g>
    </g>
    <g id="ytick_6">
     <g id="line2d_21">
      <path clip-path="url(#pf3d4b0d3bf)" d="M 777.6 310.967594 
L 6091.2 310.967594 
" style="fill:none;stroke:#b0b0b0;stroke-linecap:square;stroke-width:0.8;"/>
     </g>
     <g id="line2d_22">
      <g>
       <use style="stroke:#000000;stroke-width:0.8;" x="777.6" xlink:href="#m96ec7599f0" y="310.967594"/>
      </g>
     </g>
     <g id="text_12">
      <!-- 2 -->
      <g style="fill:#303030;" transform="translate(762.2 315.874157)scale(0.14 -0.14)">
       <use xlink:href="#DecimaMonoPro-32"/>
      </g>
     </g>
    </g>
    <g id="text_13">
     <!-- Predictions v. Input. -->
     <defs>
      <path d="M 34.09375 30 
L 18.5 30 
L 18.5 0 
L 9.703125 0 
L 9.703125 70 
L 34.09375 70 
Q 43.90625 70 49.40625 64.59375 
Q 54.90625 59.203125 54.90625 50 
Q 54.90625 40.796875 49.40625 35.390625 
Q 43.90625 30 34.09375 30 
z
M 34.59375 38.40625 
Q 40 38.40625 42.890625 41.40625 
Q 45.796875 44.40625 45.796875 50 
Q 45.796875 55.59375 42.890625 58.59375 
Q 40 61.59375 34.59375 61.59375 
L 18.5 61.59375 
L 18.5 38.40625 
z
" id="Apercu-50"/>
      <path d="M 39.296875 49.703125 
L 37.59375 42.203125 
Q 34.796875 43.59375 31.703125 43.59375 
Q 26 43.59375 21.796875 37.140625 
Q 17.59375 30.703125 17.59375 19.09375 
L 17.59375 0 
L 9.203125 0 
L 9.203125 50.40625 
L 17.59375 50.40625 
L 17.59375 41.796875 
Q 19.796875 46 24 48.59375 
Q 28.203125 51.203125 32.40625 51.203125 
Q 36.5 51.203125 39.296875 49.703125 
z
" id="Apercu-72"/>
      <path d="M 51 27.296875 
L 51 23.40625 
L 14 23.40625 
Q 14.40625 16 18.046875 11.390625 
Q 21.703125 6.796875 28.203125 6.796875 
Q 33.5 6.796875 36.75 9.140625 
Q 40 11.5 42.203125 16.40625 
L 49.59375 13.203125 
Q 46.09375 5.796875 41.046875 2.5 
Q 36 -0.796875 28.203125 -0.796875 
Q 17.296875 -0.796875 11.34375 6.75 
Q 5.40625 14.296875 5.40625 25.1875 
Q 5.40625 36.09375 11.34375 43.640625 
Q 17.296875 51.203125 28.203125 51.203125 
Q 38.90625 51.203125 44.953125 44.25 
Q 51 37.296875 51 27.296875 
z
M 28.203125 43.59375 
Q 22.59375 43.59375 19.140625 40.1875 
Q 15.703125 36.796875 14.5 31 
L 42.203125 31 
Q 41 36.703125 37.5 40.140625 
Q 34 43.59375 28.203125 43.59375 
z
" id="Apercu-65"/>
      <path d="M 27.796875 51.203125 
Q 32.296875 51.203125 36.6875 49 
Q 41.09375 46.796875 42.5 44.40625 
L 42.5 70.796875 
L 50.90625 70.796875 
L 50.90625 0 
L 42.5 0 
L 42.5 6.203125 
Q 40.59375 3.296875 36.4375 1.25 
Q 32.296875 -0.796875 27.796875 -0.796875 
Q 17 -0.796875 11.203125 6.34375 
Q 5.40625 13.5 5.40625 25.203125 
Q 5.40625 36.90625 11.203125 44.046875 
Q 17 51.203125 27.796875 51.203125 
z
M 28.59375 6.796875 
Q 35.40625 6.796875 39.296875 11.890625 
Q 43.203125 17 43.203125 25.203125 
Q 43.203125 33.40625 39.296875 38.5 
Q 35.40625 43.59375 28.59375 43.59375 
Q 22 43.59375 18 38.5 
Q 14 33.40625 14 25.203125 
Q 14 17 18 11.890625 
Q 22 6.796875 28.59375 6.796875 
z
" id="Apercu-64"/>
      <path d="M 9.296875 50.40625 
L 17.703125 50.40625 
L 17.703125 0 
L 9.296875 0 
z
M 7.203125 64.40625 
Q 7.203125 67.09375 9 68.9375 
Q 10.796875 70.796875 13.5 70.796875 
Q 16.203125 70.796875 18 68.9375 
Q 19.796875 67.09375 19.796875 64.40625 
Q 19.796875 61.796875 18 60 
Q 16.203125 58.203125 13.5 58.203125 
Q 10.796875 58.203125 9 60 
Q 7.203125 61.796875 7.203125 64.40625 
z
" id="Apercu-69"/>
      <path d="M 42.09375 16.09375 
L 49.40625 13.09375 
Q 43.296875 -0.796875 28.296875 -0.796875 
Q 17.296875 -0.796875 11.34375 6.75 
Q 5.40625 14.296875 5.40625 25.1875 
Q 5.40625 36.09375 11.34375 43.640625 
Q 17.296875 51.203125 28.296875 51.203125 
Q 43.296875 51.203125 49.40625 37.296875 
L 42.09375 34.296875 
Q 38.09375 43.59375 28.296875 43.59375 
Q 21.296875 43.59375 17.640625 38.4375 
Q 14 33.296875 14 25.1875 
Q 14 17.09375 17.640625 11.9375 
Q 21.296875 6.796875 28.296875 6.796875 
Q 38.09375 6.796875 42.09375 16.09375 
z
" id="Apercu-63"/>
      <path d="M 2.5 42.796875 
L 2.5 50.40625 
L 11.203125 50.40625 
L 11.203125 65.5 
L 19.59375 70.796875 
L 19.59375 50.40625 
L 32.796875 50.40625 
L 32.796875 42.796875 
L 19.59375 42.796875 
L 19.59375 15.09375 
Q 19.59375 11.09375 21.34375 8.9375 
Q 23.09375 6.796875 26.296875 6.796875 
Q 29.59375 6.796875 32 8.40625 
L 34 1.09375 
Q 30.703125 -0.796875 25.796875 -0.796875 
Q 19.09375 -0.796875 15.140625 3.390625 
Q 11.203125 7.59375 11.203125 15.796875 
L 11.203125 42.796875 
z
" id="Apercu-74"/>
      <path d="M 12 6.796875 
Q 5.40625 14.5 5.40625 25.203125 
Q 5.40625 35.90625 12.046875 43.546875 
Q 18.703125 51.203125 29.59375 51.203125 
Q 40.5 51.203125 47.140625 43.546875 
Q 53.796875 35.90625 53.796875 25.203125 
Q 53.796875 14.5 47.140625 6.84375 
Q 40.5 -0.796875 29.59375 -0.796875 
Q 18.703125 -0.796875 12 6.796875 
z
M 18.09375 38.09375 
Q 14 32.703125 14 25.203125 
Q 14 17.703125 18.140625 12.25 
Q 22.296875 6.796875 29.59375 6.796875 
Q 36.90625 6.796875 41.046875 12.25 
Q 45.203125 17.703125 45.203125 25.203125 
Q 45.203125 32.703125 41.046875 38.140625 
Q 36.90625 43.59375 29.59375 43.59375 
Q 22.296875 43.59375 18.09375 38.09375 
z
" id="Apercu-6f"/>
      <path d="M 49.09375 35.5 
L 49.09375 0 
L 40.703125 0 
L 40.703125 33.296875 
Q 40.703125 43.59375 32 43.59375 
Q 26.09375 43.59375 21.84375 37.390625 
Q 17.59375 31.203125 17.59375 21.09375 
L 17.59375 0 
L 9.203125 0 
L 9.203125 50.40625 
L 17.59375 50.40625 
L 17.59375 41.09375 
Q 23.296875 51.203125 34.296875 51.203125 
Q 41.203125 51.203125 45.140625 47.09375 
Q 49.09375 43 49.09375 35.5 
z
" id="Apercu-6e"/>
      <path d="M 23.59375 51.203125 
Q 32.796875 51.203125 38.203125 43.5 
L 32.5 38.59375 
Q 27.90625 43.59375 23.296875 43.59375 
Q 20.703125 43.59375 18.953125 41.890625 
Q 17.203125 40.203125 17.203125 37.203125 
Q 17.203125 34.703125 19.59375 32.890625 
Q 22 31.09375 25.453125 29.75 
Q 28.90625 28.40625 32.34375 26.796875 
Q 35.796875 25.203125 38.1875 22.25 
Q 40.59375 19.296875 40.59375 15.203125 
Q 40.59375 7.703125 36.09375 3.453125 
Q 31.59375 -0.796875 23.90625 -0.796875 
Q 16.796875 -0.796875 12.046875 3.09375 
Q 7.296875 7 5.09375 12.796875 
L 12.203125 16.703125 
Q 16.203125 6.796875 23.90625 6.796875 
Q 32 6.796875 32 14.703125 
Q 32 17.203125 29.59375 19 
Q 27.203125 20.796875 23.796875 22.046875 
Q 20.40625 23.296875 17 24.890625 
Q 13.59375 26.5 11.1875 29.640625 
Q 8.796875 32.796875 8.796875 37.296875 
Q 8.796875 43.296875 12.84375 47.25 
Q 16.90625 51.203125 23.59375 51.203125 
z
" id="Apercu-73"/>
      <path id="Apercu-20"/>
      <path d="M 35.09375 50.40625 
L 43.703125 50.40625 
L 27.09375 0 
L 18.5 0 
L 1.90625 50.40625 
L 10.5 50.40625 
L 22.796875 10.703125 
z
" id="Apercu-76"/>
      <path d="M 9 5.90625 
Q 9 8.5 10.796875 10.34375 
Q 12.59375 12.203125 15.296875 12.203125 
Q 17.90625 12.203125 19.75 10.34375 
Q 21.59375 8.5 21.59375 5.90625 
Q 21.59375 3.203125 19.75 1.390625 
Q 17.90625 -0.40625 15.296875 -0.40625 
Q 12.59375 -0.40625 10.796875 1.390625 
Q 9 3.203125 9 5.90625 
z
" id="Apercu-2e"/>
      <path d="M 9.703125 70 
L 18.5 70 
L 18.5 0 
L 9.703125 0 
z
" id="Apercu-49"/>
      <path d="M 32.296875 -0.796875 
Q 27.796875 -0.796875 23.390625 1.390625 
Q 19 3.59375 17.59375 6 
L 17.59375 -20.40625 
L 9.203125 -20.40625 
L 9.203125 50.40625 
L 17.59375 50.40625 
L 17.59375 44.203125 
Q 19.5 47.09375 23.640625 49.140625 
Q 27.796875 51.203125 32.296875 51.203125 
Q 43.09375 51.203125 48.890625 44.046875 
Q 54.703125 36.90625 54.703125 25.203125 
Q 54.703125 13.5 48.890625 6.34375 
Q 43.09375 -0.796875 32.296875 -0.796875 
z
M 31.5 43.59375 
Q 24.703125 43.59375 20.796875 38.5 
Q 16.90625 33.40625 16.90625 25.203125 
Q 16.90625 17 20.796875 11.890625 
Q 24.703125 6.796875 31.5 6.796875 
Q 38.09375 6.796875 42.09375 11.890625 
Q 46.09375 17 46.09375 25.203125 
Q 46.09375 33.40625 42.09375 38.5 
Q 38.09375 43.59375 31.5 43.59375 
z
" id="Apercu-70"/>
      <path d="M 8.59375 14.90625 
L 8.59375 50.40625 
L 17 50.40625 
L 17 17.09375 
Q 17 6.796875 25.703125 6.796875 
Q 31.59375 6.796875 35.84375 13 
Q 40.09375 19.203125 40.09375 29.296875 
L 40.09375 50.40625 
L 48.5 50.40625 
L 48.5 0 
L 40.09375 0 
L 40.09375 9.296875 
Q 34.40625 -0.796875 23.40625 -0.796875 
Q 16.5 -0.796875 12.546875 3.296875 
Q 8.59375 7.40625 8.59375 14.90625 
z
" id="Apercu-75"/>
     </defs>
     <g style="opacity:0.75;" transform="translate(746.943125 763.235312)rotate(-90)scale(0.14 -0.14)">
      <use xlink:href="#Apercu-50"/>
      <use x="58.399994" xlink:href="#Apercu-72"/>
      <use x="99.699982" xlink:href="#Apercu-65"/>
      <use x="155.699966" xlink:href="#Apercu-64"/>
      <use x="215.768707" xlink:href="#Apercu-69"/>
      <use x="242.753067" xlink:href="#Apercu-63"/>
      <use x="296.56868" xlink:href="#Apercu-74"/>
      <use x="334.368668" xlink:href="#Apercu-69"/>
      <use x="361.368652" xlink:href="#Apercu-6f"/>
      <use x="420.568649" xlink:href="#Apercu-6e"/>
      <use x="478.253021" xlink:href="#Apercu-73"/>
      <use x="524.353012" xlink:href="#Apercu-20"/>
      <use x="551.153" xlink:href="#Apercu-76"/>
      <use x="596.752991" xlink:href="#Apercu-2e"/>
      <use x="627.352982" xlink:href="#Apercu-20"/>
      <use x="654.152969" xlink:href="#Apercu-49"/>
      <use x="682.352966" xlink:href="#Apercu-6e"/>
      <use x="740.052963" xlink:href="#Apercu-70"/>
      <use x="800.152954" xlink:href="#Apercu-75"/>
      <use x="857.852951" xlink:href="#Apercu-74"/>
      <use x="895.652939" xlink:href="#Apercu-2e"/>
     </g>
    </g>
   </g>
   <g id="line2d_23">
    <path clip-path="url(#pf3d4b0d3bf)" d="M 777.6 762.939087 
L 798.939759 861.943283 
L 820.279518 409.960032 
L 841.619277 429.992751 
L 862.959036 456.235325 
L 884.298795 749.498794 
L 905.638554 768.810944 
L 926.978313 756.410605 
L 948.318072 717.906498 
L 969.657831 734.133195 
L 990.99759 701.70933 
L 1012.337349 732.122877 
L 1033.677108 764.196853 
L 1055.016867 703.896897 
L 1076.356627 447.065635 
L 1097.696386 287.842171 
L 1119.036145 577.660992 
L 1140.375904 381.347443 
L 1161.715663 396.790914 
L 1183.055422 598.96349 
L 1204.395181 574.93439 
L 1225.73494 495.334033 
L 1247.074699 593.370158 
L 1268.414458 610.854059 
L 1289.754217 630.072701 
L 1311.093976 619.749742 
L 1332.433735 636.079498 
L 1353.773494 664.704577 
L 1375.113253 924.949013 
L 1396.453012 944.784727 
L 1417.792771 911.370776 
L 1439.13253 979.12945 
L 1460.472289 876.046618 
L 1481.812048 962.303086 
L 1503.151807 979.340428 
L 1524.491566 1004.939879 
L 1545.831325 839.195886 
L 1567.171084 708.875027 
L 1588.510843 733.892062 
L 1609.850602 662.455562 
L 1631.190361 663.593823 
L 1652.53012 661.293121 
L 1673.86988 661.502106 
L 1695.209639 789.115652 
L 1716.549398 860.892916 
L 1737.889157 776.486733 
L 1759.228916 674.719374 
L 1780.568675 721.962807 
L 1801.908434 706.166517 
L 1823.248193 651.408987 
L 1844.587952 662.206589 
L 1865.927711 669.994104 
L 1887.26747 653.274787 
L 1908.607229 650.247457 
L 1929.946988 648.350173 
L 1951.286747 650.065651 
L 1972.626506 652.130848 
L 1993.966265 655.287673 
L 2015.306024 656.140023 
L 2036.645783 834.827937 
L 2057.985542 821.153717 
L 2079.325301 827.207677 
L 2100.66506 407.583276 
L 2122.004819 432.160971 
L 2143.344578 511.775544 
L 2164.684337 445.931933 
L 2186.024096 456.034553 
L 2207.363855 491.19169 
L 2228.703614 504.634898 
L 2250.043373 488.559571 
L 2271.383133 582.020255 
L 2292.722892 748.360614 
L 2314.062651 869.431715 
L 2335.40241 948.658405 
L 2356.742169 992.579513 
L 2378.081928 934.620302 
L 2399.421687 937.485195 
L 2420.761446 707.685811 
L 2442.101205 417.899733 
L 2463.440964 430.700084 
L 2484.780723 447.407779 
L 2506.120482 515.800241 
L 2527.460241 600.643983 
L 2548.8 755.462271 
L 2570.139759 701.652396 
L 2591.479518 857.304936 
L 2612.819277 784.06508 
L 2634.159036 385.53844 
L 2655.498795 431.009981 
L 2676.838554 544.731239 
L 2698.178313 473.151755 
L 2719.518072 499.141768 
L 2740.857831 559.51686 
L 2762.19759 602.311709 
L 2783.537349 601.960396 
L 2804.877108 594.04363 
L 2826.216867 720.107505 
L 2847.556627 589.960384 
L 2868.896386 610.458847 
L 2890.236145 605.793656 
L 2911.575904 647.143315 
L 2932.915663 403.208832 
L 2954.255422 406.903021 
L 2975.595181 429.521107 
L 2996.93494 455.412372 
L 3018.274699 595.619825 
L 3039.614458 604.917173 
L 3060.954217 826.417331 
L 3082.293976 692.566121 
L 3103.633735 851.545858 
L 3124.973494 792.255771 
L 3146.313253 1028.417578 
L 3167.653012 856.075648 
L 3188.992771 606.526462 
L 3210.33253 604.451437 
L 3231.672289 597.051975 
L 3253.012048 876.978147 
L 3274.351807 821.875498 
L 3295.691566 445.02235 
L 3317.031325 506.769139 
L 3338.371084 481.806827 
L 3359.710843 585.050411 
L 3381.050602 591.652033 
L 3402.390361 824.765991 
L 3423.73012 477.965122 
L 3445.06988 453.762661 
L 3466.409639 582.654842 
L 3487.749398 638.831531 
L 3509.089157 589.376747 
L 3530.428916 565.487868 
L 3551.768675 600.377316 
L 3573.108434 610.855323 
L 3594.448193 609.180628 
L 3615.787952 709.454545 
L 3637.127711 584.761897 
L 3658.46747 609.149578 
L 3679.807229 598.711067 
L 3701.146988 846.345583 
L 3722.486747 566.555651 
L 3743.826506 566.891088 
L 3765.166265 617.034871 
L 3786.506024 774.529217 
L 3807.845783 834.754165 
L 3829.185542 823.063279 
L 3850.525301 769.766956 
L 3871.86506 761.691725 
L 3893.204819 442.030269 
L 3914.544578 497.797514 
L 3935.884337 480.749094 
L 3957.224096 661.890112 
L 3978.563855 638.534384 
L 3999.903614 628.903041 
L 4021.243373 617.361901 
L 4042.583133 649.633166 
L 4063.922892 636.283022 
L 4085.262651 658.749025 
L 4106.60241 771.523804 
L 4127.942169 523.40665 
L 4149.281928 428.035263 
L 4170.621687 379.79114 
L 4191.961446 590.920619 
L 4213.301205 577.450591 
L 4234.640964 804.14171 
L 4255.980723 537.198213 
L 4277.320482 862.253711 
L 4298.660241 517.416815 
L 4320 620.84908 
L 4341.339759 622.588387 
L 4362.679518 643.657893 
L 4384.019277 622.240858 
L 4405.359036 618.626327 
L 4426.698795 611.932263 
L 4448.038554 534.796813 
L 4469.378313 608.876702 
L 4490.718072 429.109072 
L 4512.057831 539.924243 
L 4533.39759 463.914816 
L 4554.737349 819.79919 
L 4576.077108 806.358443 
L 4597.416867 823.726909 
L 4618.756627 823.825657 
L 4640.096386 775.593549 
L 4661.436145 694.1345 
L 4682.775904 662.37053 
L 4704.115663 683.340794 
L 4725.455422 575.622891 
L 4746.795181 408.500186 
L 4768.13494 259.854545 
L 4789.474699 277.156453 
L 4810.814458 282.919906 
L 4832.154217 268.622369 
L 4853.493976 290.342821 
L 4874.833735 304.441688 
L 4896.173494 373.685486 
L 4917.513253 284.510785 
L 4938.853012 314.099117 
L 4960.192771 428.228329 
L 4981.53253 628.357581 
L 5002.872289 565.459437 
L 5024.212048 306.231995 
L 5045.551807 295.164047 
L 5066.891566 287.03306 
L 5088.231325 294.539329 
L 5109.571084 323.663459 
L 5130.910843 315.523402 
L 5152.250602 388.717548 
L 5173.590361 563.17839 
L 5194.93012 390.723434 
L 5216.26988 633.698261 
L 5237.609639 584.665449 
L 5258.949398 563.583295 
L 5280.289157 637.278264 
L 5301.628916 469.244287 
L 5322.968675 389.326057 
L 5344.308434 367.895865 
L 5365.648193 356.561553 
L 5386.987952 375.140882 
L 5408.327711 413.413551 
L 5429.66747 470.956296 
L 5451.007229 586.312651 
L 5472.346988 631.148059 
L 5493.686747 636.710165 
L 5515.026506 673.688568 
L 5536.366265 894.490976 
L 5557.706024 946.849768 
L 5579.045783 959.049904 
L 5600.385542 932.813843 
L 5621.725301 685.644871 
L 5643.06506 1010.358139 
L 5664.404819 983.990326 
L 5685.744578 923.946552 
L 5707.084337 683.862271 
L 5728.424096 701.204828 
L 5749.763855 780.64964 
L 5771.103614 849.220189 
L 5792.443373 879.559254 
L 5813.783133 829.020271 
L 5835.122892 801.065479 
L 5856.462651 811.204796 
L 5877.80241 762.914309 
L 5899.142169 393.620139 
L 5920.481928 296.057572 
L 5941.821687 478.001819 
L 5963.161446 429.150484 
L 5984.501205 375.342526 
L 6005.840964 634.67931 
L 6027.180723 584.538118 
L 6048.520482 620.353065 
L 6069.860241 587.459968 
L 6091.2 619.196887 
L 6091.2 619.196887 
" style="fill:none;stroke:#000004;stroke-width:3;"/>
   </g>
   <g id="line2d_24">
    <path clip-path="url(#pf3d4b0d3bf)" d="M 777.6 628.651387 
L 798.939759 928.862571 
L 820.279518 628.651387 
L 841.619277 628.651387 
L 862.959036 330.028622 
L 884.298795 628.651387 
L 1119.036145 628.651387 
L 1140.375904 927.274152 
L 1161.715663 450.748463 
L 1183.055422 628.651387 
L 1225.73494 628.651387 
L 1247.074699 627.062968 
L 1268.414458 628.651387 
L 1289.754217 628.651387 
L 1311.093976 627.062968 
L 1332.433735 628.651387 
L 1481.812048 628.651387 
L 1503.151807 627.062968 
L 1524.491566 628.651387 
L 1993.966265 628.651387 
L 2015.306024 525.404154 
L 2036.645783 628.651387 
L 2057.985542 628.651387 
L 2079.325301 731.898619 
L 2100.66506 635.005063 
L 2122.004819 630.239806 
L 2143.344578 628.651387 
L 2399.421687 628.651387 
L 2420.761446 646.123995 
L 2442.101205 628.651387 
L 2527.460241 628.651387 
L 2548.8 627.062968 
L 2570.139759 525.404154 
L 2591.479518 644.535576 
L 2612.819277 797.023797 
L 2634.159036 628.651387 
L 2719.518072 628.651387 
L 2740.857831 627.062968 
L 2762.19759 630.239806 
L 2783.537349 628.651387 
L 2804.877108 495.224194 
L 2826.216867 762.07858 
L 2847.556627 628.651387 
L 2890.236145 628.651387 
L 2911.575904 692.188145 
L 2932.915663 628.651387 
L 3124.973494 628.651387 
L 3146.313253 504.754708 
L 3167.653012 750.959647 
L 3188.992771 628.651387 
L 3210.33253 628.651387 
L 3231.672289 466.632653 
L 3253.012048 560.349371 
L 3274.351807 858.972136 
L 3295.691566 627.062968 
L 3317.031325 628.651387 
L 3359.710843 628.651387 
L 3381.050602 318.909689 
L 3402.390361 939.981503 
L 3423.73012 628.651387 
L 3445.06988 628.651387 
L 3466.409639 557.172533 
L 3487.749398 701.718659 
L 3509.089157 628.651387 
L 3573.108434 628.651387 
L 3594.448193 555.584114 
L 3615.787952 701.718659 
L 3637.127711 628.651387 
L 3658.46747 628.651387 
L 3679.807229 342.735974 
L 3701.146988 914.5668 
L 3722.486747 628.651387 
L 3743.826506 628.651387 
L 3765.166265 555.584114 
L 3786.506024 469.809491 
L 3807.845783 517.462059 
L 3829.185542 628.651387 
L 3850.525301 628.651387 
L 3871.86506 1136.945455 
L 3893.204819 628.651387 
L 3914.544578 628.651387 
L 3935.884337 366.562258 
L 3957.224096 628.651387 
L 3978.563855 628.651387 
L 3999.903614 625.474549 
L 4021.243373 628.651387 
L 4042.583133 633.416644 
L 4063.922892 628.651387 
L 4085.262651 628.651387 
L 4106.60241 700.13024 
L 4127.942169 628.651387 
L 4149.281928 627.062968 
L 4170.621687 606.413521 
L 4191.961446 628.651387 
L 4213.301205 442.806368 
L 4234.640964 811.319567 
L 4255.980723 495.224194 
L 4277.320482 758.901742 
L 4298.660241 590.529332 
L 4320 625.474549 
L 4362.679518 628.651387 
L 4384.019277 628.651387 
L 4405.359036 641.358738 
L 4426.698795 631.828225 
L 4469.378313 641.358738 
L 4490.718072 628.651387 
L 4512.057831 628.651387 
L 4533.39759 403.095894 
L 4554.737349 628.651387 
L 4661.436145 628.651387 
L 4682.775904 595.294589 
L 4704.115663 628.651387 
L 4938.853012 628.651387 
L 4960.192771 622.297711 
L 4981.53253 628.651387 
L 5280.289157 628.651387 
L 5301.628916 650.889252 
L 5322.968675 628.651387 
L 5386.987952 628.651387 
L 5408.327711 630.239806 
L 5429.66747 628.651387 
L 5664.404819 628.651387 
L 5685.744578 627.062968 
L 5707.084337 628.651387 
L 6091.2 628.651387 
L 6091.2 628.651387 
" style="fill:none;stroke:#b73779;stroke-width:3;"/>
   </g>
   <g id="line2d_25">
    <path clip-path="url(#pf3d4b0d3bf)" d="M 777.6 628.651387 
L 6091.2 628.651387 
" style="fill:none;opacity:0.7;stroke:#000000;stroke-width:1.3;"/>
   </g>
   <g id="patch_3">
    <path d="M 777.6 1180.8 
L 777.6 216 
" style="fill:none;stroke:#000000;stroke-linecap:square;stroke-linejoin:miter;stroke-width:0.8;"/>
   </g>
   <g id="patch_4">
    <path d="M 6091.2 1180.8 
L 6091.2 216 
" style="fill:none;stroke:#000000;stroke-linecap:square;stroke-linejoin:miter;stroke-width:0.8;"/>
   </g>
   <g id="patch_5">
    <path d="M 777.6 1180.8 
L 6091.2 1180.8 
" style="fill:none;stroke:#000000;stroke-linecap:square;stroke-linejoin:miter;stroke-width:0.8;"/>
   </g>
   <g id="patch_6">
    <path d="M 777.6 216 
L 6091.2 216 
" style="fill:none;stroke:#000000;stroke-linecap:square;stroke-linejoin:miter;stroke-width:0.8;"/>
   </g>
   <g id="patch_7">
    <path d="M 0 1440 
L 6480 1440 
L 6480 1416.729153 
L 0 1416.729153 
z
" style="fill:#808080;"/>
   </g>
   <g id="text_14">
    <!-- ©spred -->
    <defs>
     <path d="M 50.90625 25.90625 
L 50.90625 44 
Q 50.90625 52.40625 44.75 58.40625 
Q 38.59375 64.40625 30 64.40625 
Q 21.296875 64.40625 15.09375 58.40625 
Q 8.90625 52.40625 8.90625 44 
L 8.90625 25.90625 
Q 8.90625 17.5 15.09375 11.453125 
Q 21.296875 5.40625 30 5.40625 
Q 38.59375 5.40625 44.75 11.453125 
Q 50.90625 17.5 50.90625 25.90625 
z
M 57.703125 43.203125 
L 57.703125 26.59375 
Q 57.703125 15.203125 49.59375 7.09375 
Q 41.5 -1 30 -1 
Q 18.40625 -1 10.296875 7.09375 
Q 2.203125 15.203125 2.203125 26.59375 
L 2.203125 43.203125 
Q 2.203125 54.59375 10.296875 62.6875 
Q 18.40625 70.796875 30 70.796875 
Q 41.5 70.796875 49.59375 62.6875 
Q 57.703125 54.59375 57.703125 43.203125 
z
M 38.59375 29.40625 
L 41.40625 29.40625 
Q 42.40625 29.40625 42.90625 28.84375 
Q 43.40625 28.296875 43.40625 27.59375 
Q 43.40625 21.59375 39.796875 17.9375 
Q 36.203125 14.296875 30.40625 14.296875 
Q 24.40625 14.296875 20.75 17.9375 
Q 17.09375 21.59375 17.09375 27.09375 
L 17.09375 43.40625 
Q 17.09375 48.703125 20.75 52.390625 
Q 24.40625 56.09375 30.40625 56.09375 
Q 35.90625 56.09375 39.40625 52.25 
Q 42.90625 48.40625 42.90625 42.296875 
Q 42.90625 41.59375 42.40625 41.046875 
Q 41.90625 40.5 40.90625 40.5 
L 38.09375 40.5 
Q 37.09375 40.5 36.546875 41.046875 
Q 36 41.59375 36 42.296875 
Q 36 45.203125 34.390625 47.046875 
Q 32.796875 48.90625 30.40625 48.90625 
Q 27.703125 48.90625 25.796875 46.90625 
Q 23.90625 44.90625 23.90625 42.203125 
L 23.90625 28.203125 
Q 23.90625 25.59375 25.796875 23.59375 
Q 27.703125 21.59375 30.40625 21.59375 
Q 32.90625 21.59375 34.703125 23.1875 
Q 36.5 24.796875 36.5 27.59375 
Q 36.5 28.296875 37.046875 28.84375 
Q 37.59375 29.40625 38.59375 29.40625 
z
" id="DecimaMonoPro-a9"/>
     <path d="M 30.09375 -1 
Q 25.296875 -1 21.546875 0.59375 
Q 17.796875 2.203125 15.84375 4.59375 
Q 13.90625 7 12.953125 9.390625 
Q 12 11.796875 12 14 
Q 12 14.796875 12.5 15.296875 
Q 13 15.796875 13.796875 15.796875 
L 18.296875 15.796875 
Q 19.90625 15.796875 20.09375 14.09375 
Q 20.40625 11.203125 22.796875 8.703125 
Q 25.203125 6.203125 30.09375 6.203125 
Q 34.296875 6.203125 36.890625 8.296875 
Q 39.5 10.40625 39.5 13.59375 
Q 39.5 16.5 36.84375 18.5 
Q 34.203125 20.5 30.390625 21.84375 
Q 26.59375 23.203125 22.84375 24.796875 
Q 19.09375 26.40625 16.4375 29.5 
Q 13.796875 32.59375 13.796875 37.09375 
Q 13.796875 43.296875 18.4375 47.140625 
Q 23.09375 51 30.703125 51 
Q 38.90625 51 43.25 46.5 
Q 47.59375 42 47.59375 37.5 
Q 47.59375 36.796875 47.09375 36.25 
Q 46.59375 35.703125 45.796875 35.703125 
L 41.203125 35.703125 
Q 39.703125 35.703125 39.40625 37.40625 
Q 38.90625 40 36.75 41.890625 
Q 34.59375 43.796875 30.703125 43.796875 
Q 26.90625 43.796875 24.546875 42.09375 
Q 22.203125 40.40625 22.203125 37.703125 
Q 22.203125 35 24.84375 33.09375 
Q 27.5 31.203125 31.25 29.890625 
Q 35 28.59375 38.703125 26.9375 
Q 42.40625 25.296875 45.046875 21.84375 
Q 47.703125 18.40625 47.703125 13.40625 
Q 47.703125 7.40625 42.59375 3.203125 
Q 37.5 -1 30.09375 -1 
z
" id="DecimaMonoPro-73"/>
     <path d="M 42.09375 17.09375 
L 42.09375 33.09375 
Q 42.09375 37.703125 38.84375 40.796875 
Q 35.59375 43.90625 30.5 43.90625 
Q 25.40625 43.90625 22.046875 40.75 
Q 18.703125 37.59375 18.703125 33 
L 18.703125 17.09375 
Q 18.703125 12.5 22.046875 9.390625 
Q 25.40625 6.296875 30.5 6.296875 
Q 35.59375 6.296875 38.84375 9.390625 
Q 42.09375 12.5 42.09375 17.09375 
z
M 18.703125 3.703125 
L 18.796875 -16.203125 
Q 18.796875 -18 16.5 -18 
L 13 -18 
Q 10.703125 -18 10.703125 -16.203125 
L 10.703125 48.203125 
Q 10.703125 50 13 50 
L 15.90625 50 
Q 18.203125 50 18.203125 48.203125 
L 18.203125 45.90625 
Q 18.59375 46.5 19.5 47.34375 
Q 20.40625 48.203125 23.75 49.59375 
Q 27.09375 51 31.296875 51 
Q 39.296875 51 44.796875 45.640625 
Q 50.296875 40.296875 50.296875 32.59375 
L 50.296875 17.40625 
Q 50.296875 9.796875 44.75 4.390625 
Q 39.203125 -1 31.296875 -1 
Q 27.40625 -1 24.25 0.203125 
Q 21.09375 1.40625 19.90625 2.59375 
z
" id="DecimaMonoPro-70"/>
     <path d="M 37.203125 51 
Q 44.09375 51 48.140625 46.453125 
Q 52.203125 41.90625 52.203125 37.5 
Q 52.203125 35.703125 50.5 35.703125 
L 45.90625 35.703125 
Q 44.296875 35.703125 44.09375 37.40625 
Q 43.796875 39.796875 41.75 41.796875 
Q 39.703125 43.796875 36.59375 43.796875 
Q 32.40625 43.796875 29.203125 40.796875 
Q 26 37.796875 26 34 
L 26 7.203125 
L 45.09375 7.203125 
Q 45.796875 7.203125 46.34375 6.703125 
Q 46.90625 6.203125 46.90625 5.40625 
L 46.90625 1.796875 
Q 46.90625 1 46.34375 0.5 
Q 45.796875 0 45.09375 0 
L 9.296875 0 
Q 8.59375 0 8.046875 0.5 
Q 7.5 1 7.5 1.796875 
L 7.5 5.40625 
Q 7.5 6.203125 8.046875 6.703125 
Q 8.59375 7.203125 9.296875 7.203125 
L 18 7.203125 
L 18 48.203125 
Q 18 50 20.296875 50 
L 23.5 50 
Q 25.796875 50 25.796875 48.203125 
L 25.796875 45.703125 
Q 29.796875 51 37.203125 51 
z
" id="DecimaMonoPro-72"/>
     <path d="M 48.796875 13.5 
Q 48.796875 9.09375 43.75 4.046875 
Q 38.703125 -1 30.203125 -1 
Q 21.203125 -1 15.75 4.453125 
Q 10.296875 9.90625 10.296875 17.5 
L 10.296875 32.703125 
Q 10.296875 40.203125 15.75 45.59375 
Q 21.203125 51 30.203125 51 
Q 39.203125 51 44.453125 45.59375 
Q 49.703125 40.203125 49.703125 32.703125 
L 49.703125 24.796875 
Q 49.703125 23.796875 49.046875 23.140625 
Q 48.40625 22.5 47.40625 22.5 
L 18.40625 22.5 
L 18.40625 17 
Q 18.40625 12.5 21.65625 9.296875 
Q 24.90625 6.09375 30.203125 6.09375 
Q 38.5 6.09375 40.59375 13.59375 
Q 41.09375 15.296875 42.40625 15.296875 
L 47 15.296875 
Q 47.796875 15.296875 48.296875 14.75 
Q 48.796875 14.203125 48.796875 13.5 
z
M 18.40625 33 
L 18.40625 29.703125 
L 41.796875 29.703125 
L 41.796875 33 
Q 41.796875 37.5 38.640625 40.640625 
Q 35.5 43.796875 30.203125 43.796875 
Q 24.90625 43.796875 21.65625 40.640625 
Q 18.40625 37.5 18.40625 33 
z
" id="DecimaMonoPro-65"/>
     <path d="M 17.90625 32.90625 
L 17.90625 16.90625 
Q 17.90625 12.296875 21.15625 9.1875 
Q 24.40625 6.09375 29.5 6.09375 
Q 34.59375 6.09375 37.9375 9.25 
Q 41.296875 12.40625 41.296875 17 
L 41.296875 32.90625 
Q 41.296875 37.5 37.9375 40.59375 
Q 34.59375 43.703125 29.5 43.703125 
Q 24.40625 43.703125 21.15625 40.59375 
Q 17.90625 37.5 17.90625 32.90625 
z
M 41.296875 46.296875 
L 41.203125 68.203125 
Q 41.203125 70 43.5 70 
L 47 70 
Q 49.296875 70 49.296875 68.203125 
L 49.296875 1.796875 
Q 49.296875 0 47 0 
L 44.09375 0 
Q 41.796875 0 41.796875 1.796875 
L 41.796875 4.09375 
Q 41.40625 3.5 40.5 2.640625 
Q 39.59375 1.796875 36.25 0.390625 
Q 32.90625 -1 28.703125 -1 
Q 20.703125 -1 15.203125 4.34375 
Q 9.703125 9.703125 9.703125 17.40625 
L 9.703125 32.59375 
Q 9.703125 40.203125 15.25 45.59375 
Q 20.796875 51 28.703125 51 
Q 32.59375 51 35.75 49.796875 
Q 38.90625 48.59375 40.09375 47.40625 
z
" id="DecimaMonoPro-64"/>
    </defs>
    <g style="fill:#ffffff;" transform="translate(64.8 1432.8)scale(0.14 -0.14)">
     <use xlink:href="#DecimaMonoPro-a9"/>
     <use x="59.999985" xlink:href="#DecimaMonoPro-73"/>
     <use x="119.999969" xlink:href="#DecimaMonoPro-70"/>
     <use x="179.999954" xlink:href="#DecimaMonoPro-72"/>
     <use x="239.999939" xlink:href="#DecimaMonoPro-65"/>
     <use x="299.999924" xlink:href="#DecimaMonoPro-64"/>
    </g>
   </g>
   <g id="text_15">
    <!-- ETHUSDT_prepro -->
    <defs>
     <path d="M 9.40625 70 
L 9.40625 0 
L 51.90625 0 
L 51.90625 10.40625 
L 20.40625 10.40625 
L 20.40625 32 
L 45 32 
L 45 42.40625 
L 20.40625 42.40625 
L 20.40625 59.59375 
L 50.90625 59.59375 
L 50.90625 70 
z
" id="ApercuPro-Medium-45"/>
     <path d="M 1.09375 59.59375 
L 20.703125 59.59375 
L 20.703125 0 
L 31.703125 0 
L 31.703125 59.59375 
L 51.296875 59.59375 
L 51.296875 70 
L 1.09375 70 
z
" id="ApercuPro-Medium-54"/>
     <path d="M 9.40625 0 
L 20.40625 0 
L 20.40625 32.203125 
L 48.796875 32.203125 
L 48.796875 0 
L 59.796875 0 
L 59.796875 70 
L 48.796875 70 
L 48.796875 42.59375 
L 20.40625 42.59375 
L 20.40625 70 
L 9.40625 70 
z
" id="ApercuPro-Medium-48"/>
     <path d="M 7.5 25.203125 
C 7.5 8.40625 18.40625 -0.796875 32.703125 -0.796875 
C 47 -0.796875 57.90625 8.296875 57.90625 25.203125 
L 57.90625 70 
L 46.90625 70 
L 46.90625 24.703125 
C 46.90625 15.203125 42.09375 9.59375 32.703125 9.59375 
C 23.296875 9.59375 18.5 15.203125 18.5 24.703125 
L 18.5 70 
L 7.5 70 
z
" id="ApercuPro-Medium-55"/>
     <path d="M 45.40625 59 
C 41.703125 65.59375 35.703125 70.796875 26.09375 70.796875 
C 15.90625 70.796875 7.796875 63 7.796875 52.40625 
C 7.796875 30.796875 37.59375 33.796875 37.59375 20.09375 
C 37.59375 13.90625 33.203125 9.59375 26.90625 9.59375 
C 18.90625 9.59375 14.796875 16.59375 12.796875 24.40625 
L 3.796875 18.703125 
C 6.296875 7.5 14.59375 -0.796875 26.90625 -0.796875 
C 39.5 -0.796875 48.796875 7.703125 48.796875 20.5 
C 48.796875 42.09375 18.796875 39.40625 18.796875 53.203125 
C 18.796875 57.296875 21.59375 60.796875 26.09375 60.796875 
C 30.203125 60.796875 33.703125 58.40625 36.5 53.09375 
z
" id="ApercuPro-Medium-53"/>
     <path d="M 9.40625 70 
L 9.40625 0 
L 30 0 
C 46.796875 0 62.203125 11.40625 62.203125 35 
C 62.203125 58.59375 46.796875 70 30 70 
z
M 26.796875 59.59375 
C 39 59.59375 51 54.09375 51 35 
C 51 15.90625 39 10.40625 26.796875 10.40625 
L 20.40625 10.40625 
L 20.40625 59.59375 
z
" id="ApercuPro-Medium-44"/>
     <path d="M 2.703125 -9.203125 
L 47.203125 -9.203125 
L 47.203125 0 
L 2.703125 0 
z
" id="ApercuPro-Medium-5f"/>
     <path d="M 55.203125 25.203125 
C 55.203125 41.296875 47.59375 51.203125 32.703125 51.203125 
C 26.09375 51.203125 20.703125 47.5 19 44.59375 
L 19 50.40625 
L 8.59375 50.40625 
L 8.59375 -20.40625 
L 19 -20.40625 
L 19 5.59375 
C 21.296875 2.296875 26.296875 -0.796875 32.5 -0.796875 
C 47.59375 -0.796875 55.203125 9.59375 55.203125 25.203125 
z
M 44.203125 25.203125 
C 44.203125 14.796875 38.796875 8.40625 31.296875 8.40625 
C 23.796875 8.40625 18.40625 14.796875 18.40625 25.203125 
C 18.40625 35.59375 23.796875 42 31.296875 42 
C 38.796875 42 44.203125 35.59375 44.203125 25.203125 
z
" id="ApercuPro-Medium-70"/>
     <path d="M 19 0 
L 19 18.703125 
C 19 34.59375 25.90625 42 32.59375 42 
C 34.703125 42 36.90625 41.5 38.5 40.5 
L 40.296875 50 
C 38.796875 50.59375 36.59375 51.203125 33.90625 51.203125 
C 28.5 51.203125 22.5 48 19 42 
L 19 50.40625 
L 8.59375 50.40625 
L 8.59375 0 
z
" id="ApercuPro-Medium-72"/>
     <path d="M 28.40625 42 
C 35.90625 42 39.703125 36.59375 40.59375 31 
L 16.09375 31 
C 17.203125 37.296875 21.5 42 28.40625 42 
z
M 51.59375 26.796875 
C 51.59375 38.09375 44.5 51.203125 28.40625 51.203125 
C 11.796875 51.203125 4.90625 37.203125 4.90625 25.203125 
C 4.90625 13.203125 11.796875 -0.796875 28.40625 -0.796875 
C 39.90625 -0.796875 45.59375 3.90625 50.5 13.40625 
L 41.59375 16.90625 
C 39 11.40625 33.796875 8.40625 28.40625 8.40625 
C 20.203125 8.40625 15.90625 14.90625 15.90625 22.296875 
L 51.59375 22.296875 
z
" id="ApercuPro-Medium-65"/>
     <path d="M 4.90625 25.203125 
C 4.90625 11 14.09375 -0.796875 29.703125 -0.796875 
C 45.296875 -0.796875 54.5 11 54.5 25.203125 
C 54.5 39.40625 45.296875 51.203125 29.703125 51.203125 
C 14.09375 51.203125 4.90625 39.40625 4.90625 25.203125 
z
M 15.90625 25.203125 
C 15.90625 33.703125 20.59375 42 29.703125 42 
C 38.796875 42 43.5 33.703125 43.5 25.203125 
C 43.5 16.703125 38.796875 8.40625 29.703125 8.40625 
C 20.59375 8.40625 15.90625 16.703125 15.90625 25.203125 
z
" id="ApercuPro-Medium-6f"/>
    </defs>
    <g style="opacity:0.75;" transform="translate(1044 144)scale(0.3 -0.3)">
     <use xlink:href="#ApercuPro-Medium-45"/>
     <use x="56.846863" xlink:href="#ApercuPro-Medium-54"/>
     <use x="109.246857" xlink:href="#ApercuPro-Medium-48"/>
     <use x="178.415588" xlink:href="#ApercuPro-Medium-55"/>
     <use x="243.799957" xlink:href="#ApercuPro-Medium-53"/>
     <use x="296.799942" xlink:href="#ApercuPro-Medium-44"/>
     <use x="364.06868" xlink:href="#ApercuPro-Medium-54"/>
     <use x="416.468674" xlink:href="#ApercuPro-Medium-5f"/>
     <use x="466.368668" xlink:href="#ApercuPro-Medium-70"/>
     <use x="526.468658" xlink:href="#ApercuPro-Medium-72"/>
     <use x="568.168655" xlink:href="#ApercuPro-Medium-65"/>
     <use x="624.068649" xlink:href="#ApercuPro-Medium-70"/>
     <use x="684.16864" xlink:href="#ApercuPro-Medium-72"/>
     <use x="725.868637" xlink:href="#ApercuPro-Medium-6f"/>
    </g>
   </g>
   <g id="text_16">
    <!-- None -->
    <defs>
     <path d="M 51.59375 70 
L 60.40625 70 
L 60.40625 0 
L 50.09375 0 
L 18.5 54.5 
L 18.5 0 
L 9.703125 0 
L 9.703125 70 
L 20 70 
L 51.59375 15.296875 
z
" id="Apercu-4e"/>
    </defs>
    <g style="opacity:0.75;" transform="translate(1045 158.4)scale(0.14 -0.14)">
     <use xlink:href="#Apercu-4e"/>
     <use x="70.099991" xlink:href="#Apercu-6f"/>
     <use x="129.299988" xlink:href="#Apercu-6e"/>
     <use x="186.999985" xlink:href="#Apercu-65"/>
    </g>
   </g>
   <g id="legend_1">
    <g id="patch_8">
     <path d="M 5997.58375 266.736875 
L 6081.4 266.736875 
Q 6084.2 266.736875 6084.2 263.936875 
L 6084.2 225.8 
Q 6084.2 223 6081.4 223 
L 5997.58375 223 
Q 5994.78375 223 5994.78375 225.8 
L 5994.78375 263.936875 
Q 5994.78375 266.736875 5997.58375 266.736875 
z
" style="fill:#f0f0f0;opacity:0.8;stroke:#cccccc;stroke-linejoin:miter;stroke-width:0.5;"/>
    </g>
    <g id="line2d_26">
     <path d="M 6000.38375 233.611563 
L 6028.38375 233.611563 
" style="fill:none;stroke:#000004;stroke-width:3;"/>
    </g>
    <g id="line2d_27"/>
    <g id="text_17">
     <!-- pred -->
     <g style="opacity:0.75;" transform="translate(6039.58375 238.511563)scale(0.14 -0.14)">
      <use xlink:href="#Apercu-70"/>
      <use x="60.099991" xlink:href="#Apercu-72"/>
      <use x="101.399979" xlink:href="#Apercu-65"/>
      <use x="157.399963" xlink:href="#Apercu-64"/>
     </g>
    </g>
    <g id="line2d_28">
     <path d="M 6000.38375 253.38 
L 6028.38375 253.38 
" style="fill:none;stroke:#b73779;stroke-width:3;"/>
    </g>
    <g id="line2d_29"/>
    <g id="text_18">
     <!-- actual -->
     <defs>
      <path d="M 14.203125 14.5 
Q 14.203125 10.90625 16.34375 8.84375 
Q 18.5 6.796875 22.5 6.796875 
Q 28.203125 6.796875 32.390625 10.546875 
Q 36.59375 14.296875 36.59375 22.203125 
L 36.59375 23.40625 
L 27.59375 23.40625 
Q 21.203125 23.40625 17.703125 21.09375 
Q 14.203125 18.796875 14.203125 14.5 
z
M 45 32.203125 
L 45 0 
L 38.40625 0 
L 37 7.09375 
Q 31.5 -0.796875 21.203125 -0.796875 
Q 14.40625 -0.796875 10 3 
Q 5.59375 6.796875 5.59375 14.5 
Q 5.59375 22.5 11.6875 26.75 
Q 17.796875 31 28.40625 31 
L 36.59375 31 
L 36.59375 33.203125 
Q 36.59375 43.59375 25.59375 43.59375 
Q 21.59375 43.59375 18.75 41.5 
Q 15.90625 39.40625 15.09375 35.703125 
L 7.703125 37.40625 
Q 8.703125 43.796875 13.59375 47.5 
Q 18.5 51.203125 25.59375 51.203125 
Q 34.40625 51.203125 39.703125 46.5 
Q 45 41.796875 45 32.203125 
z
" id="Apercu-61"/>
      <path d="M 9 70.796875 
L 17.40625 70.796875 
L 17.40625 0 
L 9 0 
z
" id="Apercu-6c"/>
     </defs>
     <g style="opacity:0.75;" transform="translate(6039.58375 258.28)scale(0.14 -0.14)">
      <use xlink:href="#Apercu-61"/>
      <use x="51.799988" xlink:href="#Apercu-63"/>
      <use x="105.615601" xlink:href="#Apercu-74"/>
      <use x="143.399963" xlink:href="#Apercu-75"/>
      <use x="201.09996" xlink:href="#Apercu-61"/>
      <use x="252.899948" xlink:href="#Apercu-6c"/>
     </g>
    </g>
   </g>
  </g>
 </g>
 <defs>
  <clipPath id="pf3d4b0d3bf">
   <rect height="964.8" width="5313.6" x="777.6" y="216"/>
  </clipPath>
 </defs>
</svg>
