<?xml version="1.0" encoding="utf-8" standalone="no"?>
<!DOCTYPE svg PUBLIC "-//W3C//DTD SVG 1.1//EN"
  "http://www.w3.org/Graphics/SVG/1.1/DTD/svg11.dtd">
<!-- Created with matplotlib (http://matplotlib.org/) -->
<svg height="1440pt" version="1.1" viewBox="0 0 6480 1440" width="6480pt" xmlns="http://www.w3.org/2000/svg" xmlns:xlink="http://www.w3.org/1999/xlink">
 <defs>
  <style type="text/css">
*{stroke-linecap:butt;stroke-linejoin:round;}
  </style>
 </defs>
 <g id="figure_1">
  <g id="patch_1">
   <path d="M 0 1440 
L 6480 1440 
L 6480 0 
L 0 0 
z
" style="fill:#f0f0f0;"/>
  </g>
  <g id="axes_1">
   <g id="patch_2">
    <path d="M 777.6 1180.8 
L 6091.2 1180.8 
L 6091.2 216 
L 777.6 216 
z
" style="fill:#f0f0f0;"/>
   </g>
   <g id="matplotlib.axis_1">
    <g id="xtick_1">
     <g id="line2d_1">
      <path clip-path="url(#pb4b81e4389)" d="M 777.6 1180.8 
L 777.6 216 
" style="fill:none;stroke:#b0b0b0;stroke-linecap:square;stroke-width:0.8;"/>
     </g>
     <g id="line2d_2">
      <defs>
       <path d="M 0 0 
L 0 3.5 
" id="m558cfb1e79" style="stroke:#000000;stroke-width:0.8;"/>
      </defs>
      <g>
       <use style="stroke:#000000;stroke-width:0.8;" x="777.6" xlink:href="#m558cfb1e79" y="1180.8"/>
      </g>
     </g>
     <g id="text_1">
      <!-- 0 -->
      <defs>
       <path d="M 48.203125 52.59375 
L 48.203125 17.40625 
Q 48.203125 9.703125 42.953125 4.34375 
Q 37.703125 -1 29.890625 -1 
Q 22.09375 -1 16.9375 4.390625 
Q 11.796875 9.796875 11.796875 17.5 
L 11.796875 52.59375 
Q 11.796875 60.296875 16.9375 65.640625 
Q 22.09375 71 29.890625 71 
Q 37.703125 71 42.953125 65.640625 
Q 48.203125 60.296875 48.203125 52.59375 
z
M 39.90625 17.296875 
L 39.90625 52.5 
Q 39.90625 56.90625 37 60 
Q 34.09375 63.09375 29.90625 63.09375 
Q 25.796875 63.09375 22.890625 60 
Q 20 56.90625 20 52.5 
L 20 17.40625 
Q 20 13 22.890625 9.953125 
Q 25.796875 6.90625 30 6.90625 
Q 34.09375 6.90625 37 9.90625 
Q 39.90625 12.90625 39.90625 17.296875 
z
" id="DecimaMonoPro-30"/>
      </defs>
      <g style="fill:#303030;" transform="translate(773.4 1197.613125)scale(0.14 -0.14)">
       <use xlink:href="#DecimaMonoPro-30"/>
      </g>
     </g>
    </g>
    <g id="xtick_2">
     <g id="line2d_3">
      <path clip-path="url(#pb4b81e4389)" d="M 1445.137688 1180.8 
L 1445.137688 216 
" style="fill:none;stroke:#b0b0b0;stroke-linecap:square;stroke-width:0.8;"/>
     </g>
     <g id="line2d_4">
      <g>
       <use style="stroke:#000000;stroke-width:0.8;" x="1445.137688" xlink:href="#m558cfb1e79" y="1180.8"/>
      </g>
     </g>
     <g id="text_2">
      <!-- 25 -->
      <defs>
       <path d="M 11.703125 53 
Q 11.703125 59.703125 17.203125 65.34375 
Q 22.703125 71 30.59375 71 
Q 38.40625 71 43.796875 65.75 
Q 49.203125 60.5 49.203125 52.703125 
Q 49.203125 46.90625 46.09375 41.75 
Q 43 36.59375 38.59375 32.84375 
Q 34.203125 29.09375 29.796875 25.4375 
Q 25.40625 21.796875 22.296875 17.296875 
Q 19.203125 12.796875 19.203125 7.796875 
L 47.40625 7.796875 
Q 48.203125 7.796875 48.703125 7.296875 
Q 49.203125 6.796875 49.203125 6 
L 49.203125 1.796875 
Q 49.203125 1 48.703125 0.5 
Q 48.203125 0 47.40625 0 
L 12.59375 0 
Q 11.796875 0 11.296875 0.5 
Q 10.796875 1 10.796875 1.796875 
L 10.796875 7.296875 
Q 10.796875 13.90625 13.890625 19.453125 
Q 17 25 21.390625 28.890625 
Q 25.796875 32.796875 30.1875 36.390625 
Q 34.59375 40 37.6875 44.296875 
Q 40.796875 48.59375 40.796875 53.296875 
Q 40.796875 57.40625 37.75 60.25 
Q 34.703125 63.09375 30.5 63.09375 
Q 26.09375 63.09375 23.1875 59.6875 
Q 20.296875 56.296875 20.09375 53 
Q 19.90625 51 17.796875 51 
L 14 51 
Q 12.90625 51 12.296875 51.59375 
Q 11.703125 52.203125 11.703125 53 
z
" id="DecimaMonoPro-32"/>
       <path d="M 21.90625 35.59375 
Q 21.09375 34.40625 19.796875 34.40625 
Q 19.40625 34.40625 18.203125 34.796875 
L 14.796875 35.796875 
Q 13.203125 36.296875 13.40625 38.5 
L 15.90625 67.703125 
Q 16.09375 70 18.09375 70 
L 44.40625 70 
Q 46.59375 70 46.59375 67.703125 
L 46.59375 64.40625 
Q 46.59375 62.09375 44.40625 62.09375 
L 24.09375 62.09375 
L 22.40625 44.796875 
Q 25.203125 47.203125 30.703125 47.203125 
Q 38.40625 47.203125 43.703125 42 
Q 49 36.796875 49 28.90625 
L 49 17.5 
Q 49 9.796875 43.5 4.390625 
Q 38 -1 30.09375 -1 
Q 21.90625 -1 16.453125 4.34375 
Q 11 9.703125 11 17.40625 
Q 11 18.203125 11.59375 18.796875 
Q 12.203125 19.40625 13.296875 19.40625 
L 17.09375 19.40625 
Q 18.203125 19.40625 18.796875 18.796875 
Q 19.40625 18.203125 19.40625 17.40625 
Q 19.40625 13 22.5 9.953125 
Q 25.59375 6.90625 30.09375 6.90625 
Q 34.5 6.90625 37.546875 9.953125 
Q 40.59375 13 40.59375 17.40625 
L 40.59375 28.796875 
Q 40.59375 33.203125 37.5 36.25 
Q 34.40625 39.296875 29.796875 39.296875 
Q 27.703125 39.296875 25.796875 38.4375 
Q 23.90625 37.59375 23.09375 36.890625 
Q 22.296875 36.203125 21.90625 35.59375 
z
" id="DecimaMonoPro-35"/>
      </defs>
      <g style="fill:#303030;" transform="translate(1436.737688 1197.613125)scale(0.14 -0.14)">
       <use xlink:href="#DecimaMonoPro-32"/>
       <use x="59.999985" xlink:href="#DecimaMonoPro-35"/>
      </g>
     </g>
    </g>
    <g id="xtick_3">
     <g id="line2d_5">
      <path clip-path="url(#pb4b81e4389)" d="M 2112.675377 1180.8 
L 2112.675377 216 
" style="fill:none;stroke:#b0b0b0;stroke-linecap:square;stroke-width:0.8;"/>
     </g>
     <g id="line2d_6">
      <g>
       <use style="stroke:#000000;stroke-width:0.8;" x="2112.675377" xlink:href="#m558cfb1e79" y="1180.8"/>
      </g>
     </g>
     <g id="text_3">
      <!-- 50 -->
      <g style="fill:#303030;" transform="translate(2104.275377 1197.613125)scale(0.14 -0.14)">
       <use xlink:href="#DecimaMonoPro-35"/>
       <use x="59.999985" xlink:href="#DecimaMonoPro-30"/>
      </g>
     </g>
    </g>
    <g id="xtick_4">
     <g id="line2d_7">
      <path clip-path="url(#pb4b81e4389)" d="M 2780.213065 1180.8 
L 2780.213065 216 
" style="fill:none;stroke:#b0b0b0;stroke-linecap:square;stroke-width:0.8;"/>
     </g>
     <g id="line2d_8">
      <g>
       <use style="stroke:#000000;stroke-width:0.8;" x="2780.213065" xlink:href="#m558cfb1e79" y="1180.8"/>
      </g>
     </g>
     <g id="text_4">
      <!-- 75 -->
      <defs>
       <path d="M 39.09375 62.09375 
L 14.703125 62.09375 
Q 12.5 62.09375 12.5 64.40625 
L 12.5 67.703125 
Q 12.5 70 14.703125 70 
L 44.796875 70 
Q 47.5 70 47.5 67.59375 
L 47.5 62.703125 
Q 47.5 58.203125 43.59375 46.953125 
Q 39.703125 35.703125 35.796875 22.953125 
Q 31.90625 10.203125 31.90625 2 
Q 31.90625 1.203125 31.25 0.59375 
Q 30.59375 0 29.90625 0 
L 25.703125 0 
Q 24.59375 0 24 0.59375 
Q 23.40625 1.203125 23.40625 2 
Q 23.40625 9.40625 25.796875 19.15625 
Q 28.203125 28.90625 31.046875 36.5 
Q 33.90625 44.09375 36.40625 51.546875 
Q 38.90625 59 39.09375 62.09375 
z
" id="DecimaMonoPro-37"/>
      </defs>
      <g style="fill:#303030;" transform="translate(2771.813065 1197.613125)scale(0.14 -0.14)">
       <use xlink:href="#DecimaMonoPro-37"/>
       <use x="59.999985" xlink:href="#DecimaMonoPro-35"/>
      </g>
     </g>
    </g>
    <g id="xtick_5">
     <g id="line2d_9">
      <path clip-path="url(#pb4b81e4389)" d="M 3447.750754 1180.8 
L 3447.750754 216 
" style="fill:none;stroke:#b0b0b0;stroke-linecap:square;stroke-width:0.8;"/>
     </g>
     <g id="line2d_10">
      <g>
       <use style="stroke:#000000;stroke-width:0.8;" x="3447.750754" xlink:href="#m558cfb1e79" y="1180.8"/>
      </g>
     </g>
     <g id="text_5">
      <!-- 100 -->
      <defs>
       <path d="M 13.90625 68.203125 
L 25.203125 70 
L 32.296875 70 
Q 33 70 33.546875 69.5 
Q 34.09375 69 34.09375 68.203125 
L 34.09375 7.703125 
L 47.296875 7.703125 
Q 48 7.703125 48.546875 7.140625 
Q 49.09375 6.59375 49.09375 5.90625 
L 49.09375 1.796875 
Q 49.09375 1 48.546875 0.5 
Q 48 0 47.296875 0 
L 12.59375 0 
Q 11.796875 0 11.296875 0.5 
Q 10.796875 1 10.796875 1.796875 
L 10.796875 5.90625 
Q 10.796875 6.59375 11.296875 7.140625 
Q 11.796875 7.703125 12.59375 7.703125 
L 25.703125 7.703125 
L 25.703125 62.09375 
L 14.703125 60.40625 
L 14.40625 60.40625 
Q 14 60.296875 13.5 60.296875 
Q 12.09375 60.296875 12.09375 62.09375 
L 12.09375 66.296875 
Q 12.09375 67.796875 13.90625 68.203125 
z
" id="DecimaMonoPro-31"/>
      </defs>
      <g style="fill:#303030;" transform="translate(3435.150754 1197.613125)scale(0.14 -0.14)">
       <use xlink:href="#DecimaMonoPro-31"/>
       <use x="59.999985" xlink:href="#DecimaMonoPro-30"/>
       <use x="119.999969" xlink:href="#DecimaMonoPro-30"/>
      </g>
     </g>
    </g>
    <g id="xtick_6">
     <g id="line2d_11">
      <path clip-path="url(#pb4b81e4389)" d="M 4115.288442 1180.8 
L 4115.288442 216 
" style="fill:none;stroke:#b0b0b0;stroke-linecap:square;stroke-width:0.8;"/>
     </g>
     <g id="line2d_12">
      <g>
       <use style="stroke:#000000;stroke-width:0.8;" x="4115.288442" xlink:href="#m558cfb1e79" y="1180.8"/>
      </g>
     </g>
     <g id="text_6">
      <!-- 125 -->
      <g style="fill:#303030;" transform="translate(4102.688442 1197.613125)scale(0.14 -0.14)">
       <use xlink:href="#DecimaMonoPro-31"/>
       <use x="59.999985" xlink:href="#DecimaMonoPro-32"/>
       <use x="119.999969" xlink:href="#DecimaMonoPro-35"/>
      </g>
     </g>
    </g>
    <g id="xtick_7">
     <g id="line2d_13">
      <path clip-path="url(#pb4b81e4389)" d="M 4782.826131 1180.8 
L 4782.826131 216 
" style="fill:none;stroke:#b0b0b0;stroke-linecap:square;stroke-width:0.8;"/>
     </g>
     <g id="line2d_14">
      <g>
       <use style="stroke:#000000;stroke-width:0.8;" x="4782.826131" xlink:href="#m558cfb1e79" y="1180.8"/>
      </g>
     </g>
     <g id="text_7">
      <!-- 150 -->
      <g style="fill:#303030;" transform="translate(4770.226131 1197.613125)scale(0.14 -0.14)">
       <use xlink:href="#DecimaMonoPro-31"/>
       <use x="59.999985" xlink:href="#DecimaMonoPro-35"/>
       <use x="119.999969" xlink:href="#DecimaMonoPro-30"/>
      </g>
     </g>
    </g>
    <g id="xtick_8">
     <g id="line2d_15">
      <path clip-path="url(#pb4b81e4389)" d="M 5450.363819 1180.8 
L 5450.363819 216 
" style="fill:none;stroke:#b0b0b0;stroke-linecap:square;stroke-width:0.8;"/>
     </g>
     <g id="line2d_16">
      <g>
       <use style="stroke:#000000;stroke-width:0.8;" x="5450.363819" xlink:href="#m558cfb1e79" y="1180.8"/>
      </g>
     </g>
     <g id="text_8">
      <!-- 175 -->
      <g style="fill:#303030;" transform="translate(5437.763819 1197.613125)scale(0.14 -0.14)">
       <use xlink:href="#DecimaMonoPro-31"/>
       <use x="59.999985" xlink:href="#DecimaMonoPro-37"/>
       <use x="119.999969" xlink:href="#DecimaMonoPro-35"/>
      </g>
     </g>
    </g>
    <g id="text_9">
     <!-- x -->
     <defs>
      <path d="M 3.59375 50.40625 
L 13.09375 50.40625 
L 22.90625 34.40625 
L 32.703125 50.40625 
L 42.203125 50.40625 
L 27.59375 26.59375 
L 44 0 
L 34.5 0 
L 22.90625 18.90625 
L 11.296875 0 
L 1.796875 0 
L 18.203125 26.59375 
z
" id="Apercu-78"/>
     </defs>
     <g style="opacity:0.75;" transform="translate(3431.194219 1214.044688)scale(0.14 -0.14)">
      <use xlink:href="#Apercu-78"/>
     </g>
    </g>
   </g>
   <g id="matplotlib.axis_2">
    <g id="ytick_1">
     <g id="line2d_17">
      <path clip-path="url(#pb4b81e4389)" d="M 777.6 1148.62266 
L 6091.2 1148.62266 
" style="fill:none;stroke:#b0b0b0;stroke-linecap:square;stroke-width:0.8;"/>
     </g>
     <g id="line2d_18">
      <defs>
       <path d="M 0 0 
L -3.5 0 
" id="me7d85d2b17" style="stroke:#000000;stroke-width:0.8;"/>
      </defs>
      <g>
       <use style="stroke:#000000;stroke-width:0.8;" x="777.6" xlink:href="#me7d85d2b17" y="1148.62266"/>
      </g>
     </g>
     <g id="text_10">
      <!-- −2 -->
      <defs>
       <path d="M 50.203125 25.296875 
L 9.796875 25.296875 
Q 9 25.296875 8.5 25.84375 
Q 8 26.40625 8 27.09375 
L 8 31.296875 
Q 8 32 8.5 32.546875 
Q 9 33.09375 9.796875 33.09375 
L 50.203125 33.09375 
Q 51 33.09375 51.5 32.546875 
Q 52 32 52 31.296875 
L 52 27.09375 
Q 52 26.40625 51.5 25.84375 
Q 51 25.296875 50.203125 25.296875 
z
" id="DecimaMonoPro-2212"/>
      </defs>
      <g style="fill:#303030;" transform="translate(753.8 1153.529223)scale(0.14 -0.14)">
       <use xlink:href="#DecimaMonoPro-2212"/>
       <use x="59.999985" xlink:href="#DecimaMonoPro-32"/>
      </g>
     </g>
    </g>
    <g id="ytick_2">
     <g id="line2d_19">
      <path clip-path="url(#pb4b81e4389)" d="M 777.6 979.171465 
L 6091.2 979.171465 
" style="fill:none;stroke:#b0b0b0;stroke-linecap:square;stroke-width:0.8;"/>
     </g>
     <g id="line2d_20">
      <g>
       <use style="stroke:#000000;stroke-width:0.8;" x="777.6" xlink:href="#me7d85d2b17" y="979.171465"/>
      </g>
     </g>
     <g id="text_11">
      <!-- −1 -->
      <g style="fill:#303030;" transform="translate(753.8 984.078028)scale(0.14 -0.14)">
       <use xlink:href="#DecimaMonoPro-2212"/>
       <use x="59.999985" xlink:href="#DecimaMonoPro-31"/>
      </g>
     </g>
    </g>
    <g id="ytick_3">
     <g id="line2d_21">
      <path clip-path="url(#pb4b81e4389)" d="M 777.6 809.72027 
L 6091.2 809.72027 
" style="fill:none;stroke:#b0b0b0;stroke-linecap:square;stroke-width:0.8;"/>
     </g>
     <g id="line2d_22">
      <g>
       <use style="stroke:#000000;stroke-width:0.8;" x="777.6" xlink:href="#me7d85d2b17" y="809.72027"/>
      </g>
     </g>
     <g id="text_12">
      <!-- 0 -->
      <g style="fill:#303030;" transform="translate(762.2 814.626833)scale(0.14 -0.14)">
       <use xlink:href="#DecimaMonoPro-30"/>
      </g>
     </g>
    </g>
    <g id="ytick_4">
     <g id="line2d_23">
      <path clip-path="url(#pb4b81e4389)" d="M 777.6 640.269075 
L 6091.2 640.269075 
" style="fill:none;stroke:#b0b0b0;stroke-linecap:square;stroke-width:0.8;"/>
     </g>
     <g id="line2d_24">
      <g>
       <use style="stroke:#000000;stroke-width:0.8;" x="777.6" xlink:href="#me7d85d2b17" y="640.269075"/>
      </g>
     </g>
     <g id="text_13">
      <!-- 1 -->
      <g style="fill:#303030;" transform="translate(762.2 645.175638)scale(0.14 -0.14)">
       <use xlink:href="#DecimaMonoPro-31"/>
      </g>
     </g>
    </g>
    <g id="ytick_5">
     <g id="line2d_25">
      <path clip-path="url(#pb4b81e4389)" d="M 777.6 470.81788 
L 6091.2 470.81788 
" style="fill:none;stroke:#b0b0b0;stroke-linecap:square;stroke-width:0.8;"/>
     </g>
     <g id="line2d_26">
      <g>
       <use style="stroke:#000000;stroke-width:0.8;" x="777.6" xlink:href="#me7d85d2b17" y="470.81788"/>
      </g>
     </g>
     <g id="text_14">
      <!-- 2 -->
      <g style="fill:#303030;" transform="translate(762.2 475.724443)scale(0.14 -0.14)">
       <use xlink:href="#DecimaMonoPro-32"/>
      </g>
     </g>
    </g>
    <g id="ytick_6">
     <g id="line2d_27">
      <path clip-path="url(#pb4b81e4389)" d="M 777.6 301.366686 
L 6091.2 301.366686 
" style="fill:none;stroke:#b0b0b0;stroke-linecap:square;stroke-width:0.8;"/>
     </g>
     <g id="line2d_28">
      <g>
       <use style="stroke:#000000;stroke-width:0.8;" x="777.6" xlink:href="#me7d85d2b17" y="301.366686"/>
      </g>
     </g>
     <g id="text_15">
      <!-- 3 -->
      <defs>
       <path d="M 46.203125 61.09375 
L 35.40625 47.09375 
Q 40.796875 46.40625 44.890625 41.953125 
Q 49 37.5 49 31.5 
L 49 17.5 
Q 49 9.796875 43.5 4.390625 
Q 38 -1 30 -1 
Q 21.796875 -1 16.34375 4.34375 
Q 10.90625 9.703125 10.90625 17.40625 
Q 10.90625 18.203125 11.5 18.796875 
Q 12.09375 19.40625 13.203125 19.40625 
L 17 19.40625 
Q 19.09375 19.40625 19.296875 17.40625 
Q 19.296875 13 22.390625 9.953125 
Q 25.5 6.90625 30 6.90625 
Q 34.40625 6.90625 37.5 9.953125 
Q 40.59375 13 40.59375 17.40625 
L 40.59375 31.40625 
Q 40.59375 34.59375 38.296875 36.9375 
Q 36 39.296875 32.703125 39.296875 
L 27.40625 39.296875 
Q 25.203125 39.296875 25.203125 41.59375 
L 25.203125 45 
Q 25.203125 46.703125 26.296875 48.203125 
L 36.59375 62.09375 
L 16.90625 62.09375 
Q 14.703125 62.09375 14.703125 64.40625 
L 14.703125 67.703125 
Q 14.703125 70 16.90625 70 
L 45.09375 70 
Q 47.296875 70 47.296875 67.703125 
L 47.296875 64.296875 
Q 47.296875 62.59375 46.203125 61.09375 
z
" id="DecimaMonoPro-33"/>
      </defs>
      <g style="fill:#303030;" transform="translate(762.2 306.273248)scale(0.14 -0.14)">
       <use xlink:href="#DecimaMonoPro-33"/>
      </g>
     </g>
    </g>
    <g id="text_16">
     <!-- P -->
     <defs>
      <path d="M 34.09375 30 
L 18.5 30 
L 18.5 0 
L 9.703125 0 
L 9.703125 70 
L 34.09375 70 
Q 43.90625 70 49.40625 64.59375 
Q 54.90625 59.203125 54.90625 50 
Q 54.90625 40.796875 49.40625 35.390625 
Q 43.90625 30 34.09375 30 
z
M 34.59375 38.40625 
Q 40 38.40625 42.890625 41.40625 
Q 45.796875 44.40625 45.796875 50 
Q 45.796875 55.59375 42.890625 58.59375 
Q 40 61.59375 34.59375 61.59375 
L 18.5 61.59375 
L 18.5 38.40625 
z
" id="Apercu-50"/>
     </defs>
     <g style="opacity:0.75;" transform="translate(746.943125 702.488438)rotate(-90)scale(0.14 -0.14)">
      <use xlink:href="#Apercu-50"/>
     </g>
    </g>
   </g>
   <g id="line2d_29">
    <path clip-path="url(#pb4b81e4389)" d="M 777.6 778.331565 
L 804.301508 816.942474 
L 831.003015 860.084215 
L 857.704523 1005.745761 
L 884.40603 893.032776 
L 911.107538 870.2996 
L 937.809045 900.548325 
L 964.510553 691.143877 
L 991.21206 734.489534 
L 1017.913568 819.86075 
L 1044.615075 842.151801 
L 1071.316583 862.968651 
L 1098.01809 898.0006 
L 1124.719598 749.367278 
L 1151.421106 857.414769 
L 1178.122613 780.02348 
L 1204.824121 817.747622 
L 1231.525628 853.723746 
L 1258.227136 895.642171 
L 1284.928643 878.334637 
L 1311.630151 867.50908 
L 1338.331658 850.245741 
L 1365.033166 871.292701 
L 1391.734673 949.889066 
L 1418.436181 849.614471 
L 1445.137688 785.759544 
L 1471.839196 804.506058 
L 1498.540704 778.56341 
L 1525.242211 750.957515 
L 1551.943719 807.788535 
L 1578.645226 733.142093 
L 1605.346734 777.051767 
L 1632.048241 812.562837 
L 1658.749749 744.629548 
L 1685.451256 816.850202 
L 1712.152764 759.823742 
L 1738.854271 783.067982 
L 1765.555779 725.759314 
L 1792.257286 743.711951 
L 1818.958794 771.990925 
L 1845.660302 733.460791 
L 1872.361809 829.674736 
L 1899.063317 758.442784 
L 1925.764824 812.212297 
L 1952.466332 753.561047 
L 1979.167839 858.461773 
L 2005.869347 761.067537 
L 2032.570854 823.094861 
L 2059.272362 794.605187 
L 2085.973869 699.617125 
L 2112.675377 733.824737 
L 2139.376884 807.473328 
L 2166.078392 743.805281 
L 2192.779899 819.597869 
L 2219.481407 753.713564 
L 2246.182915 719.785012 
L 2272.884422 787.562221 
L 2299.58593 763.678377 
L 2326.287437 789.355163 
L 2352.988945 762.871158 
L 2379.690452 578.967741 
L 2406.39196 848.517625 
L 2433.093467 578.55887 
L 2459.794975 799.575238 
L 2486.496482 603.714832 
L 2513.19799 592.78782 
L 2539.899497 623.758417 
L 2566.601005 615.4105 
L 2593.302513 745.100525 
L 2620.00402 818.48287 
L 2646.705528 693.282356 
L 2673.407035 710.486112 
L 2700.108543 848.009553 
L 2726.81005 694.376306 
L 2753.511558 797.271943 
L 2780.213065 765.003588 
L 2806.914573 827.585242 
L 2833.61608 833.270098 
L 2860.317588 767.646998 
L 2887.019095 670.697016 
L 2913.720603 715.040197 
L 2940.422111 767.202597 
L 2967.123618 807.321532 
L 2993.825126 570.1773 
L 3020.526633 603.707822 
L 3047.228141 600.530641 
L 3073.929648 464.189603 
L 3100.631156 632.995807 
L 3127.332663 534.002314 
L 3154.034171 649.530261 
L 3180.735678 735.248126 
L 3207.437186 745.508083 
L 3234.138693 633.022087 
L 3260.840201 707.101314 
L 3287.541709 698.776132 
L 3314.243216 671.41001 
L 3340.944724 676.842055 
L 3367.646231 598.387525 
L 3394.347739 693.935377 
L 3421.049246 472.992872 
L 3447.750754 450.687414 
L 3474.452261 519.28351 
L 3501.153769 524.783952 
L 3527.855276 604.155761 
L 3554.556784 635.495496 
L 3581.258291 623.872628 
L 3607.959799 645.232436 
L 3634.661307 689.485959 
L 3661.362814 554.196228 
L 3688.064322 592.146283 
L 3714.765829 633.999028 
L 3741.467337 687.615606 
L 3768.168844 560.223895 
L 3794.870352 594.440798 
L 3821.571859 607.557528 
L 3848.273367 671.470257 
L 3874.974874 636.094572 
L 3901.676382 768.557348 
L 3928.377889 700.98409 
L 3955.079397 794.937502 
L 3981.780905 717.287778 
L 4008.482412 926.070112 
L 4035.18392 997.538033 
L 4061.885427 971.149074 
L 4088.586935 1010.042859 
L 4115.288442 900.438396 
L 4141.98995 964.597123 
L 4168.691457 1051.187144 
L 4195.392965 1136.945455 
L 4222.094472 1061.419837 
L 4248.79598 953.986657 
L 4275.497487 1076.60185 
L 4302.198995 1010.179695 
L 4328.900503 1000.936063 
L 4355.60201 923.686695 
L 4382.303518 888.439538 
L 4409.005025 736.763663 
L 4435.706533 678.81866 
L 4462.40804 747.637417 
L 4489.109548 725.510767 
L 4515.811055 983.34908 
L 4542.512563 841.583576 
L 4569.21407 759.234893 
L 4595.915578 954.503307 
L 4622.617085 959.209903 
L 4649.318593 830.605011 
L 4676.020101 824.902729 
L 4702.721608 807.667691 
L 4729.423116 737.146572 
L 4756.124623 771.178157 
L 4782.826131 852.659551 
L 4809.527638 851.197537 
L 4836.229146 793.613833 
L 4862.930653 766.745397 
L 4889.632161 817.021475 
L 4916.333668 769.252246 
L 4943.035176 818.997534 
L 4969.736683 767.114777 
L 4996.438191 806.683757 
L 5023.139698 823.446814 
L 5049.841206 833.651219 
L 5076.542714 709.727001 
L 5103.244221 698.21379 
L 5129.945729 737.547646 
L 5156.647236 786.364503 
L 5183.348744 751.668177 
L 5210.050251 762.457095 
L 5236.751759 773.739249 
L 5263.453266 843.493712 
L 5290.154774 756.404113 
L 5316.856281 829.461713 
L 5343.557789 773.763744 
L 5370.259296 882.514145 
L 5396.960804 771.833435 
L 5423.662312 766.744866 
L 5450.363819 824.999304 
L 5477.065327 749.741026 
L 5503.766834 791.83414 
L 5530.468342 829.679819 
L 5557.169849 781.023625 
L 5583.871357 683.916897 
L 5610.572864 665.310088 
L 5637.274372 643.405806 
L 5663.975879 619.274386 
L 5690.677387 556.599037 
L 5717.378894 756.662115 
L 5744.080402 612.632575 
L 5770.78191 647.913572 
L 5797.483417 679.025914 
L 5824.184925 778.514354 
L 5850.886432 772.901634 
L 5877.58794 779.963632 
L 5904.289447 667.276846 
L 5930.990955 755.742392 
L 5957.692462 812.300221 
L 5984.39397 793.333619 
L 6011.095477 687.638473 
L 6037.796985 744.782625 
L 6064.498492 751.800573 
L 6091.2 685.745597 
L 6091.2 685.745597 
" style="fill:none;stroke:#000004;stroke-width:3;"/>
   </g>
   <g id="line2d_30">
    <path clip-path="url(#pb4b81e4389)" d="M 777.6 880.495067 
L 804.301508 779.777087 
L 831.003015 964.880401 
L 857.704523 1001.628852 
L 884.40603 821.969754 
L 911.107538 872.328744 
L 937.809045 782.499195 
L 964.510553 836.941346 
L 991.21206 936.298271 
L 1017.913568 894.105604 
L 1044.615075 902.271927 
L 1071.316583 865.523475 
L 1098.01809 831.497131 
L 1124.719598 899.549819 
L 1151.421106 832.858184 
L 1178.122613 832.858184 
L 1204.824121 902.271927 
L 1231.525628 841.024507 
L 1258.227136 899.549819 
L 1284.928643 900.910873 
L 1311.630151 813.803432 
L 1338.331658 855.996099 
L 1365.033166 896.827712 
L 1391.734673 796.109733 
L 1418.436181 760.722334 
L 1445.137688 759.361281 
L 1471.839196 759.361281 
L 1498.540704 842.385561 
L 1525.242211 868.245583 
L 1551.943719 759.361281 
L 1578.645226 820.6087 
L 1605.346734 861.440314 
L 1632.048241 714.446506 
L 1658.749749 802.915001 
L 1685.451256 806.998163 
L 1712.152764 831.497131 
L 1738.854271 917.243518 
L 1765.555779 805.637109 
L 1792.257286 704.91913 
L 1818.958794 700.835968 
L 1845.660302 809.72027 
L 1872.361809 834.219238 
L 1899.063317 758.000227 
L 1925.764824 695.391753 
L 1952.466332 870.96769 
L 1979.167839 758.000227 
L 2005.869347 808.359216 
L 2032.570854 756.639173 
L 2059.272362 691.308592 
L 2085.973869 689.947538 
L 2112.675377 748.47285 
L 2139.376884 685.864377 
L 2166.078392 823.330808 
L 2192.779899 714.446506 
L 2219.481407 714.446506 
L 2246.182915 881.85612 
L 2272.884422 849.19083 
L 2299.58593 847.829776 
L 2326.287437 748.47285 
L 2352.988945 711.724399 
L 2379.690452 653.199086 
L 2406.39196 714.446506 
L 2433.093467 763.444442 
L 2459.794975 766.166549 
L 2486.496482 766.166549 
L 2513.19799 650.476979 
L 2539.899497 654.56014 
L 2566.601005 764.805496 
L 2593.302513 764.805496 
L 2620.00402 932.21511 
L 2646.705528 817.886593 
L 2673.407035 819.247647 
L 2700.108543 932.21511 
L 2726.81005 800.192894 
L 2753.511558 681.781215 
L 2780.213065 770.249711 
L 2806.914573 674.975947 
L 2833.61608 768.888657 
L 2860.317588 766.166549 
L 2887.019095 632.78328 
L 2913.720603 730.779151 
L 2940.422111 767.527603 
L 2967.123618 576.980075 
L 2993.825126 741.667582 
L 3020.526633 598.756935 
L 3047.228141 421.819945 
L 3073.929648 581.063236 
L 3100.631156 504.844225 
L 3127.332663 605.562204 
L 3154.034171 589.229559 
L 3180.735678 640.949602 
L 3207.437186 508.927386 
L 3234.138693 722.612829 
L 3260.840201 722.612829 
L 3287.541709 717.168614 
L 3314.243216 722.612829 
L 3340.944724 646.393817 
L 3367.646231 522.537924 
L 3394.347739 513.010547 
L 3421.049246 342.878826 
L 3447.750754 329.268288 
L 3474.452261 327.907234 
L 3501.153769 555.203214 
L 3527.855276 685.864377 
L 3554.556784 530.704247 
L 3581.258291 560.64743 
L 3607.959799 632.78328 
L 3634.661307 555.203214 
L 3661.362814 628.700118 
L 3688.064322 760.722334 
L 3714.765829 631.422226 
L 3741.467337 594.673774 
L 3768.168844 647.754871 
L 3794.870352 649.115925 
L 3821.571859 792.026571 
L 3848.273367 745.750743 
L 3874.974874 619.172742 
L 3901.676382 883.217174 
L 3928.377889 830.136077 
L 3955.079397 745.750743 
L 3981.780905 888.661389 
L 4008.482412 1020.683605 
L 4035.18392 802.915001 
L 4061.885427 832.858184 
L 4088.586935 831.497131 
L 4115.288442 832.858184 
L 4141.98995 875.050851 
L 4168.691457 997.545691 
L 4195.392965 1076.48681 
L 4222.094472 821.969754 
L 4248.79598 968.963562 
L 4275.497487 1024.766767 
L 4302.198995 800.192894 
L 4328.900503 801.553948 
L 4355.60201 959.436185 
L 4382.303518 956.714078 
L 4409.005025 812.442378 
L 4435.706533 774.332872 
L 4462.40804 839.663453 
L 4489.109548 845.107668 
L 4515.811055 896.827712 
L 4542.512563 747.111797 
L 4569.21407 900.910873 
L 4595.915578 885.939282 
L 4622.617085 986.657261 
L 4649.318593 841.024507 
L 4676.020101 811.081324 
L 4702.721608 615.089581 
L 4729.423116 653.199086 
L 4756.124623 910.43825 
L 4782.826131 744.389689 
L 4809.527638 846.468722 
L 4836.229146 751.194958 
L 4862.930653 721.251775 
L 4889.632161 855.996099 
L 4916.333668 691.308592 
L 4943.035176 740.306528 
L 4969.736683 857.357152 
L 4996.438191 808.359216 
L 5023.139698 911.799303 
L 5049.841206 911.799303 
L 5076.542714 721.251775 
L 5103.244221 743.028635 
L 5129.945729 722.612829 
L 5156.647236 774.332872 
L 5183.348744 775.693926 
L 5210.050251 827.413969 
L 5236.751759 913.160357 
L 5263.453266 779.777087 
L 5290.154774 775.693926 
L 5316.856281 808.359216 
L 5343.557789 887.300335 
L 5370.259296 811.081324 
L 5396.960804 755.278119 
L 5423.662312 651.838032 
L 5450.363819 649.115925 
L 5477.065327 813.803432 
L 5503.766834 802.915001 
L 5530.468342 838.3024 
L 5557.169849 707.641237 
L 5583.871357 553.842161 
L 5610.572864 572.896914 
L 5637.274372 391.876762 
L 5663.975879 389.154654 
L 5690.677387 259.854545 
L 5717.378894 725.334936 
L 5744.080402 575.619021 
L 5770.78191 461.290504 
L 5797.483417 681.781215 
L 5824.184925 836.941346 
L 5850.886432 593.31272 
L 5877.58794 597.395881 
L 5904.289447 702.197022 
L 5930.990955 684.503323 
L 5957.692462 541.592677 
L 5984.39397 672.253839 
L 6011.095477 540.231623 
L 6037.796985 670.892785 
L 6064.498492 590.590613 
L 6091.2 802.915001 
L 6091.2 802.915001 
" style="fill:none;stroke:#b73779;stroke-width:3;"/>
   </g>
   <g id="line2d_31">
    <path clip-path="url(#pb4b81e4389)" d="M 777.6 809.72027 
L 6091.2 809.72027 
" style="fill:none;opacity:0.7;stroke:#000000;stroke-width:1.3;"/>
   </g>
   <g id="patch_3">
    <path d="M 777.6 1180.8 
L 777.6 216 
" style="fill:none;stroke:#000000;stroke-linecap:square;stroke-linejoin:miter;stroke-width:0.8;"/>
   </g>
   <g id="patch_4">
    <path d="M 6091.2 1180.8 
L 6091.2 216 
" style="fill:none;stroke:#000000;stroke-linecap:square;stroke-linejoin:miter;stroke-width:0.8;"/>
   </g>
   <g id="patch_5">
    <path d="M 777.6 1180.8 
L 6091.2 1180.8 
" style="fill:none;stroke:#000000;stroke-linecap:square;stroke-linejoin:miter;stroke-width:0.8;"/>
   </g>
   <g id="patch_6">
    <path d="M 777.6 216 
L 6091.2 216 
" style="fill:none;stroke:#000000;stroke-linecap:square;stroke-linejoin:miter;stroke-width:0.8;"/>
   </g>
   <g id="patch_7">
    <path d="M 0 1440 
L 6480 1440 
L 6480 1416.729153 
L 0 1416.729153 
z
" style="fill:#808080;"/>
   </g>
   <g id="text_17">
    <!-- ©spred -->
    <defs>
     <path d="M 50.90625 25.90625 
L 50.90625 44 
Q 50.90625 52.40625 44.75 58.40625 
Q 38.59375 64.40625 30 64.40625 
Q 21.296875 64.40625 15.09375 58.40625 
Q 8.90625 52.40625 8.90625 44 
L 8.90625 25.90625 
Q 8.90625 17.5 15.09375 11.453125 
Q 21.296875 5.40625 30 5.40625 
Q 38.59375 5.40625 44.75 11.453125 
Q 50.90625 17.5 50.90625 25.90625 
z
M 57.703125 43.203125 
L 57.703125 26.59375 
Q 57.703125 15.203125 49.59375 7.09375 
Q 41.5 -1 30 -1 
Q 18.40625 -1 10.296875 7.09375 
Q 2.203125 15.203125 2.203125 26.59375 
L 2.203125 43.203125 
Q 2.203125 54.59375 10.296875 62.6875 
Q 18.40625 70.796875 30 70.796875 
Q 41.5 70.796875 49.59375 62.6875 
Q 57.703125 54.59375 57.703125 43.203125 
z
M 38.59375 29.40625 
L 41.40625 29.40625 
Q 42.40625 29.40625 42.90625 28.84375 
Q 43.40625 28.296875 43.40625 27.59375 
Q 43.40625 21.59375 39.796875 17.9375 
Q 36.203125 14.296875 30.40625 14.296875 
Q 24.40625 14.296875 20.75 17.9375 
Q 17.09375 21.59375 17.09375 27.09375 
L 17.09375 43.40625 
Q 17.09375 48.703125 20.75 52.390625 
Q 24.40625 56.09375 30.40625 56.09375 
Q 35.90625 56.09375 39.40625 52.25 
Q 42.90625 48.40625 42.90625 42.296875 
Q 42.90625 41.59375 42.40625 41.046875 
Q 41.90625 40.5 40.90625 40.5 
L 38.09375 40.5 
Q 37.09375 40.5 36.546875 41.046875 
Q 36 41.59375 36 42.296875 
Q 36 45.203125 34.390625 47.046875 
Q 32.796875 48.90625 30.40625 48.90625 
Q 27.703125 48.90625 25.796875 46.90625 
Q 23.90625 44.90625 23.90625 42.203125 
L 23.90625 28.203125 
Q 23.90625 25.59375 25.796875 23.59375 
Q 27.703125 21.59375 30.40625 21.59375 
Q 32.90625 21.59375 34.703125 23.1875 
Q 36.5 24.796875 36.5 27.59375 
Q 36.5 28.296875 37.046875 28.84375 
Q 37.59375 29.40625 38.59375 29.40625 
z
" id="DecimaMonoPro-a9"/>
     <path d="M 30.09375 -1 
Q 25.296875 -1 21.546875 0.59375 
Q 17.796875 2.203125 15.84375 4.59375 
Q 13.90625 7 12.953125 9.390625 
Q 12 11.796875 12 14 
Q 12 14.796875 12.5 15.296875 
Q 13 15.796875 13.796875 15.796875 
L 18.296875 15.796875 
Q 19.90625 15.796875 20.09375 14.09375 
Q 20.40625 11.203125 22.796875 8.703125 
Q 25.203125 6.203125 30.09375 6.203125 
Q 34.296875 6.203125 36.890625 8.296875 
Q 39.5 10.40625 39.5 13.59375 
Q 39.5 16.5 36.84375 18.5 
Q 34.203125 20.5 30.390625 21.84375 
Q 26.59375 23.203125 22.84375 24.796875 
Q 19.09375 26.40625 16.4375 29.5 
Q 13.796875 32.59375 13.796875 37.09375 
Q 13.796875 43.296875 18.4375 47.140625 
Q 23.09375 51 30.703125 51 
Q 38.90625 51 43.25 46.5 
Q 47.59375 42 47.59375 37.5 
Q 47.59375 36.796875 47.09375 36.25 
Q 46.59375 35.703125 45.796875 35.703125 
L 41.203125 35.703125 
Q 39.703125 35.703125 39.40625 37.40625 
Q 38.90625 40 36.75 41.890625 
Q 34.59375 43.796875 30.703125 43.796875 
Q 26.90625 43.796875 24.546875 42.09375 
Q 22.203125 40.40625 22.203125 37.703125 
Q 22.203125 35 24.84375 33.09375 
Q 27.5 31.203125 31.25 29.890625 
Q 35 28.59375 38.703125 26.9375 
Q 42.40625 25.296875 45.046875 21.84375 
Q 47.703125 18.40625 47.703125 13.40625 
Q 47.703125 7.40625 42.59375 3.203125 
Q 37.5 -1 30.09375 -1 
z
" id="DecimaMonoPro-73"/>
     <path d="M 42.09375 17.09375 
L 42.09375 33.09375 
Q 42.09375 37.703125 38.84375 40.796875 
Q 35.59375 43.90625 30.5 43.90625 
Q 25.40625 43.90625 22.046875 40.75 
Q 18.703125 37.59375 18.703125 33 
L 18.703125 17.09375 
Q 18.703125 12.5 22.046875 9.390625 
Q 25.40625 6.296875 30.5 6.296875 
Q 35.59375 6.296875 38.84375 9.390625 
Q 42.09375 12.5 42.09375 17.09375 
z
M 18.703125 3.703125 
L 18.796875 -16.203125 
Q 18.796875 -18 16.5 -18 
L 13 -18 
Q 10.703125 -18 10.703125 -16.203125 
L 10.703125 48.203125 
Q 10.703125 50 13 50 
L 15.90625 50 
Q 18.203125 50 18.203125 48.203125 
L 18.203125 45.90625 
Q 18.59375 46.5 19.5 47.34375 
Q 20.40625 48.203125 23.75 49.59375 
Q 27.09375 51 31.296875 51 
Q 39.296875 51 44.796875 45.640625 
Q 50.296875 40.296875 50.296875 32.59375 
L 50.296875 17.40625 
Q 50.296875 9.796875 44.75 4.390625 
Q 39.203125 -1 31.296875 -1 
Q 27.40625 -1 24.25 0.203125 
Q 21.09375 1.40625 19.90625 2.59375 
z
" id="DecimaMonoPro-70"/>
     <path d="M 37.203125 51 
Q 44.09375 51 48.140625 46.453125 
Q 52.203125 41.90625 52.203125 37.5 
Q 52.203125 35.703125 50.5 35.703125 
L 45.90625 35.703125 
Q 44.296875 35.703125 44.09375 37.40625 
Q 43.796875 39.796875 41.75 41.796875 
Q 39.703125 43.796875 36.59375 43.796875 
Q 32.40625 43.796875 29.203125 40.796875 
Q 26 37.796875 26 34 
L 26 7.203125 
L 45.09375 7.203125 
Q 45.796875 7.203125 46.34375 6.703125 
Q 46.90625 6.203125 46.90625 5.40625 
L 46.90625 1.796875 
Q 46.90625 1 46.34375 0.5 
Q 45.796875 0 45.09375 0 
L 9.296875 0 
Q 8.59375 0 8.046875 0.5 
Q 7.5 1 7.5 1.796875 
L 7.5 5.40625 
Q 7.5 6.203125 8.046875 6.703125 
Q 8.59375 7.203125 9.296875 7.203125 
L 18 7.203125 
L 18 48.203125 
Q 18 50 20.296875 50 
L 23.5 50 
Q 25.796875 50 25.796875 48.203125 
L 25.796875 45.703125 
Q 29.796875 51 37.203125 51 
z
" id="DecimaMonoPro-72"/>
     <path d="M 48.796875 13.5 
Q 48.796875 9.09375 43.75 4.046875 
Q 38.703125 -1 30.203125 -1 
Q 21.203125 -1 15.75 4.453125 
Q 10.296875 9.90625 10.296875 17.5 
L 10.296875 32.703125 
Q 10.296875 40.203125 15.75 45.59375 
Q 21.203125 51 30.203125 51 
Q 39.203125 51 44.453125 45.59375 
Q 49.703125 40.203125 49.703125 32.703125 
L 49.703125 24.796875 
Q 49.703125 23.796875 49.046875 23.140625 
Q 48.40625 22.5 47.40625 22.5 
L 18.40625 22.5 
L 18.40625 17 
Q 18.40625 12.5 21.65625 9.296875 
Q 24.90625 6.09375 30.203125 6.09375 
Q 38.5 6.09375 40.59375 13.59375 
Q 41.09375 15.296875 42.40625 15.296875 
L 47 15.296875 
Q 47.796875 15.296875 48.296875 14.75 
Q 48.796875 14.203125 48.796875 13.5 
z
M 18.40625 33 
L 18.40625 29.703125 
L 41.796875 29.703125 
L 41.796875 33 
Q 41.796875 37.5 38.640625 40.640625 
Q 35.5 43.796875 30.203125 43.796875 
Q 24.90625 43.796875 21.65625 40.640625 
Q 18.40625 37.5 18.40625 33 
z
" id="DecimaMonoPro-65"/>
     <path d="M 17.90625 32.90625 
L 17.90625 16.90625 
Q 17.90625 12.296875 21.15625 9.1875 
Q 24.40625 6.09375 29.5 6.09375 
Q 34.59375 6.09375 37.9375 9.25 
Q 41.296875 12.40625 41.296875 17 
L 41.296875 32.90625 
Q 41.296875 37.5 37.9375 40.59375 
Q 34.59375 43.703125 29.5 43.703125 
Q 24.40625 43.703125 21.15625 40.59375 
Q 17.90625 37.5 17.90625 32.90625 
z
M 41.296875 46.296875 
L 41.203125 68.203125 
Q 41.203125 70 43.5 70 
L 47 70 
Q 49.296875 70 49.296875 68.203125 
L 49.296875 1.796875 
Q 49.296875 0 47 0 
L 44.09375 0 
Q 41.796875 0 41.796875 1.796875 
L 41.796875 4.09375 
Q 41.40625 3.5 40.5 2.640625 
Q 39.59375 1.796875 36.25 0.390625 
Q 32.90625 -1 28.703125 -1 
Q 20.703125 -1 15.203125 4.34375 
Q 9.703125 9.703125 9.703125 17.40625 
L 9.703125 32.59375 
Q 9.703125 40.203125 15.25 45.59375 
Q 20.796875 51 28.703125 51 
Q 32.59375 51 35.75 49.796875 
Q 38.90625 48.59375 40.09375 47.40625 
z
" id="DecimaMonoPro-64"/>
    </defs>
    <g style="fill:#ffffff;" transform="translate(64.8 1432.8)scale(0.14 -0.14)">
     <use xlink:href="#DecimaMonoPro-a9"/>
     <use x="59.999985" xlink:href="#DecimaMonoPro-73"/>
     <use x="119.999969" xlink:href="#DecimaMonoPro-70"/>
     <use x="179.999954" xlink:href="#DecimaMonoPro-72"/>
     <use x="239.999939" xlink:href="#DecimaMonoPro-65"/>
     <use x="299.999924" xlink:href="#DecimaMonoPro-64"/>
    </g>
   </g>
   <g id="text_18">
    <!-- IOTABTC_drop -->
    <defs>
     <path d="M 9.40625 0 
L 20.40625 0 
L 20.40625 70 
L 9.40625 70 
z
" id="ApercuPro-Medium-49"/>
     <path d="M 37.203125 70.796875 
C 20.09375 70.796875 5.09375 58.90625 5.09375 35 
C 5.09375 11.09375 20.09375 -0.796875 37.203125 -0.796875 
C 54.296875 -0.796875 69.296875 11.09375 69.296875 35 
C 69.296875 58.90625 54.296875 70.796875 37.203125 70.796875 
z
M 37.203125 60.40625 
C 48.5 60.40625 58.09375 52.296875 58.09375 35 
C 58.09375 17.703125 48.5 9.59375 37.203125 9.59375 
C 25.90625 9.59375 16.296875 17.703125 16.296875 35 
C 16.296875 52.296875 25.90625 60.40625 37.203125 60.40625 
z
" id="ApercuPro-Medium-4f"/>
     <path d="M 1.09375 59.59375 
L 20.703125 59.59375 
L 20.703125 0 
L 31.703125 0 
L 31.703125 59.59375 
L 51.296875 59.59375 
L 51.296875 70 
L 1.09375 70 
z
" id="ApercuPro-Medium-54"/>
     <path d="M 25.203125 70 
L 0.90625 0 
L 12.09375 0 
L 17.90625 17.40625 
L 42.90625 17.40625 
L 48.703125 0 
L 59.90625 0 
L 35.59375 70 
z
M 30.40625 56.09375 
L 39.59375 27.796875 
L 21.203125 27.796875 
z
" id="ApercuPro-Medium-41"/>
     <path d="M 9.40625 70 
L 9.40625 0 
L 35.40625 0 
C 49.203125 0 57.40625 7.5 57.40625 20.59375 
C 57.40625 28.703125 53.296875 35.40625 46.703125 38.203125 
C 50.796875 40.40625 53.796875 46.296875 53.796875 51.703125 
C 53.796875 63.796875 45.796875 70 34.203125 70 
z
M 33.203125 59.59375 
C 39.40625 59.59375 42.796875 56.703125 42.796875 51 
C 42.796875 45.296875 39.40625 42.40625 33.203125 42.40625 
L 20.40625 42.40625 
L 20.40625 59.59375 
z
M 33.90625 32 
C 42 32 46.203125 28.203125 46.203125 21.203125 
C 46.203125 14.203125 42 10.40625 33.90625 10.40625 
L 20.40625 10.40625 
L 20.40625 32 
z
" id="ApercuPro-Medium-42"/>
     <path d="M 65.796875 49.59375 
C 62.203125 62.796875 52.40625 70.796875 37.5 70.796875 
C 20.59375 70.796875 5.09375 58.703125 5.09375 35 
C 5.09375 11.296875 20.59375 -0.796875 37.5 -0.796875 
C 52.40625 -0.796875 62.203125 7.203125 65.796875 20.40625 
L 55.40625 23 
C 51.90625 14.09375 47 9.59375 37.5 9.59375 
C 25.703125 9.59375 16.296875 17.90625 16.296875 35 
C 16.296875 52.09375 25.703125 60.40625 37.5 60.40625 
C 47 60.40625 51.90625 55.90625 55.40625 47 
z
" id="ApercuPro-Medium-43"/>
     <path d="M 2.703125 -9.203125 
L 47.203125 -9.203125 
L 47.203125 0 
L 2.703125 0 
z
" id="ApercuPro-Medium-5f"/>
     <path d="M 4.90625 25.203125 
C 4.90625 9.09375 12.5 -0.796875 27.40625 -0.796875 
C 34 -0.796875 39.40625 2.90625 41.09375 5.796875 
L 41.09375 0 
L 51.5 0 
L 51.5 70.796875 
L 41.09375 70.796875 
L 41.09375 44.796875 
C 38.796875 48.09375 32.59375 51.203125 27.59375 51.203125 
C 12.5 51.203125 4.90625 40.796875 4.90625 25.203125 
z
M 15.90625 25.203125 
C 15.90625 35.59375 21.296875 42 28.796875 42 
C 36.296875 42 41.703125 35.59375 41.703125 25.203125 
C 41.703125 14.796875 36.296875 8.40625 28.796875 8.40625 
C 21.296875 8.40625 15.90625 14.796875 15.90625 25.203125 
z
" id="ApercuPro-Medium-64"/>
     <path d="M 19 0 
L 19 18.703125 
C 19 34.59375 25.90625 42 32.59375 42 
C 34.703125 42 36.90625 41.5 38.5 40.5 
L 40.296875 50 
C 38.796875 50.59375 36.59375 51.203125 33.90625 51.203125 
C 28.5 51.203125 22.5 48 19 42 
L 19 50.40625 
L 8.59375 50.40625 
L 8.59375 0 
z
" id="ApercuPro-Medium-72"/>
     <path d="M 4.90625 25.203125 
C 4.90625 11 14.09375 -0.796875 29.703125 -0.796875 
C 45.296875 -0.796875 54.5 11 54.5 25.203125 
C 54.5 39.40625 45.296875 51.203125 29.703125 51.203125 
C 14.09375 51.203125 4.90625 39.40625 4.90625 25.203125 
z
M 15.90625 25.203125 
C 15.90625 33.703125 20.59375 42 29.703125 42 
C 38.796875 42 43.5 33.703125 43.5 25.203125 
C 43.5 16.703125 38.796875 8.40625 29.703125 8.40625 
C 20.59375 8.40625 15.90625 16.703125 15.90625 25.203125 
z
" id="ApercuPro-Medium-6f"/>
     <path d="M 55.203125 25.203125 
C 55.203125 41.296875 47.59375 51.203125 32.703125 51.203125 
C 26.09375 51.203125 20.703125 47.5 19 44.59375 
L 19 50.40625 
L 8.59375 50.40625 
L 8.59375 -20.40625 
L 19 -20.40625 
L 19 5.59375 
C 21.296875 2.296875 26.296875 -0.796875 32.5 -0.796875 
C 47.59375 -0.796875 55.203125 9.59375 55.203125 25.203125 
z
M 44.203125 25.203125 
C 44.203125 14.796875 38.796875 8.40625 31.296875 8.40625 
C 23.796875 8.40625 18.40625 14.796875 18.40625 25.203125 
C 18.40625 35.59375 23.796875 42 31.296875 42 
C 38.796875 42 44.203125 35.59375 44.203125 25.203125 
z
" id="ApercuPro-Medium-70"/>
    </defs>
    <g style="opacity:0.75;" transform="translate(1044 144)scale(0.3 -0.3)">
     <use xlink:href="#ApercuPro-Medium-49"/>
     <use x="29.799988" xlink:href="#ApercuPro-Medium-4f"/>
     <use x="104.199982" xlink:href="#ApercuPro-Medium-54"/>
     <use x="156.506226" xlink:href="#ApercuPro-Medium-41"/>
     <use x="217.290588" xlink:href="#ApercuPro-Medium-42"/>
     <use x="279.590576" xlink:href="#ApercuPro-Medium-54"/>
     <use x="331.974945" xlink:href="#ApercuPro-Medium-43"/>
     <use x="401.47493" xlink:href="#ApercuPro-Medium-5f"/>
     <use x="451.374924" xlink:href="#ApercuPro-Medium-64"/>
     <use x="511.42804" xlink:href="#ApercuPro-Medium-72"/>
     <use x="553.128036" xlink:href="#ApercuPro-Medium-6f"/>
     <use x="612.52803" xlink:href="#ApercuPro-Medium-70"/>
    </g>
   </g>
   <g id="text_19">
    <!-- None -->
    <defs>
     <path d="M 51.59375 70 
L 60.40625 70 
L 60.40625 0 
L 50.09375 0 
L 18.5 54.5 
L 18.5 0 
L 9.703125 0 
L 9.703125 70 
L 20 70 
L 51.59375 15.296875 
z
" id="Apercu-4e"/>
     <path d="M 12 6.796875 
Q 5.40625 14.5 5.40625 25.203125 
Q 5.40625 35.90625 12.046875 43.546875 
Q 18.703125 51.203125 29.59375 51.203125 
Q 40.5 51.203125 47.140625 43.546875 
Q 53.796875 35.90625 53.796875 25.203125 
Q 53.796875 14.5 47.140625 6.84375 
Q 40.5 -0.796875 29.59375 -0.796875 
Q 18.703125 -0.796875 12 6.796875 
z
M 18.09375 38.09375 
Q 14 32.703125 14 25.203125 
Q 14 17.703125 18.140625 12.25 
Q 22.296875 6.796875 29.59375 6.796875 
Q 36.90625 6.796875 41.046875 12.25 
Q 45.203125 17.703125 45.203125 25.203125 
Q 45.203125 32.703125 41.046875 38.140625 
Q 36.90625 43.59375 29.59375 43.59375 
Q 22.296875 43.59375 18.09375 38.09375 
z
" id="Apercu-6f"/>
     <path d="M 49.09375 35.5 
L 49.09375 0 
L 40.703125 0 
L 40.703125 33.296875 
Q 40.703125 43.59375 32 43.59375 
Q 26.09375 43.59375 21.84375 37.390625 
Q 17.59375 31.203125 17.59375 21.09375 
L 17.59375 0 
L 9.203125 0 
L 9.203125 50.40625 
L 17.59375 50.40625 
L 17.59375 41.09375 
Q 23.296875 51.203125 34.296875 51.203125 
Q 41.203125 51.203125 45.140625 47.09375 
Q 49.09375 43 49.09375 35.5 
z
" id="Apercu-6e"/>
     <path d="M 51 27.296875 
L 51 23.40625 
L 14 23.40625 
Q 14.40625 16 18.046875 11.390625 
Q 21.703125 6.796875 28.203125 6.796875 
Q 33.5 6.796875 36.75 9.140625 
Q 40 11.5 42.203125 16.40625 
L 49.59375 13.203125 
Q 46.09375 5.796875 41.046875 2.5 
Q 36 -0.796875 28.203125 -0.796875 
Q 17.296875 -0.796875 11.34375 6.75 
Q 5.40625 14.296875 5.40625 25.1875 
Q 5.40625 36.09375 11.34375 43.640625 
Q 17.296875 51.203125 28.203125 51.203125 
Q 38.90625 51.203125 44.953125 44.25 
Q 51 37.296875 51 27.296875 
z
M 28.203125 43.59375 
Q 22.59375 43.59375 19.140625 40.1875 
Q 15.703125 36.796875 14.5 31 
L 42.203125 31 
Q 41 36.703125 37.5 40.140625 
Q 34 43.59375 28.203125 43.59375 
z
" id="Apercu-65"/>
    </defs>
    <g style="opacity:0.75;" transform="translate(1045 158.4)scale(0.14 -0.14)">
     <use xlink:href="#Apercu-4e"/>
     <use x="70.099991" xlink:href="#Apercu-6f"/>
     <use x="129.299988" xlink:href="#Apercu-6e"/>
     <use x="186.999985" xlink:href="#Apercu-65"/>
    </g>
   </g>
   <g id="legend_1">
    <g id="patch_8">
     <path d="M 5997.58375 266.736875 
L 6081.4 266.736875 
Q 6084.2 266.736875 6084.2 263.936875 
L 6084.2 225.8 
Q 6084.2 223 6081.4 223 
L 5997.58375 223 
Q 5994.78375 223 5994.78375 225.8 
L 5994.78375 263.936875 
Q 5994.78375 266.736875 5997.58375 266.736875 
z
" style="fill:#f0f0f0;opacity:0.8;stroke:#cccccc;stroke-linejoin:miter;stroke-width:0.5;"/>
    </g>
    <g id="line2d_32">
     <path d="M 6000.38375 233.611563 
L 6028.38375 233.611563 
" style="fill:none;stroke:#000004;stroke-width:3;"/>
    </g>
    <g id="line2d_33"/>
    <g id="text_20">
     <!-- pred -->
     <defs>
      <path d="M 32.296875 -0.796875 
Q 27.796875 -0.796875 23.390625 1.390625 
Q 19 3.59375 17.59375 6 
L 17.59375 -20.40625 
L 9.203125 -20.40625 
L 9.203125 50.40625 
L 17.59375 50.40625 
L 17.59375 44.203125 
Q 19.5 47.09375 23.640625 49.140625 
Q 27.796875 51.203125 32.296875 51.203125 
Q 43.09375 51.203125 48.890625 44.046875 
Q 54.703125 36.90625 54.703125 25.203125 
Q 54.703125 13.5 48.890625 6.34375 
Q 43.09375 -0.796875 32.296875 -0.796875 
z
M 31.5 43.59375 
Q 24.703125 43.59375 20.796875 38.5 
Q 16.90625 33.40625 16.90625 25.203125 
Q 16.90625 17 20.796875 11.890625 
Q 24.703125 6.796875 31.5 6.796875 
Q 38.09375 6.796875 42.09375 11.890625 
Q 46.09375 17 46.09375 25.203125 
Q 46.09375 33.40625 42.09375 38.5 
Q 38.09375 43.59375 31.5 43.59375 
z
" id="Apercu-70"/>
      <path d="M 39.296875 49.703125 
L 37.59375 42.203125 
Q 34.796875 43.59375 31.703125 43.59375 
Q 26 43.59375 21.796875 37.140625 
Q 17.59375 30.703125 17.59375 19.09375 
L 17.59375 0 
L 9.203125 0 
L 9.203125 50.40625 
L 17.59375 50.40625 
L 17.59375 41.796875 
Q 19.796875 46 24 48.59375 
Q 28.203125 51.203125 32.40625 51.203125 
Q 36.5 51.203125 39.296875 49.703125 
z
" id="Apercu-72"/>
      <path d="M 27.796875 51.203125 
Q 32.296875 51.203125 36.6875 49 
Q 41.09375 46.796875 42.5 44.40625 
L 42.5 70.796875 
L 50.90625 70.796875 
L 50.90625 0 
L 42.5 0 
L 42.5 6.203125 
Q 40.59375 3.296875 36.4375 1.25 
Q 32.296875 -0.796875 27.796875 -0.796875 
Q 17 -0.796875 11.203125 6.34375 
Q 5.40625 13.5 5.40625 25.203125 
Q 5.40625 36.90625 11.203125 44.046875 
Q 17 51.203125 27.796875 51.203125 
z
M 28.59375 6.796875 
Q 35.40625 6.796875 39.296875 11.890625 
Q 43.203125 17 43.203125 25.203125 
Q 43.203125 33.40625 39.296875 38.5 
Q 35.40625 43.59375 28.59375 43.59375 
Q 22 43.59375 18 38.5 
Q 14 33.40625 14 25.203125 
Q 14 17 18 11.890625 
Q 22 6.796875 28.59375 6.796875 
z
" id="Apercu-64"/>
     </defs>
     <g style="opacity:0.75;" transform="translate(6039.58375 238.511563)scale(0.14 -0.14)">
      <use xlink:href="#Apercu-70"/>
      <use x="60.099991" xlink:href="#Apercu-72"/>
      <use x="101.399979" xlink:href="#Apercu-65"/>
      <use x="157.399963" xlink:href="#Apercu-64"/>
     </g>
    </g>
    <g id="line2d_34">
     <path d="M 6000.38375 253.38 
L 6028.38375 253.38 
" style="fill:none;stroke:#b73779;stroke-width:3;"/>
    </g>
    <g id="line2d_35"/>
    <g id="text_21">
     <!-- actual -->
     <defs>
      <path d="M 14.203125 14.5 
Q 14.203125 10.90625 16.34375 8.84375 
Q 18.5 6.796875 22.5 6.796875 
Q 28.203125 6.796875 32.390625 10.546875 
Q 36.59375 14.296875 36.59375 22.203125 
L 36.59375 23.40625 
L 27.59375 23.40625 
Q 21.203125 23.40625 17.703125 21.09375 
Q 14.203125 18.796875 14.203125 14.5 
z
M 45 32.203125 
L 45 0 
L 38.40625 0 
L 37 7.09375 
Q 31.5 -0.796875 21.203125 -0.796875 
Q 14.40625 -0.796875 10 3 
Q 5.59375 6.796875 5.59375 14.5 
Q 5.59375 22.5 11.6875 26.75 
Q 17.796875 31 28.40625 31 
L 36.59375 31 
L 36.59375 33.203125 
Q 36.59375 43.59375 25.59375 43.59375 
Q 21.59375 43.59375 18.75 41.5 
Q 15.90625 39.40625 15.09375 35.703125 
L 7.703125 37.40625 
Q 8.703125 43.796875 13.59375 47.5 
Q 18.5 51.203125 25.59375 51.203125 
Q 34.40625 51.203125 39.703125 46.5 
Q 45 41.796875 45 32.203125 
z
" id="Apercu-61"/>
      <path d="M 42.09375 16.09375 
L 49.40625 13.09375 
Q 43.296875 -0.796875 28.296875 -0.796875 
Q 17.296875 -0.796875 11.34375 6.75 
Q 5.40625 14.296875 5.40625 25.1875 
Q 5.40625 36.09375 11.34375 43.640625 
Q 17.296875 51.203125 28.296875 51.203125 
Q 43.296875 51.203125 49.40625 37.296875 
L 42.09375 34.296875 
Q 38.09375 43.59375 28.296875 43.59375 
Q 21.296875 43.59375 17.640625 38.4375 
Q 14 33.296875 14 25.1875 
Q 14 17.09375 17.640625 11.9375 
Q 21.296875 6.796875 28.296875 6.796875 
Q 38.09375 6.796875 42.09375 16.09375 
z
" id="Apercu-63"/>
      <path d="M 2.5 42.796875 
L 2.5 50.40625 
L 11.203125 50.40625 
L 11.203125 65.5 
L 19.59375 70.796875 
L 19.59375 50.40625 
L 32.796875 50.40625 
L 32.796875 42.796875 
L 19.59375 42.796875 
L 19.59375 15.09375 
Q 19.59375 11.09375 21.34375 8.9375 
Q 23.09375 6.796875 26.296875 6.796875 
Q 29.59375 6.796875 32 8.40625 
L 34 1.09375 
Q 30.703125 -0.796875 25.796875 -0.796875 
Q 19.09375 -0.796875 15.140625 3.390625 
Q 11.203125 7.59375 11.203125 15.796875 
L 11.203125 42.796875 
z
" id="Apercu-74"/>
      <path d="M 8.59375 14.90625 
L 8.59375 50.40625 
L 17 50.40625 
L 17 17.09375 
Q 17 6.796875 25.703125 6.796875 
Q 31.59375 6.796875 35.84375 13 
Q 40.09375 19.203125 40.09375 29.296875 
L 40.09375 50.40625 
L 48.5 50.40625 
L 48.5 0 
L 40.09375 0 
L 40.09375 9.296875 
Q 34.40625 -0.796875 23.40625 -0.796875 
Q 16.5 -0.796875 12.546875 3.296875 
Q 8.59375 7.40625 8.59375 14.90625 
z
" id="Apercu-75"/>
      <path d="M 9 70.796875 
L 17.40625 70.796875 
L 17.40625 0 
L 9 0 
z
" id="Apercu-6c"/>
     </defs>
     <g style="opacity:0.75;" transform="translate(6039.58375 258.28)scale(0.14 -0.14)">
      <use xlink:href="#Apercu-61"/>
      <use x="51.799988" xlink:href="#Apercu-63"/>
      <use x="105.615601" xlink:href="#Apercu-74"/>
      <use x="143.399963" xlink:href="#Apercu-75"/>
      <use x="201.09996" xlink:href="#Apercu-61"/>
      <use x="252.899948" xlink:href="#Apercu-6c"/>
     </g>
    </g>
   </g>
  </g>
 </g>
 <defs>
  <clipPath id="pb4b81e4389">
   <rect height="964.8" width="5313.6" x="777.6" y="216"/>
  </clipPath>
 </defs>
</svg>
