<?xml version="1.0" encoding="utf-8" standalone="no"?>
<!DOCTYPE svg PUBLIC "-//W3C//DTD SVG 1.1//EN"
  "http://www.w3.org/Graphics/SVG/1.1/DTD/svg11.dtd">
<!-- Created with matplotlib (http://matplotlib.org/) -->
<svg height="1440pt" version="1.1" viewBox="0 0 6480 1440" width="6480pt" xmlns="http://www.w3.org/2000/svg" xmlns:xlink="http://www.w3.org/1999/xlink">
 <defs>
  <style type="text/css">
*{stroke-linecap:butt;stroke-linejoin:round;}
  </style>
 </defs>
 <g id="figure_1">
  <g id="patch_1">
   <path d="M 0 1440 
L 6480 1440 
L 6480 0 
L 0 0 
z
" style="fill:#f0f0f0;"/>
  </g>
  <g id="axes_1">
   <g id="patch_2">
    <path d="M 777.6 1180.8 
L 6091.2 1180.8 
L 6091.2 216 
L 777.6 216 
z
" style="fill:#f0f0f0;"/>
   </g>
   <g id="matplotlib.axis_1">
    <g id="xtick_1">
     <g id="line2d_1">
      <path clip-path="url(#p3e5457db93)" d="M 777.6 1180.8 
L 777.6 216 
" style="fill:none;stroke:#b0b0b0;stroke-linecap:square;stroke-width:0.8;"/>
     </g>
     <g id="line2d_2">
      <defs>
       <path d="M 0 0 
L 0 3.5 
" id="mf507c69859" style="stroke:#000000;stroke-width:0.8;"/>
      </defs>
      <g>
       <use style="stroke:#000000;stroke-width:0.8;" x="777.6" xlink:href="#mf507c69859" y="1180.8"/>
      </g>
     </g>
     <g id="text_1">
      <!-- 0 -->
      <defs>
       <path d="M 48.203125 52.59375 
L 48.203125 17.40625 
Q 48.203125 9.703125 42.953125 4.34375 
Q 37.703125 -1 29.890625 -1 
Q 22.09375 -1 16.9375 4.390625 
Q 11.796875 9.796875 11.796875 17.5 
L 11.796875 52.59375 
Q 11.796875 60.296875 16.9375 65.640625 
Q 22.09375 71 29.890625 71 
Q 37.703125 71 42.953125 65.640625 
Q 48.203125 60.296875 48.203125 52.59375 
z
M 39.90625 17.296875 
L 39.90625 52.5 
Q 39.90625 56.90625 37 60 
Q 34.09375 63.09375 29.90625 63.09375 
Q 25.796875 63.09375 22.890625 60 
Q 20 56.90625 20 52.5 
L 20 17.40625 
Q 20 13 22.890625 9.953125 
Q 25.796875 6.90625 30 6.90625 
Q 34.09375 6.90625 37 9.90625 
Q 39.90625 12.90625 39.90625 17.296875 
z
" id="DecimaMonoPro-30"/>
      </defs>
      <g style="fill:#303030;" transform="translate(773.4 1197.613125)scale(0.14 -0.14)">
       <use xlink:href="#DecimaMonoPro-30"/>
      </g>
     </g>
    </g>
    <g id="xtick_2">
     <g id="line2d_3">
      <path clip-path="url(#p3e5457db93)" d="M 1537.771674 1180.8 
L 1537.771674 216 
" style="fill:none;stroke:#b0b0b0;stroke-linecap:square;stroke-width:0.8;"/>
     </g>
     <g id="line2d_4">
      <g>
       <use style="stroke:#000000;stroke-width:0.8;" x="1537.771674" xlink:href="#mf507c69859" y="1180.8"/>
      </g>
     </g>
     <g id="text_2">
      <!-- 100 -->
      <defs>
       <path d="M 13.90625 68.203125 
L 25.203125 70 
L 32.296875 70 
Q 33 70 33.546875 69.5 
Q 34.09375 69 34.09375 68.203125 
L 34.09375 7.703125 
L 47.296875 7.703125 
Q 48 7.703125 48.546875 7.140625 
Q 49.09375 6.59375 49.09375 5.90625 
L 49.09375 1.796875 
Q 49.09375 1 48.546875 0.5 
Q 48 0 47.296875 0 
L 12.59375 0 
Q 11.796875 0 11.296875 0.5 
Q 10.796875 1 10.796875 1.796875 
L 10.796875 5.90625 
Q 10.796875 6.59375 11.296875 7.140625 
Q 11.796875 7.703125 12.59375 7.703125 
L 25.703125 7.703125 
L 25.703125 62.09375 
L 14.703125 60.40625 
L 14.40625 60.40625 
Q 14 60.296875 13.5 60.296875 
Q 12.09375 60.296875 12.09375 62.09375 
L 12.09375 66.296875 
Q 12.09375 67.796875 13.90625 68.203125 
z
" id="DecimaMonoPro-31"/>
      </defs>
      <g style="fill:#303030;" transform="translate(1525.171674 1197.613125)scale(0.14 -0.14)">
       <use xlink:href="#DecimaMonoPro-31"/>
       <use x="59.999985" xlink:href="#DecimaMonoPro-30"/>
       <use x="119.999969" xlink:href="#DecimaMonoPro-30"/>
      </g>
     </g>
    </g>
    <g id="xtick_3">
     <g id="line2d_5">
      <path clip-path="url(#p3e5457db93)" d="M 2297.943348 1180.8 
L 2297.943348 216 
" style="fill:none;stroke:#b0b0b0;stroke-linecap:square;stroke-width:0.8;"/>
     </g>
     <g id="line2d_6">
      <g>
       <use style="stroke:#000000;stroke-width:0.8;" x="2297.943348" xlink:href="#mf507c69859" y="1180.8"/>
      </g>
     </g>
     <g id="text_3">
      <!-- 200 -->
      <defs>
       <path d="M 11.703125 53 
Q 11.703125 59.703125 17.203125 65.34375 
Q 22.703125 71 30.59375 71 
Q 38.40625 71 43.796875 65.75 
Q 49.203125 60.5 49.203125 52.703125 
Q 49.203125 46.90625 46.09375 41.75 
Q 43 36.59375 38.59375 32.84375 
Q 34.203125 29.09375 29.796875 25.4375 
Q 25.40625 21.796875 22.296875 17.296875 
Q 19.203125 12.796875 19.203125 7.796875 
L 47.40625 7.796875 
Q 48.203125 7.796875 48.703125 7.296875 
Q 49.203125 6.796875 49.203125 6 
L 49.203125 1.796875 
Q 49.203125 1 48.703125 0.5 
Q 48.203125 0 47.40625 0 
L 12.59375 0 
Q 11.796875 0 11.296875 0.5 
Q 10.796875 1 10.796875 1.796875 
L 10.796875 7.296875 
Q 10.796875 13.90625 13.890625 19.453125 
Q 17 25 21.390625 28.890625 
Q 25.796875 32.796875 30.1875 36.390625 
Q 34.59375 40 37.6875 44.296875 
Q 40.796875 48.59375 40.796875 53.296875 
Q 40.796875 57.40625 37.75 60.25 
Q 34.703125 63.09375 30.5 63.09375 
Q 26.09375 63.09375 23.1875 59.6875 
Q 20.296875 56.296875 20.09375 53 
Q 19.90625 51 17.796875 51 
L 14 51 
Q 12.90625 51 12.296875 51.59375 
Q 11.703125 52.203125 11.703125 53 
z
" id="DecimaMonoPro-32"/>
      </defs>
      <g style="fill:#303030;" transform="translate(2285.343348 1197.613125)scale(0.14 -0.14)">
       <use xlink:href="#DecimaMonoPro-32"/>
       <use x="59.999985" xlink:href="#DecimaMonoPro-30"/>
       <use x="119.999969" xlink:href="#DecimaMonoPro-30"/>
      </g>
     </g>
    </g>
    <g id="xtick_4">
     <g id="line2d_7">
      <path clip-path="url(#p3e5457db93)" d="M 3058.115021 1180.8 
L 3058.115021 216 
" style="fill:none;stroke:#b0b0b0;stroke-linecap:square;stroke-width:0.8;"/>
     </g>
     <g id="line2d_8">
      <g>
       <use style="stroke:#000000;stroke-width:0.8;" x="3058.115021" xlink:href="#mf507c69859" y="1180.8"/>
      </g>
     </g>
     <g id="text_4">
      <!-- 300 -->
      <defs>
       <path d="M 46.203125 61.09375 
L 35.40625 47.09375 
Q 40.796875 46.40625 44.890625 41.953125 
Q 49 37.5 49 31.5 
L 49 17.5 
Q 49 9.796875 43.5 4.390625 
Q 38 -1 30 -1 
Q 21.796875 -1 16.34375 4.34375 
Q 10.90625 9.703125 10.90625 17.40625 
Q 10.90625 18.203125 11.5 18.796875 
Q 12.09375 19.40625 13.203125 19.40625 
L 17 19.40625 
Q 19.09375 19.40625 19.296875 17.40625 
Q 19.296875 13 22.390625 9.953125 
Q 25.5 6.90625 30 6.90625 
Q 34.40625 6.90625 37.5 9.953125 
Q 40.59375 13 40.59375 17.40625 
L 40.59375 31.40625 
Q 40.59375 34.59375 38.296875 36.9375 
Q 36 39.296875 32.703125 39.296875 
L 27.40625 39.296875 
Q 25.203125 39.296875 25.203125 41.59375 
L 25.203125 45 
Q 25.203125 46.703125 26.296875 48.203125 
L 36.59375 62.09375 
L 16.90625 62.09375 
Q 14.703125 62.09375 14.703125 64.40625 
L 14.703125 67.703125 
Q 14.703125 70 16.90625 70 
L 45.09375 70 
Q 47.296875 70 47.296875 67.703125 
L 47.296875 64.296875 
Q 47.296875 62.59375 46.203125 61.09375 
z
" id="DecimaMonoPro-33"/>
      </defs>
      <g style="fill:#303030;" transform="translate(3045.515021 1197.613125)scale(0.14 -0.14)">
       <use xlink:href="#DecimaMonoPro-33"/>
       <use x="59.999985" xlink:href="#DecimaMonoPro-30"/>
       <use x="119.999969" xlink:href="#DecimaMonoPro-30"/>
      </g>
     </g>
    </g>
    <g id="xtick_5">
     <g id="line2d_9">
      <path clip-path="url(#p3e5457db93)" d="M 3818.286695 1180.8 
L 3818.286695 216 
" style="fill:none;stroke:#b0b0b0;stroke-linecap:square;stroke-width:0.8;"/>
     </g>
     <g id="line2d_10">
      <g>
       <use style="stroke:#000000;stroke-width:0.8;" x="3818.286695" xlink:href="#mf507c69859" y="1180.8"/>
      </g>
     </g>
     <g id="text_5">
      <!-- 400 -->
      <defs>
       <path d="M 40.09375 67.5 
L 19.5 22.90625 
L 35.796875 22.90625 
L 35.796875 38.90625 
Q 35.796875 39.703125 36.390625 40.296875 
Q 37 40.90625 38.09375 40.90625 
L 42.203125 40.90625 
Q 43 40.90625 43.59375 40.25 
Q 44.203125 39.59375 44.203125 38.90625 
L 44.203125 22.90625 
L 48 22.90625 
Q 48.796875 22.90625 49.390625 22.296875 
Q 50 21.703125 50 20.59375 
L 50 17.40625 
Q 50 16.296875 49.390625 15.6875 
Q 48.796875 15.09375 48 15.09375 
L 44.203125 15.09375 
L 44.203125 2 
Q 44.203125 1.203125 43.59375 0.59375 
Q 43 0 42.203125 0 
L 38.09375 0 
Q 37 0 36.390625 0.59375 
Q 35.796875 1.203125 35.796875 2 
L 35.796875 15.09375 
L 12.09375 15.09375 
Q 9.90625 15.09375 9.90625 17.40625 
L 9.90625 21.296875 
Q 9.90625 22.5 11 24.703125 
L 31.296875 68 
Q 32.296875 70 34 70 
L 38.796875 70 
Q 40.5 70 40.5 68.796875 
Q 40.5 68.5 40.09375 67.5 
z
" id="DecimaMonoPro-34"/>
      </defs>
      <g style="fill:#303030;" transform="translate(3805.686695 1197.613125)scale(0.14 -0.14)">
       <use xlink:href="#DecimaMonoPro-34"/>
       <use x="59.999985" xlink:href="#DecimaMonoPro-30"/>
       <use x="119.999969" xlink:href="#DecimaMonoPro-30"/>
      </g>
     </g>
    </g>
    <g id="xtick_6">
     <g id="line2d_11">
      <path clip-path="url(#p3e5457db93)" d="M 4578.458369 1180.8 
L 4578.458369 216 
" style="fill:none;stroke:#b0b0b0;stroke-linecap:square;stroke-width:0.8;"/>
     </g>
     <g id="line2d_12">
      <g>
       <use style="stroke:#000000;stroke-width:0.8;" x="4578.458369" xlink:href="#mf507c69859" y="1180.8"/>
      </g>
     </g>
     <g id="text_6">
      <!-- 500 -->
      <defs>
       <path d="M 21.90625 35.59375 
Q 21.09375 34.40625 19.796875 34.40625 
Q 19.40625 34.40625 18.203125 34.796875 
L 14.796875 35.796875 
Q 13.203125 36.296875 13.40625 38.5 
L 15.90625 67.703125 
Q 16.09375 70 18.09375 70 
L 44.40625 70 
Q 46.59375 70 46.59375 67.703125 
L 46.59375 64.40625 
Q 46.59375 62.09375 44.40625 62.09375 
L 24.09375 62.09375 
L 22.40625 44.796875 
Q 25.203125 47.203125 30.703125 47.203125 
Q 38.40625 47.203125 43.703125 42 
Q 49 36.796875 49 28.90625 
L 49 17.5 
Q 49 9.796875 43.5 4.390625 
Q 38 -1 30.09375 -1 
Q 21.90625 -1 16.453125 4.34375 
Q 11 9.703125 11 17.40625 
Q 11 18.203125 11.59375 18.796875 
Q 12.203125 19.40625 13.296875 19.40625 
L 17.09375 19.40625 
Q 18.203125 19.40625 18.796875 18.796875 
Q 19.40625 18.203125 19.40625 17.40625 
Q 19.40625 13 22.5 9.953125 
Q 25.59375 6.90625 30.09375 6.90625 
Q 34.5 6.90625 37.546875 9.953125 
Q 40.59375 13 40.59375 17.40625 
L 40.59375 28.796875 
Q 40.59375 33.203125 37.5 36.25 
Q 34.40625 39.296875 29.796875 39.296875 
Q 27.703125 39.296875 25.796875 38.4375 
Q 23.90625 37.59375 23.09375 36.890625 
Q 22.296875 36.203125 21.90625 35.59375 
z
" id="DecimaMonoPro-35"/>
      </defs>
      <g style="fill:#303030;" transform="translate(4565.858369 1197.613125)scale(0.14 -0.14)">
       <use xlink:href="#DecimaMonoPro-35"/>
       <use x="59.999985" xlink:href="#DecimaMonoPro-30"/>
       <use x="119.999969" xlink:href="#DecimaMonoPro-30"/>
      </g>
     </g>
    </g>
    <g id="xtick_7">
     <g id="line2d_13">
      <path clip-path="url(#p3e5457db93)" d="M 5338.630043 1180.8 
L 5338.630043 216 
" style="fill:none;stroke:#b0b0b0;stroke-linecap:square;stroke-width:0.8;"/>
     </g>
     <g id="line2d_14">
      <g>
       <use style="stroke:#000000;stroke-width:0.8;" x="5338.630043" xlink:href="#mf507c69859" y="1180.8"/>
      </g>
     </g>
     <g id="text_7">
      <!-- 600 -->
      <defs>
       <path d="M 11 60.203125 
Q 21.59375 71 29.5 71 
Q 37.40625 71 42.65625 65.953125 
Q 47.90625 60.90625 47.90625 54.40625 
Q 47.90625 53.59375 47.296875 53 
Q 46.703125 52.40625 45.59375 52.40625 
L 41.796875 52.40625 
Q 39.703125 52.40625 39.5 54.40625 
Q 39.296875 57.59375 36.640625 60.296875 
Q 34 63 29.5 63 
Q 25.203125 63 22.25 59.890625 
Q 19.296875 56.796875 19.296875 52.40625 
L 19.296875 42.796875 
Q 19.703125 43.296875 20.59375 44.046875 
Q 21.5 44.796875 24.546875 46 
Q 27.59375 47.203125 31 47.203125 
Q 38.40625 47.203125 43.703125 42 
Q 49 36.796875 49 28.90625 
L 49 17.5 
Q 49 9.796875 43.546875 4.390625 
Q 38.09375 -1 30 -1 
Q 21.90625 -1 16.453125 4.34375 
Q 11 9.703125 11 17.40625 
L 11 52.5 
Q 11 60.203125 21.59375 71 
z
M 30 39.296875 
Q 25.40625 39.296875 22.34375 36.390625 
Q 19.296875 33.5 19.296875 28.796875 
L 19.296875 17.296875 
Q 19.296875 12.90625 22.390625 9.90625 
Q 25.5 6.90625 30 6.90625 
Q 34.40625 6.90625 37.5 9.953125 
Q 40.59375 13 40.59375 17.40625 
L 40.59375 28.796875 
Q 40.59375 33.40625 37.546875 36.34375 
Q 34.5 39.296875 30 39.296875 
z
" id="DecimaMonoPro-36"/>
      </defs>
      <g style="fill:#303030;" transform="translate(5326.030043 1197.613125)scale(0.14 -0.14)">
       <use xlink:href="#DecimaMonoPro-36"/>
       <use x="59.999985" xlink:href="#DecimaMonoPro-30"/>
       <use x="119.999969" xlink:href="#DecimaMonoPro-30"/>
      </g>
     </g>
    </g>
    <g id="text_8">
     <!-- x -->
     <defs>
      <path d="M 3.59375 50.40625 
L 13.09375 50.40625 
L 22.90625 34.40625 
L 32.703125 50.40625 
L 42.203125 50.40625 
L 27.59375 26.59375 
L 44 0 
L 34.5 0 
L 22.90625 18.90625 
L 11.296875 0 
L 1.796875 0 
L 18.203125 26.59375 
z
" id="Apercu-78"/>
     </defs>
     <g style="opacity:0.75;" transform="translate(3431.194219 1214.044688)scale(0.14 -0.14)">
      <use xlink:href="#Apercu-78"/>
     </g>
    </g>
   </g>
   <g id="matplotlib.axis_2">
    <g id="ytick_1">
     <g id="line2d_15">
      <path clip-path="url(#p3e5457db93)" d="M 777.6 1152.305676 
L 6091.2 1152.305676 
" style="fill:none;stroke:#b0b0b0;stroke-linecap:square;stroke-width:0.8;"/>
     </g>
     <g id="line2d_16">
      <defs>
       <path d="M 0 0 
L -3.5 0 
" id="m84abea7fe9" style="stroke:#000000;stroke-width:0.8;"/>
      </defs>
      <g>
       <use style="stroke:#000000;stroke-width:0.8;" x="777.6" xlink:href="#m84abea7fe9" y="1152.305676"/>
      </g>
     </g>
     <g id="text_9">
      <!-- −4 -->
      <defs>
       <path d="M 50.203125 25.296875 
L 9.796875 25.296875 
Q 9 25.296875 8.5 25.84375 
Q 8 26.40625 8 27.09375 
L 8 31.296875 
Q 8 32 8.5 32.546875 
Q 9 33.09375 9.796875 33.09375 
L 50.203125 33.09375 
Q 51 33.09375 51.5 32.546875 
Q 52 32 52 31.296875 
L 52 27.09375 
Q 52 26.40625 51.5 25.84375 
Q 51 25.296875 50.203125 25.296875 
z
" id="DecimaMonoPro-2212"/>
      </defs>
      <g style="fill:#303030;" transform="translate(753.8 1157.212239)scale(0.14 -0.14)">
       <use xlink:href="#DecimaMonoPro-2212"/>
       <use x="59.999985" xlink:href="#DecimaMonoPro-34"/>
      </g>
     </g>
    </g>
    <g id="ytick_2">
     <g id="line2d_17">
      <path clip-path="url(#p3e5457db93)" d="M 777.6 1037.693117 
L 6091.2 1037.693117 
" style="fill:none;stroke:#b0b0b0;stroke-linecap:square;stroke-width:0.8;"/>
     </g>
     <g id="line2d_18">
      <g>
       <use style="stroke:#000000;stroke-width:0.8;" x="777.6" xlink:href="#m84abea7fe9" y="1037.693117"/>
      </g>
     </g>
     <g id="text_10">
      <!-- −3 -->
      <g style="fill:#303030;" transform="translate(753.8 1042.599679)scale(0.14 -0.14)">
       <use xlink:href="#DecimaMonoPro-2212"/>
       <use x="59.999985" xlink:href="#DecimaMonoPro-33"/>
      </g>
     </g>
    </g>
    <g id="ytick_3">
     <g id="line2d_19">
      <path clip-path="url(#p3e5457db93)" d="M 777.6 923.080557 
L 6091.2 923.080557 
" style="fill:none;stroke:#b0b0b0;stroke-linecap:square;stroke-width:0.8;"/>
     </g>
     <g id="line2d_20">
      <g>
       <use style="stroke:#000000;stroke-width:0.8;" x="777.6" xlink:href="#m84abea7fe9" y="923.080557"/>
      </g>
     </g>
     <g id="text_11">
      <!-- −2 -->
      <g style="fill:#303030;" transform="translate(753.8 927.98712)scale(0.14 -0.14)">
       <use xlink:href="#DecimaMonoPro-2212"/>
       <use x="59.999985" xlink:href="#DecimaMonoPro-32"/>
      </g>
     </g>
    </g>
    <g id="ytick_4">
     <g id="line2d_21">
      <path clip-path="url(#p3e5457db93)" d="M 777.6 808.467998 
L 6091.2 808.467998 
" style="fill:none;stroke:#b0b0b0;stroke-linecap:square;stroke-width:0.8;"/>
     </g>
     <g id="line2d_22">
      <g>
       <use style="stroke:#000000;stroke-width:0.8;" x="777.6" xlink:href="#m84abea7fe9" y="808.467998"/>
      </g>
     </g>
     <g id="text_12">
      <!-- −1 -->
      <g style="fill:#303030;" transform="translate(753.8 813.37456)scale(0.14 -0.14)">
       <use xlink:href="#DecimaMonoPro-2212"/>
       <use x="59.999985" xlink:href="#DecimaMonoPro-31"/>
      </g>
     </g>
    </g>
    <g id="ytick_5">
     <g id="line2d_23">
      <path clip-path="url(#p3e5457db93)" d="M 777.6 693.855439 
L 6091.2 693.855439 
" style="fill:none;stroke:#b0b0b0;stroke-linecap:square;stroke-width:0.8;"/>
     </g>
     <g id="line2d_24">
      <g>
       <use style="stroke:#000000;stroke-width:0.8;" x="777.6" xlink:href="#m84abea7fe9" y="693.855439"/>
      </g>
     </g>
     <g id="text_13">
      <!-- 0 -->
      <g style="fill:#303030;" transform="translate(762.2 698.762001)scale(0.14 -0.14)">
       <use xlink:href="#DecimaMonoPro-30"/>
      </g>
     </g>
    </g>
    <g id="ytick_6">
     <g id="line2d_25">
      <path clip-path="url(#p3e5457db93)" d="M 777.6 579.242879 
L 6091.2 579.242879 
" style="fill:none;stroke:#b0b0b0;stroke-linecap:square;stroke-width:0.8;"/>
     </g>
     <g id="line2d_26">
      <g>
       <use style="stroke:#000000;stroke-width:0.8;" x="777.6" xlink:href="#m84abea7fe9" y="579.242879"/>
      </g>
     </g>
     <g id="text_14">
      <!-- 1 -->
      <g style="fill:#303030;" transform="translate(762.2 584.149442)scale(0.14 -0.14)">
       <use xlink:href="#DecimaMonoPro-31"/>
      </g>
     </g>
    </g>
    <g id="ytick_7">
     <g id="line2d_27">
      <path clip-path="url(#p3e5457db93)" d="M 777.6 464.63032 
L 6091.2 464.63032 
" style="fill:none;stroke:#b0b0b0;stroke-linecap:square;stroke-width:0.8;"/>
     </g>
     <g id="line2d_28">
      <g>
       <use style="stroke:#000000;stroke-width:0.8;" x="777.6" xlink:href="#m84abea7fe9" y="464.63032"/>
      </g>
     </g>
     <g id="text_15">
      <!-- 2 -->
      <g style="fill:#303030;" transform="translate(762.2 469.536882)scale(0.14 -0.14)">
       <use xlink:href="#DecimaMonoPro-32"/>
      </g>
     </g>
    </g>
    <g id="ytick_8">
     <g id="line2d_29">
      <path clip-path="url(#p3e5457db93)" d="M 777.6 350.01776 
L 6091.2 350.01776 
" style="fill:none;stroke:#b0b0b0;stroke-linecap:square;stroke-width:0.8;"/>
     </g>
     <g id="line2d_30">
      <g>
       <use style="stroke:#000000;stroke-width:0.8;" x="777.6" xlink:href="#m84abea7fe9" y="350.01776"/>
      </g>
     </g>
     <g id="text_16">
      <!-- 3 -->
      <g style="fill:#303030;" transform="translate(762.2 354.924323)scale(0.14 -0.14)">
       <use xlink:href="#DecimaMonoPro-33"/>
      </g>
     </g>
    </g>
    <g id="ytick_9">
     <g id="line2d_31">
      <path clip-path="url(#p3e5457db93)" d="M 777.6 235.405201 
L 6091.2 235.405201 
" style="fill:none;stroke:#b0b0b0;stroke-linecap:square;stroke-width:0.8;"/>
     </g>
     <g id="line2d_32">
      <g>
       <use style="stroke:#000000;stroke-width:0.8;" x="777.6" xlink:href="#m84abea7fe9" y="235.405201"/>
      </g>
     </g>
     <g id="text_17">
      <!-- 4 -->
      <g style="fill:#303030;" transform="translate(762.2 240.311764)scale(0.14 -0.14)">
       <use xlink:href="#DecimaMonoPro-34"/>
      </g>
     </g>
    </g>
    <g id="text_18">
     <!-- P -->
     <defs>
      <path d="M 34.09375 30 
L 18.5 30 
L 18.5 0 
L 9.703125 0 
L 9.703125 70 
L 34.09375 70 
Q 43.90625 70 49.40625 64.59375 
Q 54.90625 59.203125 54.90625 50 
Q 54.90625 40.796875 49.40625 35.390625 
Q 43.90625 30 34.09375 30 
z
M 34.59375 38.40625 
Q 40 38.40625 42.890625 41.40625 
Q 45.796875 44.40625 45.796875 50 
Q 45.796875 55.59375 42.890625 58.59375 
Q 40 61.59375 34.59375 61.59375 
L 18.5 61.59375 
L 18.5 38.40625 
z
" id="Apercu-50"/>
     </defs>
     <g style="opacity:0.75;" transform="translate(746.943125 702.488438)rotate(-90)scale(0.14 -0.14)">
      <use xlink:href="#Apercu-50"/>
     </g>
    </g>
   </g>
   <g id="line2d_33">
    <path clip-path="url(#p3e5457db93)" d="M 777.6 790.677655 
L 785.201717 792.286514 
L 792.803433 801.608698 
L 800.40515 806.326567 
L 808.006867 800.876949 
L 815.608584 796.645623 
L 823.2103 810.699789 
L 830.812017 794.972903 
L 838.413734 788.634829 
L 846.015451 772.43585 
L 853.617167 753.603822 
L 861.218884 679.735592 
L 868.820601 665.85415 
L 876.422318 691.810134 
L 884.024034 683.577658 
L 891.625751 738.082867 
L 899.227468 712.068516 
L 906.829185 553.723622 
L 914.430901 616.022141 
L 922.032618 669.723143 
L 929.634335 567.990663 
L 937.236052 629.877697 
L 944.837768 696.303807 
L 952.439485 802.996342 
L 960.041202 842.858933 
L 967.642918 816.162919 
L 975.244635 833.839928 
L 982.846352 842.255116 
L 990.448069 838.902395 
L 998.049785 812.16863 
L 1005.651502 808.723193 
L 1013.253219 799.63487 
L 1020.854936 823.680059 
L 1028.456652 803.7464 
L 1036.058369 834.572437 
L 1043.660086 822.179656 
L 1051.261803 848.248312 
L 1058.863519 876.868797 
L 1066.465236 876.752212 
L 1074.066953 877.516527 
L 1081.66867 863.795838 
L 1089.270386 836.304248 
L 1096.872103 828.836021 
L 1104.47382 850.975792 
L 1112.075536 829.069274 
L 1119.677253 833.078742 
L 1127.27897 826.994674 
L 1134.880687 806.900599 
L 1142.482403 792.014247 
L 1150.08412 741.660714 
L 1157.685837 758.873841 
L 1165.287554 733.195036 
L 1172.88927 607.742947 
L 1180.490987 573.766168 
L 1188.092704 580.798904 
L 1195.694421 565.0754 
L 1203.296137 561.660076 
L 1210.897854 577.499946 
L 1218.499571 577.40365 
L 1226.101288 582.641036 
L 1233.703004 581.758045 
L 1241.304721 592.49498 
L 1248.906438 589.976542 
L 1256.508155 576.274249 
L 1264.109871 582.278567 
L 1271.711588 562.624224 
L 1279.313305 550.369699 
L 1286.915021 568.348794 
L 1294.516738 597.9447 
L 1302.118455 710.438124 
L 1309.720172 707.570269 
L 1317.321888 655.243458 
L 1324.923605 792.924721 
L 1332.525322 867.887188 
L 1340.127039 621.262526 
L 1347.728755 612.99461 
L 1355.330472 693.472301 
L 1362.932189 483.568454 
L 1370.533906 449.44941 
L 1378.135622 544.254521 
L 1385.737339 774.028853 
L 1393.339056 578.376844 
L 1400.940773 758.82128 
L 1408.542489 823.265814 
L 1416.144206 799.914064 
L 1423.745923 607.944857 
L 1431.347639 568.085278 
L 1438.949356 570.161353 
L 1446.551073 585.790952 
L 1454.15279 577.926406 
L 1461.754506 564.65513 
L 1469.356223 581.559366 
L 1476.95794 701.055571 
L 1484.559657 727.156937 
L 1492.161373 732.965663 
L 1499.76309 740.765088 
L 1507.364807 796.390297 
L 1514.966524 623.234346 
L 1522.56824 682.811621 
L 1530.169957 659.760035 
L 1537.771674 748.192962 
L 1545.373391 721.665995 
L 1552.975107 819.275392 
L 1560.576824 763.464945 
L 1568.178541 821.536708 
L 1575.780258 755.545447 
L 1583.381974 822.622156 
L 1590.983691 678.716393 
L 1598.585408 790.042352 
L 1606.187124 865.941197 
L 1613.788841 811.010442 
L 1621.390558 862.108964 
L 1628.992275 823.421298 
L 1636.593991 811.58763 
L 1644.195708 828.6074 
L 1651.797425 815.890017 
L 1659.399142 770.815569 
L 1667.000858 786.432147 
L 1674.602575 792.923375 
L 1682.204292 784.430132 
L 1689.806009 782.929066 
L 1697.407725 782.732573 
L 1705.009442 757.725647 
L 1712.611159 851.188277 
L 1720.212876 716.679259 
L 1727.814592 650.013522 
L 1735.416309 705.749671 
L 1743.018026 602.457652 
L 1750.619742 615.169673 
L 1758.221459 617.843881 
L 1765.823176 625.180521 
L 1773.424893 824.568092 
L 1781.026609 945.921699 
L 1788.628326 963.851252 
L 1796.230043 831.036975 
L 1803.83176 939.616224 
L 1811.433476 801.04977 
L 1819.035193 591.116613 
L 1826.63691 834.028613 
L 1834.238627 751.281767 
L 1841.840343 846.797109 
L 1849.44206 852.743441 
L 1857.043777 786.4139 
L 1864.645494 760.826875 
L 1872.24721 887.823026 
L 1879.848927 835.8979 
L 1887.450644 787.344069 
L 1895.052361 857.618794 
L 1902.654077 863.100616 
L 1910.255794 982.66321 
L 1917.857511 809.554429 
L 1925.459227 824.105057 
L 1933.060944 652.818536 
L 1940.662661 738.637279 
L 1948.264378 934.867826 
L 1955.866094 792.559943 
L 1963.467811 852.787736 
L 1971.069528 877.66716 
L 1978.671245 857.170296 
L 1986.272961 710.278376 
L 1993.874678 863.261756 
L 2001.476395 779.225906 
L 2009.078112 871.60479 
L 2016.679828 788.215112 
L 2024.281545 798.427857 
L 2031.883262 759.10417 
L 2039.484979 805.703662 
L 2047.086695 895.908556 
L 2054.688412 816.014021 
L 2062.290129 975.031534 
L 2069.891845 937.29572 
L 2077.493562 894.970148 
L 2085.095279 871.752034 
L 2092.696996 959.768783 
L 2100.298712 913.270048 
L 2107.900429 833.869659 
L 2115.502146 859.823136 
L 2123.103863 847.761845 
L 2130.705579 878.5234 
L 2138.307296 856.97847 
L 2145.909013 809.896999 
L 2153.51073 809.854944 
L 2161.112446 852.865245 
L 2168.714163 808.211867 
L 2176.31588 797.856632 
L 2183.917597 800.855389 
L 2191.519313 856.55921 
L 2199.12103 841.064847 
L 2206.722747 804.837982 
L 2214.324464 826.492454 
L 2221.92618 829.637158 
L 2229.527897 969.902051 
L 2237.129614 967.997636 
L 2244.73133 919.223362 
L 2252.333047 861.080914 
L 2259.934764 933.118841 
L 2267.536481 881.473585 
L 2275.138197 880.602125 
L 2282.739914 817.306202 
L 2290.341631 707.099699 
L 2297.943348 797.644475 
L 2305.545064 891.034869 
L 2313.146781 882.430984 
L 2320.748498 802.510251 
L 2328.350215 815.10533 
L 2335.951931 789.145418 
L 2343.553648 750.824501 
L 2351.155365 792.48451 
L 2358.757082 783.659081 
L 2366.358798 781.060086 
L 2373.960515 850.157221 
L 2381.562232 851.282223 
L 2389.163948 785.407219 
L 2396.765665 619.563908 
L 2404.367382 693.52993 
L 2411.969099 772.161766 
L 2419.570815 827.0499 
L 2427.172532 819.77891 
L 2434.774249 773.196456 
L 2442.375966 812.133695 
L 2449.977682 589.629258 
L 2457.579399 718.316632 
L 2465.181116 726.283984 
L 2472.782833 616.230568 
L 2480.384549 589.298815 
L 2487.986266 559.836095 
L 2495.587983 593.873332 
L 2503.1897 557.475313 
L 2510.791416 561.751057 
L 2518.393133 573.094336 
L 2525.99485 622.486761 
L 2533.596567 661.008115 
L 2541.198283 718.432548 
L 2548.8 712.769801 
L 2556.401717 662.830327 
L 2564.003433 585.876044 
L 2571.60515 533.725289 
L 2579.206867 504.859432 
L 2586.808584 599.990942 
L 2594.4103 702.01273 
L 2602.012017 942.851786 
L 2609.613734 804.803231 
L 2617.215451 533.780064 
L 2624.817167 695.252869 
L 2632.418884 815.354118 
L 2640.020601 811.38598 
L 2647.622318 694.436377 
L 2655.224034 776.074555 
L 2662.825751 775.653076 
L 2670.427468 592.873988 
L 2678.029185 614.963971 
L 2685.630901 711.565128 
L 2693.232618 587.365975 
L 2700.834335 593.195879 
L 2708.436052 586.765737 
L 2716.037768 590.131854 
L 2723.639485 592.574989 
L 2731.241202 595.916807 
L 2738.842918 589.825375 
L 2746.444635 591.624347 
L 2754.046352 576.686445 
L 2761.648069 611.771953 
L 2769.249785 641.254679 
L 2776.851502 797.539612 
L 2784.453219 713.347005 
L 2792.054936 588.150791 
L 2799.656652 603.892965 
L 2807.258369 615.916985 
L 2814.860086 629.447234 
L 2822.461803 609.85322 
L 2830.063519 688.755804 
L 2837.665236 795.849924 
L 2845.266953 798.833535 
L 2852.86867 712.754956 
L 2860.470386 812.687861 
L 2868.072103 827.840584 
L 2875.67382 811.325699 
L 2883.275536 897.948069 
L 2890.877253 870.315615 
L 2898.47897 903.023761 
L 2906.080687 775.422447 
L 2913.682403 852.734642 
L 2921.28412 861.744575 
L 2928.885837 850.444921 
L 2936.487554 844.259365 
L 2944.08927 845.138162 
L 2951.690987 785.979619 
L 2959.292704 832.136919 
L 2966.894421 775.590213 
L 2974.496137 741.842618 
L 2982.097854 674.404098 
L 2989.699571 589.560158 
L 2997.301288 534.489331 
L 3004.903004 535.054537 
L 3012.504721 543.588715 
L 3020.106438 571.404347 
L 3027.708155 549.527232 
L 3035.309871 710.957177 
L 3042.911588 747.148609 
L 3050.513305 521.168636 
L 3058.115021 448.53856 
L 3065.716738 498.80187 
L 3073.318455 574.668656 
L 3080.920172 627.016382 
L 3088.521888 686.96424 
L 3096.123605 594.91872 
L 3103.725322 708.993724 
L 3111.327039 772.33661 
L 3118.928755 754.318165 
L 3126.530472 560.982246 
L 3134.132189 701.817241 
L 3141.733906 610.089957 
L 3149.335622 695.413854 
L 3156.937339 454.89221 
L 3164.539056 544.257991 
L 3172.140773 467.49074 
L 3179.742489 404.320119 
L 3187.344206 462.395756 
L 3194.945923 406.073313 
L 3202.547639 450.492899 
L 3210.149356 486.029139 
L 3217.751073 492.307301 
L 3225.35279 527.365354 
L 3232.954506 557.600738 
L 3240.556223 555.813387 
L 3248.15794 555.440486 
L 3255.759657 569.865169 
L 3263.361373 576.234449 
L 3270.96309 581.752628 
L 3278.564807 577.367703 
L 3286.166524 581.175098 
L 3293.76824 552.400754 
L 3301.369957 581.810094 
L 3308.971674 588.846744 
L 3316.573391 600.509872 
L 3324.175107 601.407578 
L 3331.776824 616.689771 
L 3339.378541 591.630652 
L 3346.980258 698.463755 
L 3354.581974 753.849139 
L 3362.183691 588.61783 
L 3369.785408 635.868092 
L 3377.387124 833.370718 
L 3384.988841 625.487567 
L 3392.590558 556.512544 
L 3400.192275 560.019888 
L 3407.793991 561.768545 
L 3415.395708 570.299621 
L 3422.997425 544.830766 
L 3430.599142 579.757143 
L 3438.200858 579.419725 
L 3445.802575 585.656687 
L 3453.404292 629.848472 
L 3461.006009 799.355006 
L 3468.607725 674.784703 
L 3476.209442 838.030334 
L 3483.811159 830.473285 
L 3491.412876 867.379598 
L 3499.014592 767.125505 
L 3506.616309 987.546925 
L 3514.218026 993.728231 
L 3521.819742 967.172644 
L 3529.421459 962.944037 
L 3537.023176 940.911465 
L 3544.624893 909.659181 
L 3552.226609 894.776914 
L 3559.828326 850.705923 
L 3567.430043 881.202267 
L 3575.03176 897.951826 
L 3582.633476 869.995562 
L 3590.235193 876.33078 
L 3597.83691 877.709761 
L 3605.438627 850.020811 
L 3613.040343 842.53418 
L 3620.64206 833.875684 
L 3628.243777 831.554292 
L 3635.845494 834.276362 
L 3643.44721 829.971188 
L 3651.048927 846.322733 
L 3658.650644 835.877911 
L 3666.252361 818.709872 
L 3673.854077 812.064724 
L 3681.455794 821.409657 
L 3689.057511 796.407752 
L 3696.659227 794.326458 
L 3704.260944 807.752384 
L 3711.862661 797.582288 
L 3719.464378 778.598336 
L 3727.066094 864.319673 
L 3734.667811 848.047467 
L 3742.269528 814.944614 
L 3749.871245 722.137148 
L 3757.472961 877.43675 
L 3765.074678 827.259994 
L 3772.676395 822.499176 
L 3780.278112 604.288349 
L 3787.879828 592.383169 
L 3795.481545 591.783266 
L 3803.083262 582.476549 
L 3810.684979 578.724865 
L 3818.286695 640.438793 
L 3825.888412 807.355532 
L 3833.490129 683.500919 
L 3841.091845 600.460447 
L 3848.693562 588.343499 
L 3856.295279 559.725015 
L 3863.896996 516.247922 
L 3871.498712 476.940276 
L 3879.100429 476.34191 
L 3886.702146 641.36583 
L 3894.303863 585.538974 
L 3901.905579 578.632654 
L 3909.507296 582.834796 
L 3917.109013 562.891948 
L 3924.71073 515.309856 
L 3932.312446 531.468577 
L 3939.914163 523.324612 
L 3947.51588 508.108807 
L 3955.117597 571.239341 
L 3962.719313 576.234764 
L 3970.32103 601.314322 
L 3977.922747 609.096372 
L 3985.524464 731.801589 
L 3993.12618 763.412521 
L 4000.727897 697.105913 
L 4008.329614 807.24295 
L 4015.93133 821.823643 
L 4023.533047 821.091544 
L 4031.134764 827.270268 
L 4038.736481 824.229717 
L 4046.338197 824.417336 
L 4053.939914 830.523578 
L 4061.541631 815.483915 
L 4069.143348 793.183025 
L 4076.745064 803.957218 
L 4084.346781 781.394643 
L 4091.948498 784.343461 
L 4099.550215 766.935918 
L 4107.151931 830.550371 
L 4114.753648 777.150569 
L 4122.355365 627.920878 
L 4129.957082 931.4635 
L 4137.558798 997.365564 
L 4145.160515 1010.068765 
L 4152.762232 867.638878 
L 4160.363948 1012.768195 
L 4167.965665 979.954489 
L 4175.567382 918.455972 
L 4183.169099 929.522852 
L 4190.770815 906.33369 
L 4198.372532 915.230699 
L 4205.974249 896.608123 
L 4213.575966 883.796534 
L 4221.177682 868.723438 
L 4228.779399 867.788432 
L 4236.381116 855.057304 
L 4243.982833 851.897777 
L 4251.584549 825.033094 
L 4259.186266 829.986613 
L 4266.787983 813.652092 
L 4274.3897 819.35685 
L 4281.991416 799.723234 
L 4289.593133 792.489005 
L 4297.19485 793.985091 
L 4304.796567 698.197383 
L 4312.398283 805.830467 
L 4320 658.732497 
L 4327.601717 655.192697 
L 4335.203433 584.909949 
L 4342.80515 720.494642 
L 4350.406867 796.056315 
L 4358.008584 760.143061 
L 4365.6103 743.007065 
L 4373.212017 708.901477 
L 4380.813734 526.509402 
L 4388.415451 531.717447 
L 4396.017167 409.83148 
L 4403.618884 491.272666 
L 4411.220601 568.350133 
L 4418.822318 506.58515 
L 4426.424034 621.538529 
L 4434.025751 572.059564 
L 4441.627468 580.970844 
L 4449.229185 664.039143 
L 4456.830901 664.507985 
L 4464.432618 739.679658 
L 4472.034335 704.339171 
L 4479.636052 421.495591 
L 4487.237768 429.43889 
L 4494.839485 415.656895 
L 4502.441202 420.75315 
L 4510.042918 458.67027 
L 4517.644635 488.525142 
L 4525.246352 534.678835 
L 4532.848069 588.477225 
L 4540.449785 555.14534 
L 4548.051502 736.224503 
L 4555.653219 583.849723 
L 4563.254936 576.157555 
L 4570.856652 606.166838 
L 4578.458369 683.805423 
L 4586.060086 573.354655 
L 4593.661803 581.118854 
L 4601.263519 594.105396 
L 4608.865236 908.056989 
L 4616.466953 807.913183 
L 4624.06867 783.876553 
L 4631.670386 726.968071 
L 4639.272103 612.727603 
L 4646.87382 590.238486 
L 4654.475536 605.374616 
L 4662.077253 684.358775 
L 4669.67897 644.984694 
L 4677.280687 596.343567 
L 4684.882403 606.797626 
L 4692.48412 568.301275 
L 4700.085837 637.45883 
L 4707.687554 648.192066 
L 4715.28927 656.47254 
L 4722.890987 689.213822 
L 4730.492704 740.243395 
L 4738.094421 960.644328 
L 4745.696137 942.520707 
L 4753.297854 901.143024 
L 4760.899571 836.80185 
L 4768.501288 896.063903 
L 4776.103004 894.570973 
L 4783.704721 894.035798 
L 4791.306438 801.495344 
L 4798.908155 868.485854 
L 4806.509871 807.61126 
L 4814.111588 803.245437 
L 4821.713305 797.187438 
L 4829.315021 753.958114 
L 4836.916738 781.004895 
L 4844.518455 760.319763 
L 4852.120172 764.405628 
L 4859.721888 766.514815 
L 4867.323605 722.123652 
L 4874.925322 750.603736 
L 4882.527039 744.761379 
L 4890.128755 741.748884 
L 4897.730472 724.271018 
L 4905.332189 713.386202 
L 4912.933906 724.10108 
L 4920.535622 691.296941 
L 4928.137339 669.639518 
L 4935.739056 629.473801 
L 4943.340773 602.788588 
L 4950.942489 551.334448 
L 4958.544206 514.320103 
L 4966.145923 463.265644 
L 4973.747639 458.485084 
L 4981.349356 598.889167 
L 4988.951073 471.581407 
L 4996.55279 511.538258 
L 5004.154506 458.617067 
L 5011.756223 493.23635 
L 5019.35794 561.235064 
L 5026.959657 777.783386 
L 5034.561373 575.381161 
L 5042.16309 836.21231 
L 5049.764807 864.349991 
L 5057.366524 668.575634 
L 5064.96824 836.596702 
L 5072.569957 756.074078 
L 5080.171674 722.351238 
L 5087.773391 757.238982 
L 5095.375107 859.804541 
L 5102.976824 801.358415 
L 5110.578541 886.804718 
L 5118.180258 868.751392 
L 5125.781974 758.006419 
L 5133.383691 737.236161 
L 5140.985408 673.979105 
L 5148.587124 745.268391 
L 5156.188841 678.600095 
L 5163.790558 687.176054 
L 5171.392275 869.092677 
L 5178.993991 790.686481 
L 5186.595708 725.614623 
L 5194.197425 895.439045 
L 5201.799142 777.70091 
L 5209.400858 578.078078 
L 5217.002575 579.589937 
L 5224.604292 578.791075 
L 5232.206009 553.316263 
L 5239.807725 567.972204 
L 5247.409442 569.897263 
L 5255.011159 587.528256 
L 5262.612876 586.683876 
L 5270.214592 579.212684 
L 5277.816309 595.9798 
L 5285.418026 624.614297 
L 5293.019742 596.981125 
L 5300.621459 628.07656 
L 5308.223176 605.875518 
L 5315.824893 619.386366 
L 5323.426609 627.0962 
L 5331.028326 606.717186 
L 5338.630043 584.010719 
L 5346.23176 540.289443 
L 5353.833476 625.340561 
L 5361.435193 631.590359 
L 5369.03691 632.433339 
L 5376.638627 629.12246 
L 5384.240343 629.902023 
L 5391.84206 634.58087 
L 5399.443777 635.79311 
L 5407.045494 616.207888 
L 5414.64721 742.856606 
L 5422.248927 628.247168 
L 5429.850644 604.957789 
L 5437.452361 607.780902 
L 5445.054077 598.887405 
L 5452.655794 589.118882 
L 5460.257511 607.649117 
L 5467.859227 593.974034 
L 5475.460944 810.330973 
L 5483.062661 901.531638 
L 5490.664378 644.68684 
L 5498.266094 590.757075 
L 5505.867811 856.388903 
L 5513.469528 989.204178 
L 5521.071245 555.7288 
L 5528.672961 892.697396 
L 5536.274678 880.821729 
L 5543.876395 793.087323 
L 5551.478112 758.490386 
L 5559.079828 716.162954 
L 5566.681545 602.747674 
L 5574.283262 929.494406 
L 5581.884979 992.222144 
L 5589.486695 929.851964 
L 5597.088412 932.646815 
L 5604.690129 837.616964 
L 5612.291845 799.375152 
L 5619.893562 912.281306 
L 5627.495279 888.435465 
L 5635.096996 807.935248 
L 5642.698712 845.553185 
L 5650.300429 801.375767 
L 5657.902146 812.176418 
L 5665.503863 795.878308 
L 5673.105579 804.268554 
L 5680.707296 651.994206 
L 5688.309013 460.931778 
L 5695.91073 439.509827 
L 5703.512446 478.542904 
L 5711.114163 443.798907 
L 5718.71588 451.004546 
L 5726.317597 474.84674 
L 5733.919313 495.527315 
L 5741.52103 499.774449 
L 5749.122747 528.794014 
L 5756.724464 555.041776 
L 5764.32618 541.482418 
L 5771.927897 541.890965 
L 5779.529614 550.692839 
L 5787.13133 550.629143 
L 5794.733047 570.346745 
L 5802.334764 716.249015 
L 5809.936481 755.968361 
L 5817.538197 687.218984 
L 5825.139914 599.102629 
L 5832.741631 612.666995 
L 5840.343348 579.706454 
L 5847.945064 588.423379 
L 5855.546781 578.688467 
L 5863.148498 581.49317 
L 5870.750215 657.567545 
L 5878.351931 601.694348 
L 5885.953648 551.712528 
L 5893.555365 474.700697 
L 5901.157082 508.724729 
L 5908.758798 549.699411 
L 5916.360515 597.343745 
L 5923.962232 557.910352 
L 5931.563948 540.83671 
L 5939.165665 755.676693 
L 5946.767382 810.632362 
L 5954.369099 805.24418 
L 5961.970815 805.298353 
L 5969.572532 714.592877 
L 5977.174249 720.665712 
L 5984.775966 761.078299 
L 5992.377682 813.901876 
L 5999.979399 622.47678 
L 6007.581116 703.937411 
L 6015.182833 606.270696 
L 6022.784549 549.715424 
L 6030.386266 607.747845 
L 6037.987983 662.291483 
L 6045.5897 777.930173 
L 6053.191416 616.684627 
L 6060.793133 599.57501 
L 6068.39485 551.259193 
L 6075.996567 792.331745 
L 6083.598283 650.056854 
L 6091.2 744.724592 
L 6091.2 744.724592 
" style="fill:none;stroke:#000004;stroke-width:3;"/>
   </g>
   <g id="line2d_34">
    <path clip-path="url(#p3e5457db93)" d="M 777.6 745.350744 
L 785.201717 750.831907 
L 792.803433 753.809393 
L 800.40515 757.795164 
L 808.006867 755.02662 
L 815.608584 756.508954 
L 823.2103 752.131844 
L 830.812017 768.230196 
L 838.413734 762.134556 
L 846.015451 755.378412 
L 853.617167 749.415506 
L 861.218884 712.857942 
L 868.820601 684.328221 
L 876.422318 684.626273 
L 884.024034 699.031062 
L 891.625751 716.492356 
L 899.227468 706.166028 
L 906.829185 629.90283 
L 914.430901 638.246434 
L 922.032618 680.609106 
L 929.634335 636.430196 
L 937.236052 640.815025 
L 944.837768 634.316371 
L 952.439485 818.787504 
L 960.041202 819.152276 
L 967.642918 823.532787 
L 975.244635 825.650889 
L 982.846352 819.511213 
L 990.448069 812.430767 
L 998.049785 756.665079 
L 1005.651502 775.752514 
L 1013.253219 762.464747 
L 1020.854936 784.686488 
L 1028.456652 769.072253 
L 1036.058369 804.181351 
L 1043.660086 785.527213 
L 1051.261803 800.275461 
L 1058.863519 860.83904 
L 1066.465236 851.040554 
L 1074.066953 869.253312 
L 1081.66867 875.471522 
L 1089.270386 846.220945 
L 1096.872103 844.792409 
L 1104.47382 857.644986 
L 1112.075536 835.964261 
L 1119.677253 807.458851 
L 1127.27897 800.051888 
L 1134.880687 777.285872 
L 1142.482403 771.359543 
L 1150.08412 719.841925 
L 1157.685837 738.192241 
L 1165.287554 731.399265 
L 1172.88927 685.313774 
L 1180.490987 604.815463 
L 1188.092704 605.622399 
L 1195.694421 606.023084 
L 1203.296137 607.764992 
L 1210.897854 605.818817 
L 1218.499571 589.676109 
L 1226.101288 574.850468 
L 1233.703004 584.903753 
L 1241.304721 601.822609 
L 1248.906438 599.137319 
L 1256.508155 570.351253 
L 1264.109871 593.630146 
L 1271.711588 588.271879 
L 1279.313305 569.786307 
L 1286.915021 595.112207 
L 1294.516738 582.905433 
L 1302.118455 698.333666 
L 1309.720172 799.747636 
L 1317.321888 638.205671 
L 1324.923605 774.39411 
L 1332.525322 840.208444 
L 1340.127039 648.688476 
L 1347.728755 591.897488 
L 1355.330472 761.132842 
L 1362.932189 465.702637 
L 1370.533906 480.840865 
L 1378.135622 496.776034 
L 1385.737339 835.043095 
L 1393.339056 459.321798 
L 1400.940773 770.077363 
L 1408.542489 760.629972 
L 1416.144206 813.000919 
L 1423.745923 619.856841 
L 1431.347639 556.873818 
L 1438.949356 537.241787 
L 1446.551073 519.122592 
L 1454.15279 557.151065 
L 1461.754506 517.689452 
L 1469.356223 549.110022 
L 1476.95794 697.763584 
L 1484.559657 697.090257 
L 1492.161373 701.882663 
L 1499.76309 701.900051 
L 1507.364807 748.584181 
L 1514.966524 632.755346 
L 1522.56824 701.902475 
L 1530.169957 687.49568 
L 1537.771674 716.881802 
L 1545.373391 717.992731 
L 1552.975107 779.5294 
L 1560.576824 734.323255 
L 1568.178541 797.367651 
L 1575.780258 731.678012 
L 1583.381974 780.297793 
L 1590.983691 708.400977 
L 1598.585408 722.245392 
L 1606.187124 869.351521 
L 1613.788841 795.462963 
L 1621.390558 867.48968 
L 1628.992275 798.429243 
L 1636.593991 799.046683 
L 1644.195708 803.58912 
L 1651.797425 797.870855 
L 1659.399142 790.339451 
L 1667.000858 784.253437 
L 1674.602575 779.484954 
L 1682.204292 774.181597 
L 1689.806009 773.356967 
L 1697.407725 774.440208 
L 1712.611159 763.28025 
L 1720.212876 736.221193 
L 1735.416309 720.941658 
L 1743.018026 704.870123 
L 1750.619742 676.139485 
L 1758.221459 671.192173 
L 1765.823176 667.050921 
L 1773.424893 903.754042 
L 1781.026609 881.37263 
L 1788.628326 877.719476 
L 1796.230043 889.182306 
L 1803.83176 1021.083097 
L 1811.433476 975.974847 
L 1819.035193 635.427949 
L 1826.63691 826.870124 
L 1834.238627 657.311732 
L 1841.840343 826.415969 
L 1849.44206 795.404992 
L 1857.043777 789.581626 
L 1864.645494 784.034011 
L 1872.24721 931.528317 
L 1879.848927 787.624759 
L 1887.450644 787.982816 
L 1895.052361 1028.775736 
L 1902.654077 856.506198 
L 1910.255794 953.378654 
L 1917.857511 925.95408 
L 1925.459227 797.640738 
L 1933.060944 593.491632 
L 1940.662661 687.113196 
L 1948.264378 916.589951 
L 1955.866094 772.015136 
L 1963.467811 770.455388 
L 1971.069528 862.157453 
L 1978.671245 850.378533 
L 1986.272961 723.204409 
L 1993.874678 821.414781 
L 2001.476395 712.753735 
L 2009.078112 827.350251 
L 2016.679828 721.107062 
L 2024.281545 720.198653 
L 2031.883262 724.526022 
L 2039.484979 727.480979 
L 2047.086695 930.996749 
L 2054.688412 735.150597 
L 2062.290129 930.810251 
L 2069.891845 916.144964 
L 2077.493562 898.891409 
L 2085.095279 886.642253 
L 2092.696996 960.336831 
L 2100.298712 931.785398 
L 2107.900429 829.431162 
L 2115.502146 826.816401 
L 2123.103863 819.121862 
L 2130.705579 885.025278 
L 2138.307296 801.387845 
L 2145.909013 799.063269 
L 2153.51073 790.483799 
L 2161.112446 861.776368 
L 2168.714163 776.423102 
L 2176.31588 850.288057 
L 2183.917597 761.919017 
L 2191.519313 843.208061 
L 2199.12103 834.069834 
L 2206.722747 737.871051 
L 2214.324464 832.725789 
L 2221.92618 838.773827 
L 2229.527897 1058.56642 
L 2237.129614 934.623862 
L 2244.73133 852.079397 
L 2252.333047 853.80144 
L 2259.934764 847.161921 
L 2267.536481 848.895249 
L 2275.138197 897.746159 
L 2282.739914 798.223767 
L 2290.341631 715.002922 
L 2297.943348 838.898925 
L 2305.545064 874.241056 
L 2313.146781 857.489858 
L 2320.748498 757.78909 
L 2328.350215 783.322318 
L 2335.951931 793.728768 
L 2343.553648 670.153293 
L 2351.155365 768.172143 
L 2358.757082 763.253294 
L 2366.358798 806.212208 
L 2373.960515 903.738111 
L 2381.562232 890.837687 
L 2389.163948 774.548992 
L 2396.765665 615.491666 
L 2404.367382 723.543443 
L 2411.969099 881.650888 
L 2419.570815 867.781314 
L 2427.172532 858.002421 
L 2434.774249 728.665018 
L 2442.375966 725.077436 
L 2449.977682 715.537334 
L 2457.579399 721.626877 
L 2465.181116 722.594463 
L 2472.782833 710.958612 
L 2480.384549 704.913266 
L 2487.986266 509.979733 
L 2495.587983 671.498848 
L 2503.1897 541.107317 
L 2510.791416 671.706761 
L 2518.393133 514.068542 
L 2525.99485 669.981336 
L 2533.596567 675.809195 
L 2541.198283 700.518009 
L 2548.8 692.238365 
L 2556.401717 693.79948 
L 2564.003433 671.859285 
L 2571.60515 516.665665 
L 2579.206867 526.458754 
L 2586.808584 595.544685 
L 2594.4103 627.10821 
L 2602.012017 921.589295 
L 2609.613734 918.036235 
L 2617.215451 548.970428 
L 2624.817167 701.490805 
L 2632.418884 894.831183 
L 2640.020601 893.973181 
L 2647.622318 748.858074 
L 2655.224034 756.971346 
L 2662.825751 755.724807 
L 2670.427468 571.035723 
L 2678.029185 585.46874 
L 2685.630901 734.481126 
L 2693.232618 609.001968 
L 2700.834335 615.01863 
L 2708.436052 619.268585 
L 2716.037768 615.276066 
L 2723.639485 614.185522 
L 2731.241202 598.26879 
L 2738.842918 609.795324 
L 2746.444635 607.829235 
L 2754.046352 604.137681 
L 2761.648069 697.425768 
L 2769.249785 689.296725 
L 2776.851502 742.804106 
L 2784.453219 733.10165 
L 2792.054936 634.992164 
L 2799.656652 627.221393 
L 2807.258369 623.933298 
L 2814.860086 622.340534 
L 2822.461803 626.550491 
L 2830.063519 708.86276 
L 2837.665236 754.121788 
L 2845.266953 756.209975 
L 2852.86867 755.70988 
L 2860.470386 776.735231 
L 2868.072103 808.068919 
L 2875.67382 814.178837 
L 2883.275536 1081.853764 
L 2890.877253 823.245867 
L 2898.47897 1017.216064 
L 2906.080687 779.048794 
L 2913.682403 812.213827 
L 2921.28412 808.481948 
L 2928.885837 921.757157 
L 2936.487554 774.953605 
L 2944.08927 780.503098 
L 2951.690987 774.410198 
L 2959.292704 766.441855 
L 2966.894421 760.594394 
L 2974.496137 750.555141 
L 2982.097854 704.378606 
L 2989.699571 701.647201 
L 2997.301288 522.674668 
L 3004.903004 529.911911 
L 3012.504721 536.098928 
L 3020.106438 512.935671 
L 3027.708155 518.307574 
L 3035.309871 698.295857 
L 3042.911588 701.359096 
L 3050.513305 494.554313 
L 3058.115021 406.481778 
L 3065.716738 517.371161 
L 3073.318455 535.852969 
L 3080.920172 592.309417 
L 3088.521888 715.747821 
L 3096.123605 561.932746 
L 3103.725322 723.226266 
L 3111.327039 727.352767 
L 3118.928755 729.868366 
L 3126.530472 561.711325 
L 3134.132189 741.178923 
L 3141.733906 566.970455 
L 3149.335622 628.954434 
L 3156.937339 450.904534 
L 3164.539056 534.460325 
L 3172.140773 337.414572 
L 3179.742489 346.092059 
L 3187.344206 400.914427 
L 3194.945923 466.661635 
L 3202.547639 487.124383 
L 3210.149356 502.798304 
L 3217.751073 476.321784 
L 3225.35279 518.285536 
L 3232.954506 542.183952 
L 3240.556223 558.757273 
L 3248.15794 562.777098 
L 3255.759657 571.021486 
L 3263.361373 575.978024 
L 3270.96309 586.860141 
L 3278.564807 591.744471 
L 3286.166524 601.706768 
L 3293.76824 573.096413 
L 3301.369957 644.710944 
L 3308.971674 639.263758 
L 3316.573391 643.282353 
L 3324.175107 594.305851 
L 3331.776824 658.252776 
L 3339.378541 592.849128 
L 3346.980258 655.572464 
L 3354.581974 738.42174 
L 3362.183691 593.63305 
L 3369.785408 640.194351 
L 3377.387124 944.861896 
L 3384.988841 696.364896 
L 3392.590558 559.496285 
L 3400.192275 574.300441 
L 3407.793991 570.962257 
L 3415.395708 569.109625 
L 3422.997425 576.01986 
L 3430.599142 592.268982 
L 3438.200858 597.633398 
L 3445.802575 589.948082 
L 3453.404292 587.202833 
L 3461.006009 918.050923 
L 3468.607725 601.634785 
L 3476.209442 895.100014 
L 3483.811159 884.519929 
L 3491.412876 971.950909 
L 3499.014592 848.408331 
L 3506.616309 1063.086266 
L 3514.218026 1002.547567 
L 3521.819742 968.614297 
L 3529.421459 931.290228 
L 3537.023176 909.815607 
L 3544.624893 907.156072 
L 3552.226609 888.808858 
L 3559.828326 869.282796 
L 3567.430043 905.994249 
L 3575.03176 889.399614 
L 3582.633476 891.507468 
L 3590.235193 875.209249 
L 3597.83691 860.799663 
L 3605.438627 851.738167 
L 3613.040343 825.162291 
L 3620.64206 832.701892 
L 3628.243777 808.890167 
L 3635.845494 815.637021 
L 3643.44721 826.898078 
L 3651.048927 821.427665 
L 3666.252361 808.200964 
L 3673.854077 807.954089 
L 3689.057511 795.522698 
L 3696.659227 798.333262 
L 3704.260944 813.77391 
L 3711.862661 790.042837 
L 3719.464378 792.332743 
L 3727.066094 906.450098 
L 3734.667811 891.946634 
L 3742.269528 875.415818 
L 3749.871245 660.10217 
L 3757.472961 879.410995 
L 3765.074678 873.459908 
L 3772.676395 860.642677 
L 3780.278112 591.335192 
L 3787.879828 559.408679 
L 3795.481545 565.053908 
L 3803.083262 563.483756 
L 3810.684979 563.742326 
L 3818.286695 571.143878 
L 3825.888412 878.904799 
L 3833.490129 560.597363 
L 3841.091845 563.679955 
L 3848.693562 571.030244 
L 3856.295279 560.494796 
L 3863.896996 558.03213 
L 3871.498712 376.216719 
L 3879.100429 427.858286 
L 3886.702146 602.744785 
L 3894.303863 521.929399 
L 3901.905579 562.187627 
L 3909.507296 577.298624 
L 3917.109013 554.457045 
L 3924.71073 501.328547 
L 3932.312446 510.537015 
L 3939.914163 522.634732 
L 3947.51588 514.262009 
L 3955.117597 476.146626 
L 3962.719313 568.110459 
L 3970.32103 589.157978 
L 3977.922747 595.176245 
L 3985.524464 722.016633 
L 3993.12618 737.674203 
L 4000.727897 748.599641 
L 4008.329614 752.851448 
L 4015.93133 753.866211 
L 4023.533047 752.386555 
L 4031.134764 753.816321 
L 4038.736481 752.318848 
L 4046.338197 753.90735 
L 4053.939914 776.828699 
L 4061.541631 737.585083 
L 4069.143348 748.016929 
L 4076.745064 772.847772 
L 4084.346781 753.814565 
L 4091.948498 756.695404 
L 4099.550215 743.670422 
L 4107.151931 780.251128 
L 4114.753648 788.401119 
L 4122.355365 431.230285 
L 4129.957082 1115.717162 
L 4137.558798 1136.945455 
L 4145.160515 945.480169 
L 4152.762232 892.804978 
L 4160.363948 1033.360999 
L 4167.965665 919.932315 
L 4175.567382 901.123978 
L 4183.169099 946.650367 
L 4190.770815 921.568486 
L 4198.372532 902.160335 
L 4205.974249 884.336368 
L 4213.575966 870.172387 
L 4221.177682 839.54757 
L 4228.779399 847.993116 
L 4236.381116 837.388944 
L 4243.982833 827.807151 
L 4251.584549 801.083538 
L 4259.186266 809.651777 
L 4266.787983 784.765924 
L 4274.3897 795.341617 
L 4281.991416 774.246407 
L 4289.593133 765.448748 
L 4297.19485 766.341918 
L 4304.796567 705.598995 
L 4312.398283 770.645917 
L 4320 689.615256 
L 4327.601717 677.907587 
L 4335.203433 672.645972 
L 4342.80515 758.398414 
L 4350.406867 782.885994 
L 4358.008584 775.255807 
L 4365.6103 777.633586 
L 4373.212017 770.235805 
L 4380.813734 492.250491 
L 4388.415451 501.595219 
L 4396.017167 259.854545 
L 4403.618884 555.751713 
L 4411.220601 562.066929 
L 4418.822318 357.028759 
L 4426.424034 607.358385 
L 4434.025751 617.795248 
L 4441.627468 623.13889 
L 4449.229185 627.39138 
L 4456.830901 627.730103 
L 4464.432618 769.301742 
L 4472.034335 638.758481 
L 4479.636052 419.195718 
L 4487.237768 450.94678 
L 4494.839485 452.729185 
L 4502.441202 475.291303 
L 4510.042918 476.972985 
L 4517.644635 505.137622 
L 4525.246352 516.347115 
L 4532.848069 681.051403 
L 4540.449785 523.442645 
L 4548.051502 825.704188 
L 4555.653219 540.388786 
L 4563.254936 556.554407 
L 4570.856652 563.473864 
L 4578.458369 843.770097 
L 4586.060086 562.910844 
L 4593.661803 571.636739 
L 4601.263519 577.953609 
L 4608.865236 880.498902 
L 4616.466953 757.892471 
L 4624.06867 753.389533 
L 4631.670386 710.73051 
L 4639.272103 586.224748 
L 4646.87382 586.599993 
L 4654.475536 590.252935 
L 4662.077253 721.700149 
L 4669.67897 661.155223 
L 4677.280687 605.014558 
L 4684.882403 609.437814 
L 4692.48412 659.904704 
L 4700.085837 663.443619 
L 4707.687554 663.29758 
L 4715.28927 669.122868 
L 4722.890987 691.602764 
L 4730.492704 671.710006 
L 4738.094421 815.492468 
L 4745.696137 807.758635 
L 4753.297854 817.321696 
L 4760.899571 811.516884 
L 4768.501288 916.219755 
L 4776.103004 915.237694 
L 4783.704721 900.372971 
L 4791.306438 777.263103 
L 4798.908155 878.8255 
L 4806.509871 767.818896 
L 4814.111588 760.378623 
L 4821.713305 756.648055 
L 4829.315021 751.077534 
L 4836.916738 755.903094 
L 4859.721888 754.392464 
L 4867.323605 748.745981 
L 4874.925322 740.943495 
L 4882.527039 737.126981 
L 4897.730472 727.393687 
L 4905.332189 723.148063 
L 4912.933906 715.923134 
L 4920.535622 706.527611 
L 4928.137339 698.867824 
L 4935.739056 689.896935 
L 4943.340773 654.288771 
L 4950.942489 641.045996 
L 4958.544206 439.264633 
L 4966.145923 459.270836 
L 4973.747639 482.480684 
L 4981.349356 639.954414 
L 4988.951073 508.284703 
L 4996.55279 508.549421 
L 5004.154506 464.449751 
L 5011.756223 525.277393 
L 5019.35794 484.919699 
L 5026.959657 712.842462 
L 5034.561373 603.972627 
L 5042.16309 1030.072808 
L 5049.764807 984.019743 
L 5057.366524 625.524908 
L 5064.96824 961.246943 
L 5072.569957 725.533674 
L 5080.171674 728.903699 
L 5087.773391 673.606909 
L 5095.375107 935.725609 
L 5102.976824 908.488067 
L 5110.578541 893.649877 
L 5118.180258 866.832099 
L 5125.781974 658.608356 
L 5133.383691 665.260872 
L 5140.985408 666.60686 
L 5148.587124 665.311095 
L 5156.188841 666.654641 
L 5163.790558 660.359244 
L 5171.392275 877.049366 
L 5178.993991 857.259734 
L 5186.595708 649.909456 
L 5194.197425 848.305709 
L 5201.799142 831.381498 
L 5209.400858 573.075113 
L 5217.002575 576.85816 
L 5224.604292 595.95563 
L 5232.206009 538.025449 
L 5239.807725 537.376038 
L 5247.409442 538.142895 
L 5255.011159 594.942808 
L 5262.612876 545.578058 
L 5270.214592 555.098094 
L 5277.816309 565.938443 
L 5285.418026 612.300215 
L 5293.019742 567.193666 
L 5300.621459 619.728614 
L 5308.223176 620.869178 
L 5315.824893 622.98851 
L 5323.426609 628.876105 
L 5331.028326 639.836144 
L 5338.630043 574.366692 
L 5346.23176 574.193146 
L 5353.833476 578.146761 
L 5361.435193 587.380314 
L 5369.03691 596.018876 
L 5376.638627 596.213654 
L 5384.240343 599.142463 
L 5391.84206 614.786757 
L 5399.443777 607.308624 
L 5407.045494 609.106175 
L 5414.64721 725.348258 
L 5422.248927 615.043298 
L 5429.850644 572.608129 
L 5437.452361 572.025844 
L 5445.054077 571.588496 
L 5452.655794 544.274646 
L 5460.257511 577.986113 
L 5467.859227 567.295277 
L 5475.460944 905.82845 
L 5483.062661 902.415531 
L 5490.664378 553.355161 
L 5498.266094 561.506969 
L 5505.867811 1123.679725 
L 5513.469528 1047.244209 
L 5521.071245 588.908856 
L 5528.672961 991.687434 
L 5536.274678 948.072919 
L 5543.876395 762.771165 
L 5551.478112 761.523443 
L 5559.079828 753.617451 
L 5566.681545 536.250668 
L 5574.283262 906.215725 
L 5581.884979 1012.928023 
L 5589.486695 858.924447 
L 5597.088412 950.854272 
L 5604.690129 819.969548 
L 5612.291845 809.526393 
L 5619.893562 804.506261 
L 5627.495279 896.087335 
L 5635.096996 881.672489 
L 5642.698712 863.2727 
L 5650.300429 754.404152 
L 5657.902146 837.735735 
L 5665.503863 744.015235 
L 5673.105579 819.066897 
L 5680.707296 731.788951 
L 5688.309013 494.826108 
L 5695.91073 358.126244 
L 5703.512446 400.354058 
L 5711.114163 456.998699 
L 5718.71588 476.238181 
L 5726.317597 487.377447 
L 5733.919313 482.845182 
L 5741.52103 508.132935 
L 5749.122747 509.593757 
L 5756.724464 551.089418 
L 5764.32618 539.028605 
L 5771.927897 551.090703 
L 5779.529614 554.412272 
L 5787.13133 560.741985 
L 5794.733047 531.760184 
L 5802.334764 711.398799 
L 5809.936481 737.508875 
L 5817.538197 742.150149 
L 5825.139914 634.105395 
L 5832.741631 639.140266 
L 5840.343348 641.786032 
L 5847.945064 645.686614 
L 5855.546781 549.946887 
L 5863.148498 559.322179 
L 5870.750215 676.889861 
L 5878.351931 678.815644 
L 5885.953648 571.282966 
L 5893.555365 495.004778 
L 5901.157082 499.50223 
L 5908.758798 585.660752 
L 5916.360515 592.594486 
L 5923.962232 532.839661 
L 5931.563948 575.585544 
L 5939.165665 765.731959 
L 5954.369099 761.315159 
L 5961.970815 756.069371 
L 5969.572532 638.780308 
L 5977.174249 645.454721 
L 5984.775966 750.318852 
L 5992.377682 749.467039 
L 5999.979399 575.245694 
L 6007.581116 743.469089 
L 6015.182833 579.694137 
L 6022.784549 579.359711 
L 6030.386266 576.188884 
L 6037.987983 589.546619 
L 6045.5897 807.133155 
L 6053.191416 586.060439 
L 6060.793133 593.062536 
L 6068.39485 599.728833 
L 6075.996567 834.839218 
L 6083.598283 603.631895 
L 6091.2 621.721564 
L 6091.2 621.721564 
" style="fill:none;stroke:#b73779;stroke-width:3;"/>
   </g>
   <g id="line2d_35">
    <path clip-path="url(#p3e5457db93)" d="M 777.6 693.855439 
L 6091.2 693.855439 
" style="fill:none;opacity:0.7;stroke:#000000;stroke-width:1.3;"/>
   </g>
   <g id="patch_3">
    <path d="M 777.6 1180.8 
L 777.6 216 
" style="fill:none;stroke:#000000;stroke-linecap:square;stroke-linejoin:miter;stroke-width:0.8;"/>
   </g>
   <g id="patch_4">
    <path d="M 6091.2 1180.8 
L 6091.2 216 
" style="fill:none;stroke:#000000;stroke-linecap:square;stroke-linejoin:miter;stroke-width:0.8;"/>
   </g>
   <g id="patch_5">
    <path d="M 777.6 1180.8 
L 6091.2 1180.8 
" style="fill:none;stroke:#000000;stroke-linecap:square;stroke-linejoin:miter;stroke-width:0.8;"/>
   </g>
   <g id="patch_6">
    <path d="M 777.6 216 
L 6091.2 216 
" style="fill:none;stroke:#000000;stroke-linecap:square;stroke-linejoin:miter;stroke-width:0.8;"/>
   </g>
   <g id="patch_7">
    <path d="M 0 1440 
L 6480 1440 
L 6480 1416.729153 
L 0 1416.729153 
z
" style="fill:#808080;"/>
   </g>
   <g id="text_19">
    <!-- ©spred -->
    <defs>
     <path d="M 50.90625 25.90625 
L 50.90625 44 
Q 50.90625 52.40625 44.75 58.40625 
Q 38.59375 64.40625 30 64.40625 
Q 21.296875 64.40625 15.09375 58.40625 
Q 8.90625 52.40625 8.90625 44 
L 8.90625 25.90625 
Q 8.90625 17.5 15.09375 11.453125 
Q 21.296875 5.40625 30 5.40625 
Q 38.59375 5.40625 44.75 11.453125 
Q 50.90625 17.5 50.90625 25.90625 
z
M 57.703125 43.203125 
L 57.703125 26.59375 
Q 57.703125 15.203125 49.59375 7.09375 
Q 41.5 -1 30 -1 
Q 18.40625 -1 10.296875 7.09375 
Q 2.203125 15.203125 2.203125 26.59375 
L 2.203125 43.203125 
Q 2.203125 54.59375 10.296875 62.6875 
Q 18.40625 70.796875 30 70.796875 
Q 41.5 70.796875 49.59375 62.6875 
Q 57.703125 54.59375 57.703125 43.203125 
z
M 38.59375 29.40625 
L 41.40625 29.40625 
Q 42.40625 29.40625 42.90625 28.84375 
Q 43.40625 28.296875 43.40625 27.59375 
Q 43.40625 21.59375 39.796875 17.9375 
Q 36.203125 14.296875 30.40625 14.296875 
Q 24.40625 14.296875 20.75 17.9375 
Q 17.09375 21.59375 17.09375 27.09375 
L 17.09375 43.40625 
Q 17.09375 48.703125 20.75 52.390625 
Q 24.40625 56.09375 30.40625 56.09375 
Q 35.90625 56.09375 39.40625 52.25 
Q 42.90625 48.40625 42.90625 42.296875 
Q 42.90625 41.59375 42.40625 41.046875 
Q 41.90625 40.5 40.90625 40.5 
L 38.09375 40.5 
Q 37.09375 40.5 36.546875 41.046875 
Q 36 41.59375 36 42.296875 
Q 36 45.203125 34.390625 47.046875 
Q 32.796875 48.90625 30.40625 48.90625 
Q 27.703125 48.90625 25.796875 46.90625 
Q 23.90625 44.90625 23.90625 42.203125 
L 23.90625 28.203125 
Q 23.90625 25.59375 25.796875 23.59375 
Q 27.703125 21.59375 30.40625 21.59375 
Q 32.90625 21.59375 34.703125 23.1875 
Q 36.5 24.796875 36.5 27.59375 
Q 36.5 28.296875 37.046875 28.84375 
Q 37.59375 29.40625 38.59375 29.40625 
z
" id="DecimaMonoPro-a9"/>
     <path d="M 30.09375 -1 
Q 25.296875 -1 21.546875 0.59375 
Q 17.796875 2.203125 15.84375 4.59375 
Q 13.90625 7 12.953125 9.390625 
Q 12 11.796875 12 14 
Q 12 14.796875 12.5 15.296875 
Q 13 15.796875 13.796875 15.796875 
L 18.296875 15.796875 
Q 19.90625 15.796875 20.09375 14.09375 
Q 20.40625 11.203125 22.796875 8.703125 
Q 25.203125 6.203125 30.09375 6.203125 
Q 34.296875 6.203125 36.890625 8.296875 
Q 39.5 10.40625 39.5 13.59375 
Q 39.5 16.5 36.84375 18.5 
Q 34.203125 20.5 30.390625 21.84375 
Q 26.59375 23.203125 22.84375 24.796875 
Q 19.09375 26.40625 16.4375 29.5 
Q 13.796875 32.59375 13.796875 37.09375 
Q 13.796875 43.296875 18.4375 47.140625 
Q 23.09375 51 30.703125 51 
Q 38.90625 51 43.25 46.5 
Q 47.59375 42 47.59375 37.5 
Q 47.59375 36.796875 47.09375 36.25 
Q 46.59375 35.703125 45.796875 35.703125 
L 41.203125 35.703125 
Q 39.703125 35.703125 39.40625 37.40625 
Q 38.90625 40 36.75 41.890625 
Q 34.59375 43.796875 30.703125 43.796875 
Q 26.90625 43.796875 24.546875 42.09375 
Q 22.203125 40.40625 22.203125 37.703125 
Q 22.203125 35 24.84375 33.09375 
Q 27.5 31.203125 31.25 29.890625 
Q 35 28.59375 38.703125 26.9375 
Q 42.40625 25.296875 45.046875 21.84375 
Q 47.703125 18.40625 47.703125 13.40625 
Q 47.703125 7.40625 42.59375 3.203125 
Q 37.5 -1 30.09375 -1 
z
" id="DecimaMonoPro-73"/>
     <path d="M 42.09375 17.09375 
L 42.09375 33.09375 
Q 42.09375 37.703125 38.84375 40.796875 
Q 35.59375 43.90625 30.5 43.90625 
Q 25.40625 43.90625 22.046875 40.75 
Q 18.703125 37.59375 18.703125 33 
L 18.703125 17.09375 
Q 18.703125 12.5 22.046875 9.390625 
Q 25.40625 6.296875 30.5 6.296875 
Q 35.59375 6.296875 38.84375 9.390625 
Q 42.09375 12.5 42.09375 17.09375 
z
M 18.703125 3.703125 
L 18.796875 -16.203125 
Q 18.796875 -18 16.5 -18 
L 13 -18 
Q 10.703125 -18 10.703125 -16.203125 
L 10.703125 48.203125 
Q 10.703125 50 13 50 
L 15.90625 50 
Q 18.203125 50 18.203125 48.203125 
L 18.203125 45.90625 
Q 18.59375 46.5 19.5 47.34375 
Q 20.40625 48.203125 23.75 49.59375 
Q 27.09375 51 31.296875 51 
Q 39.296875 51 44.796875 45.640625 
Q 50.296875 40.296875 50.296875 32.59375 
L 50.296875 17.40625 
Q 50.296875 9.796875 44.75 4.390625 
Q 39.203125 -1 31.296875 -1 
Q 27.40625 -1 24.25 0.203125 
Q 21.09375 1.40625 19.90625 2.59375 
z
" id="DecimaMonoPro-70"/>
     <path d="M 37.203125 51 
Q 44.09375 51 48.140625 46.453125 
Q 52.203125 41.90625 52.203125 37.5 
Q 52.203125 35.703125 50.5 35.703125 
L 45.90625 35.703125 
Q 44.296875 35.703125 44.09375 37.40625 
Q 43.796875 39.796875 41.75 41.796875 
Q 39.703125 43.796875 36.59375 43.796875 
Q 32.40625 43.796875 29.203125 40.796875 
Q 26 37.796875 26 34 
L 26 7.203125 
L 45.09375 7.203125 
Q 45.796875 7.203125 46.34375 6.703125 
Q 46.90625 6.203125 46.90625 5.40625 
L 46.90625 1.796875 
Q 46.90625 1 46.34375 0.5 
Q 45.796875 0 45.09375 0 
L 9.296875 0 
Q 8.59375 0 8.046875 0.5 
Q 7.5 1 7.5 1.796875 
L 7.5 5.40625 
Q 7.5 6.203125 8.046875 6.703125 
Q 8.59375 7.203125 9.296875 7.203125 
L 18 7.203125 
L 18 48.203125 
Q 18 50 20.296875 50 
L 23.5 50 
Q 25.796875 50 25.796875 48.203125 
L 25.796875 45.703125 
Q 29.796875 51 37.203125 51 
z
" id="DecimaMonoPro-72"/>
     <path d="M 48.796875 13.5 
Q 48.796875 9.09375 43.75 4.046875 
Q 38.703125 -1 30.203125 -1 
Q 21.203125 -1 15.75 4.453125 
Q 10.296875 9.90625 10.296875 17.5 
L 10.296875 32.703125 
Q 10.296875 40.203125 15.75 45.59375 
Q 21.203125 51 30.203125 51 
Q 39.203125 51 44.453125 45.59375 
Q 49.703125 40.203125 49.703125 32.703125 
L 49.703125 24.796875 
Q 49.703125 23.796875 49.046875 23.140625 
Q 48.40625 22.5 47.40625 22.5 
L 18.40625 22.5 
L 18.40625 17 
Q 18.40625 12.5 21.65625 9.296875 
Q 24.90625 6.09375 30.203125 6.09375 
Q 38.5 6.09375 40.59375 13.59375 
Q 41.09375 15.296875 42.40625 15.296875 
L 47 15.296875 
Q 47.796875 15.296875 48.296875 14.75 
Q 48.796875 14.203125 48.796875 13.5 
z
M 18.40625 33 
L 18.40625 29.703125 
L 41.796875 29.703125 
L 41.796875 33 
Q 41.796875 37.5 38.640625 40.640625 
Q 35.5 43.796875 30.203125 43.796875 
Q 24.90625 43.796875 21.65625 40.640625 
Q 18.40625 37.5 18.40625 33 
z
" id="DecimaMonoPro-65"/>
     <path d="M 17.90625 32.90625 
L 17.90625 16.90625 
Q 17.90625 12.296875 21.15625 9.1875 
Q 24.40625 6.09375 29.5 6.09375 
Q 34.59375 6.09375 37.9375 9.25 
Q 41.296875 12.40625 41.296875 17 
L 41.296875 32.90625 
Q 41.296875 37.5 37.9375 40.59375 
Q 34.59375 43.703125 29.5 43.703125 
Q 24.40625 43.703125 21.15625 40.59375 
Q 17.90625 37.5 17.90625 32.90625 
z
M 41.296875 46.296875 
L 41.203125 68.203125 
Q 41.203125 70 43.5 70 
L 47 70 
Q 49.296875 70 49.296875 68.203125 
L 49.296875 1.796875 
Q 49.296875 0 47 0 
L 44.09375 0 
Q 41.796875 0 41.796875 1.796875 
L 41.796875 4.09375 
Q 41.40625 3.5 40.5 2.640625 
Q 39.59375 1.796875 36.25 0.390625 
Q 32.90625 -1 28.703125 -1 
Q 20.703125 -1 15.203125 4.34375 
Q 9.703125 9.703125 9.703125 17.40625 
L 9.703125 32.59375 
Q 9.703125 40.203125 15.25 45.59375 
Q 20.796875 51 28.703125 51 
Q 32.59375 51 35.75 49.796875 
Q 38.90625 48.59375 40.09375 47.40625 
z
" id="DecimaMonoPro-64"/>
    </defs>
    <g style="fill:#ffffff;" transform="translate(64.8 1432.8)scale(0.14 -0.14)">
     <use xlink:href="#DecimaMonoPro-a9"/>
     <use x="59.999985" xlink:href="#DecimaMonoPro-73"/>
     <use x="119.999969" xlink:href="#DecimaMonoPro-70"/>
     <use x="179.999954" xlink:href="#DecimaMonoPro-72"/>
     <use x="239.999939" xlink:href="#DecimaMonoPro-65"/>
     <use x="299.999924" xlink:href="#DecimaMonoPro-64"/>
    </g>
   </g>
   <g id="text_20">
    <!-- IOTABTC_drop -->
    <defs>
     <path d="M 9.40625 0 
L 20.40625 0 
L 20.40625 70 
L 9.40625 70 
z
" id="ApercuPro-Medium-49"/>
     <path d="M 37.203125 70.796875 
C 20.09375 70.796875 5.09375 58.90625 5.09375 35 
C 5.09375 11.09375 20.09375 -0.796875 37.203125 -0.796875 
C 54.296875 -0.796875 69.296875 11.09375 69.296875 35 
C 69.296875 58.90625 54.296875 70.796875 37.203125 70.796875 
z
M 37.203125 60.40625 
C 48.5 60.40625 58.09375 52.296875 58.09375 35 
C 58.09375 17.703125 48.5 9.59375 37.203125 9.59375 
C 25.90625 9.59375 16.296875 17.703125 16.296875 35 
C 16.296875 52.296875 25.90625 60.40625 37.203125 60.40625 
z
" id="ApercuPro-Medium-4f"/>
     <path d="M 1.09375 59.59375 
L 20.703125 59.59375 
L 20.703125 0 
L 31.703125 0 
L 31.703125 59.59375 
L 51.296875 59.59375 
L 51.296875 70 
L 1.09375 70 
z
" id="ApercuPro-Medium-54"/>
     <path d="M 25.203125 70 
L 0.90625 0 
L 12.09375 0 
L 17.90625 17.40625 
L 42.90625 17.40625 
L 48.703125 0 
L 59.90625 0 
L 35.59375 70 
z
M 30.40625 56.09375 
L 39.59375 27.796875 
L 21.203125 27.796875 
z
" id="ApercuPro-Medium-41"/>
     <path d="M 9.40625 70 
L 9.40625 0 
L 35.40625 0 
C 49.203125 0 57.40625 7.5 57.40625 20.59375 
C 57.40625 28.703125 53.296875 35.40625 46.703125 38.203125 
C 50.796875 40.40625 53.796875 46.296875 53.796875 51.703125 
C 53.796875 63.796875 45.796875 70 34.203125 70 
z
M 33.203125 59.59375 
C 39.40625 59.59375 42.796875 56.703125 42.796875 51 
C 42.796875 45.296875 39.40625 42.40625 33.203125 42.40625 
L 20.40625 42.40625 
L 20.40625 59.59375 
z
M 33.90625 32 
C 42 32 46.203125 28.203125 46.203125 21.203125 
C 46.203125 14.203125 42 10.40625 33.90625 10.40625 
L 20.40625 10.40625 
L 20.40625 32 
z
" id="ApercuPro-Medium-42"/>
     <path d="M 65.796875 49.59375 
C 62.203125 62.796875 52.40625 70.796875 37.5 70.796875 
C 20.59375 70.796875 5.09375 58.703125 5.09375 35 
C 5.09375 11.296875 20.59375 -0.796875 37.5 -0.796875 
C 52.40625 -0.796875 62.203125 7.203125 65.796875 20.40625 
L 55.40625 23 
C 51.90625 14.09375 47 9.59375 37.5 9.59375 
C 25.703125 9.59375 16.296875 17.90625 16.296875 35 
C 16.296875 52.09375 25.703125 60.40625 37.5 60.40625 
C 47 60.40625 51.90625 55.90625 55.40625 47 
z
" id="ApercuPro-Medium-43"/>
     <path d="M 2.703125 -9.203125 
L 47.203125 -9.203125 
L 47.203125 0 
L 2.703125 0 
z
" id="ApercuPro-Medium-5f"/>
     <path d="M 4.90625 25.203125 
C 4.90625 9.09375 12.5 -0.796875 27.40625 -0.796875 
C 34 -0.796875 39.40625 2.90625 41.09375 5.796875 
L 41.09375 0 
L 51.5 0 
L 51.5 70.796875 
L 41.09375 70.796875 
L 41.09375 44.796875 
C 38.796875 48.09375 32.59375 51.203125 27.59375 51.203125 
C 12.5 51.203125 4.90625 40.796875 4.90625 25.203125 
z
M 15.90625 25.203125 
C 15.90625 35.59375 21.296875 42 28.796875 42 
C 36.296875 42 41.703125 35.59375 41.703125 25.203125 
C 41.703125 14.796875 36.296875 8.40625 28.796875 8.40625 
C 21.296875 8.40625 15.90625 14.796875 15.90625 25.203125 
z
" id="ApercuPro-Medium-64"/>
     <path d="M 19 0 
L 19 18.703125 
C 19 34.59375 25.90625 42 32.59375 42 
C 34.703125 42 36.90625 41.5 38.5 40.5 
L 40.296875 50 
C 38.796875 50.59375 36.59375 51.203125 33.90625 51.203125 
C 28.5 51.203125 22.5 48 19 42 
L 19 50.40625 
L 8.59375 50.40625 
L 8.59375 0 
z
" id="ApercuPro-Medium-72"/>
     <path d="M 4.90625 25.203125 
C 4.90625 11 14.09375 -0.796875 29.703125 -0.796875 
C 45.296875 -0.796875 54.5 11 54.5 25.203125 
C 54.5 39.40625 45.296875 51.203125 29.703125 51.203125 
C 14.09375 51.203125 4.90625 39.40625 4.90625 25.203125 
z
M 15.90625 25.203125 
C 15.90625 33.703125 20.59375 42 29.703125 42 
C 38.796875 42 43.5 33.703125 43.5 25.203125 
C 43.5 16.703125 38.796875 8.40625 29.703125 8.40625 
C 20.59375 8.40625 15.90625 16.703125 15.90625 25.203125 
z
" id="ApercuPro-Medium-6f"/>
     <path d="M 55.203125 25.203125 
C 55.203125 41.296875 47.59375 51.203125 32.703125 51.203125 
C 26.09375 51.203125 20.703125 47.5 19 44.59375 
L 19 50.40625 
L 8.59375 50.40625 
L 8.59375 -20.40625 
L 19 -20.40625 
L 19 5.59375 
C 21.296875 2.296875 26.296875 -0.796875 32.5 -0.796875 
C 47.59375 -0.796875 55.203125 9.59375 55.203125 25.203125 
z
M 44.203125 25.203125 
C 44.203125 14.796875 38.796875 8.40625 31.296875 8.40625 
C 23.796875 8.40625 18.40625 14.796875 18.40625 25.203125 
C 18.40625 35.59375 23.796875 42 31.296875 42 
C 38.796875 42 44.203125 35.59375 44.203125 25.203125 
z
" id="ApercuPro-Medium-70"/>
    </defs>
    <g style="opacity:0.75;" transform="translate(1044 144)scale(0.3 -0.3)">
     <use xlink:href="#ApercuPro-Medium-49"/>
     <use x="29.799988" xlink:href="#ApercuPro-Medium-4f"/>
     <use x="104.199982" xlink:href="#ApercuPro-Medium-54"/>
     <use x="156.506226" xlink:href="#ApercuPro-Medium-41"/>
     <use x="217.290588" xlink:href="#ApercuPro-Medium-42"/>
     <use x="279.590576" xlink:href="#ApercuPro-Medium-54"/>
     <use x="331.974945" xlink:href="#ApercuPro-Medium-43"/>
     <use x="401.47493" xlink:href="#ApercuPro-Medium-5f"/>
     <use x="451.374924" xlink:href="#ApercuPro-Medium-64"/>
     <use x="511.42804" xlink:href="#ApercuPro-Medium-72"/>
     <use x="553.128036" xlink:href="#ApercuPro-Medium-6f"/>
     <use x="612.52803" xlink:href="#ApercuPro-Medium-70"/>
    </g>
   </g>
   <g id="text_21">
    <!-- None -->
    <defs>
     <path d="M 51.59375 70 
L 60.40625 70 
L 60.40625 0 
L 50.09375 0 
L 18.5 54.5 
L 18.5 0 
L 9.703125 0 
L 9.703125 70 
L 20 70 
L 51.59375 15.296875 
z
" id="Apercu-4e"/>
     <path d="M 12 6.796875 
Q 5.40625 14.5 5.40625 25.203125 
Q 5.40625 35.90625 12.046875 43.546875 
Q 18.703125 51.203125 29.59375 51.203125 
Q 40.5 51.203125 47.140625 43.546875 
Q 53.796875 35.90625 53.796875 25.203125 
Q 53.796875 14.5 47.140625 6.84375 
Q 40.5 -0.796875 29.59375 -0.796875 
Q 18.703125 -0.796875 12 6.796875 
z
M 18.09375 38.09375 
Q 14 32.703125 14 25.203125 
Q 14 17.703125 18.140625 12.25 
Q 22.296875 6.796875 29.59375 6.796875 
Q 36.90625 6.796875 41.046875 12.25 
Q 45.203125 17.703125 45.203125 25.203125 
Q 45.203125 32.703125 41.046875 38.140625 
Q 36.90625 43.59375 29.59375 43.59375 
Q 22.296875 43.59375 18.09375 38.09375 
z
" id="Apercu-6f"/>
     <path d="M 49.09375 35.5 
L 49.09375 0 
L 40.703125 0 
L 40.703125 33.296875 
Q 40.703125 43.59375 32 43.59375 
Q 26.09375 43.59375 21.84375 37.390625 
Q 17.59375 31.203125 17.59375 21.09375 
L 17.59375 0 
L 9.203125 0 
L 9.203125 50.40625 
L 17.59375 50.40625 
L 17.59375 41.09375 
Q 23.296875 51.203125 34.296875 51.203125 
Q 41.203125 51.203125 45.140625 47.09375 
Q 49.09375 43 49.09375 35.5 
z
" id="Apercu-6e"/>
     <path d="M 51 27.296875 
L 51 23.40625 
L 14 23.40625 
Q 14.40625 16 18.046875 11.390625 
Q 21.703125 6.796875 28.203125 6.796875 
Q 33.5 6.796875 36.75 9.140625 
Q 40 11.5 42.203125 16.40625 
L 49.59375 13.203125 
Q 46.09375 5.796875 41.046875 2.5 
Q 36 -0.796875 28.203125 -0.796875 
Q 17.296875 -0.796875 11.34375 6.75 
Q 5.40625 14.296875 5.40625 25.1875 
Q 5.40625 36.09375 11.34375 43.640625 
Q 17.296875 51.203125 28.203125 51.203125 
Q 38.90625 51.203125 44.953125 44.25 
Q 51 37.296875 51 27.296875 
z
M 28.203125 43.59375 
Q 22.59375 43.59375 19.140625 40.1875 
Q 15.703125 36.796875 14.5 31 
L 42.203125 31 
Q 41 36.703125 37.5 40.140625 
Q 34 43.59375 28.203125 43.59375 
z
" id="Apercu-65"/>
    </defs>
    <g style="opacity:0.75;" transform="translate(1045 158.4)scale(0.14 -0.14)">
     <use xlink:href="#Apercu-4e"/>
     <use x="70.099991" xlink:href="#Apercu-6f"/>
     <use x="129.299988" xlink:href="#Apercu-6e"/>
     <use x="186.999985" xlink:href="#Apercu-65"/>
    </g>
   </g>
   <g id="legend_1">
    <g id="patch_8">
     <path d="M 5997.58375 266.736875 
L 6081.4 266.736875 
Q 6084.2 266.736875 6084.2 263.936875 
L 6084.2 225.8 
Q 6084.2 223 6081.4 223 
L 5997.58375 223 
Q 5994.78375 223 5994.78375 225.8 
L 5994.78375 263.936875 
Q 5994.78375 266.736875 5997.58375 266.736875 
z
" style="fill:#f0f0f0;opacity:0.8;stroke:#cccccc;stroke-linejoin:miter;stroke-width:0.5;"/>
    </g>
    <g id="line2d_36">
     <path d="M 6000.38375 233.611563 
L 6028.38375 233.611563 
" style="fill:none;stroke:#000004;stroke-width:3;"/>
    </g>
    <g id="line2d_37"/>
    <g id="text_22">
     <!-- pred -->
     <defs>
      <path d="M 32.296875 -0.796875 
Q 27.796875 -0.796875 23.390625 1.390625 
Q 19 3.59375 17.59375 6 
L 17.59375 -20.40625 
L 9.203125 -20.40625 
L 9.203125 50.40625 
L 17.59375 50.40625 
L 17.59375 44.203125 
Q 19.5 47.09375 23.640625 49.140625 
Q 27.796875 51.203125 32.296875 51.203125 
Q 43.09375 51.203125 48.890625 44.046875 
Q 54.703125 36.90625 54.703125 25.203125 
Q 54.703125 13.5 48.890625 6.34375 
Q 43.09375 -0.796875 32.296875 -0.796875 
z
M 31.5 43.59375 
Q 24.703125 43.59375 20.796875 38.5 
Q 16.90625 33.40625 16.90625 25.203125 
Q 16.90625 17 20.796875 11.890625 
Q 24.703125 6.796875 31.5 6.796875 
Q 38.09375 6.796875 42.09375 11.890625 
Q 46.09375 17 46.09375 25.203125 
Q 46.09375 33.40625 42.09375 38.5 
Q 38.09375 43.59375 31.5 43.59375 
z
" id="Apercu-70"/>
      <path d="M 39.296875 49.703125 
L 37.59375 42.203125 
Q 34.796875 43.59375 31.703125 43.59375 
Q 26 43.59375 21.796875 37.140625 
Q 17.59375 30.703125 17.59375 19.09375 
L 17.59375 0 
L 9.203125 0 
L 9.203125 50.40625 
L 17.59375 50.40625 
L 17.59375 41.796875 
Q 19.796875 46 24 48.59375 
Q 28.203125 51.203125 32.40625 51.203125 
Q 36.5 51.203125 39.296875 49.703125 
z
" id="Apercu-72"/>
      <path d="M 27.796875 51.203125 
Q 32.296875 51.203125 36.6875 49 
Q 41.09375 46.796875 42.5 44.40625 
L 42.5 70.796875 
L 50.90625 70.796875 
L 50.90625 0 
L 42.5 0 
L 42.5 6.203125 
Q 40.59375 3.296875 36.4375 1.25 
Q 32.296875 -0.796875 27.796875 -0.796875 
Q 17 -0.796875 11.203125 6.34375 
Q 5.40625 13.5 5.40625 25.203125 
Q 5.40625 36.90625 11.203125 44.046875 
Q 17 51.203125 27.796875 51.203125 
z
M 28.59375 6.796875 
Q 35.40625 6.796875 39.296875 11.890625 
Q 43.203125 17 43.203125 25.203125 
Q 43.203125 33.40625 39.296875 38.5 
Q 35.40625 43.59375 28.59375 43.59375 
Q 22 43.59375 18 38.5 
Q 14 33.40625 14 25.203125 
Q 14 17 18 11.890625 
Q 22 6.796875 28.59375 6.796875 
z
" id="Apercu-64"/>
     </defs>
     <g style="opacity:0.75;" transform="translate(6039.58375 238.511563)scale(0.14 -0.14)">
      <use xlink:href="#Apercu-70"/>
      <use x="60.099991" xlink:href="#Apercu-72"/>
      <use x="101.399979" xlink:href="#Apercu-65"/>
      <use x="157.399963" xlink:href="#Apercu-64"/>
     </g>
    </g>
    <g id="line2d_38">
     <path d="M 6000.38375 253.38 
L 6028.38375 253.38 
" style="fill:none;stroke:#b73779;stroke-width:3;"/>
    </g>
    <g id="line2d_39"/>
    <g id="text_23">
     <!-- actual -->
     <defs>
      <path d="M 14.203125 14.5 
Q 14.203125 10.90625 16.34375 8.84375 
Q 18.5 6.796875 22.5 6.796875 
Q 28.203125 6.796875 32.390625 10.546875 
Q 36.59375 14.296875 36.59375 22.203125 
L 36.59375 23.40625 
L 27.59375 23.40625 
Q 21.203125 23.40625 17.703125 21.09375 
Q 14.203125 18.796875 14.203125 14.5 
z
M 45 32.203125 
L 45 0 
L 38.40625 0 
L 37 7.09375 
Q 31.5 -0.796875 21.203125 -0.796875 
Q 14.40625 -0.796875 10 3 
Q 5.59375 6.796875 5.59375 14.5 
Q 5.59375 22.5 11.6875 26.75 
Q 17.796875 31 28.40625 31 
L 36.59375 31 
L 36.59375 33.203125 
Q 36.59375 43.59375 25.59375 43.59375 
Q 21.59375 43.59375 18.75 41.5 
Q 15.90625 39.40625 15.09375 35.703125 
L 7.703125 37.40625 
Q 8.703125 43.796875 13.59375 47.5 
Q 18.5 51.203125 25.59375 51.203125 
Q 34.40625 51.203125 39.703125 46.5 
Q 45 41.796875 45 32.203125 
z
" id="Apercu-61"/>
      <path d="M 42.09375 16.09375 
L 49.40625 13.09375 
Q 43.296875 -0.796875 28.296875 -0.796875 
Q 17.296875 -0.796875 11.34375 6.75 
Q 5.40625 14.296875 5.40625 25.1875 
Q 5.40625 36.09375 11.34375 43.640625 
Q 17.296875 51.203125 28.296875 51.203125 
Q 43.296875 51.203125 49.40625 37.296875 
L 42.09375 34.296875 
Q 38.09375 43.59375 28.296875 43.59375 
Q 21.296875 43.59375 17.640625 38.4375 
Q 14 33.296875 14 25.1875 
Q 14 17.09375 17.640625 11.9375 
Q 21.296875 6.796875 28.296875 6.796875 
Q 38.09375 6.796875 42.09375 16.09375 
z
" id="Apercu-63"/>
      <path d="M 2.5 42.796875 
L 2.5 50.40625 
L 11.203125 50.40625 
L 11.203125 65.5 
L 19.59375 70.796875 
L 19.59375 50.40625 
L 32.796875 50.40625 
L 32.796875 42.796875 
L 19.59375 42.796875 
L 19.59375 15.09375 
Q 19.59375 11.09375 21.34375 8.9375 
Q 23.09375 6.796875 26.296875 6.796875 
Q 29.59375 6.796875 32 8.40625 
L 34 1.09375 
Q 30.703125 -0.796875 25.796875 -0.796875 
Q 19.09375 -0.796875 15.140625 3.390625 
Q 11.203125 7.59375 11.203125 15.796875 
L 11.203125 42.796875 
z
" id="Apercu-74"/>
      <path d="M 8.59375 14.90625 
L 8.59375 50.40625 
L 17 50.40625 
L 17 17.09375 
Q 17 6.796875 25.703125 6.796875 
Q 31.59375 6.796875 35.84375 13 
Q 40.09375 19.203125 40.09375 29.296875 
L 40.09375 50.40625 
L 48.5 50.40625 
L 48.5 0 
L 40.09375 0 
L 40.09375 9.296875 
Q 34.40625 -0.796875 23.40625 -0.796875 
Q 16.5 -0.796875 12.546875 3.296875 
Q 8.59375 7.40625 8.59375 14.90625 
z
" id="Apercu-75"/>
      <path d="M 9 70.796875 
L 17.40625 70.796875 
L 17.40625 0 
L 9 0 
z
" id="Apercu-6c"/>
     </defs>
     <g style="opacity:0.75;" transform="translate(6039.58375 258.28)scale(0.14 -0.14)">
      <use xlink:href="#Apercu-61"/>
      <use x="51.799988" xlink:href="#Apercu-63"/>
      <use x="105.615601" xlink:href="#Apercu-74"/>
      <use x="143.399963" xlink:href="#Apercu-75"/>
      <use x="201.09996" xlink:href="#Apercu-61"/>
      <use x="252.899948" xlink:href="#Apercu-6c"/>
     </g>
    </g>
   </g>
  </g>
 </g>
 <defs>
  <clipPath id="p3e5457db93">
   <rect height="964.8" width="5313.6" x="777.6" y="216"/>
  </clipPath>
 </defs>
</svg>
