<?xml version="1.0" encoding="utf-8" standalone="no"?>
<!DOCTYPE svg PUBLIC "-//W3C//DTD SVG 1.1//EN"
  "http://www.w3.org/Graphics/SVG/1.1/DTD/svg11.dtd">
<!-- Created with matplotlib (http://matplotlib.org/) -->
<svg height="1440pt" version="1.1" viewBox="0 0 6480 1440" width="6480pt" xmlns="http://www.w3.org/2000/svg" xmlns:xlink="http://www.w3.org/1999/xlink">
 <defs>
  <style type="text/css">
*{stroke-linecap:butt;stroke-linejoin:round;}
  </style>
 </defs>
 <g id="figure_1">
  <g id="patch_1">
   <path d="M 0 1440 
L 6480 1440 
L 6480 0 
L 0 0 
z
" style="fill:#f0f0f0;"/>
  </g>
  <g id="axes_1">
   <g id="patch_2">
    <path d="M 777.6 1180.8 
L 6091.2 1180.8 
L 6091.2 216 
L 777.6 216 
z
" style="fill:#f0f0f0;"/>
   </g>
   <g id="matplotlib.axis_1">
    <g id="xtick_1">
     <g id="line2d_1">
      <path clip-path="url(#pa7184d6928)" d="M 777.6 1180.8 
L 777.6 216 
" style="fill:none;stroke:#b0b0b0;stroke-linecap:square;stroke-width:0.8;"/>
     </g>
     <g id="line2d_2">
      <defs>
       <path d="M 0 0 
L 0 3.5 
" id="mb9a615b0f1" style="stroke:#000000;stroke-width:0.8;"/>
      </defs>
      <g>
       <use style="stroke:#000000;stroke-width:0.8;" x="777.6" xlink:href="#mb9a615b0f1" y="1180.8"/>
      </g>
     </g>
     <g id="text_1">
      <!-- 0 -->
      <defs>
       <path d="M 48.203125 52.59375 
L 48.203125 17.40625 
Q 48.203125 9.703125 42.953125 4.34375 
Q 37.703125 -1 29.890625 -1 
Q 22.09375 -1 16.9375 4.390625 
Q 11.796875 9.796875 11.796875 17.5 
L 11.796875 52.59375 
Q 11.796875 60.296875 16.9375 65.640625 
Q 22.09375 71 29.890625 71 
Q 37.703125 71 42.953125 65.640625 
Q 48.203125 60.296875 48.203125 52.59375 
z
M 39.90625 17.296875 
L 39.90625 52.5 
Q 39.90625 56.90625 37 60 
Q 34.09375 63.09375 29.90625 63.09375 
Q 25.796875 63.09375 22.890625 60 
Q 20 56.90625 20 52.5 
L 20 17.40625 
Q 20 13 22.890625 9.953125 
Q 25.796875 6.90625 30 6.90625 
Q 34.09375 6.90625 37 9.90625 
Q 39.90625 12.90625 39.90625 17.296875 
z
" id="DecimaMonoPro-30"/>
      </defs>
      <g style="fill:#303030;" transform="translate(773.4 1197.613125)scale(0.14 -0.14)">
       <use xlink:href="#DecimaMonoPro-30"/>
      </g>
     </g>
    </g>
    <g id="xtick_2">
     <g id="line2d_3">
      <path clip-path="url(#pa7184d6928)" d="M 1537.771674 1180.8 
L 1537.771674 216 
" style="fill:none;stroke:#b0b0b0;stroke-linecap:square;stroke-width:0.8;"/>
     </g>
     <g id="line2d_4">
      <g>
       <use style="stroke:#000000;stroke-width:0.8;" x="1537.771674" xlink:href="#mb9a615b0f1" y="1180.8"/>
      </g>
     </g>
     <g id="text_2">
      <!-- 100 -->
      <defs>
       <path d="M 13.90625 68.203125 
L 25.203125 70 
L 32.296875 70 
Q 33 70 33.546875 69.5 
Q 34.09375 69 34.09375 68.203125 
L 34.09375 7.703125 
L 47.296875 7.703125 
Q 48 7.703125 48.546875 7.140625 
Q 49.09375 6.59375 49.09375 5.90625 
L 49.09375 1.796875 
Q 49.09375 1 48.546875 0.5 
Q 48 0 47.296875 0 
L 12.59375 0 
Q 11.796875 0 11.296875 0.5 
Q 10.796875 1 10.796875 1.796875 
L 10.796875 5.90625 
Q 10.796875 6.59375 11.296875 7.140625 
Q 11.796875 7.703125 12.59375 7.703125 
L 25.703125 7.703125 
L 25.703125 62.09375 
L 14.703125 60.40625 
L 14.40625 60.40625 
Q 14 60.296875 13.5 60.296875 
Q 12.09375 60.296875 12.09375 62.09375 
L 12.09375 66.296875 
Q 12.09375 67.796875 13.90625 68.203125 
z
" id="DecimaMonoPro-31"/>
      </defs>
      <g style="fill:#303030;" transform="translate(1525.171674 1197.613125)scale(0.14 -0.14)">
       <use xlink:href="#DecimaMonoPro-31"/>
       <use x="59.999985" xlink:href="#DecimaMonoPro-30"/>
       <use x="119.999969" xlink:href="#DecimaMonoPro-30"/>
      </g>
     </g>
    </g>
    <g id="xtick_3">
     <g id="line2d_5">
      <path clip-path="url(#pa7184d6928)" d="M 2297.943348 1180.8 
L 2297.943348 216 
" style="fill:none;stroke:#b0b0b0;stroke-linecap:square;stroke-width:0.8;"/>
     </g>
     <g id="line2d_6">
      <g>
       <use style="stroke:#000000;stroke-width:0.8;" x="2297.943348" xlink:href="#mb9a615b0f1" y="1180.8"/>
      </g>
     </g>
     <g id="text_3">
      <!-- 200 -->
      <defs>
       <path d="M 11.703125 53 
Q 11.703125 59.703125 17.203125 65.34375 
Q 22.703125 71 30.59375 71 
Q 38.40625 71 43.796875 65.75 
Q 49.203125 60.5 49.203125 52.703125 
Q 49.203125 46.90625 46.09375 41.75 
Q 43 36.59375 38.59375 32.84375 
Q 34.203125 29.09375 29.796875 25.4375 
Q 25.40625 21.796875 22.296875 17.296875 
Q 19.203125 12.796875 19.203125 7.796875 
L 47.40625 7.796875 
Q 48.203125 7.796875 48.703125 7.296875 
Q 49.203125 6.796875 49.203125 6 
L 49.203125 1.796875 
Q 49.203125 1 48.703125 0.5 
Q 48.203125 0 47.40625 0 
L 12.59375 0 
Q 11.796875 0 11.296875 0.5 
Q 10.796875 1 10.796875 1.796875 
L 10.796875 7.296875 
Q 10.796875 13.90625 13.890625 19.453125 
Q 17 25 21.390625 28.890625 
Q 25.796875 32.796875 30.1875 36.390625 
Q 34.59375 40 37.6875 44.296875 
Q 40.796875 48.59375 40.796875 53.296875 
Q 40.796875 57.40625 37.75 60.25 
Q 34.703125 63.09375 30.5 63.09375 
Q 26.09375 63.09375 23.1875 59.6875 
Q 20.296875 56.296875 20.09375 53 
Q 19.90625 51 17.796875 51 
L 14 51 
Q 12.90625 51 12.296875 51.59375 
Q 11.703125 52.203125 11.703125 53 
z
" id="DecimaMonoPro-32"/>
      </defs>
      <g style="fill:#303030;" transform="translate(2285.343348 1197.613125)scale(0.14 -0.14)">
       <use xlink:href="#DecimaMonoPro-32"/>
       <use x="59.999985" xlink:href="#DecimaMonoPro-30"/>
       <use x="119.999969" xlink:href="#DecimaMonoPro-30"/>
      </g>
     </g>
    </g>
    <g id="xtick_4">
     <g id="line2d_7">
      <path clip-path="url(#pa7184d6928)" d="M 3058.115021 1180.8 
L 3058.115021 216 
" style="fill:none;stroke:#b0b0b0;stroke-linecap:square;stroke-width:0.8;"/>
     </g>
     <g id="line2d_8">
      <g>
       <use style="stroke:#000000;stroke-width:0.8;" x="3058.115021" xlink:href="#mb9a615b0f1" y="1180.8"/>
      </g>
     </g>
     <g id="text_4">
      <!-- 300 -->
      <defs>
       <path d="M 46.203125 61.09375 
L 35.40625 47.09375 
Q 40.796875 46.40625 44.890625 41.953125 
Q 49 37.5 49 31.5 
L 49 17.5 
Q 49 9.796875 43.5 4.390625 
Q 38 -1 30 -1 
Q 21.796875 -1 16.34375 4.34375 
Q 10.90625 9.703125 10.90625 17.40625 
Q 10.90625 18.203125 11.5 18.796875 
Q 12.09375 19.40625 13.203125 19.40625 
L 17 19.40625 
Q 19.09375 19.40625 19.296875 17.40625 
Q 19.296875 13 22.390625 9.953125 
Q 25.5 6.90625 30 6.90625 
Q 34.40625 6.90625 37.5 9.953125 
Q 40.59375 13 40.59375 17.40625 
L 40.59375 31.40625 
Q 40.59375 34.59375 38.296875 36.9375 
Q 36 39.296875 32.703125 39.296875 
L 27.40625 39.296875 
Q 25.203125 39.296875 25.203125 41.59375 
L 25.203125 45 
Q 25.203125 46.703125 26.296875 48.203125 
L 36.59375 62.09375 
L 16.90625 62.09375 
Q 14.703125 62.09375 14.703125 64.40625 
L 14.703125 67.703125 
Q 14.703125 70 16.90625 70 
L 45.09375 70 
Q 47.296875 70 47.296875 67.703125 
L 47.296875 64.296875 
Q 47.296875 62.59375 46.203125 61.09375 
z
" id="DecimaMonoPro-33"/>
      </defs>
      <g style="fill:#303030;" transform="translate(3045.515021 1197.613125)scale(0.14 -0.14)">
       <use xlink:href="#DecimaMonoPro-33"/>
       <use x="59.999985" xlink:href="#DecimaMonoPro-30"/>
       <use x="119.999969" xlink:href="#DecimaMonoPro-30"/>
      </g>
     </g>
    </g>
    <g id="xtick_5">
     <g id="line2d_9">
      <path clip-path="url(#pa7184d6928)" d="M 3818.286695 1180.8 
L 3818.286695 216 
" style="fill:none;stroke:#b0b0b0;stroke-linecap:square;stroke-width:0.8;"/>
     </g>
     <g id="line2d_10">
      <g>
       <use style="stroke:#000000;stroke-width:0.8;" x="3818.286695" xlink:href="#mb9a615b0f1" y="1180.8"/>
      </g>
     </g>
     <g id="text_5">
      <!-- 400 -->
      <defs>
       <path d="M 40.09375 67.5 
L 19.5 22.90625 
L 35.796875 22.90625 
L 35.796875 38.90625 
Q 35.796875 39.703125 36.390625 40.296875 
Q 37 40.90625 38.09375 40.90625 
L 42.203125 40.90625 
Q 43 40.90625 43.59375 40.25 
Q 44.203125 39.59375 44.203125 38.90625 
L 44.203125 22.90625 
L 48 22.90625 
Q 48.796875 22.90625 49.390625 22.296875 
Q 50 21.703125 50 20.59375 
L 50 17.40625 
Q 50 16.296875 49.390625 15.6875 
Q 48.796875 15.09375 48 15.09375 
L 44.203125 15.09375 
L 44.203125 2 
Q 44.203125 1.203125 43.59375 0.59375 
Q 43 0 42.203125 0 
L 38.09375 0 
Q 37 0 36.390625 0.59375 
Q 35.796875 1.203125 35.796875 2 
L 35.796875 15.09375 
L 12.09375 15.09375 
Q 9.90625 15.09375 9.90625 17.40625 
L 9.90625 21.296875 
Q 9.90625 22.5 11 24.703125 
L 31.296875 68 
Q 32.296875 70 34 70 
L 38.796875 70 
Q 40.5 70 40.5 68.796875 
Q 40.5 68.5 40.09375 67.5 
z
" id="DecimaMonoPro-34"/>
      </defs>
      <g style="fill:#303030;" transform="translate(3805.686695 1197.613125)scale(0.14 -0.14)">
       <use xlink:href="#DecimaMonoPro-34"/>
       <use x="59.999985" xlink:href="#DecimaMonoPro-30"/>
       <use x="119.999969" xlink:href="#DecimaMonoPro-30"/>
      </g>
     </g>
    </g>
    <g id="xtick_6">
     <g id="line2d_11">
      <path clip-path="url(#pa7184d6928)" d="M 4578.458369 1180.8 
L 4578.458369 216 
" style="fill:none;stroke:#b0b0b0;stroke-linecap:square;stroke-width:0.8;"/>
     </g>
     <g id="line2d_12">
      <g>
       <use style="stroke:#000000;stroke-width:0.8;" x="4578.458369" xlink:href="#mb9a615b0f1" y="1180.8"/>
      </g>
     </g>
     <g id="text_6">
      <!-- 500 -->
      <defs>
       <path d="M 21.90625 35.59375 
Q 21.09375 34.40625 19.796875 34.40625 
Q 19.40625 34.40625 18.203125 34.796875 
L 14.796875 35.796875 
Q 13.203125 36.296875 13.40625 38.5 
L 15.90625 67.703125 
Q 16.09375 70 18.09375 70 
L 44.40625 70 
Q 46.59375 70 46.59375 67.703125 
L 46.59375 64.40625 
Q 46.59375 62.09375 44.40625 62.09375 
L 24.09375 62.09375 
L 22.40625 44.796875 
Q 25.203125 47.203125 30.703125 47.203125 
Q 38.40625 47.203125 43.703125 42 
Q 49 36.796875 49 28.90625 
L 49 17.5 
Q 49 9.796875 43.5 4.390625 
Q 38 -1 30.09375 -1 
Q 21.90625 -1 16.453125 4.34375 
Q 11 9.703125 11 17.40625 
Q 11 18.203125 11.59375 18.796875 
Q 12.203125 19.40625 13.296875 19.40625 
L 17.09375 19.40625 
Q 18.203125 19.40625 18.796875 18.796875 
Q 19.40625 18.203125 19.40625 17.40625 
Q 19.40625 13 22.5 9.953125 
Q 25.59375 6.90625 30.09375 6.90625 
Q 34.5 6.90625 37.546875 9.953125 
Q 40.59375 13 40.59375 17.40625 
L 40.59375 28.796875 
Q 40.59375 33.203125 37.5 36.25 
Q 34.40625 39.296875 29.796875 39.296875 
Q 27.703125 39.296875 25.796875 38.4375 
Q 23.90625 37.59375 23.09375 36.890625 
Q 22.296875 36.203125 21.90625 35.59375 
z
" id="DecimaMonoPro-35"/>
      </defs>
      <g style="fill:#303030;" transform="translate(4565.858369 1197.613125)scale(0.14 -0.14)">
       <use xlink:href="#DecimaMonoPro-35"/>
       <use x="59.999985" xlink:href="#DecimaMonoPro-30"/>
       <use x="119.999969" xlink:href="#DecimaMonoPro-30"/>
      </g>
     </g>
    </g>
    <g id="xtick_7">
     <g id="line2d_13">
      <path clip-path="url(#pa7184d6928)" d="M 5338.630043 1180.8 
L 5338.630043 216 
" style="fill:none;stroke:#b0b0b0;stroke-linecap:square;stroke-width:0.8;"/>
     </g>
     <g id="line2d_14">
      <g>
       <use style="stroke:#000000;stroke-width:0.8;" x="5338.630043" xlink:href="#mb9a615b0f1" y="1180.8"/>
      </g>
     </g>
     <g id="text_7">
      <!-- 600 -->
      <defs>
       <path d="M 11 60.203125 
Q 21.59375 71 29.5 71 
Q 37.40625 71 42.65625 65.953125 
Q 47.90625 60.90625 47.90625 54.40625 
Q 47.90625 53.59375 47.296875 53 
Q 46.703125 52.40625 45.59375 52.40625 
L 41.796875 52.40625 
Q 39.703125 52.40625 39.5 54.40625 
Q 39.296875 57.59375 36.640625 60.296875 
Q 34 63 29.5 63 
Q 25.203125 63 22.25 59.890625 
Q 19.296875 56.796875 19.296875 52.40625 
L 19.296875 42.796875 
Q 19.703125 43.296875 20.59375 44.046875 
Q 21.5 44.796875 24.546875 46 
Q 27.59375 47.203125 31 47.203125 
Q 38.40625 47.203125 43.703125 42 
Q 49 36.796875 49 28.90625 
L 49 17.5 
Q 49 9.796875 43.546875 4.390625 
Q 38.09375 -1 30 -1 
Q 21.90625 -1 16.453125 4.34375 
Q 11 9.703125 11 17.40625 
L 11 52.5 
Q 11 60.203125 21.59375 71 
z
M 30 39.296875 
Q 25.40625 39.296875 22.34375 36.390625 
Q 19.296875 33.5 19.296875 28.796875 
L 19.296875 17.296875 
Q 19.296875 12.90625 22.390625 9.90625 
Q 25.5 6.90625 30 6.90625 
Q 34.40625 6.90625 37.5 9.953125 
Q 40.59375 13 40.59375 17.40625 
L 40.59375 28.796875 
Q 40.59375 33.40625 37.546875 36.34375 
Q 34.5 39.296875 30 39.296875 
z
" id="DecimaMonoPro-36"/>
      </defs>
      <g style="fill:#303030;" transform="translate(5326.030043 1197.613125)scale(0.14 -0.14)">
       <use xlink:href="#DecimaMonoPro-36"/>
       <use x="59.999985" xlink:href="#DecimaMonoPro-30"/>
       <use x="119.999969" xlink:href="#DecimaMonoPro-30"/>
      </g>
     </g>
    </g>
    <g id="text_8">
     <!-- x -->
     <defs>
      <path d="M 3.59375 50.40625 
L 13.09375 50.40625 
L 22.90625 34.40625 
L 32.703125 50.40625 
L 42.203125 50.40625 
L 27.59375 26.59375 
L 44 0 
L 34.5 0 
L 22.90625 18.90625 
L 11.296875 0 
L 1.796875 0 
L 18.203125 26.59375 
z
" id="Apercu-78"/>
     </defs>
     <g style="opacity:0.75;" transform="translate(3431.194219 1214.044688)scale(0.14 -0.14)">
      <use xlink:href="#Apercu-78"/>
     </g>
    </g>
   </g>
   <g id="matplotlib.axis_2">
    <g id="ytick_1">
     <g id="line2d_15">
      <path clip-path="url(#pa7184d6928)" d="M 777.6 1152.305676 
L 6091.2 1152.305676 
" style="fill:none;stroke:#b0b0b0;stroke-linecap:square;stroke-width:0.8;"/>
     </g>
     <g id="line2d_16">
      <defs>
       <path d="M 0 0 
L -3.5 0 
" id="m43316c7a44" style="stroke:#000000;stroke-width:0.8;"/>
      </defs>
      <g>
       <use style="stroke:#000000;stroke-width:0.8;" x="777.6" xlink:href="#m43316c7a44" y="1152.305676"/>
      </g>
     </g>
     <g id="text_9">
      <!-- −4 -->
      <defs>
       <path d="M 50.203125 25.296875 
L 9.796875 25.296875 
Q 9 25.296875 8.5 25.84375 
Q 8 26.40625 8 27.09375 
L 8 31.296875 
Q 8 32 8.5 32.546875 
Q 9 33.09375 9.796875 33.09375 
L 50.203125 33.09375 
Q 51 33.09375 51.5 32.546875 
Q 52 32 52 31.296875 
L 52 27.09375 
Q 52 26.40625 51.5 25.84375 
Q 51 25.296875 50.203125 25.296875 
z
" id="DecimaMonoPro-2212"/>
      </defs>
      <g style="fill:#303030;" transform="translate(753.8 1157.212239)scale(0.14 -0.14)">
       <use xlink:href="#DecimaMonoPro-2212"/>
       <use x="59.999985" xlink:href="#DecimaMonoPro-34"/>
      </g>
     </g>
    </g>
    <g id="ytick_2">
     <g id="line2d_17">
      <path clip-path="url(#pa7184d6928)" d="M 777.6 1037.693117 
L 6091.2 1037.693117 
" style="fill:none;stroke:#b0b0b0;stroke-linecap:square;stroke-width:0.8;"/>
     </g>
     <g id="line2d_18">
      <g>
       <use style="stroke:#000000;stroke-width:0.8;" x="777.6" xlink:href="#m43316c7a44" y="1037.693117"/>
      </g>
     </g>
     <g id="text_10">
      <!-- −3 -->
      <g style="fill:#303030;" transform="translate(753.8 1042.599679)scale(0.14 -0.14)">
       <use xlink:href="#DecimaMonoPro-2212"/>
       <use x="59.999985" xlink:href="#DecimaMonoPro-33"/>
      </g>
     </g>
    </g>
    <g id="ytick_3">
     <g id="line2d_19">
      <path clip-path="url(#pa7184d6928)" d="M 777.6 923.080557 
L 6091.2 923.080557 
" style="fill:none;stroke:#b0b0b0;stroke-linecap:square;stroke-width:0.8;"/>
     </g>
     <g id="line2d_20">
      <g>
       <use style="stroke:#000000;stroke-width:0.8;" x="777.6" xlink:href="#m43316c7a44" y="923.080557"/>
      </g>
     </g>
     <g id="text_11">
      <!-- −2 -->
      <g style="fill:#303030;" transform="translate(753.8 927.98712)scale(0.14 -0.14)">
       <use xlink:href="#DecimaMonoPro-2212"/>
       <use x="59.999985" xlink:href="#DecimaMonoPro-32"/>
      </g>
     </g>
    </g>
    <g id="ytick_4">
     <g id="line2d_21">
      <path clip-path="url(#pa7184d6928)" d="M 777.6 808.467998 
L 6091.2 808.467998 
" style="fill:none;stroke:#b0b0b0;stroke-linecap:square;stroke-width:0.8;"/>
     </g>
     <g id="line2d_22">
      <g>
       <use style="stroke:#000000;stroke-width:0.8;" x="777.6" xlink:href="#m43316c7a44" y="808.467998"/>
      </g>
     </g>
     <g id="text_12">
      <!-- −1 -->
      <g style="fill:#303030;" transform="translate(753.8 813.37456)scale(0.14 -0.14)">
       <use xlink:href="#DecimaMonoPro-2212"/>
       <use x="59.999985" xlink:href="#DecimaMonoPro-31"/>
      </g>
     </g>
    </g>
    <g id="ytick_5">
     <g id="line2d_23">
      <path clip-path="url(#pa7184d6928)" d="M 777.6 693.855439 
L 6091.2 693.855439 
" style="fill:none;stroke:#b0b0b0;stroke-linecap:square;stroke-width:0.8;"/>
     </g>
     <g id="line2d_24">
      <g>
       <use style="stroke:#000000;stroke-width:0.8;" x="777.6" xlink:href="#m43316c7a44" y="693.855439"/>
      </g>
     </g>
     <g id="text_13">
      <!-- 0 -->
      <g style="fill:#303030;" transform="translate(762.2 698.762001)scale(0.14 -0.14)">
       <use xlink:href="#DecimaMonoPro-30"/>
      </g>
     </g>
    </g>
    <g id="ytick_6">
     <g id="line2d_25">
      <path clip-path="url(#pa7184d6928)" d="M 777.6 579.242879 
L 6091.2 579.242879 
" style="fill:none;stroke:#b0b0b0;stroke-linecap:square;stroke-width:0.8;"/>
     </g>
     <g id="line2d_26">
      <g>
       <use style="stroke:#000000;stroke-width:0.8;" x="777.6" xlink:href="#m43316c7a44" y="579.242879"/>
      </g>
     </g>
     <g id="text_14">
      <!-- 1 -->
      <g style="fill:#303030;" transform="translate(762.2 584.149442)scale(0.14 -0.14)">
       <use xlink:href="#DecimaMonoPro-31"/>
      </g>
     </g>
    </g>
    <g id="ytick_7">
     <g id="line2d_27">
      <path clip-path="url(#pa7184d6928)" d="M 777.6 464.63032 
L 6091.2 464.63032 
" style="fill:none;stroke:#b0b0b0;stroke-linecap:square;stroke-width:0.8;"/>
     </g>
     <g id="line2d_28">
      <g>
       <use style="stroke:#000000;stroke-width:0.8;" x="777.6" xlink:href="#m43316c7a44" y="464.63032"/>
      </g>
     </g>
     <g id="text_15">
      <!-- 2 -->
      <g style="fill:#303030;" transform="translate(762.2 469.536882)scale(0.14 -0.14)">
       <use xlink:href="#DecimaMonoPro-32"/>
      </g>
     </g>
    </g>
    <g id="ytick_8">
     <g id="line2d_29">
      <path clip-path="url(#pa7184d6928)" d="M 777.6 350.01776 
L 6091.2 350.01776 
" style="fill:none;stroke:#b0b0b0;stroke-linecap:square;stroke-width:0.8;"/>
     </g>
     <g id="line2d_30">
      <g>
       <use style="stroke:#000000;stroke-width:0.8;" x="777.6" xlink:href="#m43316c7a44" y="350.01776"/>
      </g>
     </g>
     <g id="text_16">
      <!-- 3 -->
      <g style="fill:#303030;" transform="translate(762.2 354.924323)scale(0.14 -0.14)">
       <use xlink:href="#DecimaMonoPro-33"/>
      </g>
     </g>
    </g>
    <g id="ytick_9">
     <g id="line2d_31">
      <path clip-path="url(#pa7184d6928)" d="M 777.6 235.405201 
L 6091.2 235.405201 
" style="fill:none;stroke:#b0b0b0;stroke-linecap:square;stroke-width:0.8;"/>
     </g>
     <g id="line2d_32">
      <g>
       <use style="stroke:#000000;stroke-width:0.8;" x="777.6" xlink:href="#m43316c7a44" y="235.405201"/>
      </g>
     </g>
     <g id="text_17">
      <!-- 4 -->
      <g style="fill:#303030;" transform="translate(762.2 240.311764)scale(0.14 -0.14)">
       <use xlink:href="#DecimaMonoPro-34"/>
      </g>
     </g>
    </g>
    <g id="text_18">
     <!-- P -->
     <defs>
      <path d="M 34.09375 30 
L 18.5 30 
L 18.5 0 
L 9.703125 0 
L 9.703125 70 
L 34.09375 70 
Q 43.90625 70 49.40625 64.59375 
Q 54.90625 59.203125 54.90625 50 
Q 54.90625 40.796875 49.40625 35.390625 
Q 43.90625 30 34.09375 30 
z
M 34.59375 38.40625 
Q 40 38.40625 42.890625 41.40625 
Q 45.796875 44.40625 45.796875 50 
Q 45.796875 55.59375 42.890625 58.59375 
Q 40 61.59375 34.59375 61.59375 
L 18.5 61.59375 
L 18.5 38.40625 
z
" id="Apercu-50"/>
     </defs>
     <g style="opacity:0.75;" transform="translate(746.943125 702.488438)rotate(-90)scale(0.14 -0.14)">
      <use xlink:href="#Apercu-50"/>
     </g>
    </g>
   </g>
   <g id="line2d_33">
    <path clip-path="url(#pa7184d6928)" d="M 777.6 760.474311 
L 785.201717 788.588034 
L 792.803433 728.276504 
L 800.40515 770.564657 
L 808.006867 781.432195 
L 815.608584 754.218399 
L 823.2103 747.144196 
L 830.812017 760.430863 
L 838.413734 730.556778 
L 846.015451 723.240212 
L 853.617167 715.393894 
L 861.218884 667.445023 
L 868.820601 718.953862 
L 876.422318 662.269018 
L 884.024034 622.596071 
L 891.625751 648.619119 
L 899.227468 646.521256 
L 906.829185 833.425588 
L 914.430901 714.282458 
L 922.032618 708.82564 
L 929.634335 672.756014 
L 937.236052 672.531673 
L 944.837768 629.63904 
L 952.439485 896.473188 
L 960.041202 879.55175 
L 967.642918 907.019908 
L 975.244635 834.320015 
L 982.846352 897.977485 
L 990.448069 833.924338 
L 998.049785 730.186493 
L 1005.651502 662.858401 
L 1013.253219 724.280166 
L 1020.854936 772.198211 
L 1028.456652 798.1306 
L 1036.058369 791.655269 
L 1043.660086 776.626058 
L 1051.261803 784.378787 
L 1058.863519 774.727429 
L 1066.465236 786.063256 
L 1074.066953 784.77818 
L 1081.66867 813.542502 
L 1089.270386 817.449963 
L 1096.872103 818.112831 
L 1104.47382 806.460661 
L 1112.075536 816.905142 
L 1119.677253 825.114238 
L 1127.27897 795.590766 
L 1134.880687 808.911755 
L 1142.482403 703.041571 
L 1150.08412 731.266332 
L 1157.685837 736.986092 
L 1165.287554 719.204275 
L 1172.88927 801.318178 
L 1180.490987 638.999839 
L 1188.092704 625.589629 
L 1195.694421 566.484016 
L 1203.296137 709.308682 
L 1210.897854 718.284678 
L 1218.499571 702.706178 
L 1226.101288 656.084757 
L 1233.703004 583.868106 
L 1241.304721 579.555165 
L 1248.906438 585.697177 
L 1256.508155 601.418741 
L 1264.109871 598.210915 
L 1271.711588 618.788437 
L 1279.313305 593.769364 
L 1286.915021 656.746232 
L 1294.516738 733.103863 
L 1302.118455 798.589885 
L 1309.720172 729.733804 
L 1317.321888 712.599672 
L 1324.923605 855.671888 
L 1332.525322 839.753237 
L 1340.127039 658.152795 
L 1347.728755 701.877164 
L 1355.330472 670.268668 
L 1362.932189 650.797444 
L 1370.533906 587.347236 
L 1378.135622 683.464545 
L 1385.737339 644.135717 
L 1393.339056 635.424793 
L 1400.940773 488.907266 
L 1408.542489 779.610475 
L 1416.144206 885.294109 
L 1423.745923 599.962277 
L 1431.347639 605.065828 
L 1438.949356 621.35184 
L 1446.551073 589.037704 
L 1454.15279 622.253665 
L 1461.754506 567.672249 
L 1469.356223 574.644104 
L 1476.95794 586.414574 
L 1484.559657 614.51076 
L 1492.161373 691.251667 
L 1499.76309 715.048937 
L 1507.364807 727.857774 
L 1514.966524 721.906146 
L 1522.56824 685.480147 
L 1530.169957 585.715902 
L 1537.771674 728.973434 
L 1545.373391 720.973379 
L 1552.975107 760.141804 
L 1560.576824 775.276711 
L 1568.178541 726.910715 
L 1575.780258 846.648662 
L 1583.381974 844.798489 
L 1590.983691 805.557913 
L 1598.585408 654.055939 
L 1606.187124 789.596464 
L 1613.788841 824.113514 
L 1621.390558 815.308989 
L 1628.992275 744.659515 
L 1636.593991 748.911261 
L 1644.195708 823.92207 
L 1651.797425 829.628823 
L 1659.399142 713.351331 
L 1667.000858 826.487126 
L 1674.602575 814.31593 
L 1682.204292 820.448514 
L 1689.806009 823.691317 
L 1697.407725 822.480349 
L 1705.009442 692.215386 
L 1712.611159 790.041245 
L 1720.212876 751.328993 
L 1727.814592 674.89722 
L 1735.416309 708.518588 
L 1743.018026 748.845324 
L 1750.619742 609.337351 
L 1758.221459 580.431051 
L 1765.823176 603.995751 
L 1773.424893 767.528423 
L 1781.026609 747.563732 
L 1788.628326 673.676406 
L 1796.230043 673.4726 
L 1803.83176 753.777579 
L 1811.433476 681.659502 
L 1819.035193 745.86826 
L 1826.63691 692.890453 
L 1834.238627 815.710992 
L 1841.840343 772.19606 
L 1849.44206 545.090894 
L 1857.043777 788.5264 
L 1864.645494 670.395444 
L 1872.24721 665.852211 
L 1879.848927 919.599023 
L 1887.450644 840.123952 
L 1895.052361 808.087555 
L 1902.654077 848.877979 
L 1910.255794 744.827839 
L 1917.857511 676.275229 
L 1925.459227 672.454114 
L 1933.060944 575.322247 
L 1940.662661 707.024425 
L 1948.264378 721.400522 
L 1955.866094 810.448091 
L 1963.467811 721.828608 
L 1971.069528 709.803557 
L 1978.671245 798.782887 
L 1986.272961 809.928902 
L 1993.874678 716.021849 
L 2001.476395 935.138051 
L 2009.078112 805.850757 
L 2016.679828 778.460703 
L 2031.883262 674.007637 
L 2039.484979 876.981448 
L 2047.086695 817.665085 
L 2054.688412 912.308796 
L 2062.290129 714.141518 
L 2069.891845 772.970957 
L 2077.493562 742.655311 
L 2085.095279 744.647717 
L 2092.696996 774.70132 
L 2100.298712 747.968368 
L 2107.900429 643.151548 
L 2115.502146 666.739954 
L 2123.103863 704.61804 
L 2130.705579 834.246645 
L 2138.307296 785.312317 
L 2145.909013 749.630195 
L 2153.51073 829.932686 
L 2161.112446 842.388056 
L 2168.714163 777.408886 
L 2176.31588 772.78894 
L 2183.917597 827.538717 
L 2191.519313 817.909227 
L 2199.12103 803.584932 
L 2206.722747 717.280852 
L 2214.324464 770.843291 
L 2221.92618 839.595117 
L 2229.527897 742.027074 
L 2237.129614 726.546346 
L 2244.73133 873.928149 
L 2252.333047 860.315287 
L 2259.934764 789.639283 
L 2267.536481 824.246017 
L 2275.138197 791.983007 
L 2282.739914 752.397519 
L 2290.341631 725.01971 
L 2297.943348 849.269981 
L 2305.545064 866.255758 
L 2313.146781 806.342218 
L 2320.748498 824.128967 
L 2328.350215 813.904185 
L 2335.951931 703.299729 
L 2343.553648 707.315586 
L 2351.155365 666.974076 
L 2358.757082 838.343611 
L 2366.358798 691.952203 
L 2373.960515 779.046328 
L 2381.562232 812.183509 
L 2389.163948 836.647541 
L 2396.765665 705.667873 
L 2404.367382 725.554113 
L 2411.969099 757.855096 
L 2419.570815 809.637021 
L 2427.172532 795.98009 
L 2434.774249 780.971469 
L 2442.375966 739.499086 
L 2449.977682 844.785113 
L 2457.579399 770.297937 
L 2465.181116 795.342921 
L 2472.782833 723.091406 
L 2480.384549 774.881431 
L 2487.986266 535.307123 
L 2495.587983 693.252053 
L 2503.1897 601.923283 
L 2510.791416 704.154661 
L 2518.393133 639.727422 
L 2525.99485 768.946029 
L 2533.596567 708.609845 
L 2541.198283 811.779758 
L 2548.8 740.170036 
L 2556.401717 788.059403 
L 2564.003433 497.832093 
L 2571.60515 575.661209 
L 2579.206867 582.555903 
L 2586.808584 639.119342 
L 2594.4103 650.109999 
L 2602.012017 763.855424 
L 2609.613734 738.699654 
L 2617.215451 673.030884 
L 2624.817167 807.464746 
L 2632.418884 797.700315 
L 2640.020601 846.961582 
L 2647.622318 720.671447 
L 2655.224034 821.581195 
L 2662.825751 846.405544 
L 2670.427468 691.090332 
L 2678.029185 628.874486 
L 2685.630901 794.605686 
L 2693.232618 717.4103 
L 2700.834335 716.949236 
L 2708.436052 684.827185 
L 2716.037768 797.764776 
L 2723.639485 759.294699 
L 2731.241202 662.361096 
L 2738.842918 631.20344 
L 2746.444635 637.207361 
L 2754.046352 522.031051 
L 2761.648069 586.637989 
L 2769.249785 692.708102 
L 2776.851502 786.483663 
L 2784.453219 706.438459 
L 2792.054936 690.417318 
L 2799.656652 720.003397 
L 2807.258369 675.074643 
L 2814.860086 700.92914 
L 2822.461803 694.320836 
L 2830.063519 674.976195 
L 2837.665236 721.089186 
L 2845.266953 743.258868 
L 2852.86867 709.904249 
L 2860.470386 727.624501 
L 2868.072103 725.201949 
L 2875.67382 684.885296 
L 2883.275536 814.35088 
L 2890.877253 811.416844 
L 2898.47897 790.187643 
L 2906.080687 795.063461 
L 2913.682403 812.399902 
L 2921.28412 802.896152 
L 2928.885837 770.422836 
L 2936.487554 920.118868 
L 2944.08927 917.462763 
L 2951.690987 763.693334 
L 2959.292704 907.521391 
L 2966.894421 794.02403 
L 2974.496137 783.900401 
L 2982.097854 748.13829 
L 2989.699571 518.78751 
L 2997.301288 639.50954 
L 3004.903004 633.753583 
L 3012.504721 640.139785 
L 3020.106438 651.367401 
L 3027.708155 656.37205 
L 3035.309871 745.748905 
L 3042.911588 690.164965 
L 3050.513305 498.887974 
L 3058.115021 558.135845 
L 3065.716738 534.87528 
L 3073.318455 577.202382 
L 3080.920172 581.647294 
L 3088.521888 652.160685 
L 3096.123605 607.912121 
L 3103.725322 612.548196 
L 3111.327039 767.282915 
L 3118.928755 766.024659 
L 3126.530472 635.859757 
L 3134.132189 669.905445 
L 3141.733906 692.435169 
L 3149.335622 587.259131 
L 3156.937339 649.662485 
L 3164.539056 661.071238 
L 3172.140773 514.227592 
L 3179.742489 508.902484 
L 3187.344206 475.260957 
L 3194.945923 514.15966 
L 3202.547639 592.582982 
L 3210.149356 567.3402 
L 3217.751073 524.021104 
L 3225.35279 598.062686 
L 3232.954506 607.006238 
L 3240.556223 634.67994 
L 3248.15794 652.303698 
L 3255.759657 594.497398 
L 3263.361373 623.946606 
L 3270.96309 696.797613 
L 3278.564807 651.05639 
L 3286.166524 687.652518 
L 3293.76824 639.156935 
L 3301.369957 638.812364 
L 3308.971674 621.778614 
L 3316.573391 640.935378 
L 3324.175107 650.907468 
L 3331.776824 613.393409 
L 3339.378541 618.511661 
L 3346.980258 627.74807 
L 3354.581974 700.802127 
L 3362.183691 709.926557 
L 3369.785408 493.583292 
L 3377.387124 733.950077 
L 3384.988841 666.52691 
L 3392.590558 804.8849 
L 3400.192275 730.28627 
L 3407.793991 751.274505 
L 3415.395708 742.097879 
L 3422.997425 695.617195 
L 3430.599142 651.962109 
L 3438.200858 623.499932 
L 3445.802575 609.5232 
L 3453.404292 650.746287 
L 3461.006009 628.118553 
L 3468.607725 688.334335 
L 3476.209442 799.82257 
L 3483.811159 721.956919 
L 3491.412876 622.931303 
L 3499.014592 848.776273 
L 3506.616309 760.077568 
L 3514.218026 755.005613 
L 3521.819742 755.328098 
L 3529.421459 726.813886 
L 3537.023176 657.161379 
L 3544.624893 791.055612 
L 3552.226609 784.566501 
L 3559.828326 840.148778 
L 3567.430043 824.442462 
L 3575.03176 851.914063 
L 3582.633476 831.333473 
L 3590.235193 839.777216 
L 3597.83691 837.715118 
L 3605.438627 800.826444 
L 3613.040343 828.208089 
L 3620.64206 777.54738 
L 3628.243777 829.591715 
L 3635.845494 815.567737 
L 3643.44721 813.453761 
L 3651.048927 813.314372 
L 3658.650644 810.146346 
L 3666.252361 728.535098 
L 3673.854077 804.685566 
L 3681.455794 802.533266 
L 3689.057511 790.330591 
L 3696.659227 748.400744 
L 3704.260944 791.487741 
L 3711.862661 780.086907 
L 3719.464378 726.749964 
L 3727.066094 837.883937 
L 3734.667811 829.40579 
L 3742.269528 687.026626 
L 3749.871245 741.209136 
L 3757.472961 774.288742 
L 3765.074678 647.44391 
L 3772.676395 657.433 
L 3780.278112 577.922963 
L 3787.879828 564.709972 
L 3795.481545 601.900671 
L 3803.083262 663.429133 
L 3810.684979 631.788212 
L 3818.286695 675.693565 
L 3825.888412 841.55171 
L 3833.490129 703.427757 
L 3841.091845 657.240022 
L 3848.693562 659.960319 
L 3856.295279 544.681294 
L 3863.896996 561.172926 
L 3871.498712 584.618076 
L 3879.100429 582.36993 
L 3886.702146 602.1799 
L 3894.303863 581.143038 
L 3901.905579 694.972967 
L 3909.507296 675.2714 
L 3917.109013 698.052099 
L 3924.71073 678.517592 
L 3932.312446 671.213921 
L 3939.914163 659.228262 
L 3947.51588 641.252821 
L 3955.117597 596.683199 
L 3962.719313 668.610583 
L 3970.32103 672.185545 
L 3977.922747 670.67404 
L 3985.524464 616.298363 
L 3993.12618 784.270768 
L 4000.727897 612.284892 
L 4008.329614 743.26531 
L 4015.93133 692.410949 
L 4023.533047 668.567325 
L 4031.134764 678.369671 
L 4038.736481 652.842514 
L 4046.338197 689.911853 
L 4053.939914 672.174071 
L 4061.541631 786.032965 
L 4069.143348 776.751995 
L 4076.745064 807.457252 
L 4084.346781 814.454895 
L 4091.948498 773.909761 
L 4099.550215 826.627375 
L 4107.151931 859.109442 
L 4114.753648 810.955968 
L 4122.355365 579.884495 
L 4129.957082 618.677898 
L 4137.558798 754.279397 
L 4145.160515 541.273089 
L 4152.762232 527.600247 
L 4160.363948 671.582559 
L 4167.965665 595.601878 
L 4175.567382 811.119198 
L 4183.169099 774.958421 
L 4190.770815 791.850737 
L 4198.372532 789.531039 
L 4205.974249 822.354377 
L 4213.575966 845.52172 
L 4221.177682 839.852717 
L 4228.779399 825.675318 
L 4236.381116 839.876545 
L 4243.982833 844.287251 
L 4251.584549 836.185722 
L 4259.186266 829.262385 
L 4266.787983 818.601648 
L 4274.3897 816.490364 
L 4281.991416 804.190307 
L 4289.593133 764.906325 
L 4297.19485 737.416524 
L 4304.796567 703.526944 
L 4312.398283 792.798251 
L 4320 664.373085 
L 4327.601717 642.677159 
L 4335.203433 617.348083 
L 4342.80515 753.366245 
L 4350.406867 854.081802 
L 4358.008584 730.785603 
L 4365.6103 745.895036 
L 4373.212017 714.858693 
L 4380.813734 746.668659 
L 4388.415451 691.654893 
L 4396.017167 573.002454 
L 4403.618884 565.638475 
L 4411.220601 629.35173 
L 4418.822318 629.524149 
L 4426.424034 790.64733 
L 4434.025751 712.681083 
L 4441.627468 645.11515 
L 4449.229185 778.578374 
L 4456.830901 730.73569 
L 4464.432618 638.806878 
L 4472.034335 714.651164 
L 4479.636052 672.226967 
L 4487.237768 514.725085 
L 4494.839485 576.486475 
L 4502.441202 557.115528 
L 4510.042918 618.509749 
L 4517.644635 642.593731 
L 4525.246352 651.608391 
L 4532.848069 710.741876 
L 4540.449785 732.730067 
L 4548.051502 690.18941 
L 4555.653219 747.292783 
L 4563.254936 640.85972 
L 4570.856652 719.095568 
L 4578.458369 606.149971 
L 4586.060086 837.861502 
L 4593.661803 806.393925 
L 4601.263519 767.436137 
L 4608.865236 805.568666 
L 4616.466953 803.52364 
L 4624.06867 748.509606 
L 4631.670386 748.213719 
L 4639.272103 702.716614 
L 4646.87382 604.909552 
L 4654.475536 759.540132 
L 4662.077253 595.158101 
L 4669.67897 700.732521 
L 4677.280687 678.556386 
L 4684.882403 672.072558 
L 4692.48412 771.564131 
L 4700.085837 726.971019 
L 4707.687554 744.914656 
L 4715.28927 724.043487 
L 4722.890987 771.657025 
L 4730.492704 743.218583 
L 4738.094421 712.306187 
L 4745.696137 853.39322 
L 4753.297854 893.659523 
L 4760.899571 627.238048 
L 4768.501288 767.492571 
L 4776.103004 704.08175 
L 4783.704721 761.109266 
L 4791.306438 747.696637 
L 4798.908155 687.718419 
L 4806.509871 746.882049 
L 4814.111588 720.527662 
L 4821.713305 762.324122 
L 4829.315021 711.15361 
L 4836.916738 752.415499 
L 4844.518455 719.434251 
L 4852.120172 776.670168 
L 4859.721888 757.5916 
L 4867.323605 685.132322 
L 4874.925322 792.140601 
L 4882.527039 817.279874 
L 4890.128755 795.587883 
L 4897.730472 685.679277 
L 4905.332189 785.759093 
L 4912.933906 710.968487 
L 4920.535622 752.220838 
L 4928.137339 690.301276 
L 4935.739056 771.954896 
L 4943.340773 687.265199 
L 4950.942489 543.148715 
L 4958.544206 474.687635 
L 4966.145923 470.833432 
L 4973.747639 490.229628 
L 4981.349356 671.650815 
L 4988.951073 643.728293 
L 4996.55279 543.653532 
L 5004.154506 533.558875 
L 5011.756223 518.929577 
L 5019.35794 696.717571 
L 5026.959657 756.614308 
L 5034.561373 745.364814 
L 5042.16309 719.900271 
L 5049.764807 932.198973 
L 5057.366524 810.465812 
L 5064.96824 752.72633 
L 5072.569957 644.007316 
L 5080.171674 917.903432 
L 5087.773391 892.703585 
L 5095.375107 899.492863 
L 5102.976824 779.936929 
L 5110.578541 583.507925 
L 5118.180258 671.822214 
L 5125.781974 849.04494 
L 5133.383691 751.286126 
L 5140.985408 706.757167 
L 5148.587124 874.758674 
L 5156.188841 787.33417 
L 5163.790558 675.014068 
L 5171.392275 894.083741 
L 5178.993991 798.224061 
L 5186.595708 728.657763 
L 5194.197425 746.329946 
L 5201.799142 776.069603 
L 5209.400858 734.475073 
L 5217.002575 726.901181 
L 5224.604292 694.632045 
L 5232.206009 708.764908 
L 5239.807725 706.46285 
L 5247.409442 655.390386 
L 5255.011159 698.101321 
L 5262.612876 682.888989 
L 5270.214592 648.743274 
L 5277.816309 691.300849 
L 5285.418026 679.17619 
L 5293.019742 644.129913 
L 5300.621459 681.736778 
L 5308.223176 671.992281 
L 5315.824893 659.214414 
L 5323.426609 654.918046 
L 5331.028326 704.310258 
L 5338.630043 672.934267 
L 5346.23176 568.412627 
L 5353.833476 520.367991 
L 5361.435193 505.78143 
L 5369.03691 531.246856 
L 5376.638627 563.956082 
L 5384.240343 575.42051 
L 5391.84206 535.450187 
L 5399.443777 521.330883 
L 5407.045494 530.002468 
L 5414.64721 753.577186 
L 5422.248927 572.809602 
L 5429.850644 606.392494 
L 5437.452361 638.171209 
L 5445.054077 694.94013 
L 5452.655794 526.352907 
L 5460.257511 650.528637 
L 5467.859227 715.617074 
L 5475.460944 625.488182 
L 5483.062661 712.339968 
L 5490.664378 841.746952 
L 5498.266094 642.852755 
L 5505.867811 749.091409 
L 5513.469528 910.054516 
L 5521.071245 703.317631 
L 5528.672961 918.618219 
L 5536.274678 808.081509 
L 5543.876395 832.47293 
L 5551.478112 764.585302 
L 5559.079828 612.414799 
L 5566.681545 515.51193 
L 5574.283262 480.640512 
L 5581.884979 549.923346 
L 5589.486695 497.3888 
L 5597.088412 546.046408 
L 5612.291845 699.694646 
L 5619.893562 603.817123 
L 5627.495279 667.265835 
L 5635.096996 741.787629 
L 5642.698712 777.2859 
L 5650.300429 808.383404 
L 5657.902146 655.29439 
L 5665.503863 731.767787 
L 5673.105579 783.240915 
L 5680.707296 694.82342 
L 5688.309013 700.840743 
L 5695.91073 601.041249 
L 5703.512446 557.253441 
L 5711.114163 537.161873 
L 5718.71588 456.286371 
L 5726.317597 537.52178 
L 5733.919313 558.793234 
L 5741.52103 626.871883 
L 5749.122747 556.830274 
L 5756.724464 604.820129 
L 5764.32618 678.006262 
L 5771.927897 608.637107 
L 5779.529614 691.647541 
L 5787.13133 675.217693 
L 5794.733047 652.351385 
L 5802.334764 714.026692 
L 5809.936481 918.319234 
L 5817.538197 656.259529 
L 5825.139914 684.384796 
L 5832.741631 650.931118 
L 5840.343348 699.27619 
L 5847.945064 658.071791 
L 5855.546781 630.962331 
L 5863.148498 685.742587 
L 5870.750215 637.266583 
L 5878.351931 685.278096 
L 5885.953648 776.784916 
L 5893.555365 698.081337 
L 5901.157082 603.932041 
L 5908.758798 677.946002 
L 5916.360515 574.954907 
L 5923.962232 779.363355 
L 5931.563948 557.375642 
L 5939.165665 743.527385 
L 5946.767382 838.244732 
L 5954.369099 609.81357 
L 5961.970815 646.957248 
L 5969.572532 601.345002 
L 5977.174249 575.925258 
L 5984.775966 671.907522 
L 5992.377682 796.221021 
L 5999.979399 529.14407 
L 6007.581116 634.600518 
L 6015.182833 735.054503 
L 6022.784549 593.627769 
L 6030.386266 733.095867 
L 6037.987983 621.33112 
L 6045.5897 661.273284 
L 6053.191416 649.225922 
L 6060.793133 732.120795 
L 6068.39485 618.758003 
L 6075.996567 668.937959 
L 6083.598283 633.489234 
L 6091.2 582.130536 
L 6091.2 582.130536 
" style="fill:none;stroke:#000004;stroke-width:3;"/>
   </g>
   <g id="line2d_34">
    <path clip-path="url(#pa7184d6928)" d="M 777.6 745.350744 
L 785.201717 750.831907 
L 792.803433 753.809393 
L 800.40515 757.795164 
L 808.006867 755.02662 
L 815.608584 756.508954 
L 823.2103 752.131844 
L 830.812017 768.230196 
L 838.413734 762.134556 
L 846.015451 755.378412 
L 853.617167 749.415506 
L 861.218884 712.857942 
L 868.820601 684.328221 
L 876.422318 684.626273 
L 884.024034 699.031062 
L 891.625751 716.492356 
L 899.227468 706.166028 
L 906.829185 629.90283 
L 914.430901 638.246434 
L 922.032618 680.609106 
L 929.634335 636.430196 
L 937.236052 640.815025 
L 944.837768 634.316371 
L 952.439485 818.787504 
L 960.041202 819.152276 
L 967.642918 823.532787 
L 975.244635 825.650889 
L 982.846352 819.511213 
L 990.448069 812.430767 
L 998.049785 756.665079 
L 1005.651502 775.752514 
L 1013.253219 762.464747 
L 1020.854936 784.686488 
L 1028.456652 769.072253 
L 1036.058369 804.181351 
L 1043.660086 785.527213 
L 1051.261803 800.275461 
L 1058.863519 860.83904 
L 1066.465236 851.040554 
L 1074.066953 869.253312 
L 1081.66867 875.471522 
L 1089.270386 846.220945 
L 1096.872103 844.792409 
L 1104.47382 857.644986 
L 1112.075536 835.964261 
L 1119.677253 807.458851 
L 1127.27897 800.051888 
L 1134.880687 777.285872 
L 1142.482403 771.359543 
L 1150.08412 719.841925 
L 1157.685837 738.192241 
L 1165.287554 731.399265 
L 1172.88927 685.313774 
L 1180.490987 604.815463 
L 1188.092704 605.622399 
L 1195.694421 606.023084 
L 1203.296137 607.764992 
L 1210.897854 605.818817 
L 1218.499571 589.676109 
L 1226.101288 574.850468 
L 1233.703004 584.903753 
L 1241.304721 601.822609 
L 1248.906438 599.137319 
L 1256.508155 570.351253 
L 1264.109871 593.630146 
L 1271.711588 588.271879 
L 1279.313305 569.786307 
L 1286.915021 595.112207 
L 1294.516738 582.905433 
L 1302.118455 698.333666 
L 1309.720172 799.747636 
L 1317.321888 638.205671 
L 1324.923605 774.39411 
L 1332.525322 840.208444 
L 1340.127039 648.688476 
L 1347.728755 591.897488 
L 1355.330472 761.132842 
L 1362.932189 465.702637 
L 1370.533906 480.840865 
L 1378.135622 496.776034 
L 1385.737339 835.043095 
L 1393.339056 459.321798 
L 1400.940773 770.077363 
L 1408.542489 760.629972 
L 1416.144206 813.000919 
L 1423.745923 619.856841 
L 1431.347639 556.873818 
L 1438.949356 537.241787 
L 1446.551073 519.122592 
L 1454.15279 557.151065 
L 1461.754506 517.689452 
L 1469.356223 549.110022 
L 1476.95794 697.763584 
L 1484.559657 697.090257 
L 1492.161373 701.882663 
L 1499.76309 701.900051 
L 1507.364807 748.584181 
L 1514.966524 632.755346 
L 1522.56824 701.902475 
L 1530.169957 687.49568 
L 1537.771674 716.881802 
L 1545.373391 717.992731 
L 1552.975107 779.5294 
L 1560.576824 734.323255 
L 1568.178541 797.367651 
L 1575.780258 731.678012 
L 1583.381974 780.297793 
L 1590.983691 708.400977 
L 1598.585408 722.245392 
L 1606.187124 869.351521 
L 1613.788841 795.462963 
L 1621.390558 867.48968 
L 1628.992275 798.429243 
L 1636.593991 799.046683 
L 1644.195708 803.58912 
L 1651.797425 797.870855 
L 1659.399142 790.339451 
L 1667.000858 784.253437 
L 1674.602575 779.484954 
L 1682.204292 774.181597 
L 1689.806009 773.356967 
L 1697.407725 774.440208 
L 1712.611159 763.28025 
L 1720.212876 736.221193 
L 1735.416309 720.941658 
L 1743.018026 704.870123 
L 1750.619742 676.139485 
L 1758.221459 671.192173 
L 1765.823176 667.050921 
L 1773.424893 903.754042 
L 1781.026609 881.37263 
L 1788.628326 877.719476 
L 1796.230043 889.182306 
L 1803.83176 1021.083097 
L 1811.433476 975.974847 
L 1819.035193 635.427949 
L 1826.63691 826.870124 
L 1834.238627 657.311732 
L 1841.840343 826.415969 
L 1849.44206 795.404992 
L 1857.043777 789.581626 
L 1864.645494 784.034011 
L 1872.24721 931.528317 
L 1879.848927 787.624759 
L 1887.450644 787.982816 
L 1895.052361 1028.775736 
L 1902.654077 856.506198 
L 1910.255794 953.378654 
L 1917.857511 925.95408 
L 1925.459227 797.640738 
L 1933.060944 593.491632 
L 1940.662661 687.113196 
L 1948.264378 916.589951 
L 1955.866094 772.015136 
L 1963.467811 770.455388 
L 1971.069528 862.157453 
L 1978.671245 850.378533 
L 1986.272961 723.204409 
L 1993.874678 821.414781 
L 2001.476395 712.753735 
L 2009.078112 827.350251 
L 2016.679828 721.107062 
L 2024.281545 720.198653 
L 2031.883262 724.526022 
L 2039.484979 727.480979 
L 2047.086695 930.996749 
L 2054.688412 735.150597 
L 2062.290129 930.810251 
L 2069.891845 916.144964 
L 2077.493562 898.891409 
L 2085.095279 886.642253 
L 2092.696996 960.336831 
L 2100.298712 931.785398 
L 2107.900429 829.431162 
L 2115.502146 826.816401 
L 2123.103863 819.121862 
L 2130.705579 885.025278 
L 2138.307296 801.387845 
L 2145.909013 799.063269 
L 2153.51073 790.483799 
L 2161.112446 861.776368 
L 2168.714163 776.423102 
L 2176.31588 850.288057 
L 2183.917597 761.919017 
L 2191.519313 843.208061 
L 2199.12103 834.069834 
L 2206.722747 737.871051 
L 2214.324464 832.725789 
L 2221.92618 838.773827 
L 2229.527897 1058.56642 
L 2237.129614 934.623862 
L 2244.73133 852.079397 
L 2252.333047 853.80144 
L 2259.934764 847.161921 
L 2267.536481 848.895249 
L 2275.138197 897.746159 
L 2282.739914 798.223767 
L 2290.341631 715.002922 
L 2297.943348 838.898925 
L 2305.545064 874.241056 
L 2313.146781 857.489858 
L 2320.748498 757.78909 
L 2328.350215 783.322318 
L 2335.951931 793.728768 
L 2343.553648 670.153293 
L 2351.155365 768.172143 
L 2358.757082 763.253294 
L 2366.358798 806.212208 
L 2373.960515 903.738111 
L 2381.562232 890.837687 
L 2389.163948 774.548992 
L 2396.765665 615.491666 
L 2404.367382 723.543443 
L 2411.969099 881.650888 
L 2419.570815 867.781314 
L 2427.172532 858.002421 
L 2434.774249 728.665018 
L 2442.375966 725.077436 
L 2449.977682 715.537334 
L 2457.579399 721.626877 
L 2465.181116 722.594463 
L 2472.782833 710.958612 
L 2480.384549 704.913266 
L 2487.986266 509.979733 
L 2495.587983 671.498848 
L 2503.1897 541.107317 
L 2510.791416 671.706761 
L 2518.393133 514.068542 
L 2525.99485 669.981336 
L 2533.596567 675.809195 
L 2541.198283 700.518009 
L 2548.8 692.238365 
L 2556.401717 693.79948 
L 2564.003433 671.859285 
L 2571.60515 516.665665 
L 2579.206867 526.458754 
L 2586.808584 595.544685 
L 2594.4103 627.10821 
L 2602.012017 921.589295 
L 2609.613734 918.036235 
L 2617.215451 548.970428 
L 2624.817167 701.490805 
L 2632.418884 894.831183 
L 2640.020601 893.973181 
L 2647.622318 748.858074 
L 2655.224034 756.971346 
L 2662.825751 755.724807 
L 2670.427468 571.035723 
L 2678.029185 585.46874 
L 2685.630901 734.481126 
L 2693.232618 609.001968 
L 2700.834335 615.01863 
L 2708.436052 619.268585 
L 2716.037768 615.276066 
L 2723.639485 614.185522 
L 2731.241202 598.26879 
L 2738.842918 609.795324 
L 2746.444635 607.829235 
L 2754.046352 604.137681 
L 2761.648069 697.425768 
L 2769.249785 689.296725 
L 2776.851502 742.804106 
L 2784.453219 733.10165 
L 2792.054936 634.992164 
L 2799.656652 627.221393 
L 2807.258369 623.933298 
L 2814.860086 622.340534 
L 2822.461803 626.550491 
L 2830.063519 708.86276 
L 2837.665236 754.121788 
L 2845.266953 756.209975 
L 2852.86867 755.70988 
L 2860.470386 776.735231 
L 2868.072103 808.068919 
L 2875.67382 814.178837 
L 2883.275536 1081.853764 
L 2890.877253 823.245867 
L 2898.47897 1017.216064 
L 2906.080687 779.048794 
L 2913.682403 812.213827 
L 2921.28412 808.481948 
L 2928.885837 921.757157 
L 2936.487554 774.953605 
L 2944.08927 780.503098 
L 2951.690987 774.410198 
L 2959.292704 766.441855 
L 2966.894421 760.594394 
L 2974.496137 750.555141 
L 2982.097854 704.378606 
L 2989.699571 701.647201 
L 2997.301288 522.674668 
L 3004.903004 529.911911 
L 3012.504721 536.098928 
L 3020.106438 512.935671 
L 3027.708155 518.307574 
L 3035.309871 698.295857 
L 3042.911588 701.359096 
L 3050.513305 494.554313 
L 3058.115021 406.481778 
L 3065.716738 517.371161 
L 3073.318455 535.852969 
L 3080.920172 592.309417 
L 3088.521888 715.747821 
L 3096.123605 561.932746 
L 3103.725322 723.226266 
L 3111.327039 727.352767 
L 3118.928755 729.868366 
L 3126.530472 561.711325 
L 3134.132189 741.178923 
L 3141.733906 566.970455 
L 3149.335622 628.954434 
L 3156.937339 450.904534 
L 3164.539056 534.460325 
L 3172.140773 337.414572 
L 3179.742489 346.092059 
L 3187.344206 400.914427 
L 3194.945923 466.661635 
L 3202.547639 487.124383 
L 3210.149356 502.798304 
L 3217.751073 476.321784 
L 3225.35279 518.285536 
L 3232.954506 542.183952 
L 3240.556223 558.757273 
L 3248.15794 562.777098 
L 3255.759657 571.021486 
L 3263.361373 575.978024 
L 3270.96309 586.860141 
L 3278.564807 591.744471 
L 3286.166524 601.706768 
L 3293.76824 573.096413 
L 3301.369957 644.710944 
L 3308.971674 639.263758 
L 3316.573391 643.282353 
L 3324.175107 594.305851 
L 3331.776824 658.252776 
L 3339.378541 592.849128 
L 3346.980258 655.572464 
L 3354.581974 738.42174 
L 3362.183691 593.63305 
L 3369.785408 640.194351 
L 3377.387124 944.861896 
L 3384.988841 696.364896 
L 3392.590558 559.496285 
L 3400.192275 574.300441 
L 3407.793991 570.962257 
L 3415.395708 569.109625 
L 3422.997425 576.01986 
L 3430.599142 592.268982 
L 3438.200858 597.633398 
L 3445.802575 589.948082 
L 3453.404292 587.202833 
L 3461.006009 918.050923 
L 3468.607725 601.634785 
L 3476.209442 895.100014 
L 3483.811159 884.519929 
L 3491.412876 971.950909 
L 3499.014592 848.408331 
L 3506.616309 1063.086266 
L 3514.218026 1002.547567 
L 3521.819742 968.614297 
L 3529.421459 931.290228 
L 3537.023176 909.815607 
L 3544.624893 907.156072 
L 3552.226609 888.808858 
L 3559.828326 869.282796 
L 3567.430043 905.994249 
L 3575.03176 889.399614 
L 3582.633476 891.507468 
L 3590.235193 875.209249 
L 3597.83691 860.799663 
L 3605.438627 851.738167 
L 3613.040343 825.162291 
L 3620.64206 832.701892 
L 3628.243777 808.890167 
L 3635.845494 815.637021 
L 3643.44721 826.898078 
L 3651.048927 821.427665 
L 3666.252361 808.200964 
L 3673.854077 807.954089 
L 3689.057511 795.522698 
L 3696.659227 798.333262 
L 3704.260944 813.77391 
L 3711.862661 790.042837 
L 3719.464378 792.332743 
L 3727.066094 906.450098 
L 3734.667811 891.946634 
L 3742.269528 875.415818 
L 3749.871245 660.10217 
L 3757.472961 879.410995 
L 3765.074678 873.459908 
L 3772.676395 860.642677 
L 3780.278112 591.335192 
L 3787.879828 559.408679 
L 3795.481545 565.053908 
L 3803.083262 563.483756 
L 3810.684979 563.742326 
L 3818.286695 571.143878 
L 3825.888412 878.904799 
L 3833.490129 560.597363 
L 3841.091845 563.679955 
L 3848.693562 571.030244 
L 3856.295279 560.494796 
L 3863.896996 558.03213 
L 3871.498712 376.216719 
L 3879.100429 427.858286 
L 3886.702146 602.744785 
L 3894.303863 521.929399 
L 3901.905579 562.187627 
L 3909.507296 577.298624 
L 3917.109013 554.457045 
L 3924.71073 501.328547 
L 3932.312446 510.537015 
L 3939.914163 522.634732 
L 3947.51588 514.262009 
L 3955.117597 476.146626 
L 3962.719313 568.110459 
L 3970.32103 589.157978 
L 3977.922747 595.176245 
L 3985.524464 722.016633 
L 3993.12618 737.674203 
L 4000.727897 748.599641 
L 4008.329614 752.851448 
L 4015.93133 753.866211 
L 4023.533047 752.386555 
L 4031.134764 753.816321 
L 4038.736481 752.318848 
L 4046.338197 753.90735 
L 4053.939914 776.828699 
L 4061.541631 737.585083 
L 4069.143348 748.016929 
L 4076.745064 772.847772 
L 4084.346781 753.814565 
L 4091.948498 756.695404 
L 4099.550215 743.670422 
L 4107.151931 780.251128 
L 4114.753648 788.401119 
L 4122.355365 431.230285 
L 4129.957082 1115.717162 
L 4137.558798 1136.945455 
L 4145.160515 945.480169 
L 4152.762232 892.804978 
L 4160.363948 1033.360999 
L 4167.965665 919.932315 
L 4175.567382 901.123978 
L 4183.169099 946.650367 
L 4190.770815 921.568486 
L 4198.372532 902.160335 
L 4205.974249 884.336368 
L 4213.575966 870.172387 
L 4221.177682 839.54757 
L 4228.779399 847.993116 
L 4236.381116 837.388944 
L 4243.982833 827.807151 
L 4251.584549 801.083538 
L 4259.186266 809.651777 
L 4266.787983 784.765924 
L 4274.3897 795.341617 
L 4281.991416 774.246407 
L 4289.593133 765.448748 
L 4297.19485 766.341918 
L 4304.796567 705.598995 
L 4312.398283 770.645917 
L 4320 689.615256 
L 4327.601717 677.907587 
L 4335.203433 672.645972 
L 4342.80515 758.398414 
L 4350.406867 782.885994 
L 4358.008584 775.255807 
L 4365.6103 777.633586 
L 4373.212017 770.235805 
L 4380.813734 492.250491 
L 4388.415451 501.595219 
L 4396.017167 259.854545 
L 4403.618884 555.751713 
L 4411.220601 562.066929 
L 4418.822318 357.028759 
L 4426.424034 607.358385 
L 4434.025751 617.795248 
L 4441.627468 623.13889 
L 4449.229185 627.39138 
L 4456.830901 627.730103 
L 4464.432618 769.301742 
L 4472.034335 638.758481 
L 4479.636052 419.195718 
L 4487.237768 450.94678 
L 4494.839485 452.729185 
L 4502.441202 475.291303 
L 4510.042918 476.972985 
L 4517.644635 505.137622 
L 4525.246352 516.347115 
L 4532.848069 681.051403 
L 4540.449785 523.442645 
L 4548.051502 825.704188 
L 4555.653219 540.388786 
L 4563.254936 556.554407 
L 4570.856652 563.473864 
L 4578.458369 843.770097 
L 4586.060086 562.910844 
L 4593.661803 571.636739 
L 4601.263519 577.953609 
L 4608.865236 880.498902 
L 4616.466953 757.892471 
L 4624.06867 753.389533 
L 4631.670386 710.73051 
L 4639.272103 586.224748 
L 4646.87382 586.599993 
L 4654.475536 590.252935 
L 4662.077253 721.700149 
L 4669.67897 661.155223 
L 4677.280687 605.014558 
L 4684.882403 609.437814 
L 4692.48412 659.904704 
L 4700.085837 663.443619 
L 4707.687554 663.29758 
L 4715.28927 669.122868 
L 4722.890987 691.602764 
L 4730.492704 671.710006 
L 4738.094421 815.492468 
L 4745.696137 807.758635 
L 4753.297854 817.321696 
L 4760.899571 811.516884 
L 4768.501288 916.219755 
L 4776.103004 915.237694 
L 4783.704721 900.372971 
L 4791.306438 777.263103 
L 4798.908155 878.8255 
L 4806.509871 767.818896 
L 4814.111588 760.378623 
L 4821.713305 756.648055 
L 4829.315021 751.077534 
L 4836.916738 755.903094 
L 4859.721888 754.392464 
L 4867.323605 748.745981 
L 4874.925322 740.943495 
L 4882.527039 737.126981 
L 4897.730472 727.393687 
L 4905.332189 723.148063 
L 4912.933906 715.923134 
L 4920.535622 706.527611 
L 4928.137339 698.867824 
L 4935.739056 689.896935 
L 4943.340773 654.288771 
L 4950.942489 641.045996 
L 4958.544206 439.264633 
L 4966.145923 459.270836 
L 4973.747639 482.480684 
L 4981.349356 639.954414 
L 4988.951073 508.284703 
L 4996.55279 508.549421 
L 5004.154506 464.449751 
L 5011.756223 525.277393 
L 5019.35794 484.919699 
L 5026.959657 712.842462 
L 5034.561373 603.972627 
L 5042.16309 1030.072808 
L 5049.764807 984.019743 
L 5057.366524 625.524908 
L 5064.96824 961.246943 
L 5072.569957 725.533674 
L 5080.171674 728.903699 
L 5087.773391 673.606909 
L 5095.375107 935.725609 
L 5102.976824 908.488067 
L 5110.578541 893.649877 
L 5118.180258 866.832099 
L 5125.781974 658.608356 
L 5133.383691 665.260872 
L 5140.985408 666.60686 
L 5148.587124 665.311095 
L 5156.188841 666.654641 
L 5163.790558 660.359244 
L 5171.392275 877.049366 
L 5178.993991 857.259734 
L 5186.595708 649.909456 
L 5194.197425 848.305709 
L 5201.799142 831.381498 
L 5209.400858 573.075113 
L 5217.002575 576.85816 
L 5224.604292 595.95563 
L 5232.206009 538.025449 
L 5239.807725 537.376038 
L 5247.409442 538.142895 
L 5255.011159 594.942808 
L 5262.612876 545.578058 
L 5270.214592 555.098094 
L 5277.816309 565.938443 
L 5285.418026 612.300215 
L 5293.019742 567.193666 
L 5300.621459 619.728614 
L 5308.223176 620.869178 
L 5315.824893 622.98851 
L 5323.426609 628.876105 
L 5331.028326 639.836144 
L 5338.630043 574.366692 
L 5346.23176 574.193146 
L 5353.833476 578.146761 
L 5361.435193 587.380314 
L 5369.03691 596.018876 
L 5376.638627 596.213654 
L 5384.240343 599.142463 
L 5391.84206 614.786757 
L 5399.443777 607.308624 
L 5407.045494 609.106175 
L 5414.64721 725.348258 
L 5422.248927 615.043298 
L 5429.850644 572.608129 
L 5437.452361 572.025844 
L 5445.054077 571.588496 
L 5452.655794 544.274646 
L 5460.257511 577.986113 
L 5467.859227 567.295277 
L 5475.460944 905.82845 
L 5483.062661 902.415531 
L 5490.664378 553.355161 
L 5498.266094 561.506969 
L 5505.867811 1123.679725 
L 5513.469528 1047.244209 
L 5521.071245 588.908856 
L 5528.672961 991.687434 
L 5536.274678 948.072919 
L 5543.876395 762.771165 
L 5551.478112 761.523443 
L 5559.079828 753.617451 
L 5566.681545 536.250668 
L 5574.283262 906.215725 
L 5581.884979 1012.928023 
L 5589.486695 858.924447 
L 5597.088412 950.854272 
L 5604.690129 819.969548 
L 5612.291845 809.526393 
L 5619.893562 804.506261 
L 5627.495279 896.087335 
L 5635.096996 881.672489 
L 5642.698712 863.2727 
L 5650.300429 754.404152 
L 5657.902146 837.735735 
L 5665.503863 744.015235 
L 5673.105579 819.066897 
L 5680.707296 731.788951 
L 5688.309013 494.826108 
L 5695.91073 358.126244 
L 5703.512446 400.354058 
L 5711.114163 456.998699 
L 5718.71588 476.238181 
L 5726.317597 487.377447 
L 5733.919313 482.845182 
L 5741.52103 508.132935 
L 5749.122747 509.593757 
L 5756.724464 551.089418 
L 5764.32618 539.028605 
L 5771.927897 551.090703 
L 5779.529614 554.412272 
L 5787.13133 560.741985 
L 5794.733047 531.760184 
L 5802.334764 711.398799 
L 5809.936481 737.508875 
L 5817.538197 742.150149 
L 5825.139914 634.105395 
L 5832.741631 639.140266 
L 5840.343348 641.786032 
L 5847.945064 645.686614 
L 5855.546781 549.946887 
L 5863.148498 559.322179 
L 5870.750215 676.889861 
L 5878.351931 678.815644 
L 5885.953648 571.282966 
L 5893.555365 495.004778 
L 5901.157082 499.50223 
L 5908.758798 585.660752 
L 5916.360515 592.594486 
L 5923.962232 532.839661 
L 5931.563948 575.585544 
L 5939.165665 765.731959 
L 5954.369099 761.315159 
L 5961.970815 756.069371 
L 5969.572532 638.780308 
L 5977.174249 645.454721 
L 5984.775966 750.318852 
L 5992.377682 749.467039 
L 5999.979399 575.245694 
L 6007.581116 743.469089 
L 6015.182833 579.694137 
L 6022.784549 579.359711 
L 6030.386266 576.188884 
L 6037.987983 589.546619 
L 6045.5897 807.133155 
L 6053.191416 586.060439 
L 6060.793133 593.062536 
L 6068.39485 599.728833 
L 6075.996567 834.839218 
L 6083.598283 603.631895 
L 6091.2 621.721564 
L 6091.2 621.721564 
" style="fill:none;stroke:#b73779;stroke-width:3;"/>
   </g>
   <g id="line2d_35">
    <path clip-path="url(#pa7184d6928)" d="M 777.6 693.855439 
L 6091.2 693.855439 
" style="fill:none;opacity:0.7;stroke:#000000;stroke-width:1.3;"/>
   </g>
   <g id="patch_3">
    <path d="M 777.6 1180.8 
L 777.6 216 
" style="fill:none;stroke:#000000;stroke-linecap:square;stroke-linejoin:miter;stroke-width:0.8;"/>
   </g>
   <g id="patch_4">
    <path d="M 6091.2 1180.8 
L 6091.2 216 
" style="fill:none;stroke:#000000;stroke-linecap:square;stroke-linejoin:miter;stroke-width:0.8;"/>
   </g>
   <g id="patch_5">
    <path d="M 777.6 1180.8 
L 6091.2 1180.8 
" style="fill:none;stroke:#000000;stroke-linecap:square;stroke-linejoin:miter;stroke-width:0.8;"/>
   </g>
   <g id="patch_6">
    <path d="M 777.6 216 
L 6091.2 216 
" style="fill:none;stroke:#000000;stroke-linecap:square;stroke-linejoin:miter;stroke-width:0.8;"/>
   </g>
   <g id="patch_7">
    <path d="M 0 1440 
L 6480 1440 
L 6480 1416.729153 
L 0 1416.729153 
z
" style="fill:#808080;"/>
   </g>
   <g id="text_19">
    <!-- ©spred -->
    <defs>
     <path d="M 50.90625 25.90625 
L 50.90625 44 
Q 50.90625 52.40625 44.75 58.40625 
Q 38.59375 64.40625 30 64.40625 
Q 21.296875 64.40625 15.09375 58.40625 
Q 8.90625 52.40625 8.90625 44 
L 8.90625 25.90625 
Q 8.90625 17.5 15.09375 11.453125 
Q 21.296875 5.40625 30 5.40625 
Q 38.59375 5.40625 44.75 11.453125 
Q 50.90625 17.5 50.90625 25.90625 
z
M 57.703125 43.203125 
L 57.703125 26.59375 
Q 57.703125 15.203125 49.59375 7.09375 
Q 41.5 -1 30 -1 
Q 18.40625 -1 10.296875 7.09375 
Q 2.203125 15.203125 2.203125 26.59375 
L 2.203125 43.203125 
Q 2.203125 54.59375 10.296875 62.6875 
Q 18.40625 70.796875 30 70.796875 
Q 41.5 70.796875 49.59375 62.6875 
Q 57.703125 54.59375 57.703125 43.203125 
z
M 38.59375 29.40625 
L 41.40625 29.40625 
Q 42.40625 29.40625 42.90625 28.84375 
Q 43.40625 28.296875 43.40625 27.59375 
Q 43.40625 21.59375 39.796875 17.9375 
Q 36.203125 14.296875 30.40625 14.296875 
Q 24.40625 14.296875 20.75 17.9375 
Q 17.09375 21.59375 17.09375 27.09375 
L 17.09375 43.40625 
Q 17.09375 48.703125 20.75 52.390625 
Q 24.40625 56.09375 30.40625 56.09375 
Q 35.90625 56.09375 39.40625 52.25 
Q 42.90625 48.40625 42.90625 42.296875 
Q 42.90625 41.59375 42.40625 41.046875 
Q 41.90625 40.5 40.90625 40.5 
L 38.09375 40.5 
Q 37.09375 40.5 36.546875 41.046875 
Q 36 41.59375 36 42.296875 
Q 36 45.203125 34.390625 47.046875 
Q 32.796875 48.90625 30.40625 48.90625 
Q 27.703125 48.90625 25.796875 46.90625 
Q 23.90625 44.90625 23.90625 42.203125 
L 23.90625 28.203125 
Q 23.90625 25.59375 25.796875 23.59375 
Q 27.703125 21.59375 30.40625 21.59375 
Q 32.90625 21.59375 34.703125 23.1875 
Q 36.5 24.796875 36.5 27.59375 
Q 36.5 28.296875 37.046875 28.84375 
Q 37.59375 29.40625 38.59375 29.40625 
z
" id="DecimaMonoPro-a9"/>
     <path d="M 30.09375 -1 
Q 25.296875 -1 21.546875 0.59375 
Q 17.796875 2.203125 15.84375 4.59375 
Q 13.90625 7 12.953125 9.390625 
Q 12 11.796875 12 14 
Q 12 14.796875 12.5 15.296875 
Q 13 15.796875 13.796875 15.796875 
L 18.296875 15.796875 
Q 19.90625 15.796875 20.09375 14.09375 
Q 20.40625 11.203125 22.796875 8.703125 
Q 25.203125 6.203125 30.09375 6.203125 
Q 34.296875 6.203125 36.890625 8.296875 
Q 39.5 10.40625 39.5 13.59375 
Q 39.5 16.5 36.84375 18.5 
Q 34.203125 20.5 30.390625 21.84375 
Q 26.59375 23.203125 22.84375 24.796875 
Q 19.09375 26.40625 16.4375 29.5 
Q 13.796875 32.59375 13.796875 37.09375 
Q 13.796875 43.296875 18.4375 47.140625 
Q 23.09375 51 30.703125 51 
Q 38.90625 51 43.25 46.5 
Q 47.59375 42 47.59375 37.5 
Q 47.59375 36.796875 47.09375 36.25 
Q 46.59375 35.703125 45.796875 35.703125 
L 41.203125 35.703125 
Q 39.703125 35.703125 39.40625 37.40625 
Q 38.90625 40 36.75 41.890625 
Q 34.59375 43.796875 30.703125 43.796875 
Q 26.90625 43.796875 24.546875 42.09375 
Q 22.203125 40.40625 22.203125 37.703125 
Q 22.203125 35 24.84375 33.09375 
Q 27.5 31.203125 31.25 29.890625 
Q 35 28.59375 38.703125 26.9375 
Q 42.40625 25.296875 45.046875 21.84375 
Q 47.703125 18.40625 47.703125 13.40625 
Q 47.703125 7.40625 42.59375 3.203125 
Q 37.5 -1 30.09375 -1 
z
" id="DecimaMonoPro-73"/>
     <path d="M 42.09375 17.09375 
L 42.09375 33.09375 
Q 42.09375 37.703125 38.84375 40.796875 
Q 35.59375 43.90625 30.5 43.90625 
Q 25.40625 43.90625 22.046875 40.75 
Q 18.703125 37.59375 18.703125 33 
L 18.703125 17.09375 
Q 18.703125 12.5 22.046875 9.390625 
Q 25.40625 6.296875 30.5 6.296875 
Q 35.59375 6.296875 38.84375 9.390625 
Q 42.09375 12.5 42.09375 17.09375 
z
M 18.703125 3.703125 
L 18.796875 -16.203125 
Q 18.796875 -18 16.5 -18 
L 13 -18 
Q 10.703125 -18 10.703125 -16.203125 
L 10.703125 48.203125 
Q 10.703125 50 13 50 
L 15.90625 50 
Q 18.203125 50 18.203125 48.203125 
L 18.203125 45.90625 
Q 18.59375 46.5 19.5 47.34375 
Q 20.40625 48.203125 23.75 49.59375 
Q 27.09375 51 31.296875 51 
Q 39.296875 51 44.796875 45.640625 
Q 50.296875 40.296875 50.296875 32.59375 
L 50.296875 17.40625 
Q 50.296875 9.796875 44.75 4.390625 
Q 39.203125 -1 31.296875 -1 
Q 27.40625 -1 24.25 0.203125 
Q 21.09375 1.40625 19.90625 2.59375 
z
" id="DecimaMonoPro-70"/>
     <path d="M 37.203125 51 
Q 44.09375 51 48.140625 46.453125 
Q 52.203125 41.90625 52.203125 37.5 
Q 52.203125 35.703125 50.5 35.703125 
L 45.90625 35.703125 
Q 44.296875 35.703125 44.09375 37.40625 
Q 43.796875 39.796875 41.75 41.796875 
Q 39.703125 43.796875 36.59375 43.796875 
Q 32.40625 43.796875 29.203125 40.796875 
Q 26 37.796875 26 34 
L 26 7.203125 
L 45.09375 7.203125 
Q 45.796875 7.203125 46.34375 6.703125 
Q 46.90625 6.203125 46.90625 5.40625 
L 46.90625 1.796875 
Q 46.90625 1 46.34375 0.5 
Q 45.796875 0 45.09375 0 
L 9.296875 0 
Q 8.59375 0 8.046875 0.5 
Q 7.5 1 7.5 1.796875 
L 7.5 5.40625 
Q 7.5 6.203125 8.046875 6.703125 
Q 8.59375 7.203125 9.296875 7.203125 
L 18 7.203125 
L 18 48.203125 
Q 18 50 20.296875 50 
L 23.5 50 
Q 25.796875 50 25.796875 48.203125 
L 25.796875 45.703125 
Q 29.796875 51 37.203125 51 
z
" id="DecimaMonoPro-72"/>
     <path d="M 48.796875 13.5 
Q 48.796875 9.09375 43.75 4.046875 
Q 38.703125 -1 30.203125 -1 
Q 21.203125 -1 15.75 4.453125 
Q 10.296875 9.90625 10.296875 17.5 
L 10.296875 32.703125 
Q 10.296875 40.203125 15.75 45.59375 
Q 21.203125 51 30.203125 51 
Q 39.203125 51 44.453125 45.59375 
Q 49.703125 40.203125 49.703125 32.703125 
L 49.703125 24.796875 
Q 49.703125 23.796875 49.046875 23.140625 
Q 48.40625 22.5 47.40625 22.5 
L 18.40625 22.5 
L 18.40625 17 
Q 18.40625 12.5 21.65625 9.296875 
Q 24.90625 6.09375 30.203125 6.09375 
Q 38.5 6.09375 40.59375 13.59375 
Q 41.09375 15.296875 42.40625 15.296875 
L 47 15.296875 
Q 47.796875 15.296875 48.296875 14.75 
Q 48.796875 14.203125 48.796875 13.5 
z
M 18.40625 33 
L 18.40625 29.703125 
L 41.796875 29.703125 
L 41.796875 33 
Q 41.796875 37.5 38.640625 40.640625 
Q 35.5 43.796875 30.203125 43.796875 
Q 24.90625 43.796875 21.65625 40.640625 
Q 18.40625 37.5 18.40625 33 
z
" id="DecimaMonoPro-65"/>
     <path d="M 17.90625 32.90625 
L 17.90625 16.90625 
Q 17.90625 12.296875 21.15625 9.1875 
Q 24.40625 6.09375 29.5 6.09375 
Q 34.59375 6.09375 37.9375 9.25 
Q 41.296875 12.40625 41.296875 17 
L 41.296875 32.90625 
Q 41.296875 37.5 37.9375 40.59375 
Q 34.59375 43.703125 29.5 43.703125 
Q 24.40625 43.703125 21.15625 40.59375 
Q 17.90625 37.5 17.90625 32.90625 
z
M 41.296875 46.296875 
L 41.203125 68.203125 
Q 41.203125 70 43.5 70 
L 47 70 
Q 49.296875 70 49.296875 68.203125 
L 49.296875 1.796875 
Q 49.296875 0 47 0 
L 44.09375 0 
Q 41.796875 0 41.796875 1.796875 
L 41.796875 4.09375 
Q 41.40625 3.5 40.5 2.640625 
Q 39.59375 1.796875 36.25 0.390625 
Q 32.90625 -1 28.703125 -1 
Q 20.703125 -1 15.203125 4.34375 
Q 9.703125 9.703125 9.703125 17.40625 
L 9.703125 32.59375 
Q 9.703125 40.203125 15.25 45.59375 
Q 20.796875 51 28.703125 51 
Q 32.59375 51 35.75 49.796875 
Q 38.90625 48.59375 40.09375 47.40625 
z
" id="DecimaMonoPro-64"/>
    </defs>
    <g style="fill:#ffffff;" transform="translate(64.8 1432.8)scale(0.14 -0.14)">
     <use xlink:href="#DecimaMonoPro-a9"/>
     <use x="59.999985" xlink:href="#DecimaMonoPro-73"/>
     <use x="119.999969" xlink:href="#DecimaMonoPro-70"/>
     <use x="179.999954" xlink:href="#DecimaMonoPro-72"/>
     <use x="239.999939" xlink:href="#DecimaMonoPro-65"/>
     <use x="299.999924" xlink:href="#DecimaMonoPro-64"/>
    </g>
   </g>
   <g id="text_20">
    <!-- IOTABTC_drop -->
    <defs>
     <path d="M 9.40625 0 
L 20.40625 0 
L 20.40625 70 
L 9.40625 70 
z
" id="ApercuPro-Medium-49"/>
     <path d="M 37.203125 70.796875 
C 20.09375 70.796875 5.09375 58.90625 5.09375 35 
C 5.09375 11.09375 20.09375 -0.796875 37.203125 -0.796875 
C 54.296875 -0.796875 69.296875 11.09375 69.296875 35 
C 69.296875 58.90625 54.296875 70.796875 37.203125 70.796875 
z
M 37.203125 60.40625 
C 48.5 60.40625 58.09375 52.296875 58.09375 35 
C 58.09375 17.703125 48.5 9.59375 37.203125 9.59375 
C 25.90625 9.59375 16.296875 17.703125 16.296875 35 
C 16.296875 52.296875 25.90625 60.40625 37.203125 60.40625 
z
" id="ApercuPro-Medium-4f"/>
     <path d="M 1.09375 59.59375 
L 20.703125 59.59375 
L 20.703125 0 
L 31.703125 0 
L 31.703125 59.59375 
L 51.296875 59.59375 
L 51.296875 70 
L 1.09375 70 
z
" id="ApercuPro-Medium-54"/>
     <path d="M 25.203125 70 
L 0.90625 0 
L 12.09375 0 
L 17.90625 17.40625 
L 42.90625 17.40625 
L 48.703125 0 
L 59.90625 0 
L 35.59375 70 
z
M 30.40625 56.09375 
L 39.59375 27.796875 
L 21.203125 27.796875 
z
" id="ApercuPro-Medium-41"/>
     <path d="M 9.40625 70 
L 9.40625 0 
L 35.40625 0 
C 49.203125 0 57.40625 7.5 57.40625 20.59375 
C 57.40625 28.703125 53.296875 35.40625 46.703125 38.203125 
C 50.796875 40.40625 53.796875 46.296875 53.796875 51.703125 
C 53.796875 63.796875 45.796875 70 34.203125 70 
z
M 33.203125 59.59375 
C 39.40625 59.59375 42.796875 56.703125 42.796875 51 
C 42.796875 45.296875 39.40625 42.40625 33.203125 42.40625 
L 20.40625 42.40625 
L 20.40625 59.59375 
z
M 33.90625 32 
C 42 32 46.203125 28.203125 46.203125 21.203125 
C 46.203125 14.203125 42 10.40625 33.90625 10.40625 
L 20.40625 10.40625 
L 20.40625 32 
z
" id="ApercuPro-Medium-42"/>
     <path d="M 65.796875 49.59375 
C 62.203125 62.796875 52.40625 70.796875 37.5 70.796875 
C 20.59375 70.796875 5.09375 58.703125 5.09375 35 
C 5.09375 11.296875 20.59375 -0.796875 37.5 -0.796875 
C 52.40625 -0.796875 62.203125 7.203125 65.796875 20.40625 
L 55.40625 23 
C 51.90625 14.09375 47 9.59375 37.5 9.59375 
C 25.703125 9.59375 16.296875 17.90625 16.296875 35 
C 16.296875 52.09375 25.703125 60.40625 37.5 60.40625 
C 47 60.40625 51.90625 55.90625 55.40625 47 
z
" id="ApercuPro-Medium-43"/>
     <path d="M 2.703125 -9.203125 
L 47.203125 -9.203125 
L 47.203125 0 
L 2.703125 0 
z
" id="ApercuPro-Medium-5f"/>
     <path d="M 4.90625 25.203125 
C 4.90625 9.09375 12.5 -0.796875 27.40625 -0.796875 
C 34 -0.796875 39.40625 2.90625 41.09375 5.796875 
L 41.09375 0 
L 51.5 0 
L 51.5 70.796875 
L 41.09375 70.796875 
L 41.09375 44.796875 
C 38.796875 48.09375 32.59375 51.203125 27.59375 51.203125 
C 12.5 51.203125 4.90625 40.796875 4.90625 25.203125 
z
M 15.90625 25.203125 
C 15.90625 35.59375 21.296875 42 28.796875 42 
C 36.296875 42 41.703125 35.59375 41.703125 25.203125 
C 41.703125 14.796875 36.296875 8.40625 28.796875 8.40625 
C 21.296875 8.40625 15.90625 14.796875 15.90625 25.203125 
z
" id="ApercuPro-Medium-64"/>
     <path d="M 19 0 
L 19 18.703125 
C 19 34.59375 25.90625 42 32.59375 42 
C 34.703125 42 36.90625 41.5 38.5 40.5 
L 40.296875 50 
C 38.796875 50.59375 36.59375 51.203125 33.90625 51.203125 
C 28.5 51.203125 22.5 48 19 42 
L 19 50.40625 
L 8.59375 50.40625 
L 8.59375 0 
z
" id="ApercuPro-Medium-72"/>
     <path d="M 4.90625 25.203125 
C 4.90625 11 14.09375 -0.796875 29.703125 -0.796875 
C 45.296875 -0.796875 54.5 11 54.5 25.203125 
C 54.5 39.40625 45.296875 51.203125 29.703125 51.203125 
C 14.09375 51.203125 4.90625 39.40625 4.90625 25.203125 
z
M 15.90625 25.203125 
C 15.90625 33.703125 20.59375 42 29.703125 42 
C 38.796875 42 43.5 33.703125 43.5 25.203125 
C 43.5 16.703125 38.796875 8.40625 29.703125 8.40625 
C 20.59375 8.40625 15.90625 16.703125 15.90625 25.203125 
z
" id="ApercuPro-Medium-6f"/>
     <path d="M 55.203125 25.203125 
C 55.203125 41.296875 47.59375 51.203125 32.703125 51.203125 
C 26.09375 51.203125 20.703125 47.5 19 44.59375 
L 19 50.40625 
L 8.59375 50.40625 
L 8.59375 -20.40625 
L 19 -20.40625 
L 19 5.59375 
C 21.296875 2.296875 26.296875 -0.796875 32.5 -0.796875 
C 47.59375 -0.796875 55.203125 9.59375 55.203125 25.203125 
z
M 44.203125 25.203125 
C 44.203125 14.796875 38.796875 8.40625 31.296875 8.40625 
C 23.796875 8.40625 18.40625 14.796875 18.40625 25.203125 
C 18.40625 35.59375 23.796875 42 31.296875 42 
C 38.796875 42 44.203125 35.59375 44.203125 25.203125 
z
" id="ApercuPro-Medium-70"/>
    </defs>
    <g style="opacity:0.75;" transform="translate(1044 144)scale(0.3 -0.3)">
     <use xlink:href="#ApercuPro-Medium-49"/>
     <use x="29.799988" xlink:href="#ApercuPro-Medium-4f"/>
     <use x="104.199982" xlink:href="#ApercuPro-Medium-54"/>
     <use x="156.506226" xlink:href="#ApercuPro-Medium-41"/>
     <use x="217.290588" xlink:href="#ApercuPro-Medium-42"/>
     <use x="279.590576" xlink:href="#ApercuPro-Medium-54"/>
     <use x="331.974945" xlink:href="#ApercuPro-Medium-43"/>
     <use x="401.47493" xlink:href="#ApercuPro-Medium-5f"/>
     <use x="451.374924" xlink:href="#ApercuPro-Medium-64"/>
     <use x="511.42804" xlink:href="#ApercuPro-Medium-72"/>
     <use x="553.128036" xlink:href="#ApercuPro-Medium-6f"/>
     <use x="612.52803" xlink:href="#ApercuPro-Medium-70"/>
    </g>
   </g>
   <g id="text_21">
    <!-- None -->
    <defs>
     <path d="M 51.59375 70 
L 60.40625 70 
L 60.40625 0 
L 50.09375 0 
L 18.5 54.5 
L 18.5 0 
L 9.703125 0 
L 9.703125 70 
L 20 70 
L 51.59375 15.296875 
z
" id="Apercu-4e"/>
     <path d="M 12 6.796875 
Q 5.40625 14.5 5.40625 25.203125 
Q 5.40625 35.90625 12.046875 43.546875 
Q 18.703125 51.203125 29.59375 51.203125 
Q 40.5 51.203125 47.140625 43.546875 
Q 53.796875 35.90625 53.796875 25.203125 
Q 53.796875 14.5 47.140625 6.84375 
Q 40.5 -0.796875 29.59375 -0.796875 
Q 18.703125 -0.796875 12 6.796875 
z
M 18.09375 38.09375 
Q 14 32.703125 14 25.203125 
Q 14 17.703125 18.140625 12.25 
Q 22.296875 6.796875 29.59375 6.796875 
Q 36.90625 6.796875 41.046875 12.25 
Q 45.203125 17.703125 45.203125 25.203125 
Q 45.203125 32.703125 41.046875 38.140625 
Q 36.90625 43.59375 29.59375 43.59375 
Q 22.296875 43.59375 18.09375 38.09375 
z
" id="Apercu-6f"/>
     <path d="M 49.09375 35.5 
L 49.09375 0 
L 40.703125 0 
L 40.703125 33.296875 
Q 40.703125 43.59375 32 43.59375 
Q 26.09375 43.59375 21.84375 37.390625 
Q 17.59375 31.203125 17.59375 21.09375 
L 17.59375 0 
L 9.203125 0 
L 9.203125 50.40625 
L 17.59375 50.40625 
L 17.59375 41.09375 
Q 23.296875 51.203125 34.296875 51.203125 
Q 41.203125 51.203125 45.140625 47.09375 
Q 49.09375 43 49.09375 35.5 
z
" id="Apercu-6e"/>
     <path d="M 51 27.296875 
L 51 23.40625 
L 14 23.40625 
Q 14.40625 16 18.046875 11.390625 
Q 21.703125 6.796875 28.203125 6.796875 
Q 33.5 6.796875 36.75 9.140625 
Q 40 11.5 42.203125 16.40625 
L 49.59375 13.203125 
Q 46.09375 5.796875 41.046875 2.5 
Q 36 -0.796875 28.203125 -0.796875 
Q 17.296875 -0.796875 11.34375 6.75 
Q 5.40625 14.296875 5.40625 25.1875 
Q 5.40625 36.09375 11.34375 43.640625 
Q 17.296875 51.203125 28.203125 51.203125 
Q 38.90625 51.203125 44.953125 44.25 
Q 51 37.296875 51 27.296875 
z
M 28.203125 43.59375 
Q 22.59375 43.59375 19.140625 40.1875 
Q 15.703125 36.796875 14.5 31 
L 42.203125 31 
Q 41 36.703125 37.5 40.140625 
Q 34 43.59375 28.203125 43.59375 
z
" id="Apercu-65"/>
    </defs>
    <g style="opacity:0.75;" transform="translate(1045 158.4)scale(0.14 -0.14)">
     <use xlink:href="#Apercu-4e"/>
     <use x="70.099991" xlink:href="#Apercu-6f"/>
     <use x="129.299988" xlink:href="#Apercu-6e"/>
     <use x="186.999985" xlink:href="#Apercu-65"/>
    </g>
   </g>
   <g id="legend_1">
    <g id="patch_8">
     <path d="M 5997.58375 266.736875 
L 6081.4 266.736875 
Q 6084.2 266.736875 6084.2 263.936875 
L 6084.2 225.8 
Q 6084.2 223 6081.4 223 
L 5997.58375 223 
Q 5994.78375 223 5994.78375 225.8 
L 5994.78375 263.936875 
Q 5994.78375 266.736875 5997.58375 266.736875 
z
" style="fill:#f0f0f0;opacity:0.8;stroke:#cccccc;stroke-linejoin:miter;stroke-width:0.5;"/>
    </g>
    <g id="line2d_36">
     <path d="M 6000.38375 233.611563 
L 6028.38375 233.611563 
" style="fill:none;stroke:#000004;stroke-width:3;"/>
    </g>
    <g id="line2d_37"/>
    <g id="text_22">
     <!-- pred -->
     <defs>
      <path d="M 32.296875 -0.796875 
Q 27.796875 -0.796875 23.390625 1.390625 
Q 19 3.59375 17.59375 6 
L 17.59375 -20.40625 
L 9.203125 -20.40625 
L 9.203125 50.40625 
L 17.59375 50.40625 
L 17.59375 44.203125 
Q 19.5 47.09375 23.640625 49.140625 
Q 27.796875 51.203125 32.296875 51.203125 
Q 43.09375 51.203125 48.890625 44.046875 
Q 54.703125 36.90625 54.703125 25.203125 
Q 54.703125 13.5 48.890625 6.34375 
Q 43.09375 -0.796875 32.296875 -0.796875 
z
M 31.5 43.59375 
Q 24.703125 43.59375 20.796875 38.5 
Q 16.90625 33.40625 16.90625 25.203125 
Q 16.90625 17 20.796875 11.890625 
Q 24.703125 6.796875 31.5 6.796875 
Q 38.09375 6.796875 42.09375 11.890625 
Q 46.09375 17 46.09375 25.203125 
Q 46.09375 33.40625 42.09375 38.5 
Q 38.09375 43.59375 31.5 43.59375 
z
" id="Apercu-70"/>
      <path d="M 39.296875 49.703125 
L 37.59375 42.203125 
Q 34.796875 43.59375 31.703125 43.59375 
Q 26 43.59375 21.796875 37.140625 
Q 17.59375 30.703125 17.59375 19.09375 
L 17.59375 0 
L 9.203125 0 
L 9.203125 50.40625 
L 17.59375 50.40625 
L 17.59375 41.796875 
Q 19.796875 46 24 48.59375 
Q 28.203125 51.203125 32.40625 51.203125 
Q 36.5 51.203125 39.296875 49.703125 
z
" id="Apercu-72"/>
      <path d="M 27.796875 51.203125 
Q 32.296875 51.203125 36.6875 49 
Q 41.09375 46.796875 42.5 44.40625 
L 42.5 70.796875 
L 50.90625 70.796875 
L 50.90625 0 
L 42.5 0 
L 42.5 6.203125 
Q 40.59375 3.296875 36.4375 1.25 
Q 32.296875 -0.796875 27.796875 -0.796875 
Q 17 -0.796875 11.203125 6.34375 
Q 5.40625 13.5 5.40625 25.203125 
Q 5.40625 36.90625 11.203125 44.046875 
Q 17 51.203125 27.796875 51.203125 
z
M 28.59375 6.796875 
Q 35.40625 6.796875 39.296875 11.890625 
Q 43.203125 17 43.203125 25.203125 
Q 43.203125 33.40625 39.296875 38.5 
Q 35.40625 43.59375 28.59375 43.59375 
Q 22 43.59375 18 38.5 
Q 14 33.40625 14 25.203125 
Q 14 17 18 11.890625 
Q 22 6.796875 28.59375 6.796875 
z
" id="Apercu-64"/>
     </defs>
     <g style="opacity:0.75;" transform="translate(6039.58375 238.511563)scale(0.14 -0.14)">
      <use xlink:href="#Apercu-70"/>
      <use x="60.099991" xlink:href="#Apercu-72"/>
      <use x="101.399979" xlink:href="#Apercu-65"/>
      <use x="157.399963" xlink:href="#Apercu-64"/>
     </g>
    </g>
    <g id="line2d_38">
     <path d="M 6000.38375 253.38 
L 6028.38375 253.38 
" style="fill:none;stroke:#b73779;stroke-width:3;"/>
    </g>
    <g id="line2d_39"/>
    <g id="text_23">
     <!-- actual -->
     <defs>
      <path d="M 14.203125 14.5 
Q 14.203125 10.90625 16.34375 8.84375 
Q 18.5 6.796875 22.5 6.796875 
Q 28.203125 6.796875 32.390625 10.546875 
Q 36.59375 14.296875 36.59375 22.203125 
L 36.59375 23.40625 
L 27.59375 23.40625 
Q 21.203125 23.40625 17.703125 21.09375 
Q 14.203125 18.796875 14.203125 14.5 
z
M 45 32.203125 
L 45 0 
L 38.40625 0 
L 37 7.09375 
Q 31.5 -0.796875 21.203125 -0.796875 
Q 14.40625 -0.796875 10 3 
Q 5.59375 6.796875 5.59375 14.5 
Q 5.59375 22.5 11.6875 26.75 
Q 17.796875 31 28.40625 31 
L 36.59375 31 
L 36.59375 33.203125 
Q 36.59375 43.59375 25.59375 43.59375 
Q 21.59375 43.59375 18.75 41.5 
Q 15.90625 39.40625 15.09375 35.703125 
L 7.703125 37.40625 
Q 8.703125 43.796875 13.59375 47.5 
Q 18.5 51.203125 25.59375 51.203125 
Q 34.40625 51.203125 39.703125 46.5 
Q 45 41.796875 45 32.203125 
z
" id="Apercu-61"/>
      <path d="M 42.09375 16.09375 
L 49.40625 13.09375 
Q 43.296875 -0.796875 28.296875 -0.796875 
Q 17.296875 -0.796875 11.34375 6.75 
Q 5.40625 14.296875 5.40625 25.1875 
Q 5.40625 36.09375 11.34375 43.640625 
Q 17.296875 51.203125 28.296875 51.203125 
Q 43.296875 51.203125 49.40625 37.296875 
L 42.09375 34.296875 
Q 38.09375 43.59375 28.296875 43.59375 
Q 21.296875 43.59375 17.640625 38.4375 
Q 14 33.296875 14 25.1875 
Q 14 17.09375 17.640625 11.9375 
Q 21.296875 6.796875 28.296875 6.796875 
Q 38.09375 6.796875 42.09375 16.09375 
z
" id="Apercu-63"/>
      <path d="M 2.5 42.796875 
L 2.5 50.40625 
L 11.203125 50.40625 
L 11.203125 65.5 
L 19.59375 70.796875 
L 19.59375 50.40625 
L 32.796875 50.40625 
L 32.796875 42.796875 
L 19.59375 42.796875 
L 19.59375 15.09375 
Q 19.59375 11.09375 21.34375 8.9375 
Q 23.09375 6.796875 26.296875 6.796875 
Q 29.59375 6.796875 32 8.40625 
L 34 1.09375 
Q 30.703125 -0.796875 25.796875 -0.796875 
Q 19.09375 -0.796875 15.140625 3.390625 
Q 11.203125 7.59375 11.203125 15.796875 
L 11.203125 42.796875 
z
" id="Apercu-74"/>
      <path d="M 8.59375 14.90625 
L 8.59375 50.40625 
L 17 50.40625 
L 17 17.09375 
Q 17 6.796875 25.703125 6.796875 
Q 31.59375 6.796875 35.84375 13 
Q 40.09375 19.203125 40.09375 29.296875 
L 40.09375 50.40625 
L 48.5 50.40625 
L 48.5 0 
L 40.09375 0 
L 40.09375 9.296875 
Q 34.40625 -0.796875 23.40625 -0.796875 
Q 16.5 -0.796875 12.546875 3.296875 
Q 8.59375 7.40625 8.59375 14.90625 
z
" id="Apercu-75"/>
      <path d="M 9 70.796875 
L 17.40625 70.796875 
L 17.40625 0 
L 9 0 
z
" id="Apercu-6c"/>
     </defs>
     <g style="opacity:0.75;" transform="translate(6039.58375 258.28)scale(0.14 -0.14)">
      <use xlink:href="#Apercu-61"/>
      <use x="51.799988" xlink:href="#Apercu-63"/>
      <use x="105.615601" xlink:href="#Apercu-74"/>
      <use x="143.399963" xlink:href="#Apercu-75"/>
      <use x="201.09996" xlink:href="#Apercu-61"/>
      <use x="252.899948" xlink:href="#Apercu-6c"/>
     </g>
    </g>
   </g>
  </g>
 </g>
 <defs>
  <clipPath id="pa7184d6928">
   <rect height="964.8" width="5313.6" x="777.6" y="216"/>
  </clipPath>
 </defs>
</svg>
