<?xml version="1.0" encoding="utf-8" standalone="no"?>
<!DOCTYPE svg PUBLIC "-//W3C//DTD SVG 1.1//EN"
  "http://www.w3.org/Graphics/SVG/1.1/DTD/svg11.dtd">
<!-- Created with matplotlib (http://matplotlib.org/) -->
<svg height="1440pt" version="1.1" viewBox="0 0 6480 1440" width="6480pt" xmlns="http://www.w3.org/2000/svg" xmlns:xlink="http://www.w3.org/1999/xlink">
 <defs>
  <style type="text/css">
*{stroke-linecap:butt;stroke-linejoin:round;}
  </style>
 </defs>
 <g id="figure_1">
  <g id="patch_1">
   <path d="M 0 1440 
L 6480 1440 
L 6480 0 
L 0 0 
z
" style="fill:#f0f0f0;"/>
  </g>
  <g id="axes_1">
   <g id="patch_2">
    <path d="M 777.6 1180.8 
L 6091.2 1180.8 
L 6091.2 216 
L 777.6 216 
z
" style="fill:#f0f0f0;"/>
   </g>
   <g id="matplotlib.axis_1">
    <g id="xtick_1">
     <g id="line2d_1">
      <path clip-path="url(#pe1466c3bb6)" d="M 777.6 1180.8 
L 777.6 216 
" style="fill:none;stroke:#b0b0b0;stroke-linecap:square;stroke-width:0.8;"/>
     </g>
     <g id="line2d_2">
      <defs>
       <path d="M 0 0 
L 0 3.5 
" id="mb52720cfd5" style="stroke:#000000;stroke-width:0.8;"/>
      </defs>
      <g>
       <use style="stroke:#000000;stroke-width:0.8;" x="777.6" xlink:href="#mb52720cfd5" y="1180.8"/>
      </g>
     </g>
     <g id="text_1">
      <!-- 0 -->
      <defs>
       <path d="M 48.203125 52.59375 
L 48.203125 17.40625 
Q 48.203125 9.703125 42.953125 4.34375 
Q 37.703125 -1 29.890625 -1 
Q 22.09375 -1 16.9375 4.390625 
Q 11.796875 9.796875 11.796875 17.5 
L 11.796875 52.59375 
Q 11.796875 60.296875 16.9375 65.640625 
Q 22.09375 71 29.890625 71 
Q 37.703125 71 42.953125 65.640625 
Q 48.203125 60.296875 48.203125 52.59375 
z
M 39.90625 17.296875 
L 39.90625 52.5 
Q 39.90625 56.90625 37 60 
Q 34.09375 63.09375 29.90625 63.09375 
Q 25.796875 63.09375 22.890625 60 
Q 20 56.90625 20 52.5 
L 20 17.40625 
Q 20 13 22.890625 9.953125 
Q 25.796875 6.90625 30 6.90625 
Q 34.09375 6.90625 37 9.90625 
Q 39.90625 12.90625 39.90625 17.296875 
z
" id="DecimaMonoPro-30"/>
      </defs>
      <g style="fill:#303030;" transform="translate(773.4 1197.613125)scale(0.14 -0.14)">
       <use xlink:href="#DecimaMonoPro-30"/>
      </g>
     </g>
    </g>
    <g id="xtick_2">
     <g id="line2d_3">
      <path clip-path="url(#pe1466c3bb6)" d="M 1537.771674 1180.8 
L 1537.771674 216 
" style="fill:none;stroke:#b0b0b0;stroke-linecap:square;stroke-width:0.8;"/>
     </g>
     <g id="line2d_4">
      <g>
       <use style="stroke:#000000;stroke-width:0.8;" x="1537.771674" xlink:href="#mb52720cfd5" y="1180.8"/>
      </g>
     </g>
     <g id="text_2">
      <!-- 100 -->
      <defs>
       <path d="M 13.90625 68.203125 
L 25.203125 70 
L 32.296875 70 
Q 33 70 33.546875 69.5 
Q 34.09375 69 34.09375 68.203125 
L 34.09375 7.703125 
L 47.296875 7.703125 
Q 48 7.703125 48.546875 7.140625 
Q 49.09375 6.59375 49.09375 5.90625 
L 49.09375 1.796875 
Q 49.09375 1 48.546875 0.5 
Q 48 0 47.296875 0 
L 12.59375 0 
Q 11.796875 0 11.296875 0.5 
Q 10.796875 1 10.796875 1.796875 
L 10.796875 5.90625 
Q 10.796875 6.59375 11.296875 7.140625 
Q 11.796875 7.703125 12.59375 7.703125 
L 25.703125 7.703125 
L 25.703125 62.09375 
L 14.703125 60.40625 
L 14.40625 60.40625 
Q 14 60.296875 13.5 60.296875 
Q 12.09375 60.296875 12.09375 62.09375 
L 12.09375 66.296875 
Q 12.09375 67.796875 13.90625 68.203125 
z
" id="DecimaMonoPro-31"/>
      </defs>
      <g style="fill:#303030;" transform="translate(1525.171674 1197.613125)scale(0.14 -0.14)">
       <use xlink:href="#DecimaMonoPro-31"/>
       <use x="59.999985" xlink:href="#DecimaMonoPro-30"/>
       <use x="119.999969" xlink:href="#DecimaMonoPro-30"/>
      </g>
     </g>
    </g>
    <g id="xtick_3">
     <g id="line2d_5">
      <path clip-path="url(#pe1466c3bb6)" d="M 2297.943348 1180.8 
L 2297.943348 216 
" style="fill:none;stroke:#b0b0b0;stroke-linecap:square;stroke-width:0.8;"/>
     </g>
     <g id="line2d_6">
      <g>
       <use style="stroke:#000000;stroke-width:0.8;" x="2297.943348" xlink:href="#mb52720cfd5" y="1180.8"/>
      </g>
     </g>
     <g id="text_3">
      <!-- 200 -->
      <defs>
       <path d="M 11.703125 53 
Q 11.703125 59.703125 17.203125 65.34375 
Q 22.703125 71 30.59375 71 
Q 38.40625 71 43.796875 65.75 
Q 49.203125 60.5 49.203125 52.703125 
Q 49.203125 46.90625 46.09375 41.75 
Q 43 36.59375 38.59375 32.84375 
Q 34.203125 29.09375 29.796875 25.4375 
Q 25.40625 21.796875 22.296875 17.296875 
Q 19.203125 12.796875 19.203125 7.796875 
L 47.40625 7.796875 
Q 48.203125 7.796875 48.703125 7.296875 
Q 49.203125 6.796875 49.203125 6 
L 49.203125 1.796875 
Q 49.203125 1 48.703125 0.5 
Q 48.203125 0 47.40625 0 
L 12.59375 0 
Q 11.796875 0 11.296875 0.5 
Q 10.796875 1 10.796875 1.796875 
L 10.796875 7.296875 
Q 10.796875 13.90625 13.890625 19.453125 
Q 17 25 21.390625 28.890625 
Q 25.796875 32.796875 30.1875 36.390625 
Q 34.59375 40 37.6875 44.296875 
Q 40.796875 48.59375 40.796875 53.296875 
Q 40.796875 57.40625 37.75 60.25 
Q 34.703125 63.09375 30.5 63.09375 
Q 26.09375 63.09375 23.1875 59.6875 
Q 20.296875 56.296875 20.09375 53 
Q 19.90625 51 17.796875 51 
L 14 51 
Q 12.90625 51 12.296875 51.59375 
Q 11.703125 52.203125 11.703125 53 
z
" id="DecimaMonoPro-32"/>
      </defs>
      <g style="fill:#303030;" transform="translate(2285.343348 1197.613125)scale(0.14 -0.14)">
       <use xlink:href="#DecimaMonoPro-32"/>
       <use x="59.999985" xlink:href="#DecimaMonoPro-30"/>
       <use x="119.999969" xlink:href="#DecimaMonoPro-30"/>
      </g>
     </g>
    </g>
    <g id="xtick_4">
     <g id="line2d_7">
      <path clip-path="url(#pe1466c3bb6)" d="M 3058.115021 1180.8 
L 3058.115021 216 
" style="fill:none;stroke:#b0b0b0;stroke-linecap:square;stroke-width:0.8;"/>
     </g>
     <g id="line2d_8">
      <g>
       <use style="stroke:#000000;stroke-width:0.8;" x="3058.115021" xlink:href="#mb52720cfd5" y="1180.8"/>
      </g>
     </g>
     <g id="text_4">
      <!-- 300 -->
      <defs>
       <path d="M 46.203125 61.09375 
L 35.40625 47.09375 
Q 40.796875 46.40625 44.890625 41.953125 
Q 49 37.5 49 31.5 
L 49 17.5 
Q 49 9.796875 43.5 4.390625 
Q 38 -1 30 -1 
Q 21.796875 -1 16.34375 4.34375 
Q 10.90625 9.703125 10.90625 17.40625 
Q 10.90625 18.203125 11.5 18.796875 
Q 12.09375 19.40625 13.203125 19.40625 
L 17 19.40625 
Q 19.09375 19.40625 19.296875 17.40625 
Q 19.296875 13 22.390625 9.953125 
Q 25.5 6.90625 30 6.90625 
Q 34.40625 6.90625 37.5 9.953125 
Q 40.59375 13 40.59375 17.40625 
L 40.59375 31.40625 
Q 40.59375 34.59375 38.296875 36.9375 
Q 36 39.296875 32.703125 39.296875 
L 27.40625 39.296875 
Q 25.203125 39.296875 25.203125 41.59375 
L 25.203125 45 
Q 25.203125 46.703125 26.296875 48.203125 
L 36.59375 62.09375 
L 16.90625 62.09375 
Q 14.703125 62.09375 14.703125 64.40625 
L 14.703125 67.703125 
Q 14.703125 70 16.90625 70 
L 45.09375 70 
Q 47.296875 70 47.296875 67.703125 
L 47.296875 64.296875 
Q 47.296875 62.59375 46.203125 61.09375 
z
" id="DecimaMonoPro-33"/>
      </defs>
      <g style="fill:#303030;" transform="translate(3045.515021 1197.613125)scale(0.14 -0.14)">
       <use xlink:href="#DecimaMonoPro-33"/>
       <use x="59.999985" xlink:href="#DecimaMonoPro-30"/>
       <use x="119.999969" xlink:href="#DecimaMonoPro-30"/>
      </g>
     </g>
    </g>
    <g id="xtick_5">
     <g id="line2d_9">
      <path clip-path="url(#pe1466c3bb6)" d="M 3818.286695 1180.8 
L 3818.286695 216 
" style="fill:none;stroke:#b0b0b0;stroke-linecap:square;stroke-width:0.8;"/>
     </g>
     <g id="line2d_10">
      <g>
       <use style="stroke:#000000;stroke-width:0.8;" x="3818.286695" xlink:href="#mb52720cfd5" y="1180.8"/>
      </g>
     </g>
     <g id="text_5">
      <!-- 400 -->
      <defs>
       <path d="M 40.09375 67.5 
L 19.5 22.90625 
L 35.796875 22.90625 
L 35.796875 38.90625 
Q 35.796875 39.703125 36.390625 40.296875 
Q 37 40.90625 38.09375 40.90625 
L 42.203125 40.90625 
Q 43 40.90625 43.59375 40.25 
Q 44.203125 39.59375 44.203125 38.90625 
L 44.203125 22.90625 
L 48 22.90625 
Q 48.796875 22.90625 49.390625 22.296875 
Q 50 21.703125 50 20.59375 
L 50 17.40625 
Q 50 16.296875 49.390625 15.6875 
Q 48.796875 15.09375 48 15.09375 
L 44.203125 15.09375 
L 44.203125 2 
Q 44.203125 1.203125 43.59375 0.59375 
Q 43 0 42.203125 0 
L 38.09375 0 
Q 37 0 36.390625 0.59375 
Q 35.796875 1.203125 35.796875 2 
L 35.796875 15.09375 
L 12.09375 15.09375 
Q 9.90625 15.09375 9.90625 17.40625 
L 9.90625 21.296875 
Q 9.90625 22.5 11 24.703125 
L 31.296875 68 
Q 32.296875 70 34 70 
L 38.796875 70 
Q 40.5 70 40.5 68.796875 
Q 40.5 68.5 40.09375 67.5 
z
" id="DecimaMonoPro-34"/>
      </defs>
      <g style="fill:#303030;" transform="translate(3805.686695 1197.613125)scale(0.14 -0.14)">
       <use xlink:href="#DecimaMonoPro-34"/>
       <use x="59.999985" xlink:href="#DecimaMonoPro-30"/>
       <use x="119.999969" xlink:href="#DecimaMonoPro-30"/>
      </g>
     </g>
    </g>
    <g id="xtick_6">
     <g id="line2d_11">
      <path clip-path="url(#pe1466c3bb6)" d="M 4578.458369 1180.8 
L 4578.458369 216 
" style="fill:none;stroke:#b0b0b0;stroke-linecap:square;stroke-width:0.8;"/>
     </g>
     <g id="line2d_12">
      <g>
       <use style="stroke:#000000;stroke-width:0.8;" x="4578.458369" xlink:href="#mb52720cfd5" y="1180.8"/>
      </g>
     </g>
     <g id="text_6">
      <!-- 500 -->
      <defs>
       <path d="M 21.90625 35.59375 
Q 21.09375 34.40625 19.796875 34.40625 
Q 19.40625 34.40625 18.203125 34.796875 
L 14.796875 35.796875 
Q 13.203125 36.296875 13.40625 38.5 
L 15.90625 67.703125 
Q 16.09375 70 18.09375 70 
L 44.40625 70 
Q 46.59375 70 46.59375 67.703125 
L 46.59375 64.40625 
Q 46.59375 62.09375 44.40625 62.09375 
L 24.09375 62.09375 
L 22.40625 44.796875 
Q 25.203125 47.203125 30.703125 47.203125 
Q 38.40625 47.203125 43.703125 42 
Q 49 36.796875 49 28.90625 
L 49 17.5 
Q 49 9.796875 43.5 4.390625 
Q 38 -1 30.09375 -1 
Q 21.90625 -1 16.453125 4.34375 
Q 11 9.703125 11 17.40625 
Q 11 18.203125 11.59375 18.796875 
Q 12.203125 19.40625 13.296875 19.40625 
L 17.09375 19.40625 
Q 18.203125 19.40625 18.796875 18.796875 
Q 19.40625 18.203125 19.40625 17.40625 
Q 19.40625 13 22.5 9.953125 
Q 25.59375 6.90625 30.09375 6.90625 
Q 34.5 6.90625 37.546875 9.953125 
Q 40.59375 13 40.59375 17.40625 
L 40.59375 28.796875 
Q 40.59375 33.203125 37.5 36.25 
Q 34.40625 39.296875 29.796875 39.296875 
Q 27.703125 39.296875 25.796875 38.4375 
Q 23.90625 37.59375 23.09375 36.890625 
Q 22.296875 36.203125 21.90625 35.59375 
z
" id="DecimaMonoPro-35"/>
      </defs>
      <g style="fill:#303030;" transform="translate(4565.858369 1197.613125)scale(0.14 -0.14)">
       <use xlink:href="#DecimaMonoPro-35"/>
       <use x="59.999985" xlink:href="#DecimaMonoPro-30"/>
       <use x="119.999969" xlink:href="#DecimaMonoPro-30"/>
      </g>
     </g>
    </g>
    <g id="xtick_7">
     <g id="line2d_13">
      <path clip-path="url(#pe1466c3bb6)" d="M 5338.630043 1180.8 
L 5338.630043 216 
" style="fill:none;stroke:#b0b0b0;stroke-linecap:square;stroke-width:0.8;"/>
     </g>
     <g id="line2d_14">
      <g>
       <use style="stroke:#000000;stroke-width:0.8;" x="5338.630043" xlink:href="#mb52720cfd5" y="1180.8"/>
      </g>
     </g>
     <g id="text_7">
      <!-- 600 -->
      <defs>
       <path d="M 11 60.203125 
Q 21.59375 71 29.5 71 
Q 37.40625 71 42.65625 65.953125 
Q 47.90625 60.90625 47.90625 54.40625 
Q 47.90625 53.59375 47.296875 53 
Q 46.703125 52.40625 45.59375 52.40625 
L 41.796875 52.40625 
Q 39.703125 52.40625 39.5 54.40625 
Q 39.296875 57.59375 36.640625 60.296875 
Q 34 63 29.5 63 
Q 25.203125 63 22.25 59.890625 
Q 19.296875 56.796875 19.296875 52.40625 
L 19.296875 42.796875 
Q 19.703125 43.296875 20.59375 44.046875 
Q 21.5 44.796875 24.546875 46 
Q 27.59375 47.203125 31 47.203125 
Q 38.40625 47.203125 43.703125 42 
Q 49 36.796875 49 28.90625 
L 49 17.5 
Q 49 9.796875 43.546875 4.390625 
Q 38.09375 -1 30 -1 
Q 21.90625 -1 16.453125 4.34375 
Q 11 9.703125 11 17.40625 
L 11 52.5 
Q 11 60.203125 21.59375 71 
z
M 30 39.296875 
Q 25.40625 39.296875 22.34375 36.390625 
Q 19.296875 33.5 19.296875 28.796875 
L 19.296875 17.296875 
Q 19.296875 12.90625 22.390625 9.90625 
Q 25.5 6.90625 30 6.90625 
Q 34.40625 6.90625 37.5 9.953125 
Q 40.59375 13 40.59375 17.40625 
L 40.59375 28.796875 
Q 40.59375 33.40625 37.546875 36.34375 
Q 34.5 39.296875 30 39.296875 
z
" id="DecimaMonoPro-36"/>
      </defs>
      <g style="fill:#303030;" transform="translate(5326.030043 1197.613125)scale(0.14 -0.14)">
       <use xlink:href="#DecimaMonoPro-36"/>
       <use x="59.999985" xlink:href="#DecimaMonoPro-30"/>
       <use x="119.999969" xlink:href="#DecimaMonoPro-30"/>
      </g>
     </g>
    </g>
    <g id="text_8">
     <!-- x -->
     <defs>
      <path d="M 3.59375 50.40625 
L 13.09375 50.40625 
L 22.90625 34.40625 
L 32.703125 50.40625 
L 42.203125 50.40625 
L 27.59375 26.59375 
L 44 0 
L 34.5 0 
L 22.90625 18.90625 
L 11.296875 0 
L 1.796875 0 
L 18.203125 26.59375 
z
" id="Apercu-78"/>
     </defs>
     <g style="opacity:0.75;" transform="translate(3431.194219 1214.044688)scale(0.14 -0.14)">
      <use xlink:href="#Apercu-78"/>
     </g>
    </g>
   </g>
   <g id="matplotlib.axis_2">
    <g id="ytick_1">
     <g id="line2d_15">
      <path clip-path="url(#pe1466c3bb6)" d="M 777.6 1152.305676 
L 6091.2 1152.305676 
" style="fill:none;stroke:#b0b0b0;stroke-linecap:square;stroke-width:0.8;"/>
     </g>
     <g id="line2d_16">
      <defs>
       <path d="M 0 0 
L -3.5 0 
" id="m6990ebd1f1" style="stroke:#000000;stroke-width:0.8;"/>
      </defs>
      <g>
       <use style="stroke:#000000;stroke-width:0.8;" x="777.6" xlink:href="#m6990ebd1f1" y="1152.305676"/>
      </g>
     </g>
     <g id="text_9">
      <!-- −4 -->
      <defs>
       <path d="M 50.203125 25.296875 
L 9.796875 25.296875 
Q 9 25.296875 8.5 25.84375 
Q 8 26.40625 8 27.09375 
L 8 31.296875 
Q 8 32 8.5 32.546875 
Q 9 33.09375 9.796875 33.09375 
L 50.203125 33.09375 
Q 51 33.09375 51.5 32.546875 
Q 52 32 52 31.296875 
L 52 27.09375 
Q 52 26.40625 51.5 25.84375 
Q 51 25.296875 50.203125 25.296875 
z
" id="DecimaMonoPro-2212"/>
      </defs>
      <g style="fill:#303030;" transform="translate(753.8 1157.212239)scale(0.14 -0.14)">
       <use xlink:href="#DecimaMonoPro-2212"/>
       <use x="59.999985" xlink:href="#DecimaMonoPro-34"/>
      </g>
     </g>
    </g>
    <g id="ytick_2">
     <g id="line2d_17">
      <path clip-path="url(#pe1466c3bb6)" d="M 777.6 1037.693117 
L 6091.2 1037.693117 
" style="fill:none;stroke:#b0b0b0;stroke-linecap:square;stroke-width:0.8;"/>
     </g>
     <g id="line2d_18">
      <g>
       <use style="stroke:#000000;stroke-width:0.8;" x="777.6" xlink:href="#m6990ebd1f1" y="1037.693117"/>
      </g>
     </g>
     <g id="text_10">
      <!-- −3 -->
      <g style="fill:#303030;" transform="translate(753.8 1042.599679)scale(0.14 -0.14)">
       <use xlink:href="#DecimaMonoPro-2212"/>
       <use x="59.999985" xlink:href="#DecimaMonoPro-33"/>
      </g>
     </g>
    </g>
    <g id="ytick_3">
     <g id="line2d_19">
      <path clip-path="url(#pe1466c3bb6)" d="M 777.6 923.080557 
L 6091.2 923.080557 
" style="fill:none;stroke:#b0b0b0;stroke-linecap:square;stroke-width:0.8;"/>
     </g>
     <g id="line2d_20">
      <g>
       <use style="stroke:#000000;stroke-width:0.8;" x="777.6" xlink:href="#m6990ebd1f1" y="923.080557"/>
      </g>
     </g>
     <g id="text_11">
      <!-- −2 -->
      <g style="fill:#303030;" transform="translate(753.8 927.98712)scale(0.14 -0.14)">
       <use xlink:href="#DecimaMonoPro-2212"/>
       <use x="59.999985" xlink:href="#DecimaMonoPro-32"/>
      </g>
     </g>
    </g>
    <g id="ytick_4">
     <g id="line2d_21">
      <path clip-path="url(#pe1466c3bb6)" d="M 777.6 808.467998 
L 6091.2 808.467998 
" style="fill:none;stroke:#b0b0b0;stroke-linecap:square;stroke-width:0.8;"/>
     </g>
     <g id="line2d_22">
      <g>
       <use style="stroke:#000000;stroke-width:0.8;" x="777.6" xlink:href="#m6990ebd1f1" y="808.467998"/>
      </g>
     </g>
     <g id="text_12">
      <!-- −1 -->
      <g style="fill:#303030;" transform="translate(753.8 813.37456)scale(0.14 -0.14)">
       <use xlink:href="#DecimaMonoPro-2212"/>
       <use x="59.999985" xlink:href="#DecimaMonoPro-31"/>
      </g>
     </g>
    </g>
    <g id="ytick_5">
     <g id="line2d_23">
      <path clip-path="url(#pe1466c3bb6)" d="M 777.6 693.855439 
L 6091.2 693.855439 
" style="fill:none;stroke:#b0b0b0;stroke-linecap:square;stroke-width:0.8;"/>
     </g>
     <g id="line2d_24">
      <g>
       <use style="stroke:#000000;stroke-width:0.8;" x="777.6" xlink:href="#m6990ebd1f1" y="693.855439"/>
      </g>
     </g>
     <g id="text_13">
      <!-- 0 -->
      <g style="fill:#303030;" transform="translate(762.2 698.762001)scale(0.14 -0.14)">
       <use xlink:href="#DecimaMonoPro-30"/>
      </g>
     </g>
    </g>
    <g id="ytick_6">
     <g id="line2d_25">
      <path clip-path="url(#pe1466c3bb6)" d="M 777.6 579.242879 
L 6091.2 579.242879 
" style="fill:none;stroke:#b0b0b0;stroke-linecap:square;stroke-width:0.8;"/>
     </g>
     <g id="line2d_26">
      <g>
       <use style="stroke:#000000;stroke-width:0.8;" x="777.6" xlink:href="#m6990ebd1f1" y="579.242879"/>
      </g>
     </g>
     <g id="text_14">
      <!-- 1 -->
      <g style="fill:#303030;" transform="translate(762.2 584.149442)scale(0.14 -0.14)">
       <use xlink:href="#DecimaMonoPro-31"/>
      </g>
     </g>
    </g>
    <g id="ytick_7">
     <g id="line2d_27">
      <path clip-path="url(#pe1466c3bb6)" d="M 777.6 464.63032 
L 6091.2 464.63032 
" style="fill:none;stroke:#b0b0b0;stroke-linecap:square;stroke-width:0.8;"/>
     </g>
     <g id="line2d_28">
      <g>
       <use style="stroke:#000000;stroke-width:0.8;" x="777.6" xlink:href="#m6990ebd1f1" y="464.63032"/>
      </g>
     </g>
     <g id="text_15">
      <!-- 2 -->
      <g style="fill:#303030;" transform="translate(762.2 469.536882)scale(0.14 -0.14)">
       <use xlink:href="#DecimaMonoPro-32"/>
      </g>
     </g>
    </g>
    <g id="ytick_8">
     <g id="line2d_29">
      <path clip-path="url(#pe1466c3bb6)" d="M 777.6 350.01776 
L 6091.2 350.01776 
" style="fill:none;stroke:#b0b0b0;stroke-linecap:square;stroke-width:0.8;"/>
     </g>
     <g id="line2d_30">
      <g>
       <use style="stroke:#000000;stroke-width:0.8;" x="777.6" xlink:href="#m6990ebd1f1" y="350.01776"/>
      </g>
     </g>
     <g id="text_16">
      <!-- 3 -->
      <g style="fill:#303030;" transform="translate(762.2 354.924323)scale(0.14 -0.14)">
       <use xlink:href="#DecimaMonoPro-33"/>
      </g>
     </g>
    </g>
    <g id="ytick_9">
     <g id="line2d_31">
      <path clip-path="url(#pe1466c3bb6)" d="M 777.6 235.405201 
L 6091.2 235.405201 
" style="fill:none;stroke:#b0b0b0;stroke-linecap:square;stroke-width:0.8;"/>
     </g>
     <g id="line2d_32">
      <g>
       <use style="stroke:#000000;stroke-width:0.8;" x="777.6" xlink:href="#m6990ebd1f1" y="235.405201"/>
      </g>
     </g>
     <g id="text_17">
      <!-- 4 -->
      <g style="fill:#303030;" transform="translate(762.2 240.311764)scale(0.14 -0.14)">
       <use xlink:href="#DecimaMonoPro-34"/>
      </g>
     </g>
    </g>
    <g id="text_18">
     <!-- P -->
     <defs>
      <path d="M 34.09375 30 
L 18.5 30 
L 18.5 0 
L 9.703125 0 
L 9.703125 70 
L 34.09375 70 
Q 43.90625 70 49.40625 64.59375 
Q 54.90625 59.203125 54.90625 50 
Q 54.90625 40.796875 49.40625 35.390625 
Q 43.90625 30 34.09375 30 
z
M 34.59375 38.40625 
Q 40 38.40625 42.890625 41.40625 
Q 45.796875 44.40625 45.796875 50 
Q 45.796875 55.59375 42.890625 58.59375 
Q 40 61.59375 34.59375 61.59375 
L 18.5 61.59375 
L 18.5 38.40625 
z
" id="Apercu-50"/>
     </defs>
     <g style="opacity:0.75;" transform="translate(746.943125 702.488438)rotate(-90)scale(0.14 -0.14)">
      <use xlink:href="#Apercu-50"/>
     </g>
    </g>
   </g>
   <g id="line2d_33">
    <path clip-path="url(#pe1466c3bb6)" d="M 777.6 838.913284 
L 785.201717 845.006178 
L 792.803433 775.36151 
L 800.40515 741.930481 
L 808.006867 722.320459 
L 815.608584 663.362387 
L 823.2103 665.868156 
L 830.812017 654.133489 
L 838.413734 698.011394 
L 846.015451 700.66157 
L 853.617167 755.861237 
L 861.218884 702.160629 
L 868.820601 700.146775 
L 876.422318 701.794024 
L 884.024034 726.287735 
L 891.625751 690.130901 
L 899.227468 692.455472 
L 906.829185 730.782174 
L 914.430901 735.871475 
L 922.032618 701.589687 
L 929.634335 621.064646 
L 937.236052 671.430971 
L 944.837768 554.609837 
L 952.439485 728.025254 
L 960.041202 818.71893 
L 967.642918 806.026584 
L 975.244635 689.493311 
L 982.846352 705.586239 
L 990.448069 642.41752 
L 998.049785 719.794671 
L 1005.651502 602.298104 
L 1013.253219 825.836212 
L 1020.854936 738.224489 
L 1028.456652 812.733946 
L 1036.058369 791.888269 
L 1043.660086 664.010267 
L 1051.261803 723.073942 
L 1058.863519 716.09583 
L 1066.465236 736.828696 
L 1074.066953 624.557446 
L 1081.66867 703.928439 
L 1089.270386 756.414885 
L 1096.872103 757.109943 
L 1104.47382 756.170988 
L 1112.075536 796.959104 
L 1119.677253 727.979849 
L 1127.27897 739.916152 
L 1134.880687 728.100499 
L 1142.482403 714.548799 
L 1150.08412 663.167431 
L 1157.685837 690.512876 
L 1165.287554 731.365781 
L 1172.88927 753.05221 
L 1180.490987 719.478489 
L 1188.092704 708.08725 
L 1195.694421 624.776127 
L 1203.296137 671.649094 
L 1210.897854 665.41373 
L 1218.499571 687.957287 
L 1226.101288 654.206859 
L 1233.703004 601.871563 
L 1241.304721 579.77483 
L 1248.906438 597.494091 
L 1256.508155 605.000649 
L 1264.109871 626.295631 
L 1271.711588 644.586486 
L 1279.313305 635.776257 
L 1286.915021 670.28066 
L 1294.516738 683.813606 
L 1302.118455 922.829529 
L 1309.720172 718.246429 
L 1317.321888 689.800787 
L 1324.923605 883.828205 
L 1332.525322 826.640164 
L 1340.127039 681.799825 
L 1347.728755 629.676497 
L 1355.330472 671.514077 
L 1362.932189 666.31242 
L 1370.533906 639.211429 
L 1378.135622 645.027011 
L 1385.737339 649.268335 
L 1393.339056 650.213421 
L 1400.940773 594.410085 
L 1408.542489 866.293508 
L 1416.144206 891.261509 
L 1423.745923 795.782579 
L 1431.347639 617.634648 
L 1438.949356 639.568523 
L 1446.551073 661.151538 
L 1454.15279 655.36583 
L 1461.754506 568.962094 
L 1469.356223 563.096209 
L 1476.95794 598.49901 
L 1484.559657 581.689109 
L 1492.161373 655.127464 
L 1499.76309 677.641294 
L 1507.364807 677.402699 
L 1514.966524 708.743526 
L 1522.56824 708.421673 
L 1530.169957 614.419526 
L 1537.771674 677.105043 
L 1545.373391 636.460972 
L 1552.975107 805.696448 
L 1560.576824 795.397184 
L 1568.178541 676.999557 
L 1575.780258 833.979563 
L 1583.381974 826.009704 
L 1590.983691 695.785509 
L 1598.585408 761.959043 
L 1606.187124 704.705986 
L 1613.788841 815.427364 
L 1621.390558 771.562293 
L 1628.992275 716.578715 
L 1636.593991 790.504219 
L 1644.195708 786.658035 
L 1651.797425 799.267693 
L 1659.399142 726.913351 
L 1667.000858 755.904016 
L 1674.602575 716.857267 
L 1682.204292 727.878313 
L 1689.806009 721.548056 
L 1697.407725 722.39773 
L 1705.009442 683.554682 
L 1712.611159 765.635396 
L 1720.212876 723.702284 
L 1727.814592 664.628652 
L 1735.416309 720.948911 
L 1743.018026 708.483753 
L 1750.619742 712.056653 
L 1758.221459 681.5183 
L 1765.823176 718.134709 
L 1773.424893 547.342332 
L 1781.026609 737.039408 
L 1788.628326 779.769388 
L 1796.230043 687.352623 
L 1803.83176 727.374252 
L 1811.433476 655.834252 
L 1819.035193 746.507178 
L 1826.63691 731.483992 
L 1834.238627 740.721678 
L 1841.840343 795.846453 
L 1849.44206 662.851091 
L 1857.043777 795.018394 
L 1864.645494 711.029129 
L 1872.24721 723.625618 
L 1879.848927 918.549413 
L 1887.450644 801.640895 
L 1895.052361 797.588293 
L 1902.654077 839.294656 
L 1910.255794 702.664405 
L 1917.857511 625.452207 
L 1925.459227 673.01288 
L 1933.060944 640.111861 
L 1940.662661 673.804536 
L 1948.264378 653.987518 
L 1955.866094 672.744964 
L 1963.467811 752.464092 
L 1971.069528 635.428967 
L 1978.671245 719.032072 
L 1986.272961 736.523044 
L 1993.874678 674.899611 
L 2001.476395 880.993649 
L 2009.078112 779.805362 
L 2016.679828 777.786275 
L 2024.281545 708.346802 
L 2031.883262 714.313167 
L 2039.484979 845.310505 
L 2047.086695 779.944464 
L 2054.688412 884.725159 
L 2062.290129 637.800023 
L 2069.891845 797.315855 
L 2077.493562 684.67638 
L 2085.095279 738.763285 
L 2092.696996 813.926688 
L 2100.298712 779.285975 
L 2107.900429 698.389269 
L 2115.502146 690.297809 
L 2123.103863 639.812016 
L 2130.705579 671.174671 
L 2138.307296 735.939236 
L 2145.909013 685.867512 
L 2153.51073 790.318308 
L 2161.112446 806.924318 
L 2168.714163 782.361879 
L 2176.31588 681.197219 
L 2183.917597 787.021475 
L 2191.519313 663.555826 
L 2199.12103 779.759448 
L 2206.722747 734.938481 
L 2214.324464 768.013264 
L 2221.92618 823.574814 
L 2229.527897 733.72245 
L 2237.129614 801.892606 
L 2244.73133 867.314371 
L 2252.333047 861.79331 
L 2259.934764 843.290052 
L 2267.536481 831.801932 
L 2275.138197 831.020128 
L 2282.739914 774.169635 
L 2290.341631 742.783366 
L 2297.943348 778.20313 
L 2305.545064 871.540369 
L 2313.146781 750.727324 
L 2320.748498 773.159983 
L 2328.350215 769.460423 
L 2335.951931 672.460698 
L 2343.553648 740.758349 
L 2351.155365 688.463905 
L 2358.757082 743.115992 
L 2366.358798 701.203772 
L 2373.960515 742.736847 
L 2381.562232 734.887368 
L 2389.163948 785.06452 
L 2396.765665 676.303248 
L 2404.367382 762.937032 
L 2411.969099 755.067014 
L 2419.570815 807.560789 
L 2427.172532 764.002826 
L 2434.774249 813.497045 
L 2442.375966 699.186499 
L 2449.977682 753.350731 
L 2457.579399 735.312963 
L 2465.181116 751.502894 
L 2472.782833 686.497743 
L 2480.384549 695.777891 
L 2487.986266 541.189499 
L 2495.587983 635.460425 
L 2503.1897 594.260518 
L 2510.791416 642.22554 
L 2518.393133 624.811323 
L 2525.99485 678.010207 
L 2533.596567 670.24262 
L 2541.198283 720.389964 
L 2548.8 715.425691 
L 2556.401717 756.657449 
L 2564.003433 496.346937 
L 2571.60515 672.628975 
L 2579.206867 615.222924 
L 2586.808584 703.656918 
L 2594.4103 718.945051 
L 2602.012017 760.063441 
L 2609.613734 682.960037 
L 2617.215451 661.725871 
L 2624.817167 803.962581 
L 2632.418884 841.693899 
L 2640.020601 862.935787 
L 2647.622318 712.261571 
L 2655.224034 869.8186 
L 2662.825751 871.024076 
L 2670.427468 665.568773 
L 2678.029185 708.50212 
L 2685.630901 743.759237 
L 2693.232618 658.629677 
L 2700.834335 675.344314 
L 2708.436052 711.458904 
L 2716.037768 693.648981 
L 2723.639485 677.201443 
L 2731.241202 651.571258 
L 2738.842918 594.973365 
L 2746.444635 621.126279 
L 2754.046352 538.777877 
L 2761.648069 620.1487 
L 2769.249785 658.854766 
L 2776.851502 774.726733 
L 2784.453219 711.137737 
L 2792.054936 663.97486 
L 2799.656652 687.594729 
L 2807.258369 694.731623 
L 2814.860086 664.227288 
L 2822.461803 636.902911 
L 2830.063519 724.26308 
L 2837.665236 709.093427 
L 2845.266953 753.091942 
L 2852.86867 726.686794 
L 2860.470386 807.460825 
L 2868.072103 760.186714 
L 2875.67382 720.968036 
L 2883.275536 785.078989 
L 2890.877253 725.821247 
L 2898.47897 814.011712 
L 2906.080687 776.649824 
L 2913.682403 754.512834 
L 2921.28412 784.212222 
L 2928.885837 688.891437 
L 2936.487554 924.38897 
L 2944.08927 887.998649 
L 2951.690987 772.698683 
L 2959.292704 891.125987 
L 2966.894421 730.655608 
L 2974.496137 739.364336 
L 2982.097854 725.797589 
L 2989.699571 673.094024 
L 2997.301288 703.742724 
L 3004.903004 714.631541 
L 3012.504721 699.364127 
L 3020.106438 630.007344 
L 3027.708155 711.258929 
L 3035.309871 764.030472 
L 3042.911588 733.133764 
L 3050.513305 623.130283 
L 3058.115021 509.349082 
L 3065.716738 562.51488 
L 3073.318455 568.255395 
L 3080.920172 573.278703 
L 3088.521888 691.039107 
L 3096.123605 520.444148 
L 3103.725322 666.566836 
L 3111.327039 750.993221 
L 3118.928755 721.067402 
L 3126.530472 645.45951 
L 3134.132189 739.186021 
L 3141.733906 712.86063 
L 3149.335622 635.910296 
L 3156.937339 636.94776 
L 3164.539056 591.815832 
L 3172.140773 493.696803 
L 3179.742489 487.22542 
L 3187.344206 460.770774 
L 3194.945923 489.599086 
L 3202.547639 533.792743 
L 3210.149356 612.148974 
L 3217.751073 535.248332 
L 3225.35279 574.959388 
L 3232.954506 584.439017 
L 3240.556223 586.468938 
L 3248.15794 570.188392 
L 3255.759657 597.046065 
L 3263.361373 603.488442 
L 3270.96309 596.136636 
L 3278.564807 618.692934 
L 3286.166524 711.448816 
L 3293.76824 618.155839 
L 3301.369957 628.807517 
L 3308.971674 592.90835 
L 3316.573391 678.111635 
L 3324.175107 599.219857 
L 3331.776824 592.377766 
L 3339.378541 604.83925 
L 3346.980258 624.86234 
L 3354.581974 595.03161 
L 3362.183691 591.247326 
L 3369.785408 667.701976 
L 3377.387124 711.355331 
L 3384.988841 539.771524 
L 3392.590558 677.215774 
L 3400.192275 639.977927 
L 3407.793991 711.378669 
L 3415.395708 654.757702 
L 3422.997425 674.768324 
L 3430.599142 730.219308 
L 3438.200858 756.812242 
L 3445.802575 639.825064 
L 3453.404292 723.677657 
L 3461.006009 693.403361 
L 3468.607725 667.00686 
L 3476.209442 811.329197 
L 3483.811159 726.270168 
L 3491.412876 712.663036 
L 3499.014592 771.736734 
L 3506.616309 818.331041 
L 3514.218026 804.487584 
L 3521.819742 827.779689 
L 3529.421459 827.45152 
L 3537.023176 767.50728 
L 3544.624893 752.96485 
L 3552.226609 828.302567 
L 3559.828326 846.975355 
L 3567.430043 893.8186 
L 3575.03176 831.964534 
L 3582.633476 835.356946 
L 3590.235193 810.587357 
L 3597.83691 816.664142 
L 3605.438627 768.621194 
L 3613.040343 740.39368 
L 3620.64206 757.687582 
L 3628.243777 746.886367 
L 3635.845494 718.263729 
L 3643.44721 786.312699 
L 3651.048927 737.335186 
L 3658.650644 735.348053 
L 3666.252361 740.3768 
L 3673.854077 721.771311 
L 3681.455794 739.435762 
L 3689.057511 739.387966 
L 3696.659227 701.051717 
L 3704.260944 767.4321 
L 3711.862661 738.883153 
L 3719.464378 673.453038 
L 3727.066094 818.041443 
L 3734.667811 823.312692 
L 3742.269528 717.113262 
L 3749.871245 823.744821 
L 3757.472961 736.855342 
L 3765.074678 687.018913 
L 3772.676395 688.733211 
L 3780.278112 600.880676 
L 3787.879828 588.779092 
L 3795.481545 586.247128 
L 3803.083262 644.192349 
L 3810.684979 576.718443 
L 3818.286695 694.806309 
L 3825.888412 711.334001 
L 3833.490129 700.660546 
L 3841.091845 736.407329 
L 3848.693562 622.998128 
L 3856.295279 613.697798 
L 3863.896996 581.76435 
L 3871.498712 591.67617 
L 3879.100429 575.440472 
L 3886.702146 641.182652 
L 3894.303863 515.65994 
L 3901.905579 714.189415 
L 3909.507296 690.367015 
L 3917.109013 670.322802 
L 3924.71073 628.398328 
L 3932.312446 645.407898 
L 3939.914163 616.979171 
L 3947.51588 627.773948 
L 3955.117597 554.347291 
L 3962.719313 631.878059 
L 3970.32103 710.79829 
L 3977.922747 658.488263 
L 3985.524464 744.274372 
L 3993.12618 786.621897 
L 4000.727897 686.461489 
L 4008.329614 728.920548 
L 4015.93133 702.208565 
L 4023.533047 689.203236 
L 4031.134764 713.794917 
L 4038.736481 671.302492 
L 4046.338197 775.150207 
L 4053.939914 719.6297 
L 4061.541631 830.862636 
L 4069.143348 798.074733 
L 4076.745064 718.553347 
L 4084.346781 743.198656 
L 4091.948498 622.224085 
L 4099.550215 758.691155 
L 4107.151931 778.324067 
L 4114.753648 776.925924 
L 4122.355365 649.304374 
L 4129.957082 724.81421 
L 4137.558798 766.015928 
L 4145.160515 658.403089 
L 4152.762232 741.628647 
L 4160.363948 651.257907 
L 4167.965665 610.413924 
L 4175.567382 865.897776 
L 4183.169099 726.627869 
L 4190.770815 805.272188 
L 4198.372532 852.33891 
L 4205.974249 872.140279 
L 4213.575966 881.333403 
L 4221.177682 855.934639 
L 4228.779399 825.866312 
L 4236.381116 824.486716 
L 4243.982833 810.160624 
L 4251.584549 783.756518 
L 4259.186266 792.603206 
L 4266.787983 772.561897 
L 4274.3897 749.070867 
L 4281.991416 744.206574 
L 4289.593133 725.268607 
L 4297.19485 707.875502 
L 4304.796567 759.912398 
L 4312.398283 765.421648 
L 4320 671.500448 
L 4327.601717 677.955641 
L 4335.203433 609.55968 
L 4342.80515 723.184591 
L 4350.406867 815.516774 
L 4358.008584 787.310629 
L 4365.6103 741.789255 
L 4373.212017 644.441362 
L 4380.813734 655.570544 
L 4388.415451 622.886393 
L 4396.017167 524.329216 
L 4403.618884 592.952809 
L 4411.220601 632.299825 
L 4418.822318 578.297777 
L 4426.424034 716.336667 
L 4434.025751 640.290391 
L 4441.627468 610.987294 
L 4449.229185 671.472952 
L 4456.830901 653.974928 
L 4464.432618 647.30834 
L 4472.034335 707.332042 
L 4479.636052 571.066136 
L 4487.237768 556.262827 
L 4494.839485 509.358223 
L 4502.441202 504.52726 
L 4510.042918 625.555014 
L 4517.644635 642.424782 
L 4525.246352 663.369037 
L 4532.848069 687.512853 
L 4540.449785 642.492946 
L 4548.051502 660.688202 
L 4555.653219 617.901648 
L 4563.254936 689.437607 
L 4570.856652 632.221865 
L 4578.458369 636.385279 
L 4586.060086 622.705954 
L 4593.661803 706.361277 
L 4601.263519 613.005595 
L 4608.865236 833.713779 
L 4616.466953 804.40174 
L 4624.06867 732.426054 
L 4631.670386 767.959022 
L 4639.272103 628.29078 
L 4646.87382 669.72302 
L 4654.475536 772.245362 
L 4662.077253 586.974595 
L 4669.67897 688.88038 
L 4677.280687 614.001469 
L 4684.882403 686.458483 
L 4692.48412 889.677448 
L 4700.085837 678.331614 
L 4707.687554 734.022753 
L 4715.28927 719.033865 
L 4722.890987 722.720333 
L 4730.492704 744.242411 
L 4738.094421 845.514205 
L 4745.696137 856.821087 
L 4753.297854 841.778227 
L 4760.899571 798.709387 
L 4768.501288 875.796821 
L 4776.103004 711.128593 
L 4783.704721 755.377312 
L 4791.306438 723.420904 
L 4798.908155 756.029926 
L 4806.509871 619.063389 
L 4814.111588 643.296474 
L 4821.713305 705.187497 
L 4829.315021 675.130239 
L 4836.916738 726.352924 
L 4844.518455 726.492361 
L 4852.120172 749.496329 
L 4859.721888 766.364434 
L 4867.323605 711.963081 
L 4874.925322 786.320111 
L 4882.527039 754.68306 
L 4890.128755 762.682486 
L 4897.730472 737.205956 
L 4905.332189 763.399206 
L 4912.933906 820.354746 
L 4920.535622 728.726611 
L 4928.137339 736.439099 
L 4935.739056 777.770672 
L 4943.340773 747.105875 
L 4950.942489 541.409089 
L 4958.544206 657.154342 
L 4966.145923 665.214529 
L 4973.747639 553.792715 
L 4981.349356 651.915235 
L 4988.951073 656.402791 
L 4996.55279 600.916841 
L 5004.154506 557.279168 
L 5011.756223 615.728403 
L 5019.35794 624.241539 
L 5026.959657 727.079349 
L 5034.561373 742.035501 
L 5042.16309 670.760665 
L 5049.764807 772.972856 
L 5057.366524 660.722885 
L 5064.96824 722.4696 
L 5072.569957 673.239764 
L 5080.171674 858.527362 
L 5087.773391 785.43391 
L 5095.375107 814.259721 
L 5102.976824 744.96208 
L 5110.578541 694.151664 
L 5118.180258 716.227969 
L 5125.781974 722.307888 
L 5133.383691 765.563434 
L 5140.985408 727.291052 
L 5148.587124 734.596639 
L 5156.188841 735.586269 
L 5163.790558 792.263246 
L 5171.392275 859.275596 
L 5178.993991 612.577127 
L 5186.595708 767.887825 
L 5194.197425 677.295565 
L 5201.799142 674.824745 
L 5209.400858 706.041823 
L 5217.002575 706.142482 
L 5224.604292 701.370901 
L 5232.206009 711.686372 
L 5239.807725 698.104252 
L 5247.409442 708.702879 
L 5255.011159 729.869736 
L 5262.612876 695.756047 
L 5270.214592 677.134353 
L 5277.816309 755.281999 
L 5285.418026 700.195317 
L 5293.019742 667.196425 
L 5300.621459 703.885836 
L 5308.223176 599.896251 
L 5315.824893 621.074606 
L 5323.426609 648.071586 
L 5331.028326 608.395876 
L 5338.630043 639.114908 
L 5346.23176 626.520645 
L 5353.833476 583.690789 
L 5361.435193 555.224722 
L 5369.03691 547.090061 
L 5376.638627 567.561197 
L 5384.240343 548.598661 
L 5391.84206 556.686541 
L 5399.443777 545.497214 
L 5407.045494 534.653778 
L 5414.64721 865.984727 
L 5422.248927 569.076616 
L 5429.850644 646.463175 
L 5437.452361 514.617407 
L 5445.054077 603.72761 
L 5452.655794 501.57053 
L 5460.257511 749.569545 
L 5467.859227 651.988707 
L 5475.460944 662.808299 
L 5483.062661 640.706883 
L 5490.664378 726.277867 
L 5498.266094 645.294486 
L 5505.867811 737.437343 
L 5513.469528 837.488902 
L 5521.071245 649.544407 
L 5528.672961 834.90219 
L 5536.274678 719.036029 
L 5543.876395 785.797889 
L 5551.478112 800.227415 
L 5559.079828 693.293872 
L 5566.681545 645.945878 
L 5574.283262 635.373099 
L 5581.884979 658.789086 
L 5589.486695 698.996329 
L 5597.088412 742.582364 
L 5604.690129 604.636438 
L 5612.291845 679.070428 
L 5619.893562 722.355638 
L 5627.495279 690.926228 
L 5635.096996 694.944262 
L 5642.698712 625.613436 
L 5650.300429 698.635621 
L 5657.902146 651.016204 
L 5665.503863 691.337158 
L 5673.105579 654.06457 
L 5680.707296 736.459132 
L 5688.309013 721.91945 
L 5695.91073 693.674917 
L 5703.512446 590.76972 
L 5711.114163 582.956382 
L 5718.71588 535.325377 
L 5726.317597 584.775752 
L 5733.919313 472.712106 
L 5741.52103 544.066779 
L 5749.122747 550.216073 
L 5756.724464 618.932157 
L 5764.32618 559.364302 
L 5771.927897 622.44125 
L 5779.529614 606.21821 
L 5787.13133 546.457032 
L 5794.733047 589.917101 
L 5802.334764 732.348664 
L 5809.936481 965.515501 
L 5817.538197 677.737352 
L 5825.139914 673.102725 
L 5832.741631 702.066159 
L 5840.343348 631.105751 
L 5847.945064 591.810893 
L 5855.546781 608.473986 
L 5863.148498 613.401088 
L 5870.750215 703.460621 
L 5878.351931 628.109119 
L 5885.953648 602.285944 
L 5893.555365 557.185946 
L 5901.157082 600.826605 
L 5908.758798 592.079116 
L 5916.360515 559.175016 
L 5923.962232 646.203443 
L 5931.563948 478.453153 
L 5939.165665 826.513208 
L 5946.767382 867.058794 
L 5954.369099 671.173297 
L 5961.970815 708.371859 
L 5969.572532 634.322157 
L 5977.174249 609.244983 
L 5984.775966 745.519481 
L 5992.377682 808.302944 
L 5999.979399 588.439228 
L 6007.581116 750.724089 
L 6015.182833 773.643731 
L 6022.784549 654.039608 
L 6030.386266 660.01675 
L 6037.987983 661.38586 
L 6045.5897 629.62591 
L 6053.191416 707.653654 
L 6060.793133 691.077511 
L 6068.39485 690.455841 
L 6075.996567 617.910775 
L 6083.598283 620.347577 
L 6091.2 604.996831 
L 6091.2 604.996831 
" style="fill:none;stroke:#000004;stroke-width:3;"/>
   </g>
   <g id="line2d_34">
    <path clip-path="url(#pe1466c3bb6)" d="M 777.6 745.350744 
L 785.201717 750.831907 
L 792.803433 753.809393 
L 800.40515 757.795164 
L 808.006867 755.02662 
L 815.608584 756.508954 
L 823.2103 752.131844 
L 830.812017 768.230196 
L 838.413734 762.134556 
L 846.015451 755.378412 
L 853.617167 749.415506 
L 861.218884 712.857942 
L 868.820601 684.328221 
L 876.422318 684.626273 
L 884.024034 699.031062 
L 891.625751 716.492356 
L 899.227468 706.166028 
L 906.829185 629.90283 
L 914.430901 638.246434 
L 922.032618 680.609106 
L 929.634335 636.430196 
L 937.236052 640.815025 
L 944.837768 634.316371 
L 952.439485 818.787504 
L 960.041202 819.152276 
L 967.642918 823.532787 
L 975.244635 825.650889 
L 982.846352 819.511213 
L 990.448069 812.430767 
L 998.049785 756.665079 
L 1005.651502 775.752514 
L 1013.253219 762.464747 
L 1020.854936 784.686488 
L 1028.456652 769.072253 
L 1036.058369 804.181351 
L 1043.660086 785.527213 
L 1051.261803 800.275461 
L 1058.863519 860.83904 
L 1066.465236 851.040554 
L 1074.066953 869.253312 
L 1081.66867 875.471522 
L 1089.270386 846.220945 
L 1096.872103 844.792409 
L 1104.47382 857.644986 
L 1112.075536 835.964261 
L 1119.677253 807.458851 
L 1127.27897 800.051888 
L 1134.880687 777.285872 
L 1142.482403 771.359543 
L 1150.08412 719.841925 
L 1157.685837 738.192241 
L 1165.287554 731.399265 
L 1172.88927 685.313774 
L 1180.490987 604.815463 
L 1188.092704 605.622399 
L 1195.694421 606.023084 
L 1203.296137 607.764992 
L 1210.897854 605.818817 
L 1218.499571 589.676109 
L 1226.101288 574.850468 
L 1233.703004 584.903753 
L 1241.304721 601.822609 
L 1248.906438 599.137319 
L 1256.508155 570.351253 
L 1264.109871 593.630146 
L 1271.711588 588.271879 
L 1279.313305 569.786307 
L 1286.915021 595.112207 
L 1294.516738 582.905433 
L 1302.118455 698.333666 
L 1309.720172 799.747636 
L 1317.321888 638.205671 
L 1324.923605 774.39411 
L 1332.525322 840.208444 
L 1340.127039 648.688476 
L 1347.728755 591.897488 
L 1355.330472 761.132842 
L 1362.932189 465.702637 
L 1370.533906 480.840865 
L 1378.135622 496.776034 
L 1385.737339 835.043095 
L 1393.339056 459.321798 
L 1400.940773 770.077363 
L 1408.542489 760.629972 
L 1416.144206 813.000919 
L 1423.745923 619.856841 
L 1431.347639 556.873818 
L 1438.949356 537.241787 
L 1446.551073 519.122592 
L 1454.15279 557.151065 
L 1461.754506 517.689452 
L 1469.356223 549.110022 
L 1476.95794 697.763584 
L 1484.559657 697.090257 
L 1492.161373 701.882663 
L 1499.76309 701.900051 
L 1507.364807 748.584181 
L 1514.966524 632.755346 
L 1522.56824 701.902475 
L 1530.169957 687.49568 
L 1537.771674 716.881802 
L 1545.373391 717.992731 
L 1552.975107 779.5294 
L 1560.576824 734.323255 
L 1568.178541 797.367651 
L 1575.780258 731.678012 
L 1583.381974 780.297793 
L 1590.983691 708.400977 
L 1598.585408 722.245392 
L 1606.187124 869.351521 
L 1613.788841 795.462963 
L 1621.390558 867.48968 
L 1628.992275 798.429243 
L 1636.593991 799.046683 
L 1644.195708 803.58912 
L 1651.797425 797.870855 
L 1659.399142 790.339451 
L 1667.000858 784.253437 
L 1674.602575 779.484954 
L 1682.204292 774.181597 
L 1689.806009 773.356967 
L 1697.407725 774.440208 
L 1712.611159 763.28025 
L 1720.212876 736.221193 
L 1735.416309 720.941658 
L 1743.018026 704.870123 
L 1750.619742 676.139485 
L 1758.221459 671.192173 
L 1765.823176 667.050921 
L 1773.424893 903.754042 
L 1781.026609 881.37263 
L 1788.628326 877.719476 
L 1796.230043 889.182306 
L 1803.83176 1021.083097 
L 1811.433476 975.974847 
L 1819.035193 635.427949 
L 1826.63691 826.870124 
L 1834.238627 657.311732 
L 1841.840343 826.415969 
L 1849.44206 795.404992 
L 1857.043777 789.581626 
L 1864.645494 784.034011 
L 1872.24721 931.528317 
L 1879.848927 787.624759 
L 1887.450644 787.982816 
L 1895.052361 1028.775736 
L 1902.654077 856.506198 
L 1910.255794 953.378654 
L 1917.857511 925.95408 
L 1925.459227 797.640738 
L 1933.060944 593.491632 
L 1940.662661 687.113196 
L 1948.264378 916.589951 
L 1955.866094 772.015136 
L 1963.467811 770.455388 
L 1971.069528 862.157453 
L 1978.671245 850.378533 
L 1986.272961 723.204409 
L 1993.874678 821.414781 
L 2001.476395 712.753735 
L 2009.078112 827.350251 
L 2016.679828 721.107062 
L 2024.281545 720.198653 
L 2031.883262 724.526022 
L 2039.484979 727.480979 
L 2047.086695 930.996749 
L 2054.688412 735.150597 
L 2062.290129 930.810251 
L 2069.891845 916.144964 
L 2077.493562 898.891409 
L 2085.095279 886.642253 
L 2092.696996 960.336831 
L 2100.298712 931.785398 
L 2107.900429 829.431162 
L 2115.502146 826.816401 
L 2123.103863 819.121862 
L 2130.705579 885.025278 
L 2138.307296 801.387845 
L 2145.909013 799.063269 
L 2153.51073 790.483799 
L 2161.112446 861.776368 
L 2168.714163 776.423102 
L 2176.31588 850.288057 
L 2183.917597 761.919017 
L 2191.519313 843.208061 
L 2199.12103 834.069834 
L 2206.722747 737.871051 
L 2214.324464 832.725789 
L 2221.92618 838.773827 
L 2229.527897 1058.56642 
L 2237.129614 934.623862 
L 2244.73133 852.079397 
L 2252.333047 853.80144 
L 2259.934764 847.161921 
L 2267.536481 848.895249 
L 2275.138197 897.746159 
L 2282.739914 798.223767 
L 2290.341631 715.002922 
L 2297.943348 838.898925 
L 2305.545064 874.241056 
L 2313.146781 857.489858 
L 2320.748498 757.78909 
L 2328.350215 783.322318 
L 2335.951931 793.728768 
L 2343.553648 670.153293 
L 2351.155365 768.172143 
L 2358.757082 763.253294 
L 2366.358798 806.212208 
L 2373.960515 903.738111 
L 2381.562232 890.837687 
L 2389.163948 774.548992 
L 2396.765665 615.491666 
L 2404.367382 723.543443 
L 2411.969099 881.650888 
L 2419.570815 867.781314 
L 2427.172532 858.002421 
L 2434.774249 728.665018 
L 2442.375966 725.077436 
L 2449.977682 715.537334 
L 2457.579399 721.626877 
L 2465.181116 722.594463 
L 2472.782833 710.958612 
L 2480.384549 704.913266 
L 2487.986266 509.979733 
L 2495.587983 671.498848 
L 2503.1897 541.107317 
L 2510.791416 671.706761 
L 2518.393133 514.068542 
L 2525.99485 669.981336 
L 2533.596567 675.809195 
L 2541.198283 700.518009 
L 2548.8 692.238365 
L 2556.401717 693.79948 
L 2564.003433 671.859285 
L 2571.60515 516.665665 
L 2579.206867 526.458754 
L 2586.808584 595.544685 
L 2594.4103 627.10821 
L 2602.012017 921.589295 
L 2609.613734 918.036235 
L 2617.215451 548.970428 
L 2624.817167 701.490805 
L 2632.418884 894.831183 
L 2640.020601 893.973181 
L 2647.622318 748.858074 
L 2655.224034 756.971346 
L 2662.825751 755.724807 
L 2670.427468 571.035723 
L 2678.029185 585.46874 
L 2685.630901 734.481126 
L 2693.232618 609.001968 
L 2700.834335 615.01863 
L 2708.436052 619.268585 
L 2716.037768 615.276066 
L 2723.639485 614.185522 
L 2731.241202 598.26879 
L 2738.842918 609.795324 
L 2746.444635 607.829235 
L 2754.046352 604.137681 
L 2761.648069 697.425768 
L 2769.249785 689.296725 
L 2776.851502 742.804106 
L 2784.453219 733.10165 
L 2792.054936 634.992164 
L 2799.656652 627.221393 
L 2807.258369 623.933298 
L 2814.860086 622.340534 
L 2822.461803 626.550491 
L 2830.063519 708.86276 
L 2837.665236 754.121788 
L 2845.266953 756.209975 
L 2852.86867 755.70988 
L 2860.470386 776.735231 
L 2868.072103 808.068919 
L 2875.67382 814.178837 
L 2883.275536 1081.853764 
L 2890.877253 823.245867 
L 2898.47897 1017.216064 
L 2906.080687 779.048794 
L 2913.682403 812.213827 
L 2921.28412 808.481948 
L 2928.885837 921.757157 
L 2936.487554 774.953605 
L 2944.08927 780.503098 
L 2951.690987 774.410198 
L 2959.292704 766.441855 
L 2966.894421 760.594394 
L 2974.496137 750.555141 
L 2982.097854 704.378606 
L 2989.699571 701.647201 
L 2997.301288 522.674668 
L 3004.903004 529.911911 
L 3012.504721 536.098928 
L 3020.106438 512.935671 
L 3027.708155 518.307574 
L 3035.309871 698.295857 
L 3042.911588 701.359096 
L 3050.513305 494.554313 
L 3058.115021 406.481778 
L 3065.716738 517.371161 
L 3073.318455 535.852969 
L 3080.920172 592.309417 
L 3088.521888 715.747821 
L 3096.123605 561.932746 
L 3103.725322 723.226266 
L 3111.327039 727.352767 
L 3118.928755 729.868366 
L 3126.530472 561.711325 
L 3134.132189 741.178923 
L 3141.733906 566.970455 
L 3149.335622 628.954434 
L 3156.937339 450.904534 
L 3164.539056 534.460325 
L 3172.140773 337.414572 
L 3179.742489 346.092059 
L 3187.344206 400.914427 
L 3194.945923 466.661635 
L 3202.547639 487.124383 
L 3210.149356 502.798304 
L 3217.751073 476.321784 
L 3225.35279 518.285536 
L 3232.954506 542.183952 
L 3240.556223 558.757273 
L 3248.15794 562.777098 
L 3255.759657 571.021486 
L 3263.361373 575.978024 
L 3270.96309 586.860141 
L 3278.564807 591.744471 
L 3286.166524 601.706768 
L 3293.76824 573.096413 
L 3301.369957 644.710944 
L 3308.971674 639.263758 
L 3316.573391 643.282353 
L 3324.175107 594.305851 
L 3331.776824 658.252776 
L 3339.378541 592.849128 
L 3346.980258 655.572464 
L 3354.581974 738.42174 
L 3362.183691 593.63305 
L 3369.785408 640.194351 
L 3377.387124 944.861896 
L 3384.988841 696.364896 
L 3392.590558 559.496285 
L 3400.192275 574.300441 
L 3407.793991 570.962257 
L 3415.395708 569.109625 
L 3422.997425 576.01986 
L 3430.599142 592.268982 
L 3438.200858 597.633398 
L 3445.802575 589.948082 
L 3453.404292 587.202833 
L 3461.006009 918.050923 
L 3468.607725 601.634785 
L 3476.209442 895.100014 
L 3483.811159 884.519929 
L 3491.412876 971.950909 
L 3499.014592 848.408331 
L 3506.616309 1063.086266 
L 3514.218026 1002.547567 
L 3521.819742 968.614297 
L 3529.421459 931.290228 
L 3537.023176 909.815607 
L 3544.624893 907.156072 
L 3552.226609 888.808858 
L 3559.828326 869.282796 
L 3567.430043 905.994249 
L 3575.03176 889.399614 
L 3582.633476 891.507468 
L 3590.235193 875.209249 
L 3597.83691 860.799663 
L 3605.438627 851.738167 
L 3613.040343 825.162291 
L 3620.64206 832.701892 
L 3628.243777 808.890167 
L 3635.845494 815.637021 
L 3643.44721 826.898078 
L 3651.048927 821.427665 
L 3666.252361 808.200964 
L 3673.854077 807.954089 
L 3689.057511 795.522698 
L 3696.659227 798.333262 
L 3704.260944 813.77391 
L 3711.862661 790.042837 
L 3719.464378 792.332743 
L 3727.066094 906.450098 
L 3734.667811 891.946634 
L 3742.269528 875.415818 
L 3749.871245 660.10217 
L 3757.472961 879.410995 
L 3765.074678 873.459908 
L 3772.676395 860.642677 
L 3780.278112 591.335192 
L 3787.879828 559.408679 
L 3795.481545 565.053908 
L 3803.083262 563.483756 
L 3810.684979 563.742326 
L 3818.286695 571.143878 
L 3825.888412 878.904799 
L 3833.490129 560.597363 
L 3841.091845 563.679955 
L 3848.693562 571.030244 
L 3856.295279 560.494796 
L 3863.896996 558.03213 
L 3871.498712 376.216719 
L 3879.100429 427.858286 
L 3886.702146 602.744785 
L 3894.303863 521.929399 
L 3901.905579 562.187627 
L 3909.507296 577.298624 
L 3917.109013 554.457045 
L 3924.71073 501.328547 
L 3932.312446 510.537015 
L 3939.914163 522.634732 
L 3947.51588 514.262009 
L 3955.117597 476.146626 
L 3962.719313 568.110459 
L 3970.32103 589.157978 
L 3977.922747 595.176245 
L 3985.524464 722.016633 
L 3993.12618 737.674203 
L 4000.727897 748.599641 
L 4008.329614 752.851448 
L 4015.93133 753.866211 
L 4023.533047 752.386555 
L 4031.134764 753.816321 
L 4038.736481 752.318848 
L 4046.338197 753.90735 
L 4053.939914 776.828699 
L 4061.541631 737.585083 
L 4069.143348 748.016929 
L 4076.745064 772.847772 
L 4084.346781 753.814565 
L 4091.948498 756.695404 
L 4099.550215 743.670422 
L 4107.151931 780.251128 
L 4114.753648 788.401119 
L 4122.355365 431.230285 
L 4129.957082 1115.717162 
L 4137.558798 1136.945455 
L 4145.160515 945.480169 
L 4152.762232 892.804978 
L 4160.363948 1033.360999 
L 4167.965665 919.932315 
L 4175.567382 901.123978 
L 4183.169099 946.650367 
L 4190.770815 921.568486 
L 4198.372532 902.160335 
L 4205.974249 884.336368 
L 4213.575966 870.172387 
L 4221.177682 839.54757 
L 4228.779399 847.993116 
L 4236.381116 837.388944 
L 4243.982833 827.807151 
L 4251.584549 801.083538 
L 4259.186266 809.651777 
L 4266.787983 784.765924 
L 4274.3897 795.341617 
L 4281.991416 774.246407 
L 4289.593133 765.448748 
L 4297.19485 766.341918 
L 4304.796567 705.598995 
L 4312.398283 770.645917 
L 4320 689.615256 
L 4327.601717 677.907587 
L 4335.203433 672.645972 
L 4342.80515 758.398414 
L 4350.406867 782.885994 
L 4358.008584 775.255807 
L 4365.6103 777.633586 
L 4373.212017 770.235805 
L 4380.813734 492.250491 
L 4388.415451 501.595219 
L 4396.017167 259.854545 
L 4403.618884 555.751713 
L 4411.220601 562.066929 
L 4418.822318 357.028759 
L 4426.424034 607.358385 
L 4434.025751 617.795248 
L 4441.627468 623.13889 
L 4449.229185 627.39138 
L 4456.830901 627.730103 
L 4464.432618 769.301742 
L 4472.034335 638.758481 
L 4479.636052 419.195718 
L 4487.237768 450.94678 
L 4494.839485 452.729185 
L 4502.441202 475.291303 
L 4510.042918 476.972985 
L 4517.644635 505.137622 
L 4525.246352 516.347115 
L 4532.848069 681.051403 
L 4540.449785 523.442645 
L 4548.051502 825.704188 
L 4555.653219 540.388786 
L 4563.254936 556.554407 
L 4570.856652 563.473864 
L 4578.458369 843.770097 
L 4586.060086 562.910844 
L 4593.661803 571.636739 
L 4601.263519 577.953609 
L 4608.865236 880.498902 
L 4616.466953 757.892471 
L 4624.06867 753.389533 
L 4631.670386 710.73051 
L 4639.272103 586.224748 
L 4646.87382 586.599993 
L 4654.475536 590.252935 
L 4662.077253 721.700149 
L 4669.67897 661.155223 
L 4677.280687 605.014558 
L 4684.882403 609.437814 
L 4692.48412 659.904704 
L 4700.085837 663.443619 
L 4707.687554 663.29758 
L 4715.28927 669.122868 
L 4722.890987 691.602764 
L 4730.492704 671.710006 
L 4738.094421 815.492468 
L 4745.696137 807.758635 
L 4753.297854 817.321696 
L 4760.899571 811.516884 
L 4768.501288 916.219755 
L 4776.103004 915.237694 
L 4783.704721 900.372971 
L 4791.306438 777.263103 
L 4798.908155 878.8255 
L 4806.509871 767.818896 
L 4814.111588 760.378623 
L 4821.713305 756.648055 
L 4829.315021 751.077534 
L 4836.916738 755.903094 
L 4859.721888 754.392464 
L 4867.323605 748.745981 
L 4874.925322 740.943495 
L 4882.527039 737.126981 
L 4897.730472 727.393687 
L 4905.332189 723.148063 
L 4912.933906 715.923134 
L 4920.535622 706.527611 
L 4928.137339 698.867824 
L 4935.739056 689.896935 
L 4943.340773 654.288771 
L 4950.942489 641.045996 
L 4958.544206 439.264633 
L 4966.145923 459.270836 
L 4973.747639 482.480684 
L 4981.349356 639.954414 
L 4988.951073 508.284703 
L 4996.55279 508.549421 
L 5004.154506 464.449751 
L 5011.756223 525.277393 
L 5019.35794 484.919699 
L 5026.959657 712.842462 
L 5034.561373 603.972627 
L 5042.16309 1030.072808 
L 5049.764807 984.019743 
L 5057.366524 625.524908 
L 5064.96824 961.246943 
L 5072.569957 725.533674 
L 5080.171674 728.903699 
L 5087.773391 673.606909 
L 5095.375107 935.725609 
L 5102.976824 908.488067 
L 5110.578541 893.649877 
L 5118.180258 866.832099 
L 5125.781974 658.608356 
L 5133.383691 665.260872 
L 5140.985408 666.60686 
L 5148.587124 665.311095 
L 5156.188841 666.654641 
L 5163.790558 660.359244 
L 5171.392275 877.049366 
L 5178.993991 857.259734 
L 5186.595708 649.909456 
L 5194.197425 848.305709 
L 5201.799142 831.381498 
L 5209.400858 573.075113 
L 5217.002575 576.85816 
L 5224.604292 595.95563 
L 5232.206009 538.025449 
L 5239.807725 537.376038 
L 5247.409442 538.142895 
L 5255.011159 594.942808 
L 5262.612876 545.578058 
L 5270.214592 555.098094 
L 5277.816309 565.938443 
L 5285.418026 612.300215 
L 5293.019742 567.193666 
L 5300.621459 619.728614 
L 5308.223176 620.869178 
L 5315.824893 622.98851 
L 5323.426609 628.876105 
L 5331.028326 639.836144 
L 5338.630043 574.366692 
L 5346.23176 574.193146 
L 5353.833476 578.146761 
L 5361.435193 587.380314 
L 5369.03691 596.018876 
L 5376.638627 596.213654 
L 5384.240343 599.142463 
L 5391.84206 614.786757 
L 5399.443777 607.308624 
L 5407.045494 609.106175 
L 5414.64721 725.348258 
L 5422.248927 615.043298 
L 5429.850644 572.608129 
L 5437.452361 572.025844 
L 5445.054077 571.588496 
L 5452.655794 544.274646 
L 5460.257511 577.986113 
L 5467.859227 567.295277 
L 5475.460944 905.82845 
L 5483.062661 902.415531 
L 5490.664378 553.355161 
L 5498.266094 561.506969 
L 5505.867811 1123.679725 
L 5513.469528 1047.244209 
L 5521.071245 588.908856 
L 5528.672961 991.687434 
L 5536.274678 948.072919 
L 5543.876395 762.771165 
L 5551.478112 761.523443 
L 5559.079828 753.617451 
L 5566.681545 536.250668 
L 5574.283262 906.215725 
L 5581.884979 1012.928023 
L 5589.486695 858.924447 
L 5597.088412 950.854272 
L 5604.690129 819.969548 
L 5612.291845 809.526393 
L 5619.893562 804.506261 
L 5627.495279 896.087335 
L 5635.096996 881.672489 
L 5642.698712 863.2727 
L 5650.300429 754.404152 
L 5657.902146 837.735735 
L 5665.503863 744.015235 
L 5673.105579 819.066897 
L 5680.707296 731.788951 
L 5688.309013 494.826108 
L 5695.91073 358.126244 
L 5703.512446 400.354058 
L 5711.114163 456.998699 
L 5718.71588 476.238181 
L 5726.317597 487.377447 
L 5733.919313 482.845182 
L 5741.52103 508.132935 
L 5749.122747 509.593757 
L 5756.724464 551.089418 
L 5764.32618 539.028605 
L 5771.927897 551.090703 
L 5779.529614 554.412272 
L 5787.13133 560.741985 
L 5794.733047 531.760184 
L 5802.334764 711.398799 
L 5809.936481 737.508875 
L 5817.538197 742.150149 
L 5825.139914 634.105395 
L 5832.741631 639.140266 
L 5840.343348 641.786032 
L 5847.945064 645.686614 
L 5855.546781 549.946887 
L 5863.148498 559.322179 
L 5870.750215 676.889861 
L 5878.351931 678.815644 
L 5885.953648 571.282966 
L 5893.555365 495.004778 
L 5901.157082 499.50223 
L 5908.758798 585.660752 
L 5916.360515 592.594486 
L 5923.962232 532.839661 
L 5931.563948 575.585544 
L 5939.165665 765.731959 
L 5954.369099 761.315159 
L 5961.970815 756.069371 
L 5969.572532 638.780308 
L 5977.174249 645.454721 
L 5984.775966 750.318852 
L 5992.377682 749.467039 
L 5999.979399 575.245694 
L 6007.581116 743.469089 
L 6015.182833 579.694137 
L 6022.784549 579.359711 
L 6030.386266 576.188884 
L 6037.987983 589.546619 
L 6045.5897 807.133155 
L 6053.191416 586.060439 
L 6060.793133 593.062536 
L 6068.39485 599.728833 
L 6075.996567 834.839218 
L 6083.598283 603.631895 
L 6091.2 621.721564 
L 6091.2 621.721564 
" style="fill:none;stroke:#b73779;stroke-width:3;"/>
   </g>
   <g id="line2d_35">
    <path clip-path="url(#pe1466c3bb6)" d="M 777.6 693.855439 
L 6091.2 693.855439 
" style="fill:none;opacity:0.7;stroke:#000000;stroke-width:1.3;"/>
   </g>
   <g id="patch_3">
    <path d="M 777.6 1180.8 
L 777.6 216 
" style="fill:none;stroke:#000000;stroke-linecap:square;stroke-linejoin:miter;stroke-width:0.8;"/>
   </g>
   <g id="patch_4">
    <path d="M 6091.2 1180.8 
L 6091.2 216 
" style="fill:none;stroke:#000000;stroke-linecap:square;stroke-linejoin:miter;stroke-width:0.8;"/>
   </g>
   <g id="patch_5">
    <path d="M 777.6 1180.8 
L 6091.2 1180.8 
" style="fill:none;stroke:#000000;stroke-linecap:square;stroke-linejoin:miter;stroke-width:0.8;"/>
   </g>
   <g id="patch_6">
    <path d="M 777.6 216 
L 6091.2 216 
" style="fill:none;stroke:#000000;stroke-linecap:square;stroke-linejoin:miter;stroke-width:0.8;"/>
   </g>
   <g id="patch_7">
    <path d="M 0 1440 
L 6480 1440 
L 6480 1416.729153 
L 0 1416.729153 
z
" style="fill:#808080;"/>
   </g>
   <g id="text_19">
    <!-- ©spred -->
    <defs>
     <path d="M 50.90625 25.90625 
L 50.90625 44 
Q 50.90625 52.40625 44.75 58.40625 
Q 38.59375 64.40625 30 64.40625 
Q 21.296875 64.40625 15.09375 58.40625 
Q 8.90625 52.40625 8.90625 44 
L 8.90625 25.90625 
Q 8.90625 17.5 15.09375 11.453125 
Q 21.296875 5.40625 30 5.40625 
Q 38.59375 5.40625 44.75 11.453125 
Q 50.90625 17.5 50.90625 25.90625 
z
M 57.703125 43.203125 
L 57.703125 26.59375 
Q 57.703125 15.203125 49.59375 7.09375 
Q 41.5 -1 30 -1 
Q 18.40625 -1 10.296875 7.09375 
Q 2.203125 15.203125 2.203125 26.59375 
L 2.203125 43.203125 
Q 2.203125 54.59375 10.296875 62.6875 
Q 18.40625 70.796875 30 70.796875 
Q 41.5 70.796875 49.59375 62.6875 
Q 57.703125 54.59375 57.703125 43.203125 
z
M 38.59375 29.40625 
L 41.40625 29.40625 
Q 42.40625 29.40625 42.90625 28.84375 
Q 43.40625 28.296875 43.40625 27.59375 
Q 43.40625 21.59375 39.796875 17.9375 
Q 36.203125 14.296875 30.40625 14.296875 
Q 24.40625 14.296875 20.75 17.9375 
Q 17.09375 21.59375 17.09375 27.09375 
L 17.09375 43.40625 
Q 17.09375 48.703125 20.75 52.390625 
Q 24.40625 56.09375 30.40625 56.09375 
Q 35.90625 56.09375 39.40625 52.25 
Q 42.90625 48.40625 42.90625 42.296875 
Q 42.90625 41.59375 42.40625 41.046875 
Q 41.90625 40.5 40.90625 40.5 
L 38.09375 40.5 
Q 37.09375 40.5 36.546875 41.046875 
Q 36 41.59375 36 42.296875 
Q 36 45.203125 34.390625 47.046875 
Q 32.796875 48.90625 30.40625 48.90625 
Q 27.703125 48.90625 25.796875 46.90625 
Q 23.90625 44.90625 23.90625 42.203125 
L 23.90625 28.203125 
Q 23.90625 25.59375 25.796875 23.59375 
Q 27.703125 21.59375 30.40625 21.59375 
Q 32.90625 21.59375 34.703125 23.1875 
Q 36.5 24.796875 36.5 27.59375 
Q 36.5 28.296875 37.046875 28.84375 
Q 37.59375 29.40625 38.59375 29.40625 
z
" id="DecimaMonoPro-a9"/>
     <path d="M 30.09375 -1 
Q 25.296875 -1 21.546875 0.59375 
Q 17.796875 2.203125 15.84375 4.59375 
Q 13.90625 7 12.953125 9.390625 
Q 12 11.796875 12 14 
Q 12 14.796875 12.5 15.296875 
Q 13 15.796875 13.796875 15.796875 
L 18.296875 15.796875 
Q 19.90625 15.796875 20.09375 14.09375 
Q 20.40625 11.203125 22.796875 8.703125 
Q 25.203125 6.203125 30.09375 6.203125 
Q 34.296875 6.203125 36.890625 8.296875 
Q 39.5 10.40625 39.5 13.59375 
Q 39.5 16.5 36.84375 18.5 
Q 34.203125 20.5 30.390625 21.84375 
Q 26.59375 23.203125 22.84375 24.796875 
Q 19.09375 26.40625 16.4375 29.5 
Q 13.796875 32.59375 13.796875 37.09375 
Q 13.796875 43.296875 18.4375 47.140625 
Q 23.09375 51 30.703125 51 
Q 38.90625 51 43.25 46.5 
Q 47.59375 42 47.59375 37.5 
Q 47.59375 36.796875 47.09375 36.25 
Q 46.59375 35.703125 45.796875 35.703125 
L 41.203125 35.703125 
Q 39.703125 35.703125 39.40625 37.40625 
Q 38.90625 40 36.75 41.890625 
Q 34.59375 43.796875 30.703125 43.796875 
Q 26.90625 43.796875 24.546875 42.09375 
Q 22.203125 40.40625 22.203125 37.703125 
Q 22.203125 35 24.84375 33.09375 
Q 27.5 31.203125 31.25 29.890625 
Q 35 28.59375 38.703125 26.9375 
Q 42.40625 25.296875 45.046875 21.84375 
Q 47.703125 18.40625 47.703125 13.40625 
Q 47.703125 7.40625 42.59375 3.203125 
Q 37.5 -1 30.09375 -1 
z
" id="DecimaMonoPro-73"/>
     <path d="M 42.09375 17.09375 
L 42.09375 33.09375 
Q 42.09375 37.703125 38.84375 40.796875 
Q 35.59375 43.90625 30.5 43.90625 
Q 25.40625 43.90625 22.046875 40.75 
Q 18.703125 37.59375 18.703125 33 
L 18.703125 17.09375 
Q 18.703125 12.5 22.046875 9.390625 
Q 25.40625 6.296875 30.5 6.296875 
Q 35.59375 6.296875 38.84375 9.390625 
Q 42.09375 12.5 42.09375 17.09375 
z
M 18.703125 3.703125 
L 18.796875 -16.203125 
Q 18.796875 -18 16.5 -18 
L 13 -18 
Q 10.703125 -18 10.703125 -16.203125 
L 10.703125 48.203125 
Q 10.703125 50 13 50 
L 15.90625 50 
Q 18.203125 50 18.203125 48.203125 
L 18.203125 45.90625 
Q 18.59375 46.5 19.5 47.34375 
Q 20.40625 48.203125 23.75 49.59375 
Q 27.09375 51 31.296875 51 
Q 39.296875 51 44.796875 45.640625 
Q 50.296875 40.296875 50.296875 32.59375 
L 50.296875 17.40625 
Q 50.296875 9.796875 44.75 4.390625 
Q 39.203125 -1 31.296875 -1 
Q 27.40625 -1 24.25 0.203125 
Q 21.09375 1.40625 19.90625 2.59375 
z
" id="DecimaMonoPro-70"/>
     <path d="M 37.203125 51 
Q 44.09375 51 48.140625 46.453125 
Q 52.203125 41.90625 52.203125 37.5 
Q 52.203125 35.703125 50.5 35.703125 
L 45.90625 35.703125 
Q 44.296875 35.703125 44.09375 37.40625 
Q 43.796875 39.796875 41.75 41.796875 
Q 39.703125 43.796875 36.59375 43.796875 
Q 32.40625 43.796875 29.203125 40.796875 
Q 26 37.796875 26 34 
L 26 7.203125 
L 45.09375 7.203125 
Q 45.796875 7.203125 46.34375 6.703125 
Q 46.90625 6.203125 46.90625 5.40625 
L 46.90625 1.796875 
Q 46.90625 1 46.34375 0.5 
Q 45.796875 0 45.09375 0 
L 9.296875 0 
Q 8.59375 0 8.046875 0.5 
Q 7.5 1 7.5 1.796875 
L 7.5 5.40625 
Q 7.5 6.203125 8.046875 6.703125 
Q 8.59375 7.203125 9.296875 7.203125 
L 18 7.203125 
L 18 48.203125 
Q 18 50 20.296875 50 
L 23.5 50 
Q 25.796875 50 25.796875 48.203125 
L 25.796875 45.703125 
Q 29.796875 51 37.203125 51 
z
" id="DecimaMonoPro-72"/>
     <path d="M 48.796875 13.5 
Q 48.796875 9.09375 43.75 4.046875 
Q 38.703125 -1 30.203125 -1 
Q 21.203125 -1 15.75 4.453125 
Q 10.296875 9.90625 10.296875 17.5 
L 10.296875 32.703125 
Q 10.296875 40.203125 15.75 45.59375 
Q 21.203125 51 30.203125 51 
Q 39.203125 51 44.453125 45.59375 
Q 49.703125 40.203125 49.703125 32.703125 
L 49.703125 24.796875 
Q 49.703125 23.796875 49.046875 23.140625 
Q 48.40625 22.5 47.40625 22.5 
L 18.40625 22.5 
L 18.40625 17 
Q 18.40625 12.5 21.65625 9.296875 
Q 24.90625 6.09375 30.203125 6.09375 
Q 38.5 6.09375 40.59375 13.59375 
Q 41.09375 15.296875 42.40625 15.296875 
L 47 15.296875 
Q 47.796875 15.296875 48.296875 14.75 
Q 48.796875 14.203125 48.796875 13.5 
z
M 18.40625 33 
L 18.40625 29.703125 
L 41.796875 29.703125 
L 41.796875 33 
Q 41.796875 37.5 38.640625 40.640625 
Q 35.5 43.796875 30.203125 43.796875 
Q 24.90625 43.796875 21.65625 40.640625 
Q 18.40625 37.5 18.40625 33 
z
" id="DecimaMonoPro-65"/>
     <path d="M 17.90625 32.90625 
L 17.90625 16.90625 
Q 17.90625 12.296875 21.15625 9.1875 
Q 24.40625 6.09375 29.5 6.09375 
Q 34.59375 6.09375 37.9375 9.25 
Q 41.296875 12.40625 41.296875 17 
L 41.296875 32.90625 
Q 41.296875 37.5 37.9375 40.59375 
Q 34.59375 43.703125 29.5 43.703125 
Q 24.40625 43.703125 21.15625 40.59375 
Q 17.90625 37.5 17.90625 32.90625 
z
M 41.296875 46.296875 
L 41.203125 68.203125 
Q 41.203125 70 43.5 70 
L 47 70 
Q 49.296875 70 49.296875 68.203125 
L 49.296875 1.796875 
Q 49.296875 0 47 0 
L 44.09375 0 
Q 41.796875 0 41.796875 1.796875 
L 41.796875 4.09375 
Q 41.40625 3.5 40.5 2.640625 
Q 39.59375 1.796875 36.25 0.390625 
Q 32.90625 -1 28.703125 -1 
Q 20.703125 -1 15.203125 4.34375 
Q 9.703125 9.703125 9.703125 17.40625 
L 9.703125 32.59375 
Q 9.703125 40.203125 15.25 45.59375 
Q 20.796875 51 28.703125 51 
Q 32.59375 51 35.75 49.796875 
Q 38.90625 48.59375 40.09375 47.40625 
z
" id="DecimaMonoPro-64"/>
    </defs>
    <g style="fill:#ffffff;" transform="translate(64.8 1432.8)scale(0.14 -0.14)">
     <use xlink:href="#DecimaMonoPro-a9"/>
     <use x="59.999985" xlink:href="#DecimaMonoPro-73"/>
     <use x="119.999969" xlink:href="#DecimaMonoPro-70"/>
     <use x="179.999954" xlink:href="#DecimaMonoPro-72"/>
     <use x="239.999939" xlink:href="#DecimaMonoPro-65"/>
     <use x="299.999924" xlink:href="#DecimaMonoPro-64"/>
    </g>
   </g>
   <g id="text_20">
    <!-- IOTABTC_drop -->
    <defs>
     <path d="M 9.40625 0 
L 20.40625 0 
L 20.40625 70 
L 9.40625 70 
z
" id="ApercuPro-Medium-49"/>
     <path d="M 37.203125 70.796875 
C 20.09375 70.796875 5.09375 58.90625 5.09375 35 
C 5.09375 11.09375 20.09375 -0.796875 37.203125 -0.796875 
C 54.296875 -0.796875 69.296875 11.09375 69.296875 35 
C 69.296875 58.90625 54.296875 70.796875 37.203125 70.796875 
z
M 37.203125 60.40625 
C 48.5 60.40625 58.09375 52.296875 58.09375 35 
C 58.09375 17.703125 48.5 9.59375 37.203125 9.59375 
C 25.90625 9.59375 16.296875 17.703125 16.296875 35 
C 16.296875 52.296875 25.90625 60.40625 37.203125 60.40625 
z
" id="ApercuPro-Medium-4f"/>
     <path d="M 1.09375 59.59375 
L 20.703125 59.59375 
L 20.703125 0 
L 31.703125 0 
L 31.703125 59.59375 
L 51.296875 59.59375 
L 51.296875 70 
L 1.09375 70 
z
" id="ApercuPro-Medium-54"/>
     <path d="M 25.203125 70 
L 0.90625 0 
L 12.09375 0 
L 17.90625 17.40625 
L 42.90625 17.40625 
L 48.703125 0 
L 59.90625 0 
L 35.59375 70 
z
M 30.40625 56.09375 
L 39.59375 27.796875 
L 21.203125 27.796875 
z
" id="ApercuPro-Medium-41"/>
     <path d="M 9.40625 70 
L 9.40625 0 
L 35.40625 0 
C 49.203125 0 57.40625 7.5 57.40625 20.59375 
C 57.40625 28.703125 53.296875 35.40625 46.703125 38.203125 
C 50.796875 40.40625 53.796875 46.296875 53.796875 51.703125 
C 53.796875 63.796875 45.796875 70 34.203125 70 
z
M 33.203125 59.59375 
C 39.40625 59.59375 42.796875 56.703125 42.796875 51 
C 42.796875 45.296875 39.40625 42.40625 33.203125 42.40625 
L 20.40625 42.40625 
L 20.40625 59.59375 
z
M 33.90625 32 
C 42 32 46.203125 28.203125 46.203125 21.203125 
C 46.203125 14.203125 42 10.40625 33.90625 10.40625 
L 20.40625 10.40625 
L 20.40625 32 
z
" id="ApercuPro-Medium-42"/>
     <path d="M 65.796875 49.59375 
C 62.203125 62.796875 52.40625 70.796875 37.5 70.796875 
C 20.59375 70.796875 5.09375 58.703125 5.09375 35 
C 5.09375 11.296875 20.59375 -0.796875 37.5 -0.796875 
C 52.40625 -0.796875 62.203125 7.203125 65.796875 20.40625 
L 55.40625 23 
C 51.90625 14.09375 47 9.59375 37.5 9.59375 
C 25.703125 9.59375 16.296875 17.90625 16.296875 35 
C 16.296875 52.09375 25.703125 60.40625 37.5 60.40625 
C 47 60.40625 51.90625 55.90625 55.40625 47 
z
" id="ApercuPro-Medium-43"/>
     <path d="M 2.703125 -9.203125 
L 47.203125 -9.203125 
L 47.203125 0 
L 2.703125 0 
z
" id="ApercuPro-Medium-5f"/>
     <path d="M 4.90625 25.203125 
C 4.90625 9.09375 12.5 -0.796875 27.40625 -0.796875 
C 34 -0.796875 39.40625 2.90625 41.09375 5.796875 
L 41.09375 0 
L 51.5 0 
L 51.5 70.796875 
L 41.09375 70.796875 
L 41.09375 44.796875 
C 38.796875 48.09375 32.59375 51.203125 27.59375 51.203125 
C 12.5 51.203125 4.90625 40.796875 4.90625 25.203125 
z
M 15.90625 25.203125 
C 15.90625 35.59375 21.296875 42 28.796875 42 
C 36.296875 42 41.703125 35.59375 41.703125 25.203125 
C 41.703125 14.796875 36.296875 8.40625 28.796875 8.40625 
C 21.296875 8.40625 15.90625 14.796875 15.90625 25.203125 
z
" id="ApercuPro-Medium-64"/>
     <path d="M 19 0 
L 19 18.703125 
C 19 34.59375 25.90625 42 32.59375 42 
C 34.703125 42 36.90625 41.5 38.5 40.5 
L 40.296875 50 
C 38.796875 50.59375 36.59375 51.203125 33.90625 51.203125 
C 28.5 51.203125 22.5 48 19 42 
L 19 50.40625 
L 8.59375 50.40625 
L 8.59375 0 
z
" id="ApercuPro-Medium-72"/>
     <path d="M 4.90625 25.203125 
C 4.90625 11 14.09375 -0.796875 29.703125 -0.796875 
C 45.296875 -0.796875 54.5 11 54.5 25.203125 
C 54.5 39.40625 45.296875 51.203125 29.703125 51.203125 
C 14.09375 51.203125 4.90625 39.40625 4.90625 25.203125 
z
M 15.90625 25.203125 
C 15.90625 33.703125 20.59375 42 29.703125 42 
C 38.796875 42 43.5 33.703125 43.5 25.203125 
C 43.5 16.703125 38.796875 8.40625 29.703125 8.40625 
C 20.59375 8.40625 15.90625 16.703125 15.90625 25.203125 
z
" id="ApercuPro-Medium-6f"/>
     <path d="M 55.203125 25.203125 
C 55.203125 41.296875 47.59375 51.203125 32.703125 51.203125 
C 26.09375 51.203125 20.703125 47.5 19 44.59375 
L 19 50.40625 
L 8.59375 50.40625 
L 8.59375 -20.40625 
L 19 -20.40625 
L 19 5.59375 
C 21.296875 2.296875 26.296875 -0.796875 32.5 -0.796875 
C 47.59375 -0.796875 55.203125 9.59375 55.203125 25.203125 
z
M 44.203125 25.203125 
C 44.203125 14.796875 38.796875 8.40625 31.296875 8.40625 
C 23.796875 8.40625 18.40625 14.796875 18.40625 25.203125 
C 18.40625 35.59375 23.796875 42 31.296875 42 
C 38.796875 42 44.203125 35.59375 44.203125 25.203125 
z
" id="ApercuPro-Medium-70"/>
    </defs>
    <g style="opacity:0.75;" transform="translate(1044 144)scale(0.3 -0.3)">
     <use xlink:href="#ApercuPro-Medium-49"/>
     <use x="29.799988" xlink:href="#ApercuPro-Medium-4f"/>
     <use x="104.199982" xlink:href="#ApercuPro-Medium-54"/>
     <use x="156.506226" xlink:href="#ApercuPro-Medium-41"/>
     <use x="217.290588" xlink:href="#ApercuPro-Medium-42"/>
     <use x="279.590576" xlink:href="#ApercuPro-Medium-54"/>
     <use x="331.974945" xlink:href="#ApercuPro-Medium-43"/>
     <use x="401.47493" xlink:href="#ApercuPro-Medium-5f"/>
     <use x="451.374924" xlink:href="#ApercuPro-Medium-64"/>
     <use x="511.42804" xlink:href="#ApercuPro-Medium-72"/>
     <use x="553.128036" xlink:href="#ApercuPro-Medium-6f"/>
     <use x="612.52803" xlink:href="#ApercuPro-Medium-70"/>
    </g>
   </g>
   <g id="text_21">
    <!-- None -->
    <defs>
     <path d="M 51.59375 70 
L 60.40625 70 
L 60.40625 0 
L 50.09375 0 
L 18.5 54.5 
L 18.5 0 
L 9.703125 0 
L 9.703125 70 
L 20 70 
L 51.59375 15.296875 
z
" id="Apercu-4e"/>
     <path d="M 12 6.796875 
Q 5.40625 14.5 5.40625 25.203125 
Q 5.40625 35.90625 12.046875 43.546875 
Q 18.703125 51.203125 29.59375 51.203125 
Q 40.5 51.203125 47.140625 43.546875 
Q 53.796875 35.90625 53.796875 25.203125 
Q 53.796875 14.5 47.140625 6.84375 
Q 40.5 -0.796875 29.59375 -0.796875 
Q 18.703125 -0.796875 12 6.796875 
z
M 18.09375 38.09375 
Q 14 32.703125 14 25.203125 
Q 14 17.703125 18.140625 12.25 
Q 22.296875 6.796875 29.59375 6.796875 
Q 36.90625 6.796875 41.046875 12.25 
Q 45.203125 17.703125 45.203125 25.203125 
Q 45.203125 32.703125 41.046875 38.140625 
Q 36.90625 43.59375 29.59375 43.59375 
Q 22.296875 43.59375 18.09375 38.09375 
z
" id="Apercu-6f"/>
     <path d="M 49.09375 35.5 
L 49.09375 0 
L 40.703125 0 
L 40.703125 33.296875 
Q 40.703125 43.59375 32 43.59375 
Q 26.09375 43.59375 21.84375 37.390625 
Q 17.59375 31.203125 17.59375 21.09375 
L 17.59375 0 
L 9.203125 0 
L 9.203125 50.40625 
L 17.59375 50.40625 
L 17.59375 41.09375 
Q 23.296875 51.203125 34.296875 51.203125 
Q 41.203125 51.203125 45.140625 47.09375 
Q 49.09375 43 49.09375 35.5 
z
" id="Apercu-6e"/>
     <path d="M 51 27.296875 
L 51 23.40625 
L 14 23.40625 
Q 14.40625 16 18.046875 11.390625 
Q 21.703125 6.796875 28.203125 6.796875 
Q 33.5 6.796875 36.75 9.140625 
Q 40 11.5 42.203125 16.40625 
L 49.59375 13.203125 
Q 46.09375 5.796875 41.046875 2.5 
Q 36 -0.796875 28.203125 -0.796875 
Q 17.296875 -0.796875 11.34375 6.75 
Q 5.40625 14.296875 5.40625 25.1875 
Q 5.40625 36.09375 11.34375 43.640625 
Q 17.296875 51.203125 28.203125 51.203125 
Q 38.90625 51.203125 44.953125 44.25 
Q 51 37.296875 51 27.296875 
z
M 28.203125 43.59375 
Q 22.59375 43.59375 19.140625 40.1875 
Q 15.703125 36.796875 14.5 31 
L 42.203125 31 
Q 41 36.703125 37.5 40.140625 
Q 34 43.59375 28.203125 43.59375 
z
" id="Apercu-65"/>
    </defs>
    <g style="opacity:0.75;" transform="translate(1045 158.4)scale(0.14 -0.14)">
     <use xlink:href="#Apercu-4e"/>
     <use x="70.099991" xlink:href="#Apercu-6f"/>
     <use x="129.299988" xlink:href="#Apercu-6e"/>
     <use x="186.999985" xlink:href="#Apercu-65"/>
    </g>
   </g>
   <g id="legend_1">
    <g id="patch_8">
     <path d="M 5997.58375 266.736875 
L 6081.4 266.736875 
Q 6084.2 266.736875 6084.2 263.936875 
L 6084.2 225.8 
Q 6084.2 223 6081.4 223 
L 5997.58375 223 
Q 5994.78375 223 5994.78375 225.8 
L 5994.78375 263.936875 
Q 5994.78375 266.736875 5997.58375 266.736875 
z
" style="fill:#f0f0f0;opacity:0.8;stroke:#cccccc;stroke-linejoin:miter;stroke-width:0.5;"/>
    </g>
    <g id="line2d_36">
     <path d="M 6000.38375 233.611563 
L 6028.38375 233.611563 
" style="fill:none;stroke:#000004;stroke-width:3;"/>
    </g>
    <g id="line2d_37"/>
    <g id="text_22">
     <!-- pred -->
     <defs>
      <path d="M 32.296875 -0.796875 
Q 27.796875 -0.796875 23.390625 1.390625 
Q 19 3.59375 17.59375 6 
L 17.59375 -20.40625 
L 9.203125 -20.40625 
L 9.203125 50.40625 
L 17.59375 50.40625 
L 17.59375 44.203125 
Q 19.5 47.09375 23.640625 49.140625 
Q 27.796875 51.203125 32.296875 51.203125 
Q 43.09375 51.203125 48.890625 44.046875 
Q 54.703125 36.90625 54.703125 25.203125 
Q 54.703125 13.5 48.890625 6.34375 
Q 43.09375 -0.796875 32.296875 -0.796875 
z
M 31.5 43.59375 
Q 24.703125 43.59375 20.796875 38.5 
Q 16.90625 33.40625 16.90625 25.203125 
Q 16.90625 17 20.796875 11.890625 
Q 24.703125 6.796875 31.5 6.796875 
Q 38.09375 6.796875 42.09375 11.890625 
Q 46.09375 17 46.09375 25.203125 
Q 46.09375 33.40625 42.09375 38.5 
Q 38.09375 43.59375 31.5 43.59375 
z
" id="Apercu-70"/>
      <path d="M 39.296875 49.703125 
L 37.59375 42.203125 
Q 34.796875 43.59375 31.703125 43.59375 
Q 26 43.59375 21.796875 37.140625 
Q 17.59375 30.703125 17.59375 19.09375 
L 17.59375 0 
L 9.203125 0 
L 9.203125 50.40625 
L 17.59375 50.40625 
L 17.59375 41.796875 
Q 19.796875 46 24 48.59375 
Q 28.203125 51.203125 32.40625 51.203125 
Q 36.5 51.203125 39.296875 49.703125 
z
" id="Apercu-72"/>
      <path d="M 27.796875 51.203125 
Q 32.296875 51.203125 36.6875 49 
Q 41.09375 46.796875 42.5 44.40625 
L 42.5 70.796875 
L 50.90625 70.796875 
L 50.90625 0 
L 42.5 0 
L 42.5 6.203125 
Q 40.59375 3.296875 36.4375 1.25 
Q 32.296875 -0.796875 27.796875 -0.796875 
Q 17 -0.796875 11.203125 6.34375 
Q 5.40625 13.5 5.40625 25.203125 
Q 5.40625 36.90625 11.203125 44.046875 
Q 17 51.203125 27.796875 51.203125 
z
M 28.59375 6.796875 
Q 35.40625 6.796875 39.296875 11.890625 
Q 43.203125 17 43.203125 25.203125 
Q 43.203125 33.40625 39.296875 38.5 
Q 35.40625 43.59375 28.59375 43.59375 
Q 22 43.59375 18 38.5 
Q 14 33.40625 14 25.203125 
Q 14 17 18 11.890625 
Q 22 6.796875 28.59375 6.796875 
z
" id="Apercu-64"/>
     </defs>
     <g style="opacity:0.75;" transform="translate(6039.58375 238.511563)scale(0.14 -0.14)">
      <use xlink:href="#Apercu-70"/>
      <use x="60.099991" xlink:href="#Apercu-72"/>
      <use x="101.399979" xlink:href="#Apercu-65"/>
      <use x="157.399963" xlink:href="#Apercu-64"/>
     </g>
    </g>
    <g id="line2d_38">
     <path d="M 6000.38375 253.38 
L 6028.38375 253.38 
" style="fill:none;stroke:#b73779;stroke-width:3;"/>
    </g>
    <g id="line2d_39"/>
    <g id="text_23">
     <!-- actual -->
     <defs>
      <path d="M 14.203125 14.5 
Q 14.203125 10.90625 16.34375 8.84375 
Q 18.5 6.796875 22.5 6.796875 
Q 28.203125 6.796875 32.390625 10.546875 
Q 36.59375 14.296875 36.59375 22.203125 
L 36.59375 23.40625 
L 27.59375 23.40625 
Q 21.203125 23.40625 17.703125 21.09375 
Q 14.203125 18.796875 14.203125 14.5 
z
M 45 32.203125 
L 45 0 
L 38.40625 0 
L 37 7.09375 
Q 31.5 -0.796875 21.203125 -0.796875 
Q 14.40625 -0.796875 10 3 
Q 5.59375 6.796875 5.59375 14.5 
Q 5.59375 22.5 11.6875 26.75 
Q 17.796875 31 28.40625 31 
L 36.59375 31 
L 36.59375 33.203125 
Q 36.59375 43.59375 25.59375 43.59375 
Q 21.59375 43.59375 18.75 41.5 
Q 15.90625 39.40625 15.09375 35.703125 
L 7.703125 37.40625 
Q 8.703125 43.796875 13.59375 47.5 
Q 18.5 51.203125 25.59375 51.203125 
Q 34.40625 51.203125 39.703125 46.5 
Q 45 41.796875 45 32.203125 
z
" id="Apercu-61"/>
      <path d="M 42.09375 16.09375 
L 49.40625 13.09375 
Q 43.296875 -0.796875 28.296875 -0.796875 
Q 17.296875 -0.796875 11.34375 6.75 
Q 5.40625 14.296875 5.40625 25.1875 
Q 5.40625 36.09375 11.34375 43.640625 
Q 17.296875 51.203125 28.296875 51.203125 
Q 43.296875 51.203125 49.40625 37.296875 
L 42.09375 34.296875 
Q 38.09375 43.59375 28.296875 43.59375 
Q 21.296875 43.59375 17.640625 38.4375 
Q 14 33.296875 14 25.1875 
Q 14 17.09375 17.640625 11.9375 
Q 21.296875 6.796875 28.296875 6.796875 
Q 38.09375 6.796875 42.09375 16.09375 
z
" id="Apercu-63"/>
      <path d="M 2.5 42.796875 
L 2.5 50.40625 
L 11.203125 50.40625 
L 11.203125 65.5 
L 19.59375 70.796875 
L 19.59375 50.40625 
L 32.796875 50.40625 
L 32.796875 42.796875 
L 19.59375 42.796875 
L 19.59375 15.09375 
Q 19.59375 11.09375 21.34375 8.9375 
Q 23.09375 6.796875 26.296875 6.796875 
Q 29.59375 6.796875 32 8.40625 
L 34 1.09375 
Q 30.703125 -0.796875 25.796875 -0.796875 
Q 19.09375 -0.796875 15.140625 3.390625 
Q 11.203125 7.59375 11.203125 15.796875 
L 11.203125 42.796875 
z
" id="Apercu-74"/>
      <path d="M 8.59375 14.90625 
L 8.59375 50.40625 
L 17 50.40625 
L 17 17.09375 
Q 17 6.796875 25.703125 6.796875 
Q 31.59375 6.796875 35.84375 13 
Q 40.09375 19.203125 40.09375 29.296875 
L 40.09375 50.40625 
L 48.5 50.40625 
L 48.5 0 
L 40.09375 0 
L 40.09375 9.296875 
Q 34.40625 -0.796875 23.40625 -0.796875 
Q 16.5 -0.796875 12.546875 3.296875 
Q 8.59375 7.40625 8.59375 14.90625 
z
" id="Apercu-75"/>
      <path d="M 9 70.796875 
L 17.40625 70.796875 
L 17.40625 0 
L 9 0 
z
" id="Apercu-6c"/>
     </defs>
     <g style="opacity:0.75;" transform="translate(6039.58375 258.28)scale(0.14 -0.14)">
      <use xlink:href="#Apercu-61"/>
      <use x="51.799988" xlink:href="#Apercu-63"/>
      <use x="105.615601" xlink:href="#Apercu-74"/>
      <use x="143.399963" xlink:href="#Apercu-75"/>
      <use x="201.09996" xlink:href="#Apercu-61"/>
      <use x="252.899948" xlink:href="#Apercu-6c"/>
     </g>
    </g>
   </g>
  </g>
 </g>
 <defs>
  <clipPath id="pe1466c3bb6">
   <rect height="964.8" width="5313.6" x="777.6" y="216"/>
  </clipPath>
 </defs>
</svg>
