<?xml version="1.0" encoding="utf-8" standalone="no"?>
<!DOCTYPE svg PUBLIC "-//W3C//DTD SVG 1.1//EN"
  "http://www.w3.org/Graphics/SVG/1.1/DTD/svg11.dtd">
<!-- Created with matplotlib (https://matplotlib.org/) -->
<svg height="1440pt" version="1.1" viewBox="0 0 6480 1440" width="6480pt" xmlns="http://www.w3.org/2000/svg" xmlns:xlink="http://www.w3.org/1999/xlink">
 <defs>
  <style type="text/css">
*{stroke-linecap:butt;stroke-linejoin:round;}
  </style>
 </defs>
 <g id="figure_1">
  <g id="patch_1">
   <path d="M 0 1440 
L 6480 1440 
L 6480 0 
L 0 0 
z
" style="fill:#f0f0f0;"/>
  </g>
  <g id="axes_1">
   <g id="patch_2">
    <path d="M 777.6 1180.8 
L 6091.2 1180.8 
L 6091.2 216 
L 777.6 216 
z
" style="fill:#f0f0f0;"/>
   </g>
   <g id="matplotlib.axis_1">
    <g id="xtick_1">
     <g id="line2d_1">
      <path clip-path="url(#p685cff3fe2)" d="M 777.6 1180.8 
L 777.6 216 
" style="fill:none;stroke:#b0b0b0;stroke-linecap:square;stroke-width:0.8;"/>
     </g>
     <g id="line2d_2">
      <defs>
       <path d="M 0 0 
L 0 3.5 
" id="mf77035544c" style="stroke:#000000;stroke-width:0.8;"/>
      </defs>
      <g>
       <use style="stroke:#000000;stroke-width:0.8;" x="777.6" xlink:href="#mf77035544c" y="1180.8"/>
      </g>
     </g>
     <g id="text_1">
      <!-- 0 -->
      <defs>
       <path d="M 31.78125 66.40625 
Q 24.171875 66.40625 20.328125 58.90625 
Q 16.5 51.421875 16.5 36.375 
Q 16.5 21.390625 20.328125 13.890625 
Q 24.171875 6.390625 31.78125 6.390625 
Q 39.453125 6.390625 43.28125 13.890625 
Q 47.125 21.390625 47.125 36.375 
Q 47.125 51.421875 43.28125 58.90625 
Q 39.453125 66.40625 31.78125 66.40625 
z
M 31.78125 74.21875 
Q 44.046875 74.21875 50.515625 64.515625 
Q 56.984375 54.828125 56.984375 36.375 
Q 56.984375 17.96875 50.515625 8.265625 
Q 44.046875 -1.421875 31.78125 -1.421875 
Q 19.53125 -1.421875 13.0625 8.265625 
Q 6.59375 17.96875 6.59375 36.375 
Q 6.59375 54.828125 13.0625 64.515625 
Q 19.53125 74.21875 31.78125 74.21875 
z
" id="DejaVuSans-48"/>
      </defs>
      <g style="fill:#303030;" transform="translate(773.14625 1198.437812)scale(0.14 -0.14)">
       <use xlink:href="#DejaVuSans-48"/>
      </g>
     </g>
    </g>
    <g id="xtick_2">
     <g id="line2d_3">
      <path clip-path="url(#p685cff3fe2)" d="M 1445.137688 1180.8 
L 1445.137688 216 
" style="fill:none;stroke:#b0b0b0;stroke-linecap:square;stroke-width:0.8;"/>
     </g>
     <g id="line2d_4">
      <g>
       <use style="stroke:#000000;stroke-width:0.8;" x="1445.137688" xlink:href="#mf77035544c" y="1180.8"/>
      </g>
     </g>
     <g id="text_2">
      <!-- 25 -->
      <defs>
       <path d="M 19.1875 8.296875 
L 53.609375 8.296875 
L 53.609375 0 
L 7.328125 0 
L 7.328125 8.296875 
Q 12.9375 14.109375 22.625 23.890625 
Q 32.328125 33.6875 34.8125 36.53125 
Q 39.546875 41.84375 41.421875 45.53125 
Q 43.3125 49.21875 43.3125 52.78125 
Q 43.3125 58.59375 39.234375 62.25 
Q 35.15625 65.921875 28.609375 65.921875 
Q 23.96875 65.921875 18.8125 64.3125 
Q 13.671875 62.703125 7.8125 59.421875 
L 7.8125 69.390625 
Q 13.765625 71.78125 18.9375 73 
Q 24.125 74.21875 28.421875 74.21875 
Q 39.75 74.21875 46.484375 68.546875 
Q 53.21875 62.890625 53.21875 53.421875 
Q 53.21875 48.921875 51.53125 44.890625 
Q 49.859375 40.875 45.40625 35.40625 
Q 44.1875 33.984375 37.640625 27.21875 
Q 31.109375 20.453125 19.1875 8.296875 
z
" id="DejaVuSans-50"/>
       <path d="M 10.796875 72.90625 
L 49.515625 72.90625 
L 49.515625 64.59375 
L 19.828125 64.59375 
L 19.828125 46.734375 
Q 21.96875 47.46875 24.109375 47.828125 
Q 26.265625 48.1875 28.421875 48.1875 
Q 40.625 48.1875 47.75 41.5 
Q 54.890625 34.8125 54.890625 23.390625 
Q 54.890625 11.625 47.5625 5.09375 
Q 40.234375 -1.421875 26.90625 -1.421875 
Q 22.3125 -1.421875 17.546875 -0.640625 
Q 12.796875 0.140625 7.71875 1.703125 
L 7.71875 11.625 
Q 12.109375 9.234375 16.796875 8.0625 
Q 21.484375 6.890625 26.703125 6.890625 
Q 35.15625 6.890625 40.078125 11.328125 
Q 45.015625 15.765625 45.015625 23.390625 
Q 45.015625 31 40.078125 35.4375 
Q 35.15625 39.890625 26.703125 39.890625 
Q 22.75 39.890625 18.8125 39.015625 
Q 14.890625 38.140625 10.796875 36.28125 
z
" id="DejaVuSans-53"/>
      </defs>
      <g style="fill:#303030;" transform="translate(1436.230188 1198.437812)scale(0.14 -0.14)">
       <use xlink:href="#DejaVuSans-50"/>
       <use x="63.623047" xlink:href="#DejaVuSans-53"/>
      </g>
     </g>
    </g>
    <g id="xtick_3">
     <g id="line2d_5">
      <path clip-path="url(#p685cff3fe2)" d="M 2112.675377 1180.8 
L 2112.675377 216 
" style="fill:none;stroke:#b0b0b0;stroke-linecap:square;stroke-width:0.8;"/>
     </g>
     <g id="line2d_6">
      <g>
       <use style="stroke:#000000;stroke-width:0.8;" x="2112.675377" xlink:href="#mf77035544c" y="1180.8"/>
      </g>
     </g>
     <g id="text_3">
      <!-- 50 -->
      <g style="fill:#303030;" transform="translate(2103.767877 1198.437812)scale(0.14 -0.14)">
       <use xlink:href="#DejaVuSans-53"/>
       <use x="63.623047" xlink:href="#DejaVuSans-48"/>
      </g>
     </g>
    </g>
    <g id="xtick_4">
     <g id="line2d_7">
      <path clip-path="url(#p685cff3fe2)" d="M 2780.213065 1180.8 
L 2780.213065 216 
" style="fill:none;stroke:#b0b0b0;stroke-linecap:square;stroke-width:0.8;"/>
     </g>
     <g id="line2d_8">
      <g>
       <use style="stroke:#000000;stroke-width:0.8;" x="2780.213065" xlink:href="#mf77035544c" y="1180.8"/>
      </g>
     </g>
     <g id="text_4">
      <!-- 75 -->
      <defs>
       <path d="M 8.203125 72.90625 
L 55.078125 72.90625 
L 55.078125 68.703125 
L 28.609375 0 
L 18.3125 0 
L 43.21875 64.59375 
L 8.203125 64.59375 
z
" id="DejaVuSans-55"/>
      </defs>
      <g style="fill:#303030;" transform="translate(2771.305565 1198.437812)scale(0.14 -0.14)">
       <use xlink:href="#DejaVuSans-55"/>
       <use x="63.623047" xlink:href="#DejaVuSans-53"/>
      </g>
     </g>
    </g>
    <g id="xtick_5">
     <g id="line2d_9">
      <path clip-path="url(#p685cff3fe2)" d="M 3447.750754 1180.8 
L 3447.750754 216 
" style="fill:none;stroke:#b0b0b0;stroke-linecap:square;stroke-width:0.8;"/>
     </g>
     <g id="line2d_10">
      <g>
       <use style="stroke:#000000;stroke-width:0.8;" x="3447.750754" xlink:href="#mf77035544c" y="1180.8"/>
      </g>
     </g>
     <g id="text_5">
      <!-- 100 -->
      <defs>
       <path d="M 12.40625 8.296875 
L 28.515625 8.296875 
L 28.515625 63.921875 
L 10.984375 60.40625 
L 10.984375 69.390625 
L 28.421875 72.90625 
L 38.28125 72.90625 
L 38.28125 8.296875 
L 54.390625 8.296875 
L 54.390625 0 
L 12.40625 0 
z
" id="DejaVuSans-49"/>
      </defs>
      <g style="fill:#303030;" transform="translate(3434.389504 1198.437812)scale(0.14 -0.14)">
       <use xlink:href="#DejaVuSans-49"/>
       <use x="63.623047" xlink:href="#DejaVuSans-48"/>
       <use x="127.246094" xlink:href="#DejaVuSans-48"/>
      </g>
     </g>
    </g>
    <g id="xtick_6">
     <g id="line2d_11">
      <path clip-path="url(#p685cff3fe2)" d="M 4115.288442 1180.8 
L 4115.288442 216 
" style="fill:none;stroke:#b0b0b0;stroke-linecap:square;stroke-width:0.8;"/>
     </g>
     <g id="line2d_12">
      <g>
       <use style="stroke:#000000;stroke-width:0.8;" x="4115.288442" xlink:href="#mf77035544c" y="1180.8"/>
      </g>
     </g>
     <g id="text_6">
      <!-- 125 -->
      <g style="fill:#303030;" transform="translate(4101.927192 1198.437812)scale(0.14 -0.14)">
       <use xlink:href="#DejaVuSans-49"/>
       <use x="63.623047" xlink:href="#DejaVuSans-50"/>
       <use x="127.246094" xlink:href="#DejaVuSans-53"/>
      </g>
     </g>
    </g>
    <g id="xtick_7">
     <g id="line2d_13">
      <path clip-path="url(#p685cff3fe2)" d="M 4782.826131 1180.8 
L 4782.826131 216 
" style="fill:none;stroke:#b0b0b0;stroke-linecap:square;stroke-width:0.8;"/>
     </g>
     <g id="line2d_14">
      <g>
       <use style="stroke:#000000;stroke-width:0.8;" x="4782.826131" xlink:href="#mf77035544c" y="1180.8"/>
      </g>
     </g>
     <g id="text_7">
      <!-- 150 -->
      <g style="fill:#303030;" transform="translate(4769.464881 1198.437812)scale(0.14 -0.14)">
       <use xlink:href="#DejaVuSans-49"/>
       <use x="63.623047" xlink:href="#DejaVuSans-53"/>
       <use x="127.246094" xlink:href="#DejaVuSans-48"/>
      </g>
     </g>
    </g>
    <g id="xtick_8">
     <g id="line2d_15">
      <path clip-path="url(#p685cff3fe2)" d="M 5450.363819 1180.8 
L 5450.363819 216 
" style="fill:none;stroke:#b0b0b0;stroke-linecap:square;stroke-width:0.8;"/>
     </g>
     <g id="line2d_16">
      <g>
       <use style="stroke:#000000;stroke-width:0.8;" x="5450.363819" xlink:href="#mf77035544c" y="1180.8"/>
      </g>
     </g>
     <g id="text_8">
      <!-- 175 -->
      <g style="fill:#303030;" transform="translate(5437.002569 1198.437812)scale(0.14 -0.14)">
       <use xlink:href="#DejaVuSans-49"/>
       <use x="63.623047" xlink:href="#DejaVuSans-55"/>
       <use x="127.246094" xlink:href="#DejaVuSans-53"/>
      </g>
     </g>
    </g>
    <g id="text_9">
     <!-- x -->
     <defs>
      <path d="M 3.59375 50.40625 
L 13.09375 50.40625 
L 22.90625 34.40625 
L 32.703125 50.40625 
L 42.203125 50.40625 
L 27.59375 26.59375 
L 44 0 
L 34.5 0 
L 22.90625 18.90625 
L 11.296875 0 
L 1.796875 0 
L 18.203125 26.59375 
z
" id="Apercu-120"/>
     </defs>
     <g style="opacity:0.75;" transform="translate(3431.194219 1215.260937)scale(0.14 -0.14)">
      <use xlink:href="#Apercu-120"/>
     </g>
    </g>
   </g>
   <g id="matplotlib.axis_2">
    <g id="ytick_1">
     <g id="line2d_17">
      <path clip-path="url(#p685cff3fe2)" d="M 777.6 1136.945455 
L 6091.2 1136.945455 
" style="fill:none;stroke:#b0b0b0;stroke-linecap:square;stroke-width:0.8;"/>
     </g>
     <g id="line2d_18">
      <defs>
       <path d="M 0 0 
L -3.5 0 
" id="m2948334cc0" style="stroke:#000000;stroke-width:0.8;"/>
      </defs>
      <g>
       <use style="stroke:#000000;stroke-width:0.8;" x="777.6" xlink:href="#m2948334cc0" y="1136.945455"/>
      </g>
     </g>
     <g id="text_10">
      <!-- 0 -->
      <g style="fill:#303030;" transform="translate(761.6925 1142.264361)scale(0.14 -0.14)">
       <use xlink:href="#DejaVuSans-48"/>
      </g>
     </g>
    </g>
    <g id="ytick_2">
     <g id="line2d_19">
      <path clip-path="url(#p685cff3fe2)" d="M 777.6 990.763636 
L 6091.2 990.763636 
" style="fill:none;stroke:#b0b0b0;stroke-linecap:square;stroke-width:0.8;"/>
     </g>
     <g id="line2d_20">
      <g>
       <use style="stroke:#000000;stroke-width:0.8;" x="777.6" xlink:href="#m2948334cc0" y="990.763636"/>
      </g>
     </g>
     <g id="text_11">
      <!-- 2 -->
      <g style="fill:#303030;" transform="translate(761.6925 996.082543)scale(0.14 -0.14)">
       <use xlink:href="#DejaVuSans-50"/>
      </g>
     </g>
    </g>
    <g id="ytick_3">
     <g id="line2d_21">
      <path clip-path="url(#p685cff3fe2)" d="M 777.6 844.581818 
L 6091.2 844.581818 
" style="fill:none;stroke:#b0b0b0;stroke-linecap:square;stroke-width:0.8;"/>
     </g>
     <g id="line2d_22">
      <g>
       <use style="stroke:#000000;stroke-width:0.8;" x="777.6" xlink:href="#m2948334cc0" y="844.581818"/>
      </g>
     </g>
     <g id="text_12">
      <!-- 4 -->
      <defs>
       <path d="M 37.796875 64.3125 
L 12.890625 25.390625 
L 37.796875 25.390625 
z
M 35.203125 72.90625 
L 47.609375 72.90625 
L 47.609375 25.390625 
L 58.015625 25.390625 
L 58.015625 17.1875 
L 47.609375 17.1875 
L 47.609375 0 
L 37.796875 0 
L 37.796875 17.1875 
L 4.890625 17.1875 
L 4.890625 26.703125 
z
" id="DejaVuSans-52"/>
      </defs>
      <g style="fill:#303030;" transform="translate(761.6925 849.900724)scale(0.14 -0.14)">
       <use xlink:href="#DejaVuSans-52"/>
      </g>
     </g>
    </g>
    <g id="ytick_4">
     <g id="line2d_23">
      <path clip-path="url(#p685cff3fe2)" d="M 777.6 698.4 
L 6091.2 698.4 
" style="fill:none;stroke:#b0b0b0;stroke-linecap:square;stroke-width:0.8;"/>
     </g>
     <g id="line2d_24">
      <g>
       <use style="stroke:#000000;stroke-width:0.8;" x="777.6" xlink:href="#m2948334cc0" y="698.4"/>
      </g>
     </g>
     <g id="text_13">
      <!-- 6 -->
      <defs>
       <path d="M 33.015625 40.375 
Q 26.375 40.375 22.484375 35.828125 
Q 18.609375 31.296875 18.609375 23.390625 
Q 18.609375 15.53125 22.484375 10.953125 
Q 26.375 6.390625 33.015625 6.390625 
Q 39.65625 6.390625 43.53125 10.953125 
Q 47.40625 15.53125 47.40625 23.390625 
Q 47.40625 31.296875 43.53125 35.828125 
Q 39.65625 40.375 33.015625 40.375 
z
M 52.59375 71.296875 
L 52.59375 62.3125 
Q 48.875 64.0625 45.09375 64.984375 
Q 41.3125 65.921875 37.59375 65.921875 
Q 27.828125 65.921875 22.671875 59.328125 
Q 17.53125 52.734375 16.796875 39.40625 
Q 19.671875 43.65625 24.015625 45.921875 
Q 28.375 48.1875 33.59375 48.1875 
Q 44.578125 48.1875 50.953125 41.515625 
Q 57.328125 34.859375 57.328125 23.390625 
Q 57.328125 12.15625 50.6875 5.359375 
Q 44.046875 -1.421875 33.015625 -1.421875 
Q 20.359375 -1.421875 13.671875 8.265625 
Q 6.984375 17.96875 6.984375 36.375 
Q 6.984375 53.65625 15.1875 63.9375 
Q 23.390625 74.21875 37.203125 74.21875 
Q 40.921875 74.21875 44.703125 73.484375 
Q 48.484375 72.75 52.59375 71.296875 
z
" id="DejaVuSans-54"/>
      </defs>
      <g style="fill:#303030;" transform="translate(761.6925 703.718906)scale(0.14 -0.14)">
       <use xlink:href="#DejaVuSans-54"/>
      </g>
     </g>
    </g>
    <g id="ytick_5">
     <g id="line2d_25">
      <path clip-path="url(#p685cff3fe2)" d="M 777.6 552.218182 
L 6091.2 552.218182 
" style="fill:none;stroke:#b0b0b0;stroke-linecap:square;stroke-width:0.8;"/>
     </g>
     <g id="line2d_26">
      <g>
       <use style="stroke:#000000;stroke-width:0.8;" x="777.6" xlink:href="#m2948334cc0" y="552.218182"/>
      </g>
     </g>
     <g id="text_14">
      <!-- 8 -->
      <defs>
       <path d="M 31.78125 34.625 
Q 24.75 34.625 20.71875 30.859375 
Q 16.703125 27.09375 16.703125 20.515625 
Q 16.703125 13.921875 20.71875 10.15625 
Q 24.75 6.390625 31.78125 6.390625 
Q 38.8125 6.390625 42.859375 10.171875 
Q 46.921875 13.96875 46.921875 20.515625 
Q 46.921875 27.09375 42.890625 30.859375 
Q 38.875 34.625 31.78125 34.625 
z
M 21.921875 38.8125 
Q 15.578125 40.375 12.03125 44.71875 
Q 8.5 49.078125 8.5 55.328125 
Q 8.5 64.0625 14.71875 69.140625 
Q 20.953125 74.21875 31.78125 74.21875 
Q 42.671875 74.21875 48.875 69.140625 
Q 55.078125 64.0625 55.078125 55.328125 
Q 55.078125 49.078125 51.53125 44.71875 
Q 48 40.375 41.703125 38.8125 
Q 48.828125 37.15625 52.796875 32.3125 
Q 56.78125 27.484375 56.78125 20.515625 
Q 56.78125 9.90625 50.3125 4.234375 
Q 43.84375 -1.421875 31.78125 -1.421875 
Q 19.734375 -1.421875 13.25 4.234375 
Q 6.78125 9.90625 6.78125 20.515625 
Q 6.78125 27.484375 10.78125 32.3125 
Q 14.796875 37.15625 21.921875 38.8125 
z
M 18.3125 54.390625 
Q 18.3125 48.734375 21.84375 45.5625 
Q 25.390625 42.390625 31.78125 42.390625 
Q 38.140625 42.390625 41.71875 45.5625 
Q 45.3125 48.734375 45.3125 54.390625 
Q 45.3125 60.0625 41.71875 63.234375 
Q 38.140625 66.40625 31.78125 66.40625 
Q 25.390625 66.40625 21.84375 63.234375 
Q 18.3125 60.0625 18.3125 54.390625 
z
" id="DejaVuSans-56"/>
      </defs>
      <g style="fill:#303030;" transform="translate(761.6925 557.537088)scale(0.14 -0.14)">
       <use xlink:href="#DejaVuSans-56"/>
      </g>
     </g>
    </g>
    <g id="ytick_6">
     <g id="line2d_27">
      <path clip-path="url(#p685cff3fe2)" d="M 777.6 406.036364 
L 6091.2 406.036364 
" style="fill:none;stroke:#b0b0b0;stroke-linecap:square;stroke-width:0.8;"/>
     </g>
     <g id="line2d_28">
      <g>
       <use style="stroke:#000000;stroke-width:0.8;" x="777.6" xlink:href="#m2948334cc0" y="406.036364"/>
      </g>
     </g>
     <g id="text_15">
      <!-- 10 -->
      <g style="fill:#303030;" transform="translate(752.785 411.35527)scale(0.14 -0.14)">
       <use xlink:href="#DejaVuSans-49"/>
       <use x="63.623047" xlink:href="#DejaVuSans-48"/>
      </g>
     </g>
    </g>
    <g id="ytick_7">
     <g id="line2d_29">
      <path clip-path="url(#p685cff3fe2)" d="M 777.6 259.854545 
L 6091.2 259.854545 
" style="fill:none;stroke:#b0b0b0;stroke-linecap:square;stroke-width:0.8;"/>
     </g>
     <g id="line2d_30">
      <g>
       <use style="stroke:#000000;stroke-width:0.8;" x="777.6" xlink:href="#m2948334cc0" y="259.854545"/>
      </g>
     </g>
     <g id="text_16">
      <!-- 12 -->
      <g style="fill:#303030;" transform="translate(752.785 265.173452)scale(0.14 -0.14)">
       <use xlink:href="#DejaVuSans-49"/>
       <use x="63.623047" xlink:href="#DejaVuSans-50"/>
      </g>
     </g>
    </g>
    <g id="text_17">
     <!-- Predictions v. Input. -->
     <defs>
      <path d="M 34.09375 30 
L 18.5 30 
L 18.5 0 
L 9.703125 0 
L 9.703125 70 
L 34.09375 70 
Q 43.90625 70 49.40625 64.59375 
Q 54.90625 59.203125 54.90625 50 
Q 54.90625 40.796875 49.40625 35.390625 
Q 43.90625 30 34.09375 30 
z
M 34.59375 38.40625 
Q 40 38.40625 42.890625 41.40625 
Q 45.796875 44.40625 45.796875 50 
Q 45.796875 55.59375 42.890625 58.59375 
Q 40 61.59375 34.59375 61.59375 
L 18.5 61.59375 
L 18.5 38.40625 
z
" id="Apercu-80"/>
      <path d="M 39.296875 49.703125 
L 37.59375 42.203125 
Q 34.796875 43.59375 31.703125 43.59375 
Q 26 43.59375 21.796875 37.140625 
Q 17.59375 30.703125 17.59375 19.09375 
L 17.59375 0 
L 9.203125 0 
L 9.203125 50.40625 
L 17.59375 50.40625 
L 17.59375 41.796875 
Q 19.796875 46 24 48.59375 
Q 28.203125 51.203125 32.40625 51.203125 
Q 36.5 51.203125 39.296875 49.703125 
z
" id="Apercu-114"/>
      <path d="M 51 27.296875 
L 51 23.40625 
L 14 23.40625 
Q 14.40625 16 18.046875 11.390625 
Q 21.703125 6.796875 28.203125 6.796875 
Q 33.5 6.796875 36.75 9.140625 
Q 40 11.5 42.203125 16.40625 
L 49.59375 13.203125 
Q 46.09375 5.796875 41.046875 2.5 
Q 36 -0.796875 28.203125 -0.796875 
Q 17.296875 -0.796875 11.34375 6.75 
Q 5.40625 14.296875 5.40625 25.1875 
Q 5.40625 36.09375 11.34375 43.640625 
Q 17.296875 51.203125 28.203125 51.203125 
Q 38.90625 51.203125 44.953125 44.25 
Q 51 37.296875 51 27.296875 
z
M 28.203125 43.59375 
Q 22.59375 43.59375 19.140625 40.1875 
Q 15.703125 36.796875 14.5 31 
L 42.203125 31 
Q 41 36.703125 37.5 40.140625 
Q 34 43.59375 28.203125 43.59375 
z
" id="Apercu-101"/>
      <path d="M 27.796875 51.203125 
Q 32.296875 51.203125 36.6875 49 
Q 41.09375 46.796875 42.5 44.40625 
L 42.5 70.796875 
L 50.90625 70.796875 
L 50.90625 0 
L 42.5 0 
L 42.5 6.203125 
Q 40.59375 3.296875 36.4375 1.25 
Q 32.296875 -0.796875 27.796875 -0.796875 
Q 17 -0.796875 11.203125 6.34375 
Q 5.40625 13.5 5.40625 25.203125 
Q 5.40625 36.90625 11.203125 44.046875 
Q 17 51.203125 27.796875 51.203125 
z
M 28.59375 6.796875 
Q 35.40625 6.796875 39.296875 11.890625 
Q 43.203125 17 43.203125 25.203125 
Q 43.203125 33.40625 39.296875 38.5 
Q 35.40625 43.59375 28.59375 43.59375 
Q 22 43.59375 18 38.5 
Q 14 33.40625 14 25.203125 
Q 14 17 18 11.890625 
Q 22 6.796875 28.59375 6.796875 
z
" id="Apercu-100"/>
      <path d="M 9.296875 50.40625 
L 17.703125 50.40625 
L 17.703125 0 
L 9.296875 0 
z
M 7.203125 64.40625 
Q 7.203125 67.09375 9 68.9375 
Q 10.796875 70.796875 13.5 70.796875 
Q 16.203125 70.796875 18 68.9375 
Q 19.796875 67.09375 19.796875 64.40625 
Q 19.796875 61.796875 18 60 
Q 16.203125 58.203125 13.5 58.203125 
Q 10.796875 58.203125 9 60 
Q 7.203125 61.796875 7.203125 64.40625 
z
" id="Apercu-105"/>
      <path d="M 42.09375 16.09375 
L 49.40625 13.09375 
Q 43.296875 -0.796875 28.296875 -0.796875 
Q 17.296875 -0.796875 11.34375 6.75 
Q 5.40625 14.296875 5.40625 25.1875 
Q 5.40625 36.09375 11.34375 43.640625 
Q 17.296875 51.203125 28.296875 51.203125 
Q 43.296875 51.203125 49.40625 37.296875 
L 42.09375 34.296875 
Q 38.09375 43.59375 28.296875 43.59375 
Q 21.296875 43.59375 17.640625 38.4375 
Q 14 33.296875 14 25.1875 
Q 14 17.09375 17.640625 11.9375 
Q 21.296875 6.796875 28.296875 6.796875 
Q 38.09375 6.796875 42.09375 16.09375 
z
" id="Apercu-99"/>
      <path d="M 2.5 42.796875 
L 2.5 50.40625 
L 11.203125 50.40625 
L 11.203125 65.5 
L 19.59375 70.796875 
L 19.59375 50.40625 
L 32.796875 50.40625 
L 32.796875 42.796875 
L 19.59375 42.796875 
L 19.59375 15.09375 
Q 19.59375 11.09375 21.34375 8.9375 
Q 23.09375 6.796875 26.296875 6.796875 
Q 29.59375 6.796875 32 8.40625 
L 34 1.09375 
Q 30.703125 -0.796875 25.796875 -0.796875 
Q 19.09375 -0.796875 15.140625 3.390625 
Q 11.203125 7.59375 11.203125 15.796875 
L 11.203125 42.796875 
z
" id="Apercu-116"/>
      <path d="M 12 6.796875 
Q 5.40625 14.5 5.40625 25.203125 
Q 5.40625 35.90625 12.046875 43.546875 
Q 18.703125 51.203125 29.59375 51.203125 
Q 40.5 51.203125 47.140625 43.546875 
Q 53.796875 35.90625 53.796875 25.203125 
Q 53.796875 14.5 47.140625 6.84375 
Q 40.5 -0.796875 29.59375 -0.796875 
Q 18.703125 -0.796875 12 6.796875 
z
M 18.09375 38.09375 
Q 14 32.703125 14 25.203125 
Q 14 17.703125 18.140625 12.25 
Q 22.296875 6.796875 29.59375 6.796875 
Q 36.90625 6.796875 41.046875 12.25 
Q 45.203125 17.703125 45.203125 25.203125 
Q 45.203125 32.703125 41.046875 38.140625 
Q 36.90625 43.59375 29.59375 43.59375 
Q 22.296875 43.59375 18.09375 38.09375 
z
" id="Apercu-111"/>
      <path d="M 49.09375 35.5 
L 49.09375 0 
L 40.703125 0 
L 40.703125 33.296875 
Q 40.703125 43.59375 32 43.59375 
Q 26.09375 43.59375 21.84375 37.390625 
Q 17.59375 31.203125 17.59375 21.09375 
L 17.59375 0 
L 9.203125 0 
L 9.203125 50.40625 
L 17.59375 50.40625 
L 17.59375 41.09375 
Q 23.296875 51.203125 34.296875 51.203125 
Q 41.203125 51.203125 45.140625 47.09375 
Q 49.09375 43 49.09375 35.5 
z
" id="Apercu-110"/>
      <path d="M 23.59375 51.203125 
Q 32.796875 51.203125 38.203125 43.5 
L 32.5 38.59375 
Q 27.90625 43.59375 23.296875 43.59375 
Q 20.703125 43.59375 18.953125 41.890625 
Q 17.203125 40.203125 17.203125 37.203125 
Q 17.203125 34.703125 19.59375 32.890625 
Q 22 31.09375 25.453125 29.75 
Q 28.90625 28.40625 32.34375 26.796875 
Q 35.796875 25.203125 38.1875 22.25 
Q 40.59375 19.296875 40.59375 15.203125 
Q 40.59375 7.703125 36.09375 3.453125 
Q 31.59375 -0.796875 23.90625 -0.796875 
Q 16.796875 -0.796875 12.046875 3.09375 
Q 7.296875 7 5.09375 12.796875 
L 12.203125 16.703125 
Q 16.203125 6.796875 23.90625 6.796875 
Q 32 6.796875 32 14.703125 
Q 32 17.203125 29.59375 19 
Q 27.203125 20.796875 23.796875 22.046875 
Q 20.40625 23.296875 17 24.890625 
Q 13.59375 26.5 11.1875 29.640625 
Q 8.796875 32.796875 8.796875 37.296875 
Q 8.796875 43.296875 12.84375 47.25 
Q 16.90625 51.203125 23.59375 51.203125 
z
" id="Apercu-115"/>
      <path id="Apercu-32"/>
      <path d="M 35.09375 50.40625 
L 43.703125 50.40625 
L 27.09375 0 
L 18.5 0 
L 1.90625 50.40625 
L 10.5 50.40625 
L 22.796875 10.703125 
z
" id="Apercu-118"/>
      <path d="M 9 5.90625 
Q 9 8.5 10.796875 10.34375 
Q 12.59375 12.203125 15.296875 12.203125 
Q 17.90625 12.203125 19.75 10.34375 
Q 21.59375 8.5 21.59375 5.90625 
Q 21.59375 3.203125 19.75 1.390625 
Q 17.90625 -0.40625 15.296875 -0.40625 
Q 12.59375 -0.40625 10.796875 1.390625 
Q 9 3.203125 9 5.90625 
z
" id="Apercu-46"/>
      <path d="M 9.703125 70 
L 18.5 70 
L 18.5 0 
L 9.703125 0 
z
" id="Apercu-73"/>
      <path d="M 32.296875 -0.796875 
Q 27.796875 -0.796875 23.390625 1.390625 
Q 19 3.59375 17.59375 6 
L 17.59375 -20.40625 
L 9.203125 -20.40625 
L 9.203125 50.40625 
L 17.59375 50.40625 
L 17.59375 44.203125 
Q 19.5 47.09375 23.640625 49.140625 
Q 27.796875 51.203125 32.296875 51.203125 
Q 43.09375 51.203125 48.890625 44.046875 
Q 54.703125 36.90625 54.703125 25.203125 
Q 54.703125 13.5 48.890625 6.34375 
Q 43.09375 -0.796875 32.296875 -0.796875 
z
M 31.5 43.59375 
Q 24.703125 43.59375 20.796875 38.5 
Q 16.90625 33.40625 16.90625 25.203125 
Q 16.90625 17 20.796875 11.890625 
Q 24.703125 6.796875 31.5 6.796875 
Q 38.09375 6.796875 42.09375 11.890625 
Q 46.09375 17 46.09375 25.203125 
Q 46.09375 33.40625 42.09375 38.5 
Q 38.09375 43.59375 31.5 43.59375 
z
" id="Apercu-112"/>
      <path d="M 8.59375 14.90625 
L 8.59375 50.40625 
L 17 50.40625 
L 17 17.09375 
Q 17 6.796875 25.703125 6.796875 
Q 31.59375 6.796875 35.84375 13 
Q 40.09375 19.203125 40.09375 29.296875 
L 40.09375 50.40625 
L 48.5 50.40625 
L 48.5 0 
L 40.09375 0 
L 40.09375 9.296875 
Q 34.40625 -0.796875 23.40625 -0.796875 
Q 16.5 -0.796875 12.546875 3.296875 
Q 8.59375 7.40625 8.59375 14.90625 
z
" id="Apercu-117"/>
     </defs>
     <g style="opacity:0.75;" transform="translate(745.928125 763.235312)rotate(-90)scale(0.14 -0.14)">
      <use xlink:href="#Apercu-80"/>
      <use x="58.399994" xlink:href="#Apercu-114"/>
      <use x="99.699982" xlink:href="#Apercu-101"/>
      <use x="155.699966" xlink:href="#Apercu-100"/>
      <use x="215.768707" xlink:href="#Apercu-105"/>
      <use x="242.753067" xlink:href="#Apercu-99"/>
      <use x="296.56868" xlink:href="#Apercu-116"/>
      <use x="334.368668" xlink:href="#Apercu-105"/>
      <use x="361.368652" xlink:href="#Apercu-111"/>
      <use x="420.568649" xlink:href="#Apercu-110"/>
      <use x="478.253021" xlink:href="#Apercu-115"/>
      <use x="524.353012" xlink:href="#Apercu-32"/>
      <use x="551.153" xlink:href="#Apercu-118"/>
      <use x="596.752991" xlink:href="#Apercu-46"/>
      <use x="627.352982" xlink:href="#Apercu-32"/>
      <use x="654.152969" xlink:href="#Apercu-73"/>
      <use x="682.352966" xlink:href="#Apercu-110"/>
      <use x="740.052963" xlink:href="#Apercu-112"/>
      <use x="800.152954" xlink:href="#Apercu-117"/>
      <use x="857.852951" xlink:href="#Apercu-116"/>
      <use x="895.652939" xlink:href="#Apercu-46"/>
     </g>
    </g>
   </g>
   <g id="line2d_31">
    <path clip-path="url(#p685cff3fe2)" d="M 777.6 990.763636 
L 5450.363819 990.763636 
L 5477.065327 625.309091 
L 5503.766834 990.763636 
L 6091.2 990.763636 
L 6091.2 990.763636 
" style="fill:none;stroke:#000004;stroke-width:3;"/>
   </g>
   <g id="line2d_32">
    <path clip-path="url(#p685cff3fe2)" d="M 777.6 698.4 
L 884.40603 698.4 
L 911.107538 406.036364 
L 937.809045 552.218182 
L 964.510553 1136.945455 
L 991.21206 1136.945455 
L 1017.913568 698.4 
L 1071.316583 698.4 
L 1098.01809 1136.945455 
L 1151.421106 1136.945455 
L 1178.122613 698.4 
L 1231.525628 698.4 
L 1258.227136 1136.945455 
L 1284.928643 1136.945455 
L 1311.630151 698.4 
L 1338.331658 1136.945455 
L 1445.137688 1136.945455 
L 1471.839196 698.4 
L 1498.540704 698.4 
L 1525.242211 1136.945455 
L 1578.645226 1136.945455 
L 1605.346734 406.036364 
L 1632.048241 844.581818 
L 1818.958794 844.581818 
L 1845.660302 698.4 
L 1872.361809 698.4 
L 1899.063317 844.581818 
L 2032.570854 844.581818 
L 2059.272362 1136.945455 
L 2085.973869 1136.945455 
L 2112.675377 698.4 
L 2139.376884 698.4 
L 2166.078392 844.581818 
L 2192.779899 844.581818 
L 2219.481407 1136.945455 
L 2246.182915 1136.945455 
L 2272.884422 552.218182 
L 2299.58593 552.218182 
L 2326.287437 844.581818 
L 2406.39196 844.581818 
L 2433.093467 698.4 
L 2459.794975 698.4 
L 2486.496482 844.581818 
L 2513.19799 844.581818 
L 2539.899497 698.4 
L 3154.034171 698.4 
L 3180.735678 844.581818 
L 3207.437186 844.581818 
L 3234.138693 698.4 
L 3260.840201 698.4 
L 3287.541709 1136.945455 
L 3314.243216 698.4 
L 3581.258291 698.4 
L 3607.959799 844.581818 
L 3634.661307 844.581818 
L 3661.362814 698.4 
L 3688.064322 698.4 
L 3714.765829 1136.945455 
L 3741.467337 1136.945455 
L 3768.168844 698.4 
L 3794.870352 698.4 
L 3821.571859 1136.945455 
L 3848.273367 1136.945455 
L 3874.974874 698.4 
L 4141.98995 698.4 
L 4168.691457 844.581818 
L 4195.392965 698.4 
L 4222.094472 698.4 
L 4248.79598 1136.945455 
L 4275.497487 1136.945455 
L 4302.198995 698.4 
L 4382.303518 698.4 
L 4409.005025 259.854545 
L 4435.706533 698.4 
L 4489.109548 698.4 
L 4515.811055 1136.945455 
L 4542.512563 1136.945455 
L 4569.21407 771.490909 
L 4595.915578 771.490909 
L 4622.617085 844.581818 
L 4649.318593 844.581818 
L 4676.020101 698.4 
L 4702.721608 844.581818 
L 4729.423116 698.4 
L 5129.945729 698.4 
L 5183.348744 844.581818 
L 5236.751759 844.581818 
L 5263.453266 698.4 
L 5290.154774 698.4 
L 5316.856281 771.490909 
L 5343.557789 771.490909 
L 5370.259296 698.4 
L 5477.065327 698.4 
L 5503.766834 771.490909 
L 5530.468342 698.4 
L 5557.169849 698.4 
L 5583.871357 844.581818 
L 5610.572864 844.581818 
L 5637.274372 698.4 
L 5877.58794 698.4 
L 5904.289447 844.581818 
L 5984.39397 844.581818 
L 6011.095477 771.490909 
L 6037.796985 771.490909 
L 6064.498492 844.581818 
L 6091.2 844.581818 
L 6091.2 844.581818 
" style="fill:none;stroke:#b73779;stroke-width:3;"/>
   </g>
   <g id="line2d_33">
    <path clip-path="url(#p685cff3fe2)" d="M 777.6 698.4 
L 6091.2 698.4 
L 6091.2 698.4 
" style="fill:none;stroke:#2ca02c;stroke-width:4;"/>
   </g>
   <g id="line2d_34">
    <path clip-path="url(#p685cff3fe2)" d="M 777.6 698.4 
L 6091.2 698.4 
L 6091.2 698.4 
" style="fill:none;stroke:#d62728;stroke-width:4;"/>
   </g>
   <g id="line2d_35">
    <path clip-path="url(#p685cff3fe2)" d="M 777.6 1136.945455 
L 6091.2 1136.945455 
" style="fill:none;stroke:#000000;stroke-opacity:0.7;stroke-width:1.3;"/>
   </g>
   <g id="patch_3">
    <path d="M 777.6 1180.8 
L 777.6 216 
" style="fill:none;stroke:#000000;stroke-linecap:square;stroke-linejoin:miter;stroke-width:0.8;"/>
   </g>
   <g id="patch_4">
    <path d="M 6091.2 1180.8 
L 6091.2 216 
" style="fill:none;stroke:#000000;stroke-linecap:square;stroke-linejoin:miter;stroke-width:0.8;"/>
   </g>
   <g id="patch_5">
    <path d="M 777.6 1180.8 
L 6091.2 1180.8 
" style="fill:none;stroke:#000000;stroke-linecap:square;stroke-linejoin:miter;stroke-width:0.8;"/>
   </g>
   <g id="patch_6">
    <path d="M 777.6 216 
L 6091.2 216 
" style="fill:none;stroke:#000000;stroke-linecap:square;stroke-linejoin:miter;stroke-width:0.8;"/>
   </g>
   <g id="patch_7">
    <path d="M 0 1440 
L 6480 1440 
L 6480 1416.623377 
L 0 1416.623377 
z
" style="fill:#808080;"/>
   </g>
   <g id="text_18">
    <!-- ©spred -->
    <defs>
     <path d="M 50 72.515625 
Q 57.421875 72.515625 63.84375 69.828125 
Q 70.265625 67.140625 75.59375 61.8125 
Q 80.90625 56.5 83.546875 50.09375 
Q 86.1875 43.703125 86.1875 36.1875 
Q 86.1875 28.765625 83.546875 22.390625 
Q 80.90625 16.015625 75.59375 10.6875 
Q 70.265625 5.375 63.84375 2.6875 
Q 57.421875 0 50 0 
Q 42.578125 0 36.15625 2.6875 
Q 29.734375 5.375 24.421875 10.6875 
Q 19.09375 16.015625 16.453125 22.390625 
Q 13.8125 28.765625 13.8125 36.1875 
Q 13.8125 43.703125 16.453125 50.09375 
Q 19.09375 56.5 24.421875 61.8125 
Q 29.734375 67.140625 36.15625 69.828125 
Q 42.578125 72.515625 50 72.515625 
z
M 50 67.484375 
Q 43.609375 67.484375 38.078125 65.1875 
Q 32.5625 62.890625 27.984375 58.296875 
Q 23.390625 53.71875 21.046875 48.125 
Q 18.703125 42.53125 18.703125 36.1875 
Q 18.703125 29.890625 21.046875 24.34375 
Q 23.390625 18.796875 27.984375 14.203125 
Q 32.5625 9.625 38.078125 7.296875 
Q 43.609375 4.984375 50 4.984375 
Q 56.453125 4.984375 61.984375 7.296875 
Q 67.53125 9.625 72.125 14.203125 
Q 76.65625 18.75 78.921875 24.265625 
Q 81.203125 29.78125 81.203125 36.1875 
Q 81.203125 42.671875 78.90625 48.21875 
Q 76.609375 53.765625 72.125 58.296875 
Q 67.53125 62.890625 61.984375 65.1875 
Q 56.453125 67.484375 50 67.484375 
z
M 64.59375 55.515625 
L 64.59375 49.21875 
Q 61.375 50.828125 58.203125 51.609375 
Q 55.03125 52.390625 51.8125 52.390625 
Q 44.53125 52.390625 40.453125 48.109375 
Q 36.375 43.84375 36.375 36.1875 
Q 36.375 28.421875 40.546875 24.171875 
Q 44.734375 19.921875 52.296875 19.921875 
Q 55.421875 19.921875 58.390625 20.671875 
Q 61.375 21.4375 64.59375 23.09375 
L 64.59375 16.890625 
Q 61.328125 15.484375 57.984375 14.796875 
Q 54.640625 14.109375 51.21875 14.109375 
Q 40.671875 14.109375 34.546875 20.0625 
Q 28.421875 26.03125 28.421875 36.1875 
Q 28.421875 46.390625 34.546875 52.296875 
Q 40.671875 58.203125 51.21875 58.203125 
Q 54.78125 58.203125 58.09375 57.515625 
Q 61.421875 56.84375 64.59375 55.515625 
z
" id="DejaVuSans-169"/>
     <path d="M 44.28125 53.078125 
L 44.28125 44.578125 
Q 40.484375 46.53125 36.375 47.5 
Q 32.28125 48.484375 27.875 48.484375 
Q 21.1875 48.484375 17.84375 46.4375 
Q 14.5 44.390625 14.5 40.28125 
Q 14.5 37.15625 16.890625 35.375 
Q 19.28125 33.59375 26.515625 31.984375 
L 29.59375 31.296875 
Q 39.15625 29.25 43.1875 25.515625 
Q 47.21875 21.78125 47.21875 15.09375 
Q 47.21875 7.46875 41.1875 3.015625 
Q 35.15625 -1.421875 24.609375 -1.421875 
Q 20.21875 -1.421875 15.453125 -0.5625 
Q 10.6875 0.296875 5.421875 2 
L 5.421875 11.28125 
Q 10.40625 8.6875 15.234375 7.390625 
Q 20.0625 6.109375 24.8125 6.109375 
Q 31.15625 6.109375 34.5625 8.28125 
Q 37.984375 10.453125 37.984375 14.40625 
Q 37.984375 18.0625 35.515625 20.015625 
Q 33.0625 21.96875 24.703125 23.78125 
L 21.578125 24.515625 
Q 13.234375 26.265625 9.515625 29.90625 
Q 5.8125 33.546875 5.8125 39.890625 
Q 5.8125 47.609375 11.28125 51.796875 
Q 16.75 56 26.8125 56 
Q 31.78125 56 36.171875 55.265625 
Q 40.578125 54.546875 44.28125 53.078125 
z
" id="DejaVuSans-115"/>
     <path d="M 18.109375 8.203125 
L 18.109375 -20.796875 
L 9.078125 -20.796875 
L 9.078125 54.6875 
L 18.109375 54.6875 
L 18.109375 46.390625 
Q 20.953125 51.265625 25.265625 53.625 
Q 29.59375 56 35.59375 56 
Q 45.5625 56 51.78125 48.09375 
Q 58.015625 40.1875 58.015625 27.296875 
Q 58.015625 14.40625 51.78125 6.484375 
Q 45.5625 -1.421875 35.59375 -1.421875 
Q 29.59375 -1.421875 25.265625 0.953125 
Q 20.953125 3.328125 18.109375 8.203125 
z
M 48.6875 27.296875 
Q 48.6875 37.203125 44.609375 42.84375 
Q 40.53125 48.484375 33.40625 48.484375 
Q 26.265625 48.484375 22.1875 42.84375 
Q 18.109375 37.203125 18.109375 27.296875 
Q 18.109375 17.390625 22.1875 11.75 
Q 26.265625 6.109375 33.40625 6.109375 
Q 40.53125 6.109375 44.609375 11.75 
Q 48.6875 17.390625 48.6875 27.296875 
z
" id="DejaVuSans-112"/>
     <path d="M 41.109375 46.296875 
Q 39.59375 47.171875 37.8125 47.578125 
Q 36.03125 48 33.890625 48 
Q 26.265625 48 22.1875 43.046875 
Q 18.109375 38.09375 18.109375 28.8125 
L 18.109375 0 
L 9.078125 0 
L 9.078125 54.6875 
L 18.109375 54.6875 
L 18.109375 46.1875 
Q 20.953125 51.171875 25.484375 53.578125 
Q 30.03125 56 36.53125 56 
Q 37.453125 56 38.578125 55.875 
Q 39.703125 55.765625 41.0625 55.515625 
z
" id="DejaVuSans-114"/>
     <path d="M 56.203125 29.59375 
L 56.203125 25.203125 
L 14.890625 25.203125 
Q 15.484375 15.921875 20.484375 11.0625 
Q 25.484375 6.203125 34.421875 6.203125 
Q 39.59375 6.203125 44.453125 7.46875 
Q 49.3125 8.734375 54.109375 11.28125 
L 54.109375 2.78125 
Q 49.265625 0.734375 44.1875 -0.34375 
Q 39.109375 -1.421875 33.890625 -1.421875 
Q 20.796875 -1.421875 13.15625 6.1875 
Q 5.515625 13.8125 5.515625 26.8125 
Q 5.515625 40.234375 12.765625 48.109375 
Q 20.015625 56 32.328125 56 
Q 43.359375 56 49.78125 48.890625 
Q 56.203125 41.796875 56.203125 29.59375 
z
M 47.21875 32.234375 
Q 47.125 39.59375 43.09375 43.984375 
Q 39.0625 48.390625 32.421875 48.390625 
Q 24.90625 48.390625 20.390625 44.140625 
Q 15.875 39.890625 15.1875 32.171875 
z
" id="DejaVuSans-101"/>
     <path d="M 45.40625 46.390625 
L 45.40625 75.984375 
L 54.390625 75.984375 
L 54.390625 0 
L 45.40625 0 
L 45.40625 8.203125 
Q 42.578125 3.328125 38.25 0.953125 
Q 33.9375 -1.421875 27.875 -1.421875 
Q 17.96875 -1.421875 11.734375 6.484375 
Q 5.515625 14.40625 5.515625 27.296875 
Q 5.515625 40.1875 11.734375 48.09375 
Q 17.96875 56 27.875 56 
Q 33.9375 56 38.25 53.625 
Q 42.578125 51.265625 45.40625 46.390625 
z
M 14.796875 27.296875 
Q 14.796875 17.390625 18.875 11.75 
Q 22.953125 6.109375 30.078125 6.109375 
Q 37.203125 6.109375 41.296875 11.75 
Q 45.40625 17.390625 45.40625 27.296875 
Q 45.40625 37.203125 41.296875 42.84375 
Q 37.203125 48.484375 30.078125 48.484375 
Q 22.953125 48.484375 18.875 42.84375 
Q 14.796875 37.203125 14.796875 27.296875 
z
" id="DejaVuSans-100"/>
    </defs>
    <g style="fill:#ffffff;" transform="translate(64.8 1432.8)scale(0.14 -0.14)">
     <use xlink:href="#DejaVuSans-169"/>
     <use x="100" xlink:href="#DejaVuSans-115"/>
     <use x="152.099609" xlink:href="#DejaVuSans-112"/>
     <use x="215.576172" xlink:href="#DejaVuSans-114"/>
     <use x="256.658203" xlink:href="#DejaVuSans-101"/>
     <use x="318.181641" xlink:href="#DejaVuSans-100"/>
    </g>
   </g>
   <g id="text_19">
    <!-- sampleset -->
    <defs>
     <path d="M 23.40625 51.203125 
C 14.296875 51.203125 7.90625 44.703125 7.90625 36.90625 
C 7.90625 29.203125 12.90625 25.5 18.703125 23.09375 
C 24.59375 20.59375 30.703125 19.40625 30.703125 15 
C 30.703125 10.40625 27.90625 8.40625 23.90625 8.40625 
C 18.296875 8.40625 14.796875 13 12.796875 17.5 
L 4 12.703125 
C 6.59375 6.40625 13.09375 -0.796875 23.5 -0.796875 
C 34.296875 -0.796875 41 6.5 41 15.203125 
C 41 24.203125 33.703125 27.203125 26.90625 29.796875 
C 21.703125 31.796875 17.90625 33.40625 17.90625 37 
C 17.90625 40.296875 20.296875 42 22.90625 42 
C 26.09375 42 29.203125 40.59375 31.703125 37.40625 
L 38.296875 43.203125 
C 35.09375 48.203125 29.5 51.203125 23.40625 51.203125 
z
" id="ApercuPro-Medium-115"/>
     <path d="M 4.40625 14.5 
C 4.40625 4 11.5 -0.796875 19.90625 -0.796875 
C 27 -0.796875 32.203125 2 35.5 6.59375 
L 36.5 0 
L 45.296875 0 
L 45.296875 31.296875 
C 45.296875 46.09375 36.90625 51.203125 25.203125 51.203125 
C 15.5 51.203125 8.296875 45.796875 6.203125 37.296875 
L 15.703125 35.296875 
C 17.40625 39.796875 21 42 25.09375 42 
C 30.40625 42 34.90625 39.5 34.90625 33.203125 
L 34.90625 31 
L 26.203125 31 
C 13.296875 31 4.40625 24.90625 4.40625 14.5 
z
M 15.40625 14.5 
C 15.40625 19.296875 19.40625 22.296875 25.796875 22.296875 
L 34.90625 22.296875 
L 34.90625 21.203125 
C 34.90625 12.5 28.09375 8.40625 21.703125 8.40625 
C 17.296875 8.40625 15.40625 11.09375 15.40625 14.5 
z
" id="ApercuPro-Medium-97"/>
     <path d="M 8.59375 50.40625 
L 8.59375 0 
L 19 0 
L 19 19.09375 
C 19 34.09375 24.5 42 30.796875 42 
C 35.203125 42 38.203125 39.296875 38.203125 33.796875 
L 38.203125 0 
L 48.59375 0 
L 48.59375 20.203125 
C 48.59375 34.09375 54.203125 42 60.40625 42 
C 64.796875 42 67.796875 39.296875 67.796875 33.796875 
L 67.796875 0 
L 78.203125 0 
L 78.203125 36.09375 
C 78.203125 44.90625 73 51.203125 63.796875 51.203125 
C 57.296875 51.203125 51.59375 47.40625 48.09375 40.796875 
C 46.59375 47.09375 41 51.203125 34.203125 51.203125 
C 28.09375 51.203125 23.09375 48.09375 19 41.796875 
L 19 50.40625 
z
" id="ApercuPro-Medium-109"/>
     <path d="M 55.203125 25.203125 
C 55.203125 41.296875 47.59375 51.203125 32.703125 51.203125 
C 26.09375 51.203125 20.703125 47.5 19 44.59375 
L 19 50.40625 
L 8.59375 50.40625 
L 8.59375 -20.40625 
L 19 -20.40625 
L 19 5.59375 
C 21.296875 2.296875 26.296875 -0.796875 32.5 -0.796875 
C 47.59375 -0.796875 55.203125 9.59375 55.203125 25.203125 
z
M 44.203125 25.203125 
C 44.203125 14.796875 38.796875 8.40625 31.296875 8.40625 
C 23.796875 8.40625 18.40625 14.796875 18.40625 25.203125 
C 18.40625 35.59375 23.796875 42 31.296875 42 
C 38.796875 42 44.203125 35.59375 44.203125 25.203125 
z
" id="ApercuPro-Medium-112"/>
     <path d="M 8.40625 70.796875 
L 8.40625 0 
L 18.796875 0 
L 18.796875 70.796875 
z
" id="ApercuPro-Medium-108"/>
     <path d="M 28.40625 42 
C 35.90625 42 39.703125 36.59375 40.59375 31 
L 16.09375 31 
C 17.203125 37.296875 21.5 42 28.40625 42 
z
M 51.59375 26.796875 
C 51.59375 38.09375 44.5 51.203125 28.40625 51.203125 
C 11.796875 51.203125 4.90625 37.203125 4.90625 25.203125 
C 4.90625 13.203125 11.796875 -0.796875 28.40625 -0.796875 
C 39.90625 -0.796875 45.59375 3.90625 50.5 13.40625 
L 41.59375 16.90625 
C 39 11.40625 33.796875 8.40625 28.40625 8.40625 
C 20.203125 8.40625 15.90625 14.90625 15.90625 22.296875 
L 51.59375 22.296875 
z
" id="ApercuPro-Medium-101"/>
     <path d="M 2.09375 41.203125 
L 10.5 41.203125 
L 10.5 17.203125 
C 10.5 4.796875 17.5 -0.796875 27 -0.796875 
C 29.796875 -0.796875 32.40625 -0.296875 35.09375 1 
L 32.40625 9.796875 
C 30.59375 8.703125 29.40625 8.40625 27.59375 8.40625 
C 23 8.40625 20.90625 10.90625 20.90625 16.59375 
L 20.90625 41.203125 
L 34 41.203125 
L 34 50.40625 
L 20.90625 50.40625 
L 20.90625 70.796875 
L 10.5 64.296875 
L 10.5 50.40625 
L 2.09375 50.40625 
z
" id="ApercuPro-Medium-116"/>
    </defs>
    <g style="opacity:0.75;" transform="translate(1044 144)scale(0.3 -0.3)">
     <use xlink:href="#ApercuPro-Medium-115"/>
     <use x="44.999985" xlink:href="#ApercuPro-Medium-97"/>
     <use x="96.384354" xlink:href="#ApercuPro-Medium-109"/>
     <use x="182.453094" xlink:href="#ApercuPro-Medium-112"/>
     <use x="242.553085" xlink:href="#ApercuPro-Medium-108"/>
     <use x="269.653076" xlink:href="#ApercuPro-Medium-101"/>
     <use x="325.55307" xlink:href="#ApercuPro-Medium-115"/>
     <use x="370.553055" xlink:href="#ApercuPro-Medium-101"/>
     <use x="426.453049" xlink:href="#ApercuPro-Medium-116"/>
    </g>
   </g>
   <g id="text_20">
    <!-- Predictions v. Actuals -->
    <defs>
     <path d="M 25.40625 70 
L 33.796875 70 
L 58 0 
L 49.203125 0 
L 43 18.703125 
L 16.203125 18.703125 
L 10 0 
L 1.203125 0 
z
M 29.59375 58.59375 
L 19 27.09375 
L 40.203125 27.09375 
z
" id="Apercu-65"/>
     <path d="M 14.203125 14.5 
Q 14.203125 10.90625 16.34375 8.84375 
Q 18.5 6.796875 22.5 6.796875 
Q 28.203125 6.796875 32.390625 10.546875 
Q 36.59375 14.296875 36.59375 22.203125 
L 36.59375 23.40625 
L 27.59375 23.40625 
Q 21.203125 23.40625 17.703125 21.09375 
Q 14.203125 18.796875 14.203125 14.5 
z
M 45 32.203125 
L 45 0 
L 38.40625 0 
L 37 7.09375 
Q 31.5 -0.796875 21.203125 -0.796875 
Q 14.40625 -0.796875 10 3 
Q 5.59375 6.796875 5.59375 14.5 
Q 5.59375 22.5 11.6875 26.75 
Q 17.796875 31 28.40625 31 
L 36.59375 31 
L 36.59375 33.203125 
Q 36.59375 43.59375 25.59375 43.59375 
Q 21.59375 43.59375 18.75 41.5 
Q 15.90625 39.40625 15.09375 35.703125 
L 7.703125 37.40625 
Q 8.703125 43.796875 13.59375 47.5 
Q 18.5 51.203125 25.59375 51.203125 
Q 34.40625 51.203125 39.703125 46.5 
Q 45 41.796875 45 32.203125 
z
" id="Apercu-97"/>
     <path d="M 9 70.796875 
L 17.40625 70.796875 
L 17.40625 0 
L 9 0 
z
" id="Apercu-108"/>
    </defs>
    <g style="opacity:0.75;" transform="translate(1045 158.4)scale(0.14 -0.14)">
     <use xlink:href="#Apercu-80"/>
     <use x="58.399994" xlink:href="#Apercu-114"/>
     <use x="99.699982" xlink:href="#Apercu-101"/>
     <use x="155.699966" xlink:href="#Apercu-100"/>
     <use x="215.768707" xlink:href="#Apercu-105"/>
     <use x="242.753067" xlink:href="#Apercu-99"/>
     <use x="296.56868" xlink:href="#Apercu-116"/>
     <use x="334.368668" xlink:href="#Apercu-105"/>
     <use x="361.368652" xlink:href="#Apercu-111"/>
     <use x="420.568649" xlink:href="#Apercu-110"/>
     <use x="478.253021" xlink:href="#Apercu-115"/>
     <use x="524.353012" xlink:href="#Apercu-32"/>
     <use x="551.153" xlink:href="#Apercu-118"/>
     <use x="596.752991" xlink:href="#Apercu-46"/>
     <use x="627.352982" xlink:href="#Apercu-32"/>
     <use x="654.152969" xlink:href="#Apercu-65"/>
     <use x="713.352966" xlink:href="#Apercu-99"/>
     <use x="767.168579" xlink:href="#Apercu-116"/>
     <use x="804.952942" xlink:href="#Apercu-117"/>
     <use x="862.652939" xlink:href="#Apercu-97"/>
     <use x="914.452927" xlink:href="#Apercu-108"/>
     <use x="940.252914" xlink:href="#Apercu-115"/>
    </g>
   </g>
   <g id="legend_1">
    <g id="patch_8">
     <path d="M 5972.976562 306.27375 
L 6081.4 306.27375 
Q 6084.2 306.27375 6084.2 303.47375 
L 6084.2 225.8 
Q 6084.2 223 6081.4 223 
L 5972.976562 223 
Q 5970.176562 223 5970.176562 225.8 
L 5970.176562 303.47375 
Q 5970.176562 306.27375 5972.976562 306.27375 
z
" style="fill:#f0f0f0;opacity:0.8;stroke:#cccccc;stroke-linejoin:miter;stroke-width:0.5;"/>
    </g>
    <g id="line2d_36">
     <path d="M 5975.776563 233.611563 
L 6003.776563 233.611563 
" style="fill:none;stroke:#000004;stroke-width:3;"/>
    </g>
    <g id="line2d_37"/>
    <g id="text_21">
     <!-- pred bid -->
     <defs>
      <path d="M 32.296875 -0.796875 
Q 27.796875 -0.796875 23.640625 1.25 
Q 19.5 3.296875 17.59375 6.203125 
L 17.59375 0 
L 9.203125 0 
L 9.203125 70.796875 
L 17.59375 70.796875 
L 17.59375 44.40625 
Q 19 46.796875 23.390625 49 
Q 27.796875 51.203125 32.296875 51.203125 
Q 43.09375 51.203125 48.890625 44.046875 
Q 54.703125 36.90625 54.703125 25.203125 
Q 54.703125 13.5 48.890625 6.34375 
Q 43.09375 -0.796875 32.296875 -0.796875 
z
M 31.5 43.59375 
Q 24.703125 43.59375 20.796875 38.5 
Q 16.90625 33.40625 16.90625 25.203125 
Q 16.90625 17 20.796875 11.890625 
Q 24.703125 6.796875 31.5 6.796875 
Q 38.09375 6.796875 42.09375 11.890625 
Q 46.09375 17 46.09375 25.203125 
Q 46.09375 33.40625 42.09375 38.5 
Q 38.09375 43.59375 31.5 43.59375 
z
" id="Apercu-98"/>
     </defs>
     <g style="opacity:0.75;" transform="translate(6014.976562 238.511563)scale(0.14 -0.14)">
      <use xlink:href="#Apercu-112"/>
      <use x="60.099991" xlink:href="#Apercu-114"/>
      <use x="101.399979" xlink:href="#Apercu-101"/>
      <use x="157.399963" xlink:href="#Apercu-100"/>
      <use x="217.499954" xlink:href="#Apercu-32"/>
      <use x="244.299942" xlink:href="#Apercu-98"/>
      <use x="304.384308" xlink:href="#Apercu-105"/>
      <use x="331.384293" xlink:href="#Apercu-100"/>
     </g>
    </g>
    <g id="line2d_38">
     <path d="M 5975.776563 253.38 
L 6003.776563 253.38 
" style="fill:none;stroke:#b73779;stroke-width:3;"/>
    </g>
    <g id="line2d_39"/>
    <g id="text_22">
     <!-- pred ask -->
     <defs>
      <path d="M 9.203125 70.796875 
L 17.59375 70.796875 
L 17.59375 29.296875 
L 37.203125 50.40625 
L 48 50.40625 
L 26.59375 27.296875 
L 49.59375 0 
L 38.90625 0 
L 17.59375 25.296875 
L 17.59375 0 
L 9.203125 0 
z
" id="Apercu-107"/>
     </defs>
     <g style="opacity:0.75;" transform="translate(6014.976562 258.28)scale(0.14 -0.14)">
      <use xlink:href="#Apercu-112"/>
      <use x="60.099991" xlink:href="#Apercu-114"/>
      <use x="101.399979" xlink:href="#Apercu-101"/>
      <use x="157.399963" xlink:href="#Apercu-100"/>
      <use x="217.499954" xlink:href="#Apercu-32"/>
      <use x="244.299942" xlink:href="#Apercu-97"/>
      <use x="296.09993" xlink:href="#Apercu-115"/>
      <use x="342.184296" xlink:href="#Apercu-107"/>
     </g>
    </g>
    <g id="line2d_40">
     <path d="M 5975.776563 273.148438 
L 6003.776563 273.148438 
" style="fill:none;stroke:#2ca02c;stroke-width:4;"/>
    </g>
    <g id="line2d_41"/>
    <g id="text_23">
     <!-- actual bid -->
     <g style="opacity:0.75;" transform="translate(6014.976562 278.048438)scale(0.14 -0.14)">
      <use xlink:href="#Apercu-97"/>
      <use x="51.799988" xlink:href="#Apercu-99"/>
      <use x="105.615601" xlink:href="#Apercu-116"/>
      <use x="143.399963" xlink:href="#Apercu-117"/>
      <use x="201.09996" xlink:href="#Apercu-97"/>
      <use x="252.899948" xlink:href="#Apercu-108"/>
      <use x="278.699936" xlink:href="#Apercu-32"/>
      <use x="305.499924" xlink:href="#Apercu-98"/>
      <use x="365.58429" xlink:href="#Apercu-105"/>
      <use x="392.584274" xlink:href="#Apercu-100"/>
     </g>
    </g>
    <g id="line2d_42">
     <path d="M 5975.776563 292.916875 
L 6003.776563 292.916875 
" style="fill:none;stroke:#d62728;stroke-width:4;"/>
    </g>
    <g id="line2d_43"/>
    <g id="text_24">
     <!-- actual ask -->
     <g style="opacity:0.75;" transform="translate(6014.976562 297.816875)scale(0.14 -0.14)">
      <use xlink:href="#Apercu-97"/>
      <use x="51.799988" xlink:href="#Apercu-99"/>
      <use x="105.615601" xlink:href="#Apercu-116"/>
      <use x="143.399963" xlink:href="#Apercu-117"/>
      <use x="201.09996" xlink:href="#Apercu-97"/>
      <use x="252.899948" xlink:href="#Apercu-108"/>
      <use x="278.699936" xlink:href="#Apercu-32"/>
      <use x="305.499924" xlink:href="#Apercu-97"/>
      <use x="357.299911" xlink:href="#Apercu-115"/>
      <use x="403.384277" xlink:href="#Apercu-107"/>
     </g>
    </g>
   </g>
  </g>
 </g>
 <defs>
  <clipPath id="p685cff3fe2">
   <rect height="964.8" width="5313.6" x="777.6" y="216"/>
  </clipPath>
 </defs>
</svg>
