<?xml version="1.0" encoding="utf-8" standalone="no"?>
<!DOCTYPE svg PUBLIC "-//W3C//DTD SVG 1.1//EN"
  "http://www.w3.org/Graphics/SVG/1.1/DTD/svg11.dtd">
<!-- Created with matplotlib (https://matplotlib.org/) -->
<svg height="1440pt" version="1.1" viewBox="0 0 6480 1440" width="6480pt" xmlns="http://www.w3.org/2000/svg" xmlns:xlink="http://www.w3.org/1999/xlink">
 <defs>
  <style type="text/css">
*{stroke-linecap:butt;stroke-linejoin:round;}
  </style>
 </defs>
 <g id="figure_1">
  <g id="patch_1">
   <path d="M 0 1440 
L 6480 1440 
L 6480 0 
L 0 0 
z
" style="fill:#f0f0f0;"/>
  </g>
  <g id="axes_1">
   <g id="patch_2">
    <path d="M 777.6 1180.8 
L 6091.2 1180.8 
L 6091.2 216 
L 777.6 216 
z
" style="fill:#f0f0f0;"/>
   </g>
   <g id="matplotlib.axis_1">
    <g id="xtick_1">
     <g id="line2d_1">
      <path clip-path="url(#p208f84abc8)" d="M 777.6 1180.8 
L 777.6 216 
" style="fill:none;stroke:#b0b0b0;stroke-linecap:square;stroke-width:0.8;"/>
     </g>
     <g id="line2d_2">
      <defs>
       <path d="M 0 0 
L 0 3.5 
" id="m702c78b402" style="stroke:#000000;stroke-width:0.8;"/>
      </defs>
      <g>
       <use style="stroke:#000000;stroke-width:0.8;" x="777.6" xlink:href="#m702c78b402" y="1180.8"/>
      </g>
     </g>
     <g id="text_1">
      <!-- 0 -->
      <defs>
       <path d="M 31.78125 66.40625 
Q 24.171875 66.40625 20.328125 58.90625 
Q 16.5 51.421875 16.5 36.375 
Q 16.5 21.390625 20.328125 13.890625 
Q 24.171875 6.390625 31.78125 6.390625 
Q 39.453125 6.390625 43.28125 13.890625 
Q 47.125 21.390625 47.125 36.375 
Q 47.125 51.421875 43.28125 58.90625 
Q 39.453125 66.40625 31.78125 66.40625 
z
M 31.78125 74.21875 
Q 44.046875 74.21875 50.515625 64.515625 
Q 56.984375 54.828125 56.984375 36.375 
Q 56.984375 17.96875 50.515625 8.265625 
Q 44.046875 -1.421875 31.78125 -1.421875 
Q 19.53125 -1.421875 13.0625 8.265625 
Q 6.59375 17.96875 6.59375 36.375 
Q 6.59375 54.828125 13.0625 64.515625 
Q 19.53125 74.21875 31.78125 74.21875 
z
" id="DejaVuSans-48"/>
      </defs>
      <g style="fill:#303030;" transform="translate(773.14625 1198.437812)scale(0.14 -0.14)">
       <use xlink:href="#DejaVuSans-48"/>
      </g>
     </g>
    </g>
    <g id="xtick_2">
     <g id="line2d_3">
      <path clip-path="url(#p208f84abc8)" d="M 1442.132266 1180.8 
L 1442.132266 216 
" style="fill:none;stroke:#b0b0b0;stroke-linecap:square;stroke-width:0.8;"/>
     </g>
     <g id="line2d_4">
      <g>
       <use style="stroke:#000000;stroke-width:0.8;" x="1442.132266" xlink:href="#m702c78b402" y="1180.8"/>
      </g>
     </g>
     <g id="text_2">
      <!-- 250 -->
      <defs>
       <path d="M 19.1875 8.296875 
L 53.609375 8.296875 
L 53.609375 0 
L 7.328125 0 
L 7.328125 8.296875 
Q 12.9375 14.109375 22.625 23.890625 
Q 32.328125 33.6875 34.8125 36.53125 
Q 39.546875 41.84375 41.421875 45.53125 
Q 43.3125 49.21875 43.3125 52.78125 
Q 43.3125 58.59375 39.234375 62.25 
Q 35.15625 65.921875 28.609375 65.921875 
Q 23.96875 65.921875 18.8125 64.3125 
Q 13.671875 62.703125 7.8125 59.421875 
L 7.8125 69.390625 
Q 13.765625 71.78125 18.9375 73 
Q 24.125 74.21875 28.421875 74.21875 
Q 39.75 74.21875 46.484375 68.546875 
Q 53.21875 62.890625 53.21875 53.421875 
Q 53.21875 48.921875 51.53125 44.890625 
Q 49.859375 40.875 45.40625 35.40625 
Q 44.1875 33.984375 37.640625 27.21875 
Q 31.109375 20.453125 19.1875 8.296875 
z
" id="DejaVuSans-50"/>
       <path d="M 10.796875 72.90625 
L 49.515625 72.90625 
L 49.515625 64.59375 
L 19.828125 64.59375 
L 19.828125 46.734375 
Q 21.96875 47.46875 24.109375 47.828125 
Q 26.265625 48.1875 28.421875 48.1875 
Q 40.625 48.1875 47.75 41.5 
Q 54.890625 34.8125 54.890625 23.390625 
Q 54.890625 11.625 47.5625 5.09375 
Q 40.234375 -1.421875 26.90625 -1.421875 
Q 22.3125 -1.421875 17.546875 -0.640625 
Q 12.796875 0.140625 7.71875 1.703125 
L 7.71875 11.625 
Q 12.109375 9.234375 16.796875 8.0625 
Q 21.484375 6.890625 26.703125 6.890625 
Q 35.15625 6.890625 40.078125 11.328125 
Q 45.015625 15.765625 45.015625 23.390625 
Q 45.015625 31 40.078125 35.4375 
Q 35.15625 39.890625 26.703125 39.890625 
Q 22.75 39.890625 18.8125 39.015625 
Q 14.890625 38.140625 10.796875 36.28125 
z
" id="DejaVuSans-53"/>
      </defs>
      <g style="fill:#303030;" transform="translate(1428.771016 1198.437812)scale(0.14 -0.14)">
       <use xlink:href="#DejaVuSans-50"/>
       <use x="63.623047" xlink:href="#DejaVuSans-53"/>
       <use x="127.246094" xlink:href="#DejaVuSans-48"/>
      </g>
     </g>
    </g>
    <g id="xtick_3">
     <g id="line2d_5">
      <path clip-path="url(#p208f84abc8)" d="M 2106.664532 1180.8 
L 2106.664532 216 
" style="fill:none;stroke:#b0b0b0;stroke-linecap:square;stroke-width:0.8;"/>
     </g>
     <g id="line2d_6">
      <g>
       <use style="stroke:#000000;stroke-width:0.8;" x="2106.664532" xlink:href="#m702c78b402" y="1180.8"/>
      </g>
     </g>
     <g id="text_3">
      <!-- 500 -->
      <g style="fill:#303030;" transform="translate(2093.303282 1198.437812)scale(0.14 -0.14)">
       <use xlink:href="#DejaVuSans-53"/>
       <use x="63.623047" xlink:href="#DejaVuSans-48"/>
       <use x="127.246094" xlink:href="#DejaVuSans-48"/>
      </g>
     </g>
    </g>
    <g id="xtick_4">
     <g id="line2d_7">
      <path clip-path="url(#p208f84abc8)" d="M 2771.196798 1180.8 
L 2771.196798 216 
" style="fill:none;stroke:#b0b0b0;stroke-linecap:square;stroke-width:0.8;"/>
     </g>
     <g id="line2d_8">
      <g>
       <use style="stroke:#000000;stroke-width:0.8;" x="2771.196798" xlink:href="#m702c78b402" y="1180.8"/>
      </g>
     </g>
     <g id="text_4">
      <!-- 750 -->
      <defs>
       <path d="M 8.203125 72.90625 
L 55.078125 72.90625 
L 55.078125 68.703125 
L 28.609375 0 
L 18.3125 0 
L 43.21875 64.59375 
L 8.203125 64.59375 
z
" id="DejaVuSans-55"/>
      </defs>
      <g style="fill:#303030;" transform="translate(2757.835548 1198.437812)scale(0.14 -0.14)">
       <use xlink:href="#DejaVuSans-55"/>
       <use x="63.623047" xlink:href="#DejaVuSans-53"/>
       <use x="127.246094" xlink:href="#DejaVuSans-48"/>
      </g>
     </g>
    </g>
    <g id="xtick_5">
     <g id="line2d_9">
      <path clip-path="url(#p208f84abc8)" d="M 3435.729065 1180.8 
L 3435.729065 216 
" style="fill:none;stroke:#b0b0b0;stroke-linecap:square;stroke-width:0.8;"/>
     </g>
     <g id="line2d_10">
      <g>
       <use style="stroke:#000000;stroke-width:0.8;" x="3435.729065" xlink:href="#m702c78b402" y="1180.8"/>
      </g>
     </g>
     <g id="text_5">
      <!-- 1000 -->
      <defs>
       <path d="M 12.40625 8.296875 
L 28.515625 8.296875 
L 28.515625 63.921875 
L 10.984375 60.40625 
L 10.984375 69.390625 
L 28.421875 72.90625 
L 38.28125 72.90625 
L 38.28125 8.296875 
L 54.390625 8.296875 
L 54.390625 0 
L 12.40625 0 
z
" id="DejaVuSans-49"/>
      </defs>
      <g style="fill:#303030;" transform="translate(3417.914065 1198.437812)scale(0.14 -0.14)">
       <use xlink:href="#DejaVuSans-49"/>
       <use x="63.623047" xlink:href="#DejaVuSans-48"/>
       <use x="127.246094" xlink:href="#DejaVuSans-48"/>
       <use x="190.869141" xlink:href="#DejaVuSans-48"/>
      </g>
     </g>
    </g>
    <g id="xtick_6">
     <g id="line2d_11">
      <path clip-path="url(#p208f84abc8)" d="M 4100.261331 1180.8 
L 4100.261331 216 
" style="fill:none;stroke:#b0b0b0;stroke-linecap:square;stroke-width:0.8;"/>
     </g>
     <g id="line2d_12">
      <g>
       <use style="stroke:#000000;stroke-width:0.8;" x="4100.261331" xlink:href="#m702c78b402" y="1180.8"/>
      </g>
     </g>
     <g id="text_6">
      <!-- 1250 -->
      <g style="fill:#303030;" transform="translate(4082.446331 1198.437812)scale(0.14 -0.14)">
       <use xlink:href="#DejaVuSans-49"/>
       <use x="63.623047" xlink:href="#DejaVuSans-50"/>
       <use x="127.246094" xlink:href="#DejaVuSans-53"/>
       <use x="190.869141" xlink:href="#DejaVuSans-48"/>
      </g>
     </g>
    </g>
    <g id="xtick_7">
     <g id="line2d_13">
      <path clip-path="url(#p208f84abc8)" d="M 4764.793597 1180.8 
L 4764.793597 216 
" style="fill:none;stroke:#b0b0b0;stroke-linecap:square;stroke-width:0.8;"/>
     </g>
     <g id="line2d_14">
      <g>
       <use style="stroke:#000000;stroke-width:0.8;" x="4764.793597" xlink:href="#m702c78b402" y="1180.8"/>
      </g>
     </g>
     <g id="text_7">
      <!-- 1500 -->
      <g style="fill:#303030;" transform="translate(4746.978597 1198.437812)scale(0.14 -0.14)">
       <use xlink:href="#DejaVuSans-49"/>
       <use x="63.623047" xlink:href="#DejaVuSans-53"/>
       <use x="127.246094" xlink:href="#DejaVuSans-48"/>
       <use x="190.869141" xlink:href="#DejaVuSans-48"/>
      </g>
     </g>
    </g>
    <g id="xtick_8">
     <g id="line2d_15">
      <path clip-path="url(#p208f84abc8)" d="M 5429.325863 1180.8 
L 5429.325863 216 
" style="fill:none;stroke:#b0b0b0;stroke-linecap:square;stroke-width:0.8;"/>
     </g>
     <g id="line2d_16">
      <g>
       <use style="stroke:#000000;stroke-width:0.8;" x="5429.325863" xlink:href="#m702c78b402" y="1180.8"/>
      </g>
     </g>
     <g id="text_8">
      <!-- 1750 -->
      <g style="fill:#303030;" transform="translate(5411.510863 1198.437812)scale(0.14 -0.14)">
       <use xlink:href="#DejaVuSans-49"/>
       <use x="63.623047" xlink:href="#DejaVuSans-55"/>
       <use x="127.246094" xlink:href="#DejaVuSans-53"/>
       <use x="190.869141" xlink:href="#DejaVuSans-48"/>
      </g>
     </g>
    </g>
    <g id="text_9">
     <!-- x -->
     <defs>
      <path d="M 3.59375 50.40625 
L 13.09375 50.40625 
L 22.90625 34.40625 
L 32.703125 50.40625 
L 42.203125 50.40625 
L 27.59375 26.59375 
L 44 0 
L 34.5 0 
L 22.90625 18.90625 
L 11.296875 0 
L 1.796875 0 
L 18.203125 26.59375 
z
" id="Apercu-120"/>
     </defs>
     <g style="opacity:0.75;" transform="translate(3431.194219 1215.260937)scale(0.14 -0.14)">
      <use xlink:href="#Apercu-120"/>
     </g>
    </g>
   </g>
   <g id="matplotlib.axis_2">
    <g id="ytick_1">
     <g id="line2d_17">
      <path clip-path="url(#p208f84abc8)" d="M 777.6 1136.945455 
L 6091.2 1136.945455 
" style="fill:none;stroke:#b0b0b0;stroke-linecap:square;stroke-width:0.8;"/>
     </g>
     <g id="line2d_18">
      <defs>
       <path d="M 0 0 
L -3.5 0 
" id="m6844519524" style="stroke:#000000;stroke-width:0.8;"/>
      </defs>
      <g>
       <use style="stroke:#000000;stroke-width:0.8;" x="777.6" xlink:href="#m6844519524" y="1136.945455"/>
      </g>
     </g>
     <g id="text_10">
      <!-- 0 -->
      <g style="fill:#303030;" transform="translate(761.6925 1142.264361)scale(0.14 -0.14)">
       <use xlink:href="#DejaVuSans-48"/>
      </g>
     </g>
    </g>
    <g id="ytick_2">
     <g id="line2d_19">
      <path clip-path="url(#p208f84abc8)" d="M 777.6 990.763636 
L 6091.2 990.763636 
" style="fill:none;stroke:#b0b0b0;stroke-linecap:square;stroke-width:0.8;"/>
     </g>
     <g id="line2d_20">
      <g>
       <use style="stroke:#000000;stroke-width:0.8;" x="777.6" xlink:href="#m6844519524" y="990.763636"/>
      </g>
     </g>
     <g id="text_11">
      <!-- 2 -->
      <g style="fill:#303030;" transform="translate(761.6925 996.082543)scale(0.14 -0.14)">
       <use xlink:href="#DejaVuSans-50"/>
      </g>
     </g>
    </g>
    <g id="ytick_3">
     <g id="line2d_21">
      <path clip-path="url(#p208f84abc8)" d="M 777.6 844.581818 
L 6091.2 844.581818 
" style="fill:none;stroke:#b0b0b0;stroke-linecap:square;stroke-width:0.8;"/>
     </g>
     <g id="line2d_22">
      <g>
       <use style="stroke:#000000;stroke-width:0.8;" x="777.6" xlink:href="#m6844519524" y="844.581818"/>
      </g>
     </g>
     <g id="text_12">
      <!-- 4 -->
      <defs>
       <path d="M 37.796875 64.3125 
L 12.890625 25.390625 
L 37.796875 25.390625 
z
M 35.203125 72.90625 
L 47.609375 72.90625 
L 47.609375 25.390625 
L 58.015625 25.390625 
L 58.015625 17.1875 
L 47.609375 17.1875 
L 47.609375 0 
L 37.796875 0 
L 37.796875 17.1875 
L 4.890625 17.1875 
L 4.890625 26.703125 
z
" id="DejaVuSans-52"/>
      </defs>
      <g style="fill:#303030;" transform="translate(761.6925 849.900724)scale(0.14 -0.14)">
       <use xlink:href="#DejaVuSans-52"/>
      </g>
     </g>
    </g>
    <g id="ytick_4">
     <g id="line2d_23">
      <path clip-path="url(#p208f84abc8)" d="M 777.6 698.4 
L 6091.2 698.4 
" style="fill:none;stroke:#b0b0b0;stroke-linecap:square;stroke-width:0.8;"/>
     </g>
     <g id="line2d_24">
      <g>
       <use style="stroke:#000000;stroke-width:0.8;" x="777.6" xlink:href="#m6844519524" y="698.4"/>
      </g>
     </g>
     <g id="text_13">
      <!-- 6 -->
      <defs>
       <path d="M 33.015625 40.375 
Q 26.375 40.375 22.484375 35.828125 
Q 18.609375 31.296875 18.609375 23.390625 
Q 18.609375 15.53125 22.484375 10.953125 
Q 26.375 6.390625 33.015625 6.390625 
Q 39.65625 6.390625 43.53125 10.953125 
Q 47.40625 15.53125 47.40625 23.390625 
Q 47.40625 31.296875 43.53125 35.828125 
Q 39.65625 40.375 33.015625 40.375 
z
M 52.59375 71.296875 
L 52.59375 62.3125 
Q 48.875 64.0625 45.09375 64.984375 
Q 41.3125 65.921875 37.59375 65.921875 
Q 27.828125 65.921875 22.671875 59.328125 
Q 17.53125 52.734375 16.796875 39.40625 
Q 19.671875 43.65625 24.015625 45.921875 
Q 28.375 48.1875 33.59375 48.1875 
Q 44.578125 48.1875 50.953125 41.515625 
Q 57.328125 34.859375 57.328125 23.390625 
Q 57.328125 12.15625 50.6875 5.359375 
Q 44.046875 -1.421875 33.015625 -1.421875 
Q 20.359375 -1.421875 13.671875 8.265625 
Q 6.984375 17.96875 6.984375 36.375 
Q 6.984375 53.65625 15.1875 63.9375 
Q 23.390625 74.21875 37.203125 74.21875 
Q 40.921875 74.21875 44.703125 73.484375 
Q 48.484375 72.75 52.59375 71.296875 
z
" id="DejaVuSans-54"/>
      </defs>
      <g style="fill:#303030;" transform="translate(761.6925 703.718906)scale(0.14 -0.14)">
       <use xlink:href="#DejaVuSans-54"/>
      </g>
     </g>
    </g>
    <g id="ytick_5">
     <g id="line2d_25">
      <path clip-path="url(#p208f84abc8)" d="M 777.6 552.218182 
L 6091.2 552.218182 
" style="fill:none;stroke:#b0b0b0;stroke-linecap:square;stroke-width:0.8;"/>
     </g>
     <g id="line2d_26">
      <g>
       <use style="stroke:#000000;stroke-width:0.8;" x="777.6" xlink:href="#m6844519524" y="552.218182"/>
      </g>
     </g>
     <g id="text_14">
      <!-- 8 -->
      <defs>
       <path d="M 31.78125 34.625 
Q 24.75 34.625 20.71875 30.859375 
Q 16.703125 27.09375 16.703125 20.515625 
Q 16.703125 13.921875 20.71875 10.15625 
Q 24.75 6.390625 31.78125 6.390625 
Q 38.8125 6.390625 42.859375 10.171875 
Q 46.921875 13.96875 46.921875 20.515625 
Q 46.921875 27.09375 42.890625 30.859375 
Q 38.875 34.625 31.78125 34.625 
z
M 21.921875 38.8125 
Q 15.578125 40.375 12.03125 44.71875 
Q 8.5 49.078125 8.5 55.328125 
Q 8.5 64.0625 14.71875 69.140625 
Q 20.953125 74.21875 31.78125 74.21875 
Q 42.671875 74.21875 48.875 69.140625 
Q 55.078125 64.0625 55.078125 55.328125 
Q 55.078125 49.078125 51.53125 44.71875 
Q 48 40.375 41.703125 38.8125 
Q 48.828125 37.15625 52.796875 32.3125 
Q 56.78125 27.484375 56.78125 20.515625 
Q 56.78125 9.90625 50.3125 4.234375 
Q 43.84375 -1.421875 31.78125 -1.421875 
Q 19.734375 -1.421875 13.25 4.234375 
Q 6.78125 9.90625 6.78125 20.515625 
Q 6.78125 27.484375 10.78125 32.3125 
Q 14.796875 37.15625 21.921875 38.8125 
z
M 18.3125 54.390625 
Q 18.3125 48.734375 21.84375 45.5625 
Q 25.390625 42.390625 31.78125 42.390625 
Q 38.140625 42.390625 41.71875 45.5625 
Q 45.3125 48.734375 45.3125 54.390625 
Q 45.3125 60.0625 41.71875 63.234375 
Q 38.140625 66.40625 31.78125 66.40625 
Q 25.390625 66.40625 21.84375 63.234375 
Q 18.3125 60.0625 18.3125 54.390625 
z
" id="DejaVuSans-56"/>
      </defs>
      <g style="fill:#303030;" transform="translate(761.6925 557.537088)scale(0.14 -0.14)">
       <use xlink:href="#DejaVuSans-56"/>
      </g>
     </g>
    </g>
    <g id="ytick_6">
     <g id="line2d_27">
      <path clip-path="url(#p208f84abc8)" d="M 777.6 406.036364 
L 6091.2 406.036364 
" style="fill:none;stroke:#b0b0b0;stroke-linecap:square;stroke-width:0.8;"/>
     </g>
     <g id="line2d_28">
      <g>
       <use style="stroke:#000000;stroke-width:0.8;" x="777.6" xlink:href="#m6844519524" y="406.036364"/>
      </g>
     </g>
     <g id="text_15">
      <!-- 10 -->
      <g style="fill:#303030;" transform="translate(752.785 411.35527)scale(0.14 -0.14)">
       <use xlink:href="#DejaVuSans-49"/>
       <use x="63.623047" xlink:href="#DejaVuSans-48"/>
      </g>
     </g>
    </g>
    <g id="ytick_7">
     <g id="line2d_29">
      <path clip-path="url(#p208f84abc8)" d="M 777.6 259.854545 
L 6091.2 259.854545 
" style="fill:none;stroke:#b0b0b0;stroke-linecap:square;stroke-width:0.8;"/>
     </g>
     <g id="line2d_30">
      <g>
       <use style="stroke:#000000;stroke-width:0.8;" x="777.6" xlink:href="#m6844519524" y="259.854545"/>
      </g>
     </g>
     <g id="text_16">
      <!-- 12 -->
      <g style="fill:#303030;" transform="translate(752.785 265.173452)scale(0.14 -0.14)">
       <use xlink:href="#DejaVuSans-49"/>
       <use x="63.623047" xlink:href="#DejaVuSans-50"/>
      </g>
     </g>
    </g>
    <g id="text_17">
     <!-- Predictions v. Input. -->
     <defs>
      <path d="M 34.09375 30 
L 18.5 30 
L 18.5 0 
L 9.703125 0 
L 9.703125 70 
L 34.09375 70 
Q 43.90625 70 49.40625 64.59375 
Q 54.90625 59.203125 54.90625 50 
Q 54.90625 40.796875 49.40625 35.390625 
Q 43.90625 30 34.09375 30 
z
M 34.59375 38.40625 
Q 40 38.40625 42.890625 41.40625 
Q 45.796875 44.40625 45.796875 50 
Q 45.796875 55.59375 42.890625 58.59375 
Q 40 61.59375 34.59375 61.59375 
L 18.5 61.59375 
L 18.5 38.40625 
z
" id="Apercu-80"/>
      <path d="M 39.296875 49.703125 
L 37.59375 42.203125 
Q 34.796875 43.59375 31.703125 43.59375 
Q 26 43.59375 21.796875 37.140625 
Q 17.59375 30.703125 17.59375 19.09375 
L 17.59375 0 
L 9.203125 0 
L 9.203125 50.40625 
L 17.59375 50.40625 
L 17.59375 41.796875 
Q 19.796875 46 24 48.59375 
Q 28.203125 51.203125 32.40625 51.203125 
Q 36.5 51.203125 39.296875 49.703125 
z
" id="Apercu-114"/>
      <path d="M 51 27.296875 
L 51 23.40625 
L 14 23.40625 
Q 14.40625 16 18.046875 11.390625 
Q 21.703125 6.796875 28.203125 6.796875 
Q 33.5 6.796875 36.75 9.140625 
Q 40 11.5 42.203125 16.40625 
L 49.59375 13.203125 
Q 46.09375 5.796875 41.046875 2.5 
Q 36 -0.796875 28.203125 -0.796875 
Q 17.296875 -0.796875 11.34375 6.75 
Q 5.40625 14.296875 5.40625 25.1875 
Q 5.40625 36.09375 11.34375 43.640625 
Q 17.296875 51.203125 28.203125 51.203125 
Q 38.90625 51.203125 44.953125 44.25 
Q 51 37.296875 51 27.296875 
z
M 28.203125 43.59375 
Q 22.59375 43.59375 19.140625 40.1875 
Q 15.703125 36.796875 14.5 31 
L 42.203125 31 
Q 41 36.703125 37.5 40.140625 
Q 34 43.59375 28.203125 43.59375 
z
" id="Apercu-101"/>
      <path d="M 27.796875 51.203125 
Q 32.296875 51.203125 36.6875 49 
Q 41.09375 46.796875 42.5 44.40625 
L 42.5 70.796875 
L 50.90625 70.796875 
L 50.90625 0 
L 42.5 0 
L 42.5 6.203125 
Q 40.59375 3.296875 36.4375 1.25 
Q 32.296875 -0.796875 27.796875 -0.796875 
Q 17 -0.796875 11.203125 6.34375 
Q 5.40625 13.5 5.40625 25.203125 
Q 5.40625 36.90625 11.203125 44.046875 
Q 17 51.203125 27.796875 51.203125 
z
M 28.59375 6.796875 
Q 35.40625 6.796875 39.296875 11.890625 
Q 43.203125 17 43.203125 25.203125 
Q 43.203125 33.40625 39.296875 38.5 
Q 35.40625 43.59375 28.59375 43.59375 
Q 22 43.59375 18 38.5 
Q 14 33.40625 14 25.203125 
Q 14 17 18 11.890625 
Q 22 6.796875 28.59375 6.796875 
z
" id="Apercu-100"/>
      <path d="M 9.296875 50.40625 
L 17.703125 50.40625 
L 17.703125 0 
L 9.296875 0 
z
M 7.203125 64.40625 
Q 7.203125 67.09375 9 68.9375 
Q 10.796875 70.796875 13.5 70.796875 
Q 16.203125 70.796875 18 68.9375 
Q 19.796875 67.09375 19.796875 64.40625 
Q 19.796875 61.796875 18 60 
Q 16.203125 58.203125 13.5 58.203125 
Q 10.796875 58.203125 9 60 
Q 7.203125 61.796875 7.203125 64.40625 
z
" id="Apercu-105"/>
      <path d="M 42.09375 16.09375 
L 49.40625 13.09375 
Q 43.296875 -0.796875 28.296875 -0.796875 
Q 17.296875 -0.796875 11.34375 6.75 
Q 5.40625 14.296875 5.40625 25.1875 
Q 5.40625 36.09375 11.34375 43.640625 
Q 17.296875 51.203125 28.296875 51.203125 
Q 43.296875 51.203125 49.40625 37.296875 
L 42.09375 34.296875 
Q 38.09375 43.59375 28.296875 43.59375 
Q 21.296875 43.59375 17.640625 38.4375 
Q 14 33.296875 14 25.1875 
Q 14 17.09375 17.640625 11.9375 
Q 21.296875 6.796875 28.296875 6.796875 
Q 38.09375 6.796875 42.09375 16.09375 
z
" id="Apercu-99"/>
      <path d="M 2.5 42.796875 
L 2.5 50.40625 
L 11.203125 50.40625 
L 11.203125 65.5 
L 19.59375 70.796875 
L 19.59375 50.40625 
L 32.796875 50.40625 
L 32.796875 42.796875 
L 19.59375 42.796875 
L 19.59375 15.09375 
Q 19.59375 11.09375 21.34375 8.9375 
Q 23.09375 6.796875 26.296875 6.796875 
Q 29.59375 6.796875 32 8.40625 
L 34 1.09375 
Q 30.703125 -0.796875 25.796875 -0.796875 
Q 19.09375 -0.796875 15.140625 3.390625 
Q 11.203125 7.59375 11.203125 15.796875 
L 11.203125 42.796875 
z
" id="Apercu-116"/>
      <path d="M 12 6.796875 
Q 5.40625 14.5 5.40625 25.203125 
Q 5.40625 35.90625 12.046875 43.546875 
Q 18.703125 51.203125 29.59375 51.203125 
Q 40.5 51.203125 47.140625 43.546875 
Q 53.796875 35.90625 53.796875 25.203125 
Q 53.796875 14.5 47.140625 6.84375 
Q 40.5 -0.796875 29.59375 -0.796875 
Q 18.703125 -0.796875 12 6.796875 
z
M 18.09375 38.09375 
Q 14 32.703125 14 25.203125 
Q 14 17.703125 18.140625 12.25 
Q 22.296875 6.796875 29.59375 6.796875 
Q 36.90625 6.796875 41.046875 12.25 
Q 45.203125 17.703125 45.203125 25.203125 
Q 45.203125 32.703125 41.046875 38.140625 
Q 36.90625 43.59375 29.59375 43.59375 
Q 22.296875 43.59375 18.09375 38.09375 
z
" id="Apercu-111"/>
      <path d="M 49.09375 35.5 
L 49.09375 0 
L 40.703125 0 
L 40.703125 33.296875 
Q 40.703125 43.59375 32 43.59375 
Q 26.09375 43.59375 21.84375 37.390625 
Q 17.59375 31.203125 17.59375 21.09375 
L 17.59375 0 
L 9.203125 0 
L 9.203125 50.40625 
L 17.59375 50.40625 
L 17.59375 41.09375 
Q 23.296875 51.203125 34.296875 51.203125 
Q 41.203125 51.203125 45.140625 47.09375 
Q 49.09375 43 49.09375 35.5 
z
" id="Apercu-110"/>
      <path d="M 23.59375 51.203125 
Q 32.796875 51.203125 38.203125 43.5 
L 32.5 38.59375 
Q 27.90625 43.59375 23.296875 43.59375 
Q 20.703125 43.59375 18.953125 41.890625 
Q 17.203125 40.203125 17.203125 37.203125 
Q 17.203125 34.703125 19.59375 32.890625 
Q 22 31.09375 25.453125 29.75 
Q 28.90625 28.40625 32.34375 26.796875 
Q 35.796875 25.203125 38.1875 22.25 
Q 40.59375 19.296875 40.59375 15.203125 
Q 40.59375 7.703125 36.09375 3.453125 
Q 31.59375 -0.796875 23.90625 -0.796875 
Q 16.796875 -0.796875 12.046875 3.09375 
Q 7.296875 7 5.09375 12.796875 
L 12.203125 16.703125 
Q 16.203125 6.796875 23.90625 6.796875 
Q 32 6.796875 32 14.703125 
Q 32 17.203125 29.59375 19 
Q 27.203125 20.796875 23.796875 22.046875 
Q 20.40625 23.296875 17 24.890625 
Q 13.59375 26.5 11.1875 29.640625 
Q 8.796875 32.796875 8.796875 37.296875 
Q 8.796875 43.296875 12.84375 47.25 
Q 16.90625 51.203125 23.59375 51.203125 
z
" id="Apercu-115"/>
      <path id="Apercu-32"/>
      <path d="M 35.09375 50.40625 
L 43.703125 50.40625 
L 27.09375 0 
L 18.5 0 
L 1.90625 50.40625 
L 10.5 50.40625 
L 22.796875 10.703125 
z
" id="Apercu-118"/>
      <path d="M 9 5.90625 
Q 9 8.5 10.796875 10.34375 
Q 12.59375 12.203125 15.296875 12.203125 
Q 17.90625 12.203125 19.75 10.34375 
Q 21.59375 8.5 21.59375 5.90625 
Q 21.59375 3.203125 19.75 1.390625 
Q 17.90625 -0.40625 15.296875 -0.40625 
Q 12.59375 -0.40625 10.796875 1.390625 
Q 9 3.203125 9 5.90625 
z
" id="Apercu-46"/>
      <path d="M 9.703125 70 
L 18.5 70 
L 18.5 0 
L 9.703125 0 
z
" id="Apercu-73"/>
      <path d="M 32.296875 -0.796875 
Q 27.796875 -0.796875 23.390625 1.390625 
Q 19 3.59375 17.59375 6 
L 17.59375 -20.40625 
L 9.203125 -20.40625 
L 9.203125 50.40625 
L 17.59375 50.40625 
L 17.59375 44.203125 
Q 19.5 47.09375 23.640625 49.140625 
Q 27.796875 51.203125 32.296875 51.203125 
Q 43.09375 51.203125 48.890625 44.046875 
Q 54.703125 36.90625 54.703125 25.203125 
Q 54.703125 13.5 48.890625 6.34375 
Q 43.09375 -0.796875 32.296875 -0.796875 
z
M 31.5 43.59375 
Q 24.703125 43.59375 20.796875 38.5 
Q 16.90625 33.40625 16.90625 25.203125 
Q 16.90625 17 20.796875 11.890625 
Q 24.703125 6.796875 31.5 6.796875 
Q 38.09375 6.796875 42.09375 11.890625 
Q 46.09375 17 46.09375 25.203125 
Q 46.09375 33.40625 42.09375 38.5 
Q 38.09375 43.59375 31.5 43.59375 
z
" id="Apercu-112"/>
      <path d="M 8.59375 14.90625 
L 8.59375 50.40625 
L 17 50.40625 
L 17 17.09375 
Q 17 6.796875 25.703125 6.796875 
Q 31.59375 6.796875 35.84375 13 
Q 40.09375 19.203125 40.09375 29.296875 
L 40.09375 50.40625 
L 48.5 50.40625 
L 48.5 0 
L 40.09375 0 
L 40.09375 9.296875 
Q 34.40625 -0.796875 23.40625 -0.796875 
Q 16.5 -0.796875 12.546875 3.296875 
Q 8.59375 7.40625 8.59375 14.90625 
z
" id="Apercu-117"/>
     </defs>
     <g style="opacity:0.75;" transform="translate(745.928125 763.235312)rotate(-90)scale(0.14 -0.14)">
      <use xlink:href="#Apercu-80"/>
      <use x="58.399994" xlink:href="#Apercu-114"/>
      <use x="99.699982" xlink:href="#Apercu-101"/>
      <use x="155.699966" xlink:href="#Apercu-100"/>
      <use x="215.768707" xlink:href="#Apercu-105"/>
      <use x="242.753067" xlink:href="#Apercu-99"/>
      <use x="296.56868" xlink:href="#Apercu-116"/>
      <use x="334.368668" xlink:href="#Apercu-105"/>
      <use x="361.368652" xlink:href="#Apercu-111"/>
      <use x="420.568649" xlink:href="#Apercu-110"/>
      <use x="478.253021" xlink:href="#Apercu-115"/>
      <use x="524.353012" xlink:href="#Apercu-32"/>
      <use x="551.153" xlink:href="#Apercu-118"/>
      <use x="596.752991" xlink:href="#Apercu-46"/>
      <use x="627.352982" xlink:href="#Apercu-32"/>
      <use x="654.152969" xlink:href="#Apercu-73"/>
      <use x="682.352966" xlink:href="#Apercu-110"/>
      <use x="740.052963" xlink:href="#Apercu-112"/>
      <use x="800.152954" xlink:href="#Apercu-117"/>
      <use x="857.852951" xlink:href="#Apercu-116"/>
      <use x="895.652939" xlink:href="#Apercu-46"/>
     </g>
    </g>
   </g>
   <g id="line2d_31">
    <path clip-path="url(#p208f84abc8)" d="M 777.6 698.4 
L 825.446323 698.4 
L 828.104452 1136.945455 
L 830.762581 698.4 
L 953.036518 698.4 
L 955.694647 625.309091 
L 958.352776 698.4 
L 971.643422 698.4 
L 974.301551 625.309091 
L 992.908454 625.309091 
L 995.566583 698.4 
L 1014.173487 698.4 
L 1016.831616 625.309091 
L 1019.489745 625.309091 
L 1022.147874 698.4 
L 1075.310455 698.4 
L 1077.968584 625.309091 
L 1080.626713 698.4 
L 1226.823812 698.4 
L 1229.481941 625.309091 
L 1237.456328 625.309091 
L 1240.114457 698.4 
L 1242.772586 625.309091 
L 1245.430715 698.4 
L 1248.088844 698.4 
L 1250.746973 1136.945455 
L 1253.405103 1136.945455 
L 1256.063232 698.4 
L 1351.755878 698.4 
L 1354.414007 259.854545 
L 1357.072136 698.4 
L 1365.046523 698.4 
L 1367.704652 259.854545 
L 1370.362781 259.854545 
L 1373.02091 698.4 
L 1375.67904 259.854545 
L 1378.337169 698.4 
L 1391.627814 698.4 
L 1394.285943 552.218182 
L 1396.944072 552.218182 
L 1399.602201 698.4 
L 1484.662331 698.4 
L 1487.32046 259.854545 
L 1489.978589 698.4 
L 1524.534267 698.4 
L 1527.192396 990.763636 
L 1529.850525 990.763636 
L 1532.508654 698.4 
L 1537.824912 698.4 
L 1540.483042 625.309091 
L 1543.141171 698.4 
L 1545.7993 698.4 
L 1548.457429 625.309091 
L 1551.115558 625.309091 
L 1553.773687 698.4 
L 1556.431816 625.309091 
L 1559.089945 698.4 
L 1561.748074 698.4 
L 1564.406203 625.309091 
L 1567.064332 625.309091 
L 1569.722461 698.4 
L 1598.961881 698.4 
L 1601.62001 625.309091 
L 1604.278139 625.309091 
L 1606.936268 698.4 
L 1609.594397 698.4 
L 1612.252526 625.309091 
L 1614.910655 625.309091 
L 1617.568784 698.4 
L 1625.543172 698.4 
L 1628.201301 625.309091 
L 1630.85943 625.309091 
L 1633.517559 698.4 
L 1668.073237 698.4 
L 1670.731366 625.309091 
L 1673.389495 625.309091 
L 1676.047624 698.4 
L 1689.338269 698.4 
L 1691.996398 625.309091 
L 1694.654527 625.309091 
L 1697.312656 698.4 
L 1699.970785 698.4 
L 1702.628914 625.309091 
L 1705.287044 625.309091 
L 1707.945173 698.4 
L 1715.91956 698.4 
L 1718.577689 552.218182 
L 1721.235818 552.218182 
L 1723.893947 698.4 
L 1731.868334 698.4 
L 1734.526463 552.218182 
L 1742.50085 552.218182 
L 1745.158979 698.4 
L 1747.817109 698.4 
L 1750.475238 625.309091 
L 1753.133367 625.309091 
L 1755.791496 698.4 
L 1758.449625 698.4 
L 1761.107754 625.309091 
L 1769.082141 625.309091 
L 1771.74027 698.4 
L 1774.398399 698.4 
L 1777.056528 625.309091 
L 1779.714657 625.309091 
L 1782.372786 552.218182 
L 1785.030915 552.218182 
L 1787.689045 625.309091 
L 1790.347174 625.309091 
L 1793.005303 917.672727 
L 1800.97969 917.672727 
L 1803.637819 552.218182 
L 1806.295948 552.218182 
L 1808.954077 917.672727 
L 1811.612206 917.672727 
L 1814.270335 698.4 
L 1824.902851 698.4 
L 1827.56098 1136.945455 
L 1830.21911 625.309091 
L 1843.509755 625.309091 
L 1846.167884 698.4 
L 1848.826013 698.4 
L 1851.484142 625.309091 
L 1854.142271 625.309091 
L 1856.8004 698.4 
L 1859.458529 698.4 
L 1862.116658 625.309091 
L 1870.091046 625.309091 
L 1872.749175 698.4 
L 1886.03982 698.4 
L 1888.697949 625.309091 
L 1891.356078 625.309091 
L 1894.014207 698.4 
L 1995.023112 698.4 
L 1997.681241 771.490909 
L 2000.33937 698.4 
L 2002.997499 698.4 
L 2005.655628 771.490909 
L 2008.313757 771.490909 
L 2010.971886 698.4 
L 2088.057629 698.4 
L 2090.715758 552.218182 
L 2093.373887 552.218182 
L 2096.032016 625.309091 
L 2098.690145 625.309091 
L 2101.348274 698.4 
L 2104.006403 479.127273 
L 2106.664532 698.4 
L 2117.297049 698.4 
L 2119.955178 479.127273 
L 2122.613307 698.4 
L 2151.852726 698.4 
L 2154.510855 259.854545 
L 2157.168984 259.854545 
L 2159.827114 990.763636 
L 2162.485243 990.763636 
L 2165.143372 698.4 
L 2167.801501 552.218182 
L 2170.45963 625.309091 
L 2173.117759 1136.945455 
L 2175.775888 479.127273 
L 2178.434017 479.127273 
L 2181.092146 552.218182 
L 2183.750275 552.218182 
L 2186.408404 698.4 
L 2189.066533 406.036364 
L 2191.724662 552.218182 
L 2194.382791 552.218182 
L 2197.04092 698.4 
L 2247.545373 698.4 
L 2250.203502 625.309091 
L 2252.861631 625.309091 
L 2255.51976 698.4 
L 2258.177889 259.854545 
L 2260.836018 698.4 
L 2268.810405 698.4 
L 2271.468534 259.854545 
L 2274.126663 259.854545 
L 2276.784792 698.4 
L 2290.075438 698.4 
L 2292.733567 625.309091 
L 2295.391696 625.309091 
L 2298.049825 698.4 
L 2306.024212 698.4 
L 2308.682341 625.309091 
L 2321.972986 625.309091 
L 2324.631116 698.4 
L 2327.289245 625.309091 
L 2329.947374 698.4 
L 2332.605503 1136.945455 
L 2335.263632 698.4 
L 2337.921761 698.4 
L 2340.57989 625.309091 
L 2343.238019 625.309091 
L 2345.896148 698.4 
L 2348.554277 625.309091 
L 2359.186793 625.309091 
L 2361.844922 698.4 
L 2369.81931 698.4 
L 2372.477439 625.309091 
L 2375.135568 625.309091 
L 2377.793697 698.4 
L 2380.451826 259.854545 
L 2383.109955 698.4 
L 2396.4006 698.4 
L 2399.058729 771.490909 
L 2401.716858 1136.945455 
L 2404.374987 698.4 
L 2407.033117 698.4 
L 2409.691246 625.309091 
L 2412.349375 625.309091 
L 2415.007504 698.4 
L 2425.64002 698.4 
L 2428.298149 625.309091 
L 2430.956278 698.4 
L 2436.272536 698.4 
L 2438.930665 625.309091 
L 2441.588794 698.4 
L 2529.307054 698.4 
L 2531.965183 625.309091 
L 2534.623312 625.309091 
L 2537.281441 698.4 
L 2555.888344 698.4 
L 2558.546473 625.309091 
L 2561.204602 625.309091 
L 2563.862731 259.854545 
L 2566.52086 259.854545 
L 2569.178989 698.4 
L 2571.837119 698.4 
L 2574.495248 625.309091 
L 2582.469635 625.309091 
L 2585.127764 698.4 
L 2627.657829 698.4 
L 2630.315958 625.309091 
L 2640.948474 625.309091 
L 2643.606603 698.4 
L 2651.58099 698.4 
L 2654.23912 625.309091 
L 2672.846023 625.309091 
L 2675.504152 698.4 
L 2678.162281 698.4 
L 2680.82041 259.854545 
L 2683.478539 259.854545 
L 2686.136668 698.4 
L 2688.794797 625.309091 
L 2691.452926 698.4 
L 2710.05983 698.4 
L 2712.717959 552.218182 
L 2715.376088 552.218182 
L 2718.034217 698.4 
L 2781.829315 698.4 
L 2784.487444 552.218182 
L 2787.145573 625.309091 
L 2789.803702 625.309091 
L 2792.461831 698.4 
L 2795.11996 625.309091 
L 2800.436218 625.309091 
L 2803.094347 698.4 
L 2805.752476 698.4 
L 2808.410605 259.854545 
L 2811.068734 259.854545 
L 2813.726863 917.672727 
L 2816.384992 917.672727 
L 2819.043122 990.763636 
L 2821.701251 990.763636 
L 2824.35938 552.218182 
L 2827.017509 552.218182 
L 2829.675638 698.4 
L 2845.624412 698.4 
L 2848.282541 625.309091 
L 2850.94067 698.4 
L 2912.077639 698.4 
L 2914.735768 259.854545 
L 2917.393897 259.854545 
L 2920.052026 698.4 
L 2925.368284 698.4 
L 2928.026413 406.036364 
L 2930.684542 698.4 
L 2949.291446 698.4 
L 2951.949575 259.854545 
L 2954.607704 259.854545 
L 2957.265833 698.4 
L 2959.923962 698.4 
L 2962.582091 625.309091 
L 2965.24022 625.309091 
L 2967.898349 698.4 
L 3013.086543 698.4 
L 3015.744672 625.309091 
L 3018.402801 625.309091 
L 3021.06093 698.4 
L 3042.325963 698.4 
L 3044.984092 259.854545 
L 3047.642221 698.4 
L 3055.616608 698.4 
L 3058.274737 259.854545 
L 3060.932866 259.854545 
L 3063.590995 698.4 
L 3138.018609 698.4 
L 3140.676738 479.127273 
L 3143.334867 698.4 
L 3145.992996 698.4 
L 3148.651126 259.854545 
L 3151.309255 259.854545 
L 3153.967384 698.4 
L 3156.625513 698.4 
L 3159.283642 259.854545 
L 3161.941771 259.854545 
L 3164.5999 698.4 
L 3167.258029 698.4 
L 3169.916158 625.309091 
L 3172.574287 625.309091 
L 3175.232416 698.4 
L 3177.890545 698.4 
L 3180.548674 625.309091 
L 3183.206803 625.309091 
L 3185.864932 406.036364 
L 3188.523062 406.036364 
L 3191.181191 698.4 
L 3193.83932 698.4 
L 3196.497449 259.854545 
L 3199.155578 259.854545 
L 3201.813707 698.4 
L 3207.129965 698.4 
L 3209.788094 625.309091 
L 3212.446223 698.4 
L 3215.104352 698.4 
L 3217.762481 259.854545 
L 3220.42061 259.854545 
L 3223.078739 698.4 
L 3247.001901 698.4 
L 3249.66003 259.854545 
L 3252.318159 259.854545 
L 3254.976288 698.4 
L 3273.583192 698.4 
L 3276.241321 1136.945455 
L 3278.89945 1136.945455 
L 3281.557579 625.309091 
L 3284.215708 625.309091 
L 3286.873837 698.4 
L 3310.796998 698.4 
L 3313.455128 259.854545 
L 3316.113257 259.854545 
L 3318.771386 625.309091 
L 3321.429515 625.309091 
L 3324.087644 259.854545 
L 3326.745773 259.854545 
L 3329.403902 771.490909 
L 3332.062031 259.854545 
L 3334.72016 698.4 
L 3342.694547 698.4 
L 3345.352676 625.309091 
L 3353.327064 625.309091 
L 3355.985193 698.4 
L 3369.275838 698.4 
L 3371.933967 625.309091 
L 3374.592096 625.309091 
L 3377.250225 698.4 
L 3406.489645 698.4 
L 3409.147774 625.309091 
L 3417.122161 625.309091 
L 3419.78029 698.4 
L 3449.01971 698.4 
L 3451.677839 625.309091 
L 3459.652226 625.309091 
L 3462.310355 698.4 
L 3464.968484 698.4 
L 3467.626613 625.309091 
L 3470.284742 625.309091 
L 3472.942871 698.4 
L 3512.814807 698.4 
L 3515.472936 552.218182 
L 3518.131066 552.218182 
L 3520.789195 698.4 
L 3544.712356 698.4 
L 3547.370485 625.309091 
L 3550.028614 625.309091 
L 3552.686743 1136.945455 
L 3555.344872 1136.945455 
L 3558.003002 625.309091 
L 3560.661131 625.309091 
L 3563.31926 259.854545 
L 3565.977389 625.309091 
L 3568.635518 698.4 
L 3587.242421 698.4 
L 3589.90055 625.309091 
L 3592.558679 625.309091 
L 3595.216808 698.4 
L 3608.507454 698.4 
L 3611.165583 771.490909 
L 3613.823712 259.854545 
L 3616.481841 698.4 
L 3629.772486 698.4 
L 3632.430615 552.218182 
L 3635.088744 552.218182 
L 3637.746873 698.4 
L 3648.37939 698.4 
L 3651.037519 552.218182 
L 3653.695648 259.854545 
L 3661.670035 259.854545 
L 3664.328164 698.4 
L 3666.986293 698.4 
L 3669.644422 259.854545 
L 3672.302551 698.4 
L 3677.618809 698.4 
L 3680.276938 552.218182 
L 3682.935068 552.218182 
L 3685.593197 698.4 
L 3752.046423 698.4 
L 3754.704552 917.672727 
L 3757.362681 917.672727 
L 3760.02081 552.218182 
L 3762.678939 552.218182 
L 3765.337069 917.672727 
L 3767.995198 917.672727 
L 3770.653327 698.4 
L 3805.209005 698.4 
L 3807.867134 552.218182 
L 3810.525263 552.218182 
L 3813.183392 698.4 
L 3821.157779 698.4 
L 3823.815908 552.218182 
L 3826.474037 552.218182 
L 3829.132166 1063.854545 
L 3831.790295 1063.854545 
L 3834.448424 552.218182 
L 3837.106553 552.218182 
L 3839.764682 698.4 
L 3842.422811 698.4 
L 3845.08094 990.763636 
L 3847.73907 259.854545 
L 3850.397199 698.4 
L 3853.055328 698.4 
L 3855.713457 917.672727 
L 3858.371586 917.672727 
L 3861.029715 698.4 
L 3932.7992 698.4 
L 3935.457329 552.218182 
L 3943.431716 552.218182 
L 3946.089845 698.4 
L 3962.038619 698.4 
L 3964.696748 625.309091 
L 3967.354877 406.036364 
L 3970.013007 406.036364 
L 3972.671136 625.309091 
L 3975.329265 625.309091 
L 3977.987394 332.945455 
L 3980.645523 332.945455 
L 3983.303652 698.4 
L 4007.226813 698.4 
L 4009.884942 259.854545 
L 4012.543072 259.854545 
L 4015.201201 698.4 
L 4017.85933 698.4 
L 4020.517459 552.218182 
L 4023.175588 552.218182 
L 4025.833717 698.4 
L 4028.491846 332.945455 
L 4031.149975 552.218182 
L 4033.808104 552.218182 
L 4036.466233 625.309091 
L 4039.124362 625.309091 
L 4041.782491 698.4 
L 4057.731266 698.4 
L 4063.047524 552.218182 
L 4071.021911 552.218182 
L 4073.68004 698.4 
L 4076.338169 990.763636 
L 4081.654427 990.763636 
L 4084.312556 698.4 
L 4086.970685 698.4 
L 4089.628814 625.309091 
L 4092.286943 625.309091 
L 4094.945073 698.4 
L 4105.577589 698.4 
L 4108.235718 625.309091 
L 4113.551976 625.309091 
L 4116.210105 698.4 
L 4118.868234 698.4 
L 4121.526363 406.036364 
L 4124.184492 406.036364 
L 4126.842621 698.4 
L 4134.817009 698.4 
L 4137.475138 844.581818 
L 4140.133267 1136.945455 
L 4142.791396 625.309091 
L 4145.449525 625.309091 
L 4148.107654 844.581818 
L 4150.765783 844.581818 
L 4153.423912 698.4 
L 4161.398299 698.4 
L 4164.056428 1136.945455 
L 4166.714557 1136.945455 
L 4169.372686 552.218182 
L 4172.030815 552.218182 
L 4177.347074 844.581818 
L 4180.005203 698.4 
L 4182.663332 625.309091 
L 4185.321461 698.4 
L 4198.612106 698.4 
L 4201.270235 479.127273 
L 4203.928364 479.127273 
L 4206.586493 552.218182 
L 4209.244622 552.218182 
L 4211.902751 698.4 
L 4214.56088 698.4 
L 4217.21901 552.218182 
L 4219.877139 552.218182 
L 4222.535268 698.4 
L 4230.509655 698.4 
L 4233.167784 259.854545 
L 4235.825913 259.854545 
L 4238.484042 698.4 
L 4283.672236 698.4 
L 4286.330365 552.218182 
L 4288.988494 552.218182 
L 4291.646623 698.4 
L 4296.962881 552.218182 
L 4299.621011 552.218182 
L 4302.27914 698.4 
L 4304.937269 698.4 
L 4307.595398 625.309091 
L 4315.569785 625.309091 
L 4318.227914 917.672727 
L 4320.886043 917.672727 
L 4323.544172 698.4 
L 4326.202301 625.309091 
L 4352.783592 625.309091 
L 4355.441721 698.4 
L 4358.09985 625.309091 
L 4363.416108 625.309091 
L 4366.074237 259.854545 
L 4368.732366 259.854545 
L 4371.390495 479.127273 
L 4374.048624 479.127273 
L 4376.706753 771.490909 
L 4379.364882 771.490909 
L 4382.023012 698.4 
L 4400.629915 698.4 
L 4403.288044 552.218182 
L 4405.946173 552.218182 
L 4408.604302 625.309091 
L 4427.211206 625.309091 
L 4429.869335 552.218182 
L 4432.527464 552.218182 
L 4435.185593 698.4 
L 4437.843722 698.4 
L 4440.501851 990.763636 
L 4443.15998 990.763636 
L 4445.818109 552.218182 
L 4453.792496 552.218182 
L 4456.450625 698.4 
L 4459.108754 698.4 
L 4461.766883 625.309091 
L 4469.741271 625.309091 
L 4472.3994 552.218182 
L 4480.373787 552.218182 
L 4483.031916 698.4 
L 4485.690045 698.4 
L 4488.348174 625.309091 
L 4491.006303 625.309091 
L 4493.664432 771.490909 
L 4496.322561 771.490909 
L 4498.98069 625.309091 
L 4501.638819 625.309091 
L 4504.296948 1063.854545 
L 4506.955078 1063.854545 
L 4509.613207 625.309091 
L 4522.903852 625.309091 
L 4525.561981 698.4 
L 4528.22011 698.4 
L 4530.878239 625.309091 
L 4544.168884 625.309091 
L 4546.827014 698.4 
L 4549.485143 917.672727 
L 4552.143272 698.4 
L 4554.801401 698.4 
L 4557.45953 625.309091 
L 4576.066433 625.309091 
L 4578.724562 917.672727 
L 4581.382691 917.672727 
L 4584.04082 625.309091 
L 4586.698949 625.309091 
L 4589.357079 406.036364 
L 4592.015208 406.036364 
L 4594.673337 625.309091 
L 4597.331466 625.309091 
L 4599.989595 259.854545 
L 4602.647724 259.854545 
L 4605.305853 625.309091 
L 4613.28024 625.309091 
L 4615.938369 406.036364 
L 4618.596498 406.036364 
L 4621.254627 698.4 
L 4650.494047 698.4 
L 4653.152176 552.218182 
L 4655.810305 552.218182 
L 4658.468434 625.309091 
L 4661.126563 625.309091 
L 4663.784692 698.4 
L 4671.75908 698.4 
L 4674.417209 625.309091 
L 4677.075338 625.309091 
L 4679.733467 698.4 
L 4682.391596 552.218182 
L 4685.049725 698.4 
L 4690.365983 698.4 
L 4693.024112 552.218182 
L 4695.682241 698.4 
L 4708.972886 698.4 
L 4711.631016 625.309091 
L 4714.289145 625.309091 
L 4716.947274 552.218182 
L 4724.921661 552.218182 
L 4727.57979 625.309091 
L 4730.237919 625.309091 
L 4732.896048 698.4 
L 4740.870435 698.4 
L 4743.528564 771.490909 
L 4751.502951 771.490909 
L 4754.161081 698.4 
L 4762.135468 698.4 
L 4764.793597 771.490909 
L 4767.451726 771.490909 
L 4770.109855 698.4 
L 4831.246823 698.4 
L 4833.904952 625.309091 
L 4836.563082 625.309091 
L 4839.221211 698.4 
L 4857.828114 698.4 
L 4860.486243 625.309091 
L 4863.144372 625.309091 
L 4865.802501 259.854545 
L 4871.118759 259.854545 
L 4873.776888 917.672727 
L 4876.435018 698.4 
L 4879.093147 698.4 
L 4881.751276 625.309091 
L 4889.725663 625.309091 
L 4892.383792 479.127273 
L 4895.041921 479.127273 
L 4897.70005 625.309091 
L 4900.358179 625.309091 
L 4903.016308 698.4 
L 4905.674437 698.4 
L 4908.332566 552.218182 
L 4910.990695 552.218182 
L 4913.648824 479.127273 
L 4916.306953 479.127273 
L 4918.965083 625.309091 
L 4921.623212 917.672727 
L 4924.281341 698.4 
L 4932.255728 698.4 
L 4934.913857 1136.945455 
L 4937.571986 1136.945455 
L 4940.230115 844.581818 
L 4942.888244 844.581818 
L 4945.546373 698.4 
L 4948.204502 259.854545 
L 4950.862631 1136.945455 
L 4953.52076 1136.945455 
L 4956.178889 625.309091 
L 4958.837019 625.309091 
L 4961.495148 698.4 
L 4977.443922 698.4 
L 4980.102051 625.309091 
L 4996.050825 625.309091 
L 4998.708954 698.4 
L 5006.683342 698.4 
L 5009.341471 625.309091 
L 5017.315858 625.309091 
L 5019.973987 259.854545 
L 5027.948374 259.854545 
L 5030.606503 625.309091 
L 5059.845923 625.309091 
L 5062.504052 552.218182 
L 5065.162181 552.218182 
L 5067.82031 698.4 
L 5070.478439 698.4 
L 5073.136568 552.218182 
L 5075.794697 552.218182 
L 5078.452826 625.309091 
L 5083.769085 625.309091 
L 5086.427214 552.218182 
L 5091.743472 552.218182 
L 5094.401601 698.4 
L 5097.05973 259.854545 
L 5102.375988 259.854545 
L 5105.034117 552.218182 
L 5113.008504 552.218182 
L 5115.666633 259.854545 
L 5118.324762 259.854545 
L 5120.982891 625.309091 
L 5128.957279 625.309091 
L 5131.615408 552.218182 
L 5134.273537 552.218182 
L 5136.931666 625.309091 
L 5139.589795 625.309091 
L 5142.247924 698.4 
L 5144.906053 1136.945455 
L 5147.564182 698.4 
L 5155.538569 698.4 
L 5158.196698 259.854545 
L 5166.171086 259.854545 
L 5168.829215 625.309091 
L 5176.803602 625.309091 
L 5179.461731 771.490909 
L 5182.11986 771.490909 
L 5184.777989 917.672727 
L 5187.436118 917.672727 
L 5190.094247 479.127273 
L 5192.752376 479.127273 
L 5195.410505 698.4 
L 5198.068634 698.4 
L 5200.726763 552.218182 
L 5203.384892 552.218182 
L 5206.043022 625.309091 
L 5208.701151 552.218182 
L 5214.017409 552.218182 
L 5216.675538 698.4 
L 5224.649925 698.4 
L 5229.966183 1136.945455 
L 5232.624312 698.4 
L 5237.94057 698.4 
L 5240.598699 625.309091 
L 5243.256828 698.4 
L 5245.914957 698.4 
L 5248.573087 625.309091 
L 5256.547474 625.309091 
L 5259.205603 552.218182 
L 5261.863732 552.218182 
L 5264.521861 625.309091 
L 5267.17999 625.309091 
L 5269.838119 552.218182 
L 5272.496248 552.218182 
L 5275.154377 698.4 
L 5277.812506 698.4 
L 5280.470635 552.218182 
L 5283.128764 552.218182 
L 5285.786893 625.309091 
L 5288.445023 625.309091 
L 5291.103152 552.218182 
L 5293.761281 552.218182 
L 5296.41941 259.854545 
L 5299.077539 259.854545 
L 5301.735668 917.672727 
L 5304.393797 917.672727 
L 5307.051926 552.218182 
L 5309.710055 552.218182 
L 5312.368184 625.309091 
L 5315.026313 625.309091 
L 5317.684442 406.036364 
L 5320.342571 406.036364 
L 5323.0007 698.4 
L 5325.658829 698.4 
L 5328.316958 625.309091 
L 5336.291346 625.309091 
L 5338.949475 844.581818 
L 5341.607604 844.581818 
L 5344.265733 625.309091 
L 5346.923862 259.854545 
L 5357.556378 259.854545 
L 5360.214507 1136.945455 
L 5362.872636 1136.945455 
L 5365.530765 698.4 
L 5368.188894 698.4 
L 5370.847024 771.490909 
L 5373.505153 771.490909 
L 5376.163282 625.309091 
L 5378.821411 625.309091 
L 5381.47954 698.4 
L 5392.112056 698.4 
L 5394.770185 259.854545 
L 5397.428314 259.854545 
L 5400.086443 698.4 
L 5418.693347 698.4 
L 5421.351476 990.763636 
L 5424.009605 698.4 
L 5445.274637 698.4 
L 5447.932766 259.854545 
L 5450.590895 698.4 
L 5479.830315 698.4 
L 5482.488444 990.763636 
L 5485.146573 990.763636 
L 5487.804702 698.4 
L 5522.36038 698.4 
L 5525.018509 844.581818 
L 5527.676638 844.581818 
L 5530.334767 698.4 
L 5564.890445 698.4 
L 5567.548574 259.854545 
L 5570.206703 1136.945455 
L 5572.864832 698.4 
L 5575.522961 1063.854545 
L 5578.181091 990.763636 
L 5580.83922 990.763636 
L 5583.497349 1136.945455 
L 5586.155478 1136.945455 
L 5588.813607 698.4 
L 5596.787994 698.4 
L 5599.446123 552.218182 
L 5602.104252 552.218182 
L 5604.762381 698.4 
L 5610.078639 698.4 
L 5612.736768 1136.945455 
L 5615.394897 917.672727 
L 5618.053027 917.672727 
L 5620.711156 625.309091 
L 5623.369285 625.309091 
L 5626.027414 771.490909 
L 5628.685543 771.490909 
L 5631.343672 625.309091 
L 5634.001801 625.309091 
L 5636.65993 406.036364 
L 5639.318059 406.036364 
L 5641.976188 625.309091 
L 5644.634317 625.309091 
L 5647.292446 917.672727 
L 5649.950575 917.672727 
L 5652.608704 698.4 
L 5663.241221 698.4 
L 5665.89935 1136.945455 
L 5668.557479 698.4 
L 5671.215608 698.4 
L 5673.873737 625.309091 
L 5676.531866 625.309091 
L 5679.189995 698.4 
L 5684.506253 698.4 
L 5687.164382 625.309091 
L 5692.48064 625.309091 
L 5695.138769 698.4 
L 5697.796898 698.4 
L 5700.455028 625.309091 
L 5719.061931 625.309091 
L 5721.72006 917.672727 
L 5724.378189 917.672727 
L 5727.036318 625.309091 
L 5761.591996 625.309091 
L 5764.250125 552.218182 
L 5766.908254 552.218182 
L 5769.566383 625.309091 
L 5782.857029 625.309091 
L 5785.515158 552.218182 
L 5788.173287 552.218182 
L 5790.831416 625.309091 
L 5814.754577 625.309091 
L 5817.412706 698.4 
L 5822.728964 698.4 
L 5825.387094 1063.854545 
L 5828.045223 698.4 
L 5830.703352 259.854545 
L 5833.361481 479.127273 
L 5836.01961 479.127273 
L 5838.677739 625.309091 
L 5841.335868 625.309091 
L 5843.993997 552.218182 
L 5846.652126 552.218182 
L 5849.310255 259.854545 
L 5851.968384 259.854545 
L 5854.626513 625.309091 
L 5857.284642 625.309091 
L 5859.942771 698.4 
L 5862.6009 698.4 
L 5865.25903 771.490909 
L 5867.917159 771.490909 
L 5870.575288 479.127273 
L 5873.233417 479.127273 
L 5875.891546 698.4 
L 5899.814707 698.4 
L 5902.472836 552.218182 
L 5905.130965 552.218182 
L 5907.789095 625.309091 
L 5910.447224 625.309091 
L 5913.105353 698.4 
L 5915.763482 552.218182 
L 5918.421611 698.4 
L 5921.07974 698.4 
L 5923.737869 625.309091 
L 5942.344772 625.309091 
L 5945.002901 698.4 
L 5947.661031 552.218182 
L 5950.31916 698.4 
L 5958.293547 698.4 
L 5960.951676 406.036364 
L 5963.609805 406.036364 
L 5966.267934 625.309091 
L 5974.242321 625.309091 
L 5976.90045 479.127273 
L 5979.558579 479.127273 
L 5982.216708 625.309091 
L 5984.874837 625.309091 
L 5987.532966 479.127273 
L 5990.191096 479.127273 
L 5992.849225 625.309091 
L 6016.772386 625.309091 
L 6019.430515 698.4 
L 6022.088644 698.4 
L 6024.746773 625.309091 
L 6027.404902 698.4 
L 6030.063032 917.672727 
L 6032.721161 917.672727 
L 6035.37929 479.127273 
L 6038.037419 479.127273 
L 6040.695548 698.4 
L 6043.353677 698.4 
L 6046.011806 625.309091 
L 6053.986193 625.309091 
L 6056.644322 698.4 
L 6059.302451 698.4 
L 6061.96058 552.218182 
L 6064.618709 552.218182 
L 6067.276838 625.309091 
L 6080.567484 625.309091 
L 6083.225613 1063.854545 
L 6085.883742 1063.854545 
L 6088.541871 552.218182 
L 6091.2 552.218182 
L 6091.2 552.218182 
" style="fill:none;stroke:#000004;stroke-width:3;"/>
   </g>
   <g id="line2d_32">
    <path clip-path="url(#p208f84abc8)" d="M 777.6 698.4 
L 1248.088844 698.4 
L 1250.746973 1136.945455 
L 1253.405103 1136.945455 
L 1256.063232 698.4 
L 1367.704652 698.4 
L 1370.362781 479.127273 
L 1373.02091 698.4 
L 1484.662331 698.4 
L 1487.32046 771.490909 
L 1489.978589 698.4 
L 1699.970785 698.4 
L 1702.628914 1136.945455 
L 1705.287044 1136.945455 
L 1707.945173 698.4 
L 1774.398399 698.4 
L 1777.056528 479.127273 
L 1779.714657 479.127273 
L 1782.372786 698.4 
L 1824.902851 698.4 
L 1827.56098 1136.945455 
L 1830.21911 698.4 
L 1848.826013 698.4 
L 1851.484142 1136.945455 
L 1854.142271 698.4 
L 2088.057629 698.4 
L 2090.715758 552.218182 
L 2093.373887 552.218182 
L 2096.032016 698.4 
L 2154.510855 698.4 
L 2157.168984 771.490909 
L 2159.827114 698.4 
L 2255.51976 698.4 
L 2258.177889 259.854545 
L 2260.836018 698.4 
L 2268.810405 698.4 
L 2271.468534 917.672727 
L 2274.126663 917.672727 
L 2276.784792 698.4 
L 2329.947374 698.4 
L 2332.605503 1136.945455 
L 2335.263632 698.4 
L 2377.793697 698.4 
L 2380.451826 771.490909 
L 2383.109955 698.4 
L 2399.058729 698.4 
L 2401.716858 1136.945455 
L 2404.374987 698.4 
L 2555.888344 698.4 
L 2558.546473 259.854545 
L 2561.204602 259.854545 
L 2563.862731 552.218182 
L 2566.52086 552.218182 
L 2569.178989 698.4 
L 2577.153377 698.4 
L 2579.811506 259.854545 
L 2582.469635 259.854545 
L 2585.127764 698.4 
L 2587.785893 698.4 
L 2590.444022 844.581818 
L 2593.102151 844.581818 
L 2595.76028 698.4 
L 2678.162281 698.4 
L 2680.82041 771.490909 
L 2683.478539 771.490909 
L 2686.136668 698.4 
L 2821.701251 698.4 
L 2824.35938 259.854545 
L 2827.017509 259.854545 
L 2829.675638 698.4 
L 2898.786993 698.4 
L 2901.445123 771.490909 
L 2904.103252 698.4 
L 2912.077639 698.4 
L 2914.735768 259.854545 
L 2917.393897 259.854545 
L 2920.052026 698.4 
L 3177.890545 698.4 
L 3180.548674 625.309091 
L 3183.206803 625.309091 
L 3185.864932 698.4 
L 3215.104352 698.4 
L 3217.762481 1136.945455 
L 3220.42061 698.4 
L 3273.583192 698.4 
L 3276.241321 990.763636 
L 3278.89945 990.763636 
L 3281.557579 698.4 
L 3286.873837 698.4 
L 3289.531966 771.490909 
L 3292.190095 698.4 
L 3310.796998 698.4 
L 3313.455128 771.490909 
L 3316.113257 771.490909 
L 3318.771386 698.4 
L 3321.429515 698.4 
L 3324.087644 1136.945455 
L 3326.745773 259.854545 
L 3329.403902 698.4 
L 3332.062031 771.490909 
L 3334.72016 698.4 
L 3512.814807 698.4 
L 3515.472936 771.490909 
L 3518.131066 771.490909 
L 3520.789195 698.4 
L 3560.661131 698.4 
L 3563.31926 259.854545 
L 3565.977389 698.4 
L 3651.037519 698.4 
L 3653.695648 259.854545 
L 3656.353777 259.854545 
L 3659.011906 990.763636 
L 3661.670035 406.036364 
L 3664.328164 698.4 
L 3666.986293 698.4 
L 3669.644422 406.036364 
L 3672.302551 698.4 
L 3677.618809 698.4 
L 3680.276938 259.854545 
L 3682.935068 259.854545 
L 3685.593197 698.4 
L 3845.08094 698.4 
L 3847.73907 259.854545 
L 3850.397199 698.4 
L 3938.115458 698.4 
L 3940.773587 552.218182 
L 3943.431716 552.218182 
L 3946.089845 698.4 
L 3962.038619 698.4 
L 3964.696748 259.854545 
L 3967.354877 698.4 
L 3970.013007 698.4 
L 3972.671136 406.036364 
L 3975.329265 406.036364 
L 3977.987394 917.672727 
L 3980.645523 917.672727 
L 3983.303652 698.4 
L 4017.85933 698.4 
L 4020.517459 771.490909 
L 4023.175588 771.490909 
L 4025.833717 698.4 
L 4057.731266 698.4 
L 4060.389395 259.854545 
L 4063.047524 771.490909 
L 4065.705653 698.4 
L 4068.363782 698.4 
L 4071.021911 771.490909 
L 4073.68004 698.4 
L 4230.509655 698.4 
L 4233.167784 1136.945455 
L 4235.825913 1136.945455 
L 4238.484042 698.4 
L 4254.432816 698.4 
L 4257.090945 844.581818 
L 4259.749075 698.4 
L 4291.646623 698.4 
L 4294.304752 259.854545 
L 4296.962881 698.4 
L 4304.937269 698.4 
L 4307.595398 259.854545 
L 4310.253527 259.854545 
L 4312.911656 917.672727 
L 4315.569785 917.672727 
L 4318.227914 698.4 
L 4323.544172 698.4 
L 4326.202301 917.672727 
L 4328.86043 552.218182 
L 4331.518559 552.218182 
L 4334.176688 844.581818 
L 4342.151076 844.581818 
L 4344.809205 698.4 
L 4347.467334 698.4 
L 4350.125463 917.672727 
L 4352.783592 917.672727 
L 4355.441721 698.4 
L 4358.09985 917.672727 
L 4360.757979 698.4 
L 4400.629915 698.4 
L 4403.288044 625.309091 
L 4405.946173 625.309091 
L 4408.604302 698.4 
L 4411.262431 698.4 
L 4413.92056 844.581818 
L 4416.578689 844.581818 
L 4419.236818 698.4 
L 4437.843722 698.4 
L 4440.501851 1136.945455 
L 4443.15998 1136.945455 
L 4445.818109 698.4 
L 4459.108754 698.4 
L 4461.766883 844.581818 
L 4464.425013 844.581818 
L 4467.083142 698.4 
L 4560.117659 698.4 
L 4562.775788 625.309091 
L 4565.433917 625.309091 
L 4568.092046 698.4 
L 4581.382691 698.4 
L 4584.04082 625.309091 
L 4586.698949 625.309091 
L 4589.357079 698.4 
L 4597.331466 698.4 
L 4599.989595 771.490909 
L 4602.647724 771.490909 
L 4605.305853 698.4 
L 4613.28024 698.4 
L 4615.938369 844.581818 
L 4618.596498 844.581818 
L 4621.254627 698.4 
L 4634.545273 698.4 
L 4637.203402 844.581818 
L 4639.861531 844.581818 
L 4642.51966 771.490909 
L 4650.494047 771.490909 
L 4653.152176 698.4 
L 4655.810305 698.4 
L 4658.468434 990.763636 
L 4661.126563 990.763636 
L 4663.784692 698.4 
L 4674.417209 698.4 
L 4677.075338 259.854545 
L 4679.733467 698.4 
L 4732.896048 698.4 
L 4735.554177 771.490909 
L 4738.212306 698.4 
L 4879.093147 698.4 
L 4881.751276 259.854545 
L 4889.725663 259.854545 
L 4892.383792 698.4 
L 4895.041921 698.4 
L 4897.70005 844.581818 
L 4900.358179 844.581818 
L 4903.016308 698.4 
L 4932.255728 698.4 
L 4934.913857 1136.945455 
L 4937.571986 1136.945455 
L 4940.230115 698.4 
L 4945.546373 698.4 
L 4948.204502 990.763636 
L 4950.862631 1136.945455 
L 4953.52076 1136.945455 
L 4956.178889 990.763636 
L 4958.837019 990.763636 
L 4961.495148 698.4 
L 5017.315858 698.4 
L 5019.973987 259.854545 
L 5022.632116 259.854545 
L 5025.290245 552.218182 
L 5027.948374 552.218182 
L 5030.606503 259.854545 
L 5033.264632 259.854545 
L 5035.922761 698.4 
L 5059.845923 698.4 
L 5062.504052 552.218182 
L 5065.162181 552.218182 
L 5067.82031 698.4 
L 5099.717859 698.4 
L 5102.375988 1136.945455 
L 5105.034117 771.490909 
L 5107.692246 771.490909 
L 5110.350375 698.4 
L 5187.436118 698.4 
L 5190.094247 259.854545 
L 5192.752376 259.854545 
L 5195.410505 698.4 
L 5227.308054 698.4 
L 5229.966183 1136.945455 
L 5232.624312 698.4 
L 5248.573087 698.4 
L 5251.231216 844.581818 
L 5253.889345 698.4 
L 5256.547474 698.4 
L 5259.205603 259.854545 
L 5261.863732 259.854545 
L 5264.521861 1136.945455 
L 5267.17999 1136.945455 
L 5269.838119 259.854545 
L 5272.496248 259.854545 
L 5275.154377 698.4 
L 5277.812506 698.4 
L 5280.470635 259.854545 
L 5288.445023 259.854545 
L 5291.103152 698.4 
L 5293.761281 698.4 
L 5296.41941 1136.945455 
L 5299.077539 259.854545 
L 5301.735668 698.4 
L 5317.684442 698.4 
L 5320.342571 259.854545 
L 5323.0007 698.4 
L 5328.316958 698.4 
L 5330.975088 1136.945455 
L 5333.633217 698.4 
L 5346.923862 698.4 
L 5349.581991 990.763636 
L 5352.24012 990.763636 
L 5354.898249 1136.945455 
L 5357.556378 1136.945455 
L 5360.214507 698.4 
L 5368.188894 698.4 
L 5370.847024 771.490909 
L 5373.505153 771.490909 
L 5376.163282 1136.945455 
L 5378.821411 1136.945455 
L 5381.47954 698.4 
L 5445.274637 698.4 
L 5447.932766 259.854545 
L 5450.590895 698.4 
L 5479.830315 698.4 
L 5482.488444 332.945455 
L 5485.146573 332.945455 
L 5487.804702 698.4 
L 5564.890445 698.4 
L 5567.548574 771.490909 
L 5570.206703 1136.945455 
L 5572.864832 698.4 
L 5580.83922 698.4 
L 5583.497349 1136.945455 
L 5586.155478 1136.945455 
L 5588.813607 698.4 
L 5610.078639 698.4 
L 5612.736768 1136.945455 
L 5615.394897 698.4 
L 5671.215608 698.4 
L 5673.873737 917.672727 
L 5676.531866 917.672727 
L 5679.189995 698.4 
L 5697.796898 698.4 
L 5700.455028 479.127273 
L 5703.113157 479.127273 
L 5705.771286 698.4 
L 5735.010705 698.4 
L 5737.668834 1136.945455 
L 5740.326963 1136.945455 
L 5742.985093 698.4 
L 5772.224512 698.4 
L 5774.882641 259.854545 
L 5777.54077 259.854545 
L 5780.198899 698.4 
L 5984.874837 698.4 
L 5987.532966 990.763636 
L 5990.191096 990.763636 
L 5992.849225 698.4 
L 6035.37929 698.4 
L 6038.037419 990.763636 
L 6040.695548 698.4 
L 6059.302451 698.4 
L 6061.96058 844.581818 
L 6064.618709 844.581818 
L 6067.276838 698.4 
L 6091.2 698.4 
L 6091.2 698.4 
" style="fill:none;stroke:#b73779;stroke-width:3;"/>
   </g>
   <g id="line2d_33">
    <path clip-path="url(#p208f84abc8)" d="M 777.6 698.4 
L 1702.628914 698.4 
L 1705.287044 990.763636 
L 1707.945173 698.4 
L 1750.475238 698.4 
L 1753.133367 625.309091 
L 1755.791496 698.4 
L 1777.056528 698.4 
L 1779.714657 625.309091 
L 1782.372786 698.4 
L 1785.030915 552.218182 
L 1787.689045 698.4 
L 1808.954077 698.4 
L 1811.612206 917.672727 
L 1814.270335 698.4 
L 1840.851626 698.4 
L 1843.509755 625.309091 
L 1846.167884 698.4 
L 1851.484142 698.4 
L 1854.142271 771.490909 
L 1856.8004 698.4 
L 1867.432916 698.4 
L 1870.091046 625.309091 
L 1872.749175 698.4 
L 2005.655628 698.4 
L 2008.313757 771.490909 
L 2010.971886 698.4 
L 2090.715758 698.4 
L 2093.373887 552.218182 
L 2096.032016 698.4 
L 2098.690145 625.309091 
L 2101.348274 698.4 
L 2282.101051 698.4 
L 2284.75918 844.581818 
L 2287.417309 698.4 
L 2292.733567 698.4 
L 2295.391696 771.490909 
L 2298.049825 698.4 
L 2313.998599 698.4 
L 2316.656728 625.309091 
L 2319.314857 698.4 
L 2321.972986 625.309091 
L 2324.631116 698.4 
L 2340.57989 698.4 
L 2343.238019 625.309091 
L 2345.896148 698.4 
L 2558.546473 698.4 
L 2561.204602 625.309091 
L 2563.862731 698.4 
L 2566.52086 259.854545 
L 2569.178989 698.4 
L 2574.495248 698.4 
L 2577.153377 625.309091 
L 2579.811506 698.4 
L 2638.290345 698.4 
L 2640.948474 625.309091 
L 2643.606603 698.4 
L 2654.23912 698.4 
L 2656.897249 625.309091 
L 2659.555378 698.4 
L 2664.871636 698.4 
L 2667.529765 625.309091 
L 2670.187894 698.4 
L 2675.504152 698.4 
L 2678.162281 625.309091 
L 2680.82041 698.4 
L 2813.726863 698.4 
L 2816.384992 917.672727 
L 2819.043122 698.4 
L 2824.35938 698.4 
L 2827.017509 552.218182 
L 2829.675638 698.4 
L 2845.624412 698.4 
L 2848.282541 625.309091 
L 2850.94067 698.4 
L 2861.573187 698.4 
L 2864.231316 990.763636 
L 2866.889445 698.4 
L 3276.241321 698.4 
L 3278.89945 1136.945455 
L 3281.557579 698.4 
L 3284.215708 625.309091 
L 3286.873837 698.4 
L 3414.464032 698.4 
L 3417.122161 771.490909 
L 3419.78029 698.4 
L 3472.942871 698.4 
L 3475.601001 625.309091 
L 3478.25913 698.4 
L 3515.472936 698.4 
L 3518.131066 552.218182 
L 3520.789195 698.4 
L 3589.90055 698.4 
L 3592.558679 625.309091 
L 3595.216808 698.4 
L 3680.276938 698.4 
L 3682.935068 552.218182 
L 3685.593197 698.4 
L 3829.132166 698.4 
L 3831.790295 1063.854545 
L 3834.448424 698.4 
L 3837.106553 552.218182 
L 3839.764682 698.4 
L 3935.457329 698.4 
L 3938.115458 552.218182 
L 3940.773587 698.4 
L 3943.431716 552.218182 
L 3946.089845 698.4 
L 3956.722361 698.4 
L 3959.38049 625.309091 
L 3962.038619 698.4 
L 3964.696748 625.309091 
L 3967.354877 698.4 
L 3970.013007 406.036364 
L 3972.671136 698.4 
L 3975.329265 625.309091 
L 3977.987394 698.4 
L 3980.645523 332.945455 
L 3983.303652 698.4 
L 4009.884942 698.4 
L 4012.543072 259.854545 
L 4015.201201 698.4 
L 4020.517459 698.4 
L 4023.175588 552.218182 
L 4025.833717 698.4 
L 4047.098749 698.4 
L 4049.756878 552.218182 
L 4052.415008 698.4 
L 4055.073137 552.218182 
L 4057.731266 698.4 
L 4068.363782 698.4 
L 4071.021911 552.218182 
L 4073.68004 698.4 
L 4089.628814 698.4 
L 4092.286943 625.309091 
L 4094.945073 698.4 
L 4110.893847 698.4 
L 4113.551976 552.218182 
L 4116.210105 698.4 
L 4121.526363 698.4 
L 4124.184492 552.218182 
L 4126.842621 698.4 
L 4201.270235 698.4 
L 4203.928364 1136.945455 
L 4206.586493 698.4 
L 4217.21901 698.4 
L 4219.877139 552.218182 
L 4222.535268 698.4 
L 4291.646623 698.4 
L 4294.304752 625.309091 
L 4296.962881 698.4 
L 4299.621011 552.218182 
L 4302.27914 698.4 
L 4307.595398 698.4 
L 4310.253527 625.309091 
L 4312.911656 698.4 
L 4315.569785 625.309091 
L 4318.227914 698.4 
L 4320.886043 917.672727 
L 4323.544172 698.4 
L 4326.202301 625.309091 
L 4328.86043 698.4 
L 4331.518559 625.309091 
L 4334.176688 698.4 
L 4336.834817 625.309091 
L 4339.492946 698.4 
L 4366.074237 698.4 
L 4368.732366 917.672727 
L 4374.048624 479.127273 
L 4376.706753 698.4 
L 4379.364882 771.490909 
L 4382.023012 698.4 
L 4403.288044 698.4 
L 4405.946173 552.218182 
L 4408.604302 698.4 
L 4411.262431 625.309091 
L 4413.92056 698.4 
L 4416.578689 625.309091 
L 4419.236818 698.4 
L 4424.553077 698.4 
L 4427.211206 625.309091 
L 4429.869335 698.4 
L 4432.527464 625.309091 
L 4435.185593 698.4 
L 4440.501851 698.4 
L 4443.15998 625.309091 
L 4445.818109 698.4 
L 4451.134367 698.4 
L 4453.792496 552.218182 
L 4456.450625 698.4 
L 4461.766883 698.4 
L 4464.425013 625.309091 
L 4467.083142 698.4 
L 4472.3994 698.4 
L 4475.057529 552.218182 
L 4477.715658 698.4 
L 4480.373787 552.218182 
L 4483.031916 698.4 
L 4488.348174 698.4 
L 4491.006303 625.309091 
L 4496.322561 771.490909 
L 4498.98069 698.4 
L 4504.296948 698.4 
L 4506.955078 1063.854545 
L 4509.613207 698.4 
L 4512.271336 552.218182 
L 4514.929465 698.4 
L 4517.587594 479.127273 
L 4520.245723 698.4 
L 4522.903852 625.309091 
L 4525.561981 698.4 
L 4530.878239 698.4 
L 4533.536368 552.218182 
L 4536.194497 698.4 
L 4538.852626 625.309091 
L 4541.510755 698.4 
L 4546.827014 698.4 
L 4549.485143 552.218182 
L 4552.143272 698.4 
L 4557.45953 698.4 
L 4560.117659 625.309091 
L 4562.775788 698.4 
L 4565.433917 625.309091 
L 4568.092046 698.4 
L 4570.750175 625.309091 
L 4573.408304 698.4 
L 4578.724562 698.4 
L 4581.382691 917.672727 
L 4584.04082 698.4 
L 4599.989595 698.4 
L 4602.647724 917.672727 
L 4605.305853 698.4 
L 4610.622111 698.4 
L 4613.28024 1136.945455 
L 4615.938369 698.4 
L 4618.596498 406.036364 
L 4621.254627 698.4 
L 4631.887144 698.4 
L 4634.545273 1136.945455 
L 4637.203402 698.4 
L 4658.468434 698.4 
L 4661.126563 625.309091 
L 4663.784692 698.4 
L 4674.417209 698.4 
L 4677.075338 625.309091 
L 4679.733467 698.4 
L 4682.391596 552.218182 
L 4685.049725 698.4 
L 4690.365983 698.4 
L 4693.024112 552.218182 
L 4695.682241 698.4 
L 4700.998499 698.4 
L 4703.656628 625.309091 
L 4706.314757 698.4 
L 4711.631016 698.4 
L 4714.289145 552.218182 
L 4716.947274 698.4 
L 4719.605403 552.218182 
L 4722.263532 698.4 
L 4727.57979 698.4 
L 4730.237919 625.309091 
L 4732.896048 698.4 
L 4743.528564 698.4 
L 4746.186693 771.490909 
L 4748.844822 698.4 
L 4828.588694 698.4 
L 4831.246823 990.763636 
L 4833.904952 698.4 
L 4836.563082 625.309091 
L 4839.221211 698.4 
L 4881.751276 698.4 
L 4884.409405 625.309091 
L 4887.067534 698.4 
L 4889.725663 625.309091 
L 4892.383792 698.4 
L 4895.041921 479.127273 
L 4897.70005 698.4 
L 4900.358179 625.309091 
L 4903.016308 698.4 
L 4908.332566 698.4 
L 4910.990695 552.218182 
L 4913.648824 698.4 
L 4934.913857 698.4 
L 4937.571986 771.490909 
L 4940.230115 698.4 
L 4942.888244 844.581818 
L 4945.546373 698.4 
L 4948.204502 1136.945455 
L 4950.862631 698.4 
L 4953.52076 1136.945455 
L 4956.178889 698.4 
L 4958.837019 625.309091 
L 4961.495148 698.4 
L 4982.76018 698.4 
L 4985.418309 625.309091 
L 4990.734567 771.490909 
L 4993.392696 698.4 
L 5014.657729 698.4 
L 5017.315858 625.309091 
L 5019.973987 698.4 
L 5022.632116 259.854545 
L 5025.290245 698.4 
L 5027.948374 259.854545 
L 5030.606503 698.4 
L 5033.264632 625.309091 
L 5035.922761 698.4 
L 5041.23902 698.4 
L 5043.897149 552.218182 
L 5046.555278 698.4 
L 5049.213407 625.309091 
L 5051.871536 698.4 
L 5054.529665 625.309091 
L 5057.187794 698.4 
L 5059.845923 625.309091 
L 5062.504052 698.4 
L 5065.162181 552.218182 
L 5067.82031 698.4 
L 5073.136568 698.4 
L 5075.794697 552.218182 
L 5078.452826 698.4 
L 5083.769085 698.4 
L 5086.427214 259.854545 
L 5089.085343 698.4 
L 5091.743472 771.490909 
L 5094.401601 698.4 
L 5097.05973 1136.945455 
L 5099.717859 698.4 
L 5102.375988 332.945455 
L 5105.034117 698.4 
L 5107.692246 552.218182 
L 5110.350375 698.4 
L 5113.008504 552.218182 
L 5115.666633 698.4 
L 5118.324762 332.945455 
L 5120.982891 698.4 
L 5123.641021 625.309091 
L 5126.29915 698.4 
L 5128.957279 625.309091 
L 5131.615408 698.4 
L 5134.273537 552.218182 
L 5136.931666 698.4 
L 5139.589795 625.309091 
L 5142.247924 698.4 
L 5147.564182 698.4 
L 5150.222311 552.218182 
L 5152.88044 698.4 
L 5163.512956 698.4 
L 5166.171086 552.218182 
L 5168.829215 698.4 
L 5171.487344 552.218182 
L 5174.145473 698.4 
L 5176.803602 625.309091 
L 5182.11986 771.490909 
L 5184.777989 698.4 
L 5187.436118 917.672727 
L 5192.752376 479.127273 
L 5195.410505 698.4 
L 5200.726763 698.4 
L 5203.384892 552.218182 
L 5206.043022 698.4 
L 5211.35928 698.4 
L 5214.017409 552.218182 
L 5216.675538 698.4 
L 5227.308054 698.4 
L 5229.966183 990.763636 
L 5232.624312 698.4 
L 5253.889345 698.4 
L 5256.547474 1136.945455 
L 5259.205603 698.4 
L 5261.863732 552.218182 
L 5264.521861 698.4 
L 5267.17999 625.309091 
L 5269.838119 698.4 
L 5280.470635 698.4 
L 5283.128764 552.218182 
L 5285.786893 698.4 
L 5288.445023 625.309091 
L 5291.103152 698.4 
L 5293.761281 552.218182 
L 5296.41941 698.4 
L 5307.051926 698.4 
L 5309.710055 625.309091 
L 5312.368184 698.4 
L 5315.026313 625.309091 
L 5317.684442 698.4 
L 5320.342571 406.036364 
L 5323.0007 698.4 
L 5328.316958 698.4 
L 5330.975088 625.309091 
L 5333.633217 698.4 
L 5338.949475 698.4 
L 5341.607604 844.581818 
L 5344.265733 698.4 
L 5346.923862 1136.945455 
L 5352.24012 259.854545 
L 5354.898249 698.4 
L 5357.556378 259.854545 
L 5360.214507 698.4 
L 5370.847024 698.4 
L 5373.505153 1136.945455 
L 5376.163282 698.4 
L 5378.821411 625.309091 
L 5381.47954 698.4 
L 5445.274637 698.4 
L 5447.932766 259.854545 
L 5450.590895 698.4 
L 5482.488444 698.4 
L 5485.146573 990.763636 
L 5487.804702 698.4 
L 5490.462831 479.127273 
L 5493.12096 698.4 
L 5525.018509 698.4 
L 5527.676638 844.581818 
L 5530.334767 698.4 
L 5578.181091 698.4 
L 5580.83922 990.763636 
L 5583.497349 698.4 
L 5599.446123 698.4 
L 5602.104252 552.218182 
L 5604.762381 698.4 
L 5615.394897 698.4 
L 5618.053027 917.672727 
L 5620.711156 698.4 
L 5623.369285 625.309091 
L 5626.027414 698.4 
L 5628.685543 1136.945455 
L 5631.343672 698.4 
L 5634.001801 479.127273 
L 5636.65993 698.4 
L 5641.976188 698.4 
L 5644.634317 625.309091 
L 5647.292446 698.4 
L 5649.950575 917.672727 
L 5652.608704 698.4 
L 5700.455028 698.4 
L 5703.113157 625.309091 
L 5705.771286 698.4 
L 5711.087544 698.4 
L 5713.745673 771.490909 
L 5719.061931 625.309091 
L 5721.72006 698.4 
L 5727.036318 698.4 
L 5729.694447 552.218182 
L 5732.352576 698.4 
L 5735.010705 625.309091 
L 5737.668834 698.4 
L 5748.301351 698.4 
L 5750.95948 625.309091 
L 5753.617609 698.4 
L 5758.933867 698.4 
L 5761.591996 625.309091 
L 5764.250125 698.4 
L 5766.908254 552.218182 
L 5769.566383 698.4 
L 5774.882641 698.4 
L 5777.54077 625.309091 
L 5780.198899 698.4 
L 5782.857029 625.309091 
L 5785.515158 698.4 
L 5788.173287 479.127273 
L 5790.831416 698.4 
L 5796.147674 698.4 
L 5798.805803 625.309091 
L 5801.463932 698.4 
L 5804.122061 625.309091 
L 5806.78019 698.4 
L 5822.728964 698.4 
L 5825.387094 844.581818 
L 5828.045223 698.4 
L 5830.703352 1136.945455 
L 5833.361481 698.4 
L 5836.01961 479.127273 
L 5838.677739 698.4 
L 5841.335868 625.309091 
L 5843.993997 698.4 
L 5846.652126 552.218182 
L 5849.310255 698.4 
L 5851.968384 259.854545 
L 5854.626513 698.4 
L 5857.284642 625.309091 
L 5859.942771 698.4 
L 5865.25903 698.4 
L 5867.917159 406.036364 
L 5870.575288 698.4 
L 5873.233417 479.127273 
L 5875.891546 698.4 
L 5881.207804 698.4 
L 5883.865933 552.218182 
L 5886.524062 698.4 
L 5891.84032 698.4 
L 5894.498449 552.218182 
L 5897.156578 698.4 
L 5902.472836 698.4 
L 5905.130965 552.218182 
L 5907.789095 698.4 
L 5910.447224 625.309091 
L 5913.105353 698.4 
L 5945.002901 698.4 
L 5947.661031 844.581818 
L 5950.31916 698.4 
L 5960.951676 698.4 
L 5963.609805 1136.945455 
L 5966.267934 698.4 
L 5968.926063 625.309091 
L 5971.584192 698.4 
L 5974.242321 625.309091 
L 5976.90045 698.4 
L 5979.558579 479.127273 
L 5982.216708 698.4 
L 5984.874837 625.309091 
L 5987.532966 698.4 
L 5990.191096 479.127273 
L 5992.849225 698.4 
L 5998.165483 698.4 
L 6000.823612 625.309091 
L 6003.481741 698.4 
L 6008.797999 698.4 
L 6011.456128 625.309091 
L 6014.114257 698.4 
L 6016.772386 625.309091 
L 6019.430515 698.4 
L 6061.96058 698.4 
L 6064.618709 552.218182 
L 6067.276838 698.4 
L 6077.909355 698.4 
L 6080.567484 625.309091 
L 6083.225613 698.4 
L 6085.883742 1063.854545 
L 6088.541871 698.4 
L 6091.2 552.218182 
L 6091.2 552.218182 
" style="fill:none;stroke:#2ca02c;stroke-width:4;"/>
   </g>
   <g id="line2d_34">
    <path clip-path="url(#p208f84abc8)" d="M 777.6 698.4 
L 1702.628914 698.4 
L 1705.287044 917.672727 
L 1707.945173 698.4 
L 1777.056528 698.4 
L 1779.714657 479.127273 
L 1782.372786 698.4 
L 1846.167884 698.4 
L 1848.826013 844.581818 
L 1851.484142 698.4 
L 1883.381691 698.4 
L 1886.03982 552.218182 
L 1888.697949 698.4 
L 1925.911756 698.4 
L 1928.569885 771.490909 
L 1931.228014 698.4 
L 1963.125563 698.4 
L 1965.783692 625.309091 
L 1971.09995 771.490909 
L 1973.758079 698.4 
L 1984.390595 698.4 
L 1987.048724 625.309091 
L 1989.706853 698.4 
L 2026.92066 698.4 
L 2029.578789 844.581818 
L 2032.236918 698.4 
L 2074.766983 698.4 
L 2077.425113 771.490909 
L 2080.083242 698.4 
L 2085.3995 698.4 
L 2088.057629 625.309091 
L 2090.715758 698.4 
L 2093.373887 552.218182 
L 2096.032016 698.4 
L 2558.546473 698.4 
L 2561.204602 259.854545 
L 2563.862731 698.4 
L 2566.52086 552.218182 
L 2569.178989 698.4 
L 2579.811506 698.4 
L 2582.469635 259.854545 
L 2585.127764 698.4 
L 2590.444022 698.4 
L 2593.102151 844.581818 
L 2595.76028 698.4 
L 2601.076538 698.4 
L 2603.734667 1063.854545 
L 2606.392796 698.4 
L 2824.35938 698.4 
L 2827.017509 259.854545 
L 2829.675638 698.4 
L 2832.333767 844.581818 
L 2834.991896 698.4 
L 2840.308154 698.4 
L 2842.966283 771.490909 
L 2845.624412 698.4 
L 2848.282541 479.127273 
L 2850.94067 698.4 
L 2856.256928 698.4 
L 2858.915058 844.581818 
L 2861.573187 698.4 
L 2864.231316 1136.945455 
L 2866.889445 698.4 
L 2869.547574 771.490909 
L 2872.205703 698.4 
L 2888.154477 698.4 
L 2890.812606 625.309091 
L 2893.470735 698.4 
L 2898.786993 698.4 
L 2901.445123 771.490909 
L 2904.103252 698.4 
L 3276.241321 698.4 
L 3278.89945 990.763636 
L 3281.557579 698.4 
L 3286.873837 698.4 
L 3289.531966 771.490909 
L 3292.190095 698.4 
L 3297.506353 698.4 
L 3300.164482 844.581818 
L 3302.822611 698.4 
L 3398.515258 698.4 
L 3401.173387 1063.854545 
L 3403.831516 698.4 
L 3515.472936 698.4 
L 3518.131066 771.490909 
L 3520.789195 698.4 
L 3579.268034 698.4 
L 3581.926163 625.309091 
L 3584.584292 698.4 
L 3680.276938 698.4 
L 3682.935068 259.854545 
L 3685.593197 698.4 
L 3690.909455 698.4 
L 3693.567584 844.581818 
L 3696.225713 698.4 
L 3855.713457 698.4 
L 3858.371586 771.490909 
L 3861.029715 698.4 
L 3898.243522 698.4 
L 3900.901651 625.309091 
L 3903.55978 698.4 
L 3930.141071 698.4 
L 3932.7992 332.945455 
L 3935.457329 698.4 
L 3940.773587 698.4 
L 3943.431716 552.218182 
L 3946.089845 698.4 
L 3951.406103 698.4 
L 3954.064232 844.581818 
L 3956.722361 698.4 
L 3959.38049 625.309091 
L 3962.038619 698.4 
L 3964.696748 332.945455 
L 3967.354877 698.4 
L 3970.013007 259.854545 
L 3972.671136 698.4 
L 3975.329265 406.036364 
L 3977.987394 698.4 
L 3980.645523 917.672727 
L 3983.303652 698.4 
L 3985.961781 1136.945455 
L 3991.278039 259.854545 
L 3993.936168 698.4 
L 3999.252426 698.4 
L 4001.910555 844.581818 
L 4004.568684 698.4 
L 4007.226813 625.309091 
L 4009.884942 698.4 
L 4020.517459 698.4 
L 4023.175588 771.490909 
L 4025.833717 698.4 
L 4041.782491 698.4 
L 4044.44062 259.854545 
L 4047.098749 698.4 
L 4049.756878 406.036364 
L 4052.415008 698.4 
L 4055.073137 771.490909 
L 4057.731266 698.4 
L 4060.389395 771.490909 
L 4063.047524 698.4 
L 4065.705653 771.490909 
L 4068.363782 698.4 
L 4071.021911 771.490909 
L 4073.68004 698.4 
L 4076.338169 771.490909 
L 4078.996298 698.4 
L 4110.893847 698.4 
L 4113.551976 259.854545 
L 4116.210105 698.4 
L 4121.526363 698.4 
L 4124.184492 771.490909 
L 4126.842621 698.4 
L 4132.158879 698.4 
L 4134.817009 844.581818 
L 4137.475138 698.4 
L 4140.133267 771.490909 
L 4142.791396 698.4 
L 4201.270235 698.4 
L 4203.928364 844.581818 
L 4206.586493 698.4 
L 4211.902751 698.4 
L 4214.56088 844.581818 
L 4217.21901 698.4 
L 4222.535268 698.4 
L 4225.193397 771.490909 
L 4227.851526 698.4 
L 4254.432816 698.4 
L 4257.090945 844.581818 
L 4259.749075 698.4 
L 4275.697849 698.4 
L 4278.355978 771.490909 
L 4281.014107 698.4 
L 4291.646623 698.4 
L 4294.304752 259.854545 
L 4296.962881 698.4 
L 4307.595398 698.4 
L 4310.253527 259.854545 
L 4312.911656 698.4 
L 4315.569785 917.672727 
L 4318.227914 698.4 
L 4323.544172 698.4 
L 4326.202301 917.672727 
L 4328.86043 698.4 
L 4331.518559 552.218182 
L 4336.834817 844.581818 
L 4339.492946 698.4 
L 4371.390495 698.4 
L 4374.048624 259.854545 
L 4376.706753 698.4 
L 4379.364882 771.490909 
L 4382.023012 698.4 
L 4384.681141 771.490909 
L 4387.33927 698.4 
L 4392.655528 698.4 
L 4395.313657 844.581818 
L 4397.971786 698.4 
L 4400.629915 771.490909 
L 4405.946173 625.309091 
L 4408.604302 698.4 
L 4413.92056 698.4 
L 4416.578689 844.581818 
L 4419.236818 698.4 
L 4440.501851 698.4 
L 4443.15998 259.854545 
L 4445.818109 698.4 
L 4451.134367 698.4 
L 4453.792496 844.581818 
L 4456.450625 698.4 
L 4461.766883 698.4 
L 4464.425013 844.581818 
L 4467.083142 698.4 
L 4469.741271 625.309091 
L 4472.3994 698.4 
L 4552.143272 698.4 
L 4554.801401 259.854545 
L 4557.45953 698.4 
L 4562.775788 698.4 
L 4565.433917 625.309091 
L 4570.750175 771.490909 
L 4573.408304 698.4 
L 4576.066433 844.581818 
L 4578.724562 698.4 
L 4581.382691 771.490909 
L 4584.04082 698.4 
L 4586.698949 771.490909 
L 4592.015208 625.309091 
L 4594.673337 698.4 
L 4597.331466 917.672727 
L 4599.989595 698.4 
L 4605.305853 698.4 
L 4607.963982 844.581818 
L 4610.622111 698.4 
L 4615.938369 698.4 
L 4618.596498 844.581818 
L 4621.254627 698.4 
L 4626.570885 698.4 
L 4629.229015 1136.945455 
L 4634.545273 259.854545 
L 4637.203402 698.4 
L 4639.861531 844.581818 
L 4642.51966 698.4 
L 4645.177789 771.490909 
L 4647.835918 698.4 
L 4650.494047 771.490909 
L 4653.152176 698.4 
L 4658.468434 698.4 
L 4661.126563 990.763636 
L 4663.784692 698.4 
L 4690.365983 698.4 
L 4693.024112 844.581818 
L 4695.682241 698.4 
L 4711.631016 698.4 
L 4714.289145 259.854545 
L 4719.605403 1136.945455 
L 4722.263532 698.4 
L 4724.921661 771.490909 
L 4727.57979 698.4 
L 4732.896048 698.4 
L 4735.554177 771.490909 
L 4738.212306 698.4 
L 4748.844822 698.4 
L 4751.502951 1136.945455 
L 4754.161081 698.4 
L 4770.109855 698.4 
L 4772.767984 259.854545 
L 4775.426113 698.4 
L 4780.742371 698.4 
L 4783.4005 1136.945455 
L 4786.058629 698.4 
L 4828.588694 698.4 
L 4831.246823 259.854545 
L 4833.904952 698.4 
L 4836.563082 844.581818 
L 4839.221211 698.4 
L 4844.537469 698.4 
L 4847.195598 844.581818 
L 4849.853727 698.4 
L 4876.435018 698.4 
L 4879.093147 990.763636 
L 4881.751276 698.4 
L 4884.409405 332.945455 
L 4887.067534 698.4 
L 4889.725663 259.854545 
L 4892.383792 698.4 
L 4897.70005 698.4 
L 4900.358179 844.581818 
L 4903.016308 698.4 
L 4905.674437 771.490909 
L 4908.332566 698.4 
L 4924.281341 698.4 
L 4926.93947 771.490909 
L 4929.597599 698.4 
L 4945.546373 698.4 
L 4948.204502 844.581818 
L 4950.862631 698.4 
L 4953.52076 1136.945455 
L 4956.178889 698.4 
L 4958.837019 990.763636 
L 4961.495148 698.4 
L 4964.153277 771.490909 
L 4966.811406 698.4 
L 4969.469535 1136.945455 
L 4974.785793 259.854545 
L 4980.102051 1136.945455 
L 4982.76018 698.4 
L 4993.392696 698.4 
L 4996.050825 990.763636 
L 4998.708954 698.4 
L 5019.973987 698.4 
L 5022.632116 259.854545 
L 5025.290245 698.4 
L 5027.948374 552.218182 
L 5030.606503 698.4 
L 5033.264632 259.854545 
L 5035.922761 698.4 
L 5041.23902 698.4 
L 5043.897149 771.490909 
L 5046.555278 698.4 
L 5062.504052 698.4 
L 5065.162181 552.218182 
L 5067.82031 698.4 
L 5105.034117 698.4 
L 5107.692246 771.490909 
L 5110.350375 698.4 
L 5168.829215 698.4 
L 5171.487344 625.309091 
L 5174.145473 698.4 
L 5190.094247 698.4 
L 5192.752376 259.854545 
L 5195.410505 698.4 
L 5198.068634 1063.854545 
L 5200.726763 698.4 
L 5221.991796 698.4 
L 5224.649925 1136.945455 
L 5227.308054 698.4 
L 5232.624312 698.4 
L 5235.282441 259.854545 
L 5237.94057 698.4 
L 5243.256828 698.4 
L 5245.914957 625.309091 
L 5248.573087 698.4 
L 5251.231216 1136.945455 
L 5253.889345 698.4 
L 5259.205603 698.4 
L 5261.863732 259.854545 
L 5267.17999 1136.945455 
L 5269.838119 698.4 
L 5272.496248 1136.945455 
L 5275.154377 698.4 
L 5280.470635 698.4 
L 5283.128764 259.854545 
L 5285.786893 698.4 
L 5288.445023 259.854545 
L 5293.761281 1136.945455 
L 5296.41941 698.4 
L 5307.051926 698.4 
L 5309.710055 771.490909 
L 5312.368184 698.4 
L 5317.684442 698.4 
L 5320.342571 259.854545 
L 5323.0007 698.4 
L 5328.316958 698.4 
L 5330.975088 1136.945455 
L 5333.633217 698.4 
L 5338.949475 698.4 
L 5341.607604 844.581818 
L 5344.265733 698.4 
L 5346.923862 259.854545 
L 5349.581991 698.4 
L 5352.24012 990.763636 
L 5354.898249 698.4 
L 5357.556378 1136.945455 
L 5360.214507 698.4 
L 5376.163282 698.4 
L 5378.821411 1136.945455 
L 5384.137669 259.854545 
L 5386.795798 698.4 
L 5389.453927 844.581818 
L 5392.112056 698.4 
L 5424.009605 698.4 
L 5426.667734 844.581818 
L 5429.325863 698.4 
L 5439.958379 698.4 
L 5442.616508 552.218182 
L 5445.274637 698.4 
L 5447.932766 259.854545 
L 5450.590895 698.4 
L 5453.249025 771.490909 
L 5455.907154 698.4 
L 5461.223412 698.4 
L 5463.881541 1136.945455 
L 5466.53967 698.4 
L 5482.488444 698.4 
L 5485.146573 332.945455 
L 5487.804702 698.4 
L 5493.12096 698.4 
L 5495.77909 917.672727 
L 5498.437219 698.4 
L 5525.018509 698.4 
L 5527.676638 1136.945455 
L 5530.334767 698.4 
L 5532.992896 1063.854545 
L 5535.651026 698.4 
L 5538.309155 479.127273 
L 5540.967284 698.4 
L 5551.5998 698.4 
L 5554.257929 917.672727 
L 5556.916058 698.4 
L 5562.232316 698.4 
L 5564.890445 479.127273 
L 5567.548574 698.4 
L 5588.813607 698.4 
L 5591.471736 844.581818 
L 5596.787994 552.218182 
L 5599.446123 698.4 
L 5636.65993 698.4 
L 5639.318059 1136.945455 
L 5641.976188 698.4 
L 5644.634317 625.309091 
L 5647.292446 698.4 
L 5673.873737 698.4 
L 5676.531866 1063.854545 
L 5679.189995 698.4 
L 5700.455028 698.4 
L 5703.113157 479.127273 
L 5705.771286 698.4 
L 5711.087544 698.4 
L 5713.745673 259.854545 
L 5716.403802 698.4 
L 5719.061931 771.490909 
L 5721.72006 698.4 
L 5724.378189 1063.854545 
L 5727.036318 698.4 
L 5742.985093 698.4 
L 5745.643222 1136.945455 
L 5748.301351 698.4 
L 5774.882641 698.4 
L 5777.54077 259.854545 
L 5780.198899 698.4 
L 5785.515158 698.4 
L 5788.173287 1136.945455 
L 5790.831416 698.4 
L 5793.489545 990.763636 
L 5796.147674 698.4 
L 5865.25903 698.4 
L 5867.917159 844.581818 
L 5873.233417 552.218182 
L 5875.891546 698.4 
L 5987.532966 698.4 
L 5990.191096 990.763636 
L 5992.849225 698.4 
L 6019.430515 698.4 
L 6022.088644 406.036364 
L 6024.746773 698.4 
L 6061.96058 698.4 
L 6064.618709 844.581818 
L 6067.276838 698.4 
L 6091.2 698.4 
L 6091.2 698.4 
" style="fill:none;stroke:#d62728;stroke-width:4;"/>
   </g>
   <g id="line2d_35">
    <path clip-path="url(#p208f84abc8)" d="M 777.6 1136.945455 
L 6091.2 1136.945455 
" style="fill:none;stroke:#000000;stroke-opacity:0.7;stroke-width:1.3;"/>
   </g>
   <g id="patch_3">
    <path d="M 777.6 1180.8 
L 777.6 216 
" style="fill:none;stroke:#000000;stroke-linecap:square;stroke-linejoin:miter;stroke-width:0.8;"/>
   </g>
   <g id="patch_4">
    <path d="M 6091.2 1180.8 
L 6091.2 216 
" style="fill:none;stroke:#000000;stroke-linecap:square;stroke-linejoin:miter;stroke-width:0.8;"/>
   </g>
   <g id="patch_5">
    <path d="M 777.6 1180.8 
L 6091.2 1180.8 
" style="fill:none;stroke:#000000;stroke-linecap:square;stroke-linejoin:miter;stroke-width:0.8;"/>
   </g>
   <g id="patch_6">
    <path d="M 777.6 216 
L 6091.2 216 
" style="fill:none;stroke:#000000;stroke-linecap:square;stroke-linejoin:miter;stroke-width:0.8;"/>
   </g>
   <g id="patch_7">
    <path d="M 0 1440 
L 6480 1440 
L 6480 1416.623377 
L 0 1416.623377 
z
" style="fill:#808080;"/>
   </g>
   <g id="text_18">
    <!-- spred -->
    <defs>
     <path d="M 50 72.515625 
Q 57.421875 72.515625 63.84375 69.828125 
Q 70.265625 67.140625 75.59375 61.8125 
Q 80.90625 56.5 83.546875 50.09375 
Q 86.1875 43.703125 86.1875 36.1875 
Q 86.1875 28.765625 83.546875 22.390625 
Q 80.90625 16.015625 75.59375 10.6875 
Q 70.265625 5.375 63.84375 2.6875 
Q 57.421875 0 50 0 
Q 42.578125 0 36.15625 2.6875 
Q 29.734375 5.375 24.421875 10.6875 
Q 19.09375 16.015625 16.453125 22.390625 
Q 13.8125 28.765625 13.8125 36.1875 
Q 13.8125 43.703125 16.453125 50.09375 
Q 19.09375 56.5 24.421875 61.8125 
Q 29.734375 67.140625 36.15625 69.828125 
Q 42.578125 72.515625 50 72.515625 
z
M 50 67.484375 
Q 43.609375 67.484375 38.078125 65.1875 
Q 32.5625 62.890625 27.984375 58.296875 
Q 23.390625 53.71875 21.046875 48.125 
Q 18.703125 42.53125 18.703125 36.1875 
Q 18.703125 29.890625 21.046875 24.34375 
Q 23.390625 18.796875 27.984375 14.203125 
Q 32.5625 9.625 38.078125 7.296875 
Q 43.609375 4.984375 50 4.984375 
Q 56.453125 4.984375 61.984375 7.296875 
Q 67.53125 9.625 72.125 14.203125 
Q 76.65625 18.75 78.921875 24.265625 
Q 81.203125 29.78125 81.203125 36.1875 
Q 81.203125 42.671875 78.90625 48.21875 
Q 76.609375 53.765625 72.125 58.296875 
Q 67.53125 62.890625 61.984375 65.1875 
Q 56.453125 67.484375 50 67.484375 
z
M 64.59375 55.515625 
L 64.59375 49.21875 
Q 61.375 50.828125 58.203125 51.609375 
Q 55.03125 52.390625 51.8125 52.390625 
Q 44.53125 52.390625 40.453125 48.109375 
Q 36.375 43.84375 36.375 36.1875 
Q 36.375 28.421875 40.546875 24.171875 
Q 44.734375 19.921875 52.296875 19.921875 
Q 55.421875 19.921875 58.390625 20.671875 
Q 61.375 21.4375 64.59375 23.09375 
L 64.59375 16.890625 
Q 61.328125 15.484375 57.984375 14.796875 
Q 54.640625 14.109375 51.21875 14.109375 
Q 40.671875 14.109375 34.546875 20.0625 
Q 28.421875 26.03125 28.421875 36.1875 
Q 28.421875 46.390625 34.546875 52.296875 
Q 40.671875 58.203125 51.21875 58.203125 
Q 54.78125 58.203125 58.09375 57.515625 
Q 61.421875 56.84375 64.59375 55.515625 
z
" id="DejaVuSans-169"/>
     <path d="M 44.28125 53.078125 
L 44.28125 44.578125 
Q 40.484375 46.53125 36.375 47.5 
Q 32.28125 48.484375 27.875 48.484375 
Q 21.1875 48.484375 17.84375 46.4375 
Q 14.5 44.390625 14.5 40.28125 
Q 14.5 37.15625 16.890625 35.375 
Q 19.28125 33.59375 26.515625 31.984375 
L 29.59375 31.296875 
Q 39.15625 29.25 43.1875 25.515625 
Q 47.21875 21.78125 47.21875 15.09375 
Q 47.21875 7.46875 41.1875 3.015625 
Q 35.15625 -1.421875 24.609375 -1.421875 
Q 20.21875 -1.421875 15.453125 -0.5625 
Q 10.6875 0.296875 5.421875 2 
L 5.421875 11.28125 
Q 10.40625 8.6875 15.234375 7.390625 
Q 20.0625 6.109375 24.8125 6.109375 
Q 31.15625 6.109375 34.5625 8.28125 
Q 37.984375 10.453125 37.984375 14.40625 
Q 37.984375 18.0625 35.515625 20.015625 
Q 33.0625 21.96875 24.703125 23.78125 
L 21.578125 24.515625 
Q 13.234375 26.265625 9.515625 29.90625 
Q 5.8125 33.546875 5.8125 39.890625 
Q 5.8125 47.609375 11.28125 51.796875 
Q 16.75 56 26.8125 56 
Q 31.78125 56 36.171875 55.265625 
Q 40.578125 54.546875 44.28125 53.078125 
z
" id="DejaVuSans-115"/>
     <path d="M 18.109375 8.203125 
L 18.109375 -20.796875 
L 9.078125 -20.796875 
L 9.078125 54.6875 
L 18.109375 54.6875 
L 18.109375 46.390625 
Q 20.953125 51.265625 25.265625 53.625 
Q 29.59375 56 35.59375 56 
Q 45.5625 56 51.78125 48.09375 
Q 58.015625 40.1875 58.015625 27.296875 
Q 58.015625 14.40625 51.78125 6.484375 
Q 45.5625 -1.421875 35.59375 -1.421875 
Q 29.59375 -1.421875 25.265625 0.953125 
Q 20.953125 3.328125 18.109375 8.203125 
z
M 48.6875 27.296875 
Q 48.6875 37.203125 44.609375 42.84375 
Q 40.53125 48.484375 33.40625 48.484375 
Q 26.265625 48.484375 22.1875 42.84375 
Q 18.109375 37.203125 18.109375 27.296875 
Q 18.109375 17.390625 22.1875 11.75 
Q 26.265625 6.109375 33.40625 6.109375 
Q 40.53125 6.109375 44.609375 11.75 
Q 48.6875 17.390625 48.6875 27.296875 
z
" id="DejaVuSans-112"/>
     <path d="M 41.109375 46.296875 
Q 39.59375 47.171875 37.8125 47.578125 
Q 36.03125 48 33.890625 48 
Q 26.265625 48 22.1875 43.046875 
Q 18.109375 38.09375 18.109375 28.8125 
L 18.109375 0 
L 9.078125 0 
L 9.078125 54.6875 
L 18.109375 54.6875 
L 18.109375 46.1875 
Q 20.953125 51.171875 25.484375 53.578125 
Q 30.03125 56 36.53125 56 
Q 37.453125 56 38.578125 55.875 
Q 39.703125 55.765625 41.0625 55.515625 
z
" id="DejaVuSans-114"/>
     <path d="M 56.203125 29.59375 
L 56.203125 25.203125 
L 14.890625 25.203125 
Q 15.484375 15.921875 20.484375 11.0625 
Q 25.484375 6.203125 34.421875 6.203125 
Q 39.59375 6.203125 44.453125 7.46875 
Q 49.3125 8.734375 54.109375 11.28125 
L 54.109375 2.78125 
Q 49.265625 0.734375 44.1875 -0.34375 
Q 39.109375 -1.421875 33.890625 -1.421875 
Q 20.796875 -1.421875 13.15625 6.1875 
Q 5.515625 13.8125 5.515625 26.8125 
Q 5.515625 40.234375 12.765625 48.109375 
Q 20.015625 56 32.328125 56 
Q 43.359375 56 49.78125 48.890625 
Q 56.203125 41.796875 56.203125 29.59375 
z
M 47.21875 32.234375 
Q 47.125 39.59375 43.09375 43.984375 
Q 39.0625 48.390625 32.421875 48.390625 
Q 24.90625 48.390625 20.390625 44.140625 
Q 15.875 39.890625 15.1875 32.171875 
z
" id="DejaVuSans-101"/>
     <path d="M 45.40625 46.390625 
L 45.40625 75.984375 
L 54.390625 75.984375 
L 54.390625 0 
L 45.40625 0 
L 45.40625 8.203125 
Q 42.578125 3.328125 38.25 0.953125 
Q 33.9375 -1.421875 27.875 -1.421875 
Q 17.96875 -1.421875 11.734375 6.484375 
Q 5.515625 14.40625 5.515625 27.296875 
Q 5.515625 40.1875 11.734375 48.09375 
Q 17.96875 56 27.875 56 
Q 33.9375 56 38.25 53.625 
Q 42.578125 51.265625 45.40625 46.390625 
z
M 14.796875 27.296875 
Q 14.796875 17.390625 18.875 11.75 
Q 22.953125 6.109375 30.078125 6.109375 
Q 37.203125 6.109375 41.296875 11.75 
Q 45.40625 17.390625 45.40625 27.296875 
Q 45.40625 37.203125 41.296875 42.84375 
Q 37.203125 48.484375 30.078125 48.484375 
Q 22.953125 48.484375 18.875 42.84375 
Q 14.796875 37.203125 14.796875 27.296875 
z
" id="DejaVuSans-100"/>
    </defs>
    <g style="fill:#ffffff;" transform="translate(64.8 1432.8)scale(0.14 -0.14)">
     <use xlink:href="#DejaVuSans-169"/>
     <use x="100" xlink:href="#DejaVuSans-115"/>
     <use x="152.099609" xlink:href="#DejaVuSans-112"/>
     <use x="215.576172" xlink:href="#DejaVuSans-114"/>
     <use x="256.658203" xlink:href="#DejaVuSans-101"/>
     <use x="318.181641" xlink:href="#DejaVuSans-100"/>
    </g>
   </g>
   <g id="text_19">
    <!-- sampleset -->
    <defs>
     <path d="M 23.40625 51.203125 
C 14.296875 51.203125 7.90625 44.703125 7.90625 36.90625 
C 7.90625 29.203125 12.90625 25.5 18.703125 23.09375 
C 24.59375 20.59375 30.703125 19.40625 30.703125 15 
C 30.703125 10.40625 27.90625 8.40625 23.90625 8.40625 
C 18.296875 8.40625 14.796875 13 12.796875 17.5 
L 4 12.703125 
C 6.59375 6.40625 13.09375 -0.796875 23.5 -0.796875 
C 34.296875 -0.796875 41 6.5 41 15.203125 
C 41 24.203125 33.703125 27.203125 26.90625 29.796875 
C 21.703125 31.796875 17.90625 33.40625 17.90625 37 
C 17.90625 40.296875 20.296875 42 22.90625 42 
C 26.09375 42 29.203125 40.59375 31.703125 37.40625 
L 38.296875 43.203125 
C 35.09375 48.203125 29.5 51.203125 23.40625 51.203125 
z
" id="ApercuPro-Medium-115"/>
     <path d="M 4.40625 14.5 
C 4.40625 4 11.5 -0.796875 19.90625 -0.796875 
C 27 -0.796875 32.203125 2 35.5 6.59375 
L 36.5 0 
L 45.296875 0 
L 45.296875 31.296875 
C 45.296875 46.09375 36.90625 51.203125 25.203125 51.203125 
C 15.5 51.203125 8.296875 45.796875 6.203125 37.296875 
L 15.703125 35.296875 
C 17.40625 39.796875 21 42 25.09375 42 
C 30.40625 42 34.90625 39.5 34.90625 33.203125 
L 34.90625 31 
L 26.203125 31 
C 13.296875 31 4.40625 24.90625 4.40625 14.5 
z
M 15.40625 14.5 
C 15.40625 19.296875 19.40625 22.296875 25.796875 22.296875 
L 34.90625 22.296875 
L 34.90625 21.203125 
C 34.90625 12.5 28.09375 8.40625 21.703125 8.40625 
C 17.296875 8.40625 15.40625 11.09375 15.40625 14.5 
z
" id="ApercuPro-Medium-97"/>
     <path d="M 8.59375 50.40625 
L 8.59375 0 
L 19 0 
L 19 19.09375 
C 19 34.09375 24.5 42 30.796875 42 
C 35.203125 42 38.203125 39.296875 38.203125 33.796875 
L 38.203125 0 
L 48.59375 0 
L 48.59375 20.203125 
C 48.59375 34.09375 54.203125 42 60.40625 42 
C 64.796875 42 67.796875 39.296875 67.796875 33.796875 
L 67.796875 0 
L 78.203125 0 
L 78.203125 36.09375 
C 78.203125 44.90625 73 51.203125 63.796875 51.203125 
C 57.296875 51.203125 51.59375 47.40625 48.09375 40.796875 
C 46.59375 47.09375 41 51.203125 34.203125 51.203125 
C 28.09375 51.203125 23.09375 48.09375 19 41.796875 
L 19 50.40625 
z
" id="ApercuPro-Medium-109"/>
     <path d="M 55.203125 25.203125 
C 55.203125 41.296875 47.59375 51.203125 32.703125 51.203125 
C 26.09375 51.203125 20.703125 47.5 19 44.59375 
L 19 50.40625 
L 8.59375 50.40625 
L 8.59375 -20.40625 
L 19 -20.40625 
L 19 5.59375 
C 21.296875 2.296875 26.296875 -0.796875 32.5 -0.796875 
C 47.59375 -0.796875 55.203125 9.59375 55.203125 25.203125 
z
M 44.203125 25.203125 
C 44.203125 14.796875 38.796875 8.40625 31.296875 8.40625 
C 23.796875 8.40625 18.40625 14.796875 18.40625 25.203125 
C 18.40625 35.59375 23.796875 42 31.296875 42 
C 38.796875 42 44.203125 35.59375 44.203125 25.203125 
z
" id="ApercuPro-Medium-112"/>
     <path d="M 8.40625 70.796875 
L 8.40625 0 
L 18.796875 0 
L 18.796875 70.796875 
z
" id="ApercuPro-Medium-108"/>
     <path d="M 28.40625 42 
C 35.90625 42 39.703125 36.59375 40.59375 31 
L 16.09375 31 
C 17.203125 37.296875 21.5 42 28.40625 42 
z
M 51.59375 26.796875 
C 51.59375 38.09375 44.5 51.203125 28.40625 51.203125 
C 11.796875 51.203125 4.90625 37.203125 4.90625 25.203125 
C 4.90625 13.203125 11.796875 -0.796875 28.40625 -0.796875 
C 39.90625 -0.796875 45.59375 3.90625 50.5 13.40625 
L 41.59375 16.90625 
C 39 11.40625 33.796875 8.40625 28.40625 8.40625 
C 20.203125 8.40625 15.90625 14.90625 15.90625 22.296875 
L 51.59375 22.296875 
z
" id="ApercuPro-Medium-101"/>
     <path d="M 2.09375 41.203125 
L 10.5 41.203125 
L 10.5 17.203125 
C 10.5 4.796875 17.5 -0.796875 27 -0.796875 
C 29.796875 -0.796875 32.40625 -0.296875 35.09375 1 
L 32.40625 9.796875 
C 30.59375 8.703125 29.40625 8.40625 27.59375 8.40625 
C 23 8.40625 20.90625 10.90625 20.90625 16.59375 
L 20.90625 41.203125 
L 34 41.203125 
L 34 50.40625 
L 20.90625 50.40625 
L 20.90625 70.796875 
L 10.5 64.296875 
L 10.5 50.40625 
L 2.09375 50.40625 
z
" id="ApercuPro-Medium-116"/>
    </defs>
    <g style="opacity:0.75;" transform="translate(1044 144)scale(0.3 -0.3)">
     <use xlink:href="#ApercuPro-Medium-115"/>
     <use x="44.999985" xlink:href="#ApercuPro-Medium-97"/>
     <use x="96.384354" xlink:href="#ApercuPro-Medium-109"/>
     <use x="182.453094" xlink:href="#ApercuPro-Medium-112"/>
     <use x="242.553085" xlink:href="#ApercuPro-Medium-108"/>
     <use x="269.653076" xlink:href="#ApercuPro-Medium-101"/>
     <use x="325.55307" xlink:href="#ApercuPro-Medium-115"/>
     <use x="370.553055" xlink:href="#ApercuPro-Medium-101"/>
     <use x="426.453049" xlink:href="#ApercuPro-Medium-116"/>
    </g>
   </g>
   <g id="text_20">
    <!-- Predictions v. Actuals -->
    <defs>
     <path d="M 25.40625 70 
L 33.796875 70 
L 58 0 
L 49.203125 0 
L 43 18.703125 
L 16.203125 18.703125 
L 10 0 
L 1.203125 0 
z
M 29.59375 58.59375 
L 19 27.09375 
L 40.203125 27.09375 
z
" id="Apercu-65"/>
     <path d="M 14.203125 14.5 
Q 14.203125 10.90625 16.34375 8.84375 
Q 18.5 6.796875 22.5 6.796875 
Q 28.203125 6.796875 32.390625 10.546875 
Q 36.59375 14.296875 36.59375 22.203125 
L 36.59375 23.40625 
L 27.59375 23.40625 
Q 21.203125 23.40625 17.703125 21.09375 
Q 14.203125 18.796875 14.203125 14.5 
z
M 45 32.203125 
L 45 0 
L 38.40625 0 
L 37 7.09375 
Q 31.5 -0.796875 21.203125 -0.796875 
Q 14.40625 -0.796875 10 3 
Q 5.59375 6.796875 5.59375 14.5 
Q 5.59375 22.5 11.6875 26.75 
Q 17.796875 31 28.40625 31 
L 36.59375 31 
L 36.59375 33.203125 
Q 36.59375 43.59375 25.59375 43.59375 
Q 21.59375 43.59375 18.75 41.5 
Q 15.90625 39.40625 15.09375 35.703125 
L 7.703125 37.40625 
Q 8.703125 43.796875 13.59375 47.5 
Q 18.5 51.203125 25.59375 51.203125 
Q 34.40625 51.203125 39.703125 46.5 
Q 45 41.796875 45 32.203125 
z
" id="Apercu-97"/>
     <path d="M 9 70.796875 
L 17.40625 70.796875 
L 17.40625 0 
L 9 0 
z
" id="Apercu-108"/>
    </defs>
    <g style="opacity:0.75;" transform="translate(1045 158.4)scale(0.14 -0.14)">
     <use xlink:href="#Apercu-80"/>
     <use x="58.399994" xlink:href="#Apercu-114"/>
     <use x="99.699982" xlink:href="#Apercu-101"/>
     <use x="155.699966" xlink:href="#Apercu-100"/>
     <use x="215.768707" xlink:href="#Apercu-105"/>
     <use x="242.753067" xlink:href="#Apercu-99"/>
     <use x="296.56868" xlink:href="#Apercu-116"/>
     <use x="334.368668" xlink:href="#Apercu-105"/>
     <use x="361.368652" xlink:href="#Apercu-111"/>
     <use x="420.568649" xlink:href="#Apercu-110"/>
     <use x="478.253021" xlink:href="#Apercu-115"/>
     <use x="524.353012" xlink:href="#Apercu-32"/>
     <use x="551.153" xlink:href="#Apercu-118"/>
     <use x="596.752991" xlink:href="#Apercu-46"/>
     <use x="627.352982" xlink:href="#Apercu-32"/>
     <use x="654.152969" xlink:href="#Apercu-65"/>
     <use x="713.352966" xlink:href="#Apercu-99"/>
     <use x="767.168579" xlink:href="#Apercu-116"/>
     <use x="804.952942" xlink:href="#Apercu-117"/>
     <use x="862.652939" xlink:href="#Apercu-97"/>
     <use x="914.452927" xlink:href="#Apercu-108"/>
     <use x="940.252914" xlink:href="#Apercu-115"/>
    </g>
   </g>
   <g id="legend_1">
    <g id="patch_8">
     <path d="M 5972.976562 306.27375 
L 6081.4 306.27375 
Q 6084.2 306.27375 6084.2 303.47375 
L 6084.2 225.8 
Q 6084.2 223 6081.4 223 
L 5972.976562 223 
Q 5970.176562 223 5970.176562 225.8 
L 5970.176562 303.47375 
Q 5970.176562 306.27375 5972.976562 306.27375 
z
" style="fill:#f0f0f0;opacity:0.8;stroke:#cccccc;stroke-linejoin:miter;stroke-width:0.5;"/>
    </g>
    <g id="line2d_36">
     <path d="M 5975.776563 233.611563 
L 6003.776563 233.611563 
" style="fill:none;stroke:#000004;stroke-width:3;"/>
    </g>
    <g id="line2d_37"/>
    <g id="text_21">
     <!-- pred bid -->
     <defs>
      <path d="M 32.296875 -0.796875 
Q 27.796875 -0.796875 23.640625 1.25 
Q 19.5 3.296875 17.59375 6.203125 
L 17.59375 0 
L 9.203125 0 
L 9.203125 70.796875 
L 17.59375 70.796875 
L 17.59375 44.40625 
Q 19 46.796875 23.390625 49 
Q 27.796875 51.203125 32.296875 51.203125 
Q 43.09375 51.203125 48.890625 44.046875 
Q 54.703125 36.90625 54.703125 25.203125 
Q 54.703125 13.5 48.890625 6.34375 
Q 43.09375 -0.796875 32.296875 -0.796875 
z
M 31.5 43.59375 
Q 24.703125 43.59375 20.796875 38.5 
Q 16.90625 33.40625 16.90625 25.203125 
Q 16.90625 17 20.796875 11.890625 
Q 24.703125 6.796875 31.5 6.796875 
Q 38.09375 6.796875 42.09375 11.890625 
Q 46.09375 17 46.09375 25.203125 
Q 46.09375 33.40625 42.09375 38.5 
Q 38.09375 43.59375 31.5 43.59375 
z
" id="Apercu-98"/>
     </defs>
     <g style="opacity:0.75;" transform="translate(6014.976562 238.511563)scale(0.14 -0.14)">
      <use xlink:href="#Apercu-112"/>
      <use x="60.099991" xlink:href="#Apercu-114"/>
      <use x="101.399979" xlink:href="#Apercu-101"/>
      <use x="157.399963" xlink:href="#Apercu-100"/>
      <use x="217.499954" xlink:href="#Apercu-32"/>
      <use x="244.299942" xlink:href="#Apercu-98"/>
      <use x="304.384308" xlink:href="#Apercu-105"/>
      <use x="331.384293" xlink:href="#Apercu-100"/>
     </g>
    </g>
    <g id="line2d_38">
     <path d="M 5975.776563 253.38 
L 6003.776563 253.38 
" style="fill:none;stroke:#b73779;stroke-width:3;"/>
    </g>
    <g id="line2d_39"/>
    <g id="text_22">
     <!-- pred ask -->
     <defs>
      <path d="M 9.203125 70.796875 
L 17.59375 70.796875 
L 17.59375 29.296875 
L 37.203125 50.40625 
L 48 50.40625 
L 26.59375 27.296875 
L 49.59375 0 
L 38.90625 0 
L 17.59375 25.296875 
L 17.59375 0 
L 9.203125 0 
z
" id="Apercu-107"/>
     </defs>
     <g style="opacity:0.75;" transform="translate(6014.976562 258.28)scale(0.14 -0.14)">
      <use xlink:href="#Apercu-112"/>
      <use x="60.099991" xlink:href="#Apercu-114"/>
      <use x="101.399979" xlink:href="#Apercu-101"/>
      <use x="157.399963" xlink:href="#Apercu-100"/>
      <use x="217.499954" xlink:href="#Apercu-32"/>
      <use x="244.299942" xlink:href="#Apercu-97"/>
      <use x="296.09993" xlink:href="#Apercu-115"/>
      <use x="342.184296" xlink:href="#Apercu-107"/>
     </g>
    </g>
    <g id="line2d_40">
     <path d="M 5975.776563 273.148438 
L 6003.776563 273.148438 
" style="fill:none;stroke:#2ca02c;stroke-width:4;"/>
    </g>
    <g id="line2d_41"/>
    <g id="text_23">
     <!-- actual bid -->
     <g style="opacity:0.75;" transform="translate(6014.976562 278.048438)scale(0.14 -0.14)">
      <use xlink:href="#Apercu-97"/>
      <use x="51.799988" xlink:href="#Apercu-99"/>
      <use x="105.615601" xlink:href="#Apercu-116"/>
      <use x="143.399963" xlink:href="#Apercu-117"/>
      <use x="201.09996" xlink:href="#Apercu-97"/>
      <use x="252.899948" xlink:href="#Apercu-108"/>
      <use x="278.699936" xlink:href="#Apercu-32"/>
      <use x="305.499924" xlink:href="#Apercu-98"/>
      <use x="365.58429" xlink:href="#Apercu-105"/>
      <use x="392.584274" xlink:href="#Apercu-100"/>
     </g>
    </g>
    <g id="line2d_42">
     <path d="M 5975.776563 292.916875 
L 6003.776563 292.916875 
" style="fill:none;stroke:#d62728;stroke-width:4;"/>
    </g>
    <g id="line2d_43"/>
    <g id="text_24">
     <!-- actual ask -->
     <g style="opacity:0.75;" transform="translate(6014.976562 297.816875)scale(0.14 -0.14)">
      <use xlink:href="#Apercu-97"/>
      <use x="51.799988" xlink:href="#Apercu-99"/>
      <use x="105.615601" xlink:href="#Apercu-116"/>
      <use x="143.399963" xlink:href="#Apercu-117"/>
      <use x="201.09996" xlink:href="#Apercu-97"/>
      <use x="252.899948" xlink:href="#Apercu-108"/>
      <use x="278.699936" xlink:href="#Apercu-32"/>
      <use x="305.499924" xlink:href="#Apercu-97"/>
      <use x="357.299911" xlink:href="#Apercu-115"/>
      <use x="403.384277" xlink:href="#Apercu-107"/>
     </g>
    </g>
   </g>
  </g>
 </g>
 <defs>
  <clipPath id="p208f84abc8">
   <rect height="964.8" width="5313.6" x="777.6" y="216"/>
  </clipPath>
 </defs>
</svg>
