<?xml version="1.0" encoding="utf-8" standalone="no"?>
<!DOCTYPE svg PUBLIC "-//W3C//DTD SVG 1.1//EN"
  "http://www.w3.org/Graphics/SVG/1.1/DTD/svg11.dtd">
<!-- Created with matplotlib (https://matplotlib.org/) -->
<svg height="504pt" version="1.1" viewBox="0 0 648 504" width="648pt" xmlns="http://www.w3.org/2000/svg" xmlns:xlink="http://www.w3.org/1999/xlink">
 <defs>
  <style type="text/css">
*{stroke-linecap:butt;stroke-linejoin:round;white-space:pre;}
  </style>
 </defs>
 <g id="figure_1">
  <g id="patch_1">
   <path d="M 0 504 
L 648 504 
L 648 0 
L 0 0 
z
" style="fill:#f0f0f0;"/>
  </g>
  <g id="axes_1">
   <g id="patch_2">
    <path d="M 77.76 413.28 
L 609.12 413.28 
L 609.12 75.6 
L 77.76 75.6 
z
" style="fill:#f0f0f0;"/>
   </g>
   <g id="matplotlib.axis_1">
    <g id="xtick_1">
     <g id="line2d_1">
      <path clip-path="url(#peb68870d8a)" d="M 77.76 413.28 
L 77.76 75.6 
" style="fill:none;stroke:#b0b0b0;stroke-linecap:square;stroke-width:0.8;"/>
     </g>
     <g id="line2d_2">
      <defs>
       <path d="M 0 0 
L 0 3.5 
" id="mbbb0ed72d3" style="stroke:#000000;stroke-width:0.8;"/>
      </defs>
      <g>
       <use style="stroke:#000000;stroke-width:0.8;" x="77.76" xlink:href="#mbbb0ed72d3" y="413.28"/>
      </g>
     </g>
     <g id="text_1">
      <!-- 0 -->
      <defs>
       <path d="M 31.78125 66.40625 
Q 24.171875 66.40625 20.328125 58.90625 
Q 16.5 51.421875 16.5 36.375 
Q 16.5 21.390625 20.328125 13.890625 
Q 24.171875 6.390625 31.78125 6.390625 
Q 39.453125 6.390625 43.28125 13.890625 
Q 47.125 21.390625 47.125 36.375 
Q 47.125 51.421875 43.28125 58.90625 
Q 39.453125 66.40625 31.78125 66.40625 
z
M 31.78125 74.21875 
Q 44.046875 74.21875 50.515625 64.515625 
Q 56.984375 54.828125 56.984375 36.375 
Q 56.984375 17.96875 50.515625 8.265625 
Q 44.046875 -1.421875 31.78125 -1.421875 
Q 19.53125 -1.421875 13.0625 8.265625 
Q 6.59375 17.96875 6.59375 36.375 
Q 6.59375 54.828125 13.0625 64.515625 
Q 19.53125 74.21875 31.78125 74.21875 
z
" id="DejaVuSans-48"/>
      </defs>
      <g style="fill:#303030;" transform="translate(73.30625 430.917812)scale(0.14 -0.14)">
       <use xlink:href="#DejaVuSans-48"/>
      </g>
     </g>
    </g>
    <g id="xtick_2">
     <g id="line2d_3">
      <path clip-path="url(#peb68870d8a)" d="M 185.105455 413.28 
L 185.105455 75.6 
" style="fill:none;stroke:#b0b0b0;stroke-linecap:square;stroke-width:0.8;"/>
     </g>
     <g id="line2d_4">
      <g>
       <use style="stroke:#000000;stroke-width:0.8;" x="185.105455" xlink:href="#mbbb0ed72d3" y="413.28"/>
      </g>
     </g>
     <g id="text_2">
      <!-- 20 -->
      <defs>
       <path d="M 19.1875 8.296875 
L 53.609375 8.296875 
L 53.609375 0 
L 7.328125 0 
L 7.328125 8.296875 
Q 12.9375 14.109375 22.625 23.890625 
Q 32.328125 33.6875 34.8125 36.53125 
Q 39.546875 41.84375 41.421875 45.53125 
Q 43.3125 49.21875 43.3125 52.78125 
Q 43.3125 58.59375 39.234375 62.25 
Q 35.15625 65.921875 28.609375 65.921875 
Q 23.96875 65.921875 18.8125 64.3125 
Q 13.671875 62.703125 7.8125 59.421875 
L 7.8125 69.390625 
Q 13.765625 71.78125 18.9375 73 
Q 24.125 74.21875 28.421875 74.21875 
Q 39.75 74.21875 46.484375 68.546875 
Q 53.21875 62.890625 53.21875 53.421875 
Q 53.21875 48.921875 51.53125 44.890625 
Q 49.859375 40.875 45.40625 35.40625 
Q 44.1875 33.984375 37.640625 27.21875 
Q 31.109375 20.453125 19.1875 8.296875 
z
" id="DejaVuSans-50"/>
      </defs>
      <g style="fill:#303030;" transform="translate(176.197955 430.917812)scale(0.14 -0.14)">
       <use xlink:href="#DejaVuSans-50"/>
       <use x="63.623047" xlink:href="#DejaVuSans-48"/>
      </g>
     </g>
    </g>
    <g id="xtick_3">
     <g id="line2d_5">
      <path clip-path="url(#peb68870d8a)" d="M 292.450909 413.28 
L 292.450909 75.6 
" style="fill:none;stroke:#b0b0b0;stroke-linecap:square;stroke-width:0.8;"/>
     </g>
     <g id="line2d_6">
      <g>
       <use style="stroke:#000000;stroke-width:0.8;" x="292.450909" xlink:href="#mbbb0ed72d3" y="413.28"/>
      </g>
     </g>
     <g id="text_3">
      <!-- 40 -->
      <defs>
       <path d="M 37.796875 64.3125 
L 12.890625 25.390625 
L 37.796875 25.390625 
z
M 35.203125 72.90625 
L 47.609375 72.90625 
L 47.609375 25.390625 
L 58.015625 25.390625 
L 58.015625 17.1875 
L 47.609375 17.1875 
L 47.609375 0 
L 37.796875 0 
L 37.796875 17.1875 
L 4.890625 17.1875 
L 4.890625 26.703125 
z
" id="DejaVuSans-52"/>
      </defs>
      <g style="fill:#303030;" transform="translate(283.543409 430.917812)scale(0.14 -0.14)">
       <use xlink:href="#DejaVuSans-52"/>
       <use x="63.623047" xlink:href="#DejaVuSans-48"/>
      </g>
     </g>
    </g>
    <g id="xtick_4">
     <g id="line2d_7">
      <path clip-path="url(#peb68870d8a)" d="M 399.796364 413.28 
L 399.796364 75.6 
" style="fill:none;stroke:#b0b0b0;stroke-linecap:square;stroke-width:0.8;"/>
     </g>
     <g id="line2d_8">
      <g>
       <use style="stroke:#000000;stroke-width:0.8;" x="399.796364" xlink:href="#mbbb0ed72d3" y="413.28"/>
      </g>
     </g>
     <g id="text_4">
      <!-- 60 -->
      <defs>
       <path d="M 33.015625 40.375 
Q 26.375 40.375 22.484375 35.828125 
Q 18.609375 31.296875 18.609375 23.390625 
Q 18.609375 15.53125 22.484375 10.953125 
Q 26.375 6.390625 33.015625 6.390625 
Q 39.65625 6.390625 43.53125 10.953125 
Q 47.40625 15.53125 47.40625 23.390625 
Q 47.40625 31.296875 43.53125 35.828125 
Q 39.65625 40.375 33.015625 40.375 
z
M 52.59375 71.296875 
L 52.59375 62.3125 
Q 48.875 64.0625 45.09375 64.984375 
Q 41.3125 65.921875 37.59375 65.921875 
Q 27.828125 65.921875 22.671875 59.328125 
Q 17.53125 52.734375 16.796875 39.40625 
Q 19.671875 43.65625 24.015625 45.921875 
Q 28.375 48.1875 33.59375 48.1875 
Q 44.578125 48.1875 50.953125 41.515625 
Q 57.328125 34.859375 57.328125 23.390625 
Q 57.328125 12.15625 50.6875 5.359375 
Q 44.046875 -1.421875 33.015625 -1.421875 
Q 20.359375 -1.421875 13.671875 8.265625 
Q 6.984375 17.96875 6.984375 36.375 
Q 6.984375 53.65625 15.1875 63.9375 
Q 23.390625 74.21875 37.203125 74.21875 
Q 40.921875 74.21875 44.703125 73.484375 
Q 48.484375 72.75 52.59375 71.296875 
z
" id="DejaVuSans-54"/>
      </defs>
      <g style="fill:#303030;" transform="translate(390.888864 430.917812)scale(0.14 -0.14)">
       <use xlink:href="#DejaVuSans-54"/>
       <use x="63.623047" xlink:href="#DejaVuSans-48"/>
      </g>
     </g>
    </g>
    <g id="xtick_5">
     <g id="line2d_9">
      <path clip-path="url(#peb68870d8a)" d="M 507.141818 413.28 
L 507.141818 75.6 
" style="fill:none;stroke:#b0b0b0;stroke-linecap:square;stroke-width:0.8;"/>
     </g>
     <g id="line2d_10">
      <g>
       <use style="stroke:#000000;stroke-width:0.8;" x="507.141818" xlink:href="#mbbb0ed72d3" y="413.28"/>
      </g>
     </g>
     <g id="text_5">
      <!-- 80 -->
      <defs>
       <path d="M 31.78125 34.625 
Q 24.75 34.625 20.71875 30.859375 
Q 16.703125 27.09375 16.703125 20.515625 
Q 16.703125 13.921875 20.71875 10.15625 
Q 24.75 6.390625 31.78125 6.390625 
Q 38.8125 6.390625 42.859375 10.171875 
Q 46.921875 13.96875 46.921875 20.515625 
Q 46.921875 27.09375 42.890625 30.859375 
Q 38.875 34.625 31.78125 34.625 
z
M 21.921875 38.8125 
Q 15.578125 40.375 12.03125 44.71875 
Q 8.5 49.078125 8.5 55.328125 
Q 8.5 64.0625 14.71875 69.140625 
Q 20.953125 74.21875 31.78125 74.21875 
Q 42.671875 74.21875 48.875 69.140625 
Q 55.078125 64.0625 55.078125 55.328125 
Q 55.078125 49.078125 51.53125 44.71875 
Q 48 40.375 41.703125 38.8125 
Q 48.828125 37.15625 52.796875 32.3125 
Q 56.78125 27.484375 56.78125 20.515625 
Q 56.78125 9.90625 50.3125 4.234375 
Q 43.84375 -1.421875 31.78125 -1.421875 
Q 19.734375 -1.421875 13.25 4.234375 
Q 6.78125 9.90625 6.78125 20.515625 
Q 6.78125 27.484375 10.78125 32.3125 
Q 14.796875 37.15625 21.921875 38.8125 
z
M 18.3125 54.390625 
Q 18.3125 48.734375 21.84375 45.5625 
Q 25.390625 42.390625 31.78125 42.390625 
Q 38.140625 42.390625 41.71875 45.5625 
Q 45.3125 48.734375 45.3125 54.390625 
Q 45.3125 60.0625 41.71875 63.234375 
Q 38.140625 66.40625 31.78125 66.40625 
Q 25.390625 66.40625 21.84375 63.234375 
Q 18.3125 60.0625 18.3125 54.390625 
z
" id="DejaVuSans-56"/>
      </defs>
      <g style="fill:#303030;" transform="translate(498.234318 430.917812)scale(0.14 -0.14)">
       <use xlink:href="#DejaVuSans-56"/>
       <use x="63.623047" xlink:href="#DejaVuSans-48"/>
      </g>
     </g>
    </g>
    <g id="text_6">
     <!-- x -->
     <defs>
      <path d="M 3.59375 50.40625 
L 13.09375 50.40625 
L 22.90625 34.40625 
L 32.703125 50.40625 
L 42.203125 50.40625 
L 27.59375 26.59375 
L 44 0 
L 34.5 0 
L 22.90625 18.90625 
L 11.296875 0 
L 1.796875 0 
L 18.203125 26.59375 
z
" id="Apercu-120"/>
     </defs>
     <g style="opacity:0.75;" transform="translate(340.234219 447.740937)scale(0.14 -0.14)">
      <use xlink:href="#Apercu-120"/>
     </g>
    </g>
   </g>
   <g id="matplotlib.axis_2">
    <g id="ytick_1">
     <g id="line2d_11">
      <path clip-path="url(#peb68870d8a)" d="M 77.76 397.942696 
L 609.12 397.942696 
" style="fill:none;stroke:#b0b0b0;stroke-linecap:square;stroke-width:0.8;"/>
     </g>
     <g id="line2d_12">
      <defs>
       <path d="M 0 0 
L -3.5 0 
" id="m438fb58262" style="stroke:#000000;stroke-width:0.8;"/>
      </defs>
      <g>
       <use style="stroke:#000000;stroke-width:0.8;" x="77.76" xlink:href="#m438fb58262" y="397.942696"/>
      </g>
     </g>
     <g id="text_7">
      <!-- −1.00 -->
      <defs>
       <path d="M 10.59375 35.5 
L 73.1875 35.5 
L 73.1875 27.203125 
L 10.59375 27.203125 
z
" id="DejaVuSans-8722"/>
       <path d="M 12.40625 8.296875 
L 28.515625 8.296875 
L 28.515625 63.921875 
L 10.984375 60.40625 
L 10.984375 69.390625 
L 28.421875 72.90625 
L 38.28125 72.90625 
L 38.28125 8.296875 
L 54.390625 8.296875 
L 54.390625 0 
L 12.40625 0 
z
" id="DejaVuSans-49"/>
       <path d="M 10.6875 12.40625 
L 21 12.40625 
L 21 0 
L 10.6875 0 
z
" id="DejaVuSans-46"/>
      </defs>
      <g style="fill:#303030;" transform="translate(27.856562 403.261602)scale(0.14 -0.14)">
       <use xlink:href="#DejaVuSans-8722"/>
       <use x="83.789062" xlink:href="#DejaVuSans-49"/>
       <use x="147.412109" xlink:href="#DejaVuSans-46"/>
       <use x="179.199219" xlink:href="#DejaVuSans-48"/>
       <use x="242.822266" xlink:href="#DejaVuSans-48"/>
      </g>
     </g>
    </g>
    <g id="ytick_2">
     <g id="line2d_13">
      <path clip-path="url(#peb68870d8a)" d="M 77.76 359.560312 
L 609.12 359.560312 
" style="fill:none;stroke:#b0b0b0;stroke-linecap:square;stroke-width:0.8;"/>
     </g>
     <g id="line2d_14">
      <g>
       <use style="stroke:#000000;stroke-width:0.8;" x="77.76" xlink:href="#m438fb58262" y="359.560312"/>
      </g>
     </g>
     <g id="text_8">
      <!-- −0.75 -->
      <defs>
       <path d="M 8.203125 72.90625 
L 55.078125 72.90625 
L 55.078125 68.703125 
L 28.609375 0 
L 18.3125 0 
L 43.21875 64.59375 
L 8.203125 64.59375 
z
" id="DejaVuSans-55"/>
       <path d="M 10.796875 72.90625 
L 49.515625 72.90625 
L 49.515625 64.59375 
L 19.828125 64.59375 
L 19.828125 46.734375 
Q 21.96875 47.46875 24.109375 47.828125 
Q 26.265625 48.1875 28.421875 48.1875 
Q 40.625 48.1875 47.75 41.5 
Q 54.890625 34.8125 54.890625 23.390625 
Q 54.890625 11.625 47.5625 5.09375 
Q 40.234375 -1.421875 26.90625 -1.421875 
Q 22.3125 -1.421875 17.546875 -0.640625 
Q 12.796875 0.140625 7.71875 1.703125 
L 7.71875 11.625 
Q 12.109375 9.234375 16.796875 8.0625 
Q 21.484375 6.890625 26.703125 6.890625 
Q 35.15625 6.890625 40.078125 11.328125 
Q 45.015625 15.765625 45.015625 23.390625 
Q 45.015625 31 40.078125 35.4375 
Q 35.15625 39.890625 26.703125 39.890625 
Q 22.75 39.890625 18.8125 39.015625 
Q 14.890625 38.140625 10.796875 36.28125 
z
" id="DejaVuSans-53"/>
      </defs>
      <g style="fill:#303030;" transform="translate(27.856562 364.879218)scale(0.14 -0.14)">
       <use xlink:href="#DejaVuSans-8722"/>
       <use x="83.789062" xlink:href="#DejaVuSans-48"/>
       <use x="147.412109" xlink:href="#DejaVuSans-46"/>
       <use x="179.199219" xlink:href="#DejaVuSans-55"/>
       <use x="242.822266" xlink:href="#DejaVuSans-53"/>
      </g>
     </g>
    </g>
    <g id="ytick_3">
     <g id="line2d_15">
      <path clip-path="url(#peb68870d8a)" d="M 77.76 321.177929 
L 609.12 321.177929 
" style="fill:none;stroke:#b0b0b0;stroke-linecap:square;stroke-width:0.8;"/>
     </g>
     <g id="line2d_16">
      <g>
       <use style="stroke:#000000;stroke-width:0.8;" x="77.76" xlink:href="#m438fb58262" y="321.177929"/>
      </g>
     </g>
     <g id="text_9">
      <!-- −0.50 -->
      <g style="fill:#303030;" transform="translate(27.856562 326.496835)scale(0.14 -0.14)">
       <use xlink:href="#DejaVuSans-8722"/>
       <use x="83.789062" xlink:href="#DejaVuSans-48"/>
       <use x="147.412109" xlink:href="#DejaVuSans-46"/>
       <use x="179.199219" xlink:href="#DejaVuSans-53"/>
       <use x="242.822266" xlink:href="#DejaVuSans-48"/>
      </g>
     </g>
    </g>
    <g id="ytick_4">
     <g id="line2d_17">
      <path clip-path="url(#peb68870d8a)" d="M 77.76 282.795545 
L 609.12 282.795545 
" style="fill:none;stroke:#b0b0b0;stroke-linecap:square;stroke-width:0.8;"/>
     </g>
     <g id="line2d_18">
      <g>
       <use style="stroke:#000000;stroke-width:0.8;" x="77.76" xlink:href="#m438fb58262" y="282.795545"/>
      </g>
     </g>
     <g id="text_10">
      <!-- −0.25 -->
      <g style="fill:#303030;" transform="translate(27.856562 288.114451)scale(0.14 -0.14)">
       <use xlink:href="#DejaVuSans-8722"/>
       <use x="83.789062" xlink:href="#DejaVuSans-48"/>
       <use x="147.412109" xlink:href="#DejaVuSans-46"/>
       <use x="179.199219" xlink:href="#DejaVuSans-50"/>
       <use x="242.822266" xlink:href="#DejaVuSans-53"/>
      </g>
     </g>
    </g>
    <g id="ytick_5">
     <g id="line2d_19">
      <path clip-path="url(#peb68870d8a)" d="M 77.76 244.413162 
L 609.12 244.413162 
" style="fill:none;stroke:#b0b0b0;stroke-linecap:square;stroke-width:0.8;"/>
     </g>
     <g id="line2d_20">
      <g>
       <use style="stroke:#000000;stroke-width:0.8;" x="77.76" xlink:href="#m438fb58262" y="244.413162"/>
      </g>
     </g>
     <g id="text_11">
      <!-- 0.00 -->
      <g style="fill:#303030;" transform="translate(39.588125 249.732068)scale(0.14 -0.14)">
       <use xlink:href="#DejaVuSans-48"/>
       <use x="63.623047" xlink:href="#DejaVuSans-46"/>
       <use x="95.410156" xlink:href="#DejaVuSans-48"/>
       <use x="159.033203" xlink:href="#DejaVuSans-48"/>
      </g>
     </g>
    </g>
    <g id="ytick_6">
     <g id="line2d_21">
      <path clip-path="url(#peb68870d8a)" d="M 77.76 206.030778 
L 609.12 206.030778 
" style="fill:none;stroke:#b0b0b0;stroke-linecap:square;stroke-width:0.8;"/>
     </g>
     <g id="line2d_22">
      <g>
       <use style="stroke:#000000;stroke-width:0.8;" x="77.76" xlink:href="#m438fb58262" y="206.030778"/>
      </g>
     </g>
     <g id="text_12">
      <!-- 0.25 -->
      <g style="fill:#303030;" transform="translate(39.588125 211.349684)scale(0.14 -0.14)">
       <use xlink:href="#DejaVuSans-48"/>
       <use x="63.623047" xlink:href="#DejaVuSans-46"/>
       <use x="95.410156" xlink:href="#DejaVuSans-50"/>
       <use x="159.033203" xlink:href="#DejaVuSans-53"/>
      </g>
     </g>
    </g>
    <g id="ytick_7">
     <g id="line2d_23">
      <path clip-path="url(#peb68870d8a)" d="M 77.76 167.648395 
L 609.12 167.648395 
" style="fill:none;stroke:#b0b0b0;stroke-linecap:square;stroke-width:0.8;"/>
     </g>
     <g id="line2d_24">
      <g>
       <use style="stroke:#000000;stroke-width:0.8;" x="77.76" xlink:href="#m438fb58262" y="167.648395"/>
      </g>
     </g>
     <g id="text_13">
      <!-- 0.50 -->
      <g style="fill:#303030;" transform="translate(39.588125 172.967301)scale(0.14 -0.14)">
       <use xlink:href="#DejaVuSans-48"/>
       <use x="63.623047" xlink:href="#DejaVuSans-46"/>
       <use x="95.410156" xlink:href="#DejaVuSans-53"/>
       <use x="159.033203" xlink:href="#DejaVuSans-48"/>
      </g>
     </g>
    </g>
    <g id="ytick_8">
     <g id="line2d_25">
      <path clip-path="url(#peb68870d8a)" d="M 77.76 129.266011 
L 609.12 129.266011 
" style="fill:none;stroke:#b0b0b0;stroke-linecap:square;stroke-width:0.8;"/>
     </g>
     <g id="line2d_26">
      <g>
       <use style="stroke:#000000;stroke-width:0.8;" x="77.76" xlink:href="#m438fb58262" y="129.266011"/>
      </g>
     </g>
     <g id="text_14">
      <!-- 0.75 -->
      <g style="fill:#303030;" transform="translate(39.588125 134.584918)scale(0.14 -0.14)">
       <use xlink:href="#DejaVuSans-48"/>
       <use x="63.623047" xlink:href="#DejaVuSans-46"/>
       <use x="95.410156" xlink:href="#DejaVuSans-55"/>
       <use x="159.033203" xlink:href="#DejaVuSans-53"/>
      </g>
     </g>
    </g>
    <g id="ytick_9">
     <g id="line2d_27">
      <path clip-path="url(#peb68870d8a)" d="M 77.76 90.883628 
L 609.12 90.883628 
" style="fill:none;stroke:#b0b0b0;stroke-linecap:square;stroke-width:0.8;"/>
     </g>
     <g id="line2d_28">
      <g>
       <use style="stroke:#000000;stroke-width:0.8;" x="77.76" xlink:href="#m438fb58262" y="90.883628"/>
      </g>
     </g>
     <g id="text_15">
      <!-- 1.00 -->
      <g style="fill:#303030;" transform="translate(39.588125 96.202534)scale(0.14 -0.14)">
       <use xlink:href="#DejaVuSans-49"/>
       <use x="63.623047" xlink:href="#DejaVuSans-46"/>
       <use x="95.410156" xlink:href="#DejaVuSans-48"/>
       <use x="159.033203" xlink:href="#DejaVuSans-48"/>
      </g>
     </g>
    </g>
    <g id="text_16">
     <!-- P -->
     <defs>
      <path d="M 34.09375 30 
L 18.5 30 
L 18.5 0 
L 9.703125 0 
L 9.703125 70 
L 34.09375 70 
Q 43.90625 70 49.40625 64.59375 
Q 54.90625 59.203125 54.90625 50 
Q 54.90625 40.796875 49.40625 35.390625 
Q 43.90625 30 34.09375 30 
z
M 34.59375 38.40625 
Q 40 38.40625 42.890625 41.40625 
Q 45.796875 44.40625 45.796875 50 
Q 45.796875 55.59375 42.890625 58.59375 
Q 40 61.59375 34.59375 61.59375 
L 18.5 61.59375 
L 18.5 38.40625 
z
" id="Apercu-80"/>
     </defs>
     <g style="opacity:0.75;" transform="translate(20.999687 248.528437)rotate(-90)scale(0.14 -0.14)">
      <use xlink:href="#Apercu-80"/>
     </g>
    </g>
   </g>
   <g id="line2d_29">
    <path clip-path="url(#peb68870d8a)" d="M 77.76 121.224165 
L 83.127273 114.496794 
L 88.494545 107.310639 
L 93.861818 101.142845 
L 99.229091 96.999912 
L 104.596364 93.909778 
L 109.963636 91.826964 
L 115.330909 91.354593 
L 120.698182 92.313333 
L 126.065455 93.962327 
L 131.432727 96.334476 
L 136.8 99.525843 
L 142.167273 105.837946 
L 147.534545 116.027029 
L 152.901818 128.784797 
L 158.269091 142.608115 
L 163.636364 156.855663 
L 169.003636 170.639097 
L 174.370909 184.87715 
L 179.738182 203.668952 
L 185.105455 219.882725 
L 190.472727 232.897215 
L 195.84 245.914267 
L 201.207273 260.603087 
L 206.574545 276.58283 
L 211.941818 291.937559 
L 217.309091 306.236774 
L 222.676364 320.113198 
L 228.043636 333.571659 
L 233.410909 346.209658 
L 238.778182 357.594383 
L 244.145455 367.230478 
L 249.512727 374.932519 
L 254.88 381.260333 
L 260.247273 386.611851 
L 265.614545 390.759411 
L 270.981818 393.867671 
L 276.349091 395.858272 
L 281.716364 396.763657 
L 287.083636 396.922417 
L 292.450909 396.270817 
L 297.818182 394.573607 
L 303.185455 391.152131 
L 308.552727 385.891303 
L 313.92 377.974937 
L 319.287273 366.065056 
L 324.654545 351.875402 
L 330.021818 337.917555 
L 335.389091 325.497074 
L 340.756364 311.949752 
L 346.123636 295.628029 
L 351.490909 278.020998 
L 356.858182 261.175959 
L 362.225455 246.381467 
L 367.592727 232.083714 
L 372.96 216.696268 
L 378.327273 201.424388 
L 383.694545 187.654903 
L 389.061818 174.976157 
L 394.429091 162.643665 
L 399.796364 150.247709 
L 405.163636 138.219546 
L 410.530909 127.889236 
L 415.898182 120.051027 
L 421.265455 113.338107 
L 426.632727 106.12138 
L 432 100.332997 
L 437.367273 96.426865 
L 442.734545 93.466192 
L 448.101818 91.633884 
L 453.469091 91.426484 
L 458.836364 92.561305 
L 464.203636 94.302644 
L 469.570909 96.791883 
L 474.938182 100.281619 
L 480.305455 107.343407 
L 485.672727 117.982328 
L 491.04 131.114865 
L 496.407273 144.956185 
L 501.774545 159.264679 
L 507.141818 172.838503 
L 512.509091 187.812723 
L 517.876364 206.701471 
L 523.243636 222.215063 
L 528.610909 235.010344 
L 533.978182 248.251318 
L 539.345455 263.247776 
L 544.712727 279.249226 
L 550.08 294.397613 
L 555.447273 308.589932 
L 560.814545 322.414239 
L 566.181818 335.766489 
L 571.549091 348.22326 
L 576.916364 359.35139 
L 582.283636 368.652204 
L 587.650909 376.073915 
L 593.018182 382.22919 
L 598.385455 387.3994 
L 603.752727 391.34423 
L 609.12 394.292384 
" style="fill:none;stroke:#000004;stroke-width:3;"/>
   </g>
   <g id="line2d_30">
    <path clip-path="url(#peb68870d8a)" d="M 77.76 124.149346 
L 83.127273 115.222525 
L 88.494545 107.586518 
L 93.861818 101.317638 
L 99.229091 96.478521 
L 104.596364 93.117529 
L 109.963636 91.268222 
L 115.330909 90.949091 
L 120.698182 92.163329 
L 126.065455 94.898797 
L 131.432727 99.128145 
L 136.8 104.80916 
L 142.167273 111.885034 
L 147.534545 120.285089 
L 152.901818 129.925394 
L 158.269091 140.709612 
L 163.636364 152.530016 
L 169.003636 165.268471 
L 174.370909 178.797726 
L 179.738182 192.982589 
L 185.105455 207.681324 
L 190.472727 222.747073 
L 195.84 238.029302 
L 201.207273 253.375317 
L 206.574545 268.631785 
L 211.941818 283.646269 
L 217.309091 298.268747 
L 222.676364 312.353117 
L 228.043636 325.758656 
L 233.410909 338.351419 
L 238.778182 350.005574 
L 244.145455 360.604699 
L 249.512727 370.042874 
L 254.88 378.225778 
L 260.247273 385.071689 
L 265.614545 390.512185 
L 270.981818 394.492902 
L 276.349091 396.974088 
L 281.716364 397.930909 
L 287.083636 397.35385 
L 292.450909 395.248649 
L 297.818182 391.636362 
L 303.185455 386.553065 
L 308.552727 380.049551 
L 313.92 372.190799 
L 319.287273 363.055334 
L 324.654545 352.734431 
L 330.021818 341.331235 
L 335.389091 328.95965 
L 340.756364 315.743319 
L 346.123636 301.814272 
L 351.490909 287.311691 
L 356.858182 272.380487 
L 362.225455 257.169839 
L 367.592727 241.831731 
L 372.96 226.519416 
L 378.327273 211.385891 
L 383.694545 196.582365 
L 389.061818 182.256744 
L 394.429091 168.552169 
L 399.796364 155.605575 
L 405.163636 143.546312 
L 410.530909 132.494883 
L 415.898182 122.561708 
L 421.265455 113.846028 
L 426.632727 106.434918 
L 432 100.402472 
L 437.367273 95.808911 
L 442.734545 92.700152 
L 448.101818 91.107265 
L 453.469091 91.046165 
L 458.836364 92.517453 
L 464.203636 95.506428 
L 469.570909 99.983235 
L 474.938182 105.903131 
L 480.305455 113.20699 
L 485.672727 121.821803 
L 491.04 131.661513 
L 496.407273 142.627808 
L 501.774545 154.611102 
L 507.141818 167.491662 
L 512.509091 181.140803 
L 517.876364 195.42214 
L 523.243636 210.192976 
L 528.610909 225.305732 
L 533.978182 240.609402 
L 539.345455 255.951078 
L 544.712727 271.177471 
L 550.08 286.136441 
L 555.447273 300.678532 
L 560.814545 314.658433 
L 566.181818 327.936472 
L 571.549091 340.379963 
L 576.916364 351.864596 
L 582.283636 362.275611 
L 587.650909 371.508964 
L 593.018182 379.472447 
L 598.385455 386.086448 
L 603.752727 391.284887 
L 609.12 395.015846 
" style="fill:none;stroke:#b73779;stroke-width:3;"/>
   </g>
   <g id="line2d_31">
    <path clip-path="url(#peb68870d8a)" d="M 77.76 244.413162 
L 609.12 244.413162 
" style="fill:none;stroke:#000000;stroke-opacity:0.7;stroke-width:1.3;"/>
   </g>
   <g id="patch_3">
    <path d="M 77.76 413.28 
L 77.76 75.6 
" style="fill:none;stroke:#000000;stroke-linecap:square;stroke-linejoin:miter;stroke-width:0.8;"/>
   </g>
   <g id="patch_4">
    <path d="M 609.12 413.28 
L 609.12 75.6 
" style="fill:none;stroke:#000000;stroke-linecap:square;stroke-linejoin:miter;stroke-width:0.8;"/>
   </g>
   <g id="patch_5">
    <path d="M 77.76 413.28 
L 609.12 413.28 
" style="fill:none;stroke:#000000;stroke-linecap:square;stroke-linejoin:miter;stroke-width:0.8;"/>
   </g>
   <g id="patch_6">
    <path d="M 77.76 75.6 
L 609.12 75.6 
" style="fill:none;stroke:#000000;stroke-linecap:square;stroke-linejoin:miter;stroke-width:0.8;"/>
   </g>
   <g id="patch_7">
    <path d="M 0 504 
L 648 504 
L 648 480.623377 
L 0 480.623377 
z
" style="fill:#808080;"/>
   </g>
   <g id="text_17">
    <!-- ©spred -->
    <defs>
     <path d="M 50 72.515625 
Q 57.421875 72.515625 63.84375 69.828125 
Q 70.265625 67.140625 75.59375 61.8125 
Q 80.90625 56.5 83.546875 50.09375 
Q 86.1875 43.703125 86.1875 36.1875 
Q 86.1875 28.765625 83.546875 22.390625 
Q 80.90625 16.015625 75.59375 10.6875 
Q 70.265625 5.375 63.84375 2.6875 
Q 57.421875 0 50 0 
Q 42.578125 0 36.15625 2.6875 
Q 29.734375 5.375 24.421875 10.6875 
Q 19.09375 16.015625 16.453125 22.390625 
Q 13.8125 28.765625 13.8125 36.1875 
Q 13.8125 43.703125 16.453125 50.09375 
Q 19.09375 56.5 24.421875 61.8125 
Q 29.734375 67.140625 36.15625 69.828125 
Q 42.578125 72.515625 50 72.515625 
z
M 50 67.484375 
Q 43.609375 67.484375 38.078125 65.1875 
Q 32.5625 62.890625 27.984375 58.296875 
Q 23.390625 53.71875 21.046875 48.125 
Q 18.703125 42.53125 18.703125 36.1875 
Q 18.703125 29.890625 21.046875 24.34375 
Q 23.390625 18.796875 27.984375 14.203125 
Q 32.5625 9.625 38.078125 7.296875 
Q 43.609375 4.984375 50 4.984375 
Q 56.453125 4.984375 61.984375 7.296875 
Q 67.53125 9.625 72.125 14.203125 
Q 76.65625 18.75 78.921875 24.265625 
Q 81.203125 29.78125 81.203125 36.1875 
Q 81.203125 42.671875 78.90625 48.21875 
Q 76.609375 53.765625 72.125 58.296875 
Q 67.53125 62.890625 61.984375 65.1875 
Q 56.453125 67.484375 50 67.484375 
z
M 64.59375 55.515625 
L 64.59375 49.21875 
Q 61.375 50.828125 58.203125 51.609375 
Q 55.03125 52.390625 51.8125 52.390625 
Q 44.53125 52.390625 40.453125 48.109375 
Q 36.375 43.84375 36.375 36.1875 
Q 36.375 28.421875 40.546875 24.171875 
Q 44.734375 19.921875 52.296875 19.921875 
Q 55.421875 19.921875 58.390625 20.671875 
Q 61.375 21.4375 64.59375 23.09375 
L 64.59375 16.890625 
Q 61.328125 15.484375 57.984375 14.796875 
Q 54.640625 14.109375 51.21875 14.109375 
Q 40.671875 14.109375 34.546875 20.0625 
Q 28.421875 26.03125 28.421875 36.1875 
Q 28.421875 46.390625 34.546875 52.296875 
Q 40.671875 58.203125 51.21875 58.203125 
Q 54.78125 58.203125 58.09375 57.515625 
Q 61.421875 56.84375 64.59375 55.515625 
z
" id="DejaVuSans-169"/>
     <path d="M 44.28125 53.078125 
L 44.28125 44.578125 
Q 40.484375 46.53125 36.375 47.5 
Q 32.28125 48.484375 27.875 48.484375 
Q 21.1875 48.484375 17.84375 46.4375 
Q 14.5 44.390625 14.5 40.28125 
Q 14.5 37.15625 16.890625 35.375 
Q 19.28125 33.59375 26.515625 31.984375 
L 29.59375 31.296875 
Q 39.15625 29.25 43.1875 25.515625 
Q 47.21875 21.78125 47.21875 15.09375 
Q 47.21875 7.46875 41.1875 3.015625 
Q 35.15625 -1.421875 24.609375 -1.421875 
Q 20.21875 -1.421875 15.453125 -0.5625 
Q 10.6875 0.296875 5.421875 2 
L 5.421875 11.28125 
Q 10.40625 8.6875 15.234375 7.390625 
Q 20.0625 6.109375 24.8125 6.109375 
Q 31.15625 6.109375 34.5625 8.28125 
Q 37.984375 10.453125 37.984375 14.40625 
Q 37.984375 18.0625 35.515625 20.015625 
Q 33.0625 21.96875 24.703125 23.78125 
L 21.578125 24.515625 
Q 13.234375 26.265625 9.515625 29.90625 
Q 5.8125 33.546875 5.8125 39.890625 
Q 5.8125 47.609375 11.28125 51.796875 
Q 16.75 56 26.8125 56 
Q 31.78125 56 36.171875 55.265625 
Q 40.578125 54.546875 44.28125 53.078125 
z
" id="DejaVuSans-115"/>
     <path d="M 18.109375 8.203125 
L 18.109375 -20.796875 
L 9.078125 -20.796875 
L 9.078125 54.6875 
L 18.109375 54.6875 
L 18.109375 46.390625 
Q 20.953125 51.265625 25.265625 53.625 
Q 29.59375 56 35.59375 56 
Q 45.5625 56 51.78125 48.09375 
Q 58.015625 40.1875 58.015625 27.296875 
Q 58.015625 14.40625 51.78125 6.484375 
Q 45.5625 -1.421875 35.59375 -1.421875 
Q 29.59375 -1.421875 25.265625 0.953125 
Q 20.953125 3.328125 18.109375 8.203125 
z
M 48.6875 27.296875 
Q 48.6875 37.203125 44.609375 42.84375 
Q 40.53125 48.484375 33.40625 48.484375 
Q 26.265625 48.484375 22.1875 42.84375 
Q 18.109375 37.203125 18.109375 27.296875 
Q 18.109375 17.390625 22.1875 11.75 
Q 26.265625 6.109375 33.40625 6.109375 
Q 40.53125 6.109375 44.609375 11.75 
Q 48.6875 17.390625 48.6875 27.296875 
z
" id="DejaVuSans-112"/>
     <path d="M 41.109375 46.296875 
Q 39.59375 47.171875 37.8125 47.578125 
Q 36.03125 48 33.890625 48 
Q 26.265625 48 22.1875 43.046875 
Q 18.109375 38.09375 18.109375 28.8125 
L 18.109375 0 
L 9.078125 0 
L 9.078125 54.6875 
L 18.109375 54.6875 
L 18.109375 46.1875 
Q 20.953125 51.171875 25.484375 53.578125 
Q 30.03125 56 36.53125 56 
Q 37.453125 56 38.578125 55.875 
Q 39.703125 55.765625 41.0625 55.515625 
z
" id="DejaVuSans-114"/>
     <path d="M 56.203125 29.59375 
L 56.203125 25.203125 
L 14.890625 25.203125 
Q 15.484375 15.921875 20.484375 11.0625 
Q 25.484375 6.203125 34.421875 6.203125 
Q 39.59375 6.203125 44.453125 7.46875 
Q 49.3125 8.734375 54.109375 11.28125 
L 54.109375 2.78125 
Q 49.265625 0.734375 44.1875 -0.34375 
Q 39.109375 -1.421875 33.890625 -1.421875 
Q 20.796875 -1.421875 13.15625 6.1875 
Q 5.515625 13.8125 5.515625 26.8125 
Q 5.515625 40.234375 12.765625 48.109375 
Q 20.015625 56 32.328125 56 
Q 43.359375 56 49.78125 48.890625 
Q 56.203125 41.796875 56.203125 29.59375 
z
M 47.21875 32.234375 
Q 47.125 39.59375 43.09375 43.984375 
Q 39.0625 48.390625 32.421875 48.390625 
Q 24.90625 48.390625 20.390625 44.140625 
Q 15.875 39.890625 15.1875 32.171875 
z
" id="DejaVuSans-101"/>
     <path d="M 45.40625 46.390625 
L 45.40625 75.984375 
L 54.390625 75.984375 
L 54.390625 0 
L 45.40625 0 
L 45.40625 8.203125 
Q 42.578125 3.328125 38.25 0.953125 
Q 33.9375 -1.421875 27.875 -1.421875 
Q 17.96875 -1.421875 11.734375 6.484375 
Q 5.515625 14.40625 5.515625 27.296875 
Q 5.515625 40.1875 11.734375 48.09375 
Q 17.96875 56 27.875 56 
Q 33.9375 56 38.25 53.625 
Q 42.578125 51.265625 45.40625 46.390625 
z
M 14.796875 27.296875 
Q 14.796875 17.390625 18.875 11.75 
Q 22.953125 6.109375 30.078125 6.109375 
Q 37.203125 6.109375 41.296875 11.75 
Q 45.40625 17.390625 45.40625 27.296875 
Q 45.40625 37.203125 41.296875 42.84375 
Q 37.203125 48.484375 30.078125 48.484375 
Q 22.953125 48.484375 18.875 42.84375 
Q 14.796875 37.203125 14.796875 27.296875 
z
" id="DejaVuSans-100"/>
    </defs>
    <g style="fill:#ffffff;" transform="translate(6.48 496.8)scale(0.14 -0.14)">
     <use xlink:href="#DejaVuSans-169"/>
     <use x="100" xlink:href="#DejaVuSans-115"/>
     <use x="152.099609" xlink:href="#DejaVuSans-112"/>
     <use x="215.576172" xlink:href="#DejaVuSans-114"/>
     <use x="256.658203" xlink:href="#DejaVuSans-101"/>
     <use x="318.181641" xlink:href="#DejaVuSans-100"/>
    </g>
   </g>
   <g id="text_18">
    <!-- steps-10000_range-1000 -->
    <defs>
     <path d="M 23.40625 51.203125 
C 14.296875 51.203125 7.90625 44.703125 7.90625 36.90625 
C 7.90625 29.203125 12.90625 25.5 18.703125 23.09375 
C 24.59375 20.59375 30.703125 19.40625 30.703125 15 
C 30.703125 10.40625 27.90625 8.40625 23.90625 8.40625 
C 18.296875 8.40625 14.796875 13 12.796875 17.5 
L 4 12.703125 
C 6.59375 6.40625 13.09375 -0.796875 23.5 -0.796875 
C 34.296875 -0.796875 41 6.5 41 15.203125 
C 41 24.203125 33.703125 27.203125 26.90625 29.796875 
C 21.703125 31.796875 17.90625 33.40625 17.90625 37 
C 17.90625 40.296875 20.296875 42 22.90625 42 
C 26.09375 42 29.203125 40.59375 31.703125 37.40625 
L 38.296875 43.203125 
C 35.09375 48.203125 29.5 51.203125 23.40625 51.203125 
z
" id="ApercuPro-Medium-115"/>
     <path d="M 2.09375 41.203125 
L 10.5 41.203125 
L 10.5 17.203125 
C 10.5 4.796875 17.5 -0.796875 27 -0.796875 
C 29.796875 -0.796875 32.40625 -0.296875 35.09375 1 
L 32.40625 9.796875 
C 30.59375 8.703125 29.40625 8.40625 27.59375 8.40625 
C 23 8.40625 20.90625 10.90625 20.90625 16.59375 
L 20.90625 41.203125 
L 34 41.203125 
L 34 50.40625 
L 20.90625 50.40625 
L 20.90625 70.796875 
L 10.5 64.296875 
L 10.5 50.40625 
L 2.09375 50.40625 
z
" id="ApercuPro-Medium-116"/>
     <path d="M 28.40625 42 
C 35.90625 42 39.703125 36.59375 40.59375 31 
L 16.09375 31 
C 17.203125 37.296875 21.5 42 28.40625 42 
z
M 51.59375 26.796875 
C 51.59375 38.09375 44.5 51.203125 28.40625 51.203125 
C 11.796875 51.203125 4.90625 37.203125 4.90625 25.203125 
C 4.90625 13.203125 11.796875 -0.796875 28.40625 -0.796875 
C 39.90625 -0.796875 45.59375 3.90625 50.5 13.40625 
L 41.59375 16.90625 
C 39 11.40625 33.796875 8.40625 28.40625 8.40625 
C 20.203125 8.40625 15.90625 14.90625 15.90625 22.296875 
L 51.59375 22.296875 
z
" id="ApercuPro-Medium-101"/>
     <path d="M 55.203125 25.203125 
C 55.203125 41.296875 47.59375 51.203125 32.703125 51.203125 
C 26.09375 51.203125 20.703125 47.5 19 44.59375 
L 19 50.40625 
L 8.59375 50.40625 
L 8.59375 -20.40625 
L 19 -20.40625 
L 19 5.59375 
C 21.296875 2.296875 26.296875 -0.796875 32.5 -0.796875 
C 47.59375 -0.796875 55.203125 9.59375 55.203125 25.203125 
z
M 44.203125 25.203125 
C 44.203125 14.796875 38.796875 8.40625 31.296875 8.40625 
C 23.796875 8.40625 18.40625 14.796875 18.40625 25.203125 
C 18.40625 35.59375 23.796875 42 31.296875 42 
C 38.796875 42 44.203125 35.59375 44.203125 25.203125 
z
" id="ApercuPro-Medium-112"/>
     <path d="M 6.796875 27.09375 
L 42.09375 27.09375 
L 42.09375 36.296875 
L 6.796875 36.296875 
z
" id="ApercuPro-Medium-45"/>
     <path d="M 26.5 70 
L 7.09375 58.40625 
L 7.09375 47.203125 
L 20.203125 55 
L 20.203125 0 
L 30.796875 0 
L 30.796875 70 
z
" id="ApercuPro-Medium-49"/>
     <path d="M 31.59375 70.796875 
C 15.09375 70.796875 6.40625 57.09375 6.40625 35 
C 6.40625 12.90625 15.09375 -0.796875 31.59375 -0.796875 
C 48.09375 -0.796875 56.796875 12.90625 56.796875 35 
C 56.796875 57.09375 48.09375 70.796875 31.59375 70.796875 
z
M 31.59375 61.203125 
C 41.5 61.203125 46.203125 51.40625 46.203125 35 
C 46.203125 18.59375 41.5 8.796875 31.59375 8.796875 
C 21.703125 8.796875 17 18.59375 17 35 
C 17 51.40625 21.703125 61.203125 31.59375 61.203125 
z
" id="ApercuPro-Medium-48"/>
     <path d="M 2.703125 -9.203125 
L 47.203125 -9.203125 
L 47.203125 0 
L 2.703125 0 
z
" id="ApercuPro-Medium-95"/>
     <path d="M 19 0 
L 19 18.703125 
C 19 34.59375 25.90625 42 32.59375 42 
C 34.703125 42 36.90625 41.5 38.5 40.5 
L 40.296875 50 
C 38.796875 50.59375 36.59375 51.203125 33.90625 51.203125 
C 28.5 51.203125 22.5 48 19 42 
L 19 50.40625 
L 8.59375 50.40625 
L 8.59375 0 
z
" id="ApercuPro-Medium-114"/>
     <path d="M 4.40625 14.5 
C 4.40625 4 11.5 -0.796875 19.90625 -0.796875 
C 27 -0.796875 32.203125 2 35.5 6.59375 
L 36.5 0 
L 45.296875 0 
L 45.296875 31.296875 
C 45.296875 46.09375 36.90625 51.203125 25.203125 51.203125 
C 15.5 51.203125 8.296875 45.796875 6.203125 37.296875 
L 15.703125 35.296875 
C 17.40625 39.796875 21 42 25.09375 42 
C 30.40625 42 34.90625 39.5 34.90625 33.203125 
L 34.90625 31 
L 26.203125 31 
C 13.296875 31 4.40625 24.90625 4.40625 14.5 
z
M 15.40625 14.5 
C 15.40625 19.296875 19.40625 22.296875 25.796875 22.296875 
L 34.90625 22.296875 
L 34.90625 21.203125 
C 34.90625 12.5 28.09375 8.40625 21.703125 8.40625 
C 17.296875 8.40625 15.40625 11.09375 15.40625 14.5 
z
" id="ApercuPro-Medium-97"/>
     <path d="M 8.59375 50.40625 
L 8.59375 0 
L 19 0 
L 19 20.40625 
C 19 34.296875 25.40625 42 31.90625 42 
C 36.59375 42 39.703125 39.59375 39.703125 32.796875 
L 39.703125 0 
L 50.09375 0 
L 50.09375 36.09375 
C 50.09375 45.90625 44.09375 51.203125 35.296875 51.203125 
C 28.59375 51.203125 22.59375 47.796875 19 41.796875 
L 19 50.40625 
z
" id="ApercuPro-Medium-110"/>
     <path d="M 8.703125 34.296875 
C 8.703125 30 9.90625 26.40625 12.09375 23.703125 
C 8.40625 21.59375 6 18 6 13.5 
C 6 10 7.09375 7.40625 8.90625 5.59375 
C 6.296875 3.203125 4.59375 -0.296875 4.59375 -4.59375 
C 4.59375 -15.59375 14.09375 -21.203125 26.796875 -21.203125 
C 38.09375 -21.203125 48.90625 -16.296875 48.90625 -3.796875 
C 48.90625 5.703125 42.09375 10.59375 32.203125 10.59375 
L 21.09375 10.59375 
C 17.59375 10.59375 15.90625 11.796875 15.90625 14.5 
C 15.90625 16.40625 16.796875 17.90625 18.59375 18.90625 
C 20.90625 18 23.703125 17.40625 26.703125 17.40625 
C 36.90625 17.40625 44.796875 23.703125 44.796875 34.296875 
C 44.796875 37.5 44 40.296875 42.59375 42.703125 
L 49.40625 46.5 
L 45.203125 54 
L 35.90625 49 
C 33.203125 50.40625 30.09375 51.203125 26.703125 51.203125 
C 16.5 51.203125 8.703125 44.796875 8.703125 34.296875 
z
M 30 1.796875 
C 34.90625 1.796875 38.296875 0.203125 38.296875 -4.59375 
C 38.296875 -9.5 34 -12.203125 26.796875 -12.203125 
C 19.09375 -12.203125 14.59375 -9 14.59375 -4 
C 14.59375 -1.40625 15.296875 0.5 16.796875 2.09375 
C 18.40625 1.90625 20.09375 1.796875 21.90625 1.796875 
z
M 18.796875 34.296875 
C 18.796875 39.296875 22.09375 42.5 26.703125 42.5 
C 31.40625 42.5 34.703125 39.296875 34.703125 34.296875 
C 34.703125 29.296875 31.40625 26.09375 26.703125 26.09375 
C 22.09375 26.09375 18.796875 29.296875 18.796875 34.296875 
z
" id="ApercuPro-Medium-103"/>
    </defs>
    <g style="opacity:0.75;" transform="translate(72 50.4)scale(0.3 -0.3)">
     <use xlink:href="#ApercuPro-Medium-115"/>
     <use x="44.999985" xlink:href="#ApercuPro-Medium-116"/>
     <use x="83.499969" xlink:href="#ApercuPro-Medium-101"/>
     <use x="139.399963" xlink:href="#ApercuPro-Medium-112"/>
     <use x="199.499954" xlink:href="#ApercuPro-Medium-115"/>
     <use x="244.499939" xlink:href="#ApercuPro-Medium-45"/>
     <use x="293.399933" xlink:href="#ApercuPro-Medium-49"/>
     <use x="332.984299" xlink:href="#ApercuPro-Medium-48"/>
     <use x="396.153046" xlink:href="#ApercuPro-Medium-48"/>
     <use x="459.321793" xlink:href="#ApercuPro-Medium-48"/>
     <use x="522.49054" xlink:href="#ApercuPro-Medium-48"/>
     <use x="585.690536" xlink:href="#ApercuPro-Medium-95"/>
     <use x="635.59053" xlink:href="#ApercuPro-Medium-114"/>
     <use x="677.274902" xlink:href="#ApercuPro-Medium-97"/>
     <use x="728.659271" xlink:href="#ApercuPro-Medium-110"/>
     <use x="786.628006" xlink:href="#ApercuPro-Medium-103"/>
     <use x="837.727997" xlink:href="#ApercuPro-Medium-101"/>
     <use x="893.627991" xlink:href="#ApercuPro-Medium-45"/>
     <use x="942.527985" xlink:href="#ApercuPro-Medium-49"/>
     <use x="982.11235" xlink:href="#ApercuPro-Medium-48"/>
     <use x="1045.281097" xlink:href="#ApercuPro-Medium-48"/>
     <use x="1108.449844" xlink:href="#ApercuPro-Medium-48"/>
    </g>
   </g>
   <g id="legend_1">
    <g id="patch_8">
     <path d="M 515.50375 126.336875 
L 599.32 126.336875 
Q 602.12 126.336875 602.12 123.536875 
L 602.12 85.4 
Q 602.12 82.6 599.32 82.6 
L 515.50375 82.6 
Q 512.70375 82.6 512.70375 85.4 
L 512.70375 123.536875 
Q 512.70375 126.336875 515.50375 126.336875 
z
" style="fill:#f0f0f0;opacity:0.8;stroke:#cccccc;stroke-linejoin:miter;stroke-width:0.5;"/>
    </g>
    <g id="line2d_32">
     <path d="M 518.30375 93.211562 
L 546.30375 93.211562 
" style="fill:none;stroke:#000004;stroke-width:3;"/>
    </g>
    <g id="line2d_33"/>
    <g id="text_19">
     <!-- pred -->
     <defs>
      <path d="M 32.296875 -0.796875 
Q 27.796875 -0.796875 23.390625 1.390625 
Q 19 3.59375 17.59375 6 
L 17.59375 -20.40625 
L 9.203125 -20.40625 
L 9.203125 50.40625 
L 17.59375 50.40625 
L 17.59375 44.203125 
Q 19.5 47.09375 23.640625 49.140625 
Q 27.796875 51.203125 32.296875 51.203125 
Q 43.09375 51.203125 48.890625 44.046875 
Q 54.703125 36.90625 54.703125 25.203125 
Q 54.703125 13.5 48.890625 6.34375 
Q 43.09375 -0.796875 32.296875 -0.796875 
z
M 31.5 43.59375 
Q 24.703125 43.59375 20.796875 38.5 
Q 16.90625 33.40625 16.90625 25.203125 
Q 16.90625 17 20.796875 11.890625 
Q 24.703125 6.796875 31.5 6.796875 
Q 38.09375 6.796875 42.09375 11.890625 
Q 46.09375 17 46.09375 25.203125 
Q 46.09375 33.40625 42.09375 38.5 
Q 38.09375 43.59375 31.5 43.59375 
z
" id="Apercu-112"/>
      <path d="M 39.296875 49.703125 
L 37.59375 42.203125 
Q 34.796875 43.59375 31.703125 43.59375 
Q 26 43.59375 21.796875 37.140625 
Q 17.59375 30.703125 17.59375 19.09375 
L 17.59375 0 
L 9.203125 0 
L 9.203125 50.40625 
L 17.59375 50.40625 
L 17.59375 41.796875 
Q 19.796875 46 24 48.59375 
Q 28.203125 51.203125 32.40625 51.203125 
Q 36.5 51.203125 39.296875 49.703125 
z
" id="Apercu-114"/>
      <path d="M 51 27.296875 
L 51 23.40625 
L 14 23.40625 
Q 14.40625 16 18.046875 11.390625 
Q 21.703125 6.796875 28.203125 6.796875 
Q 33.5 6.796875 36.75 9.140625 
Q 40 11.5 42.203125 16.40625 
L 49.59375 13.203125 
Q 46.09375 5.796875 41.046875 2.5 
Q 36 -0.796875 28.203125 -0.796875 
Q 17.296875 -0.796875 11.34375 6.75 
Q 5.40625 14.296875 5.40625 25.1875 
Q 5.40625 36.09375 11.34375 43.640625 
Q 17.296875 51.203125 28.203125 51.203125 
Q 38.90625 51.203125 44.953125 44.25 
Q 51 37.296875 51 27.296875 
z
M 28.203125 43.59375 
Q 22.59375 43.59375 19.140625 40.1875 
Q 15.703125 36.796875 14.5 31 
L 42.203125 31 
Q 41 36.703125 37.5 40.140625 
Q 34 43.59375 28.203125 43.59375 
z
" id="Apercu-101"/>
      <path d="M 27.796875 51.203125 
Q 32.296875 51.203125 36.6875 49 
Q 41.09375 46.796875 42.5 44.40625 
L 42.5 70.796875 
L 50.90625 70.796875 
L 50.90625 0 
L 42.5 0 
L 42.5 6.203125 
Q 40.59375 3.296875 36.4375 1.25 
Q 32.296875 -0.796875 27.796875 -0.796875 
Q 17 -0.796875 11.203125 6.34375 
Q 5.40625 13.5 5.40625 25.203125 
Q 5.40625 36.90625 11.203125 44.046875 
Q 17 51.203125 27.796875 51.203125 
z
M 28.59375 6.796875 
Q 35.40625 6.796875 39.296875 11.890625 
Q 43.203125 17 43.203125 25.203125 
Q 43.203125 33.40625 39.296875 38.5 
Q 35.40625 43.59375 28.59375 43.59375 
Q 22 43.59375 18 38.5 
Q 14 33.40625 14 25.203125 
Q 14 17 18 11.890625 
Q 22 6.796875 28.59375 6.796875 
z
" id="Apercu-100"/>
     </defs>
     <g style="opacity:0.75;" transform="translate(557.50375 98.111562)scale(0.14 -0.14)">
      <use xlink:href="#Apercu-112"/>
      <use x="60.099991" xlink:href="#Apercu-114"/>
      <use x="101.399979" xlink:href="#Apercu-101"/>
      <use x="157.399963" xlink:href="#Apercu-100"/>
     </g>
    </g>
    <g id="line2d_34">
     <path d="M 518.30375 112.98 
L 546.30375 112.98 
" style="fill:none;stroke:#b73779;stroke-width:3;"/>
    </g>
    <g id="line2d_35"/>
    <g id="text_20">
     <!-- actual -->
     <defs>
      <path d="M 14.203125 14.5 
Q 14.203125 10.90625 16.34375 8.84375 
Q 18.5 6.796875 22.5 6.796875 
Q 28.203125 6.796875 32.390625 10.546875 
Q 36.59375 14.296875 36.59375 22.203125 
L 36.59375 23.40625 
L 27.59375 23.40625 
Q 21.203125 23.40625 17.703125 21.09375 
Q 14.203125 18.796875 14.203125 14.5 
z
M 45 32.203125 
L 45 0 
L 38.40625 0 
L 37 7.09375 
Q 31.5 -0.796875 21.203125 -0.796875 
Q 14.40625 -0.796875 10 3 
Q 5.59375 6.796875 5.59375 14.5 
Q 5.59375 22.5 11.6875 26.75 
Q 17.796875 31 28.40625 31 
L 36.59375 31 
L 36.59375 33.203125 
Q 36.59375 43.59375 25.59375 43.59375 
Q 21.59375 43.59375 18.75 41.5 
Q 15.90625 39.40625 15.09375 35.703125 
L 7.703125 37.40625 
Q 8.703125 43.796875 13.59375 47.5 
Q 18.5 51.203125 25.59375 51.203125 
Q 34.40625 51.203125 39.703125 46.5 
Q 45 41.796875 45 32.203125 
z
" id="Apercu-97"/>
      <path d="M 42.09375 16.09375 
L 49.40625 13.09375 
Q 43.296875 -0.796875 28.296875 -0.796875 
Q 17.296875 -0.796875 11.34375 6.75 
Q 5.40625 14.296875 5.40625 25.1875 
Q 5.40625 36.09375 11.34375 43.640625 
Q 17.296875 51.203125 28.296875 51.203125 
Q 43.296875 51.203125 49.40625 37.296875 
L 42.09375 34.296875 
Q 38.09375 43.59375 28.296875 43.59375 
Q 21.296875 43.59375 17.640625 38.4375 
Q 14 33.296875 14 25.1875 
Q 14 17.09375 17.640625 11.9375 
Q 21.296875 6.796875 28.296875 6.796875 
Q 38.09375 6.796875 42.09375 16.09375 
z
" id="Apercu-99"/>
      <path d="M 2.5 42.796875 
L 2.5 50.40625 
L 11.203125 50.40625 
L 11.203125 65.5 
L 19.59375 70.796875 
L 19.59375 50.40625 
L 32.796875 50.40625 
L 32.796875 42.796875 
L 19.59375 42.796875 
L 19.59375 15.09375 
Q 19.59375 11.09375 21.34375 8.9375 
Q 23.09375 6.796875 26.296875 6.796875 
Q 29.59375 6.796875 32 8.40625 
L 34 1.09375 
Q 30.703125 -0.796875 25.796875 -0.796875 
Q 19.09375 -0.796875 15.140625 3.390625 
Q 11.203125 7.59375 11.203125 15.796875 
L 11.203125 42.796875 
z
" id="Apercu-116"/>
      <path d="M 8.59375 14.90625 
L 8.59375 50.40625 
L 17 50.40625 
L 17 17.09375 
Q 17 6.796875 25.703125 6.796875 
Q 31.59375 6.796875 35.84375 13 
Q 40.09375 19.203125 40.09375 29.296875 
L 40.09375 50.40625 
L 48.5 50.40625 
L 48.5 0 
L 40.09375 0 
L 40.09375 9.296875 
Q 34.40625 -0.796875 23.40625 -0.796875 
Q 16.5 -0.796875 12.546875 3.296875 
Q 8.59375 7.40625 8.59375 14.90625 
z
" id="Apercu-117"/>
      <path d="M 9 70.796875 
L 17.40625 70.796875 
L 17.40625 0 
L 9 0 
z
" id="Apercu-108"/>
     </defs>
     <g style="opacity:0.75;" transform="translate(557.50375 117.88)scale(0.14 -0.14)">
      <use xlink:href="#Apercu-97"/>
      <use x="51.799988" xlink:href="#Apercu-99"/>
      <use x="105.615601" xlink:href="#Apercu-116"/>
      <use x="143.399963" xlink:href="#Apercu-117"/>
      <use x="201.09996" xlink:href="#Apercu-97"/>
      <use x="252.899948" xlink:href="#Apercu-108"/>
     </g>
    </g>
   </g>
  </g>
 </g>
 <defs>
  <clipPath id="peb68870d8a">
   <rect height="337.68" width="531.36" x="77.76" y="75.6"/>
  </clipPath>
 </defs>
</svg>
