<?xml version="1.0" encoding="utf-8" standalone="no"?>
<!DOCTYPE svg PUBLIC "-//W3C//DTD SVG 1.1//EN"
  "http://www.w3.org/Graphics/SVG/1.1/DTD/svg11.dtd">
<!-- Created with matplotlib (https://matplotlib.org/) -->
<svg height="504pt" version="1.1" viewBox="0 0 648 504" width="648pt" xmlns="http://www.w3.org/2000/svg" xmlns:xlink="http://www.w3.org/1999/xlink">
 <defs>
  <style type="text/css">
*{stroke-linecap:butt;stroke-linejoin:round;}
  </style>
 </defs>
 <g id="figure_1">
  <g id="patch_1">
   <path d="M 0 504 
L 648 504 
L 648 0 
L 0 0 
z
" style="fill:#f0f0f0;"/>
  </g>
  <g id="axes_1">
   <g id="patch_2">
    <path d="M 77.76 413.28 
L 609.12 413.28 
L 609.12 75.6 
L 77.76 75.6 
z
" style="fill:#f0f0f0;"/>
   </g>
   <g id="matplotlib.axis_1">
    <g id="xtick_1">
     <g id="line2d_1">
      <path clip-path="url(#p5df296ff96)" d="M 77.76 413.28 
L 77.76 75.6 
" style="fill:none;stroke:#b0b0b0;stroke-linecap:square;stroke-width:0.8;"/>
     </g>
     <g id="line2d_2">
      <defs>
       <path d="M 0 0 
L 0 3.5 
" id="m94b6718073" style="stroke:#000000;stroke-width:0.8;"/>
      </defs>
      <g>
       <use style="stroke:#000000;stroke-width:0.8;" x="77.76" xlink:href="#m94b6718073" y="413.28"/>
      </g>
     </g>
     <g id="text_1">
      <!-- 0 -->
      <defs>
       <path d="M 48.203125 52.59375 
L 48.203125 17.40625 
Q 48.203125 9.703125 42.953125 4.34375 
Q 37.703125 -1 29.890625 -1 
Q 22.09375 -1 16.9375 4.390625 
Q 11.796875 9.796875 11.796875 17.5 
L 11.796875 52.59375 
Q 11.796875 60.296875 16.9375 65.640625 
Q 22.09375 71 29.890625 71 
Q 37.703125 71 42.953125 65.640625 
Q 48.203125 60.296875 48.203125 52.59375 
z
M 39.90625 17.296875 
L 39.90625 52.5 
Q 39.90625 56.90625 37 60 
Q 34.09375 63.09375 29.90625 63.09375 
Q 25.796875 63.09375 22.890625 60 
Q 20 56.90625 20 52.5 
L 20 17.40625 
Q 20 13 22.890625 9.953125 
Q 25.796875 6.90625 30 6.90625 
Q 34.09375 6.90625 37 9.90625 
Q 39.90625 12.90625 39.90625 17.296875 
z
" id="DecimaMonoPro-48"/>
      </defs>
      <g style="fill:#303030;" transform="translate(73.56 430.093125)scale(0.14 -0.14)">
       <use xlink:href="#DecimaMonoPro-48"/>
      </g>
     </g>
    </g>
    <g id="xtick_2">
     <g id="line2d_3">
      <path clip-path="url(#p5df296ff96)" d="M 188.92318 413.28 
L 188.92318 75.6 
" style="fill:none;stroke:#b0b0b0;stroke-linecap:square;stroke-width:0.8;"/>
     </g>
     <g id="line2d_4">
      <g>
       <use style="stroke:#000000;stroke-width:0.8;" x="188.92318" xlink:href="#m94b6718073" y="413.28"/>
      </g>
     </g>
     <g id="text_2">
      <!-- 50 -->
      <defs>
       <path d="M 21.90625 35.59375 
Q 21.09375 34.40625 19.796875 34.40625 
Q 19.40625 34.40625 18.203125 34.796875 
L 14.796875 35.796875 
Q 13.203125 36.296875 13.40625 38.5 
L 15.90625 67.703125 
Q 16.09375 70 18.09375 70 
L 44.40625 70 
Q 46.59375 70 46.59375 67.703125 
L 46.59375 64.40625 
Q 46.59375 62.09375 44.40625 62.09375 
L 24.09375 62.09375 
L 22.40625 44.796875 
Q 25.203125 47.203125 30.703125 47.203125 
Q 38.40625 47.203125 43.703125 42 
Q 49 36.796875 49 28.90625 
L 49 17.5 
Q 49 9.796875 43.5 4.390625 
Q 38 -1 30.09375 -1 
Q 21.90625 -1 16.453125 4.34375 
Q 11 9.703125 11 17.40625 
Q 11 18.203125 11.59375 18.796875 
Q 12.203125 19.40625 13.296875 19.40625 
L 17.09375 19.40625 
Q 18.203125 19.40625 18.796875 18.796875 
Q 19.40625 18.203125 19.40625 17.40625 
Q 19.40625 13 22.5 9.953125 
Q 25.59375 6.90625 30.09375 6.90625 
Q 34.5 6.90625 37.546875 9.953125 
Q 40.59375 13 40.59375 17.40625 
L 40.59375 28.796875 
Q 40.59375 33.203125 37.5 36.25 
Q 34.40625 39.296875 29.796875 39.296875 
Q 27.703125 39.296875 25.796875 38.4375 
Q 23.90625 37.59375 23.09375 36.890625 
Q 22.296875 36.203125 21.90625 35.59375 
z
" id="DecimaMonoPro-53"/>
      </defs>
      <g style="fill:#303030;" transform="translate(180.52318 430.093125)scale(0.14 -0.14)">
       <use xlink:href="#DecimaMonoPro-53"/>
       <use x="59.999985" xlink:href="#DecimaMonoPro-48"/>
      </g>
     </g>
    </g>
    <g id="xtick_3">
     <g id="line2d_5">
      <path clip-path="url(#p5df296ff96)" d="M 300.08636 413.28 
L 300.08636 75.6 
" style="fill:none;stroke:#b0b0b0;stroke-linecap:square;stroke-width:0.8;"/>
     </g>
     <g id="line2d_6">
      <g>
       <use style="stroke:#000000;stroke-width:0.8;" x="300.08636" xlink:href="#m94b6718073" y="413.28"/>
      </g>
     </g>
     <g id="text_3">
      <!-- 100 -->
      <defs>
       <path d="M 13.90625 68.203125 
L 25.203125 70 
L 32.296875 70 
Q 33 70 33.546875 69.5 
Q 34.09375 69 34.09375 68.203125 
L 34.09375 7.703125 
L 47.296875 7.703125 
Q 48 7.703125 48.546875 7.140625 
Q 49.09375 6.59375 49.09375 5.90625 
L 49.09375 1.796875 
Q 49.09375 1 48.546875 0.5 
Q 48 0 47.296875 0 
L 12.59375 0 
Q 11.796875 0 11.296875 0.5 
Q 10.796875 1 10.796875 1.796875 
L 10.796875 5.90625 
Q 10.796875 6.59375 11.296875 7.140625 
Q 11.796875 7.703125 12.59375 7.703125 
L 25.703125 7.703125 
L 25.703125 62.09375 
L 14.703125 60.40625 
L 14.40625 60.40625 
Q 14 60.296875 13.5 60.296875 
Q 12.09375 60.296875 12.09375 62.09375 
L 12.09375 66.296875 
Q 12.09375 67.796875 13.90625 68.203125 
z
" id="DecimaMonoPro-49"/>
      </defs>
      <g style="fill:#303030;" transform="translate(287.48636 430.093125)scale(0.14 -0.14)">
       <use xlink:href="#DecimaMonoPro-49"/>
       <use x="59.999985" xlink:href="#DecimaMonoPro-48"/>
       <use x="119.999969" xlink:href="#DecimaMonoPro-48"/>
      </g>
     </g>
    </g>
    <g id="xtick_4">
     <g id="line2d_7">
      <path clip-path="url(#p5df296ff96)" d="M 411.24954 413.28 
L 411.24954 75.6 
" style="fill:none;stroke:#b0b0b0;stroke-linecap:square;stroke-width:0.8;"/>
     </g>
     <g id="line2d_8">
      <g>
       <use style="stroke:#000000;stroke-width:0.8;" x="411.24954" xlink:href="#m94b6718073" y="413.28"/>
      </g>
     </g>
     <g id="text_4">
      <!-- 150 -->
      <g style="fill:#303030;" transform="translate(398.64954 430.093125)scale(0.14 -0.14)">
       <use xlink:href="#DecimaMonoPro-49"/>
       <use x="59.999985" xlink:href="#DecimaMonoPro-53"/>
       <use x="119.999969" xlink:href="#DecimaMonoPro-48"/>
      </g>
     </g>
    </g>
    <g id="xtick_5">
     <g id="line2d_9">
      <path clip-path="url(#p5df296ff96)" d="M 522.41272 413.28 
L 522.41272 75.6 
" style="fill:none;stroke:#b0b0b0;stroke-linecap:square;stroke-width:0.8;"/>
     </g>
     <g id="line2d_10">
      <g>
       <use style="stroke:#000000;stroke-width:0.8;" x="522.41272" xlink:href="#m94b6718073" y="413.28"/>
      </g>
     </g>
     <g id="text_5">
      <!-- 200 -->
      <defs>
       <path d="M 11.703125 53 
Q 11.703125 59.703125 17.203125 65.34375 
Q 22.703125 71 30.59375 71 
Q 38.40625 71 43.796875 65.75 
Q 49.203125 60.5 49.203125 52.703125 
Q 49.203125 46.90625 46.09375 41.75 
Q 43 36.59375 38.59375 32.84375 
Q 34.203125 29.09375 29.796875 25.4375 
Q 25.40625 21.796875 22.296875 17.296875 
Q 19.203125 12.796875 19.203125 7.796875 
L 47.40625 7.796875 
Q 48.203125 7.796875 48.703125 7.296875 
Q 49.203125 6.796875 49.203125 6 
L 49.203125 1.796875 
Q 49.203125 1 48.703125 0.5 
Q 48.203125 0 47.40625 0 
L 12.59375 0 
Q 11.796875 0 11.296875 0.5 
Q 10.796875 1 10.796875 1.796875 
L 10.796875 7.296875 
Q 10.796875 13.90625 13.890625 19.453125 
Q 17 25 21.390625 28.890625 
Q 25.796875 32.796875 30.1875 36.390625 
Q 34.59375 40 37.6875 44.296875 
Q 40.796875 48.59375 40.796875 53.296875 
Q 40.796875 57.40625 37.75 60.25 
Q 34.703125 63.09375 30.5 63.09375 
Q 26.09375 63.09375 23.1875 59.6875 
Q 20.296875 56.296875 20.09375 53 
Q 19.90625 51 17.796875 51 
L 14 51 
Q 12.90625 51 12.296875 51.59375 
Q 11.703125 52.203125 11.703125 53 
z
" id="DecimaMonoPro-50"/>
      </defs>
      <g style="fill:#303030;" transform="translate(509.81272 430.093125)scale(0.14 -0.14)">
       <use xlink:href="#DecimaMonoPro-50"/>
       <use x="59.999985" xlink:href="#DecimaMonoPro-48"/>
       <use x="119.999969" xlink:href="#DecimaMonoPro-48"/>
      </g>
     </g>
    </g>
    <g id="text_6">
     <!-- x -->
     <defs>
      <path d="M 3.59375 50.40625 
L 13.09375 50.40625 
L 22.90625 34.40625 
L 32.703125 50.40625 
L 42.203125 50.40625 
L 27.59375 26.59375 
L 44 0 
L 34.5 0 
L 22.90625 18.90625 
L 11.296875 0 
L 1.796875 0 
L 18.203125 26.59375 
z
" id="Apercu-120"/>
     </defs>
     <g style="opacity:0.75;" transform="translate(340.234219 446.524687)scale(0.14 -0.14)">
      <use xlink:href="#Apercu-120"/>
     </g>
    </g>
   </g>
   <g id="matplotlib.axis_2">
    <g id="ytick_1">
     <g id="line2d_11">
      <path clip-path="url(#p5df296ff96)" d="M 77.76 397.932402 
L 609.12 397.932402 
" style="fill:none;stroke:#b0b0b0;stroke-linecap:square;stroke-width:0.8;"/>
     </g>
     <g id="line2d_12">
      <defs>
       <path d="M 0 0 
L -3.5 0 
" id="m7baedad5eb" style="stroke:#000000;stroke-width:0.8;"/>
      </defs>
      <g>
       <use style="stroke:#000000;stroke-width:0.8;" x="77.76" xlink:href="#m7baedad5eb" y="397.932402"/>
      </g>
     </g>
     <g id="text_7">
      <!-- −1.00 -->
      <defs>
       <path d="M 50.203125 25.296875 
L 9.796875 25.296875 
Q 9 25.296875 8.5 25.84375 
Q 8 26.40625 8 27.09375 
L 8 31.296875 
Q 8 32 8.5 32.546875 
Q 9 33.09375 9.796875 33.09375 
L 50.203125 33.09375 
Q 51 33.09375 51.5 32.546875 
Q 52 32 52 31.296875 
L 52 27.09375 
Q 52 26.40625 51.5 25.84375 
Q 51 25.296875 50.203125 25.296875 
z
" id="DecimaMonoPro-8722"/>
       <path d="M 35.09375 7.5 
L 35.09375 2.59375 
Q 35.09375 0 32.5 0 
L 27.5 0 
Q 24.90625 0 24.90625 2.59375 
L 24.90625 7.5 
Q 24.90625 10.09375 27.5 10.09375 
L 32.5 10.09375 
Q 35.09375 10.09375 35.09375 7.5 
z
" id="DecimaMonoPro-46"/>
      </defs>
      <g style="fill:#303030;" transform="translate(28.76 402.838965)scale(0.14 -0.14)">
       <use xlink:href="#DecimaMonoPro-8722"/>
       <use x="59.999985" xlink:href="#DecimaMonoPro-49"/>
       <use x="119.999969" xlink:href="#DecimaMonoPro-46"/>
       <use x="179.999954" xlink:href="#DecimaMonoPro-48"/>
       <use x="239.999939" xlink:href="#DecimaMonoPro-48"/>
      </g>
     </g>
    </g>
    <g id="ytick_2">
     <g id="line2d_13">
      <path clip-path="url(#p5df296ff96)" d="M 77.76 359.555514 
L 609.12 359.555514 
" style="fill:none;stroke:#b0b0b0;stroke-linecap:square;stroke-width:0.8;"/>
     </g>
     <g id="line2d_14">
      <g>
       <use style="stroke:#000000;stroke-width:0.8;" x="77.76" xlink:href="#m7baedad5eb" y="359.555514"/>
      </g>
     </g>
     <g id="text_8">
      <!-- −0.75 -->
      <defs>
       <path d="M 39.09375 62.09375 
L 14.703125 62.09375 
Q 12.5 62.09375 12.5 64.40625 
L 12.5 67.703125 
Q 12.5 70 14.703125 70 
L 44.796875 70 
Q 47.5 70 47.5 67.59375 
L 47.5 62.703125 
Q 47.5 58.203125 43.59375 46.953125 
Q 39.703125 35.703125 35.796875 22.953125 
Q 31.90625 10.203125 31.90625 2 
Q 31.90625 1.203125 31.25 0.59375 
Q 30.59375 0 29.90625 0 
L 25.703125 0 
Q 24.59375 0 24 0.59375 
Q 23.40625 1.203125 23.40625 2 
Q 23.40625 9.40625 25.796875 19.15625 
Q 28.203125 28.90625 31.046875 36.5 
Q 33.90625 44.09375 36.40625 51.546875 
Q 38.90625 59 39.09375 62.09375 
z
" id="DecimaMonoPro-55"/>
      </defs>
      <g style="fill:#303030;" transform="translate(28.76 364.462076)scale(0.14 -0.14)">
       <use xlink:href="#DecimaMonoPro-8722"/>
       <use x="59.999985" xlink:href="#DecimaMonoPro-48"/>
       <use x="119.999969" xlink:href="#DecimaMonoPro-46"/>
       <use x="179.999954" xlink:href="#DecimaMonoPro-55"/>
       <use x="239.999939" xlink:href="#DecimaMonoPro-53"/>
      </g>
     </g>
    </g>
    <g id="ytick_3">
     <g id="line2d_15">
      <path clip-path="url(#p5df296ff96)" d="M 77.76 321.178625 
L 609.12 321.178625 
" style="fill:none;stroke:#b0b0b0;stroke-linecap:square;stroke-width:0.8;"/>
     </g>
     <g id="line2d_16">
      <g>
       <use style="stroke:#000000;stroke-width:0.8;" x="77.76" xlink:href="#m7baedad5eb" y="321.178625"/>
      </g>
     </g>
     <g id="text_9">
      <!-- −0.50 -->
      <g style="fill:#303030;" transform="translate(28.76 326.085188)scale(0.14 -0.14)">
       <use xlink:href="#DecimaMonoPro-8722"/>
       <use x="59.999985" xlink:href="#DecimaMonoPro-48"/>
       <use x="119.999969" xlink:href="#DecimaMonoPro-46"/>
       <use x="179.999954" xlink:href="#DecimaMonoPro-53"/>
       <use x="239.999939" xlink:href="#DecimaMonoPro-48"/>
      </g>
     </g>
    </g>
    <g id="ytick_4">
     <g id="line2d_17">
      <path clip-path="url(#p5df296ff96)" d="M 77.76 282.801737 
L 609.12 282.801737 
" style="fill:none;stroke:#b0b0b0;stroke-linecap:square;stroke-width:0.8;"/>
     </g>
     <g id="line2d_18">
      <g>
       <use style="stroke:#000000;stroke-width:0.8;" x="77.76" xlink:href="#m7baedad5eb" y="282.801737"/>
      </g>
     </g>
     <g id="text_10">
      <!-- −0.25 -->
      <g style="fill:#303030;" transform="translate(28.76 287.708299)scale(0.14 -0.14)">
       <use xlink:href="#DecimaMonoPro-8722"/>
       <use x="59.999985" xlink:href="#DecimaMonoPro-48"/>
       <use x="119.999969" xlink:href="#DecimaMonoPro-46"/>
       <use x="179.999954" xlink:href="#DecimaMonoPro-50"/>
       <use x="239.999939" xlink:href="#DecimaMonoPro-53"/>
      </g>
     </g>
    </g>
    <g id="ytick_5">
     <g id="line2d_19">
      <path clip-path="url(#p5df296ff96)" d="M 77.76 244.424848 
L 609.12 244.424848 
" style="fill:none;stroke:#b0b0b0;stroke-linecap:square;stroke-width:0.8;"/>
     </g>
     <g id="line2d_20">
      <g>
       <use style="stroke:#000000;stroke-width:0.8;" x="77.76" xlink:href="#m7baedad5eb" y="244.424848"/>
      </g>
     </g>
     <g id="text_11">
      <!-- 0.00 -->
      <g style="fill:#303030;" transform="translate(37.16 249.33141)scale(0.14 -0.14)">
       <use xlink:href="#DecimaMonoPro-48"/>
       <use x="59.999985" xlink:href="#DecimaMonoPro-46"/>
       <use x="119.999969" xlink:href="#DecimaMonoPro-48"/>
       <use x="179.999954" xlink:href="#DecimaMonoPro-48"/>
      </g>
     </g>
    </g>
    <g id="ytick_6">
     <g id="line2d_21">
      <path clip-path="url(#p5df296ff96)" d="M 77.76 206.047959 
L 609.12 206.047959 
" style="fill:none;stroke:#b0b0b0;stroke-linecap:square;stroke-width:0.8;"/>
     </g>
     <g id="line2d_22">
      <g>
       <use style="stroke:#000000;stroke-width:0.8;" x="77.76" xlink:href="#m7baedad5eb" y="206.047959"/>
      </g>
     </g>
     <g id="text_12">
      <!-- 0.25 -->
      <g style="fill:#303030;" transform="translate(37.16 210.954522)scale(0.14 -0.14)">
       <use xlink:href="#DecimaMonoPro-48"/>
       <use x="59.999985" xlink:href="#DecimaMonoPro-46"/>
       <use x="119.999969" xlink:href="#DecimaMonoPro-50"/>
       <use x="179.999954" xlink:href="#DecimaMonoPro-53"/>
      </g>
     </g>
    </g>
    <g id="ytick_7">
     <g id="line2d_23">
      <path clip-path="url(#p5df296ff96)" d="M 77.76 167.671071 
L 609.12 167.671071 
" style="fill:none;stroke:#b0b0b0;stroke-linecap:square;stroke-width:0.8;"/>
     </g>
     <g id="line2d_24">
      <g>
       <use style="stroke:#000000;stroke-width:0.8;" x="77.76" xlink:href="#m7baedad5eb" y="167.671071"/>
      </g>
     </g>
     <g id="text_13">
      <!-- 0.50 -->
      <g style="fill:#303030;" transform="translate(37.16 172.577633)scale(0.14 -0.14)">
       <use xlink:href="#DecimaMonoPro-48"/>
       <use x="59.999985" xlink:href="#DecimaMonoPro-46"/>
       <use x="119.999969" xlink:href="#DecimaMonoPro-53"/>
       <use x="179.999954" xlink:href="#DecimaMonoPro-48"/>
      </g>
     </g>
    </g>
    <g id="ytick_8">
     <g id="line2d_25">
      <path clip-path="url(#p5df296ff96)" d="M 77.76 129.294182 
L 609.12 129.294182 
" style="fill:none;stroke:#b0b0b0;stroke-linecap:square;stroke-width:0.8;"/>
     </g>
     <g id="line2d_26">
      <g>
       <use style="stroke:#000000;stroke-width:0.8;" x="77.76" xlink:href="#m7baedad5eb" y="129.294182"/>
      </g>
     </g>
     <g id="text_14">
      <!-- 0.75 -->
      <g style="fill:#303030;" transform="translate(37.16 134.200745)scale(0.14 -0.14)">
       <use xlink:href="#DecimaMonoPro-48"/>
       <use x="59.999985" xlink:href="#DecimaMonoPro-46"/>
       <use x="119.999969" xlink:href="#DecimaMonoPro-55"/>
       <use x="179.999954" xlink:href="#DecimaMonoPro-53"/>
      </g>
     </g>
    </g>
    <g id="ytick_9">
     <g id="line2d_27">
      <path clip-path="url(#p5df296ff96)" d="M 77.76 90.917294 
L 609.12 90.917294 
" style="fill:none;stroke:#b0b0b0;stroke-linecap:square;stroke-width:0.8;"/>
     </g>
     <g id="line2d_28">
      <g>
       <use style="stroke:#000000;stroke-width:0.8;" x="77.76" xlink:href="#m7baedad5eb" y="90.917294"/>
      </g>
     </g>
     <g id="text_15">
      <!-- 1.00 -->
      <g style="fill:#303030;" transform="translate(37.16 95.823856)scale(0.14 -0.14)">
       <use xlink:href="#DecimaMonoPro-49"/>
       <use x="59.999985" xlink:href="#DecimaMonoPro-46"/>
       <use x="119.999969" xlink:href="#DecimaMonoPro-48"/>
       <use x="179.999954" xlink:href="#DecimaMonoPro-48"/>
      </g>
     </g>
    </g>
    <g id="text_16">
     <!-- P -->
     <defs>
      <path d="M 34.09375 30 
L 18.5 30 
L 18.5 0 
L 9.703125 0 
L 9.703125 70 
L 34.09375 70 
Q 43.90625 70 49.40625 64.59375 
Q 54.90625 59.203125 54.90625 50 
Q 54.90625 40.796875 49.40625 35.390625 
Q 43.90625 30 34.09375 30 
z
M 34.59375 38.40625 
Q 40 38.40625 42.890625 41.40625 
Q 45.796875 44.40625 45.796875 50 
Q 45.796875 55.59375 42.890625 58.59375 
Q 40 61.59375 34.59375 61.59375 
L 18.5 61.59375 
L 18.5 38.40625 
z
" id="Apercu-80"/>
     </defs>
     <g style="opacity:0.75;" transform="translate(21.903125 248.528437)rotate(-90)scale(0.14 -0.14)">
      <use xlink:href="#Apercu-80"/>
     </g>
    </g>
   </g>
   <g id="line2d_29">
    <path clip-path="url(#p5df296ff96)" d="M 77.76 176.954421 
L 79.983264 176.352608 
L 82.206527 175.936118 
L 84.429791 175.770383 
L 97.769372 175.518852 
L 108.88569 175.738651 
L 113.332218 176.092279 
L 115.555481 176.590597 
L 117.778745 177.954116 
L 120.002008 183.115868 
L 122.225272 203.2016 
L 124.448536 228.753498 
L 126.671799 243.18258 
L 133.34159 274.661708 
L 135.564854 283.388493 
L 137.788117 291.166417 
L 140.011381 298.242116 
L 142.234644 304.302685 
L 144.457908 308.556915 
L 146.681172 311.187054 
L 148.904435 313.284561 
L 153.350962 317.694366 
L 155.574226 319.206163 
L 157.79749 319.978008 
L 160.020753 320.131775 
L 162.244017 319.861052 
L 166.690544 318.792074 
L 171.137071 317.749609 
L 175.583598 316.782713 
L 177.806862 316.208789 
L 180.030126 315.468295 
L 182.253389 314.41695 
L 184.476653 312.776983 
L 186.699916 309.947144 
L 188.92318 304.540476 
L 191.146444 293.844622 
L 195.592971 258.806058 
L 197.816234 245.268814 
L 204.486025 211.911889 
L 206.709289 201.690194 
L 208.932552 192.736079 
L 211.155816 185.368312 
L 213.379079 180.415769 
L 215.602343 177.883348 
L 217.825607 176.832809 
L 220.04887 176.268737 
L 222.272134 175.891233 
L 226.718661 175.710185 
L 235.611715 175.505449 
L 246.728033 175.673849 
L 251.174561 175.891423 
L 253.397824 176.149754 
L 255.621088 176.728956 
L 257.844351 178.393422 
L 260.067615 185.03252 
L 264.514142 231.81254 
L 266.737406 245.03356 
L 271.183933 266.464509 
L 273.407197 276.207158 
L 275.63046 284.755504 
L 277.853724 292.401405 
L 280.076987 299.355763 
L 282.300251 305.156797 
L 284.523515 309.088538 
L 286.746778 311.545345 
L 288.970042 313.652074 
L 291.193305 315.942311 
L 293.416569 318.000144 
L 295.639833 319.386084 
L 297.863096 320.042181 
L 300.08636 320.110401 
L 302.309623 319.788066 
L 317.872469 316.098874 
L 320.095732 315.318539 
L 322.318996 314.193154 
L 324.542259 312.408716 
L 326.765523 309.274527 
L 328.988787 303.201423 
L 331.21205 291.336555 
L 335.658577 256.223846 
L 337.881841 243.329454 
L 344.551632 210.109583 
L 346.774895 200.094831 
L 348.998159 191.365415 
L 351.221423 184.349548 
L 353.444686 179.838953 
L 355.66795 177.634695 
L 357.891213 176.723005 
L 360.114477 176.189134 
L 362.337741 175.854304 
L 371.230795 175.54677 
L 377.900586 175.526677 
L 389.016904 175.773106 
L 391.240167 175.923418 
L 393.463431 176.215383 
L 395.686695 176.893278 
L 397.909958 178.945497 
L 400.133222 187.489835 
L 402.356485 212.974063 
L 404.579749 234.554121 
L 406.803013 246.827377 
L 411.24954 268.19833 
L 413.472803 277.718963 
L 415.696067 286.096735 
L 417.919331 293.618788 
L 420.142594 300.437978 
L 422.365858 305.95462 
L 424.589121 309.57652 
L 426.812385 311.895436 
L 429.035649 314.027573 
L 431.258912 316.321294 
L 433.482176 318.28588 
L 435.705439 319.544961 
L 437.928703 320.089642 
L 440.151967 320.078011 
L 442.37523 319.709561 
L 453.491548 317.115237 
L 457.938075 315.983858 
L 460.161339 315.159355 
L 462.384603 313.951461 
L 464.607866 312.004223 
L 466.83113 308.522717 
L 469.054393 301.695881 
L 471.277657 288.630268 
L 473.500921 270.271247 
L 475.724184 253.778336 
L 477.947448 241.443347 
L 484.617238 208.338862 
L 486.840502 198.535279 
L 489.063766 190.041268 
L 491.287029 183.405029 
L 493.510293 179.329165 
L 495.733556 177.422332 
L 497.95682 176.621691 
L 500.180084 176.11478 
L 502.403347 175.824696 
L 513.519665 175.505662 
L 524.635983 175.636079 
L 529.08251 175.792715 
L 531.305774 175.959146 
L 533.529038 176.290733 
L 535.752301 177.090049 
L 537.975565 179.646398 
L 540.198828 190.577862 
L 542.422092 217.541405 
L 544.645356 237.024969 
L 546.868619 248.594534 
L 551.315146 269.893273 
L 553.53841 279.198871 
L 555.761674 287.413495 
L 557.984937 294.81879 
L 560.208201 301.4835 
L 562.431464 306.695399 
L 564.654728 310.026242 
L 571.324519 316.690286 
L 573.547782 318.550725 
L 575.771046 319.683305 
L 577.99431 320.121279 
L 580.217573 320.035564 
L 582.440837 319.626357 
L 591.333891 317.510302 
L 595.780418 316.507781 
L 598.003682 315.863184 
L 600.226946 314.989696 
L 602.450209 313.689785 
L 604.673473 311.558579 
L 606.896736 307.680309 
L 609.12 300.007259 
L 609.12 300.007259 
" style="fill:none;stroke:#000004;stroke-width:3;"/>
   </g>
   <g id="line2d_30">
    <path clip-path="url(#p5df296ff96)" d="M 77.76 124.178249 
L 79.983264 115.252707 
L 82.206527 107.617793 
L 84.429791 101.34981 
L 86.653054 96.511386 
L 88.876318 93.150875 
L 91.099582 91.301833 
L 93.322845 90.982747 
L 95.546109 92.196811 
L 97.769372 94.931888 
L 99.992636 99.16063 
L 102.2159 104.840832 
L 104.439163 111.915693 
L 106.662427 120.314546 
L 108.88569 129.95347 
L 111.108954 140.736144 
L 113.332218 152.554857 
L 115.555481 165.291488 
L 120.002008 193.001638 
L 124.448536 222.761861 
L 133.34159 283.652339 
L 137.788117 312.355077 
L 140.011381 325.758697 
L 142.234644 338.349656 
L 144.457908 350.002143 
L 146.681172 360.599751 
L 148.904435 370.036575 
L 151.127699 378.218308 
L 153.350962 385.063238 
L 155.574226 390.502956 
L 157.79749 394.483103 
L 160.020753 396.963933 
L 162.244017 397.920617 
L 164.46728 397.343641 
L 166.690544 395.238741 
L 168.913808 391.626971 
L 171.137071 386.544402 
L 173.360335 380.041819 
L 175.583598 372.184193 
L 177.806862 363.050035 
L 180.030126 352.73061 
L 182.253389 341.329046 
L 184.476653 328.959232 
L 186.699916 315.744793 
L 191.146444 287.317236 
L 197.816234 241.843787 
L 204.486025 196.600898 
L 208.932552 168.574716 
L 211.155816 155.629975 
L 213.379079 143.572439 
L 215.602343 132.522592 
L 217.825607 122.590839 
L 220.04887 113.876407 
L 222.272134 106.466357 
L 224.495397 100.434775 
L 226.718661 95.841872 
L 228.941925 92.733558 
L 231.165188 91.140899 
L 233.388452 91.079808 
L 235.611715 92.550885 
L 237.834979 95.539432 
L 240.058243 100.015599 
L 242.281506 105.934646 
L 244.50477 113.23746 
L 246.728033 121.85104 
L 248.951297 131.689341 
L 251.174561 142.654066 
L 253.397824 154.635645 
L 255.621088 167.514361 
L 260.067615 195.44084 
L 264.514142 225.320153 
L 273.407197 286.142154 
L 277.853724 314.660063 
L 280.076987 327.936201 
L 282.300251 340.37791 
L 284.523515 351.8609 
L 286.746778 362.270424 
L 288.970042 371.502455 
L 291.193305 379.464798 
L 293.416569 386.077852 
L 295.639833 391.275547 
L 297.863096 395.005971 
L 300.08636 397.231838 
L 302.309623 397.930909 
L 304.532887 397.096187 
L 306.756151 394.736017 
L 308.979414 390.874011 
L 311.202678 385.548717 
L 313.425941 378.813364 
L 315.649205 370.735251 
L 317.872469 361.395085 
L 320.095732 350.886186 
L 322.318996 339.313566 
L 324.542259 326.792847 
L 326.765523 313.449132 
L 331.21205 284.832914 
L 337.881841 239.263456 
L 344.551632 194.155046 
L 348.998159 166.341471 
L 351.221423 153.537095 
L 353.444686 141.640829 
L 355.66795 130.771554 
L 357.891213 121.03786 
L 360.114477 112.537028 
L 362.337741 105.353951 
L 364.561004 99.560438 
L 366.784268 95.214345 
L 369.007531 92.359135 
L 371.230795 91.023314 
L 373.454059 91.220217 
L 375.677322 92.947897 
L 377.900586 96.18908 
L 380.123849 100.911397 
L 382.347113 107.067636 
L 384.570377 114.596325 
L 386.79364 123.422201 
L 389.016904 133.457098 
L 391.240167 144.600748 
L 393.463431 156.741818 
L 395.686695 169.758974 
L 400.133222 197.893892 
L 404.579749 227.883849 
L 413.472803 288.620181 
L 417.919331 316.945191 
L 420.142594 330.090085 
L 422.365858 342.379051 
L 424.589121 353.689271 
L 426.812385 363.907771 
L 429.035649 372.932438 
L 431.258912 380.673094 
L 433.482176 387.052397 
L 435.705439 392.00662 
L 437.928703 395.486253 
L 440.151967 397.456541 
L 442.37523 397.89778 
L 444.598494 396.805561 
L 446.821757 394.190808 
L 449.045021 390.079651 
L 451.268285 384.513155 
L 453.491548 377.546935 
L 455.714812 369.250618 
L 457.938075 359.707063 
L 460.161339 349.011656 
L 462.384603 337.271258 
L 464.607866 324.603162 
L 469.054393 296.998213 
L 473.500921 267.297324 
L 484.617238 191.723416 
L 489.063766 164.130303 
L 491.287029 151.469907 
L 493.510293 139.738278 
L 495.733556 129.052643 
L 497.95682 119.519776 
L 500.180084 111.234921 
L 502.403347 104.280852 
L 504.626611 98.727063 
L 506.849874 94.629023 
L 509.073138 92.027709 
L 511.296402 90.949091 
L 513.519665 91.403944 
L 515.742929 93.387744 
L 517.966192 96.880641 
L 520.189456 101.847762 
L 522.41272 108.239464 
L 524.635983 115.99189 
L 526.859247 125.027567 
L 529.08251 135.256234 
L 531.305774 146.575662 
L 533.529038 158.872776 
L 535.752301 172.024697 
L 540.198828 200.360097 
L 546.868619 245.783591 
L 553.53841 291.085713 
L 557.984937 319.209816 
L 560.208201 332.219754 
L 562.431464 344.352479 
L 564.654728 355.48676 
L 566.877992 365.511344 
L 569.101255 374.326072 
L 571.324519 381.842873 
L 573.547782 387.986639 
L 575.771046 392.695971 
L 577.99431 395.923832 
L 580.217573 397.637985 
L 582.440837 397.821258 
L 584.6641 396.471866 
L 586.887364 393.603247 
L 589.110628 389.244095 
L 591.333891 383.437977 
L 593.557155 376.242867 
L 595.780418 367.730673 
L 598.003682 357.986446 
L 600.226946 347.107561 
L 602.450209 335.202694 
L 604.673473 322.390815 
L 609.12 294.565807 
L 609.12 294.565807 
" style="fill:none;stroke:#b73779;stroke-width:3;"/>
   </g>
   <g id="line2d_31">
    <path clip-path="url(#p5df296ff96)" d="M 77.76 244.424848 
L 609.12 244.424848 
" style="fill:none;stroke:#000000;stroke-opacity:0.7;stroke-width:1.3;"/>
   </g>
   <g id="patch_3">
    <path d="M 77.76 413.28 
L 77.76 75.6 
" style="fill:none;stroke:#000000;stroke-linecap:square;stroke-linejoin:miter;stroke-width:0.8;"/>
   </g>
   <g id="patch_4">
    <path d="M 609.12 413.28 
L 609.12 75.6 
" style="fill:none;stroke:#000000;stroke-linecap:square;stroke-linejoin:miter;stroke-width:0.8;"/>
   </g>
   <g id="patch_5">
    <path d="M 77.76 413.28 
L 609.12 413.28 
" style="fill:none;stroke:#000000;stroke-linecap:square;stroke-linejoin:miter;stroke-width:0.8;"/>
   </g>
   <g id="patch_6">
    <path d="M 77.76 75.6 
L 609.12 75.6 
" style="fill:none;stroke:#000000;stroke-linecap:square;stroke-linejoin:miter;stroke-width:0.8;"/>
   </g>
   <g id="patch_7">
    <path d="M 0 504 
L 648 504 
L 648 480.623377 
L 0 480.623377 
z
" style="fill:#808080;"/>
   </g>
   <g id="text_17">
    <!-- ©spred -->
    <defs>
     <path d="M 50.90625 25.90625 
L 50.90625 44 
Q 50.90625 52.40625 44.75 58.40625 
Q 38.59375 64.40625 30 64.40625 
Q 21.296875 64.40625 15.09375 58.40625 
Q 8.90625 52.40625 8.90625 44 
L 8.90625 25.90625 
Q 8.90625 17.5 15.09375 11.453125 
Q 21.296875 5.40625 30 5.40625 
Q 38.59375 5.40625 44.75 11.453125 
Q 50.90625 17.5 50.90625 25.90625 
z
M 57.703125 43.203125 
L 57.703125 26.59375 
Q 57.703125 15.203125 49.59375 7.09375 
Q 41.5 -1 30 -1 
Q 18.40625 -1 10.296875 7.09375 
Q 2.203125 15.203125 2.203125 26.59375 
L 2.203125 43.203125 
Q 2.203125 54.59375 10.296875 62.6875 
Q 18.40625 70.796875 30 70.796875 
Q 41.5 70.796875 49.59375 62.6875 
Q 57.703125 54.59375 57.703125 43.203125 
z
M 38.59375 29.40625 
L 41.40625 29.40625 
Q 42.40625 29.40625 42.90625 28.84375 
Q 43.40625 28.296875 43.40625 27.59375 
Q 43.40625 21.59375 39.796875 17.9375 
Q 36.203125 14.296875 30.40625 14.296875 
Q 24.40625 14.296875 20.75 17.9375 
Q 17.09375 21.59375 17.09375 27.09375 
L 17.09375 43.40625 
Q 17.09375 48.703125 20.75 52.390625 
Q 24.40625 56.09375 30.40625 56.09375 
Q 35.90625 56.09375 39.40625 52.25 
Q 42.90625 48.40625 42.90625 42.296875 
Q 42.90625 41.59375 42.40625 41.046875 
Q 41.90625 40.5 40.90625 40.5 
L 38.09375 40.5 
Q 37.09375 40.5 36.546875 41.046875 
Q 36 41.59375 36 42.296875 
Q 36 45.203125 34.390625 47.046875 
Q 32.796875 48.90625 30.40625 48.90625 
Q 27.703125 48.90625 25.796875 46.90625 
Q 23.90625 44.90625 23.90625 42.203125 
L 23.90625 28.203125 
Q 23.90625 25.59375 25.796875 23.59375 
Q 27.703125 21.59375 30.40625 21.59375 
Q 32.90625 21.59375 34.703125 23.1875 
Q 36.5 24.796875 36.5 27.59375 
Q 36.5 28.296875 37.046875 28.84375 
Q 37.59375 29.40625 38.59375 29.40625 
z
" id="DecimaMonoPro-169"/>
     <path d="M 30.09375 -1 
Q 25.296875 -1 21.546875 0.59375 
Q 17.796875 2.203125 15.84375 4.59375 
Q 13.90625 7 12.953125 9.390625 
Q 12 11.796875 12 14 
Q 12 14.796875 12.5 15.296875 
Q 13 15.796875 13.796875 15.796875 
L 18.296875 15.796875 
Q 19.90625 15.796875 20.09375 14.09375 
Q 20.40625 11.203125 22.796875 8.703125 
Q 25.203125 6.203125 30.09375 6.203125 
Q 34.296875 6.203125 36.890625 8.296875 
Q 39.5 10.40625 39.5 13.59375 
Q 39.5 16.5 36.84375 18.5 
Q 34.203125 20.5 30.390625 21.84375 
Q 26.59375 23.203125 22.84375 24.796875 
Q 19.09375 26.40625 16.4375 29.5 
Q 13.796875 32.59375 13.796875 37.09375 
Q 13.796875 43.296875 18.4375 47.140625 
Q 23.09375 51 30.703125 51 
Q 38.90625 51 43.25 46.5 
Q 47.59375 42 47.59375 37.5 
Q 47.59375 36.796875 47.09375 36.25 
Q 46.59375 35.703125 45.796875 35.703125 
L 41.203125 35.703125 
Q 39.703125 35.703125 39.40625 37.40625 
Q 38.90625 40 36.75 41.890625 
Q 34.59375 43.796875 30.703125 43.796875 
Q 26.90625 43.796875 24.546875 42.09375 
Q 22.203125 40.40625 22.203125 37.703125 
Q 22.203125 35 24.84375 33.09375 
Q 27.5 31.203125 31.25 29.890625 
Q 35 28.59375 38.703125 26.9375 
Q 42.40625 25.296875 45.046875 21.84375 
Q 47.703125 18.40625 47.703125 13.40625 
Q 47.703125 7.40625 42.59375 3.203125 
Q 37.5 -1 30.09375 -1 
z
" id="DecimaMonoPro-115"/>
     <path d="M 42.09375 17.09375 
L 42.09375 33.09375 
Q 42.09375 37.703125 38.84375 40.796875 
Q 35.59375 43.90625 30.5 43.90625 
Q 25.40625 43.90625 22.046875 40.75 
Q 18.703125 37.59375 18.703125 33 
L 18.703125 17.09375 
Q 18.703125 12.5 22.046875 9.390625 
Q 25.40625 6.296875 30.5 6.296875 
Q 35.59375 6.296875 38.84375 9.390625 
Q 42.09375 12.5 42.09375 17.09375 
z
M 18.703125 3.703125 
L 18.796875 -16.203125 
Q 18.796875 -18 16.5 -18 
L 13 -18 
Q 10.703125 -18 10.703125 -16.203125 
L 10.703125 48.203125 
Q 10.703125 50 13 50 
L 15.90625 50 
Q 18.203125 50 18.203125 48.203125 
L 18.203125 45.90625 
Q 18.59375 46.5 19.5 47.34375 
Q 20.40625 48.203125 23.75 49.59375 
Q 27.09375 51 31.296875 51 
Q 39.296875 51 44.796875 45.640625 
Q 50.296875 40.296875 50.296875 32.59375 
L 50.296875 17.40625 
Q 50.296875 9.796875 44.75 4.390625 
Q 39.203125 -1 31.296875 -1 
Q 27.40625 -1 24.25 0.203125 
Q 21.09375 1.40625 19.90625 2.59375 
z
" id="DecimaMonoPro-112"/>
     <path d="M 37.203125 51 
Q 44.09375 51 48.140625 46.453125 
Q 52.203125 41.90625 52.203125 37.5 
Q 52.203125 35.703125 50.5 35.703125 
L 45.90625 35.703125 
Q 44.296875 35.703125 44.09375 37.40625 
Q 43.796875 39.796875 41.75 41.796875 
Q 39.703125 43.796875 36.59375 43.796875 
Q 32.40625 43.796875 29.203125 40.796875 
Q 26 37.796875 26 34 
L 26 7.203125 
L 45.09375 7.203125 
Q 45.796875 7.203125 46.34375 6.703125 
Q 46.90625 6.203125 46.90625 5.40625 
L 46.90625 1.796875 
Q 46.90625 1 46.34375 0.5 
Q 45.796875 0 45.09375 0 
L 9.296875 0 
Q 8.59375 0 8.046875 0.5 
Q 7.5 1 7.5 1.796875 
L 7.5 5.40625 
Q 7.5 6.203125 8.046875 6.703125 
Q 8.59375 7.203125 9.296875 7.203125 
L 18 7.203125 
L 18 48.203125 
Q 18 50 20.296875 50 
L 23.5 50 
Q 25.796875 50 25.796875 48.203125 
L 25.796875 45.703125 
Q 29.796875 51 37.203125 51 
z
" id="DecimaMonoPro-114"/>
     <path d="M 48.796875 13.5 
Q 48.796875 9.09375 43.75 4.046875 
Q 38.703125 -1 30.203125 -1 
Q 21.203125 -1 15.75 4.453125 
Q 10.296875 9.90625 10.296875 17.5 
L 10.296875 32.703125 
Q 10.296875 40.203125 15.75 45.59375 
Q 21.203125 51 30.203125 51 
Q 39.203125 51 44.453125 45.59375 
Q 49.703125 40.203125 49.703125 32.703125 
L 49.703125 24.796875 
Q 49.703125 23.796875 49.046875 23.140625 
Q 48.40625 22.5 47.40625 22.5 
L 18.40625 22.5 
L 18.40625 17 
Q 18.40625 12.5 21.65625 9.296875 
Q 24.90625 6.09375 30.203125 6.09375 
Q 38.5 6.09375 40.59375 13.59375 
Q 41.09375 15.296875 42.40625 15.296875 
L 47 15.296875 
Q 47.796875 15.296875 48.296875 14.75 
Q 48.796875 14.203125 48.796875 13.5 
z
M 18.40625 33 
L 18.40625 29.703125 
L 41.796875 29.703125 
L 41.796875 33 
Q 41.796875 37.5 38.640625 40.640625 
Q 35.5 43.796875 30.203125 43.796875 
Q 24.90625 43.796875 21.65625 40.640625 
Q 18.40625 37.5 18.40625 33 
z
" id="DecimaMonoPro-101"/>
     <path d="M 17.90625 32.90625 
L 17.90625 16.90625 
Q 17.90625 12.296875 21.15625 9.1875 
Q 24.40625 6.09375 29.5 6.09375 
Q 34.59375 6.09375 37.9375 9.25 
Q 41.296875 12.40625 41.296875 17 
L 41.296875 32.90625 
Q 41.296875 37.5 37.9375 40.59375 
Q 34.59375 43.703125 29.5 43.703125 
Q 24.40625 43.703125 21.15625 40.59375 
Q 17.90625 37.5 17.90625 32.90625 
z
M 41.296875 46.296875 
L 41.203125 68.203125 
Q 41.203125 70 43.5 70 
L 47 70 
Q 49.296875 70 49.296875 68.203125 
L 49.296875 1.796875 
Q 49.296875 0 47 0 
L 44.09375 0 
Q 41.796875 0 41.796875 1.796875 
L 41.796875 4.09375 
Q 41.40625 3.5 40.5 2.640625 
Q 39.59375 1.796875 36.25 0.390625 
Q 32.90625 -1 28.703125 -1 
Q 20.703125 -1 15.203125 4.34375 
Q 9.703125 9.703125 9.703125 17.40625 
L 9.703125 32.59375 
Q 9.703125 40.203125 15.25 45.59375 
Q 20.796875 51 28.703125 51 
Q 32.59375 51 35.75 49.796875 
Q 38.90625 48.59375 40.09375 47.40625 
z
" id="DecimaMonoPro-100"/>
    </defs>
    <g style="fill:#ffffff;" transform="translate(6.48 496.8)scale(0.14 -0.14)">
     <use xlink:href="#DecimaMonoPro-169"/>
     <use x="59.999985" xlink:href="#DecimaMonoPro-115"/>
     <use x="119.999969" xlink:href="#DecimaMonoPro-112"/>
     <use x="179.999954" xlink:href="#DecimaMonoPro-114"/>
     <use x="239.999939" xlink:href="#DecimaMonoPro-101"/>
     <use x="299.999924" xlink:href="#DecimaMonoPro-100"/>
    </g>
   </g>
   <g id="text_18">
    <!-- steps-10000_range-1000 -->
    <defs>
     <path d="M 23.40625 51.203125 
C 14.296875 51.203125 7.90625 44.703125 7.90625 36.90625 
C 7.90625 29.203125 12.90625 25.5 18.703125 23.09375 
C 24.59375 20.59375 30.703125 19.40625 30.703125 15 
C 30.703125 10.40625 27.90625 8.40625 23.90625 8.40625 
C 18.296875 8.40625 14.796875 13 12.796875 17.5 
L 4 12.703125 
C 6.59375 6.40625 13.09375 -0.796875 23.5 -0.796875 
C 34.296875 -0.796875 41 6.5 41 15.203125 
C 41 24.203125 33.703125 27.203125 26.90625 29.796875 
C 21.703125 31.796875 17.90625 33.40625 17.90625 37 
C 17.90625 40.296875 20.296875 42 22.90625 42 
C 26.09375 42 29.203125 40.59375 31.703125 37.40625 
L 38.296875 43.203125 
C 35.09375 48.203125 29.5 51.203125 23.40625 51.203125 
z
" id="ApercuPro-Medium-115"/>
     <path d="M 2.09375 41.203125 
L 10.5 41.203125 
L 10.5 17.203125 
C 10.5 4.796875 17.5 -0.796875 27 -0.796875 
C 29.796875 -0.796875 32.40625 -0.296875 35.09375 1 
L 32.40625 9.796875 
C 30.59375 8.703125 29.40625 8.40625 27.59375 8.40625 
C 23 8.40625 20.90625 10.90625 20.90625 16.59375 
L 20.90625 41.203125 
L 34 41.203125 
L 34 50.40625 
L 20.90625 50.40625 
L 20.90625 70.796875 
L 10.5 64.296875 
L 10.5 50.40625 
L 2.09375 50.40625 
z
" id="ApercuPro-Medium-116"/>
     <path d="M 28.40625 42 
C 35.90625 42 39.703125 36.59375 40.59375 31 
L 16.09375 31 
C 17.203125 37.296875 21.5 42 28.40625 42 
z
M 51.59375 26.796875 
C 51.59375 38.09375 44.5 51.203125 28.40625 51.203125 
C 11.796875 51.203125 4.90625 37.203125 4.90625 25.203125 
C 4.90625 13.203125 11.796875 -0.796875 28.40625 -0.796875 
C 39.90625 -0.796875 45.59375 3.90625 50.5 13.40625 
L 41.59375 16.90625 
C 39 11.40625 33.796875 8.40625 28.40625 8.40625 
C 20.203125 8.40625 15.90625 14.90625 15.90625 22.296875 
L 51.59375 22.296875 
z
" id="ApercuPro-Medium-101"/>
     <path d="M 55.203125 25.203125 
C 55.203125 41.296875 47.59375 51.203125 32.703125 51.203125 
C 26.09375 51.203125 20.703125 47.5 19 44.59375 
L 19 50.40625 
L 8.59375 50.40625 
L 8.59375 -20.40625 
L 19 -20.40625 
L 19 5.59375 
C 21.296875 2.296875 26.296875 -0.796875 32.5 -0.796875 
C 47.59375 -0.796875 55.203125 9.59375 55.203125 25.203125 
z
M 44.203125 25.203125 
C 44.203125 14.796875 38.796875 8.40625 31.296875 8.40625 
C 23.796875 8.40625 18.40625 14.796875 18.40625 25.203125 
C 18.40625 35.59375 23.796875 42 31.296875 42 
C 38.796875 42 44.203125 35.59375 44.203125 25.203125 
z
" id="ApercuPro-Medium-112"/>
     <path d="M 6.796875 27.09375 
L 42.09375 27.09375 
L 42.09375 36.296875 
L 6.796875 36.296875 
z
" id="ApercuPro-Medium-45"/>
     <path d="M 26.5 70 
L 7.09375 58.40625 
L 7.09375 47.203125 
L 20.203125 55 
L 20.203125 0 
L 30.796875 0 
L 30.796875 70 
z
" id="ApercuPro-Medium-49"/>
     <path d="M 31.59375 70.796875 
C 15.09375 70.796875 6.40625 57.09375 6.40625 35 
C 6.40625 12.90625 15.09375 -0.796875 31.59375 -0.796875 
C 48.09375 -0.796875 56.796875 12.90625 56.796875 35 
C 56.796875 57.09375 48.09375 70.796875 31.59375 70.796875 
z
M 31.59375 61.203125 
C 41.5 61.203125 46.203125 51.40625 46.203125 35 
C 46.203125 18.59375 41.5 8.796875 31.59375 8.796875 
C 21.703125 8.796875 17 18.59375 17 35 
C 17 51.40625 21.703125 61.203125 31.59375 61.203125 
z
" id="ApercuPro-Medium-48"/>
     <path d="M 2.703125 -9.203125 
L 47.203125 -9.203125 
L 47.203125 0 
L 2.703125 0 
z
" id="ApercuPro-Medium-95"/>
     <path d="M 19 0 
L 19 18.703125 
C 19 34.59375 25.90625 42 32.59375 42 
C 34.703125 42 36.90625 41.5 38.5 40.5 
L 40.296875 50 
C 38.796875 50.59375 36.59375 51.203125 33.90625 51.203125 
C 28.5 51.203125 22.5 48 19 42 
L 19 50.40625 
L 8.59375 50.40625 
L 8.59375 0 
z
" id="ApercuPro-Medium-114"/>
     <path d="M 4.40625 14.5 
C 4.40625 4 11.5 -0.796875 19.90625 -0.796875 
C 27 -0.796875 32.203125 2 35.5 6.59375 
L 36.5 0 
L 45.296875 0 
L 45.296875 31.296875 
C 45.296875 46.09375 36.90625 51.203125 25.203125 51.203125 
C 15.5 51.203125 8.296875 45.796875 6.203125 37.296875 
L 15.703125 35.296875 
C 17.40625 39.796875 21 42 25.09375 42 
C 30.40625 42 34.90625 39.5 34.90625 33.203125 
L 34.90625 31 
L 26.203125 31 
C 13.296875 31 4.40625 24.90625 4.40625 14.5 
z
M 15.40625 14.5 
C 15.40625 19.296875 19.40625 22.296875 25.796875 22.296875 
L 34.90625 22.296875 
L 34.90625 21.203125 
C 34.90625 12.5 28.09375 8.40625 21.703125 8.40625 
C 17.296875 8.40625 15.40625 11.09375 15.40625 14.5 
z
" id="ApercuPro-Medium-97"/>
     <path d="M 8.59375 50.40625 
L 8.59375 0 
L 19 0 
L 19 20.40625 
C 19 34.296875 25.40625 42 31.90625 42 
C 36.59375 42 39.703125 39.59375 39.703125 32.796875 
L 39.703125 0 
L 50.09375 0 
L 50.09375 36.09375 
C 50.09375 45.90625 44.09375 51.203125 35.296875 51.203125 
C 28.59375 51.203125 22.59375 47.796875 19 41.796875 
L 19 50.40625 
z
" id="ApercuPro-Medium-110"/>
     <path d="M 8.703125 34.296875 
C 8.703125 30 9.90625 26.40625 12.09375 23.703125 
C 8.40625 21.59375 6 18 6 13.5 
C 6 10 7.09375 7.40625 8.90625 5.59375 
C 6.296875 3.203125 4.59375 -0.296875 4.59375 -4.59375 
C 4.59375 -15.59375 14.09375 -21.203125 26.796875 -21.203125 
C 38.09375 -21.203125 48.90625 -16.296875 48.90625 -3.796875 
C 48.90625 5.703125 42.09375 10.59375 32.203125 10.59375 
L 21.09375 10.59375 
C 17.59375 10.59375 15.90625 11.796875 15.90625 14.5 
C 15.90625 16.40625 16.796875 17.90625 18.59375 18.90625 
C 20.90625 18 23.703125 17.40625 26.703125 17.40625 
C 36.90625 17.40625 44.796875 23.703125 44.796875 34.296875 
C 44.796875 37.5 44 40.296875 42.59375 42.703125 
L 49.40625 46.5 
L 45.203125 54 
L 35.90625 49 
C 33.203125 50.40625 30.09375 51.203125 26.703125 51.203125 
C 16.5 51.203125 8.703125 44.796875 8.703125 34.296875 
z
M 30 1.796875 
C 34.90625 1.796875 38.296875 0.203125 38.296875 -4.59375 
C 38.296875 -9.5 34 -12.203125 26.796875 -12.203125 
C 19.09375 -12.203125 14.59375 -9 14.59375 -4 
C 14.59375 -1.40625 15.296875 0.5 16.796875 2.09375 
C 18.40625 1.90625 20.09375 1.796875 21.90625 1.796875 
z
M 18.796875 34.296875 
C 18.796875 39.296875 22.09375 42.5 26.703125 42.5 
C 31.40625 42.5 34.703125 39.296875 34.703125 34.296875 
C 34.703125 29.296875 31.40625 26.09375 26.703125 26.09375 
C 22.09375 26.09375 18.796875 29.296875 18.796875 34.296875 
z
" id="ApercuPro-Medium-103"/>
    </defs>
    <g style="opacity:0.75;" transform="translate(72 50.4)scale(0.3 -0.3)">
     <use xlink:href="#ApercuPro-Medium-115"/>
     <use x="44.999985" xlink:href="#ApercuPro-Medium-116"/>
     <use x="83.499969" xlink:href="#ApercuPro-Medium-101"/>
     <use x="139.399963" xlink:href="#ApercuPro-Medium-112"/>
     <use x="199.499954" xlink:href="#ApercuPro-Medium-115"/>
     <use x="244.499939" xlink:href="#ApercuPro-Medium-45"/>
     <use x="293.399933" xlink:href="#ApercuPro-Medium-49"/>
     <use x="332.984299" xlink:href="#ApercuPro-Medium-48"/>
     <use x="396.153046" xlink:href="#ApercuPro-Medium-48"/>
     <use x="459.321793" xlink:href="#ApercuPro-Medium-48"/>
     <use x="522.49054" xlink:href="#ApercuPro-Medium-48"/>
     <use x="585.690536" xlink:href="#ApercuPro-Medium-95"/>
     <use x="635.59053" xlink:href="#ApercuPro-Medium-114"/>
     <use x="677.274902" xlink:href="#ApercuPro-Medium-97"/>
     <use x="728.659271" xlink:href="#ApercuPro-Medium-110"/>
     <use x="786.628006" xlink:href="#ApercuPro-Medium-103"/>
     <use x="837.727997" xlink:href="#ApercuPro-Medium-101"/>
     <use x="893.627991" xlink:href="#ApercuPro-Medium-45"/>
     <use x="942.527985" xlink:href="#ApercuPro-Medium-49"/>
     <use x="982.11235" xlink:href="#ApercuPro-Medium-48"/>
     <use x="1045.281097" xlink:href="#ApercuPro-Medium-48"/>
     <use x="1108.449844" xlink:href="#ApercuPro-Medium-48"/>
    </g>
   </g>
   <g id="legend_1">
    <g id="patch_8">
     <path d="M 515.50375 126.336875 
L 599.32 126.336875 
Q 602.12 126.336875 602.12 123.536875 
L 602.12 85.4 
Q 602.12 82.6 599.32 82.6 
L 515.50375 82.6 
Q 512.70375 82.6 512.70375 85.4 
L 512.70375 123.536875 
Q 512.70375 126.336875 515.50375 126.336875 
z
" style="fill:#f0f0f0;opacity:0.8;stroke:#cccccc;stroke-linejoin:miter;stroke-width:0.5;"/>
    </g>
    <g id="line2d_32">
     <path d="M 518.30375 93.211562 
L 546.30375 93.211562 
" style="fill:none;stroke:#000004;stroke-width:3;"/>
    </g>
    <g id="line2d_33"/>
    <g id="text_19">
     <!-- pred -->
     <defs>
      <path d="M 32.296875 -0.796875 
Q 27.796875 -0.796875 23.390625 1.390625 
Q 19 3.59375 17.59375 6 
L 17.59375 -20.40625 
L 9.203125 -20.40625 
L 9.203125 50.40625 
L 17.59375 50.40625 
L 17.59375 44.203125 
Q 19.5 47.09375 23.640625 49.140625 
Q 27.796875 51.203125 32.296875 51.203125 
Q 43.09375 51.203125 48.890625 44.046875 
Q 54.703125 36.90625 54.703125 25.203125 
Q 54.703125 13.5 48.890625 6.34375 
Q 43.09375 -0.796875 32.296875 -0.796875 
z
M 31.5 43.59375 
Q 24.703125 43.59375 20.796875 38.5 
Q 16.90625 33.40625 16.90625 25.203125 
Q 16.90625 17 20.796875 11.890625 
Q 24.703125 6.796875 31.5 6.796875 
Q 38.09375 6.796875 42.09375 11.890625 
Q 46.09375 17 46.09375 25.203125 
Q 46.09375 33.40625 42.09375 38.5 
Q 38.09375 43.59375 31.5 43.59375 
z
" id="Apercu-112"/>
      <path d="M 39.296875 49.703125 
L 37.59375 42.203125 
Q 34.796875 43.59375 31.703125 43.59375 
Q 26 43.59375 21.796875 37.140625 
Q 17.59375 30.703125 17.59375 19.09375 
L 17.59375 0 
L 9.203125 0 
L 9.203125 50.40625 
L 17.59375 50.40625 
L 17.59375 41.796875 
Q 19.796875 46 24 48.59375 
Q 28.203125 51.203125 32.40625 51.203125 
Q 36.5 51.203125 39.296875 49.703125 
z
" id="Apercu-114"/>
      <path d="M 51 27.296875 
L 51 23.40625 
L 14 23.40625 
Q 14.40625 16 18.046875 11.390625 
Q 21.703125 6.796875 28.203125 6.796875 
Q 33.5 6.796875 36.75 9.140625 
Q 40 11.5 42.203125 16.40625 
L 49.59375 13.203125 
Q 46.09375 5.796875 41.046875 2.5 
Q 36 -0.796875 28.203125 -0.796875 
Q 17.296875 -0.796875 11.34375 6.75 
Q 5.40625 14.296875 5.40625 25.1875 
Q 5.40625 36.09375 11.34375 43.640625 
Q 17.296875 51.203125 28.203125 51.203125 
Q 38.90625 51.203125 44.953125 44.25 
Q 51 37.296875 51 27.296875 
z
M 28.203125 43.59375 
Q 22.59375 43.59375 19.140625 40.1875 
Q 15.703125 36.796875 14.5 31 
L 42.203125 31 
Q 41 36.703125 37.5 40.140625 
Q 34 43.59375 28.203125 43.59375 
z
" id="Apercu-101"/>
      <path d="M 27.796875 51.203125 
Q 32.296875 51.203125 36.6875 49 
Q 41.09375 46.796875 42.5 44.40625 
L 42.5 70.796875 
L 50.90625 70.796875 
L 50.90625 0 
L 42.5 0 
L 42.5 6.203125 
Q 40.59375 3.296875 36.4375 1.25 
Q 32.296875 -0.796875 27.796875 -0.796875 
Q 17 -0.796875 11.203125 6.34375 
Q 5.40625 13.5 5.40625 25.203125 
Q 5.40625 36.90625 11.203125 44.046875 
Q 17 51.203125 27.796875 51.203125 
z
M 28.59375 6.796875 
Q 35.40625 6.796875 39.296875 11.890625 
Q 43.203125 17 43.203125 25.203125 
Q 43.203125 33.40625 39.296875 38.5 
Q 35.40625 43.59375 28.59375 43.59375 
Q 22 43.59375 18 38.5 
Q 14 33.40625 14 25.203125 
Q 14 17 18 11.890625 
Q 22 6.796875 28.59375 6.796875 
z
" id="Apercu-100"/>
     </defs>
     <g style="opacity:0.75;" transform="translate(557.50375 98.111562)scale(0.14 -0.14)">
      <use xlink:href="#Apercu-112"/>
      <use x="60.099991" xlink:href="#Apercu-114"/>
      <use x="101.399979" xlink:href="#Apercu-101"/>
      <use x="157.399963" xlink:href="#Apercu-100"/>
     </g>
    </g>
    <g id="line2d_34">
     <path d="M 518.30375 112.98 
L 546.30375 112.98 
" style="fill:none;stroke:#b73779;stroke-width:3;"/>
    </g>
    <g id="line2d_35"/>
    <g id="text_20">
     <!-- actual -->
     <defs>
      <path d="M 14.203125 14.5 
Q 14.203125 10.90625 16.34375 8.84375 
Q 18.5 6.796875 22.5 6.796875 
Q 28.203125 6.796875 32.390625 10.546875 
Q 36.59375 14.296875 36.59375 22.203125 
L 36.59375 23.40625 
L 27.59375 23.40625 
Q 21.203125 23.40625 17.703125 21.09375 
Q 14.203125 18.796875 14.203125 14.5 
z
M 45 32.203125 
L 45 0 
L 38.40625 0 
L 37 7.09375 
Q 31.5 -0.796875 21.203125 -0.796875 
Q 14.40625 -0.796875 10 3 
Q 5.59375 6.796875 5.59375 14.5 
Q 5.59375 22.5 11.6875 26.75 
Q 17.796875 31 28.40625 31 
L 36.59375 31 
L 36.59375 33.203125 
Q 36.59375 43.59375 25.59375 43.59375 
Q 21.59375 43.59375 18.75 41.5 
Q 15.90625 39.40625 15.09375 35.703125 
L 7.703125 37.40625 
Q 8.703125 43.796875 13.59375 47.5 
Q 18.5 51.203125 25.59375 51.203125 
Q 34.40625 51.203125 39.703125 46.5 
Q 45 41.796875 45 32.203125 
z
" id="Apercu-97"/>
      <path d="M 42.09375 16.09375 
L 49.40625 13.09375 
Q 43.296875 -0.796875 28.296875 -0.796875 
Q 17.296875 -0.796875 11.34375 6.75 
Q 5.40625 14.296875 5.40625 25.1875 
Q 5.40625 36.09375 11.34375 43.640625 
Q 17.296875 51.203125 28.296875 51.203125 
Q 43.296875 51.203125 49.40625 37.296875 
L 42.09375 34.296875 
Q 38.09375 43.59375 28.296875 43.59375 
Q 21.296875 43.59375 17.640625 38.4375 
Q 14 33.296875 14 25.1875 
Q 14 17.09375 17.640625 11.9375 
Q 21.296875 6.796875 28.296875 6.796875 
Q 38.09375 6.796875 42.09375 16.09375 
z
" id="Apercu-99"/>
      <path d="M 2.5 42.796875 
L 2.5 50.40625 
L 11.203125 50.40625 
L 11.203125 65.5 
L 19.59375 70.796875 
L 19.59375 50.40625 
L 32.796875 50.40625 
L 32.796875 42.796875 
L 19.59375 42.796875 
L 19.59375 15.09375 
Q 19.59375 11.09375 21.34375 8.9375 
Q 23.09375 6.796875 26.296875 6.796875 
Q 29.59375 6.796875 32 8.40625 
L 34 1.09375 
Q 30.703125 -0.796875 25.796875 -0.796875 
Q 19.09375 -0.796875 15.140625 3.390625 
Q 11.203125 7.59375 11.203125 15.796875 
L 11.203125 42.796875 
z
" id="Apercu-116"/>
      <path d="M 8.59375 14.90625 
L 8.59375 50.40625 
L 17 50.40625 
L 17 17.09375 
Q 17 6.796875 25.703125 6.796875 
Q 31.59375 6.796875 35.84375 13 
Q 40.09375 19.203125 40.09375 29.296875 
L 40.09375 50.40625 
L 48.5 50.40625 
L 48.5 0 
L 40.09375 0 
L 40.09375 9.296875 
Q 34.40625 -0.796875 23.40625 -0.796875 
Q 16.5 -0.796875 12.546875 3.296875 
Q 8.59375 7.40625 8.59375 14.90625 
z
" id="Apercu-117"/>
      <path d="M 9 70.796875 
L 17.40625 70.796875 
L 17.40625 0 
L 9 0 
z
" id="Apercu-108"/>
     </defs>
     <g style="opacity:0.75;" transform="translate(557.50375 117.88)scale(0.14 -0.14)">
      <use xlink:href="#Apercu-97"/>
      <use x="51.799988" xlink:href="#Apercu-99"/>
      <use x="105.615601" xlink:href="#Apercu-116"/>
      <use x="143.399963" xlink:href="#Apercu-117"/>
      <use x="201.09996" xlink:href="#Apercu-97"/>
      <use x="252.899948" xlink:href="#Apercu-108"/>
     </g>
    </g>
   </g>
  </g>
 </g>
 <defs>
  <clipPath id="p5df296ff96">
   <rect height="337.68" width="531.36" x="77.76" y="75.6"/>
  </clipPath>
 </defs>
</svg>
