<?xml version="1.0" encoding="utf-8" standalone="no"?>
<!DOCTYPE svg PUBLIC "-//W3C//DTD SVG 1.1//EN"
  "http://www.w3.org/Graphics/SVG/1.1/DTD/svg11.dtd">
<!-- Created with matplotlib (http://matplotlib.org/) -->
<svg height="1440pt" version="1.1" viewBox="0 0 6480 1440" width="6480pt" xmlns="http://www.w3.org/2000/svg" xmlns:xlink="http://www.w3.org/1999/xlink">
 <defs>
  <style type="text/css">
*{stroke-linecap:butt;stroke-linejoin:round;}
  </style>
 </defs>
 <g id="figure_1">
  <g id="patch_1">
   <path d="M 0 1440 
L 6480 1440 
L 6480 0 
L 0 0 
z
" style="fill:#f0f0f0;"/>
  </g>
  <g id="axes_1">
   <g id="patch_2">
    <path d="M 777.6 1180.8 
L 6091.2 1180.8 
L 6091.2 216 
L 777.6 216 
z
" style="fill:#f0f0f0;"/>
   </g>
   <g id="matplotlib.axis_1">
    <g id="xtick_1">
     <g id="line2d_1">
      <path clip-path="url(#p08db5e49b1)" d="M 777.6 1180.8 
L 777.6 216 
" style="fill:none;stroke:#b0b0b0;stroke-linecap:square;stroke-width:0.8;"/>
     </g>
     <g id="line2d_2">
      <defs>
       <path d="M 0 0 
L 0 3.5 
" id="m00b336081f" style="stroke:#000000;stroke-width:0.8;"/>
      </defs>
      <g>
       <use style="stroke:#000000;stroke-width:0.8;" x="777.6" xlink:href="#m00b336081f" y="1180.8"/>
      </g>
     </g>
     <g id="text_1">
      <!-- 0 -->
      <defs>
       <path d="M 48.203125 52.59375 
L 48.203125 17.40625 
Q 48.203125 9.703125 42.953125 4.34375 
Q 37.703125 -1 29.890625 -1 
Q 22.09375 -1 16.9375 4.390625 
Q 11.796875 9.796875 11.796875 17.5 
L 11.796875 52.59375 
Q 11.796875 60.296875 16.9375 65.640625 
Q 22.09375 71 29.890625 71 
Q 37.703125 71 42.953125 65.640625 
Q 48.203125 60.296875 48.203125 52.59375 
z
M 39.90625 17.296875 
L 39.90625 52.5 
Q 39.90625 56.90625 37 60 
Q 34.09375 63.09375 29.90625 63.09375 
Q 25.796875 63.09375 22.890625 60 
Q 20 56.90625 20 52.5 
L 20 17.40625 
Q 20 13 22.890625 9.953125 
Q 25.796875 6.90625 30 6.90625 
Q 34.09375 6.90625 37 9.90625 
Q 39.90625 12.90625 39.90625 17.296875 
z
" id="DecimaMonoPro-30"/>
      </defs>
      <g style="fill:#303030;" transform="translate(773.4 1197.613125)scale(0.14 -0.14)">
       <use xlink:href="#DecimaMonoPro-30"/>
      </g>
     </g>
    </g>
    <g id="xtick_2">
     <g id="line2d_3">
      <path clip-path="url(#p08db5e49b1)" d="M 1666.161873 1180.8 
L 1666.161873 216 
" style="fill:none;stroke:#b0b0b0;stroke-linecap:square;stroke-width:0.8;"/>
     </g>
     <g id="line2d_4">
      <g>
       <use style="stroke:#000000;stroke-width:0.8;" x="1666.161873" xlink:href="#m00b336081f" y="1180.8"/>
      </g>
     </g>
     <g id="text_2">
      <!-- 50 -->
      <defs>
       <path d="M 21.90625 35.59375 
Q 21.09375 34.40625 19.796875 34.40625 
Q 19.40625 34.40625 18.203125 34.796875 
L 14.796875 35.796875 
Q 13.203125 36.296875 13.40625 38.5 
L 15.90625 67.703125 
Q 16.09375 70 18.09375 70 
L 44.40625 70 
Q 46.59375 70 46.59375 67.703125 
L 46.59375 64.40625 
Q 46.59375 62.09375 44.40625 62.09375 
L 24.09375 62.09375 
L 22.40625 44.796875 
Q 25.203125 47.203125 30.703125 47.203125 
Q 38.40625 47.203125 43.703125 42 
Q 49 36.796875 49 28.90625 
L 49 17.5 
Q 49 9.796875 43.5 4.390625 
Q 38 -1 30.09375 -1 
Q 21.90625 -1 16.453125 4.34375 
Q 11 9.703125 11 17.40625 
Q 11 18.203125 11.59375 18.796875 
Q 12.203125 19.40625 13.296875 19.40625 
L 17.09375 19.40625 
Q 18.203125 19.40625 18.796875 18.796875 
Q 19.40625 18.203125 19.40625 17.40625 
Q 19.40625 13 22.5 9.953125 
Q 25.59375 6.90625 30.09375 6.90625 
Q 34.5 6.90625 37.546875 9.953125 
Q 40.59375 13 40.59375 17.40625 
L 40.59375 28.796875 
Q 40.59375 33.203125 37.5 36.25 
Q 34.40625 39.296875 29.796875 39.296875 
Q 27.703125 39.296875 25.796875 38.4375 
Q 23.90625 37.59375 23.09375 36.890625 
Q 22.296875 36.203125 21.90625 35.59375 
z
" id="DecimaMonoPro-35"/>
      </defs>
      <g style="fill:#303030;" transform="translate(1657.761873 1197.613125)scale(0.14 -0.14)">
       <use xlink:href="#DecimaMonoPro-35"/>
       <use x="59.999985" xlink:href="#DecimaMonoPro-30"/>
      </g>
     </g>
    </g>
    <g id="xtick_3">
     <g id="line2d_5">
      <path clip-path="url(#p08db5e49b1)" d="M 2554.723746 1180.8 
L 2554.723746 216 
" style="fill:none;stroke:#b0b0b0;stroke-linecap:square;stroke-width:0.8;"/>
     </g>
     <g id="line2d_6">
      <g>
       <use style="stroke:#000000;stroke-width:0.8;" x="2554.723746" xlink:href="#m00b336081f" y="1180.8"/>
      </g>
     </g>
     <g id="text_3">
      <!-- 100 -->
      <defs>
       <path d="M 13.90625 68.203125 
L 25.203125 70 
L 32.296875 70 
Q 33 70 33.546875 69.5 
Q 34.09375 69 34.09375 68.203125 
L 34.09375 7.703125 
L 47.296875 7.703125 
Q 48 7.703125 48.546875 7.140625 
Q 49.09375 6.59375 49.09375 5.90625 
L 49.09375 1.796875 
Q 49.09375 1 48.546875 0.5 
Q 48 0 47.296875 0 
L 12.59375 0 
Q 11.796875 0 11.296875 0.5 
Q 10.796875 1 10.796875 1.796875 
L 10.796875 5.90625 
Q 10.796875 6.59375 11.296875 7.140625 
Q 11.796875 7.703125 12.59375 7.703125 
L 25.703125 7.703125 
L 25.703125 62.09375 
L 14.703125 60.40625 
L 14.40625 60.40625 
Q 14 60.296875 13.5 60.296875 
Q 12.09375 60.296875 12.09375 62.09375 
L 12.09375 66.296875 
Q 12.09375 67.796875 13.90625 68.203125 
z
" id="DecimaMonoPro-31"/>
      </defs>
      <g style="fill:#303030;" transform="translate(2542.123746 1197.613125)scale(0.14 -0.14)">
       <use xlink:href="#DecimaMonoPro-31"/>
       <use x="59.999985" xlink:href="#DecimaMonoPro-30"/>
       <use x="119.999969" xlink:href="#DecimaMonoPro-30"/>
      </g>
     </g>
    </g>
    <g id="xtick_4">
     <g id="line2d_7">
      <path clip-path="url(#p08db5e49b1)" d="M 3443.285619 1180.8 
L 3443.285619 216 
" style="fill:none;stroke:#b0b0b0;stroke-linecap:square;stroke-width:0.8;"/>
     </g>
     <g id="line2d_8">
      <g>
       <use style="stroke:#000000;stroke-width:0.8;" x="3443.285619" xlink:href="#m00b336081f" y="1180.8"/>
      </g>
     </g>
     <g id="text_4">
      <!-- 150 -->
      <g style="fill:#303030;" transform="translate(3430.685619 1197.613125)scale(0.14 -0.14)">
       <use xlink:href="#DecimaMonoPro-31"/>
       <use x="59.999985" xlink:href="#DecimaMonoPro-35"/>
       <use x="119.999969" xlink:href="#DecimaMonoPro-30"/>
      </g>
     </g>
    </g>
    <g id="xtick_5">
     <g id="line2d_9">
      <path clip-path="url(#p08db5e49b1)" d="M 4331.847492 1180.8 
L 4331.847492 216 
" style="fill:none;stroke:#b0b0b0;stroke-linecap:square;stroke-width:0.8;"/>
     </g>
     <g id="line2d_10">
      <g>
       <use style="stroke:#000000;stroke-width:0.8;" x="4331.847492" xlink:href="#m00b336081f" y="1180.8"/>
      </g>
     </g>
     <g id="text_5">
      <!-- 200 -->
      <defs>
       <path d="M 11.703125 53 
Q 11.703125 59.703125 17.203125 65.34375 
Q 22.703125 71 30.59375 71 
Q 38.40625 71 43.796875 65.75 
Q 49.203125 60.5 49.203125 52.703125 
Q 49.203125 46.90625 46.09375 41.75 
Q 43 36.59375 38.59375 32.84375 
Q 34.203125 29.09375 29.796875 25.4375 
Q 25.40625 21.796875 22.296875 17.296875 
Q 19.203125 12.796875 19.203125 7.796875 
L 47.40625 7.796875 
Q 48.203125 7.796875 48.703125 7.296875 
Q 49.203125 6.796875 49.203125 6 
L 49.203125 1.796875 
Q 49.203125 1 48.703125 0.5 
Q 48.203125 0 47.40625 0 
L 12.59375 0 
Q 11.796875 0 11.296875 0.5 
Q 10.796875 1 10.796875 1.796875 
L 10.796875 7.296875 
Q 10.796875 13.90625 13.890625 19.453125 
Q 17 25 21.390625 28.890625 
Q 25.796875 32.796875 30.1875 36.390625 
Q 34.59375 40 37.6875 44.296875 
Q 40.796875 48.59375 40.796875 53.296875 
Q 40.796875 57.40625 37.75 60.25 
Q 34.703125 63.09375 30.5 63.09375 
Q 26.09375 63.09375 23.1875 59.6875 
Q 20.296875 56.296875 20.09375 53 
Q 19.90625 51 17.796875 51 
L 14 51 
Q 12.90625 51 12.296875 51.59375 
Q 11.703125 52.203125 11.703125 53 
z
" id="DecimaMonoPro-32"/>
      </defs>
      <g style="fill:#303030;" transform="translate(4319.247492 1197.613125)scale(0.14 -0.14)">
       <use xlink:href="#DecimaMonoPro-32"/>
       <use x="59.999985" xlink:href="#DecimaMonoPro-30"/>
       <use x="119.999969" xlink:href="#DecimaMonoPro-30"/>
      </g>
     </g>
    </g>
    <g id="xtick_6">
     <g id="line2d_11">
      <path clip-path="url(#p08db5e49b1)" d="M 5220.409365 1180.8 
L 5220.409365 216 
" style="fill:none;stroke:#b0b0b0;stroke-linecap:square;stroke-width:0.8;"/>
     </g>
     <g id="line2d_12">
      <g>
       <use style="stroke:#000000;stroke-width:0.8;" x="5220.409365" xlink:href="#m00b336081f" y="1180.8"/>
      </g>
     </g>
     <g id="text_6">
      <!-- 250 -->
      <g style="fill:#303030;" transform="translate(5207.809365 1197.613125)scale(0.14 -0.14)">
       <use xlink:href="#DecimaMonoPro-32"/>
       <use x="59.999985" xlink:href="#DecimaMonoPro-35"/>
       <use x="119.999969" xlink:href="#DecimaMonoPro-30"/>
      </g>
     </g>
    </g>
    <g id="text_7">
     <!-- x -->
     <defs>
      <path d="M 3.59375 50.40625 
L 13.09375 50.40625 
L 22.90625 34.40625 
L 32.703125 50.40625 
L 42.203125 50.40625 
L 27.59375 26.59375 
L 44 0 
L 34.5 0 
L 22.90625 18.90625 
L 11.296875 0 
L 1.796875 0 
L 18.203125 26.59375 
z
" id="Apercu-78"/>
     </defs>
     <g style="opacity:0.75;" transform="translate(3431.194219 1214.044688)scale(0.14 -0.14)">
      <use xlink:href="#Apercu-78"/>
     </g>
    </g>
   </g>
   <g id="matplotlib.axis_2">
    <g id="ytick_1">
     <g id="line2d_13">
      <path clip-path="url(#p08db5e49b1)" d="M 777.6 1136.945455 
L 6091.2 1136.945455 
" style="fill:none;stroke:#b0b0b0;stroke-linecap:square;stroke-width:0.8;"/>
     </g>
     <g id="line2d_14">
      <defs>
       <path d="M 0 0 
L -3.5 0 
" id="m5edbd1d696" style="stroke:#000000;stroke-width:0.8;"/>
      </defs>
      <g>
       <use style="stroke:#000000;stroke-width:0.8;" x="777.6" xlink:href="#m5edbd1d696" y="1136.945455"/>
      </g>
     </g>
     <g id="text_8">
      <!-- 0 -->
      <g style="fill:#303030;" transform="translate(762.2 1141.852017)scale(0.14 -0.14)">
       <use xlink:href="#DecimaMonoPro-30"/>
      </g>
     </g>
    </g>
    <g id="ytick_2">
     <g id="line2d_15">
      <path clip-path="url(#p08db5e49b1)" d="M 777.6 932.980495 
L 6091.2 932.980495 
" style="fill:none;stroke:#b0b0b0;stroke-linecap:square;stroke-width:0.8;"/>
     </g>
     <g id="line2d_16">
      <g>
       <use style="stroke:#000000;stroke-width:0.8;" x="777.6" xlink:href="#m5edbd1d696" y="932.980495"/>
      </g>
     </g>
     <g id="text_9">
      <!-- 1 -->
      <g style="fill:#303030;" transform="translate(762.2 937.887058)scale(0.14 -0.14)">
       <use xlink:href="#DecimaMonoPro-31"/>
      </g>
     </g>
    </g>
    <g id="ytick_3">
     <g id="line2d_17">
      <path clip-path="url(#p08db5e49b1)" d="M 777.6 729.015535 
L 6091.2 729.015535 
" style="fill:none;stroke:#b0b0b0;stroke-linecap:square;stroke-width:0.8;"/>
     </g>
     <g id="line2d_18">
      <g>
       <use style="stroke:#000000;stroke-width:0.8;" x="777.6" xlink:href="#m5edbd1d696" y="729.015535"/>
      </g>
     </g>
     <g id="text_10">
      <!-- 2 -->
      <g style="fill:#303030;" transform="translate(762.2 733.922098)scale(0.14 -0.14)">
       <use xlink:href="#DecimaMonoPro-32"/>
      </g>
     </g>
    </g>
    <g id="ytick_4">
     <g id="line2d_19">
      <path clip-path="url(#p08db5e49b1)" d="M 777.6 525.050576 
L 6091.2 525.050576 
" style="fill:none;stroke:#b0b0b0;stroke-linecap:square;stroke-width:0.8;"/>
     </g>
     <g id="line2d_20">
      <g>
       <use style="stroke:#000000;stroke-width:0.8;" x="777.6" xlink:href="#m5edbd1d696" y="525.050576"/>
      </g>
     </g>
     <g id="text_11">
      <!-- 3 -->
      <defs>
       <path d="M 46.203125 61.09375 
L 35.40625 47.09375 
Q 40.796875 46.40625 44.890625 41.953125 
Q 49 37.5 49 31.5 
L 49 17.5 
Q 49 9.796875 43.5 4.390625 
Q 38 -1 30 -1 
Q 21.796875 -1 16.34375 4.34375 
Q 10.90625 9.703125 10.90625 17.40625 
Q 10.90625 18.203125 11.5 18.796875 
Q 12.09375 19.40625 13.203125 19.40625 
L 17 19.40625 
Q 19.09375 19.40625 19.296875 17.40625 
Q 19.296875 13 22.390625 9.953125 
Q 25.5 6.90625 30 6.90625 
Q 34.40625 6.90625 37.5 9.953125 
Q 40.59375 13 40.59375 17.40625 
L 40.59375 31.40625 
Q 40.59375 34.59375 38.296875 36.9375 
Q 36 39.296875 32.703125 39.296875 
L 27.40625 39.296875 
Q 25.203125 39.296875 25.203125 41.59375 
L 25.203125 45 
Q 25.203125 46.703125 26.296875 48.203125 
L 36.59375 62.09375 
L 16.90625 62.09375 
Q 14.703125 62.09375 14.703125 64.40625 
L 14.703125 67.703125 
Q 14.703125 70 16.90625 70 
L 45.09375 70 
Q 47.296875 70 47.296875 67.703125 
L 47.296875 64.296875 
Q 47.296875 62.59375 46.203125 61.09375 
z
" id="DecimaMonoPro-33"/>
      </defs>
      <g style="fill:#303030;" transform="translate(762.2 529.957138)scale(0.14 -0.14)">
       <use xlink:href="#DecimaMonoPro-33"/>
      </g>
     </g>
    </g>
    <g id="ytick_5">
     <g id="line2d_21">
      <path clip-path="url(#p08db5e49b1)" d="M 777.6 321.085616 
L 6091.2 321.085616 
" style="fill:none;stroke:#b0b0b0;stroke-linecap:square;stroke-width:0.8;"/>
     </g>
     <g id="line2d_22">
      <g>
       <use style="stroke:#000000;stroke-width:0.8;" x="777.6" xlink:href="#m5edbd1d696" y="321.085616"/>
      </g>
     </g>
     <g id="text_12">
      <!-- 4 -->
      <defs>
       <path d="M 40.09375 67.5 
L 19.5 22.90625 
L 35.796875 22.90625 
L 35.796875 38.90625 
Q 35.796875 39.703125 36.390625 40.296875 
Q 37 40.90625 38.09375 40.90625 
L 42.203125 40.90625 
Q 43 40.90625 43.59375 40.25 
Q 44.203125 39.59375 44.203125 38.90625 
L 44.203125 22.90625 
L 48 22.90625 
Q 48.796875 22.90625 49.390625 22.296875 
Q 50 21.703125 50 20.59375 
L 50 17.40625 
Q 50 16.296875 49.390625 15.6875 
Q 48.796875 15.09375 48 15.09375 
L 44.203125 15.09375 
L 44.203125 2 
Q 44.203125 1.203125 43.59375 0.59375 
Q 43 0 42.203125 0 
L 38.09375 0 
Q 37 0 36.390625 0.59375 
Q 35.796875 1.203125 35.796875 2 
L 35.796875 15.09375 
L 12.09375 15.09375 
Q 9.90625 15.09375 9.90625 17.40625 
L 9.90625 21.296875 
Q 9.90625 22.5 11 24.703125 
L 31.296875 68 
Q 32.296875 70 34 70 
L 38.796875 70 
Q 40.5 70 40.5 68.796875 
Q 40.5 68.5 40.09375 67.5 
z
" id="DecimaMonoPro-34"/>
      </defs>
      <g style="fill:#303030;" transform="translate(762.2 325.992179)scale(0.14 -0.14)">
       <use xlink:href="#DecimaMonoPro-34"/>
      </g>
     </g>
    </g>
    <g id="text_13">
     <!-- P -->
     <defs>
      <path d="M 34.09375 30 
L 18.5 30 
L 18.5 0 
L 9.703125 0 
L 9.703125 70 
L 34.09375 70 
Q 43.90625 70 49.40625 64.59375 
Q 54.90625 59.203125 54.90625 50 
Q 54.90625 40.796875 49.40625 35.390625 
Q 43.90625 30 34.09375 30 
z
M 34.59375 38.40625 
Q 40 38.40625 42.890625 41.40625 
Q 45.796875 44.40625 45.796875 50 
Q 45.796875 55.59375 42.890625 58.59375 
Q 40 61.59375 34.59375 61.59375 
L 18.5 61.59375 
L 18.5 38.40625 
z
" id="Apercu-50"/>
     </defs>
     <g style="opacity:0.75;" transform="translate(755.343125 702.488438)rotate(-90)scale(0.14 -0.14)">
      <use xlink:href="#Apercu-50"/>
     </g>
    </g>
   </g>
   <g id="line2d_23">
    <path clip-path="url(#p08db5e49b1)" d="M 777.6 578.412287 
L 830.913712 577.962371 
L 848.68495 577.714849 
L 866.456187 576.834907 
L 884.227425 577.03555 
L 901.998662 576.908045 
L 919.7699 576.528252 
L 937.541137 576.642579 
L 955.312375 576.158234 
L 973.083612 576.123658 
L 990.854849 575.831009 
L 1008.626087 575.957639 
L 1026.397324 575.772849 
L 1044.168562 575.774745 
L 1061.939799 575.427242 
L 1079.711037 575.665135 
L 1097.482274 575.760886 
L 1115.253512 575.732487 
L 1133.024749 575.917325 
L 1186.338462 575.935464 
L 1221.880936 575.46668 
L 1239.652174 575.603717 
L 1257.423411 575.274547 
L 1275.194649 575.687942 
L 1292.965886 575.049832 
L 1328.508361 575.238999 
L 1346.279599 575.099045 
L 1364.050836 574.749062 
L 1381.822074 574.983988 
L 1399.593311 574.688324 
L 1417.364548 574.593692 
L 1435.135786 574.622286 
L 1452.907023 573.949454 
L 1470.678261 574.365378 
L 1541.763211 573.761649 
L 1559.534448 573.402669 
L 1577.305686 573.334783 
L 1595.076923 573.004106 
L 1612.848161 572.357486 
L 1630.619398 572.155626 
L 1648.390635 571.789596 
L 1666.161873 571.788283 
L 1683.93311 572.02462 
L 1719.475585 571.909709 
L 1737.246823 571.550924 
L 1772.789298 571.874891 
L 1790.560535 571.922596 
L 1808.331773 572.2807 
L 1879.416722 572.015915 
L 1897.18796 572.293733 
L 1914.959197 571.894634 
L 1932.730435 572.534155 
L 1950.501672 572.537267 
L 1968.27291 572.707274 
L 1986.044147 572.208827 
L 2003.815385 572.786831 
L 2057.129097 573.124706 
L 2074.900334 573.071165 
L 2092.671572 573.56757 
L 2110.442809 573.507125 
L 2145.985284 574.531203 
L 2163.756522 574.741378 
L 2181.527759 574.732041 
L 2199.298997 575.151126 
L 2217.070234 575.292929 
L 2234.841472 575.600507 
L 2252.612709 576.426374 
L 2288.155184 577.021837 
L 2323.697659 576.607712 
L 2341.468896 576.871719 
L 2359.240134 576.961974 
L 2394.782609 577.78823 
L 2448.096321 578.031473 
L 2465.867559 578.197492 
L 2501.410033 578.834922 
L 2519.181271 578.405819 
L 2536.952508 579.102868 
L 2590.266221 580.022637 
L 2608.037458 580.127725 
L 2625.808696 579.946241 
L 2679.122408 578.728132 
L 2696.893645 578.713057 
L 2714.664883 578.255701 
L 2785.749833 577.911019 
L 2803.52107 577.787501 
L 2821.292308 578.200507 
L 2839.063545 578.440735 
L 2874.60602 578.586427 
L 2892.377258 578.44978 
L 2910.148495 578.636175 
L 2927.919732 578.46573 
L 2945.69097 578.659857 
L 2963.462207 578.504974 
L 2981.233445 578.473024 
L 2999.004682 578.780652 
L 3052.318395 578.619349 
L 3070.089632 578.862251 
L 3105.632107 579.003908 
L 3123.403344 579.168322 
L 3141.174582 579.115852 
L 3158.945819 579.803369 
L 3194.488294 579.752211 
L 3212.259532 579.728237 
L 3230.030769 580.108613 
L 3247.802007 580.075837 
L 3265.573244 580.187052 
L 3301.115719 580.700964 
L 3318.886957 580.753921 
L 3336.658194 580.435692 
L 3354.429431 580.845976 
L 3372.200669 581.051871 
L 3389.971906 581.397964 
L 3407.743144 581.291952 
L 3425.514381 581.370342 
L 3443.285619 580.94654 
L 3496.599331 581.667223 
L 3514.370569 581.50096 
L 3532.141806 581.490651 
L 3549.913043 581.260538 
L 3567.684281 580.869561 
L 3585.455518 581.319185 
L 3620.997993 581.24804 
L 3638.769231 581.058776 
L 3656.540468 580.997406 
L 3674.311706 580.712586 
L 3692.082943 580.945811 
L 3709.854181 580.75927 
L 3727.625418 581.016712 
L 3745.396656 580.50387 
L 3763.167893 580.297051 
L 3780.93913 579.876847 
L 3798.710368 579.758679 
L 3816.481605 579.386375 
L 3852.02408 579.075101 
L 3869.795318 578.722783 
L 3887.566555 578.780944 
L 3905.337793 578.684609 
L 3923.10903 578.906212 
L 3940.880268 578.535221 
L 3958.651505 578.444771 
L 4029.736455 577.206141 
L 4047.507692 577.758761 
L 4065.27893 577.571928 
L 4083.050167 577.699531 
L 4118.592642 577.21042 
L 4136.36388 577.457164 
L 4154.135117 577.15012 
L 4171.906355 577.308067 
L 4242.991304 577.319738 
L 4260.762542 577.890984 
L 4278.533779 577.781325 
L 4296.305017 577.417726 
L 4331.847492 577.965046 
L 4349.618729 577.923225 
L 4385.161204 577.350958 
L 4402.932441 576.858443 
L 4420.703679 577.041775 
L 4438.474916 577.005303 
L 4474.017391 577.321635 
L 4491.788629 577.345171 
L 4509.559866 577.885877 
L 4527.331104 577.885683 
L 4545.102341 578.116039 
L 4562.873579 578.205905 
L 4580.644816 578.5998 
L 4598.416054 578.773746 
L 4616.187291 579.130684 
L 4633.958528 579.695558 
L 4651.729766 579.890366 
L 4669.501003 580.399901 
L 4687.272241 580.622914 
L 4740.585953 581.849144 
L 4758.357191 582.169852 
L 4776.128428 582.363445 
L 4793.899666 582.36111 
L 4811.670903 582.644472 
L 4900.52709 582.397874 
L 4918.298328 582.597107 
L 4936.069565 582.515702 
L 5078.239465 583.098132 
L 5096.010702 582.916259 
L 5113.78194 582.942519 
L 5131.553177 582.659595 
L 5149.324415 582.570799 
L 5167.095652 582.611258 
L 5184.86689 581.775422 
L 5202.638127 582.059367 
L 5220.409365 581.735838 
L 5238.180602 581.646604 
L 5255.951839 581.702819 
L 5273.723077 581.880461 
L 5291.494314 581.929965 
L 5309.265552 582.160905 
L 5327.036789 581.996198 
L 5344.808027 581.961671 
L 5362.579264 582.047502 
L 5380.350502 581.957976 
L 5415.892977 582.169172 
L 5433.664214 582.097201 
L 5469.206689 582.395053 
L 5486.977926 582.19407 
L 5504.749164 582.155458 
L 5522.520401 581.839807 
L 5540.291639 581.860183 
L 5558.062876 581.60099 
L 5575.834114 581.620831 
L 5593.605351 581.441827 
L 5611.376589 581.454179 
L 5629.147826 581.18385 
L 5646.919064 581.166052 
L 5664.690301 581.266811 
L 5682.461538 581.240357 
L 5700.232776 581.676122 
L 5718.004013 581.093595 
L 5735.775251 581.295745 
L 5753.546488 580.895431 
L 5771.317726 581.182148 
L 5789.088963 581.070982 
L 5806.860201 581.17748 
L 5842.402676 581.161238 
L 5860.173913 581.193722 
L 5895.716388 581.590048 
L 5949.0301 582.171943 
L 5966.801338 582.247124 
L 5984.572575 581.297496 
L 6002.343813 581.04623 
L 6020.11505 581.326576 
L 6037.886288 581.029988 
L 6055.657525 581.09661 
L 6073.428763 580.829101 
L 6091.2 580.695517 
L 6091.2 580.695517 
" style="fill:none;stroke:#000004;stroke-width:3;"/>
   </g>
   <g id="line2d_24">
    <path clip-path="url(#p08db5e49b1)" d="M 777.6 291.457679 
L 795.371237 290.626017 
L 813.142475 289.586441 
L 830.913712 290.729975 
L 848.68495 292.601213 
L 866.456187 289.690398 
L 884.227425 289.482483 
L 901.998662 289.586441 
L 919.7699 288.442906 
L 955.312375 288.338949 
L 973.083612 288.650822 
L 1044.168562 288.754779 
L 1061.939799 292.705171 
L 1079.711037 293.121002 
L 1097.482274 294.056621 
L 1115.253512 302.373235 
L 1133.024749 303.9326 
L 1150.795987 302.789065 
L 1168.567224 303.9326 
L 1186.338462 305.28405 
L 1221.880936 301.021785 
L 1239.652174 301.957404 
L 1257.423411 307.05133 
L 1275.194649 308.194865 
L 1310.737124 302.165319 
L 1328.508361 304.244473 
L 1346.279599 306.739457 
L 1364.050836 304.660304 
L 1381.822074 304.972177 
L 1399.593311 304.972177 
L 1435.135786 304.452388 
L 1452.907023 305.180092 
L 1470.678261 304.660304 
L 1488.449498 304.660304 
L 1506.220736 305.595923 
L 1523.991973 306.323626 
L 1541.763211 306.635499 
L 1559.534448 306.427584 
L 1577.305686 305.907796 
L 1595.076923 306.115711 
L 1612.848161 303.308854 
L 1630.619398 305.180092 
L 1648.390635 303.724685 
L 1666.161873 304.660304 
L 1683.93311 304.452388 
L 1701.704348 303.100939 
L 1719.475585 300.501997 
L 1737.246823 294.784324 
L 1755.01806 288.858737 
L 1772.789298 286.987499 
L 1790.560535 290.626017 
L 1808.331773 291.249763 
L 1826.10301 291.561637 
L 1843.874247 291.457679 
L 1861.645485 289.066652 
L 1879.416722 288.754779 
L 1897.18796 286.46771 
L 1914.959197 287.299372 
L 1950.501672 286.883541 
L 1968.27291 284.388557 
L 1986.044147 282.413361 
L 2003.815385 283.141065 
L 2021.586622 281.893573 
L 2039.35786 278.047139 
L 2057.129097 272.017594 
L 2074.900334 264.636599 
L 2092.671572 260.062461 
L 2110.442809 259.854545 
L 2128.214047 268.794906 
L 2145.985284 268.690948 
L 2163.756522 268.067202 
L 2181.527759 271.913636 
L 2199.298997 277.11152 
L 2217.070234 285.428134 
L 2234.841472 279.710461 
L 2270.383946 280.853996 
L 2288.155184 283.037107 
L 2305.926421 282.413361 
L 2323.697659 282.725234 
L 2341.468896 281.789615 
L 2359.240134 286.155837 
L 2377.011371 281.99753 
L 2394.782609 282.309403 
L 2412.553846 286.46771 
L 2430.325084 283.972726 
L 2448.096321 284.284599 
L 2465.867559 284.388557 
L 2483.638796 284.284599 
L 2501.410033 287.091456 
L 2519.181271 287.091456 
L 2554.723746 289.066652 
L 2572.494983 288.234991 
L 2590.266221 287.923118 
L 2608.037458 288.962695 
L 2625.808696 287.507287 
L 2643.579933 284.076684 
L 2679.122408 282.309403 
L 2696.893645 280.022335 
L 2714.664883 279.086715 
L 2767.978595 279.190673 
L 2785.749833 277.11152 
L 2803.52107 275.344239 
L 2821.292308 275.864027 
L 2839.063545 276.071943 
L 2856.834783 276.799647 
L 2874.60602 274.928408 
L 2892.377258 268.794906 
L 2910.148495 268.17116 
L 2927.919732 269.418652 
L 2945.69097 270.978017 
L 2981.233445 268.898863 
L 2999.004682 268.690948 
L 3016.77592 269.210736 
L 3034.547157 267.755329 
L 3052.318395 267.755329 
L 3070.089632 267.547413 
L 3087.86087 269.418652 
L 3105.632107 269.93844 
L 3123.403344 268.275117 
L 3141.174582 269.834482 
L 3158.945819 271.913636 
L 3176.717057 270.874059 
L 3194.488294 268.17116 
L 3212.259532 267.859286 
L 3230.030769 264.012852 
L 3247.802007 264.532641 
L 3265.573244 264.844514 
L 3283.344482 267.027625 
L 3318.886957 267.755329 
L 3336.658194 268.17116 
L 3354.429431 268.379075 
L 3372.200669 268.379075 
L 3425.514381 269.314694 
L 3443.285619 276.799647 
L 3461.056856 278.359012 
L 3478.828094 278.670885 
L 3496.599331 281.99753 
L 3514.370569 280.022335 
L 3532.141806 280.334208 
L 3549.913043 280.23025 
L 3567.684281 279.190673 
L 3585.455518 279.086715 
L 3603.226756 279.190673 
L 3620.997993 280.126292 
L 3638.769231 286.675626 
L 3656.540468 287.611245 
L 3674.311706 290.210187 
L 3692.082943 297.903055 
L 3709.854181 294.784324 
L 3727.625418 290.626017 
L 3745.396656 282.309403 
L 3763.167893 279.398588 
L 3780.93913 279.190673 
L 3798.710368 275.864027 
L 3816.481605 272.017594 
L 3834.252843 271.497805 
L 3852.02408 275.552154 
L 3869.795318 277.423393 
L 3887.566555 282.309403 
L 3905.337793 285.324176 
L 3923.10903 287.715203 
L 3940.880268 288.027076 
L 3958.651505 288.027076 
L 3976.422742 288.546864 
L 3994.19398 289.690398 
L 4011.965217 290.106229 
L 4065.27893 289.794356 
L 4083.050167 292.809129 
L 4100.821405 290.93789 
L 4118.592642 289.690398 
L 4136.36388 289.066652 
L 4154.135117 286.259795 
L 4171.906355 282.829192 
L 4189.677592 282.621276 
L 4207.448829 278.151096 
L 4225.220067 278.151096 
L 4242.991304 275.240281 
L 4260.762542 276.799647 
L 4278.533779 272.64134 
L 4296.305017 272.953213 
L 4314.076254 272.953213 
L 4331.847492 272.64134 
L 4367.389967 272.537382 
L 4385.161204 272.849255 
L 4402.932441 272.433424 
L 4420.703679 272.849255 
L 4438.474916 272.64134 
L 4456.246154 272.64134 
L 4474.017391 272.953213 
L 4491.788629 272.953213 
L 4527.331104 272.64134 
L 4545.102341 266.715752 
L 4562.873579 267.859286 
L 4580.644816 266.195964 
L 4598.416054 268.275117 
L 4616.187291 266.923667 
L 4633.958528 269.106779 
L 4651.729766 268.58699 
L 4669.501003 272.953213 
L 4687.272241 275.136324 
L 4705.043478 275.136324 
L 4740.585953 277.007562 
L 4758.357191 277.007562 
L 4776.128428 277.735266 
L 4793.899666 277.11152 
L 4811.670903 275.032366 
L 4829.44214 274.304662 
L 4847.213378 274.200705 
L 4864.984615 273.576959 
L 4882.755853 273.265086 
L 4900.52709 268.794906 
L 4918.298328 266.81971 
L 4953.840803 266.715752 
L 4971.61204 266.715752 
L 4989.383278 267.963244 
L 5007.154515 268.067202 
L 5024.925753 269.834482 
L 5042.69699 269.93844 
L 5060.468227 271.497805 
L 5078.239465 273.992789 
L 5096.010702 274.824451 
L 5113.78194 274.720493 
L 5131.553177 278.047139 
L 5149.324415 277.839223 
L 5167.095652 275.344239 
L 5184.86689 275.864027 
L 5202.638127 276.071943 
L 5220.409365 276.071943 
L 5238.180602 277.11152 
L 5255.951839 277.215477 
L 5273.723077 277.631308 
L 5291.494314 277.52735 
L 5309.265552 279.502546 
L 5327.036789 280.957954 
L 5344.808027 280.646081 
L 5362.579264 280.022335 
L 5380.350502 278.151096 
L 5398.121739 277.735266 
L 5415.892977 277.11152 
L 5433.664214 275.76007 
L 5451.435452 270.874059 
L 5469.206689 273.369043 
L 5486.977926 273.369043 
L 5504.749164 271.913636 
L 5540.291639 271.809678 
L 5558.062876 271.70572 
L 5575.834114 272.745297 
L 5593.605351 272.953213 
L 5611.376589 279.190673 
L 5629.147826 277.215477 
L 5646.919064 279.190673 
L 5682.461538 279.294631 
L 5700.232776 279.190673 
L 5718.004013 279.294631 
L 5735.775251 277.943181 
L 5753.546488 273.992789 
L 5771.317726 274.824451 
L 5789.088963 274.40862 
L 5806.860201 274.512578 
L 5824.631438 274.928408 
L 5842.402676 277.215477 
L 5877.945151 277.11152 
L 5895.716388 275.032366 
L 5913.487625 277.007562 
L 5931.258863 275.136324 
L 5949.0301 276.071943 
L 5966.801338 278.047139 
L 5984.572575 276.799647 
L 6002.343813 273.161128 
L 6020.11505 278.047139 
L 6037.886288 279.398588 
L 6055.657525 280.126292 
L 6073.428763 281.269827 
L 6091.2 281.269827 
L 6091.2 281.269827 
" style="fill:none;stroke:#b73779;stroke-width:3;"/>
   </g>
   <g id="line2d_25">
    <path clip-path="url(#p08db5e49b1)" d="M 777.6 1136.945455 
L 6091.2 1136.945455 
" style="fill:none;opacity:0.7;stroke:#000000;stroke-width:1.3;"/>
   </g>
   <g id="patch_3">
    <path d="M 777.6 1180.8 
L 777.6 216 
" style="fill:none;stroke:#000000;stroke-linecap:square;stroke-linejoin:miter;stroke-width:0.8;"/>
   </g>
   <g id="patch_4">
    <path d="M 6091.2 1180.8 
L 6091.2 216 
" style="fill:none;stroke:#000000;stroke-linecap:square;stroke-linejoin:miter;stroke-width:0.8;"/>
   </g>
   <g id="patch_5">
    <path d="M 777.6 1180.8 
L 6091.2 1180.8 
" style="fill:none;stroke:#000000;stroke-linecap:square;stroke-linejoin:miter;stroke-width:0.8;"/>
   </g>
   <g id="patch_6">
    <path d="M 777.6 216 
L 6091.2 216 
" style="fill:none;stroke:#000000;stroke-linecap:square;stroke-linejoin:miter;stroke-width:0.8;"/>
   </g>
   <g id="patch_7">
    <path d="M 0 1440 
L 6480 1440 
L 6480 1416.729153 
L 0 1416.729153 
z
" style="fill:#808080;"/>
   </g>
   <g id="text_14">
    <!-- ©spred -->
    <defs>
     <path d="M 50.90625 25.90625 
L 50.90625 44 
Q 50.90625 52.40625 44.75 58.40625 
Q 38.59375 64.40625 30 64.40625 
Q 21.296875 64.40625 15.09375 58.40625 
Q 8.90625 52.40625 8.90625 44 
L 8.90625 25.90625 
Q 8.90625 17.5 15.09375 11.453125 
Q 21.296875 5.40625 30 5.40625 
Q 38.59375 5.40625 44.75 11.453125 
Q 50.90625 17.5 50.90625 25.90625 
z
M 57.703125 43.203125 
L 57.703125 26.59375 
Q 57.703125 15.203125 49.59375 7.09375 
Q 41.5 -1 30 -1 
Q 18.40625 -1 10.296875 7.09375 
Q 2.203125 15.203125 2.203125 26.59375 
L 2.203125 43.203125 
Q 2.203125 54.59375 10.296875 62.6875 
Q 18.40625 70.796875 30 70.796875 
Q 41.5 70.796875 49.59375 62.6875 
Q 57.703125 54.59375 57.703125 43.203125 
z
M 38.59375 29.40625 
L 41.40625 29.40625 
Q 42.40625 29.40625 42.90625 28.84375 
Q 43.40625 28.296875 43.40625 27.59375 
Q 43.40625 21.59375 39.796875 17.9375 
Q 36.203125 14.296875 30.40625 14.296875 
Q 24.40625 14.296875 20.75 17.9375 
Q 17.09375 21.59375 17.09375 27.09375 
L 17.09375 43.40625 
Q 17.09375 48.703125 20.75 52.390625 
Q 24.40625 56.09375 30.40625 56.09375 
Q 35.90625 56.09375 39.40625 52.25 
Q 42.90625 48.40625 42.90625 42.296875 
Q 42.90625 41.59375 42.40625 41.046875 
Q 41.90625 40.5 40.90625 40.5 
L 38.09375 40.5 
Q 37.09375 40.5 36.546875 41.046875 
Q 36 41.59375 36 42.296875 
Q 36 45.203125 34.390625 47.046875 
Q 32.796875 48.90625 30.40625 48.90625 
Q 27.703125 48.90625 25.796875 46.90625 
Q 23.90625 44.90625 23.90625 42.203125 
L 23.90625 28.203125 
Q 23.90625 25.59375 25.796875 23.59375 
Q 27.703125 21.59375 30.40625 21.59375 
Q 32.90625 21.59375 34.703125 23.1875 
Q 36.5 24.796875 36.5 27.59375 
Q 36.5 28.296875 37.046875 28.84375 
Q 37.59375 29.40625 38.59375 29.40625 
z
" id="DecimaMonoPro-a9"/>
     <path d="M 30.09375 -1 
Q 25.296875 -1 21.546875 0.59375 
Q 17.796875 2.203125 15.84375 4.59375 
Q 13.90625 7 12.953125 9.390625 
Q 12 11.796875 12 14 
Q 12 14.796875 12.5 15.296875 
Q 13 15.796875 13.796875 15.796875 
L 18.296875 15.796875 
Q 19.90625 15.796875 20.09375 14.09375 
Q 20.40625 11.203125 22.796875 8.703125 
Q 25.203125 6.203125 30.09375 6.203125 
Q 34.296875 6.203125 36.890625 8.296875 
Q 39.5 10.40625 39.5 13.59375 
Q 39.5 16.5 36.84375 18.5 
Q 34.203125 20.5 30.390625 21.84375 
Q 26.59375 23.203125 22.84375 24.796875 
Q 19.09375 26.40625 16.4375 29.5 
Q 13.796875 32.59375 13.796875 37.09375 
Q 13.796875 43.296875 18.4375 47.140625 
Q 23.09375 51 30.703125 51 
Q 38.90625 51 43.25 46.5 
Q 47.59375 42 47.59375 37.5 
Q 47.59375 36.796875 47.09375 36.25 
Q 46.59375 35.703125 45.796875 35.703125 
L 41.203125 35.703125 
Q 39.703125 35.703125 39.40625 37.40625 
Q 38.90625 40 36.75 41.890625 
Q 34.59375 43.796875 30.703125 43.796875 
Q 26.90625 43.796875 24.546875 42.09375 
Q 22.203125 40.40625 22.203125 37.703125 
Q 22.203125 35 24.84375 33.09375 
Q 27.5 31.203125 31.25 29.890625 
Q 35 28.59375 38.703125 26.9375 
Q 42.40625 25.296875 45.046875 21.84375 
Q 47.703125 18.40625 47.703125 13.40625 
Q 47.703125 7.40625 42.59375 3.203125 
Q 37.5 -1 30.09375 -1 
z
" id="DecimaMonoPro-73"/>
     <path d="M 42.09375 17.09375 
L 42.09375 33.09375 
Q 42.09375 37.703125 38.84375 40.796875 
Q 35.59375 43.90625 30.5 43.90625 
Q 25.40625 43.90625 22.046875 40.75 
Q 18.703125 37.59375 18.703125 33 
L 18.703125 17.09375 
Q 18.703125 12.5 22.046875 9.390625 
Q 25.40625 6.296875 30.5 6.296875 
Q 35.59375 6.296875 38.84375 9.390625 
Q 42.09375 12.5 42.09375 17.09375 
z
M 18.703125 3.703125 
L 18.796875 -16.203125 
Q 18.796875 -18 16.5 -18 
L 13 -18 
Q 10.703125 -18 10.703125 -16.203125 
L 10.703125 48.203125 
Q 10.703125 50 13 50 
L 15.90625 50 
Q 18.203125 50 18.203125 48.203125 
L 18.203125 45.90625 
Q 18.59375 46.5 19.5 47.34375 
Q 20.40625 48.203125 23.75 49.59375 
Q 27.09375 51 31.296875 51 
Q 39.296875 51 44.796875 45.640625 
Q 50.296875 40.296875 50.296875 32.59375 
L 50.296875 17.40625 
Q 50.296875 9.796875 44.75 4.390625 
Q 39.203125 -1 31.296875 -1 
Q 27.40625 -1 24.25 0.203125 
Q 21.09375 1.40625 19.90625 2.59375 
z
" id="DecimaMonoPro-70"/>
     <path d="M 37.203125 51 
Q 44.09375 51 48.140625 46.453125 
Q 52.203125 41.90625 52.203125 37.5 
Q 52.203125 35.703125 50.5 35.703125 
L 45.90625 35.703125 
Q 44.296875 35.703125 44.09375 37.40625 
Q 43.796875 39.796875 41.75 41.796875 
Q 39.703125 43.796875 36.59375 43.796875 
Q 32.40625 43.796875 29.203125 40.796875 
Q 26 37.796875 26 34 
L 26 7.203125 
L 45.09375 7.203125 
Q 45.796875 7.203125 46.34375 6.703125 
Q 46.90625 6.203125 46.90625 5.40625 
L 46.90625 1.796875 
Q 46.90625 1 46.34375 0.5 
Q 45.796875 0 45.09375 0 
L 9.296875 0 
Q 8.59375 0 8.046875 0.5 
Q 7.5 1 7.5 1.796875 
L 7.5 5.40625 
Q 7.5 6.203125 8.046875 6.703125 
Q 8.59375 7.203125 9.296875 7.203125 
L 18 7.203125 
L 18 48.203125 
Q 18 50 20.296875 50 
L 23.5 50 
Q 25.796875 50 25.796875 48.203125 
L 25.796875 45.703125 
Q 29.796875 51 37.203125 51 
z
" id="DecimaMonoPro-72"/>
     <path d="M 48.796875 13.5 
Q 48.796875 9.09375 43.75 4.046875 
Q 38.703125 -1 30.203125 -1 
Q 21.203125 -1 15.75 4.453125 
Q 10.296875 9.90625 10.296875 17.5 
L 10.296875 32.703125 
Q 10.296875 40.203125 15.75 45.59375 
Q 21.203125 51 30.203125 51 
Q 39.203125 51 44.453125 45.59375 
Q 49.703125 40.203125 49.703125 32.703125 
L 49.703125 24.796875 
Q 49.703125 23.796875 49.046875 23.140625 
Q 48.40625 22.5 47.40625 22.5 
L 18.40625 22.5 
L 18.40625 17 
Q 18.40625 12.5 21.65625 9.296875 
Q 24.90625 6.09375 30.203125 6.09375 
Q 38.5 6.09375 40.59375 13.59375 
Q 41.09375 15.296875 42.40625 15.296875 
L 47 15.296875 
Q 47.796875 15.296875 48.296875 14.75 
Q 48.796875 14.203125 48.796875 13.5 
z
M 18.40625 33 
L 18.40625 29.703125 
L 41.796875 29.703125 
L 41.796875 33 
Q 41.796875 37.5 38.640625 40.640625 
Q 35.5 43.796875 30.203125 43.796875 
Q 24.90625 43.796875 21.65625 40.640625 
Q 18.40625 37.5 18.40625 33 
z
" id="DecimaMonoPro-65"/>
     <path d="M 17.90625 32.90625 
L 17.90625 16.90625 
Q 17.90625 12.296875 21.15625 9.1875 
Q 24.40625 6.09375 29.5 6.09375 
Q 34.59375 6.09375 37.9375 9.25 
Q 41.296875 12.40625 41.296875 17 
L 41.296875 32.90625 
Q 41.296875 37.5 37.9375 40.59375 
Q 34.59375 43.703125 29.5 43.703125 
Q 24.40625 43.703125 21.15625 40.59375 
Q 17.90625 37.5 17.90625 32.90625 
z
M 41.296875 46.296875 
L 41.203125 68.203125 
Q 41.203125 70 43.5 70 
L 47 70 
Q 49.296875 70 49.296875 68.203125 
L 49.296875 1.796875 
Q 49.296875 0 47 0 
L 44.09375 0 
Q 41.796875 0 41.796875 1.796875 
L 41.796875 4.09375 
Q 41.40625 3.5 40.5 2.640625 
Q 39.59375 1.796875 36.25 0.390625 
Q 32.90625 -1 28.703125 -1 
Q 20.703125 -1 15.203125 4.34375 
Q 9.703125 9.703125 9.703125 17.40625 
L 9.703125 32.59375 
Q 9.703125 40.203125 15.25 45.59375 
Q 20.796875 51 28.703125 51 
Q 32.59375 51 35.75 49.796875 
Q 38.90625 48.59375 40.09375 47.40625 
z
" id="DecimaMonoPro-64"/>
    </defs>
    <g style="fill:#ffffff;" transform="translate(64.8 1432.8)scale(0.14 -0.14)">
     <use xlink:href="#DecimaMonoPro-a9"/>
     <use x="59.999985" xlink:href="#DecimaMonoPro-73"/>
     <use x="119.999969" xlink:href="#DecimaMonoPro-70"/>
     <use x="179.999954" xlink:href="#DecimaMonoPro-72"/>
     <use x="239.999939" xlink:href="#DecimaMonoPro-65"/>
     <use x="299.999924" xlink:href="#DecimaMonoPro-64"/>
    </g>
   </g>
   <g id="text_15">
    <!-- XRPBTC_drop -->
    <defs>
     <path d="M 41.40625 70 
L 29 48.40625 
L 16.59375 70 
L 4.296875 70 
L 22.796875 37.59375 
L 1.203125 0 
L 13.703125 0 
L 29 26.703125 
L 44.296875 0 
L 56.796875 0 
L 35.203125 37.59375 
L 53.703125 70 
z
" id="ApercuPro-Medium-58"/>
     <path d="M 54.59375 50.703125 
C 54.59375 62.59375 47.09375 70 33.90625 70 
L 9.40625 70 
L 9.40625 0 
L 20.40625 0 
L 20.40625 31.40625 
L 28.5 31.40625 
L 48.203125 0 
L 61.203125 0 
L 41 32.203125 
C 49.703125 34.5 54.59375 41.09375 54.59375 50.703125 
z
M 34.203125 41.796875 
L 20.40625 41.796875 
L 20.40625 59.59375 
L 34.203125 59.59375 
C 39.5 59.59375 43.40625 56.90625 43.40625 50.703125 
C 43.40625 44.5 39.5 41.796875 34.203125 41.796875 
z
" id="ApercuPro-Medium-52"/>
     <path d="M 34.5 28.59375 
C 48.40625 28.59375 56.203125 37.5 56.203125 49.296875 
C 56.203125 61.09375 48.40625 70 34.5 70 
L 9.40625 70 
L 9.40625 0 
L 20.40625 0 
L 20.40625 28.59375 
z
M 35 39 
L 20.40625 39 
L 20.40625 59.59375 
L 35 59.59375 
C 41.296875 59.59375 45 55.796875 45 49.296875 
C 45 42.796875 41.296875 39 35 39 
z
" id="ApercuPro-Medium-50"/>
     <path d="M 9.40625 70 
L 9.40625 0 
L 35.40625 0 
C 49.203125 0 57.40625 7.5 57.40625 20.59375 
C 57.40625 28.703125 53.296875 35.40625 46.703125 38.203125 
C 50.796875 40.40625 53.796875 46.296875 53.796875 51.703125 
C 53.796875 63.796875 45.796875 70 34.203125 70 
z
M 33.203125 59.59375 
C 39.40625 59.59375 42.796875 56.703125 42.796875 51 
C 42.796875 45.296875 39.40625 42.40625 33.203125 42.40625 
L 20.40625 42.40625 
L 20.40625 59.59375 
z
M 33.90625 32 
C 42 32 46.203125 28.203125 46.203125 21.203125 
C 46.203125 14.203125 42 10.40625 33.90625 10.40625 
L 20.40625 10.40625 
L 20.40625 32 
z
" id="ApercuPro-Medium-42"/>
     <path d="M 1.09375 59.59375 
L 20.703125 59.59375 
L 20.703125 0 
L 31.703125 0 
L 31.703125 59.59375 
L 51.296875 59.59375 
L 51.296875 70 
L 1.09375 70 
z
" id="ApercuPro-Medium-54"/>
     <path d="M 65.796875 49.59375 
C 62.203125 62.796875 52.40625 70.796875 37.5 70.796875 
C 20.59375 70.796875 5.09375 58.703125 5.09375 35 
C 5.09375 11.296875 20.59375 -0.796875 37.5 -0.796875 
C 52.40625 -0.796875 62.203125 7.203125 65.796875 20.40625 
L 55.40625 23 
C 51.90625 14.09375 47 9.59375 37.5 9.59375 
C 25.703125 9.59375 16.296875 17.90625 16.296875 35 
C 16.296875 52.09375 25.703125 60.40625 37.5 60.40625 
C 47 60.40625 51.90625 55.90625 55.40625 47 
z
" id="ApercuPro-Medium-43"/>
     <path d="M 2.703125 -9.203125 
L 47.203125 -9.203125 
L 47.203125 0 
L 2.703125 0 
z
" id="ApercuPro-Medium-5f"/>
     <path d="M 4.90625 25.203125 
C 4.90625 9.09375 12.5 -0.796875 27.40625 -0.796875 
C 34 -0.796875 39.40625 2.90625 41.09375 5.796875 
L 41.09375 0 
L 51.5 0 
L 51.5 70.796875 
L 41.09375 70.796875 
L 41.09375 44.796875 
C 38.796875 48.09375 32.59375 51.203125 27.59375 51.203125 
C 12.5 51.203125 4.90625 40.796875 4.90625 25.203125 
z
M 15.90625 25.203125 
C 15.90625 35.59375 21.296875 42 28.796875 42 
C 36.296875 42 41.703125 35.59375 41.703125 25.203125 
C 41.703125 14.796875 36.296875 8.40625 28.796875 8.40625 
C 21.296875 8.40625 15.90625 14.796875 15.90625 25.203125 
z
" id="ApercuPro-Medium-64"/>
     <path d="M 19 0 
L 19 18.703125 
C 19 34.59375 25.90625 42 32.59375 42 
C 34.703125 42 36.90625 41.5 38.5 40.5 
L 40.296875 50 
C 38.796875 50.59375 36.59375 51.203125 33.90625 51.203125 
C 28.5 51.203125 22.5 48 19 42 
L 19 50.40625 
L 8.59375 50.40625 
L 8.59375 0 
z
" id="ApercuPro-Medium-72"/>
     <path d="M 4.90625 25.203125 
C 4.90625 11 14.09375 -0.796875 29.703125 -0.796875 
C 45.296875 -0.796875 54.5 11 54.5 25.203125 
C 54.5 39.40625 45.296875 51.203125 29.703125 51.203125 
C 14.09375 51.203125 4.90625 39.40625 4.90625 25.203125 
z
M 15.90625 25.203125 
C 15.90625 33.703125 20.59375 42 29.703125 42 
C 38.796875 42 43.5 33.703125 43.5 25.203125 
C 43.5 16.703125 38.796875 8.40625 29.703125 8.40625 
C 20.59375 8.40625 15.90625 16.703125 15.90625 25.203125 
z
" id="ApercuPro-Medium-6f"/>
     <path d="M 55.203125 25.203125 
C 55.203125 41.296875 47.59375 51.203125 32.703125 51.203125 
C 26.09375 51.203125 20.703125 47.5 19 44.59375 
L 19 50.40625 
L 8.59375 50.40625 
L 8.59375 -20.40625 
L 19 -20.40625 
L 19 5.59375 
C 21.296875 2.296875 26.296875 -0.796875 32.5 -0.796875 
C 47.59375 -0.796875 55.203125 9.59375 55.203125 25.203125 
z
M 44.203125 25.203125 
C 44.203125 14.796875 38.796875 8.40625 31.296875 8.40625 
C 23.796875 8.40625 18.40625 14.796875 18.40625 25.203125 
C 18.40625 35.59375 23.796875 42 31.296875 42 
C 38.796875 42 44.203125 35.59375 44.203125 25.203125 
z
" id="ApercuPro-Medium-70"/>
    </defs>
    <g style="opacity:0.75;" transform="translate(1044 144)scale(0.3 -0.3)">
     <use xlink:href="#ApercuPro-Medium-58"/>
     <use x="57.999985" xlink:href="#ApercuPro-Medium-52"/>
     <use x="122.899979" xlink:href="#ApercuPro-Medium-50"/>
     <use x="181.799973" xlink:href="#ApercuPro-Medium-42"/>
     <use x="244.09996" xlink:href="#ApercuPro-Medium-54"/>
     <use x="296.484329" xlink:href="#ApercuPro-Medium-43"/>
     <use x="365.984314" xlink:href="#ApercuPro-Medium-5f"/>
     <use x="415.884308" xlink:href="#ApercuPro-Medium-64"/>
     <use x="475.937424" xlink:href="#ApercuPro-Medium-72"/>
     <use x="517.637421" xlink:href="#ApercuPro-Medium-6f"/>
     <use x="577.037415" xlink:href="#ApercuPro-Medium-70"/>
    </g>
   </g>
   <g id="text_16">
    <!-- None -->
    <defs>
     <path d="M 51.59375 70 
L 60.40625 70 
L 60.40625 0 
L 50.09375 0 
L 18.5 54.5 
L 18.5 0 
L 9.703125 0 
L 9.703125 70 
L 20 70 
L 51.59375 15.296875 
z
" id="Apercu-4e"/>
     <path d="M 12 6.796875 
Q 5.40625 14.5 5.40625 25.203125 
Q 5.40625 35.90625 12.046875 43.546875 
Q 18.703125 51.203125 29.59375 51.203125 
Q 40.5 51.203125 47.140625 43.546875 
Q 53.796875 35.90625 53.796875 25.203125 
Q 53.796875 14.5 47.140625 6.84375 
Q 40.5 -0.796875 29.59375 -0.796875 
Q 18.703125 -0.796875 12 6.796875 
z
M 18.09375 38.09375 
Q 14 32.703125 14 25.203125 
Q 14 17.703125 18.140625 12.25 
Q 22.296875 6.796875 29.59375 6.796875 
Q 36.90625 6.796875 41.046875 12.25 
Q 45.203125 17.703125 45.203125 25.203125 
Q 45.203125 32.703125 41.046875 38.140625 
Q 36.90625 43.59375 29.59375 43.59375 
Q 22.296875 43.59375 18.09375 38.09375 
z
" id="Apercu-6f"/>
     <path d="M 49.09375 35.5 
L 49.09375 0 
L 40.703125 0 
L 40.703125 33.296875 
Q 40.703125 43.59375 32 43.59375 
Q 26.09375 43.59375 21.84375 37.390625 
Q 17.59375 31.203125 17.59375 21.09375 
L 17.59375 0 
L 9.203125 0 
L 9.203125 50.40625 
L 17.59375 50.40625 
L 17.59375 41.09375 
Q 23.296875 51.203125 34.296875 51.203125 
Q 41.203125 51.203125 45.140625 47.09375 
Q 49.09375 43 49.09375 35.5 
z
" id="Apercu-6e"/>
     <path d="M 51 27.296875 
L 51 23.40625 
L 14 23.40625 
Q 14.40625 16 18.046875 11.390625 
Q 21.703125 6.796875 28.203125 6.796875 
Q 33.5 6.796875 36.75 9.140625 
Q 40 11.5 42.203125 16.40625 
L 49.59375 13.203125 
Q 46.09375 5.796875 41.046875 2.5 
Q 36 -0.796875 28.203125 -0.796875 
Q 17.296875 -0.796875 11.34375 6.75 
Q 5.40625 14.296875 5.40625 25.1875 
Q 5.40625 36.09375 11.34375 43.640625 
Q 17.296875 51.203125 28.203125 51.203125 
Q 38.90625 51.203125 44.953125 44.25 
Q 51 37.296875 51 27.296875 
z
M 28.203125 43.59375 
Q 22.59375 43.59375 19.140625 40.1875 
Q 15.703125 36.796875 14.5 31 
L 42.203125 31 
Q 41 36.703125 37.5 40.140625 
Q 34 43.59375 28.203125 43.59375 
z
" id="Apercu-65"/>
    </defs>
    <g style="opacity:0.75;" transform="translate(1045 158.4)scale(0.14 -0.14)">
     <use xlink:href="#Apercu-4e"/>
     <use x="70.099991" xlink:href="#Apercu-6f"/>
     <use x="129.299988" xlink:href="#Apercu-6e"/>
     <use x="186.999985" xlink:href="#Apercu-65"/>
    </g>
   </g>
   <g id="legend_1">
    <g id="patch_8">
     <path d="M 5997.58375 266.736875 
L 6081.4 266.736875 
Q 6084.2 266.736875 6084.2 263.936875 
L 6084.2 225.8 
Q 6084.2 223 6081.4 223 
L 5997.58375 223 
Q 5994.78375 223 5994.78375 225.8 
L 5994.78375 263.936875 
Q 5994.78375 266.736875 5997.58375 266.736875 
z
" style="fill:#f0f0f0;opacity:0.8;stroke:#cccccc;stroke-linejoin:miter;stroke-width:0.5;"/>
    </g>
    <g id="line2d_26">
     <path d="M 6000.38375 233.611563 
L 6028.38375 233.611563 
" style="fill:none;stroke:#000004;stroke-width:3;"/>
    </g>
    <g id="line2d_27"/>
    <g id="text_17">
     <!-- pred -->
     <defs>
      <path d="M 32.296875 -0.796875 
Q 27.796875 -0.796875 23.390625 1.390625 
Q 19 3.59375 17.59375 6 
L 17.59375 -20.40625 
L 9.203125 -20.40625 
L 9.203125 50.40625 
L 17.59375 50.40625 
L 17.59375 44.203125 
Q 19.5 47.09375 23.640625 49.140625 
Q 27.796875 51.203125 32.296875 51.203125 
Q 43.09375 51.203125 48.890625 44.046875 
Q 54.703125 36.90625 54.703125 25.203125 
Q 54.703125 13.5 48.890625 6.34375 
Q 43.09375 -0.796875 32.296875 -0.796875 
z
M 31.5 43.59375 
Q 24.703125 43.59375 20.796875 38.5 
Q 16.90625 33.40625 16.90625 25.203125 
Q 16.90625 17 20.796875 11.890625 
Q 24.703125 6.796875 31.5 6.796875 
Q 38.09375 6.796875 42.09375 11.890625 
Q 46.09375 17 46.09375 25.203125 
Q 46.09375 33.40625 42.09375 38.5 
Q 38.09375 43.59375 31.5 43.59375 
z
" id="Apercu-70"/>
      <path d="M 39.296875 49.703125 
L 37.59375 42.203125 
Q 34.796875 43.59375 31.703125 43.59375 
Q 26 43.59375 21.796875 37.140625 
Q 17.59375 30.703125 17.59375 19.09375 
L 17.59375 0 
L 9.203125 0 
L 9.203125 50.40625 
L 17.59375 50.40625 
L 17.59375 41.796875 
Q 19.796875 46 24 48.59375 
Q 28.203125 51.203125 32.40625 51.203125 
Q 36.5 51.203125 39.296875 49.703125 
z
" id="Apercu-72"/>
      <path d="M 27.796875 51.203125 
Q 32.296875 51.203125 36.6875 49 
Q 41.09375 46.796875 42.5 44.40625 
L 42.5 70.796875 
L 50.90625 70.796875 
L 50.90625 0 
L 42.5 0 
L 42.5 6.203125 
Q 40.59375 3.296875 36.4375 1.25 
Q 32.296875 -0.796875 27.796875 -0.796875 
Q 17 -0.796875 11.203125 6.34375 
Q 5.40625 13.5 5.40625 25.203125 
Q 5.40625 36.90625 11.203125 44.046875 
Q 17 51.203125 27.796875 51.203125 
z
M 28.59375 6.796875 
Q 35.40625 6.796875 39.296875 11.890625 
Q 43.203125 17 43.203125 25.203125 
Q 43.203125 33.40625 39.296875 38.5 
Q 35.40625 43.59375 28.59375 43.59375 
Q 22 43.59375 18 38.5 
Q 14 33.40625 14 25.203125 
Q 14 17 18 11.890625 
Q 22 6.796875 28.59375 6.796875 
z
" id="Apercu-64"/>
     </defs>
     <g style="opacity:0.75;" transform="translate(6039.58375 238.511563)scale(0.14 -0.14)">
      <use xlink:href="#Apercu-70"/>
      <use x="60.099991" xlink:href="#Apercu-72"/>
      <use x="101.399979" xlink:href="#Apercu-65"/>
      <use x="157.399963" xlink:href="#Apercu-64"/>
     </g>
    </g>
    <g id="line2d_28">
     <path d="M 6000.38375 253.38 
L 6028.38375 253.38 
" style="fill:none;stroke:#b73779;stroke-width:3;"/>
    </g>
    <g id="line2d_29"/>
    <g id="text_18">
     <!-- actual -->
     <defs>
      <path d="M 14.203125 14.5 
Q 14.203125 10.90625 16.34375 8.84375 
Q 18.5 6.796875 22.5 6.796875 
Q 28.203125 6.796875 32.390625 10.546875 
Q 36.59375 14.296875 36.59375 22.203125 
L 36.59375 23.40625 
L 27.59375 23.40625 
Q 21.203125 23.40625 17.703125 21.09375 
Q 14.203125 18.796875 14.203125 14.5 
z
M 45 32.203125 
L 45 0 
L 38.40625 0 
L 37 7.09375 
Q 31.5 -0.796875 21.203125 -0.796875 
Q 14.40625 -0.796875 10 3 
Q 5.59375 6.796875 5.59375 14.5 
Q 5.59375 22.5 11.6875 26.75 
Q 17.796875 31 28.40625 31 
L 36.59375 31 
L 36.59375 33.203125 
Q 36.59375 43.59375 25.59375 43.59375 
Q 21.59375 43.59375 18.75 41.5 
Q 15.90625 39.40625 15.09375 35.703125 
L 7.703125 37.40625 
Q 8.703125 43.796875 13.59375 47.5 
Q 18.5 51.203125 25.59375 51.203125 
Q 34.40625 51.203125 39.703125 46.5 
Q 45 41.796875 45 32.203125 
z
" id="Apercu-61"/>
      <path d="M 42.09375 16.09375 
L 49.40625 13.09375 
Q 43.296875 -0.796875 28.296875 -0.796875 
Q 17.296875 -0.796875 11.34375 6.75 
Q 5.40625 14.296875 5.40625 25.1875 
Q 5.40625 36.09375 11.34375 43.640625 
Q 17.296875 51.203125 28.296875 51.203125 
Q 43.296875 51.203125 49.40625 37.296875 
L 42.09375 34.296875 
Q 38.09375 43.59375 28.296875 43.59375 
Q 21.296875 43.59375 17.640625 38.4375 
Q 14 33.296875 14 25.1875 
Q 14 17.09375 17.640625 11.9375 
Q 21.296875 6.796875 28.296875 6.796875 
Q 38.09375 6.796875 42.09375 16.09375 
z
" id="Apercu-63"/>
      <path d="M 2.5 42.796875 
L 2.5 50.40625 
L 11.203125 50.40625 
L 11.203125 65.5 
L 19.59375 70.796875 
L 19.59375 50.40625 
L 32.796875 50.40625 
L 32.796875 42.796875 
L 19.59375 42.796875 
L 19.59375 15.09375 
Q 19.59375 11.09375 21.34375 8.9375 
Q 23.09375 6.796875 26.296875 6.796875 
Q 29.59375 6.796875 32 8.40625 
L 34 1.09375 
Q 30.703125 -0.796875 25.796875 -0.796875 
Q 19.09375 -0.796875 15.140625 3.390625 
Q 11.203125 7.59375 11.203125 15.796875 
L 11.203125 42.796875 
z
" id="Apercu-74"/>
      <path d="M 8.59375 14.90625 
L 8.59375 50.40625 
L 17 50.40625 
L 17 17.09375 
Q 17 6.796875 25.703125 6.796875 
Q 31.59375 6.796875 35.84375 13 
Q 40.09375 19.203125 40.09375 29.296875 
L 40.09375 50.40625 
L 48.5 50.40625 
L 48.5 0 
L 40.09375 0 
L 40.09375 9.296875 
Q 34.40625 -0.796875 23.40625 -0.796875 
Q 16.5 -0.796875 12.546875 3.296875 
Q 8.59375 7.40625 8.59375 14.90625 
z
" id="Apercu-75"/>
      <path d="M 9 70.796875 
L 17.40625 70.796875 
L 17.40625 0 
L 9 0 
z
" id="Apercu-6c"/>
     </defs>
     <g style="opacity:0.75;" transform="translate(6039.58375 258.28)scale(0.14 -0.14)">
      <use xlink:href="#Apercu-61"/>
      <use x="51.799988" xlink:href="#Apercu-63"/>
      <use x="105.615601" xlink:href="#Apercu-74"/>
      <use x="143.399963" xlink:href="#Apercu-75"/>
      <use x="201.09996" xlink:href="#Apercu-61"/>
      <use x="252.899948" xlink:href="#Apercu-6c"/>
     </g>
    </g>
   </g>
  </g>
 </g>
 <defs>
  <clipPath id="p08db5e49b1">
   <rect height="964.8" width="5313.6" x="777.6" y="216"/>
  </clipPath>
 </defs>
</svg>
