<?xml version="1.0" encoding="utf-8" standalone="no"?>
<!DOCTYPE svg PUBLIC "-//W3C//DTD SVG 1.1//EN"
  "http://www.w3.org/Graphics/SVG/1.1/DTD/svg11.dtd">
<!-- Created with matplotlib (http://matplotlib.org/) -->
<svg height="1440pt" version="1.1" viewBox="0 0 6480 1440" width="6480pt" xmlns="http://www.w3.org/2000/svg" xmlns:xlink="http://www.w3.org/1999/xlink">
 <defs>
  <style type="text/css">
*{stroke-linecap:butt;stroke-linejoin:round;}
  </style>
 </defs>
 <g id="figure_1">
  <g id="patch_1">
   <path d="M 0 1440 
L 6480 1440 
L 6480 0 
L 0 0 
z
" style="fill:#f0f0f0;"/>
  </g>
  <g id="axes_1">
   <g id="patch_2">
    <path d="M 777.6 1180.8 
L 6091.2 1180.8 
L 6091.2 216 
L 777.6 216 
z
" style="fill:#f0f0f0;"/>
   </g>
   <g id="matplotlib.axis_1">
    <g id="xtick_1">
     <g id="line2d_1">
      <path clip-path="url(#p141849e75e)" d="M 777.6 1180.8 
L 777.6 216 
" style="fill:none;stroke:#b0b0b0;stroke-linecap:square;stroke-width:0.8;"/>
     </g>
     <g id="line2d_2">
      <defs>
       <path d="M 0 0 
L 0 3.5 
" id="me227b81db5" style="stroke:#000000;stroke-width:0.8;"/>
      </defs>
      <g>
       <use style="stroke:#000000;stroke-width:0.8;" x="777.6" xlink:href="#me227b81db5" y="1180.8"/>
      </g>
     </g>
     <g id="text_1">
      <!-- 0 -->
      <defs>
       <path d="M 48.203125 52.59375 
L 48.203125 17.40625 
Q 48.203125 9.703125 42.953125 4.34375 
Q 37.703125 -1 29.890625 -1 
Q 22.09375 -1 16.9375 4.390625 
Q 11.796875 9.796875 11.796875 17.5 
L 11.796875 52.59375 
Q 11.796875 60.296875 16.9375 65.640625 
Q 22.09375 71 29.890625 71 
Q 37.703125 71 42.953125 65.640625 
Q 48.203125 60.296875 48.203125 52.59375 
z
M 39.90625 17.296875 
L 39.90625 52.5 
Q 39.90625 56.90625 37 60 
Q 34.09375 63.09375 29.90625 63.09375 
Q 25.796875 63.09375 22.890625 60 
Q 20 56.90625 20 52.5 
L 20 17.40625 
Q 20 13 22.890625 9.953125 
Q 25.796875 6.90625 30 6.90625 
Q 34.09375 6.90625 37 9.90625 
Q 39.90625 12.90625 39.90625 17.296875 
z
" id="DecimaMonoPro-30"/>
      </defs>
      <g style="fill:#303030;" transform="translate(773.4 1197.613125)scale(0.14 -0.14)">
       <use xlink:href="#DecimaMonoPro-30"/>
      </g>
     </g>
    </g>
    <g id="xtick_2">
     <g id="line2d_3">
      <path clip-path="url(#p141849e75e)" d="M 1445.137688 1180.8 
L 1445.137688 216 
" style="fill:none;stroke:#b0b0b0;stroke-linecap:square;stroke-width:0.8;"/>
     </g>
     <g id="line2d_4">
      <g>
       <use style="stroke:#000000;stroke-width:0.8;" x="1445.137688" xlink:href="#me227b81db5" y="1180.8"/>
      </g>
     </g>
     <g id="text_2">
      <!-- 25 -->
      <defs>
       <path d="M 11.703125 53 
Q 11.703125 59.703125 17.203125 65.34375 
Q 22.703125 71 30.59375 71 
Q 38.40625 71 43.796875 65.75 
Q 49.203125 60.5 49.203125 52.703125 
Q 49.203125 46.90625 46.09375 41.75 
Q 43 36.59375 38.59375 32.84375 
Q 34.203125 29.09375 29.796875 25.4375 
Q 25.40625 21.796875 22.296875 17.296875 
Q 19.203125 12.796875 19.203125 7.796875 
L 47.40625 7.796875 
Q 48.203125 7.796875 48.703125 7.296875 
Q 49.203125 6.796875 49.203125 6 
L 49.203125 1.796875 
Q 49.203125 1 48.703125 0.5 
Q 48.203125 0 47.40625 0 
L 12.59375 0 
Q 11.796875 0 11.296875 0.5 
Q 10.796875 1 10.796875 1.796875 
L 10.796875 7.296875 
Q 10.796875 13.90625 13.890625 19.453125 
Q 17 25 21.390625 28.890625 
Q 25.796875 32.796875 30.1875 36.390625 
Q 34.59375 40 37.6875 44.296875 
Q 40.796875 48.59375 40.796875 53.296875 
Q 40.796875 57.40625 37.75 60.25 
Q 34.703125 63.09375 30.5 63.09375 
Q 26.09375 63.09375 23.1875 59.6875 
Q 20.296875 56.296875 20.09375 53 
Q 19.90625 51 17.796875 51 
L 14 51 
Q 12.90625 51 12.296875 51.59375 
Q 11.703125 52.203125 11.703125 53 
z
" id="DecimaMonoPro-32"/>
       <path d="M 21.90625 35.59375 
Q 21.09375 34.40625 19.796875 34.40625 
Q 19.40625 34.40625 18.203125 34.796875 
L 14.796875 35.796875 
Q 13.203125 36.296875 13.40625 38.5 
L 15.90625 67.703125 
Q 16.09375 70 18.09375 70 
L 44.40625 70 
Q 46.59375 70 46.59375 67.703125 
L 46.59375 64.40625 
Q 46.59375 62.09375 44.40625 62.09375 
L 24.09375 62.09375 
L 22.40625 44.796875 
Q 25.203125 47.203125 30.703125 47.203125 
Q 38.40625 47.203125 43.703125 42 
Q 49 36.796875 49 28.90625 
L 49 17.5 
Q 49 9.796875 43.5 4.390625 
Q 38 -1 30.09375 -1 
Q 21.90625 -1 16.453125 4.34375 
Q 11 9.703125 11 17.40625 
Q 11 18.203125 11.59375 18.796875 
Q 12.203125 19.40625 13.296875 19.40625 
L 17.09375 19.40625 
Q 18.203125 19.40625 18.796875 18.796875 
Q 19.40625 18.203125 19.40625 17.40625 
Q 19.40625 13 22.5 9.953125 
Q 25.59375 6.90625 30.09375 6.90625 
Q 34.5 6.90625 37.546875 9.953125 
Q 40.59375 13 40.59375 17.40625 
L 40.59375 28.796875 
Q 40.59375 33.203125 37.5 36.25 
Q 34.40625 39.296875 29.796875 39.296875 
Q 27.703125 39.296875 25.796875 38.4375 
Q 23.90625 37.59375 23.09375 36.890625 
Q 22.296875 36.203125 21.90625 35.59375 
z
" id="DecimaMonoPro-35"/>
      </defs>
      <g style="fill:#303030;" transform="translate(1436.737688 1197.613125)scale(0.14 -0.14)">
       <use xlink:href="#DecimaMonoPro-32"/>
       <use x="59.999985" xlink:href="#DecimaMonoPro-35"/>
      </g>
     </g>
    </g>
    <g id="xtick_3">
     <g id="line2d_5">
      <path clip-path="url(#p141849e75e)" d="M 2112.675377 1180.8 
L 2112.675377 216 
" style="fill:none;stroke:#b0b0b0;stroke-linecap:square;stroke-width:0.8;"/>
     </g>
     <g id="line2d_6">
      <g>
       <use style="stroke:#000000;stroke-width:0.8;" x="2112.675377" xlink:href="#me227b81db5" y="1180.8"/>
      </g>
     </g>
     <g id="text_3">
      <!-- 50 -->
      <g style="fill:#303030;" transform="translate(2104.275377 1197.613125)scale(0.14 -0.14)">
       <use xlink:href="#DecimaMonoPro-35"/>
       <use x="59.999985" xlink:href="#DecimaMonoPro-30"/>
      </g>
     </g>
    </g>
    <g id="xtick_4">
     <g id="line2d_7">
      <path clip-path="url(#p141849e75e)" d="M 2780.213065 1180.8 
L 2780.213065 216 
" style="fill:none;stroke:#b0b0b0;stroke-linecap:square;stroke-width:0.8;"/>
     </g>
     <g id="line2d_8">
      <g>
       <use style="stroke:#000000;stroke-width:0.8;" x="2780.213065" xlink:href="#me227b81db5" y="1180.8"/>
      </g>
     </g>
     <g id="text_4">
      <!-- 75 -->
      <defs>
       <path d="M 39.09375 62.09375 
L 14.703125 62.09375 
Q 12.5 62.09375 12.5 64.40625 
L 12.5 67.703125 
Q 12.5 70 14.703125 70 
L 44.796875 70 
Q 47.5 70 47.5 67.59375 
L 47.5 62.703125 
Q 47.5 58.203125 43.59375 46.953125 
Q 39.703125 35.703125 35.796875 22.953125 
Q 31.90625 10.203125 31.90625 2 
Q 31.90625 1.203125 31.25 0.59375 
Q 30.59375 0 29.90625 0 
L 25.703125 0 
Q 24.59375 0 24 0.59375 
Q 23.40625 1.203125 23.40625 2 
Q 23.40625 9.40625 25.796875 19.15625 
Q 28.203125 28.90625 31.046875 36.5 
Q 33.90625 44.09375 36.40625 51.546875 
Q 38.90625 59 39.09375 62.09375 
z
" id="DecimaMonoPro-37"/>
      </defs>
      <g style="fill:#303030;" transform="translate(2771.813065 1197.613125)scale(0.14 -0.14)">
       <use xlink:href="#DecimaMonoPro-37"/>
       <use x="59.999985" xlink:href="#DecimaMonoPro-35"/>
      </g>
     </g>
    </g>
    <g id="xtick_5">
     <g id="line2d_9">
      <path clip-path="url(#p141849e75e)" d="M 3447.750754 1180.8 
L 3447.750754 216 
" style="fill:none;stroke:#b0b0b0;stroke-linecap:square;stroke-width:0.8;"/>
     </g>
     <g id="line2d_10">
      <g>
       <use style="stroke:#000000;stroke-width:0.8;" x="3447.750754" xlink:href="#me227b81db5" y="1180.8"/>
      </g>
     </g>
     <g id="text_5">
      <!-- 100 -->
      <defs>
       <path d="M 13.90625 68.203125 
L 25.203125 70 
L 32.296875 70 
Q 33 70 33.546875 69.5 
Q 34.09375 69 34.09375 68.203125 
L 34.09375 7.703125 
L 47.296875 7.703125 
Q 48 7.703125 48.546875 7.140625 
Q 49.09375 6.59375 49.09375 5.90625 
L 49.09375 1.796875 
Q 49.09375 1 48.546875 0.5 
Q 48 0 47.296875 0 
L 12.59375 0 
Q 11.796875 0 11.296875 0.5 
Q 10.796875 1 10.796875 1.796875 
L 10.796875 5.90625 
Q 10.796875 6.59375 11.296875 7.140625 
Q 11.796875 7.703125 12.59375 7.703125 
L 25.703125 7.703125 
L 25.703125 62.09375 
L 14.703125 60.40625 
L 14.40625 60.40625 
Q 14 60.296875 13.5 60.296875 
Q 12.09375 60.296875 12.09375 62.09375 
L 12.09375 66.296875 
Q 12.09375 67.796875 13.90625 68.203125 
z
" id="DecimaMonoPro-31"/>
      </defs>
      <g style="fill:#303030;" transform="translate(3435.150754 1197.613125)scale(0.14 -0.14)">
       <use xlink:href="#DecimaMonoPro-31"/>
       <use x="59.999985" xlink:href="#DecimaMonoPro-30"/>
       <use x="119.999969" xlink:href="#DecimaMonoPro-30"/>
      </g>
     </g>
    </g>
    <g id="xtick_6">
     <g id="line2d_11">
      <path clip-path="url(#p141849e75e)" d="M 4115.288442 1180.8 
L 4115.288442 216 
" style="fill:none;stroke:#b0b0b0;stroke-linecap:square;stroke-width:0.8;"/>
     </g>
     <g id="line2d_12">
      <g>
       <use style="stroke:#000000;stroke-width:0.8;" x="4115.288442" xlink:href="#me227b81db5" y="1180.8"/>
      </g>
     </g>
     <g id="text_6">
      <!-- 125 -->
      <g style="fill:#303030;" transform="translate(4102.688442 1197.613125)scale(0.14 -0.14)">
       <use xlink:href="#DecimaMonoPro-31"/>
       <use x="59.999985" xlink:href="#DecimaMonoPro-32"/>
       <use x="119.999969" xlink:href="#DecimaMonoPro-35"/>
      </g>
     </g>
    </g>
    <g id="xtick_7">
     <g id="line2d_13">
      <path clip-path="url(#p141849e75e)" d="M 4782.826131 1180.8 
L 4782.826131 216 
" style="fill:none;stroke:#b0b0b0;stroke-linecap:square;stroke-width:0.8;"/>
     </g>
     <g id="line2d_14">
      <g>
       <use style="stroke:#000000;stroke-width:0.8;" x="4782.826131" xlink:href="#me227b81db5" y="1180.8"/>
      </g>
     </g>
     <g id="text_7">
      <!-- 150 -->
      <g style="fill:#303030;" transform="translate(4770.226131 1197.613125)scale(0.14 -0.14)">
       <use xlink:href="#DecimaMonoPro-31"/>
       <use x="59.999985" xlink:href="#DecimaMonoPro-35"/>
       <use x="119.999969" xlink:href="#DecimaMonoPro-30"/>
      </g>
     </g>
    </g>
    <g id="xtick_8">
     <g id="line2d_15">
      <path clip-path="url(#p141849e75e)" d="M 5450.363819 1180.8 
L 5450.363819 216 
" style="fill:none;stroke:#b0b0b0;stroke-linecap:square;stroke-width:0.8;"/>
     </g>
     <g id="line2d_16">
      <g>
       <use style="stroke:#000000;stroke-width:0.8;" x="5450.363819" xlink:href="#me227b81db5" y="1180.8"/>
      </g>
     </g>
     <g id="text_8">
      <!-- 175 -->
      <g style="fill:#303030;" transform="translate(5437.763819 1197.613125)scale(0.14 -0.14)">
       <use xlink:href="#DecimaMonoPro-31"/>
       <use x="59.999985" xlink:href="#DecimaMonoPro-37"/>
       <use x="119.999969" xlink:href="#DecimaMonoPro-35"/>
      </g>
     </g>
    </g>
    <g id="text_9">
     <!-- x -->
     <defs>
      <path d="M 3.59375 50.40625 
L 13.09375 50.40625 
L 22.90625 34.40625 
L 32.703125 50.40625 
L 42.203125 50.40625 
L 27.59375 26.59375 
L 44 0 
L 34.5 0 
L 22.90625 18.90625 
L 11.296875 0 
L 1.796875 0 
L 18.203125 26.59375 
z
" id="Apercu-78"/>
     </defs>
     <g style="opacity:0.75;" transform="translate(3431.194219 1214.044688)scale(0.14 -0.14)">
      <use xlink:href="#Apercu-78"/>
     </g>
    </g>
   </g>
   <g id="matplotlib.axis_2">
    <g id="ytick_1">
     <g id="line2d_17">
      <path clip-path="url(#p141849e75e)" d="M 777.6 1138.890787 
L 6091.2 1138.890787 
" style="fill:none;stroke:#b0b0b0;stroke-linecap:square;stroke-width:0.8;"/>
     </g>
     <g id="line2d_18">
      <defs>
       <path d="M 0 0 
L -3.5 0 
" id="m6b96c98056" style="stroke:#000000;stroke-width:0.8;"/>
      </defs>
      <g>
       <use style="stroke:#000000;stroke-width:0.8;" x="777.6" xlink:href="#m6b96c98056" y="1138.890787"/>
      </g>
     </g>
     <g id="text_10">
      <!-- −3 -->
      <defs>
       <path d="M 50.203125 25.296875 
L 9.796875 25.296875 
Q 9 25.296875 8.5 25.84375 
Q 8 26.40625 8 27.09375 
L 8 31.296875 
Q 8 32 8.5 32.546875 
Q 9 33.09375 9.796875 33.09375 
L 50.203125 33.09375 
Q 51 33.09375 51.5 32.546875 
Q 52 32 52 31.296875 
L 52 27.09375 
Q 52 26.40625 51.5 25.84375 
Q 51 25.296875 50.203125 25.296875 
z
" id="DecimaMonoPro-2212"/>
       <path d="M 46.203125 61.09375 
L 35.40625 47.09375 
Q 40.796875 46.40625 44.890625 41.953125 
Q 49 37.5 49 31.5 
L 49 17.5 
Q 49 9.796875 43.5 4.390625 
Q 38 -1 30 -1 
Q 21.796875 -1 16.34375 4.34375 
Q 10.90625 9.703125 10.90625 17.40625 
Q 10.90625 18.203125 11.5 18.796875 
Q 12.09375 19.40625 13.203125 19.40625 
L 17 19.40625 
Q 19.09375 19.40625 19.296875 17.40625 
Q 19.296875 13 22.390625 9.953125 
Q 25.5 6.90625 30 6.90625 
Q 34.40625 6.90625 37.5 9.953125 
Q 40.59375 13 40.59375 17.40625 
L 40.59375 31.40625 
Q 40.59375 34.59375 38.296875 36.9375 
Q 36 39.296875 32.703125 39.296875 
L 27.40625 39.296875 
Q 25.203125 39.296875 25.203125 41.59375 
L 25.203125 45 
Q 25.203125 46.703125 26.296875 48.203125 
L 36.59375 62.09375 
L 16.90625 62.09375 
Q 14.703125 62.09375 14.703125 64.40625 
L 14.703125 67.703125 
Q 14.703125 70 16.90625 70 
L 45.09375 70 
Q 47.296875 70 47.296875 67.703125 
L 47.296875 64.296875 
Q 47.296875 62.59375 46.203125 61.09375 
z
" id="DecimaMonoPro-33"/>
      </defs>
      <g style="fill:#303030;" transform="translate(753.8 1143.79735)scale(0.14 -0.14)">
       <use xlink:href="#DecimaMonoPro-2212"/>
       <use x="59.999985" xlink:href="#DecimaMonoPro-33"/>
      </g>
     </g>
    </g>
    <g id="ytick_2">
     <g id="line2d_19">
      <path clip-path="url(#p141849e75e)" d="M 777.6 1022.437268 
L 6091.2 1022.437268 
" style="fill:none;stroke:#b0b0b0;stroke-linecap:square;stroke-width:0.8;"/>
     </g>
     <g id="line2d_20">
      <g>
       <use style="stroke:#000000;stroke-width:0.8;" x="777.6" xlink:href="#m6b96c98056" y="1022.437268"/>
      </g>
     </g>
     <g id="text_11">
      <!-- −2 -->
      <g style="fill:#303030;" transform="translate(753.8 1027.34383)scale(0.14 -0.14)">
       <use xlink:href="#DecimaMonoPro-2212"/>
       <use x="59.999985" xlink:href="#DecimaMonoPro-32"/>
      </g>
     </g>
    </g>
    <g id="ytick_3">
     <g id="line2d_21">
      <path clip-path="url(#p141849e75e)" d="M 777.6 905.983749 
L 6091.2 905.983749 
" style="fill:none;stroke:#b0b0b0;stroke-linecap:square;stroke-width:0.8;"/>
     </g>
     <g id="line2d_22">
      <g>
       <use style="stroke:#000000;stroke-width:0.8;" x="777.6" xlink:href="#m6b96c98056" y="905.983749"/>
      </g>
     </g>
     <g id="text_12">
      <!-- −1 -->
      <g style="fill:#303030;" transform="translate(753.8 910.890311)scale(0.14 -0.14)">
       <use xlink:href="#DecimaMonoPro-2212"/>
       <use x="59.999985" xlink:href="#DecimaMonoPro-31"/>
      </g>
     </g>
    </g>
    <g id="ytick_4">
     <g id="line2d_23">
      <path clip-path="url(#p141849e75e)" d="M 777.6 789.530229 
L 6091.2 789.530229 
" style="fill:none;stroke:#b0b0b0;stroke-linecap:square;stroke-width:0.8;"/>
     </g>
     <g id="line2d_24">
      <g>
       <use style="stroke:#000000;stroke-width:0.8;" x="777.6" xlink:href="#m6b96c98056" y="789.530229"/>
      </g>
     </g>
     <g id="text_13">
      <!-- 0 -->
      <g style="fill:#303030;" transform="translate(762.2 794.436792)scale(0.14 -0.14)">
       <use xlink:href="#DecimaMonoPro-30"/>
      </g>
     </g>
    </g>
    <g id="ytick_5">
     <g id="line2d_25">
      <path clip-path="url(#p141849e75e)" d="M 777.6 673.07671 
L 6091.2 673.07671 
" style="fill:none;stroke:#b0b0b0;stroke-linecap:square;stroke-width:0.8;"/>
     </g>
     <g id="line2d_26">
      <g>
       <use style="stroke:#000000;stroke-width:0.8;" x="777.6" xlink:href="#m6b96c98056" y="673.07671"/>
      </g>
     </g>
     <g id="text_14">
      <!-- 1 -->
      <g style="fill:#303030;" transform="translate(762.2 677.983273)scale(0.14 -0.14)">
       <use xlink:href="#DecimaMonoPro-31"/>
      </g>
     </g>
    </g>
    <g id="ytick_6">
     <g id="line2d_27">
      <path clip-path="url(#p141849e75e)" d="M 777.6 556.623191 
L 6091.2 556.623191 
" style="fill:none;stroke:#b0b0b0;stroke-linecap:square;stroke-width:0.8;"/>
     </g>
     <g id="line2d_28">
      <g>
       <use style="stroke:#000000;stroke-width:0.8;" x="777.6" xlink:href="#m6b96c98056" y="556.623191"/>
      </g>
     </g>
     <g id="text_15">
      <!-- 2 -->
      <g style="fill:#303030;" transform="translate(762.2 561.529754)scale(0.14 -0.14)">
       <use xlink:href="#DecimaMonoPro-32"/>
      </g>
     </g>
    </g>
    <g id="ytick_7">
     <g id="line2d_29">
      <path clip-path="url(#p141849e75e)" d="M 777.6 440.169672 
L 6091.2 440.169672 
" style="fill:none;stroke:#b0b0b0;stroke-linecap:square;stroke-width:0.8;"/>
     </g>
     <g id="line2d_30">
      <g>
       <use style="stroke:#000000;stroke-width:0.8;" x="777.6" xlink:href="#m6b96c98056" y="440.169672"/>
      </g>
     </g>
     <g id="text_16">
      <!-- 3 -->
      <g style="fill:#303030;" transform="translate(762.2 445.076234)scale(0.14 -0.14)">
       <use xlink:href="#DecimaMonoPro-33"/>
      </g>
     </g>
    </g>
    <g id="ytick_8">
     <g id="line2d_31">
      <path clip-path="url(#p141849e75e)" d="M 777.6 323.716153 
L 6091.2 323.716153 
" style="fill:none;stroke:#b0b0b0;stroke-linecap:square;stroke-width:0.8;"/>
     </g>
     <g id="line2d_32">
      <g>
       <use style="stroke:#000000;stroke-width:0.8;" x="777.6" xlink:href="#m6b96c98056" y="323.716153"/>
      </g>
     </g>
     <g id="text_17">
      <!-- 4 -->
      <defs>
       <path d="M 40.09375 67.5 
L 19.5 22.90625 
L 35.796875 22.90625 
L 35.796875 38.90625 
Q 35.796875 39.703125 36.390625 40.296875 
Q 37 40.90625 38.09375 40.90625 
L 42.203125 40.90625 
Q 43 40.90625 43.59375 40.25 
Q 44.203125 39.59375 44.203125 38.90625 
L 44.203125 22.90625 
L 48 22.90625 
Q 48.796875 22.90625 49.390625 22.296875 
Q 50 21.703125 50 20.59375 
L 50 17.40625 
Q 50 16.296875 49.390625 15.6875 
Q 48.796875 15.09375 48 15.09375 
L 44.203125 15.09375 
L 44.203125 2 
Q 44.203125 1.203125 43.59375 0.59375 
Q 43 0 42.203125 0 
L 38.09375 0 
Q 37 0 36.390625 0.59375 
Q 35.796875 1.203125 35.796875 2 
L 35.796875 15.09375 
L 12.09375 15.09375 
Q 9.90625 15.09375 9.90625 17.40625 
L 9.90625 21.296875 
Q 9.90625 22.5 11 24.703125 
L 31.296875 68 
Q 32.296875 70 34 70 
L 38.796875 70 
Q 40.5 70 40.5 68.796875 
Q 40.5 68.5 40.09375 67.5 
z
" id="DecimaMonoPro-34"/>
      </defs>
      <g style="fill:#303030;" transform="translate(762.2 328.622715)scale(0.14 -0.14)">
       <use xlink:href="#DecimaMonoPro-34"/>
      </g>
     </g>
    </g>
    <g id="text_18">
     <!-- P -->
     <defs>
      <path d="M 34.09375 30 
L 18.5 30 
L 18.5 0 
L 9.703125 0 
L 9.703125 70 
L 34.09375 70 
Q 43.90625 70 49.40625 64.59375 
Q 54.90625 59.203125 54.90625 50 
Q 54.90625 40.796875 49.40625 35.390625 
Q 43.90625 30 34.09375 30 
z
M 34.59375 38.40625 
Q 40 38.40625 42.890625 41.40625 
Q 45.796875 44.40625 45.796875 50 
Q 45.796875 55.59375 42.890625 58.59375 
Q 40 61.59375 34.59375 61.59375 
L 18.5 61.59375 
L 18.5 38.40625 
z
" id="Apercu-50"/>
     </defs>
     <g style="opacity:0.75;" transform="translate(746.943125 702.488438)rotate(-90)scale(0.14 -0.14)">
      <use xlink:href="#Apercu-50"/>
     </g>
    </g>
   </g>
   <g id="line2d_33">
    <path clip-path="url(#p141849e75e)" d="M 777.6 858.969444 
L 804.301508 761.443031 
L 831.003015 744.513056 
L 857.704523 719.616558 
L 884.40603 764.084484 
L 911.107538 714.467709 
L 937.809045 832.974361 
L 964.510553 776.932216 
L 991.21206 808.361013 
L 1017.913568 857.337977 
L 1044.615075 911.566088 
L 1071.316583 942.621302 
L 1098.01809 765.139015 
L 1124.719598 810.492386 
L 1151.421106 768.273101 
L 1178.122613 740.258493 
L 1204.824121 801.205902 
L 1231.525628 815.221789 
L 1258.227136 829.985899 
L 1284.928643 843.76254 
L 1311.630151 864.574779 
L 1338.331658 847.145809 
L 1365.033166 860.624809 
L 1391.734673 846.15032 
L 1418.436181 859.422105 
L 1445.137688 834.293884 
L 1471.839196 813.418877 
L 1498.540704 875.074806 
L 1525.242211 925.972862 
L 1551.943719 922.291141 
L 1578.645226 728.651936 
L 1605.346734 837.840059 
L 1632.048241 815.25756 
L 1658.749749 908.418573 
L 1685.451256 880.859147 
L 1712.152764 861.176792 
L 1738.854271 878.138618 
L 1765.555779 741.340004 
L 1792.257286 699.184487 
L 1818.958794 653.303883 
L 1845.660302 638.375202 
L 1872.361809 630.177916 
L 1899.063317 752.737496 
L 1925.764824 702.202494 
L 1952.466332 797.154811 
L 1979.167839 817.358972 
L 2005.869347 832.191855 
L 2032.570854 774.520597 
L 2059.272362 820.758872 
L 2085.973869 872.293562 
L 2112.675377 853.833033 
L 2139.376884 820.38947 
L 2166.078392 820.525652 
L 2192.779899 817.049441 
L 2219.481407 838.74282 
L 2246.182915 831.713393 
L 2272.884422 819.605517 
L 2299.58593 816.575621 
L 2326.287437 826.828853 
L 2352.988945 849.646674 
L 2379.690452 827.63499 
L 2406.39196 813.202578 
L 2433.093467 822.953705 
L 2459.794975 800.856877 
L 2486.496482 809.627258 
L 2513.19799 716.851127 
L 2539.899497 776.043137 
L 2566.601005 802.016477 
L 2593.302513 786.041734 
L 2620.00402 801.516659 
L 2646.705528 738.211417 
L 2673.407035 762.014948 
L 2700.108543 808.147362 
L 2726.81005 796.669296 
L 2753.511558 795.873002 
L 2780.213065 770.665414 
L 2806.914573 790.467119 
L 2833.61608 784.153746 
L 2860.317588 772.456119 
L 2887.019095 782.953658 
L 2913.720603 790.521223 
L 2940.422111 758.956587 
L 2967.123618 764.825878 
L 2993.825126 785.358659 
L 3020.526633 759.750588 
L 3047.228141 798.056782 
L 3073.929648 758.208461 
L 3100.631156 769.907148 
L 3127.332663 756.406026 
L 3154.034171 773.53792 
L 3180.735678 778.384523 
L 3207.437186 744.34062 
L 3234.138693 763.504518 
L 3260.840201 750.059842 
L 3287.541709 746.161715 
L 3314.243216 758.585314 
L 3340.944724 771.982875 
L 3367.646231 766.016046 
L 3394.347739 766.843487 
L 3421.049246 776.9114 
L 3447.750754 764.354296 
L 3474.452261 679.530722 
L 3501.153769 724.328406 
L 3527.855276 720.258478 
L 3554.556784 781.499961 
L 3581.258291 733.282658 
L 3607.959799 747.822967 
L 3634.661307 734.061318 
L 3661.362814 737.316092 
L 3688.064322 562.808149 
L 3714.765829 631.631911 
L 3741.467337 566.452028 
L 3768.168844 572.643399 
L 3794.870352 536.602939 
L 3821.571859 553.389716 
L 3848.273367 491.359861 
L 3874.974874 516.222413 
L 3901.676382 474.197401 
L 3928.377889 473.742976 
L 3955.079397 452.132502 
L 3981.780905 657.034957 
L 4008.482412 470.557423 
L 4035.18392 462.207694 
L 4061.885427 622.998538 
L 4088.586935 774.524114 
L 4115.288442 790.217847 
L 4141.98995 630.61775 
L 4168.691457 495.755955 
L 4195.392965 567.200855 
L 4222.094472 562.175531 
L 4248.79598 507.236068 
L 4275.497487 504.629964 
L 4302.198995 563.28044 
L 4328.900503 602.678886 
L 4355.60201 751.392346 
L 4382.303518 687.466541 
L 4409.005025 759.676459 
L 4435.706533 568.799823 
L 4462.40804 810.923957 
L 4489.109548 886.865384 
L 4515.811055 904.69224 
L 4542.512563 918.837325 
L 4569.21407 947.834218 
L 4595.915578 940.648705 
L 4622.617085 848.522718 
L 4649.318593 987.40847 
L 4676.020101 858.134067 
L 4702.721608 886.531451 
L 4729.423116 916.264441 
L 4756.124623 798.834242 
L 4782.826131 1136.945455 
L 4809.527638 954.89132 
L 4836.229146 858.966334 
L 4862.930653 849.450225 
L 4889.632161 829.635703 
L 4916.333668 810.914765 
L 4943.035176 769.821522 
L 4969.736683 883.42055 
L 4996.438191 919.127924 
L 5023.139698 864.131724 
L 5049.841206 794.668948 
L 5076.542714 894.127611 
L 5103.244221 786.678915 
L 5129.945729 773.796635 
L 5156.647236 756.094958 
L 5183.348744 690.432379 
L 5210.050251 706.368015 
L 5236.751759 822.901969 
L 5263.453266 804.867746 
L 5290.154774 773.70906 
L 5316.856281 763.358948 
L 5343.557789 881.874453 
L 5370.259296 816.475604 
L 5396.960804 772.969443 
L 5423.662312 751.489772 
L 5450.363819 643.876844 
L 5477.065327 787.324446 
L 5503.766834 789.185242 
L 5530.468342 779.641254 
L 5557.169849 809.735946 
L 5583.871357 592.031657 
L 5610.572864 573.435387 
L 5637.274372 647.507978 
L 5663.975879 695.919076 
L 5690.677387 620.252833 
L 5717.378894 596.238881 
L 5744.080402 551.695487 
L 5770.78191 691.089312 
L 5797.483417 624.751572 
L 5824.184925 569.967633 
L 5850.886432 667.871401 
L 5877.58794 535.811785 
L 5904.289447 617.568557 
L 5930.990955 623.224667 
L 5957.692462 761.18468 
L 5984.39397 564.815272 
L 6011.095477 607.004193 
L 6037.796985 612.146004 
L 6064.498492 623.781155 
L 6091.2 617.578539 
L 6091.2 617.578539 
" style="fill:none;stroke:#000004;stroke-width:3;"/>
   </g>
   <g id="line2d_34">
    <path clip-path="url(#p141849e75e)" d="M 777.6 815.826185 
L 804.301508 815.826185 
L 831.003015 804.55649 
L 857.704523 804.55649 
L 884.40603 815.826185 
L 911.107538 661.807015 
L 937.809045 665.56358 
L 964.510553 661.807015 
L 991.21206 969.845356 
L 1017.913568 1067.516049 
L 1044.615075 1067.516049 
L 1071.316583 973.601921 
L 1098.01809 755.721143 
L 1124.719598 763.234274 
L 1151.421106 751.964578 
L 1178.122613 898.470618 
L 1204.824121 842.122141 
L 1231.525628 898.470618 
L 1258.227136 864.661532 
L 1284.928643 860.904967 
L 1338.331658 868.418097 
L 1391.734673 860.904967 
L 1418.436181 887.200923 
L 1445.137688 842.122141 
L 1471.839196 864.661532 
L 1498.540704 860.904967 
L 1525.242211 864.661532 
L 1551.943719 842.122141 
L 1578.645226 883.444358 
L 1605.346734 883.444358 
L 1632.048241 894.714053 
L 1658.749749 894.714053 
L 1685.451256 860.904967 
L 1712.152764 875.931228 
L 1738.854271 887.200923 
L 1765.555779 890.957488 
L 1792.257286 567.892887 
L 1818.958794 470.222193 
L 1845.660302 470.222193 
L 1872.361809 545.353496 
L 1899.063317 759.477708 
L 1925.764824 774.503969 
L 1952.466332 785.773664 
L 1979.167839 774.503969 
L 2005.869347 838.365576 
L 2032.570854 785.773664 
L 2059.272362 808.313055 
L 2112.675377 823.339316 
L 2139.376884 812.06962 
L 2166.078392 808.313055 
L 2192.779899 812.06962 
L 2219.481407 789.530229 
L 2246.182915 804.55649 
L 2272.884422 808.313055 
L 2299.58593 789.530229 
L 2326.287437 785.773664 
L 2352.988945 793.286795 
L 2379.690452 770.747404 
L 2406.39196 785.773664 
L 2433.093467 766.990839 
L 2459.794975 770.747404 
L 2486.496482 797.04336 
L 2539.899497 789.530229 
L 2566.601005 778.260534 
L 2593.302513 808.313055 
L 2620.00402 782.017099 
L 2646.705528 774.503969 
L 2673.407035 808.313055 
L 2700.108543 812.06962 
L 2726.81005 778.260534 
L 2753.511558 774.503969 
L 2780.213065 800.799925 
L 2806.914573 793.286795 
L 2833.61608 782.017099 
L 2860.317588 793.286795 
L 2887.019095 774.503969 
L 2913.720603 770.747404 
L 2940.422111 778.260534 
L 2993.825126 770.747404 
L 3020.526633 770.747404 
L 3047.228141 778.260534 
L 3073.929648 766.990839 
L 3100.631156 797.04336 
L 3127.332663 797.04336 
L 3154.034171 793.286795 
L 3180.735678 699.372666 
L 3207.437186 688.102971 
L 3234.138693 703.129231 
L 3260.840201 703.129231 
L 3287.541709 699.372666 
L 3314.243216 785.773664 
L 3340.944724 774.503969 
L 3367.646231 699.372666 
L 3394.347739 766.990839 
L 3421.049246 774.503969 
L 3447.750754 703.129231 
L 3474.452261 688.102971 
L 3501.153769 684.346406 
L 3527.855276 778.260534 
L 3554.556784 703.129231 
L 3581.258291 688.102971 
L 3607.959799 691.859536 
L 3634.661307 699.372666 
L 3661.362814 357.525239 
L 3688.064322 361.281804 
L 3714.765829 357.525239 
L 3768.168844 357.525239 
L 3794.870352 365.038369 
L 3821.571859 263.611111 
L 3848.273367 361.281804 
L 3874.974874 267.367676 
L 3901.676382 259.854545 
L 3928.377889 376.308065 
L 3955.079397 380.06463 
L 3981.780905 473.978758 
L 4008.482412 470.222193 
L 4035.18392 473.978758 
L 4061.885427 466.465628 
L 4088.586935 481.491888 
L 4115.288442 391.334325 
L 4141.98995 473.978758 
L 4168.691457 560.379756 
L 4195.392965 398.847455 
L 4222.094472 402.604021 
L 4248.79598 519.05754 
L 4275.497487 515.300975 
L 4302.198995 564.136321 
L 4328.900503 440.169672 
L 4355.60201 519.05754 
L 4382.303518 519.05754 
L 4409.005025 522.814105 
L 4435.706533 522.814105 
L 4462.40804 830.852446 
L 4489.109548 853.391837 
L 4515.811055 849.635272 
L 4542.512563 1056.246354 
L 4569.21407 875.931228 
L 4595.915578 883.444358 
L 4622.617085 1131.377657 
L 4649.318593 879.687793 
L 4676.020101 988.628182 
L 4702.721608 936.03627 
L 4729.423116 834.609011 
L 4756.124623 812.06962 
L 4782.826131 669.320145 
L 4809.527638 665.56358 
L 4836.229146 1101.325136 
L 4862.930653 676.833275 
L 4889.632161 1048.733224 
L 4916.333668 673.07671 
L 4943.035176 928.523139 
L 4969.736683 917.253444 
L 4996.438191 973.601921 
L 5023.139698 691.859536 
L 5049.841206 879.687793 
L 5076.542714 665.56358 
L 5103.244221 620.484798 
L 5129.945729 879.687793 
L 5156.647236 665.56358 
L 5183.348744 872.174662 
L 5210.050251 849.635272 
L 5236.751759 691.859536 
L 5263.453266 725.668622 
L 5290.154774 695.616101 
L 5316.856281 875.931228 
L 5343.557789 654.293885 
L 5370.259296 827.095881 
L 5396.960804 808.313055 
L 5423.662312 481.491888 
L 5450.363819 624.241364 
L 5477.065327 620.484798 
L 5503.766834 643.024189 
L 5557.169849 673.07671 
L 5583.871357 684.346406 
L 5610.572864 680.589841 
L 5637.274372 372.5515 
L 5663.975879 804.55649 
L 5690.677387 297.420197 
L 5717.378894 673.07671 
L 5744.080402 334.985848 
L 5770.78191 350.012109 
L 5797.483417 376.308065 
L 5824.184925 658.05045 
L 5850.886432 432.656542 
L 5877.58794 650.537319 
L 5904.289447 654.293885 
L 5930.990955 436.413107 
L 5957.692462 658.05045 
L 5984.39397 473.978758 
L 6011.095477 485.248454 
L 6037.796985 665.56358 
L 6064.498492 695.616101 
L 6091.2 703.129231 
L 6091.2 703.129231 
" style="fill:none;stroke:#b73779;stroke-width:3;"/>
   </g>
   <g id="line2d_35">
    <path clip-path="url(#p141849e75e)" d="M 777.6 789.530229 
L 6091.2 789.530229 
" style="fill:none;opacity:0.7;stroke:#000000;stroke-width:1.3;"/>
   </g>
   <g id="patch_3">
    <path d="M 777.6 1180.8 
L 777.6 216 
" style="fill:none;stroke:#000000;stroke-linecap:square;stroke-linejoin:miter;stroke-width:0.8;"/>
   </g>
   <g id="patch_4">
    <path d="M 6091.2 1180.8 
L 6091.2 216 
" style="fill:none;stroke:#000000;stroke-linecap:square;stroke-linejoin:miter;stroke-width:0.8;"/>
   </g>
   <g id="patch_5">
    <path d="M 777.6 1180.8 
L 6091.2 1180.8 
" style="fill:none;stroke:#000000;stroke-linecap:square;stroke-linejoin:miter;stroke-width:0.8;"/>
   </g>
   <g id="patch_6">
    <path d="M 777.6 216 
L 6091.2 216 
" style="fill:none;stroke:#000000;stroke-linecap:square;stroke-linejoin:miter;stroke-width:0.8;"/>
   </g>
   <g id="patch_7">
    <path d="M 0 1440 
L 6480 1440 
L 6480 1416.729153 
L 0 1416.729153 
z
" style="fill:#808080;"/>
   </g>
   <g id="text_19">
    <!-- ©spred -->
    <defs>
     <path d="M 50.90625 25.90625 
L 50.90625 44 
Q 50.90625 52.40625 44.75 58.40625 
Q 38.59375 64.40625 30 64.40625 
Q 21.296875 64.40625 15.09375 58.40625 
Q 8.90625 52.40625 8.90625 44 
L 8.90625 25.90625 
Q 8.90625 17.5 15.09375 11.453125 
Q 21.296875 5.40625 30 5.40625 
Q 38.59375 5.40625 44.75 11.453125 
Q 50.90625 17.5 50.90625 25.90625 
z
M 57.703125 43.203125 
L 57.703125 26.59375 
Q 57.703125 15.203125 49.59375 7.09375 
Q 41.5 -1 30 -1 
Q 18.40625 -1 10.296875 7.09375 
Q 2.203125 15.203125 2.203125 26.59375 
L 2.203125 43.203125 
Q 2.203125 54.59375 10.296875 62.6875 
Q 18.40625 70.796875 30 70.796875 
Q 41.5 70.796875 49.59375 62.6875 
Q 57.703125 54.59375 57.703125 43.203125 
z
M 38.59375 29.40625 
L 41.40625 29.40625 
Q 42.40625 29.40625 42.90625 28.84375 
Q 43.40625 28.296875 43.40625 27.59375 
Q 43.40625 21.59375 39.796875 17.9375 
Q 36.203125 14.296875 30.40625 14.296875 
Q 24.40625 14.296875 20.75 17.9375 
Q 17.09375 21.59375 17.09375 27.09375 
L 17.09375 43.40625 
Q 17.09375 48.703125 20.75 52.390625 
Q 24.40625 56.09375 30.40625 56.09375 
Q 35.90625 56.09375 39.40625 52.25 
Q 42.90625 48.40625 42.90625 42.296875 
Q 42.90625 41.59375 42.40625 41.046875 
Q 41.90625 40.5 40.90625 40.5 
L 38.09375 40.5 
Q 37.09375 40.5 36.546875 41.046875 
Q 36 41.59375 36 42.296875 
Q 36 45.203125 34.390625 47.046875 
Q 32.796875 48.90625 30.40625 48.90625 
Q 27.703125 48.90625 25.796875 46.90625 
Q 23.90625 44.90625 23.90625 42.203125 
L 23.90625 28.203125 
Q 23.90625 25.59375 25.796875 23.59375 
Q 27.703125 21.59375 30.40625 21.59375 
Q 32.90625 21.59375 34.703125 23.1875 
Q 36.5 24.796875 36.5 27.59375 
Q 36.5 28.296875 37.046875 28.84375 
Q 37.59375 29.40625 38.59375 29.40625 
z
" id="DecimaMonoPro-a9"/>
     <path d="M 30.09375 -1 
Q 25.296875 -1 21.546875 0.59375 
Q 17.796875 2.203125 15.84375 4.59375 
Q 13.90625 7 12.953125 9.390625 
Q 12 11.796875 12 14 
Q 12 14.796875 12.5 15.296875 
Q 13 15.796875 13.796875 15.796875 
L 18.296875 15.796875 
Q 19.90625 15.796875 20.09375 14.09375 
Q 20.40625 11.203125 22.796875 8.703125 
Q 25.203125 6.203125 30.09375 6.203125 
Q 34.296875 6.203125 36.890625 8.296875 
Q 39.5 10.40625 39.5 13.59375 
Q 39.5 16.5 36.84375 18.5 
Q 34.203125 20.5 30.390625 21.84375 
Q 26.59375 23.203125 22.84375 24.796875 
Q 19.09375 26.40625 16.4375 29.5 
Q 13.796875 32.59375 13.796875 37.09375 
Q 13.796875 43.296875 18.4375 47.140625 
Q 23.09375 51 30.703125 51 
Q 38.90625 51 43.25 46.5 
Q 47.59375 42 47.59375 37.5 
Q 47.59375 36.796875 47.09375 36.25 
Q 46.59375 35.703125 45.796875 35.703125 
L 41.203125 35.703125 
Q 39.703125 35.703125 39.40625 37.40625 
Q 38.90625 40 36.75 41.890625 
Q 34.59375 43.796875 30.703125 43.796875 
Q 26.90625 43.796875 24.546875 42.09375 
Q 22.203125 40.40625 22.203125 37.703125 
Q 22.203125 35 24.84375 33.09375 
Q 27.5 31.203125 31.25 29.890625 
Q 35 28.59375 38.703125 26.9375 
Q 42.40625 25.296875 45.046875 21.84375 
Q 47.703125 18.40625 47.703125 13.40625 
Q 47.703125 7.40625 42.59375 3.203125 
Q 37.5 -1 30.09375 -1 
z
" id="DecimaMonoPro-73"/>
     <path d="M 42.09375 17.09375 
L 42.09375 33.09375 
Q 42.09375 37.703125 38.84375 40.796875 
Q 35.59375 43.90625 30.5 43.90625 
Q 25.40625 43.90625 22.046875 40.75 
Q 18.703125 37.59375 18.703125 33 
L 18.703125 17.09375 
Q 18.703125 12.5 22.046875 9.390625 
Q 25.40625 6.296875 30.5 6.296875 
Q 35.59375 6.296875 38.84375 9.390625 
Q 42.09375 12.5 42.09375 17.09375 
z
M 18.703125 3.703125 
L 18.796875 -16.203125 
Q 18.796875 -18 16.5 -18 
L 13 -18 
Q 10.703125 -18 10.703125 -16.203125 
L 10.703125 48.203125 
Q 10.703125 50 13 50 
L 15.90625 50 
Q 18.203125 50 18.203125 48.203125 
L 18.203125 45.90625 
Q 18.59375 46.5 19.5 47.34375 
Q 20.40625 48.203125 23.75 49.59375 
Q 27.09375 51 31.296875 51 
Q 39.296875 51 44.796875 45.640625 
Q 50.296875 40.296875 50.296875 32.59375 
L 50.296875 17.40625 
Q 50.296875 9.796875 44.75 4.390625 
Q 39.203125 -1 31.296875 -1 
Q 27.40625 -1 24.25 0.203125 
Q 21.09375 1.40625 19.90625 2.59375 
z
" id="DecimaMonoPro-70"/>
     <path d="M 37.203125 51 
Q 44.09375 51 48.140625 46.453125 
Q 52.203125 41.90625 52.203125 37.5 
Q 52.203125 35.703125 50.5 35.703125 
L 45.90625 35.703125 
Q 44.296875 35.703125 44.09375 37.40625 
Q 43.796875 39.796875 41.75 41.796875 
Q 39.703125 43.796875 36.59375 43.796875 
Q 32.40625 43.796875 29.203125 40.796875 
Q 26 37.796875 26 34 
L 26 7.203125 
L 45.09375 7.203125 
Q 45.796875 7.203125 46.34375 6.703125 
Q 46.90625 6.203125 46.90625 5.40625 
L 46.90625 1.796875 
Q 46.90625 1 46.34375 0.5 
Q 45.796875 0 45.09375 0 
L 9.296875 0 
Q 8.59375 0 8.046875 0.5 
Q 7.5 1 7.5 1.796875 
L 7.5 5.40625 
Q 7.5 6.203125 8.046875 6.703125 
Q 8.59375 7.203125 9.296875 7.203125 
L 18 7.203125 
L 18 48.203125 
Q 18 50 20.296875 50 
L 23.5 50 
Q 25.796875 50 25.796875 48.203125 
L 25.796875 45.703125 
Q 29.796875 51 37.203125 51 
z
" id="DecimaMonoPro-72"/>
     <path d="M 48.796875 13.5 
Q 48.796875 9.09375 43.75 4.046875 
Q 38.703125 -1 30.203125 -1 
Q 21.203125 -1 15.75 4.453125 
Q 10.296875 9.90625 10.296875 17.5 
L 10.296875 32.703125 
Q 10.296875 40.203125 15.75 45.59375 
Q 21.203125 51 30.203125 51 
Q 39.203125 51 44.453125 45.59375 
Q 49.703125 40.203125 49.703125 32.703125 
L 49.703125 24.796875 
Q 49.703125 23.796875 49.046875 23.140625 
Q 48.40625 22.5 47.40625 22.5 
L 18.40625 22.5 
L 18.40625 17 
Q 18.40625 12.5 21.65625 9.296875 
Q 24.90625 6.09375 30.203125 6.09375 
Q 38.5 6.09375 40.59375 13.59375 
Q 41.09375 15.296875 42.40625 15.296875 
L 47 15.296875 
Q 47.796875 15.296875 48.296875 14.75 
Q 48.796875 14.203125 48.796875 13.5 
z
M 18.40625 33 
L 18.40625 29.703125 
L 41.796875 29.703125 
L 41.796875 33 
Q 41.796875 37.5 38.640625 40.640625 
Q 35.5 43.796875 30.203125 43.796875 
Q 24.90625 43.796875 21.65625 40.640625 
Q 18.40625 37.5 18.40625 33 
z
" id="DecimaMonoPro-65"/>
     <path d="M 17.90625 32.90625 
L 17.90625 16.90625 
Q 17.90625 12.296875 21.15625 9.1875 
Q 24.40625 6.09375 29.5 6.09375 
Q 34.59375 6.09375 37.9375 9.25 
Q 41.296875 12.40625 41.296875 17 
L 41.296875 32.90625 
Q 41.296875 37.5 37.9375 40.59375 
Q 34.59375 43.703125 29.5 43.703125 
Q 24.40625 43.703125 21.15625 40.59375 
Q 17.90625 37.5 17.90625 32.90625 
z
M 41.296875 46.296875 
L 41.203125 68.203125 
Q 41.203125 70 43.5 70 
L 47 70 
Q 49.296875 70 49.296875 68.203125 
L 49.296875 1.796875 
Q 49.296875 0 47 0 
L 44.09375 0 
Q 41.796875 0 41.796875 1.796875 
L 41.796875 4.09375 
Q 41.40625 3.5 40.5 2.640625 
Q 39.59375 1.796875 36.25 0.390625 
Q 32.90625 -1 28.703125 -1 
Q 20.703125 -1 15.203125 4.34375 
Q 9.703125 9.703125 9.703125 17.40625 
L 9.703125 32.59375 
Q 9.703125 40.203125 15.25 45.59375 
Q 20.796875 51 28.703125 51 
Q 32.59375 51 35.75 49.796875 
Q 38.90625 48.59375 40.09375 47.40625 
z
" id="DecimaMonoPro-64"/>
    </defs>
    <g style="fill:#ffffff;" transform="translate(64.8 1432.8)scale(0.14 -0.14)">
     <use xlink:href="#DecimaMonoPro-a9"/>
     <use x="59.999985" xlink:href="#DecimaMonoPro-73"/>
     <use x="119.999969" xlink:href="#DecimaMonoPro-70"/>
     <use x="179.999954" xlink:href="#DecimaMonoPro-72"/>
     <use x="239.999939" xlink:href="#DecimaMonoPro-65"/>
     <use x="299.999924" xlink:href="#DecimaMonoPro-64"/>
    </g>
   </g>
   <g id="text_20">
    <!-- XRPBTC_drop -->
    <defs>
     <path d="M 41.40625 70 
L 29 48.40625 
L 16.59375 70 
L 4.296875 70 
L 22.796875 37.59375 
L 1.203125 0 
L 13.703125 0 
L 29 26.703125 
L 44.296875 0 
L 56.796875 0 
L 35.203125 37.59375 
L 53.703125 70 
z
" id="ApercuPro-Medium-58"/>
     <path d="M 54.59375 50.703125 
C 54.59375 62.59375 47.09375 70 33.90625 70 
L 9.40625 70 
L 9.40625 0 
L 20.40625 0 
L 20.40625 31.40625 
L 28.5 31.40625 
L 48.203125 0 
L 61.203125 0 
L 41 32.203125 
C 49.703125 34.5 54.59375 41.09375 54.59375 50.703125 
z
M 34.203125 41.796875 
L 20.40625 41.796875 
L 20.40625 59.59375 
L 34.203125 59.59375 
C 39.5 59.59375 43.40625 56.90625 43.40625 50.703125 
C 43.40625 44.5 39.5 41.796875 34.203125 41.796875 
z
" id="ApercuPro-Medium-52"/>
     <path d="M 34.5 28.59375 
C 48.40625 28.59375 56.203125 37.5 56.203125 49.296875 
C 56.203125 61.09375 48.40625 70 34.5 70 
L 9.40625 70 
L 9.40625 0 
L 20.40625 0 
L 20.40625 28.59375 
z
M 35 39 
L 20.40625 39 
L 20.40625 59.59375 
L 35 59.59375 
C 41.296875 59.59375 45 55.796875 45 49.296875 
C 45 42.796875 41.296875 39 35 39 
z
" id="ApercuPro-Medium-50"/>
     <path d="M 9.40625 70 
L 9.40625 0 
L 35.40625 0 
C 49.203125 0 57.40625 7.5 57.40625 20.59375 
C 57.40625 28.703125 53.296875 35.40625 46.703125 38.203125 
C 50.796875 40.40625 53.796875 46.296875 53.796875 51.703125 
C 53.796875 63.796875 45.796875 70 34.203125 70 
z
M 33.203125 59.59375 
C 39.40625 59.59375 42.796875 56.703125 42.796875 51 
C 42.796875 45.296875 39.40625 42.40625 33.203125 42.40625 
L 20.40625 42.40625 
L 20.40625 59.59375 
z
M 33.90625 32 
C 42 32 46.203125 28.203125 46.203125 21.203125 
C 46.203125 14.203125 42 10.40625 33.90625 10.40625 
L 20.40625 10.40625 
L 20.40625 32 
z
" id="ApercuPro-Medium-42"/>
     <path d="M 1.09375 59.59375 
L 20.703125 59.59375 
L 20.703125 0 
L 31.703125 0 
L 31.703125 59.59375 
L 51.296875 59.59375 
L 51.296875 70 
L 1.09375 70 
z
" id="ApercuPro-Medium-54"/>
     <path d="M 65.796875 49.59375 
C 62.203125 62.796875 52.40625 70.796875 37.5 70.796875 
C 20.59375 70.796875 5.09375 58.703125 5.09375 35 
C 5.09375 11.296875 20.59375 -0.796875 37.5 -0.796875 
C 52.40625 -0.796875 62.203125 7.203125 65.796875 20.40625 
L 55.40625 23 
C 51.90625 14.09375 47 9.59375 37.5 9.59375 
C 25.703125 9.59375 16.296875 17.90625 16.296875 35 
C 16.296875 52.09375 25.703125 60.40625 37.5 60.40625 
C 47 60.40625 51.90625 55.90625 55.40625 47 
z
" id="ApercuPro-Medium-43"/>
     <path d="M 2.703125 -9.203125 
L 47.203125 -9.203125 
L 47.203125 0 
L 2.703125 0 
z
" id="ApercuPro-Medium-5f"/>
     <path d="M 4.90625 25.203125 
C 4.90625 9.09375 12.5 -0.796875 27.40625 -0.796875 
C 34 -0.796875 39.40625 2.90625 41.09375 5.796875 
L 41.09375 0 
L 51.5 0 
L 51.5 70.796875 
L 41.09375 70.796875 
L 41.09375 44.796875 
C 38.796875 48.09375 32.59375 51.203125 27.59375 51.203125 
C 12.5 51.203125 4.90625 40.796875 4.90625 25.203125 
z
M 15.90625 25.203125 
C 15.90625 35.59375 21.296875 42 28.796875 42 
C 36.296875 42 41.703125 35.59375 41.703125 25.203125 
C 41.703125 14.796875 36.296875 8.40625 28.796875 8.40625 
C 21.296875 8.40625 15.90625 14.796875 15.90625 25.203125 
z
" id="ApercuPro-Medium-64"/>
     <path d="M 19 0 
L 19 18.703125 
C 19 34.59375 25.90625 42 32.59375 42 
C 34.703125 42 36.90625 41.5 38.5 40.5 
L 40.296875 50 
C 38.796875 50.59375 36.59375 51.203125 33.90625 51.203125 
C 28.5 51.203125 22.5 48 19 42 
L 19 50.40625 
L 8.59375 50.40625 
L 8.59375 0 
z
" id="ApercuPro-Medium-72"/>
     <path d="M 4.90625 25.203125 
C 4.90625 11 14.09375 -0.796875 29.703125 -0.796875 
C 45.296875 -0.796875 54.5 11 54.5 25.203125 
C 54.5 39.40625 45.296875 51.203125 29.703125 51.203125 
C 14.09375 51.203125 4.90625 39.40625 4.90625 25.203125 
z
M 15.90625 25.203125 
C 15.90625 33.703125 20.59375 42 29.703125 42 
C 38.796875 42 43.5 33.703125 43.5 25.203125 
C 43.5 16.703125 38.796875 8.40625 29.703125 8.40625 
C 20.59375 8.40625 15.90625 16.703125 15.90625 25.203125 
z
" id="ApercuPro-Medium-6f"/>
     <path d="M 55.203125 25.203125 
C 55.203125 41.296875 47.59375 51.203125 32.703125 51.203125 
C 26.09375 51.203125 20.703125 47.5 19 44.59375 
L 19 50.40625 
L 8.59375 50.40625 
L 8.59375 -20.40625 
L 19 -20.40625 
L 19 5.59375 
C 21.296875 2.296875 26.296875 -0.796875 32.5 -0.796875 
C 47.59375 -0.796875 55.203125 9.59375 55.203125 25.203125 
z
M 44.203125 25.203125 
C 44.203125 14.796875 38.796875 8.40625 31.296875 8.40625 
C 23.796875 8.40625 18.40625 14.796875 18.40625 25.203125 
C 18.40625 35.59375 23.796875 42 31.296875 42 
C 38.796875 42 44.203125 35.59375 44.203125 25.203125 
z
" id="ApercuPro-Medium-70"/>
    </defs>
    <g style="opacity:0.75;" transform="translate(1044 144)scale(0.3 -0.3)">
     <use xlink:href="#ApercuPro-Medium-58"/>
     <use x="57.999985" xlink:href="#ApercuPro-Medium-52"/>
     <use x="122.899979" xlink:href="#ApercuPro-Medium-50"/>
     <use x="181.799973" xlink:href="#ApercuPro-Medium-42"/>
     <use x="244.09996" xlink:href="#ApercuPro-Medium-54"/>
     <use x="296.484329" xlink:href="#ApercuPro-Medium-43"/>
     <use x="365.984314" xlink:href="#ApercuPro-Medium-5f"/>
     <use x="415.884308" xlink:href="#ApercuPro-Medium-64"/>
     <use x="475.937424" xlink:href="#ApercuPro-Medium-72"/>
     <use x="517.637421" xlink:href="#ApercuPro-Medium-6f"/>
     <use x="577.037415" xlink:href="#ApercuPro-Medium-70"/>
    </g>
   </g>
   <g id="text_21">
    <!-- None -->
    <defs>
     <path d="M 51.59375 70 
L 60.40625 70 
L 60.40625 0 
L 50.09375 0 
L 18.5 54.5 
L 18.5 0 
L 9.703125 0 
L 9.703125 70 
L 20 70 
L 51.59375 15.296875 
z
" id="Apercu-4e"/>
     <path d="M 12 6.796875 
Q 5.40625 14.5 5.40625 25.203125 
Q 5.40625 35.90625 12.046875 43.546875 
Q 18.703125 51.203125 29.59375 51.203125 
Q 40.5 51.203125 47.140625 43.546875 
Q 53.796875 35.90625 53.796875 25.203125 
Q 53.796875 14.5 47.140625 6.84375 
Q 40.5 -0.796875 29.59375 -0.796875 
Q 18.703125 -0.796875 12 6.796875 
z
M 18.09375 38.09375 
Q 14 32.703125 14 25.203125 
Q 14 17.703125 18.140625 12.25 
Q 22.296875 6.796875 29.59375 6.796875 
Q 36.90625 6.796875 41.046875 12.25 
Q 45.203125 17.703125 45.203125 25.203125 
Q 45.203125 32.703125 41.046875 38.140625 
Q 36.90625 43.59375 29.59375 43.59375 
Q 22.296875 43.59375 18.09375 38.09375 
z
" id="Apercu-6f"/>
     <path d="M 49.09375 35.5 
L 49.09375 0 
L 40.703125 0 
L 40.703125 33.296875 
Q 40.703125 43.59375 32 43.59375 
Q 26.09375 43.59375 21.84375 37.390625 
Q 17.59375 31.203125 17.59375 21.09375 
L 17.59375 0 
L 9.203125 0 
L 9.203125 50.40625 
L 17.59375 50.40625 
L 17.59375 41.09375 
Q 23.296875 51.203125 34.296875 51.203125 
Q 41.203125 51.203125 45.140625 47.09375 
Q 49.09375 43 49.09375 35.5 
z
" id="Apercu-6e"/>
     <path d="M 51 27.296875 
L 51 23.40625 
L 14 23.40625 
Q 14.40625 16 18.046875 11.390625 
Q 21.703125 6.796875 28.203125 6.796875 
Q 33.5 6.796875 36.75 9.140625 
Q 40 11.5 42.203125 16.40625 
L 49.59375 13.203125 
Q 46.09375 5.796875 41.046875 2.5 
Q 36 -0.796875 28.203125 -0.796875 
Q 17.296875 -0.796875 11.34375 6.75 
Q 5.40625 14.296875 5.40625 25.1875 
Q 5.40625 36.09375 11.34375 43.640625 
Q 17.296875 51.203125 28.203125 51.203125 
Q 38.90625 51.203125 44.953125 44.25 
Q 51 37.296875 51 27.296875 
z
M 28.203125 43.59375 
Q 22.59375 43.59375 19.140625 40.1875 
Q 15.703125 36.796875 14.5 31 
L 42.203125 31 
Q 41 36.703125 37.5 40.140625 
Q 34 43.59375 28.203125 43.59375 
z
" id="Apercu-65"/>
    </defs>
    <g style="opacity:0.75;" transform="translate(1045 158.4)scale(0.14 -0.14)">
     <use xlink:href="#Apercu-4e"/>
     <use x="70.099991" xlink:href="#Apercu-6f"/>
     <use x="129.299988" xlink:href="#Apercu-6e"/>
     <use x="186.999985" xlink:href="#Apercu-65"/>
    </g>
   </g>
   <g id="legend_1">
    <g id="patch_8">
     <path d="M 5997.58375 266.736875 
L 6081.4 266.736875 
Q 6084.2 266.736875 6084.2 263.936875 
L 6084.2 225.8 
Q 6084.2 223 6081.4 223 
L 5997.58375 223 
Q 5994.78375 223 5994.78375 225.8 
L 5994.78375 263.936875 
Q 5994.78375 266.736875 5997.58375 266.736875 
z
" style="fill:#f0f0f0;opacity:0.8;stroke:#cccccc;stroke-linejoin:miter;stroke-width:0.5;"/>
    </g>
    <g id="line2d_36">
     <path d="M 6000.38375 233.611563 
L 6028.38375 233.611563 
" style="fill:none;stroke:#000004;stroke-width:3;"/>
    </g>
    <g id="line2d_37"/>
    <g id="text_22">
     <!-- pred -->
     <defs>
      <path d="M 32.296875 -0.796875 
Q 27.796875 -0.796875 23.390625 1.390625 
Q 19 3.59375 17.59375 6 
L 17.59375 -20.40625 
L 9.203125 -20.40625 
L 9.203125 50.40625 
L 17.59375 50.40625 
L 17.59375 44.203125 
Q 19.5 47.09375 23.640625 49.140625 
Q 27.796875 51.203125 32.296875 51.203125 
Q 43.09375 51.203125 48.890625 44.046875 
Q 54.703125 36.90625 54.703125 25.203125 
Q 54.703125 13.5 48.890625 6.34375 
Q 43.09375 -0.796875 32.296875 -0.796875 
z
M 31.5 43.59375 
Q 24.703125 43.59375 20.796875 38.5 
Q 16.90625 33.40625 16.90625 25.203125 
Q 16.90625 17 20.796875 11.890625 
Q 24.703125 6.796875 31.5 6.796875 
Q 38.09375 6.796875 42.09375 11.890625 
Q 46.09375 17 46.09375 25.203125 
Q 46.09375 33.40625 42.09375 38.5 
Q 38.09375 43.59375 31.5 43.59375 
z
" id="Apercu-70"/>
      <path d="M 39.296875 49.703125 
L 37.59375 42.203125 
Q 34.796875 43.59375 31.703125 43.59375 
Q 26 43.59375 21.796875 37.140625 
Q 17.59375 30.703125 17.59375 19.09375 
L 17.59375 0 
L 9.203125 0 
L 9.203125 50.40625 
L 17.59375 50.40625 
L 17.59375 41.796875 
Q 19.796875 46 24 48.59375 
Q 28.203125 51.203125 32.40625 51.203125 
Q 36.5 51.203125 39.296875 49.703125 
z
" id="Apercu-72"/>
      <path d="M 27.796875 51.203125 
Q 32.296875 51.203125 36.6875 49 
Q 41.09375 46.796875 42.5 44.40625 
L 42.5 70.796875 
L 50.90625 70.796875 
L 50.90625 0 
L 42.5 0 
L 42.5 6.203125 
Q 40.59375 3.296875 36.4375 1.25 
Q 32.296875 -0.796875 27.796875 -0.796875 
Q 17 -0.796875 11.203125 6.34375 
Q 5.40625 13.5 5.40625 25.203125 
Q 5.40625 36.90625 11.203125 44.046875 
Q 17 51.203125 27.796875 51.203125 
z
M 28.59375 6.796875 
Q 35.40625 6.796875 39.296875 11.890625 
Q 43.203125 17 43.203125 25.203125 
Q 43.203125 33.40625 39.296875 38.5 
Q 35.40625 43.59375 28.59375 43.59375 
Q 22 43.59375 18 38.5 
Q 14 33.40625 14 25.203125 
Q 14 17 18 11.890625 
Q 22 6.796875 28.59375 6.796875 
z
" id="Apercu-64"/>
     </defs>
     <g style="opacity:0.75;" transform="translate(6039.58375 238.511563)scale(0.14 -0.14)">
      <use xlink:href="#Apercu-70"/>
      <use x="60.099991" xlink:href="#Apercu-72"/>
      <use x="101.399979" xlink:href="#Apercu-65"/>
      <use x="157.399963" xlink:href="#Apercu-64"/>
     </g>
    </g>
    <g id="line2d_38">
     <path d="M 6000.38375 253.38 
L 6028.38375 253.38 
" style="fill:none;stroke:#b73779;stroke-width:3;"/>
    </g>
    <g id="line2d_39"/>
    <g id="text_23">
     <!-- actual -->
     <defs>
      <path d="M 14.203125 14.5 
Q 14.203125 10.90625 16.34375 8.84375 
Q 18.5 6.796875 22.5 6.796875 
Q 28.203125 6.796875 32.390625 10.546875 
Q 36.59375 14.296875 36.59375 22.203125 
L 36.59375 23.40625 
L 27.59375 23.40625 
Q 21.203125 23.40625 17.703125 21.09375 
Q 14.203125 18.796875 14.203125 14.5 
z
M 45 32.203125 
L 45 0 
L 38.40625 0 
L 37 7.09375 
Q 31.5 -0.796875 21.203125 -0.796875 
Q 14.40625 -0.796875 10 3 
Q 5.59375 6.796875 5.59375 14.5 
Q 5.59375 22.5 11.6875 26.75 
Q 17.796875 31 28.40625 31 
L 36.59375 31 
L 36.59375 33.203125 
Q 36.59375 43.59375 25.59375 43.59375 
Q 21.59375 43.59375 18.75 41.5 
Q 15.90625 39.40625 15.09375 35.703125 
L 7.703125 37.40625 
Q 8.703125 43.796875 13.59375 47.5 
Q 18.5 51.203125 25.59375 51.203125 
Q 34.40625 51.203125 39.703125 46.5 
Q 45 41.796875 45 32.203125 
z
" id="Apercu-61"/>
      <path d="M 42.09375 16.09375 
L 49.40625 13.09375 
Q 43.296875 -0.796875 28.296875 -0.796875 
Q 17.296875 -0.796875 11.34375 6.75 
Q 5.40625 14.296875 5.40625 25.1875 
Q 5.40625 36.09375 11.34375 43.640625 
Q 17.296875 51.203125 28.296875 51.203125 
Q 43.296875 51.203125 49.40625 37.296875 
L 42.09375 34.296875 
Q 38.09375 43.59375 28.296875 43.59375 
Q 21.296875 43.59375 17.640625 38.4375 
Q 14 33.296875 14 25.1875 
Q 14 17.09375 17.640625 11.9375 
Q 21.296875 6.796875 28.296875 6.796875 
Q 38.09375 6.796875 42.09375 16.09375 
z
" id="Apercu-63"/>
      <path d="M 2.5 42.796875 
L 2.5 50.40625 
L 11.203125 50.40625 
L 11.203125 65.5 
L 19.59375 70.796875 
L 19.59375 50.40625 
L 32.796875 50.40625 
L 32.796875 42.796875 
L 19.59375 42.796875 
L 19.59375 15.09375 
Q 19.59375 11.09375 21.34375 8.9375 
Q 23.09375 6.796875 26.296875 6.796875 
Q 29.59375 6.796875 32 8.40625 
L 34 1.09375 
Q 30.703125 -0.796875 25.796875 -0.796875 
Q 19.09375 -0.796875 15.140625 3.390625 
Q 11.203125 7.59375 11.203125 15.796875 
L 11.203125 42.796875 
z
" id="Apercu-74"/>
      <path d="M 8.59375 14.90625 
L 8.59375 50.40625 
L 17 50.40625 
L 17 17.09375 
Q 17 6.796875 25.703125 6.796875 
Q 31.59375 6.796875 35.84375 13 
Q 40.09375 19.203125 40.09375 29.296875 
L 40.09375 50.40625 
L 48.5 50.40625 
L 48.5 0 
L 40.09375 0 
L 40.09375 9.296875 
Q 34.40625 -0.796875 23.40625 -0.796875 
Q 16.5 -0.796875 12.546875 3.296875 
Q 8.59375 7.40625 8.59375 14.90625 
z
" id="Apercu-75"/>
      <path d="M 9 70.796875 
L 17.40625 70.796875 
L 17.40625 0 
L 9 0 
z
" id="Apercu-6c"/>
     </defs>
     <g style="opacity:0.75;" transform="translate(6039.58375 258.28)scale(0.14 -0.14)">
      <use xlink:href="#Apercu-61"/>
      <use x="51.799988" xlink:href="#Apercu-63"/>
      <use x="105.615601" xlink:href="#Apercu-74"/>
      <use x="143.399963" xlink:href="#Apercu-75"/>
      <use x="201.09996" xlink:href="#Apercu-61"/>
      <use x="252.899948" xlink:href="#Apercu-6c"/>
     </g>
    </g>
   </g>
  </g>
 </g>
 <defs>
  <clipPath id="p141849e75e">
   <rect height="964.8" width="5313.6" x="777.6" y="216"/>
  </clipPath>
 </defs>
</svg>
