<?xml version="1.0" encoding="utf-8" standalone="no"?>
<!DOCTYPE svg PUBLIC "-//W3C//DTD SVG 1.1//EN"
  "http://www.w3.org/Graphics/SVG/1.1/DTD/svg11.dtd">
<!-- Created with matplotlib (https://matplotlib.org/) -->
<svg height="504pt" version="1.1" viewBox="0 0 504 504" width="504pt" xmlns="http://www.w3.org/2000/svg" xmlns:xlink="http://www.w3.org/1999/xlink">
 <defs>
  <style type="text/css">
*{stroke-linecap:butt;stroke-linejoin:round;}
  </style>
 </defs>
 <g id="figure_1">
  <g id="patch_1">
   <path d="M 0 504 
L 504 504 
L 504 0 
L 0 0 
z
" style="fill:#ffffff;"/>
  </g>
  <g id="axes_1">
   <g id="patch_2">
    <path d="M 63 448.56 
L 453.6 448.56 
L 453.6 60.48 
L 63 60.48 
z
" style="fill:#ffffff;"/>
   </g>
   <g id="patch_3">
    <path clip-path="url(#p2e78e46962)" d="M 190.40086 160016.556122 
L 191.60402 160016.556122 
L 191.60402 78.12 
L 190.40086 78.12 
z
" style="fill:#d490c6;opacity:0.4;"/>
   </g>
   <g id="patch_4">
    <path clip-path="url(#p2e78e46962)" d="M 191.60402 160016.556122 
L 192.80718 160016.556122 
L 192.80718 116.359195 
L 191.60402 116.359195 
z
" style="fill:#d490c6;opacity:0.4;"/>
   </g>
   <g id="patch_5">
    <path clip-path="url(#p2e78e46962)" d="M 192.80718 160016.556122 
L 194.010339 160016.556122 
L 194.010339 126.072328 
L 192.80718 126.072328 
z
" style="fill:#d490c6;opacity:0.4;"/>
   </g>
   <g id="patch_6">
    <path clip-path="url(#p2e78e46962)" d="M 194.010339 160016.556122 
L 195.213499 160016.556122 
L 195.213499 149.809022 
L 194.010339 149.809022 
z
" style="fill:#d490c6;opacity:0.4;"/>
   </g>
   <g id="patch_7">
    <path clip-path="url(#p2e78e46962)" d="M 195.213499 160016.556122 
L 196.416659 160016.556122 
L 196.416659 191.68668 
L 195.213499 191.68668 
z
" style="fill:#d490c6;opacity:0.4;"/>
   </g>
   <g id="patch_8">
    <path clip-path="url(#p2e78e46962)" d="M 196.416659 160016.556122 
L 197.619819 160016.556122 
L 197.619819 160.838669 
L 196.416659 160.838669 
z
" style="fill:#d490c6;opacity:0.4;"/>
   </g>
   <g id="patch_9">
    <path clip-path="url(#p2e78e46962)" d="M 197.619819 160016.556122 
L 198.822978 160016.556122 
L 198.822978 212.041569 
L 197.619819 212.041569 
z
" style="fill:#d490c6;opacity:0.4;"/>
   </g>
   <g id="patch_10">
    <path clip-path="url(#p2e78e46962)" d="M 198.822978 160016.556122 
L 200.026138 160016.556122 
L 200.026138 195.977513 
L 198.822978 195.977513 
z
" style="fill:#d490c6;opacity:0.4;"/>
   </g>
   <g id="patch_11">
    <path clip-path="url(#p2e78e46962)" d="M 200.026138 160016.556122 
L 201.229298 160016.556122 
L 201.229298 214.2146 
L 200.026138 214.2146 
z
" style="fill:#d490c6;opacity:0.4;"/>
   </g>
   <g id="patch_12">
    <path clip-path="url(#p2e78e46962)" d="M 201.229298 160016.556122 
L 202.432458 160016.556122 
L 202.432458 193.216148 
L 201.229298 193.216148 
z
" style="fill:#d490c6;opacity:0.4;"/>
   </g>
   <g id="patch_13">
    <path clip-path="url(#p2e78e46962)" d="M 202.432458 160016.556122 
L 203.635618 160016.556122 
L 203.635618 239.440705 
L 202.432458 239.440705 
z
" style="fill:#d490c6;opacity:0.4;"/>
   </g>
   <g id="patch_14">
    <path clip-path="url(#p2e78e46962)" d="M 203.635618 160016.556122 
L 204.838777 160016.556122 
L 204.838777 220.660539 
L 203.635618 220.660539 
z
" style="fill:#d490c6;opacity:0.4;"/>
   </g>
   <g id="patch_15">
    <path clip-path="url(#p2e78e46962)" d="M 204.838777 160016.556122 
L 206.041937 160016.556122 
L 206.041937 253.780603 
L 204.838777 253.780603 
z
" style="fill:#d490c6;opacity:0.4;"/>
   </g>
   <g id="patch_16">
    <path clip-path="url(#p2e78e46962)" d="M 206.041937 160016.556122 
L 207.245097 160016.556122 
L 207.245097 197.320223 
L 206.041937 197.320223 
z
" style="fill:#d490c6;opacity:0.4;"/>
   </g>
   <g id="patch_17">
    <path clip-path="url(#p2e78e46962)" d="M 207.245097 160016.556122 
L 208.448257 160016.556122 
L 208.448257 335.180352 
L 207.245097 335.180352 
z
" style="fill:#d490c6;opacity:0.4;"/>
   </g>
   <g id="patch_18">
    <path clip-path="url(#p2e78e46962)" d="M 208.448257 160016.556122 
L 209.651416 160016.556122 
L 209.651416 205.910779 
L 208.448257 205.910779 
z
" style="fill:#d490c6;opacity:0.4;"/>
   </g>
   <g id="patch_19">
    <path clip-path="url(#p2e78e46962)" d="M 209.651416 160016.556122 
L 210.854576 160016.556122 
L 210.854576 307.178301 
L 209.651416 307.178301 
z
" style="fill:#d490c6;opacity:0.4;"/>
   </g>
   <g id="patch_20">
    <path clip-path="url(#p2e78e46962)" d="M 210.854576 160016.556122 
L 212.057736 160016.556122 
L 212.057736 211.438653 
L 210.854576 211.438653 
z
" style="fill:#d490c6;opacity:0.4;"/>
   </g>
   <g id="patch_21">
    <path clip-path="url(#p2e78e46962)" d="M 212.057736 160016.556122 
L 213.260896 160016.556122 
L 213.260896 307.178301 
L 212.057736 307.178301 
z
" style="fill:#d490c6;opacity:0.4;"/>
   </g>
   <g id="patch_22">
    <path clip-path="url(#p2e78e46962)" d="M 213.260896 160016.556122 
L 214.464055 160016.556122 
L 214.464055 120.927782 
L 213.260896 120.927782 
z
" style="fill:#d490c6;opacity:0.4;"/>
   </g>
   <g id="patch_23">
    <path clip-path="url(#p2e78e46962)" d="M 214.464055 160016.556122 
L 215.667215 160016.556122 
L 215.667215 296.532415 
L 214.464055 296.532415 
z
" style="fill:#d490c6;opacity:0.4;"/>
   </g>
   <g id="patch_24">
    <path clip-path="url(#p2e78e46962)" d="M 215.667215 160016.556122 
L 216.870375 160016.556122 
L 216.870375 335.180352 
L 215.667215 335.180352 
z
" style="fill:#d490c6;opacity:0.4;"/>
   </g>
   <g id="patch_25">
    <path clip-path="url(#p2e78e46962)" d="M 216.870375 160016.556122 
L 218.073535 160016.556122 
L 218.073535 319.769711 
L 216.870375 319.769711 
z
" style="fill:#d490c6;opacity:0.4;"/>
   </g>
   <g id="patch_26">
    <path clip-path="url(#p2e78e46962)" d="M 218.073535 160016.556122 
L 219.276695 160016.556122 
L 219.276695 319.769711 
L 218.073535 319.769711 
z
" style="fill:#d490c6;opacity:0.4;"/>
   </g>
   <g id="patch_27">
    <path clip-path="url(#p2e78e46962)" d="M 219.276695 160016.556122 
L 220.479854 160016.556122 
L 220.479854 355.048124 
L 219.276695 355.048124 
z
" style="fill:#d490c6;opacity:0.4;"/>
   </g>
   <g id="patch_28">
    <path clip-path="url(#p2e78e46962)" d="M 220.479854 160016.556122 
L 221.683014 160016.556122 
L 221.683014 355.048124 
L 220.479854 355.048124 
z
" style="fill:#d490c6;opacity:0.4;"/>
   </g>
   <g id="patch_29">
    <path clip-path="url(#p2e78e46962)" d="M 221.683014 160016.556122 
L 222.886174 160016.556122 
L 222.886174 335.180352 
L 221.683014 335.180352 
z
" style="fill:#d490c6;opacity:0.4;"/>
   </g>
   <g id="patch_30">
    <path clip-path="url(#p2e78e46962)" d="M 222.886174 160016.556122 
L 224.089334 160016.556122 
L 224.089334 335.180352 
L 222.886174 335.180352 
z
" style="fill:#d490c6;opacity:0.4;"/>
   </g>
   <g id="patch_31">
    <path clip-path="url(#p2e78e46962)" d="M 224.089334 160016.556122 
L 225.292493 160016.556122 
L 225.292493 383.050176 
L 224.089334 383.050176 
z
" style="fill:#d490c6;opacity:0.4;"/>
   </g>
   <g id="patch_32">
    <path clip-path="url(#p2e78e46962)" d="M 225.292493 160016.556122 
L 226.495653 160016.556122 
L 226.495653 287.310529 
L 225.292493 287.310529 
z
" style="fill:#d490c6;opacity:0.4;"/>
   </g>
   <g id="patch_33">
    <path clip-path="url(#p2e78e46962)" d="M 226.495653 160016.556122 
L 227.698813 160016.556122 
L 227.698813 160016.556122 
L 226.495653 160016.556122 
z
" style="fill:#d490c6;opacity:0.4;"/>
   </g>
   <g id="patch_34">
    <path clip-path="url(#p2e78e46962)" d="M 227.698813 160016.556122 
L 228.901973 160016.556122 
L 228.901973 319.769711 
L 227.698813 319.769711 
z
" style="fill:#d490c6;opacity:0.4;"/>
   </g>
   <g id="patch_35">
    <path clip-path="url(#p2e78e46962)" d="M 228.901973 160016.556122 
L 230.105133 160016.556122 
L 230.105133 335.180352 
L 228.901973 335.180352 
z
" style="fill:#d490c6;opacity:0.4;"/>
   </g>
   <g id="patch_36">
    <path clip-path="url(#p2e78e46962)" d="M 230.105133 160016.556122 
L 231.308292 160016.556122 
L 231.308292 319.769711 
L 230.105133 319.769711 
z
" style="fill:#d490c6;opacity:0.4;"/>
   </g>
   <g id="patch_37">
    <path clip-path="url(#p2e78e46962)" d="M 231.308292 160016.556122 
L 232.511452 160016.556122 
L 232.511452 383.050176 
L 231.308292 383.050176 
z
" style="fill:#d490c6;opacity:0.4;"/>
   </g>
   <g id="patch_38">
    <path clip-path="url(#p2e78e46962)" d="M 232.511452 160016.556122 
L 233.714612 160016.556122 
L 233.714612 160016.556122 
L 232.511452 160016.556122 
z
" style="fill:#d490c6;opacity:0.4;"/>
   </g>
   <g id="patch_39">
    <path clip-path="url(#p2e78e46962)" d="M 233.714612 160016.556122 
L 234.917772 160016.556122 
L 234.917772 160016.556122 
L 233.714612 160016.556122 
z
" style="fill:#d490c6;opacity:0.4;"/>
   </g>
   <g id="patch_40">
    <path clip-path="url(#p2e78e46962)" d="M 234.917772 160016.556122 
L 236.120931 160016.556122 
L 236.120931 355.048124 
L 234.917772 355.048124 
z
" style="fill:#d490c6;opacity:0.4;"/>
   </g>
   <g id="patch_41">
    <path clip-path="url(#p2e78e46962)" d="M 236.120931 160016.556122 
L 237.324091 160016.556122 
L 237.324091 355.048124 
L 236.120931 355.048124 
z
" style="fill:#d490c6;opacity:0.4;"/>
   </g>
   <g id="patch_42">
    <path clip-path="url(#p2e78e46962)" d="M 237.324091 160016.556122 
L 238.527251 160016.556122 
L 238.527251 203.304373 
L 237.324091 203.304373 
z
" style="fill:#d490c6;opacity:0.4;"/>
   </g>
   <g id="patch_43">
    <path clip-path="url(#p2e78e46962)" d="M 238.527251 160016.556122 
L 239.730411 160016.556122 
L 239.730411 430.92 
L 238.527251 430.92 
z
" style="fill:#d490c6;opacity:0.4;"/>
   </g>
   <g id="patch_44">
    <path clip-path="url(#p2e78e46962)" d="M 239.730411 160016.556122 
L 240.933571 160016.556122 
L 240.933571 355.048124 
L 239.730411 355.048124 
z
" style="fill:#d490c6;opacity:0.4;"/>
   </g>
   <g id="patch_45">
    <path clip-path="url(#p2e78e46962)" d="M 240.933571 160016.556122 
L 242.13673 160016.556122 
L 242.13673 160016.556122 
L 240.933571 160016.556122 
z
" style="fill:#d490c6;opacity:0.4;"/>
   </g>
   <g id="patch_46">
    <path clip-path="url(#p2e78e46962)" d="M 242.13673 160016.556122 
L 243.33989 160016.556122 
L 243.33989 355.048124 
L 242.13673 355.048124 
z
" style="fill:#d490c6;opacity:0.4;"/>
   </g>
   <g id="patch_47">
    <path clip-path="url(#p2e78e46962)" d="M 243.33989 160016.556122 
L 244.54305 160016.556122 
L 244.54305 430.92 
L 243.33989 430.92 
z
" style="fill:#d490c6;opacity:0.4;"/>
   </g>
   <g id="patch_48">
    <path clip-path="url(#p2e78e46962)" d="M 244.54305 160016.556122 
L 245.74621 160016.556122 
L 245.74621 430.92 
L 244.54305 430.92 
z
" style="fill:#d490c6;opacity:0.4;"/>
   </g>
   <g id="patch_49">
    <path clip-path="url(#p2e78e46962)" d="M 245.74621 160016.556122 
L 246.949369 160016.556122 
L 246.949369 160016.556122 
L 245.74621 160016.556122 
z
" style="fill:#d490c6;opacity:0.4;"/>
   </g>
   <g id="patch_50">
    <path clip-path="url(#p2e78e46962)" d="M 246.949369 160016.556122 
L 248.152529 160016.556122 
L 248.152529 160016.556122 
L 246.949369 160016.556122 
z
" style="fill:#d490c6;opacity:0.4;"/>
   </g>
   <g id="patch_51">
    <path clip-path="url(#p2e78e46962)" d="M 248.152529 160016.556122 
L 249.355689 160016.556122 
L 249.355689 160016.556122 
L 248.152529 160016.556122 
z
" style="fill:#d490c6;opacity:0.4;"/>
   </g>
   <g id="patch_52">
    <path clip-path="url(#p2e78e46962)" d="M 249.355689 160016.556122 
L 250.558849 160016.556122 
L 250.558849 383.050176 
L 249.355689 383.050176 
z
" style="fill:#d490c6;opacity:0.4;"/>
   </g>
   <g id="patch_53">
    <path clip-path="url(#p2e78e46962)" d="M 250.558849 160016.556122 
L 251.762009 160016.556122 
L 251.762009 383.050176 
L 250.558849 383.050176 
z
" style="fill:#d490c6;opacity:0.4;"/>
   </g>
   <g id="patch_54">
    <path clip-path="url(#p2e78e46962)" d="M 251.762009 160016.556122 
L 252.965168 160016.556122 
L 252.965168 383.050176 
L 251.762009 383.050176 
z
" style="fill:#d490c6;opacity:0.4;"/>
   </g>
   <g id="patch_55">
    <path clip-path="url(#p2e78e46962)" d="M 252.965168 160016.556122 
L 254.168328 160016.556122 
L 254.168328 160016.556122 
L 252.965168 160016.556122 
z
" style="fill:#d490c6;opacity:0.4;"/>
   </g>
   <g id="patch_56">
    <path clip-path="url(#p2e78e46962)" d="M 254.168328 160016.556122 
L 255.371488 160016.556122 
L 255.371488 430.92 
L 254.168328 430.92 
z
" style="fill:#d490c6;opacity:0.4;"/>
   </g>
   <g id="patch_57">
    <path clip-path="url(#p2e78e46962)" d="M 255.371488 160016.556122 
L 256.574648 160016.556122 
L 256.574648 383.050176 
L 255.371488 383.050176 
z
" style="fill:#d490c6;opacity:0.4;"/>
   </g>
   <g id="patch_58">
    <path clip-path="url(#p2e78e46962)" d="M 256.574648 160016.556122 
L 257.777807 160016.556122 
L 257.777807 430.92 
L 256.574648 430.92 
z
" style="fill:#d490c6;opacity:0.4;"/>
   </g>
   <g id="patch_59">
    <path clip-path="url(#p2e78e46962)" d="M 257.777807 160016.556122 
L 258.980967 160016.556122 
L 258.980967 383.050176 
L 257.777807 383.050176 
z
" style="fill:#d490c6;opacity:0.4;"/>
   </g>
   <g id="patch_60">
    <path clip-path="url(#p2e78e46962)" d="M 258.980967 160016.556122 
L 260.184127 160016.556122 
L 260.184127 319.769711 
L 258.980967 319.769711 
z
" style="fill:#d490c6;opacity:0.4;"/>
   </g>
   <g id="patch_61">
    <path clip-path="url(#p2e78e46962)" d="M 260.184127 160016.556122 
L 261.387287 160016.556122 
L 261.387287 430.92 
L 260.184127 430.92 
z
" style="fill:#d490c6;opacity:0.4;"/>
   </g>
   <g id="patch_62">
    <path clip-path="url(#p2e78e46962)" d="M 261.387287 160016.556122 
L 262.590447 160016.556122 
L 262.590447 253.780603 
L 261.387287 253.780603 
z
" style="fill:#d490c6;opacity:0.4;"/>
   </g>
   <g id="patch_63">
    <path clip-path="url(#p2e78e46962)" d="M 262.590447 160016.556122 
L 263.793606 160016.556122 
L 263.793606 430.92 
L 262.590447 430.92 
z
" style="fill:#d490c6;opacity:0.4;"/>
   </g>
   <g id="patch_64">
    <path clip-path="url(#p2e78e46962)" d="M 263.793606 160016.556122 
L 264.996766 160016.556122 
L 264.996766 355.048124 
L 263.793606 355.048124 
z
" style="fill:#d490c6;opacity:0.4;"/>
   </g>
   <g id="patch_65">
    <path clip-path="url(#p2e78e46962)" d="M 264.996766 160016.556122 
L 266.199926 160016.556122 
L 266.199926 430.92 
L 264.996766 430.92 
z
" style="fill:#d490c6;opacity:0.4;"/>
   </g>
   <g id="patch_66">
    <path clip-path="url(#p2e78e46962)" d="M 266.199926 160016.556122 
L 267.403086 160016.556122 
L 267.403086 430.92 
L 266.199926 430.92 
z
" style="fill:#d490c6;opacity:0.4;"/>
   </g>
   <g id="patch_67">
    <path clip-path="url(#p2e78e46962)" d="M 267.403086 160016.556122 
L 268.606245 160016.556122 
L 268.606245 160016.556122 
L 267.403086 160016.556122 
z
" style="fill:#d490c6;opacity:0.4;"/>
   </g>
   <g id="patch_68">
    <path clip-path="url(#p2e78e46962)" d="M 268.606245 160016.556122 
L 269.809405 160016.556122 
L 269.809405 160016.556122 
L 268.606245 160016.556122 
z
" style="fill:#d490c6;opacity:0.4;"/>
   </g>
   <g id="patch_69">
    <path clip-path="url(#p2e78e46962)" d="M 269.809405 160016.556122 
L 271.012565 160016.556122 
L 271.012565 160016.556122 
L 269.809405 160016.556122 
z
" style="fill:#d490c6;opacity:0.4;"/>
   </g>
   <g id="patch_70">
    <path clip-path="url(#p2e78e46962)" d="M 271.012565 160016.556122 
L 272.215725 160016.556122 
L 272.215725 383.050176 
L 271.012565 383.050176 
z
" style="fill:#d490c6;opacity:0.4;"/>
   </g>
   <g id="patch_71">
    <path clip-path="url(#p2e78e46962)" d="M 272.215725 160016.556122 
L 273.418885 160016.556122 
L 273.418885 430.92 
L 272.215725 430.92 
z
" style="fill:#d490c6;opacity:0.4;"/>
   </g>
   <g id="patch_72">
    <path clip-path="url(#p2e78e46962)" d="M 273.418885 160016.556122 
L 274.622044 160016.556122 
L 274.622044 383.050176 
L 273.418885 383.050176 
z
" style="fill:#d490c6;opacity:0.4;"/>
   </g>
   <g id="patch_73">
    <path clip-path="url(#p2e78e46962)" d="M 274.622044 160016.556122 
L 275.825204 160016.556122 
L 275.825204 160016.556122 
L 274.622044 160016.556122 
z
" style="fill:#d490c6;opacity:0.4;"/>
   </g>
   <g id="patch_74">
    <path clip-path="url(#p2e78e46962)" d="M 275.825204 160016.556122 
L 277.028364 160016.556122 
L 277.028364 430.92 
L 275.825204 430.92 
z
" style="fill:#d490c6;opacity:0.4;"/>
   </g>
   <g id="patch_75">
    <path clip-path="url(#p2e78e46962)" d="M 277.028364 160016.556122 
L 278.231524 160016.556122 
L 278.231524 160016.556122 
L 277.028364 160016.556122 
z
" style="fill:#d490c6;opacity:0.4;"/>
   </g>
   <g id="patch_76">
    <path clip-path="url(#p2e78e46962)" d="M 278.231524 160016.556122 
L 279.434683 160016.556122 
L 279.434683 160016.556122 
L 278.231524 160016.556122 
z
" style="fill:#d490c6;opacity:0.4;"/>
   </g>
   <g id="patch_77">
    <path clip-path="url(#p2e78e46962)" d="M 279.434683 160016.556122 
L 280.637843 160016.556122 
L 280.637843 160016.556122 
L 279.434683 160016.556122 
z
" style="fill:#d490c6;opacity:0.4;"/>
   </g>
   <g id="patch_78">
    <path clip-path="url(#p2e78e46962)" d="M 280.637843 160016.556122 
L 281.841003 160016.556122 
L 281.841003 430.92 
L 280.637843 430.92 
z
" style="fill:#d490c6;opacity:0.4;"/>
   </g>
   <g id="patch_79">
    <path clip-path="url(#p2e78e46962)" d="M 281.841003 160016.556122 
L 283.044163 160016.556122 
L 283.044163 355.048124 
L 281.841003 355.048124 
z
" style="fill:#d490c6;opacity:0.4;"/>
   </g>
   <g id="patch_80">
    <path clip-path="url(#p2e78e46962)" d="M 283.044163 160016.556122 
L 284.247323 160016.556122 
L 284.247323 160016.556122 
L 283.044163 160016.556122 
z
" style="fill:#d490c6;opacity:0.4;"/>
   </g>
   <g id="patch_81">
    <path clip-path="url(#p2e78e46962)" d="M 284.247323 160016.556122 
L 285.450482 160016.556122 
L 285.450482 160016.556122 
L 284.247323 160016.556122 
z
" style="fill:#d490c6;opacity:0.4;"/>
   </g>
   <g id="patch_82">
    <path clip-path="url(#p2e78e46962)" d="M 285.450482 160016.556122 
L 286.653642 160016.556122 
L 286.653642 231.306425 
L 285.450482 231.306425 
z
" style="fill:#d490c6;opacity:0.4;"/>
   </g>
   <g id="patch_83">
    <path clip-path="url(#p2e78e46962)" d="M 286.653642 160016.556122 
L 287.856802 160016.556122 
L 287.856802 383.050176 
L 286.653642 383.050176 
z
" style="fill:#d490c6;opacity:0.4;"/>
   </g>
   <g id="patch_84">
    <path clip-path="url(#p2e78e46962)" d="M 287.856802 160016.556122 
L 289.059962 160016.556122 
L 289.059962 430.92 
L 287.856802 430.92 
z
" style="fill:#d490c6;opacity:0.4;"/>
   </g>
   <g id="patch_85">
    <path clip-path="url(#p2e78e46962)" d="M 289.059962 160016.556122 
L 290.263121 160016.556122 
L 290.263121 160016.556122 
L 289.059962 160016.556122 
z
" style="fill:#d490c6;opacity:0.4;"/>
   </g>
   <g id="patch_86">
    <path clip-path="url(#p2e78e46962)" d="M 290.263121 160016.556122 
L 291.466281 160016.556122 
L 291.466281 160016.556122 
L 290.263121 160016.556122 
z
" style="fill:#d490c6;opacity:0.4;"/>
   </g>
   <g id="patch_87">
    <path clip-path="url(#p2e78e46962)" d="M 291.466281 160016.556122 
L 292.669441 160016.556122 
L 292.669441 160016.556122 
L 291.466281 160016.556122 
z
" style="fill:#d490c6;opacity:0.4;"/>
   </g>
   <g id="patch_88">
    <path clip-path="url(#p2e78e46962)" d="M 292.669441 160016.556122 
L 293.872601 160016.556122 
L 293.872601 160016.556122 
L 292.669441 160016.556122 
z
" style="fill:#d490c6;opacity:0.4;"/>
   </g>
   <g id="patch_89">
    <path clip-path="url(#p2e78e46962)" d="M 293.872601 160016.556122 
L 295.075761 160016.556122 
L 295.075761 430.92 
L 293.872601 430.92 
z
" style="fill:#d490c6;opacity:0.4;"/>
   </g>
   <g id="patch_90">
    <path clip-path="url(#p2e78e46962)" d="M 295.075761 160016.556122 
L 296.27892 160016.556122 
L 296.27892 160016.556122 
L 295.075761 160016.556122 
z
" style="fill:#d490c6;opacity:0.4;"/>
   </g>
   <g id="patch_91">
    <path clip-path="url(#p2e78e46962)" d="M 296.27892 160016.556122 
L 297.48208 160016.556122 
L 297.48208 160016.556122 
L 296.27892 160016.556122 
z
" style="fill:#d490c6;opacity:0.4;"/>
   </g>
   <g id="patch_92">
    <path clip-path="url(#p2e78e46962)" d="M 297.48208 160016.556122 
L 298.68524 160016.556122 
L 298.68524 430.92 
L 297.48208 430.92 
z
" style="fill:#d490c6;opacity:0.4;"/>
   </g>
   <g id="patch_93">
    <path clip-path="url(#p2e78e46962)" d="M 298.68524 160016.556122 
L 299.8884 160016.556122 
L 299.8884 160016.556122 
L 298.68524 160016.556122 
z
" style="fill:#d490c6;opacity:0.4;"/>
   </g>
   <g id="patch_94">
    <path clip-path="url(#p2e78e46962)" d="M 299.8884 160016.556122 
L 301.091559 160016.556122 
L 301.091559 430.92 
L 299.8884 430.92 
z
" style="fill:#d490c6;opacity:0.4;"/>
   </g>
   <g id="patch_95">
    <path clip-path="url(#p2e78e46962)" d="M 301.091559 160016.556122 
L 302.294719 160016.556122 
L 302.294719 160016.556122 
L 301.091559 160016.556122 
z
" style="fill:#d490c6;opacity:0.4;"/>
   </g>
   <g id="patch_96">
    <path clip-path="url(#p2e78e46962)" d="M 302.294719 160016.556122 
L 303.497879 160016.556122 
L 303.497879 160016.556122 
L 302.294719 160016.556122 
z
" style="fill:#d490c6;opacity:0.4;"/>
   </g>
   <g id="patch_97">
    <path clip-path="url(#p2e78e46962)" d="M 303.497879 160016.556122 
L 304.701039 160016.556122 
L 304.701039 160016.556122 
L 303.497879 160016.556122 
z
" style="fill:#d490c6;opacity:0.4;"/>
   </g>
   <g id="patch_98">
    <path clip-path="url(#p2e78e46962)" d="M 304.701039 160016.556122 
L 305.904199 160016.556122 
L 305.904199 430.92 
L 304.701039 430.92 
z
" style="fill:#d490c6;opacity:0.4;"/>
   </g>
   <g id="patch_99">
    <path clip-path="url(#p2e78e46962)" d="M 305.904199 160016.556122 
L 307.107358 160016.556122 
L 307.107358 383.050176 
L 305.904199 383.050176 
z
" style="fill:#d490c6;opacity:0.4;"/>
   </g>
   <g id="patch_100">
    <path clip-path="url(#p2e78e46962)" d="M 307.107358 160016.556122 
L 308.310518 160016.556122 
L 308.310518 160016.556122 
L 307.107358 160016.556122 
z
" style="fill:#d490c6;opacity:0.4;"/>
   </g>
   <g id="patch_101">
    <path clip-path="url(#p2e78e46962)" d="M 308.310518 160016.556122 
L 309.513678 160016.556122 
L 309.513678 383.050176 
L 308.310518 383.050176 
z
" style="fill:#d490c6;opacity:0.4;"/>
   </g>
   <g id="patch_102">
    <path clip-path="url(#p2e78e46962)" d="M 309.513678 160016.556122 
L 310.716838 160016.556122 
L 310.716838 287.310529 
L 309.513678 287.310529 
z
" style="fill:#d490c6;opacity:0.4;"/>
   </g>
   <g id="patch_103">
    <path clip-path="url(#p2e78e46962)" d="M 310.716838 160016.556122 
L 311.919997 160016.556122 
L 311.919997 160016.556122 
L 310.716838 160016.556122 
z
" style="fill:#d490c6;opacity:0.4;"/>
   </g>
   <g id="patch_104">
    <path clip-path="url(#p2e78e46962)" d="M 311.919997 160016.556122 
L 313.123157 160016.556122 
L 313.123157 160016.556122 
L 311.919997 160016.556122 
z
" style="fill:#d490c6;opacity:0.4;"/>
   </g>
   <g id="patch_105">
    <path clip-path="url(#p2e78e46962)" d="M 313.123157 160016.556122 
L 314.326317 160016.556122 
L 314.326317 383.050176 
L 313.123157 383.050176 
z
" style="fill:#d490c6;opacity:0.4;"/>
   </g>
   <g id="patch_106">
    <path clip-path="url(#p2e78e46962)" d="M 314.326317 160016.556122 
L 315.529477 160016.556122 
L 315.529477 160016.556122 
L 314.326317 160016.556122 
z
" style="fill:#d490c6;opacity:0.4;"/>
   </g>
   <g id="patch_107">
    <path clip-path="url(#p2e78e46962)" d="M 315.529477 160016.556122 
L 316.732637 160016.556122 
L 316.732637 160016.556122 
L 315.529477 160016.556122 
z
" style="fill:#d490c6;opacity:0.4;"/>
   </g>
   <g id="patch_108">
    <path clip-path="url(#p2e78e46962)" d="M 316.732637 160016.556122 
L 317.935796 160016.556122 
L 317.935796 160016.556122 
L 316.732637 160016.556122 
z
" style="fill:#d490c6;opacity:0.4;"/>
   </g>
   <g id="patch_109">
    <path clip-path="url(#p2e78e46962)" d="M 317.935796 160016.556122 
L 319.138956 160016.556122 
L 319.138956 160016.556122 
L 317.935796 160016.556122 
z
" style="fill:#d490c6;opacity:0.4;"/>
   </g>
   <g id="patch_110">
    <path clip-path="url(#p2e78e46962)" d="M 319.138956 160016.556122 
L 320.342116 160016.556122 
L 320.342116 430.92 
L 319.138956 430.92 
z
" style="fill:#d490c6;opacity:0.4;"/>
   </g>
   <g id="patch_111">
    <path clip-path="url(#p2e78e46962)" d="M 320.342116 160016.556122 
L 321.545276 160016.556122 
L 321.545276 160016.556122 
L 320.342116 160016.556122 
z
" style="fill:#d490c6;opacity:0.4;"/>
   </g>
   <g id="patch_112">
    <path clip-path="url(#p2e78e46962)" d="M 321.545276 160016.556122 
L 322.748435 160016.556122 
L 322.748435 160016.556122 
L 321.545276 160016.556122 
z
" style="fill:#d490c6;opacity:0.4;"/>
   </g>
   <g id="patch_113">
    <path clip-path="url(#p2e78e46962)" d="M 322.748435 160016.556122 
L 323.951595 160016.556122 
L 323.951595 160016.556122 
L 322.748435 160016.556122 
z
" style="fill:#d490c6;opacity:0.4;"/>
   </g>
   <g id="patch_114">
    <path clip-path="url(#p2e78e46962)" d="M 323.951595 160016.556122 
L 325.154755 160016.556122 
L 325.154755 160016.556122 
L 323.951595 160016.556122 
z
" style="fill:#d490c6;opacity:0.4;"/>
   </g>
   <g id="patch_115">
    <path clip-path="url(#p2e78e46962)" d="M 325.154755 160016.556122 
L 326.357915 160016.556122 
L 326.357915 160016.556122 
L 325.154755 160016.556122 
z
" style="fill:#d490c6;opacity:0.4;"/>
   </g>
   <g id="patch_116">
    <path clip-path="url(#p2e78e46962)" d="M 326.357915 160016.556122 
L 327.561075 160016.556122 
L 327.561075 430.92 
L 326.357915 430.92 
z
" style="fill:#d490c6;opacity:0.4;"/>
   </g>
   <g id="patch_117">
    <path clip-path="url(#p2e78e46962)" d="M 327.561075 160016.556122 
L 328.764234 160016.556122 
L 328.764234 160016.556122 
L 327.561075 160016.556122 
z
" style="fill:#d490c6;opacity:0.4;"/>
   </g>
   <g id="patch_118">
    <path clip-path="url(#p2e78e46962)" d="M 328.764234 160016.556122 
L 329.967394 160016.556122 
L 329.967394 160016.556122 
L 328.764234 160016.556122 
z
" style="fill:#d490c6;opacity:0.4;"/>
   </g>
   <g id="patch_119">
    <path clip-path="url(#p2e78e46962)" d="M 329.967394 160016.556122 
L 331.170554 160016.556122 
L 331.170554 160016.556122 
L 329.967394 160016.556122 
z
" style="fill:#d490c6;opacity:0.4;"/>
   </g>
   <g id="patch_120">
    <path clip-path="url(#p2e78e46962)" d="M 331.170554 160016.556122 
L 332.373714 160016.556122 
L 332.373714 160016.556122 
L 331.170554 160016.556122 
z
" style="fill:#d490c6;opacity:0.4;"/>
   </g>
   <g id="patch_121">
    <path clip-path="url(#p2e78e46962)" d="M 332.373714 160016.556122 
L 333.576873 160016.556122 
L 333.576873 160016.556122 
L 332.373714 160016.556122 
z
" style="fill:#d490c6;opacity:0.4;"/>
   </g>
   <g id="patch_122">
    <path clip-path="url(#p2e78e46962)" d="M 333.576873 160016.556122 
L 334.780033 160016.556122 
L 334.780033 160016.556122 
L 333.576873 160016.556122 
z
" style="fill:#d490c6;opacity:0.4;"/>
   </g>
   <g id="patch_123">
    <path clip-path="url(#p2e78e46962)" d="M 334.780033 160016.556122 
L 335.983193 160016.556122 
L 335.983193 160016.556122 
L 334.780033 160016.556122 
z
" style="fill:#d490c6;opacity:0.4;"/>
   </g>
   <g id="patch_124">
    <path clip-path="url(#p2e78e46962)" d="M 335.983193 160016.556122 
L 337.186353 160016.556122 
L 337.186353 160016.556122 
L 335.983193 160016.556122 
z
" style="fill:#d490c6;opacity:0.4;"/>
   </g>
   <g id="patch_125">
    <path clip-path="url(#p2e78e46962)" d="M 337.186353 160016.556122 
L 338.389513 160016.556122 
L 338.389513 160016.556122 
L 337.186353 160016.556122 
z
" style="fill:#d490c6;opacity:0.4;"/>
   </g>
   <g id="patch_126">
    <path clip-path="url(#p2e78e46962)" d="M 338.389513 160016.556122 
L 339.592672 160016.556122 
L 339.592672 160016.556122 
L 338.389513 160016.556122 
z
" style="fill:#d490c6;opacity:0.4;"/>
   </g>
   <g id="patch_127">
    <path clip-path="url(#p2e78e46962)" d="M 339.592672 160016.556122 
L 340.795832 160016.556122 
L 340.795832 430.92 
L 339.592672 430.92 
z
" style="fill:#d490c6;opacity:0.4;"/>
   </g>
   <g id="patch_128">
    <path clip-path="url(#p2e78e46962)" d="M 340.795832 160016.556122 
L 341.998992 160016.556122 
L 341.998992 430.92 
L 340.795832 430.92 
z
" style="fill:#d490c6;opacity:0.4;"/>
   </g>
   <g id="patch_129">
    <path clip-path="url(#p2e78e46962)" d="M 341.998992 160016.556122 
L 343.202152 160016.556122 
L 343.202152 160016.556122 
L 341.998992 160016.556122 
z
" style="fill:#d490c6;opacity:0.4;"/>
   </g>
   <g id="patch_130">
    <path clip-path="url(#p2e78e46962)" d="M 343.202152 160016.556122 
L 344.405311 160016.556122 
L 344.405311 160016.556122 
L 343.202152 160016.556122 
z
" style="fill:#d490c6;opacity:0.4;"/>
   </g>
   <g id="patch_131">
    <path clip-path="url(#p2e78e46962)" d="M 344.405311 160016.556122 
L 345.608471 160016.556122 
L 345.608471 160016.556122 
L 344.405311 160016.556122 
z
" style="fill:#d490c6;opacity:0.4;"/>
   </g>
   <g id="patch_132">
    <path clip-path="url(#p2e78e46962)" d="M 345.608471 160016.556122 
L 346.811631 160016.556122 
L 346.811631 160016.556122 
L 345.608471 160016.556122 
z
" style="fill:#d490c6;opacity:0.4;"/>
   </g>
   <g id="patch_133">
    <path clip-path="url(#p2e78e46962)" d="M 346.811631 160016.556122 
L 348.014791 160016.556122 
L 348.014791 160016.556122 
L 346.811631 160016.556122 
z
" style="fill:#d490c6;opacity:0.4;"/>
   </g>
   <g id="patch_134">
    <path clip-path="url(#p2e78e46962)" d="M 348.014791 160016.556122 
L 349.217951 160016.556122 
L 349.217951 160016.556122 
L 348.014791 160016.556122 
z
" style="fill:#d490c6;opacity:0.4;"/>
   </g>
   <g id="patch_135">
    <path clip-path="url(#p2e78e46962)" d="M 349.217951 160016.556122 
L 350.42111 160016.556122 
L 350.42111 160016.556122 
L 349.217951 160016.556122 
z
" style="fill:#d490c6;opacity:0.4;"/>
   </g>
   <g id="patch_136">
    <path clip-path="url(#p2e78e46962)" d="M 350.42111 160016.556122 
L 351.62427 160016.556122 
L 351.62427 160016.556122 
L 350.42111 160016.556122 
z
" style="fill:#d490c6;opacity:0.4;"/>
   </g>
   <g id="patch_137">
    <path clip-path="url(#p2e78e46962)" d="M 351.62427 160016.556122 
L 352.82743 160016.556122 
L 352.82743 160016.556122 
L 351.62427 160016.556122 
z
" style="fill:#d490c6;opacity:0.4;"/>
   </g>
   <g id="patch_138">
    <path clip-path="url(#p2e78e46962)" d="M 352.82743 160016.556122 
L 354.03059 160016.556122 
L 354.03059 160016.556122 
L 352.82743 160016.556122 
z
" style="fill:#d490c6;opacity:0.4;"/>
   </g>
   <g id="patch_139">
    <path clip-path="url(#p2e78e46962)" d="M 354.03059 160016.556122 
L 355.233749 160016.556122 
L 355.233749 160016.556122 
L 354.03059 160016.556122 
z
" style="fill:#d490c6;opacity:0.4;"/>
   </g>
   <g id="patch_140">
    <path clip-path="url(#p2e78e46962)" d="M 355.233749 160016.556122 
L 356.436909 160016.556122 
L 356.436909 160016.556122 
L 355.233749 160016.556122 
z
" style="fill:#d490c6;opacity:0.4;"/>
   </g>
   <g id="patch_141">
    <path clip-path="url(#p2e78e46962)" d="M 356.436909 160016.556122 
L 357.640069 160016.556122 
L 357.640069 160016.556122 
L 356.436909 160016.556122 
z
" style="fill:#d490c6;opacity:0.4;"/>
   </g>
   <g id="patch_142">
    <path clip-path="url(#p2e78e46962)" d="M 357.640069 160016.556122 
L 358.843229 160016.556122 
L 358.843229 160016.556122 
L 357.640069 160016.556122 
z
" style="fill:#d490c6;opacity:0.4;"/>
   </g>
   <g id="patch_143">
    <path clip-path="url(#p2e78e46962)" d="M 358.843229 160016.556122 
L 360.046389 160016.556122 
L 360.046389 160016.556122 
L 358.843229 160016.556122 
z
" style="fill:#d490c6;opacity:0.4;"/>
   </g>
   <g id="patch_144">
    <path clip-path="url(#p2e78e46962)" d="M 360.046389 160016.556122 
L 361.249548 160016.556122 
L 361.249548 160016.556122 
L 360.046389 160016.556122 
z
" style="fill:#d490c6;opacity:0.4;"/>
   </g>
   <g id="patch_145">
    <path clip-path="url(#p2e78e46962)" d="M 361.249548 160016.556122 
L 362.452708 160016.556122 
L 362.452708 160016.556122 
L 361.249548 160016.556122 
z
" style="fill:#d490c6;opacity:0.4;"/>
   </g>
   <g id="patch_146">
    <path clip-path="url(#p2e78e46962)" d="M 362.452708 160016.556122 
L 363.655868 160016.556122 
L 363.655868 160016.556122 
L 362.452708 160016.556122 
z
" style="fill:#d490c6;opacity:0.4;"/>
   </g>
   <g id="patch_147">
    <path clip-path="url(#p2e78e46962)" d="M 363.655868 160016.556122 
L 364.859028 160016.556122 
L 364.859028 160016.556122 
L 363.655868 160016.556122 
z
" style="fill:#d490c6;opacity:0.4;"/>
   </g>
   <g id="patch_148">
    <path clip-path="url(#p2e78e46962)" d="M 364.859028 160016.556122 
L 366.062187 160016.556122 
L 366.062187 160016.556122 
L 364.859028 160016.556122 
z
" style="fill:#d490c6;opacity:0.4;"/>
   </g>
   <g id="patch_149">
    <path clip-path="url(#p2e78e46962)" d="M 366.062187 160016.556122 
L 367.265347 160016.556122 
L 367.265347 160016.556122 
L 366.062187 160016.556122 
z
" style="fill:#d490c6;opacity:0.4;"/>
   </g>
   <g id="patch_150">
    <path clip-path="url(#p2e78e46962)" d="M 367.265347 160016.556122 
L 368.468507 160016.556122 
L 368.468507 160016.556122 
L 367.265347 160016.556122 
z
" style="fill:#d490c6;opacity:0.4;"/>
   </g>
   <g id="patch_151">
    <path clip-path="url(#p2e78e46962)" d="M 368.468507 160016.556122 
L 369.671667 160016.556122 
L 369.671667 160016.556122 
L 368.468507 160016.556122 
z
" style="fill:#d490c6;opacity:0.4;"/>
   </g>
   <g id="patch_152">
    <path clip-path="url(#p2e78e46962)" d="M 369.671667 160016.556122 
L 370.874827 160016.556122 
L 370.874827 160016.556122 
L 369.671667 160016.556122 
z
" style="fill:#d490c6;opacity:0.4;"/>
   </g>
   <g id="patch_153">
    <path clip-path="url(#p2e78e46962)" d="M 370.874827 160016.556122 
L 372.077986 160016.556122 
L 372.077986 160016.556122 
L 370.874827 160016.556122 
z
" style="fill:#d490c6;opacity:0.4;"/>
   </g>
   <g id="patch_154">
    <path clip-path="url(#p2e78e46962)" d="M 372.077986 160016.556122 
L 373.281146 160016.556122 
L 373.281146 160016.556122 
L 372.077986 160016.556122 
z
" style="fill:#d490c6;opacity:0.4;"/>
   </g>
   <g id="patch_155">
    <path clip-path="url(#p2e78e46962)" d="M 373.281146 160016.556122 
L 374.484306 160016.556122 
L 374.484306 160016.556122 
L 373.281146 160016.556122 
z
" style="fill:#d490c6;opacity:0.4;"/>
   </g>
   <g id="patch_156">
    <path clip-path="url(#p2e78e46962)" d="M 374.484306 160016.556122 
L 375.687466 160016.556122 
L 375.687466 160016.556122 
L 374.484306 160016.556122 
z
" style="fill:#d490c6;opacity:0.4;"/>
   </g>
   <g id="patch_157">
    <path clip-path="url(#p2e78e46962)" d="M 375.687466 160016.556122 
L 376.890625 160016.556122 
L 376.890625 160016.556122 
L 375.687466 160016.556122 
z
" style="fill:#d490c6;opacity:0.4;"/>
   </g>
   <g id="patch_158">
    <path clip-path="url(#p2e78e46962)" d="M 376.890625 160016.556122 
L 378.093785 160016.556122 
L 378.093785 160016.556122 
L 376.890625 160016.556122 
z
" style="fill:#d490c6;opacity:0.4;"/>
   </g>
   <g id="patch_159">
    <path clip-path="url(#p2e78e46962)" d="M 378.093785 160016.556122 
L 379.296945 160016.556122 
L 379.296945 160016.556122 
L 378.093785 160016.556122 
z
" style="fill:#d490c6;opacity:0.4;"/>
   </g>
   <g id="patch_160">
    <path clip-path="url(#p2e78e46962)" d="M 379.296945 160016.556122 
L 380.500105 160016.556122 
L 380.500105 160016.556122 
L 379.296945 160016.556122 
z
" style="fill:#d490c6;opacity:0.4;"/>
   </g>
   <g id="patch_161">
    <path clip-path="url(#p2e78e46962)" d="M 380.500105 160016.556122 
L 381.703265 160016.556122 
L 381.703265 160016.556122 
L 380.500105 160016.556122 
z
" style="fill:#d490c6;opacity:0.4;"/>
   </g>
   <g id="patch_162">
    <path clip-path="url(#p2e78e46962)" d="M 381.703265 160016.556122 
L 382.906424 160016.556122 
L 382.906424 160016.556122 
L 381.703265 160016.556122 
z
" style="fill:#d490c6;opacity:0.4;"/>
   </g>
   <g id="patch_163">
    <path clip-path="url(#p2e78e46962)" d="M 382.906424 160016.556122 
L 384.109584 160016.556122 
L 384.109584 160016.556122 
L 382.906424 160016.556122 
z
" style="fill:#d490c6;opacity:0.4;"/>
   </g>
   <g id="patch_164">
    <path clip-path="url(#p2e78e46962)" d="M 384.109584 160016.556122 
L 385.312744 160016.556122 
L 385.312744 160016.556122 
L 384.109584 160016.556122 
z
" style="fill:#d490c6;opacity:0.4;"/>
   </g>
   <g id="patch_165">
    <path clip-path="url(#p2e78e46962)" d="M 385.312744 160016.556122 
L 386.515904 160016.556122 
L 386.515904 160016.556122 
L 385.312744 160016.556122 
z
" style="fill:#d490c6;opacity:0.4;"/>
   </g>
   <g id="patch_166">
    <path clip-path="url(#p2e78e46962)" d="M 386.515904 160016.556122 
L 387.719063 160016.556122 
L 387.719063 160016.556122 
L 386.515904 160016.556122 
z
" style="fill:#d490c6;opacity:0.4;"/>
   </g>
   <g id="patch_167">
    <path clip-path="url(#p2e78e46962)" d="M 387.719063 160016.556122 
L 388.922223 160016.556122 
L 388.922223 160016.556122 
L 387.719063 160016.556122 
z
" style="fill:#d490c6;opacity:0.4;"/>
   </g>
   <g id="patch_168">
    <path clip-path="url(#p2e78e46962)" d="M 388.922223 160016.556122 
L 390.125383 160016.556122 
L 390.125383 160016.556122 
L 388.922223 160016.556122 
z
" style="fill:#d490c6;opacity:0.4;"/>
   </g>
   <g id="patch_169">
    <path clip-path="url(#p2e78e46962)" d="M 390.125383 160016.556122 
L 391.328543 160016.556122 
L 391.328543 160016.556122 
L 390.125383 160016.556122 
z
" style="fill:#d490c6;opacity:0.4;"/>
   </g>
   <g id="patch_170">
    <path clip-path="url(#p2e78e46962)" d="M 391.328543 160016.556122 
L 392.531703 160016.556122 
L 392.531703 160016.556122 
L 391.328543 160016.556122 
z
" style="fill:#d490c6;opacity:0.4;"/>
   </g>
   <g id="patch_171">
    <path clip-path="url(#p2e78e46962)" d="M 392.531703 160016.556122 
L 393.734862 160016.556122 
L 393.734862 160016.556122 
L 392.531703 160016.556122 
z
" style="fill:#d490c6;opacity:0.4;"/>
   </g>
   <g id="patch_172">
    <path clip-path="url(#p2e78e46962)" d="M 393.734862 160016.556122 
L 394.938022 160016.556122 
L 394.938022 160016.556122 
L 393.734862 160016.556122 
z
" style="fill:#d490c6;opacity:0.4;"/>
   </g>
   <g id="patch_173">
    <path clip-path="url(#p2e78e46962)" d="M 394.938022 160016.556122 
L 396.141182 160016.556122 
L 396.141182 160016.556122 
L 394.938022 160016.556122 
z
" style="fill:#d490c6;opacity:0.4;"/>
   </g>
   <g id="patch_174">
    <path clip-path="url(#p2e78e46962)" d="M 396.141182 160016.556122 
L 397.344342 160016.556122 
L 397.344342 160016.556122 
L 396.141182 160016.556122 
z
" style="fill:#d490c6;opacity:0.4;"/>
   </g>
   <g id="patch_175">
    <path clip-path="url(#p2e78e46962)" d="M 397.344342 160016.556122 
L 398.547501 160016.556122 
L 398.547501 160016.556122 
L 397.344342 160016.556122 
z
" style="fill:#d490c6;opacity:0.4;"/>
   </g>
   <g id="patch_176">
    <path clip-path="url(#p2e78e46962)" d="M 398.547501 160016.556122 
L 399.750661 160016.556122 
L 399.750661 160016.556122 
L 398.547501 160016.556122 
z
" style="fill:#d490c6;opacity:0.4;"/>
   </g>
   <g id="patch_177">
    <path clip-path="url(#p2e78e46962)" d="M 399.750661 160016.556122 
L 400.953821 160016.556122 
L 400.953821 160016.556122 
L 399.750661 160016.556122 
z
" style="fill:#d490c6;opacity:0.4;"/>
   </g>
   <g id="patch_178">
    <path clip-path="url(#p2e78e46962)" d="M 400.953821 160016.556122 
L 402.156981 160016.556122 
L 402.156981 160016.556122 
L 400.953821 160016.556122 
z
" style="fill:#d490c6;opacity:0.4;"/>
   </g>
   <g id="patch_179">
    <path clip-path="url(#p2e78e46962)" d="M 402.156981 160016.556122 
L 403.360141 160016.556122 
L 403.360141 160016.556122 
L 402.156981 160016.556122 
z
" style="fill:#d490c6;opacity:0.4;"/>
   </g>
   <g id="patch_180">
    <path clip-path="url(#p2e78e46962)" d="M 403.360141 160016.556122 
L 404.5633 160016.556122 
L 404.5633 160016.556122 
L 403.360141 160016.556122 
z
" style="fill:#d490c6;opacity:0.4;"/>
   </g>
   <g id="patch_181">
    <path clip-path="url(#p2e78e46962)" d="M 404.5633 160016.556122 
L 405.76646 160016.556122 
L 405.76646 160016.556122 
L 404.5633 160016.556122 
z
" style="fill:#d490c6;opacity:0.4;"/>
   </g>
   <g id="patch_182">
    <path clip-path="url(#p2e78e46962)" d="M 405.76646 160016.556122 
L 406.96962 160016.556122 
L 406.96962 160016.556122 
L 405.76646 160016.556122 
z
" style="fill:#d490c6;opacity:0.4;"/>
   </g>
   <g id="patch_183">
    <path clip-path="url(#p2e78e46962)" d="M 406.96962 160016.556122 
L 408.17278 160016.556122 
L 408.17278 160016.556122 
L 406.96962 160016.556122 
z
" style="fill:#d490c6;opacity:0.4;"/>
   </g>
   <g id="patch_184">
    <path clip-path="url(#p2e78e46962)" d="M 408.17278 160016.556122 
L 409.375939 160016.556122 
L 409.375939 160016.556122 
L 408.17278 160016.556122 
z
" style="fill:#d490c6;opacity:0.4;"/>
   </g>
   <g id="patch_185">
    <path clip-path="url(#p2e78e46962)" d="M 409.375939 160016.556122 
L 410.579099 160016.556122 
L 410.579099 160016.556122 
L 409.375939 160016.556122 
z
" style="fill:#d490c6;opacity:0.4;"/>
   </g>
   <g id="patch_186">
    <path clip-path="url(#p2e78e46962)" d="M 410.579099 160016.556122 
L 411.782259 160016.556122 
L 411.782259 160016.556122 
L 410.579099 160016.556122 
z
" style="fill:#d490c6;opacity:0.4;"/>
   </g>
   <g id="patch_187">
    <path clip-path="url(#p2e78e46962)" d="M 411.782259 160016.556122 
L 412.985419 160016.556122 
L 412.985419 160016.556122 
L 411.782259 160016.556122 
z
" style="fill:#d490c6;opacity:0.4;"/>
   </g>
   <g id="patch_188">
    <path clip-path="url(#p2e78e46962)" d="M 412.985419 160016.556122 
L 414.188579 160016.556122 
L 414.188579 160016.556122 
L 412.985419 160016.556122 
z
" style="fill:#d490c6;opacity:0.4;"/>
   </g>
   <g id="patch_189">
    <path clip-path="url(#p2e78e46962)" d="M 414.188579 160016.556122 
L 415.391738 160016.556122 
L 415.391738 160016.556122 
L 414.188579 160016.556122 
z
" style="fill:#d490c6;opacity:0.4;"/>
   </g>
   <g id="patch_190">
    <path clip-path="url(#p2e78e46962)" d="M 415.391738 160016.556122 
L 416.594898 160016.556122 
L 416.594898 160016.556122 
L 415.391738 160016.556122 
z
" style="fill:#d490c6;opacity:0.4;"/>
   </g>
   <g id="patch_191">
    <path clip-path="url(#p2e78e46962)" d="M 416.594898 160016.556122 
L 417.798058 160016.556122 
L 417.798058 160016.556122 
L 416.594898 160016.556122 
z
" style="fill:#d490c6;opacity:0.4;"/>
   </g>
   <g id="patch_192">
    <path clip-path="url(#p2e78e46962)" d="M 417.798058 160016.556122 
L 419.001218 160016.556122 
L 419.001218 160016.556122 
L 417.798058 160016.556122 
z
" style="fill:#d490c6;opacity:0.4;"/>
   </g>
   <g id="patch_193">
    <path clip-path="url(#p2e78e46962)" d="M 419.001218 160016.556122 
L 420.204377 160016.556122 
L 420.204377 160016.556122 
L 419.001218 160016.556122 
z
" style="fill:#d490c6;opacity:0.4;"/>
   </g>
   <g id="patch_194">
    <path clip-path="url(#p2e78e46962)" d="M 420.204377 160016.556122 
L 421.407537 160016.556122 
L 421.407537 160016.556122 
L 420.204377 160016.556122 
z
" style="fill:#d490c6;opacity:0.4;"/>
   </g>
   <g id="patch_195">
    <path clip-path="url(#p2e78e46962)" d="M 421.407537 160016.556122 
L 422.610697 160016.556122 
L 422.610697 160016.556122 
L 421.407537 160016.556122 
z
" style="fill:#d490c6;opacity:0.4;"/>
   </g>
   <g id="patch_196">
    <path clip-path="url(#p2e78e46962)" d="M 422.610697 160016.556122 
L 423.813857 160016.556122 
L 423.813857 160016.556122 
L 422.610697 160016.556122 
z
" style="fill:#d490c6;opacity:0.4;"/>
   </g>
   <g id="patch_197">
    <path clip-path="url(#p2e78e46962)" d="M 423.813857 160016.556122 
L 425.017017 160016.556122 
L 425.017017 160016.556122 
L 423.813857 160016.556122 
z
" style="fill:#d490c6;opacity:0.4;"/>
   </g>
   <g id="patch_198">
    <path clip-path="url(#p2e78e46962)" d="M 425.017017 160016.556122 
L 426.220176 160016.556122 
L 426.220176 160016.556122 
L 425.017017 160016.556122 
z
" style="fill:#d490c6;opacity:0.4;"/>
   </g>
   <g id="patch_199">
    <path clip-path="url(#p2e78e46962)" d="M 426.220176 160016.556122 
L 427.423336 160016.556122 
L 427.423336 430.92 
L 426.220176 430.92 
z
" style="fill:#d490c6;opacity:0.4;"/>
   </g>
   <g id="patch_200">
    <path clip-path="url(#p2e78e46962)" d="M 427.423336 160016.556122 
L 428.626496 160016.556122 
L 428.626496 160016.556122 
L 427.423336 160016.556122 
z
" style="fill:#d490c6;opacity:0.4;"/>
   </g>
   <g id="patch_201">
    <path clip-path="url(#p2e78e46962)" d="M 428.626496 160016.556122 
L 429.829656 160016.556122 
L 429.829656 160016.556122 
L 428.626496 160016.556122 
z
" style="fill:#d490c6;opacity:0.4;"/>
   </g>
   <g id="patch_202">
    <path clip-path="url(#p2e78e46962)" d="M 429.829656 160016.556122 
L 431.032815 160016.556122 
L 431.032815 160016.556122 
L 429.829656 160016.556122 
z
" style="fill:#d490c6;opacity:0.4;"/>
   </g>
   <g id="patch_203">
    <path clip-path="url(#p2e78e46962)" d="M 431.032815 160016.556122 
L 432.235975 160016.556122 
L 432.235975 160016.556122 
L 431.032815 160016.556122 
z
" style="fill:#d490c6;opacity:0.4;"/>
   </g>
   <g id="patch_204">
    <path clip-path="url(#p2e78e46962)" d="M 432.235975 160016.556122 
L 433.439135 160016.556122 
L 433.439135 160016.556122 
L 432.235975 160016.556122 
z
" style="fill:#d490c6;opacity:0.4;"/>
   </g>
   <g id="patch_205">
    <path clip-path="url(#p2e78e46962)" d="M 433.439135 160016.556122 
L 434.642295 160016.556122 
L 434.642295 160016.556122 
L 433.439135 160016.556122 
z
" style="fill:#d490c6;opacity:0.4;"/>
   </g>
   <g id="patch_206">
    <path clip-path="url(#p2e78e46962)" d="M 434.642295 160016.556122 
L 435.845455 160016.556122 
L 435.845455 430.92 
L 434.642295 430.92 
z
" style="fill:#d490c6;opacity:0.4;"/>
   </g>
   <g id="patch_207">
    <path clip-path="url(#p2e78e46962)" d="M 80.754545 160016.556122 
L 81.756073 160016.556122 
L 81.756073 430.92 
L 80.754545 430.92 
z
" style="fill:#c3c1f2;opacity:0.4;"/>
   </g>
   <g id="patch_208">
    <path clip-path="url(#p2e78e46962)" d="M 81.756073 160016.556122 
L 82.7576 160016.556122 
L 82.7576 160016.556122 
L 81.756073 160016.556122 
z
" style="fill:#c3c1f2;opacity:0.4;"/>
   </g>
   <g id="patch_209">
    <path clip-path="url(#p2e78e46962)" d="M 82.7576 160016.556122 
L 83.759127 160016.556122 
L 83.759127 160016.556122 
L 82.7576 160016.556122 
z
" style="fill:#c3c1f2;opacity:0.4;"/>
   </g>
   <g id="patch_210">
    <path clip-path="url(#p2e78e46962)" d="M 83.759127 160016.556122 
L 84.760654 160016.556122 
L 84.760654 160016.556122 
L 83.759127 160016.556122 
z
" style="fill:#c3c1f2;opacity:0.4;"/>
   </g>
   <g id="patch_211">
    <path clip-path="url(#p2e78e46962)" d="M 84.760654 160016.556122 
L 85.762181 160016.556122 
L 85.762181 160016.556122 
L 84.760654 160016.556122 
z
" style="fill:#c3c1f2;opacity:0.4;"/>
   </g>
   <g id="patch_212">
    <path clip-path="url(#p2e78e46962)" d="M 85.762181 160016.556122 
L 86.763708 160016.556122 
L 86.763708 160016.556122 
L 85.762181 160016.556122 
z
" style="fill:#c3c1f2;opacity:0.4;"/>
   </g>
   <g id="patch_213">
    <path clip-path="url(#p2e78e46962)" d="M 86.763708 160016.556122 
L 87.765236 160016.556122 
L 87.765236 160016.556122 
L 86.763708 160016.556122 
z
" style="fill:#c3c1f2;opacity:0.4;"/>
   </g>
   <g id="patch_214">
    <path clip-path="url(#p2e78e46962)" d="M 87.765236 160016.556122 
L 88.766763 160016.556122 
L 88.766763 160016.556122 
L 87.765236 160016.556122 
z
" style="fill:#c3c1f2;opacity:0.4;"/>
   </g>
   <g id="patch_215">
    <path clip-path="url(#p2e78e46962)" d="M 88.766763 160016.556122 
L 89.76829 160016.556122 
L 89.76829 160016.556122 
L 88.766763 160016.556122 
z
" style="fill:#c3c1f2;opacity:0.4;"/>
   </g>
   <g id="patch_216">
    <path clip-path="url(#p2e78e46962)" d="M 89.76829 160016.556122 
L 90.769817 160016.556122 
L 90.769817 160016.556122 
L 89.76829 160016.556122 
z
" style="fill:#c3c1f2;opacity:0.4;"/>
   </g>
   <g id="patch_217">
    <path clip-path="url(#p2e78e46962)" d="M 90.769817 160016.556122 
L 91.771344 160016.556122 
L 91.771344 160016.556122 
L 90.769817 160016.556122 
z
" style="fill:#c3c1f2;opacity:0.4;"/>
   </g>
   <g id="patch_218">
    <path clip-path="url(#p2e78e46962)" d="M 91.771344 160016.556122 
L 92.772872 160016.556122 
L 92.772872 160016.556122 
L 91.771344 160016.556122 
z
" style="fill:#c3c1f2;opacity:0.4;"/>
   </g>
   <g id="patch_219">
    <path clip-path="url(#p2e78e46962)" d="M 92.772872 160016.556122 
L 93.774399 160016.556122 
L 93.774399 160016.556122 
L 92.772872 160016.556122 
z
" style="fill:#c3c1f2;opacity:0.4;"/>
   </g>
   <g id="patch_220">
    <path clip-path="url(#p2e78e46962)" d="M 93.774399 160016.556122 
L 94.775926 160016.556122 
L 94.775926 160016.556122 
L 93.774399 160016.556122 
z
" style="fill:#c3c1f2;opacity:0.4;"/>
   </g>
   <g id="patch_221">
    <path clip-path="url(#p2e78e46962)" d="M 94.775926 160016.556122 
L 95.777453 160016.556122 
L 95.777453 160016.556122 
L 94.775926 160016.556122 
z
" style="fill:#c3c1f2;opacity:0.4;"/>
   </g>
   <g id="patch_222">
    <path clip-path="url(#p2e78e46962)" d="M 95.777453 160016.556122 
L 96.77898 160016.556122 
L 96.77898 160016.556122 
L 95.777453 160016.556122 
z
" style="fill:#c3c1f2;opacity:0.4;"/>
   </g>
   <g id="patch_223">
    <path clip-path="url(#p2e78e46962)" d="M 96.77898 160016.556122 
L 97.780507 160016.556122 
L 97.780507 430.92 
L 96.77898 430.92 
z
" style="fill:#c3c1f2;opacity:0.4;"/>
   </g>
   <g id="patch_224">
    <path clip-path="url(#p2e78e46962)" d="M 97.780507 160016.556122 
L 98.782035 160016.556122 
L 98.782035 160016.556122 
L 97.780507 160016.556122 
z
" style="fill:#c3c1f2;opacity:0.4;"/>
   </g>
   <g id="patch_225">
    <path clip-path="url(#p2e78e46962)" d="M 98.782035 160016.556122 
L 99.783562 160016.556122 
L 99.783562 160016.556122 
L 98.782035 160016.556122 
z
" style="fill:#c3c1f2;opacity:0.4;"/>
   </g>
   <g id="patch_226">
    <path clip-path="url(#p2e78e46962)" d="M 99.783562 160016.556122 
L 100.785089 160016.556122 
L 100.785089 160016.556122 
L 99.783562 160016.556122 
z
" style="fill:#c3c1f2;opacity:0.4;"/>
   </g>
   <g id="patch_227">
    <path clip-path="url(#p2e78e46962)" d="M 100.785089 160016.556122 
L 101.786616 160016.556122 
L 101.786616 160016.556122 
L 100.785089 160016.556122 
z
" style="fill:#c3c1f2;opacity:0.4;"/>
   </g>
   <g id="patch_228">
    <path clip-path="url(#p2e78e46962)" d="M 101.786616 160016.556122 
L 102.788143 160016.556122 
L 102.788143 160016.556122 
L 101.786616 160016.556122 
z
" style="fill:#c3c1f2;opacity:0.4;"/>
   </g>
   <g id="patch_229">
    <path clip-path="url(#p2e78e46962)" d="M 102.788143 160016.556122 
L 103.78967 160016.556122 
L 103.78967 160016.556122 
L 102.788143 160016.556122 
z
" style="fill:#c3c1f2;opacity:0.4;"/>
   </g>
   <g id="patch_230">
    <path clip-path="url(#p2e78e46962)" d="M 103.78967 160016.556122 
L 104.791198 160016.556122 
L 104.791198 160016.556122 
L 103.78967 160016.556122 
z
" style="fill:#c3c1f2;opacity:0.4;"/>
   </g>
   <g id="patch_231">
    <path clip-path="url(#p2e78e46962)" d="M 104.791198 160016.556122 
L 105.792725 160016.556122 
L 105.792725 160016.556122 
L 104.791198 160016.556122 
z
" style="fill:#c3c1f2;opacity:0.4;"/>
   </g>
   <g id="patch_232">
    <path clip-path="url(#p2e78e46962)" d="M 105.792725 160016.556122 
L 106.794252 160016.556122 
L 106.794252 160016.556122 
L 105.792725 160016.556122 
z
" style="fill:#c3c1f2;opacity:0.4;"/>
   </g>
   <g id="patch_233">
    <path clip-path="url(#p2e78e46962)" d="M 106.794252 160016.556122 
L 107.795779 160016.556122 
L 107.795779 160016.556122 
L 106.794252 160016.556122 
z
" style="fill:#c3c1f2;opacity:0.4;"/>
   </g>
   <g id="patch_234">
    <path clip-path="url(#p2e78e46962)" d="M 107.795779 160016.556122 
L 108.797306 160016.556122 
L 108.797306 160016.556122 
L 107.795779 160016.556122 
z
" style="fill:#c3c1f2;opacity:0.4;"/>
   </g>
   <g id="patch_235">
    <path clip-path="url(#p2e78e46962)" d="M 108.797306 160016.556122 
L 109.798833 160016.556122 
L 109.798833 160016.556122 
L 108.797306 160016.556122 
z
" style="fill:#c3c1f2;opacity:0.4;"/>
   </g>
   <g id="patch_236">
    <path clip-path="url(#p2e78e46962)" d="M 109.798833 160016.556122 
L 110.800361 160016.556122 
L 110.800361 160016.556122 
L 109.798833 160016.556122 
z
" style="fill:#c3c1f2;opacity:0.4;"/>
   </g>
   <g id="patch_237">
    <path clip-path="url(#p2e78e46962)" d="M 110.800361 160016.556122 
L 111.801888 160016.556122 
L 111.801888 160016.556122 
L 110.800361 160016.556122 
z
" style="fill:#c3c1f2;opacity:0.4;"/>
   </g>
   <g id="patch_238">
    <path clip-path="url(#p2e78e46962)" d="M 111.801888 160016.556122 
L 112.803415 160016.556122 
L 112.803415 160016.556122 
L 111.801888 160016.556122 
z
" style="fill:#c3c1f2;opacity:0.4;"/>
   </g>
   <g id="patch_239">
    <path clip-path="url(#p2e78e46962)" d="M 112.803415 160016.556122 
L 113.804942 160016.556122 
L 113.804942 160016.556122 
L 112.803415 160016.556122 
z
" style="fill:#c3c1f2;opacity:0.4;"/>
   </g>
   <g id="patch_240">
    <path clip-path="url(#p2e78e46962)" d="M 113.804942 160016.556122 
L 114.806469 160016.556122 
L 114.806469 160016.556122 
L 113.804942 160016.556122 
z
" style="fill:#c3c1f2;opacity:0.4;"/>
   </g>
   <g id="patch_241">
    <path clip-path="url(#p2e78e46962)" d="M 114.806469 160016.556122 
L 115.807997 160016.556122 
L 115.807997 160016.556122 
L 114.806469 160016.556122 
z
" style="fill:#c3c1f2;opacity:0.4;"/>
   </g>
   <g id="patch_242">
    <path clip-path="url(#p2e78e46962)" d="M 115.807997 160016.556122 
L 116.809524 160016.556122 
L 116.809524 160016.556122 
L 115.807997 160016.556122 
z
" style="fill:#c3c1f2;opacity:0.4;"/>
   </g>
   <g id="patch_243">
    <path clip-path="url(#p2e78e46962)" d="M 116.809524 160016.556122 
L 117.811051 160016.556122 
L 117.811051 160016.556122 
L 116.809524 160016.556122 
z
" style="fill:#c3c1f2;opacity:0.4;"/>
   </g>
   <g id="patch_244">
    <path clip-path="url(#p2e78e46962)" d="M 117.811051 160016.556122 
L 118.812578 160016.556122 
L 118.812578 160016.556122 
L 117.811051 160016.556122 
z
" style="fill:#c3c1f2;opacity:0.4;"/>
   </g>
   <g id="patch_245">
    <path clip-path="url(#p2e78e46962)" d="M 118.812578 160016.556122 
L 119.814105 160016.556122 
L 119.814105 160016.556122 
L 118.812578 160016.556122 
z
" style="fill:#c3c1f2;opacity:0.4;"/>
   </g>
   <g id="patch_246">
    <path clip-path="url(#p2e78e46962)" d="M 119.814105 160016.556122 
L 120.815632 160016.556122 
L 120.815632 160016.556122 
L 119.814105 160016.556122 
z
" style="fill:#c3c1f2;opacity:0.4;"/>
   </g>
   <g id="patch_247">
    <path clip-path="url(#p2e78e46962)" d="M 120.815632 160016.556122 
L 121.81716 160016.556122 
L 121.81716 160016.556122 
L 120.815632 160016.556122 
z
" style="fill:#c3c1f2;opacity:0.4;"/>
   </g>
   <g id="patch_248">
    <path clip-path="url(#p2e78e46962)" d="M 121.81716 160016.556122 
L 122.818687 160016.556122 
L 122.818687 160016.556122 
L 121.81716 160016.556122 
z
" style="fill:#c3c1f2;opacity:0.4;"/>
   </g>
   <g id="patch_249">
    <path clip-path="url(#p2e78e46962)" d="M 122.818687 160016.556122 
L 123.820214 160016.556122 
L 123.820214 160016.556122 
L 122.818687 160016.556122 
z
" style="fill:#c3c1f2;opacity:0.4;"/>
   </g>
   <g id="patch_250">
    <path clip-path="url(#p2e78e46962)" d="M 123.820214 160016.556122 
L 124.821741 160016.556122 
L 124.821741 430.92 
L 123.820214 430.92 
z
" style="fill:#c3c1f2;opacity:0.4;"/>
   </g>
   <g id="patch_251">
    <path clip-path="url(#p2e78e46962)" d="M 124.821741 160016.556122 
L 125.823268 160016.556122 
L 125.823268 160016.556122 
L 124.821741 160016.556122 
z
" style="fill:#c3c1f2;opacity:0.4;"/>
   </g>
   <g id="patch_252">
    <path clip-path="url(#p2e78e46962)" d="M 125.823268 160016.556122 
L 126.824795 160016.556122 
L 126.824795 160016.556122 
L 125.823268 160016.556122 
z
" style="fill:#c3c1f2;opacity:0.4;"/>
   </g>
   <g id="patch_253">
    <path clip-path="url(#p2e78e46962)" d="M 126.824795 160016.556122 
L 127.826323 160016.556122 
L 127.826323 160016.556122 
L 126.824795 160016.556122 
z
" style="fill:#c3c1f2;opacity:0.4;"/>
   </g>
   <g id="patch_254">
    <path clip-path="url(#p2e78e46962)" d="M 127.826323 160016.556122 
L 128.82785 160016.556122 
L 128.82785 160016.556122 
L 127.826323 160016.556122 
z
" style="fill:#c3c1f2;opacity:0.4;"/>
   </g>
   <g id="patch_255">
    <path clip-path="url(#p2e78e46962)" d="M 128.82785 160016.556122 
L 129.829377 160016.556122 
L 129.829377 430.92 
L 128.82785 430.92 
z
" style="fill:#c3c1f2;opacity:0.4;"/>
   </g>
   <g id="patch_256">
    <path clip-path="url(#p2e78e46962)" d="M 129.829377 160016.556122 
L 130.830904 160016.556122 
L 130.830904 430.92 
L 129.829377 430.92 
z
" style="fill:#c3c1f2;opacity:0.4;"/>
   </g>
   <g id="patch_257">
    <path clip-path="url(#p2e78e46962)" d="M 130.830904 160016.556122 
L 131.832431 160016.556122 
L 131.832431 160016.556122 
L 130.830904 160016.556122 
z
" style="fill:#c3c1f2;opacity:0.4;"/>
   </g>
   <g id="patch_258">
    <path clip-path="url(#p2e78e46962)" d="M 131.832431 160016.556122 
L 132.833958 160016.556122 
L 132.833958 160016.556122 
L 131.832431 160016.556122 
z
" style="fill:#c3c1f2;opacity:0.4;"/>
   </g>
   <g id="patch_259">
    <path clip-path="url(#p2e78e46962)" d="M 132.833958 160016.556122 
L 133.835486 160016.556122 
L 133.835486 160016.556122 
L 132.833958 160016.556122 
z
" style="fill:#c3c1f2;opacity:0.4;"/>
   </g>
   <g id="patch_260">
    <path clip-path="url(#p2e78e46962)" d="M 133.835486 160016.556122 
L 134.837013 160016.556122 
L 134.837013 160016.556122 
L 133.835486 160016.556122 
z
" style="fill:#c3c1f2;opacity:0.4;"/>
   </g>
   <g id="patch_261">
    <path clip-path="url(#p2e78e46962)" d="M 134.837013 160016.556122 
L 135.83854 160016.556122 
L 135.83854 430.92 
L 134.837013 430.92 
z
" style="fill:#c3c1f2;opacity:0.4;"/>
   </g>
   <g id="patch_262">
    <path clip-path="url(#p2e78e46962)" d="M 135.83854 160016.556122 
L 136.840067 160016.556122 
L 136.840067 160016.556122 
L 135.83854 160016.556122 
z
" style="fill:#c3c1f2;opacity:0.4;"/>
   </g>
   <g id="patch_263">
    <path clip-path="url(#p2e78e46962)" d="M 136.840067 160016.556122 
L 137.841594 160016.556122 
L 137.841594 160016.556122 
L 136.840067 160016.556122 
z
" style="fill:#c3c1f2;opacity:0.4;"/>
   </g>
   <g id="patch_264">
    <path clip-path="url(#p2e78e46962)" d="M 137.841594 160016.556122 
L 138.843122 160016.556122 
L 138.843122 430.92 
L 137.841594 430.92 
z
" style="fill:#c3c1f2;opacity:0.4;"/>
   </g>
   <g id="patch_265">
    <path clip-path="url(#p2e78e46962)" d="M 138.843122 160016.556122 
L 139.844649 160016.556122 
L 139.844649 160016.556122 
L 138.843122 160016.556122 
z
" style="fill:#c3c1f2;opacity:0.4;"/>
   </g>
   <g id="patch_266">
    <path clip-path="url(#p2e78e46962)" d="M 139.844649 160016.556122 
L 140.846176 160016.556122 
L 140.846176 160016.556122 
L 139.844649 160016.556122 
z
" style="fill:#c3c1f2;opacity:0.4;"/>
   </g>
   <g id="patch_267">
    <path clip-path="url(#p2e78e46962)" d="M 140.846176 160016.556122 
L 141.847703 160016.556122 
L 141.847703 160016.556122 
L 140.846176 160016.556122 
z
" style="fill:#c3c1f2;opacity:0.4;"/>
   </g>
   <g id="patch_268">
    <path clip-path="url(#p2e78e46962)" d="M 141.847703 160016.556122 
L 142.84923 160016.556122 
L 142.84923 319.769711 
L 141.847703 319.769711 
z
" style="fill:#c3c1f2;opacity:0.4;"/>
   </g>
   <g id="patch_269">
    <path clip-path="url(#p2e78e46962)" d="M 142.84923 160016.556122 
L 143.850757 160016.556122 
L 143.850757 430.92 
L 142.84923 430.92 
z
" style="fill:#c3c1f2;opacity:0.4;"/>
   </g>
   <g id="patch_270">
    <path clip-path="url(#p2e78e46962)" d="M 143.850757 160016.556122 
L 144.852285 160016.556122 
L 144.852285 160016.556122 
L 143.850757 160016.556122 
z
" style="fill:#c3c1f2;opacity:0.4;"/>
   </g>
   <g id="patch_271">
    <path clip-path="url(#p2e78e46962)" d="M 144.852285 160016.556122 
L 145.853812 160016.556122 
L 145.853812 430.92 
L 144.852285 430.92 
z
" style="fill:#c3c1f2;opacity:0.4;"/>
   </g>
   <g id="patch_272">
    <path clip-path="url(#p2e78e46962)" d="M 145.853812 160016.556122 
L 146.855339 160016.556122 
L 146.855339 160016.556122 
L 145.853812 160016.556122 
z
" style="fill:#c3c1f2;opacity:0.4;"/>
   </g>
   <g id="patch_273">
    <path clip-path="url(#p2e78e46962)" d="M 146.855339 160016.556122 
L 147.856866 160016.556122 
L 147.856866 160016.556122 
L 146.855339 160016.556122 
z
" style="fill:#c3c1f2;opacity:0.4;"/>
   </g>
   <g id="patch_274">
    <path clip-path="url(#p2e78e46962)" d="M 147.856866 160016.556122 
L 148.858393 160016.556122 
L 148.858393 430.92 
L 147.856866 430.92 
z
" style="fill:#c3c1f2;opacity:0.4;"/>
   </g>
   <g id="patch_275">
    <path clip-path="url(#p2e78e46962)" d="M 148.858393 160016.556122 
L 149.85992 160016.556122 
L 149.85992 430.92 
L 148.858393 430.92 
z
" style="fill:#c3c1f2;opacity:0.4;"/>
   </g>
   <g id="patch_276">
    <path clip-path="url(#p2e78e46962)" d="M 149.85992 160016.556122 
L 150.861448 160016.556122 
L 150.861448 160016.556122 
L 149.85992 160016.556122 
z
" style="fill:#c3c1f2;opacity:0.4;"/>
   </g>
   <g id="patch_277">
    <path clip-path="url(#p2e78e46962)" d="M 150.861448 160016.556122 
L 151.862975 160016.556122 
L 151.862975 383.050176 
L 150.861448 383.050176 
z
" style="fill:#c3c1f2;opacity:0.4;"/>
   </g>
   <g id="patch_278">
    <path clip-path="url(#p2e78e46962)" d="M 151.862975 160016.556122 
L 152.864502 160016.556122 
L 152.864502 160016.556122 
L 151.862975 160016.556122 
z
" style="fill:#c3c1f2;opacity:0.4;"/>
   </g>
   <g id="patch_279">
    <path clip-path="url(#p2e78e46962)" d="M 152.864502 160016.556122 
L 153.866029 160016.556122 
L 153.866029 160016.556122 
L 152.864502 160016.556122 
z
" style="fill:#c3c1f2;opacity:0.4;"/>
   </g>
   <g id="patch_280">
    <path clip-path="url(#p2e78e46962)" d="M 153.866029 160016.556122 
L 154.867556 160016.556122 
L 154.867556 160016.556122 
L 153.866029 160016.556122 
z
" style="fill:#c3c1f2;opacity:0.4;"/>
   </g>
   <g id="patch_281">
    <path clip-path="url(#p2e78e46962)" d="M 154.867556 160016.556122 
L 155.869083 160016.556122 
L 155.869083 430.92 
L 154.867556 430.92 
z
" style="fill:#c3c1f2;opacity:0.4;"/>
   </g>
   <g id="patch_282">
    <path clip-path="url(#p2e78e46962)" d="M 155.869083 160016.556122 
L 156.870611 160016.556122 
L 156.870611 383.050176 
L 155.869083 383.050176 
z
" style="fill:#c3c1f2;opacity:0.4;"/>
   </g>
   <g id="patch_283">
    <path clip-path="url(#p2e78e46962)" d="M 156.870611 160016.556122 
L 157.872138 160016.556122 
L 157.872138 160016.556122 
L 156.870611 160016.556122 
z
" style="fill:#c3c1f2;opacity:0.4;"/>
   </g>
   <g id="patch_284">
    <path clip-path="url(#p2e78e46962)" d="M 157.872138 160016.556122 
L 158.873665 160016.556122 
L 158.873665 355.048124 
L 157.872138 355.048124 
z
" style="fill:#c3c1f2;opacity:0.4;"/>
   </g>
   <g id="patch_285">
    <path clip-path="url(#p2e78e46962)" d="M 158.873665 160016.556122 
L 159.875192 160016.556122 
L 159.875192 383.050176 
L 158.873665 383.050176 
z
" style="fill:#c3c1f2;opacity:0.4;"/>
   </g>
   <g id="patch_286">
    <path clip-path="url(#p2e78e46962)" d="M 159.875192 160016.556122 
L 160.876719 160016.556122 
L 160.876719 430.92 
L 159.875192 430.92 
z
" style="fill:#c3c1f2;opacity:0.4;"/>
   </g>
   <g id="patch_287">
    <path clip-path="url(#p2e78e46962)" d="M 160.876719 160016.556122 
L 161.878247 160016.556122 
L 161.878247 430.92 
L 160.876719 430.92 
z
" style="fill:#c3c1f2;opacity:0.4;"/>
   </g>
   <g id="patch_288">
    <path clip-path="url(#p2e78e46962)" d="M 161.878247 160016.556122 
L 162.879774 160016.556122 
L 162.879774 160016.556122 
L 161.878247 160016.556122 
z
" style="fill:#c3c1f2;opacity:0.4;"/>
   </g>
   <g id="patch_289">
    <path clip-path="url(#p2e78e46962)" d="M 162.879774 160016.556122 
L 163.881301 160016.556122 
L 163.881301 430.92 
L 162.879774 430.92 
z
" style="fill:#c3c1f2;opacity:0.4;"/>
   </g>
   <g id="patch_290">
    <path clip-path="url(#p2e78e46962)" d="M 163.881301 160016.556122 
L 164.882828 160016.556122 
L 164.882828 160016.556122 
L 163.881301 160016.556122 
z
" style="fill:#c3c1f2;opacity:0.4;"/>
   </g>
   <g id="patch_291">
    <path clip-path="url(#p2e78e46962)" d="M 164.882828 160016.556122 
L 165.884355 160016.556122 
L 165.884355 430.92 
L 164.882828 430.92 
z
" style="fill:#c3c1f2;opacity:0.4;"/>
   </g>
   <g id="patch_292">
    <path clip-path="url(#p2e78e46962)" d="M 165.884355 160016.556122 
L 166.885882 160016.556122 
L 166.885882 210.279819 
L 165.884355 210.279819 
z
" style="fill:#c3c1f2;opacity:0.4;"/>
   </g>
   <g id="patch_293">
    <path clip-path="url(#p2e78e46962)" d="M 166.885882 160016.556122 
L 167.88741 160016.556122 
L 167.88741 307.178301 
L 166.885882 307.178301 
z
" style="fill:#c3c1f2;opacity:0.4;"/>
   </g>
   <g id="patch_294">
    <path clip-path="url(#p2e78e46962)" d="M 167.88741 160016.556122 
L 168.888937 160016.556122 
L 168.888937 383.050176 
L 167.88741 383.050176 
z
" style="fill:#c3c1f2;opacity:0.4;"/>
   </g>
   <g id="patch_295">
    <path clip-path="url(#p2e78e46962)" d="M 168.888937 160016.556122 
L 169.890464 160016.556122 
L 169.890464 312.018462 
L 168.888937 312.018462 
z
" style="fill:#c3c1f2;opacity:0.4;"/>
   </g>
   <g id="patch_296">
    <path clip-path="url(#p2e78e46962)" d="M 169.890464 160016.556122 
L 170.891991 160016.556122 
L 170.891991 335.180352 
L 169.890464 335.180352 
z
" style="fill:#c3c1f2;opacity:0.4;"/>
   </g>
   <g id="patch_297">
    <path clip-path="url(#p2e78e46962)" d="M 170.891991 160016.556122 
L 171.893518 160016.556122 
L 171.893518 302.937325 
L 170.891991 302.937325 
z
" style="fill:#c3c1f2;opacity:0.4;"/>
   </g>
   <g id="patch_298">
    <path clip-path="url(#p2e78e46962)" d="M 171.893518 160016.556122 
L 172.895045 160016.556122 
L 172.895045 355.048124 
L 171.893518 355.048124 
z
" style="fill:#c3c1f2;opacity:0.4;"/>
   </g>
   <g id="patch_299">
    <path clip-path="url(#p2e78e46962)" d="M 172.895045 160016.556122 
L 173.896573 160016.556122 
L 173.896573 303.760072 
L 172.895045 303.760072 
z
" style="fill:#c3c1f2;opacity:0.4;"/>
   </g>
   <g id="patch_300">
    <path clip-path="url(#p2e78e46962)" d="M 173.896573 160016.556122 
L 174.8981 160016.556122 
L 174.8981 307.178301 
L 173.896573 307.178301 
z
" style="fill:#c3c1f2;opacity:0.4;"/>
   </g>
   <g id="patch_301">
    <path clip-path="url(#p2e78e46962)" d="M 174.8981 160016.556122 
L 175.899627 160016.556122 
L 175.899627 319.440536 
L 174.8981 319.440536 
z
" style="fill:#c3c1f2;opacity:0.4;"/>
   </g>
   <g id="patch_302">
    <path clip-path="url(#p2e78e46962)" d="M 175.899627 160016.556122 
L 176.901154 160016.556122 
L 176.901154 387.282584 
L 175.899627 387.282584 
z
" style="fill:#c3c1f2;opacity:0.4;"/>
   </g>
   <g id="patch_303">
    <path clip-path="url(#p2e78e46962)" d="M 176.901154 160016.556122 
L 177.902681 160016.556122 
L 177.902681 354.920351 
L 176.901154 354.920351 
z
" style="fill:#c3c1f2;opacity:0.4;"/>
   </g>
   <g id="patch_304">
    <path clip-path="url(#p2e78e46962)" d="M 177.902681 160016.556122 
L 178.904208 160016.556122 
L 178.904208 225.00473 
L 177.902681 225.00473 
z
" style="fill:#c3c1f2;opacity:0.4;"/>
   </g>
   <g id="patch_305">
    <path clip-path="url(#p2e78e46962)" d="M 178.904208 160016.556122 
L 179.905736 160016.556122 
L 179.905736 306.244636 
L 178.904208 306.244636 
z
" style="fill:#c3c1f2;opacity:0.4;"/>
   </g>
   <g id="patch_306">
    <path clip-path="url(#p2e78e46962)" d="M 179.905736 160016.556122 
L 180.907263 160016.556122 
L 180.907263 242.846928 
L 179.905736 242.846928 
z
" style="fill:#c3c1f2;opacity:0.4;"/>
   </g>
   <g id="patch_307">
    <path clip-path="url(#p2e78e46962)" d="M 180.907263 160016.556122 
L 181.90879 160016.556122 
L 181.90879 259.788134 
L 180.907263 259.788134 
z
" style="fill:#c3c1f2;opacity:0.4;"/>
   </g>
   <g id="patch_308">
    <path clip-path="url(#p2e78e46962)" d="M 181.90879 160016.556122 
L 182.910317 160016.556122 
L 182.910317 324.917834 
L 181.90879 324.917834 
z
" style="fill:#c3c1f2;opacity:0.4;"/>
   </g>
   <g id="patch_309">
    <path clip-path="url(#p2e78e46962)" d="M 182.910317 160016.556122 
L 183.911844 160016.556122 
L 183.911844 215.69486 
L 182.910317 215.69486 
z
" style="fill:#c3c1f2;opacity:0.4;"/>
   </g>
   <g id="patch_310">
    <path clip-path="url(#p2e78e46962)" d="M 183.911844 160016.556122 
L 184.913372 160016.556122 
L 184.913372 198.524273 
L 183.911844 198.524273 
z
" style="fill:#c3c1f2;opacity:0.4;"/>
   </g>
   <g id="patch_311">
    <path clip-path="url(#p2e78e46962)" d="M 184.913372 160016.556122 
L 185.914899 160016.556122 
L 185.914899 204.050158 
L 184.913372 204.050158 
z
" style="fill:#c3c1f2;opacity:0.4;"/>
   </g>
   <g id="patch_312">
    <path clip-path="url(#p2e78e46962)" d="M 185.914899 160016.556122 
L 186.916426 160016.556122 
L 186.916426 223.349527 
L 185.914899 223.349527 
z
" style="fill:#c3c1f2;opacity:0.4;"/>
   </g>
   <g id="patch_313">
    <path clip-path="url(#p2e78e46962)" d="M 186.916426 160016.556122 
L 187.917953 160016.556122 
L 187.917953 147.10854 
L 186.916426 147.10854 
z
" style="fill:#c3c1f2;opacity:0.4;"/>
   </g>
   <g id="patch_314">
    <path clip-path="url(#p2e78e46962)" d="M 187.917953 160016.556122 
L 188.91948 160016.556122 
L 188.91948 159.967889 
L 187.917953 159.967889 
z
" style="fill:#c3c1f2;opacity:0.4;"/>
   </g>
   <g id="patch_315">
    <path clip-path="url(#p2e78e46962)" d="M 188.91948 160016.556122 
L 189.921007 160016.556122 
L 189.921007 87.212138 
L 188.91948 87.212138 
z
" style="fill:#c3c1f2;opacity:0.4;"/>
   </g>
   <g id="matplotlib.axis_1">
    <g id="xtick_1">
     <g id="line2d_1">
      <defs>
       <path d="M 0 0 
L 0 3.5 
" id="m92d9ee3c2f" style="stroke:#000000;stroke-width:0.8;"/>
      </defs>
      <g>
       <use style="stroke:#000000;stroke-width:0.8;" x="94.190418" xlink:href="#m92d9ee3c2f" y="448.56"/>
      </g>
     </g>
     <g id="text_1">
      <!-- 4 -->
      <defs>
       <path d="M 10.59375 35.5 
L 73.1875 35.5 
L 73.1875 27.203125 
L 10.59375 27.203125 
z
" id="DejaVuSans-8722"/>
       <path d="M 37.796875 64.3125 
L 12.890625 25.390625 
L 37.796875 25.390625 
z
M 35.203125 72.90625 
L 47.609375 72.90625 
L 47.609375 25.390625 
L 58.015625 25.390625 
L 58.015625 17.1875 
L 47.609375 17.1875 
L 47.609375 0 
L 37.796875 0 
L 37.796875 17.1875 
L 4.890625 17.1875 
L 4.890625 26.703125 
z
" id="DejaVuSans-52"/>
      </defs>
      <g transform="translate(86.819324 463.158437)scale(0.1 -0.1)">
       <use xlink:href="#DejaVuSans-8722"/>
       <use x="83.789062" xlink:href="#DejaVuSans-52"/>
      </g>
     </g>
    </g>
    <g id="xtick_2">
     <g id="line2d_2">
      <g>
       <use style="stroke:#000000;stroke-width:0.8;" x="142.175676" xlink:href="#m92d9ee3c2f" y="448.56"/>
      </g>
     </g>
     <g id="text_2">
      <!-- 2 -->
      <defs>
       <path d="M 19.1875 8.296875 
L 53.609375 8.296875 
L 53.609375 0 
L 7.328125 0 
L 7.328125 8.296875 
Q 12.9375 14.109375 22.625 23.890625 
Q 32.328125 33.6875 34.8125 36.53125 
Q 39.546875 41.84375 41.421875 45.53125 
Q 43.3125 49.21875 43.3125 52.78125 
Q 43.3125 58.59375 39.234375 62.25 
Q 35.15625 65.921875 28.609375 65.921875 
Q 23.96875 65.921875 18.8125 64.3125 
Q 13.671875 62.703125 7.8125 59.421875 
L 7.8125 69.390625 
Q 13.765625 71.78125 18.9375 73 
Q 24.125 74.21875 28.421875 74.21875 
Q 39.75 74.21875 46.484375 68.546875 
Q 53.21875 62.890625 53.21875 53.421875 
Q 53.21875 48.921875 51.53125 44.890625 
Q 49.859375 40.875 45.40625 35.40625 
Q 44.1875 33.984375 37.640625 27.21875 
Q 31.109375 20.453125 19.1875 8.296875 
z
" id="DejaVuSans-50"/>
      </defs>
      <g transform="translate(134.804582 463.158437)scale(0.1 -0.1)">
       <use xlink:href="#DejaVuSans-8722"/>
       <use x="83.789062" xlink:href="#DejaVuSans-50"/>
      </g>
     </g>
    </g>
    <g id="xtick_3">
     <g id="line2d_3">
      <g>
       <use style="stroke:#000000;stroke-width:0.8;" x="190.160934" xlink:href="#m92d9ee3c2f" y="448.56"/>
      </g>
     </g>
     <g id="text_3">
      <!-- 0 -->
      <defs>
       <path d="M 31.78125 66.40625 
Q 24.171875 66.40625 20.328125 58.90625 
Q 16.5 51.421875 16.5 36.375 
Q 16.5 21.390625 20.328125 13.890625 
Q 24.171875 6.390625 31.78125 6.390625 
Q 39.453125 6.390625 43.28125 13.890625 
Q 47.125 21.390625 47.125 36.375 
Q 47.125 51.421875 43.28125 58.90625 
Q 39.453125 66.40625 31.78125 66.40625 
z
M 31.78125 74.21875 
Q 44.046875 74.21875 50.515625 64.515625 
Q 56.984375 54.828125 56.984375 36.375 
Q 56.984375 17.96875 50.515625 8.265625 
Q 44.046875 -1.421875 31.78125 -1.421875 
Q 19.53125 -1.421875 13.0625 8.265625 
Q 6.59375 17.96875 6.59375 36.375 
Q 6.59375 54.828125 13.0625 64.515625 
Q 19.53125 74.21875 31.78125 74.21875 
z
" id="DejaVuSans-48"/>
      </defs>
      <g transform="translate(186.979684 463.158437)scale(0.1 -0.1)">
       <use xlink:href="#DejaVuSans-48"/>
      </g>
     </g>
    </g>
    <g id="xtick_4">
     <g id="line2d_4">
      <g>
       <use style="stroke:#000000;stroke-width:0.8;" x="238.146192" xlink:href="#m92d9ee3c2f" y="448.56"/>
      </g>
     </g>
     <g id="text_4">
      <!-- 2 -->
      <g transform="translate(234.964942 463.158437)scale(0.1 -0.1)">
       <use xlink:href="#DejaVuSans-50"/>
      </g>
     </g>
    </g>
    <g id="xtick_5">
     <g id="line2d_5">
      <g>
       <use style="stroke:#000000;stroke-width:0.8;" x="286.13145" xlink:href="#m92d9ee3c2f" y="448.56"/>
      </g>
     </g>
     <g id="text_5">
      <!-- 4 -->
      <g transform="translate(282.9502 463.158437)scale(0.1 -0.1)">
       <use xlink:href="#DejaVuSans-52"/>
      </g>
     </g>
    </g>
    <g id="xtick_6">
     <g id="line2d_6">
      <g>
       <use style="stroke:#000000;stroke-width:0.8;" x="334.116708" xlink:href="#m92d9ee3c2f" y="448.56"/>
      </g>
     </g>
     <g id="text_6">
      <!-- 6 -->
      <defs>
       <path d="M 33.015625 40.375 
Q 26.375 40.375 22.484375 35.828125 
Q 18.609375 31.296875 18.609375 23.390625 
Q 18.609375 15.53125 22.484375 10.953125 
Q 26.375 6.390625 33.015625 6.390625 
Q 39.65625 6.390625 43.53125 10.953125 
Q 47.40625 15.53125 47.40625 23.390625 
Q 47.40625 31.296875 43.53125 35.828125 
Q 39.65625 40.375 33.015625 40.375 
z
M 52.59375 71.296875 
L 52.59375 62.3125 
Q 48.875 64.0625 45.09375 64.984375 
Q 41.3125 65.921875 37.59375 65.921875 
Q 27.828125 65.921875 22.671875 59.328125 
Q 17.53125 52.734375 16.796875 39.40625 
Q 19.671875 43.65625 24.015625 45.921875 
Q 28.375 48.1875 33.59375 48.1875 
Q 44.578125 48.1875 50.953125 41.515625 
Q 57.328125 34.859375 57.328125 23.390625 
Q 57.328125 12.15625 50.6875 5.359375 
Q 44.046875 -1.421875 33.015625 -1.421875 
Q 20.359375 -1.421875 13.671875 8.265625 
Q 6.984375 17.96875 6.984375 36.375 
Q 6.984375 53.65625 15.1875 63.9375 
Q 23.390625 74.21875 37.203125 74.21875 
Q 40.921875 74.21875 44.703125 73.484375 
Q 48.484375 72.75 52.59375 71.296875 
z
" id="DejaVuSans-54"/>
      </defs>
      <g transform="translate(330.935458 463.158437)scale(0.1 -0.1)">
       <use xlink:href="#DejaVuSans-54"/>
      </g>
     </g>
    </g>
    <g id="xtick_7">
     <g id="line2d_7">
      <g>
       <use style="stroke:#000000;stroke-width:0.8;" x="382.101966" xlink:href="#m92d9ee3c2f" y="448.56"/>
      </g>
     </g>
     <g id="text_7">
      <!-- 8 -->
      <defs>
       <path d="M 31.78125 34.625 
Q 24.75 34.625 20.71875 30.859375 
Q 16.703125 27.09375 16.703125 20.515625 
Q 16.703125 13.921875 20.71875 10.15625 
Q 24.75 6.390625 31.78125 6.390625 
Q 38.8125 6.390625 42.859375 10.171875 
Q 46.921875 13.96875 46.921875 20.515625 
Q 46.921875 27.09375 42.890625 30.859375 
Q 38.875 34.625 31.78125 34.625 
z
M 21.921875 38.8125 
Q 15.578125 40.375 12.03125 44.71875 
Q 8.5 49.078125 8.5 55.328125 
Q 8.5 64.0625 14.71875 69.140625 
Q 20.953125 74.21875 31.78125 74.21875 
Q 42.671875 74.21875 48.875 69.140625 
Q 55.078125 64.0625 55.078125 55.328125 
Q 55.078125 49.078125 51.53125 44.71875 
Q 48 40.375 41.703125 38.8125 
Q 48.828125 37.15625 52.796875 32.3125 
Q 56.78125 27.484375 56.78125 20.515625 
Q 56.78125 9.90625 50.3125 4.234375 
Q 43.84375 -1.421875 31.78125 -1.421875 
Q 19.734375 -1.421875 13.25 4.234375 
Q 6.78125 9.90625 6.78125 20.515625 
Q 6.78125 27.484375 10.78125 32.3125 
Q 14.796875 37.15625 21.921875 38.8125 
z
M 18.3125 54.390625 
Q 18.3125 48.734375 21.84375 45.5625 
Q 25.390625 42.390625 31.78125 42.390625 
Q 38.140625 42.390625 41.71875 45.5625 
Q 45.3125 48.734375 45.3125 54.390625 
Q 45.3125 60.0625 41.71875 63.234375 
Q 38.140625 66.40625 31.78125 66.40625 
Q 25.390625 66.40625 21.84375 63.234375 
Q 18.3125 60.0625 18.3125 54.390625 
z
" id="DejaVuSans-56"/>
      </defs>
      <g transform="translate(378.920716 463.158437)scale(0.1 -0.1)">
       <use xlink:href="#DejaVuSans-56"/>
      </g>
     </g>
    </g>
    <g id="xtick_8">
     <g id="line2d_8">
      <g>
       <use style="stroke:#000000;stroke-width:0.8;" x="430.087224" xlink:href="#m92d9ee3c2f" y="448.56"/>
      </g>
     </g>
     <g id="text_8">
      <!-- 10 -->
      <defs>
       <path d="M 12.40625 8.296875 
L 28.515625 8.296875 
L 28.515625 63.921875 
L 10.984375 60.40625 
L 10.984375 69.390625 
L 28.421875 72.90625 
L 38.28125 72.90625 
L 38.28125 8.296875 
L 54.390625 8.296875 
L 54.390625 0 
L 12.40625 0 
z
" id="DejaVuSans-49"/>
      </defs>
      <g transform="translate(423.724724 463.158437)scale(0.1 -0.1)">
       <use xlink:href="#DejaVuSans-49"/>
       <use x="63.623047" xlink:href="#DejaVuSans-48"/>
      </g>
     </g>
    </g>
   </g>
   <g id="matplotlib.axis_2">
    <g id="ytick_1">
     <g id="line2d_9">
      <defs>
       <path d="M 0 0 
L -3.5 0 
" id="m178e80e7c7" style="stroke:#000000;stroke-width:0.8;"/>
      </defs>
      <g>
       <use style="stroke:#000000;stroke-width:0.8;" x="63" xlink:href="#m178e80e7c7" y="360.363174"/>
      </g>
     </g>
     <g id="text_9">
      <!-- $\mathdefault{10^{4}}$ -->
      <g transform="translate(38.4 364.162393)scale(0.1 -0.1)">
       <use transform="translate(0 0.684375)" xlink:href="#DejaVuSans-49"/>
       <use transform="translate(63.623047 0.684375)" xlink:href="#DejaVuSans-48"/>
       <use transform="translate(128.203125 38.965625)scale(0.7)" xlink:href="#DejaVuSans-52"/>
      </g>
     </g>
    </g>
    <g id="ytick_2">
     <g id="line2d_10">
      <g>
       <use style="stroke:#000000;stroke-width:0.8;" x="63" xlink:href="#m178e80e7c7" y="201.343061"/>
      </g>
     </g>
     <g id="text_10">
      <!-- $\mathdefault{10^{5}}$ -->
      <defs>
       <path d="M 10.796875 72.90625 
L 49.515625 72.90625 
L 49.515625 64.59375 
L 19.828125 64.59375 
L 19.828125 46.734375 
Q 21.96875 47.46875 24.109375 47.828125 
Q 26.265625 48.1875 28.421875 48.1875 
Q 40.625 48.1875 47.75 41.5 
Q 54.890625 34.8125 54.890625 23.390625 
Q 54.890625 11.625 47.5625 5.09375 
Q 40.234375 -1.421875 26.90625 -1.421875 
Q 22.3125 -1.421875 17.546875 -0.640625 
Q 12.796875 0.140625 7.71875 1.703125 
L 7.71875 11.625 
Q 12.109375 9.234375 16.796875 8.0625 
Q 21.484375 6.890625 26.703125 6.890625 
Q 35.15625 6.890625 40.078125 11.328125 
Q 45.015625 15.765625 45.015625 23.390625 
Q 45.015625 31 40.078125 35.4375 
Q 35.15625 39.890625 26.703125 39.890625 
Q 22.75 39.890625 18.8125 39.015625 
Q 14.890625 38.140625 10.796875 36.28125 
z
" id="DejaVuSans-53"/>
      </defs>
      <g transform="translate(38.4 205.14228)scale(0.1 -0.1)">
       <use transform="translate(0 0.684375)" xlink:href="#DejaVuSans-49"/>
       <use transform="translate(63.623047 0.684375)" xlink:href="#DejaVuSans-48"/>
       <use transform="translate(128.203125 38.965625)scale(0.7)" xlink:href="#DejaVuSans-53"/>
      </g>
     </g>
    </g>
    <g id="ytick_3">
     <g id="line2d_11">
      <defs>
       <path d="M 0 0 
L -2 0 
" id="m1b75a11390" style="stroke:#000000;stroke-width:0.6;"/>
      </defs>
      <g>
       <use style="stroke:#000000;stroke-width:0.6;" x="63" xlink:href="#m1b75a11390" y="443.511411"/>
      </g>
     </g>
    </g>
    <g id="ytick_4">
     <g id="line2d_12">
      <g>
       <use style="stroke:#000000;stroke-width:0.6;" x="63" xlink:href="#m1b75a11390" y="423.643639"/>
      </g>
     </g>
    </g>
    <g id="ytick_5">
     <g id="line2d_13">
      <g>
       <use style="stroke:#000000;stroke-width:0.6;" x="63" xlink:href="#m1b75a11390" y="408.232998"/>
      </g>
     </g>
    </g>
    <g id="ytick_6">
     <g id="line2d_14">
      <g>
       <use style="stroke:#000000;stroke-width:0.6;" x="63" xlink:href="#m1b75a11390" y="395.641587"/>
      </g>
     </g>
    </g>
    <g id="ytick_7">
     <g id="line2d_15">
      <g>
       <use style="stroke:#000000;stroke-width:0.6;" x="63" xlink:href="#m1b75a11390" y="384.995701"/>
      </g>
     </g>
    </g>
    <g id="ytick_8">
     <g id="line2d_16">
      <g>
       <use style="stroke:#000000;stroke-width:0.6;" x="63" xlink:href="#m1b75a11390" y="375.773815"/>
      </g>
     </g>
    </g>
    <g id="ytick_9">
     <g id="line2d_17">
      <g>
       <use style="stroke:#000000;stroke-width:0.6;" x="63" xlink:href="#m1b75a11390" y="367.639535"/>
      </g>
     </g>
    </g>
    <g id="ytick_10">
     <g id="line2d_18">
      <g>
       <use style="stroke:#000000;stroke-width:0.6;" x="63" xlink:href="#m1b75a11390" y="312.49335"/>
      </g>
     </g>
    </g>
    <g id="ytick_11">
     <g id="line2d_19">
      <g>
       <use style="stroke:#000000;stroke-width:0.6;" x="63" xlink:href="#m1b75a11390" y="284.491298"/>
      </g>
     </g>
    </g>
    <g id="ytick_12">
     <g id="line2d_20">
      <g>
       <use style="stroke:#000000;stroke-width:0.6;" x="63" xlink:href="#m1b75a11390" y="264.623526"/>
      </g>
     </g>
    </g>
    <g id="ytick_13">
     <g id="line2d_21">
      <g>
       <use style="stroke:#000000;stroke-width:0.6;" x="63" xlink:href="#m1b75a11390" y="249.212885"/>
      </g>
     </g>
    </g>
    <g id="ytick_14">
     <g id="line2d_22">
      <g>
       <use style="stroke:#000000;stroke-width:0.6;" x="63" xlink:href="#m1b75a11390" y="236.621474"/>
      </g>
     </g>
    </g>
    <g id="ytick_15">
     <g id="line2d_23">
      <g>
       <use style="stroke:#000000;stroke-width:0.6;" x="63" xlink:href="#m1b75a11390" y="225.975588"/>
      </g>
     </g>
    </g>
    <g id="ytick_16">
     <g id="line2d_24">
      <g>
       <use style="stroke:#000000;stroke-width:0.6;" x="63" xlink:href="#m1b75a11390" y="216.753702"/>
      </g>
     </g>
    </g>
    <g id="ytick_17">
     <g id="line2d_25">
      <g>
       <use style="stroke:#000000;stroke-width:0.6;" x="63" xlink:href="#m1b75a11390" y="208.619423"/>
      </g>
     </g>
    </g>
    <g id="ytick_18">
     <g id="line2d_26">
      <g>
       <use style="stroke:#000000;stroke-width:0.6;" x="63" xlink:href="#m1b75a11390" y="153.473237"/>
      </g>
     </g>
    </g>
    <g id="ytick_19">
     <g id="line2d_27">
      <g>
       <use style="stroke:#000000;stroke-width:0.6;" x="63" xlink:href="#m1b75a11390" y="125.471186"/>
      </g>
     </g>
    </g>
    <g id="ytick_20">
     <g id="line2d_28">
      <g>
       <use style="stroke:#000000;stroke-width:0.6;" x="63" xlink:href="#m1b75a11390" y="105.603414"/>
      </g>
     </g>
    </g>
    <g id="ytick_21">
     <g id="line2d_29">
      <g>
       <use style="stroke:#000000;stroke-width:0.6;" x="63" xlink:href="#m1b75a11390" y="90.192773"/>
      </g>
     </g>
    </g>
    <g id="ytick_22">
     <g id="line2d_30">
      <g>
       <use style="stroke:#000000;stroke-width:0.6;" x="63" xlink:href="#m1b75a11390" y="77.601362"/>
      </g>
     </g>
    </g>
    <g id="ytick_23">
     <g id="line2d_31">
      <g>
       <use style="stroke:#000000;stroke-width:0.6;" x="63" xlink:href="#m1b75a11390" y="66.955476"/>
      </g>
     </g>
    </g>
   </g>
   <g id="patch_316">
    <path d="M 63 448.56 
L 63 60.48 
" style="fill:none;stroke:#000000;stroke-linecap:square;stroke-linejoin:miter;stroke-width:0.8;"/>
   </g>
   <g id="patch_317">
    <path d="M 453.6 448.56 
L 453.6 60.48 
" style="fill:none;stroke:#000000;stroke-linecap:square;stroke-linejoin:miter;stroke-width:0.8;"/>
   </g>
   <g id="patch_318">
    <path d="M 63 448.56 
L 453.6 448.56 
" style="fill:none;stroke:#000000;stroke-linecap:square;stroke-linejoin:miter;stroke-width:0.8;"/>
   </g>
   <g id="patch_319">
    <path d="M 63 60.48 
L 453.6 60.48 
" style="fill:none;stroke:#000000;stroke-linecap:square;stroke-linejoin:miter;stroke-width:0.8;"/>
   </g>
   <g id="text_11">
    <!-- Bid/Ask Gap Distribution -->
    <defs>
     <path d="M 19.671875 34.8125 
L 19.671875 8.109375 
L 35.5 8.109375 
Q 43.453125 8.109375 47.28125 11.40625 
Q 51.125 14.703125 51.125 21.484375 
Q 51.125 28.328125 47.28125 31.5625 
Q 43.453125 34.8125 35.5 34.8125 
z
M 19.671875 64.796875 
L 19.671875 42.828125 
L 34.28125 42.828125 
Q 41.5 42.828125 45.03125 45.53125 
Q 48.578125 48.25 48.578125 53.8125 
Q 48.578125 59.328125 45.03125 62.0625 
Q 41.5 64.796875 34.28125 64.796875 
z
M 9.8125 72.90625 
L 35.015625 72.90625 
Q 46.296875 72.90625 52.390625 68.21875 
Q 58.5 63.53125 58.5 54.890625 
Q 58.5 48.1875 55.375 44.234375 
Q 52.25 40.28125 46.1875 39.3125 
Q 53.46875 37.75 57.5 32.78125 
Q 61.53125 27.828125 61.53125 20.40625 
Q 61.53125 10.640625 54.890625 5.3125 
Q 48.25 0 35.984375 0 
L 9.8125 0 
z
" id="DejaVuSans-66"/>
     <path d="M 9.421875 54.6875 
L 18.40625 54.6875 
L 18.40625 0 
L 9.421875 0 
z
M 9.421875 75.984375 
L 18.40625 75.984375 
L 18.40625 64.59375 
L 9.421875 64.59375 
z
" id="DejaVuSans-105"/>
     <path d="M 45.40625 46.390625 
L 45.40625 75.984375 
L 54.390625 75.984375 
L 54.390625 0 
L 45.40625 0 
L 45.40625 8.203125 
Q 42.578125 3.328125 38.25 0.953125 
Q 33.9375 -1.421875 27.875 -1.421875 
Q 17.96875 -1.421875 11.734375 6.484375 
Q 5.515625 14.40625 5.515625 27.296875 
Q 5.515625 40.1875 11.734375 48.09375 
Q 17.96875 56 27.875 56 
Q 33.9375 56 38.25 53.625 
Q 42.578125 51.265625 45.40625 46.390625 
z
M 14.796875 27.296875 
Q 14.796875 17.390625 18.875 11.75 
Q 22.953125 6.109375 30.078125 6.109375 
Q 37.203125 6.109375 41.296875 11.75 
Q 45.40625 17.390625 45.40625 27.296875 
Q 45.40625 37.203125 41.296875 42.84375 
Q 37.203125 48.484375 30.078125 48.484375 
Q 22.953125 48.484375 18.875 42.84375 
Q 14.796875 37.203125 14.796875 27.296875 
z
" id="DejaVuSans-100"/>
     <path d="M 25.390625 72.90625 
L 33.6875 72.90625 
L 8.296875 -9.28125 
L 0 -9.28125 
z
" id="DejaVuSans-47"/>
     <path d="M 34.1875 63.1875 
L 20.796875 26.90625 
L 47.609375 26.90625 
z
M 28.609375 72.90625 
L 39.796875 72.90625 
L 67.578125 0 
L 57.328125 0 
L 50.6875 18.703125 
L 17.828125 18.703125 
L 11.1875 0 
L 0.78125 0 
z
" id="DejaVuSans-65"/>
     <path d="M 44.28125 53.078125 
L 44.28125 44.578125 
Q 40.484375 46.53125 36.375 47.5 
Q 32.28125 48.484375 27.875 48.484375 
Q 21.1875 48.484375 17.84375 46.4375 
Q 14.5 44.390625 14.5 40.28125 
Q 14.5 37.15625 16.890625 35.375 
Q 19.28125 33.59375 26.515625 31.984375 
L 29.59375 31.296875 
Q 39.15625 29.25 43.1875 25.515625 
Q 47.21875 21.78125 47.21875 15.09375 
Q 47.21875 7.46875 41.1875 3.015625 
Q 35.15625 -1.421875 24.609375 -1.421875 
Q 20.21875 -1.421875 15.453125 -0.5625 
Q 10.6875 0.296875 5.421875 2 
L 5.421875 11.28125 
Q 10.40625 8.6875 15.234375 7.390625 
Q 20.0625 6.109375 24.8125 6.109375 
Q 31.15625 6.109375 34.5625 8.28125 
Q 37.984375 10.453125 37.984375 14.40625 
Q 37.984375 18.0625 35.515625 20.015625 
Q 33.0625 21.96875 24.703125 23.78125 
L 21.578125 24.515625 
Q 13.234375 26.265625 9.515625 29.90625 
Q 5.8125 33.546875 5.8125 39.890625 
Q 5.8125 47.609375 11.28125 51.796875 
Q 16.75 56 26.8125 56 
Q 31.78125 56 36.171875 55.265625 
Q 40.578125 54.546875 44.28125 53.078125 
z
" id="DejaVuSans-115"/>
     <path d="M 9.078125 75.984375 
L 18.109375 75.984375 
L 18.109375 31.109375 
L 44.921875 54.6875 
L 56.390625 54.6875 
L 27.390625 29.109375 
L 57.625 0 
L 45.90625 0 
L 18.109375 26.703125 
L 18.109375 0 
L 9.078125 0 
z
" id="DejaVuSans-107"/>
     <path id="DejaVuSans-32"/>
     <path d="M 59.515625 10.40625 
L 59.515625 29.984375 
L 43.40625 29.984375 
L 43.40625 38.09375 
L 69.28125 38.09375 
L 69.28125 6.78125 
Q 63.578125 2.734375 56.6875 0.65625 
Q 49.8125 -1.421875 42 -1.421875 
Q 24.90625 -1.421875 15.25 8.5625 
Q 5.609375 18.5625 5.609375 36.375 
Q 5.609375 54.25 15.25 64.234375 
Q 24.90625 74.21875 42 74.21875 
Q 49.125 74.21875 55.546875 72.453125 
Q 61.96875 70.703125 67.390625 67.28125 
L 67.390625 56.78125 
Q 61.921875 61.421875 55.765625 63.765625 
Q 49.609375 66.109375 42.828125 66.109375 
Q 29.4375 66.109375 22.71875 58.640625 
Q 16.015625 51.171875 16.015625 36.375 
Q 16.015625 21.625 22.71875 14.15625 
Q 29.4375 6.6875 42.828125 6.6875 
Q 48.046875 6.6875 52.140625 7.59375 
Q 56.25 8.5 59.515625 10.40625 
z
" id="DejaVuSans-71"/>
     <path d="M 34.28125 27.484375 
Q 23.390625 27.484375 19.1875 25 
Q 14.984375 22.515625 14.984375 16.5 
Q 14.984375 11.71875 18.140625 8.90625 
Q 21.296875 6.109375 26.703125 6.109375 
Q 34.1875 6.109375 38.703125 11.40625 
Q 43.21875 16.703125 43.21875 25.484375 
L 43.21875 27.484375 
z
M 52.203125 31.203125 
L 52.203125 0 
L 43.21875 0 
L 43.21875 8.296875 
Q 40.140625 3.328125 35.546875 0.953125 
Q 30.953125 -1.421875 24.3125 -1.421875 
Q 15.921875 -1.421875 10.953125 3.296875 
Q 6 8.015625 6 15.921875 
Q 6 25.140625 12.171875 29.828125 
Q 18.359375 34.515625 30.609375 34.515625 
L 43.21875 34.515625 
L 43.21875 35.40625 
Q 43.21875 41.609375 39.140625 45 
Q 35.0625 48.390625 27.6875 48.390625 
Q 23 48.390625 18.546875 47.265625 
Q 14.109375 46.140625 10.015625 43.890625 
L 10.015625 52.203125 
Q 14.9375 54.109375 19.578125 55.046875 
Q 24.21875 56 28.609375 56 
Q 40.484375 56 46.34375 49.84375 
Q 52.203125 43.703125 52.203125 31.203125 
z
" id="DejaVuSans-97"/>
     <path d="M 18.109375 8.203125 
L 18.109375 -20.796875 
L 9.078125 -20.796875 
L 9.078125 54.6875 
L 18.109375 54.6875 
L 18.109375 46.390625 
Q 20.953125 51.265625 25.265625 53.625 
Q 29.59375 56 35.59375 56 
Q 45.5625 56 51.78125 48.09375 
Q 58.015625 40.1875 58.015625 27.296875 
Q 58.015625 14.40625 51.78125 6.484375 
Q 45.5625 -1.421875 35.59375 -1.421875 
Q 29.59375 -1.421875 25.265625 0.953125 
Q 20.953125 3.328125 18.109375 8.203125 
z
M 48.6875 27.296875 
Q 48.6875 37.203125 44.609375 42.84375 
Q 40.53125 48.484375 33.40625 48.484375 
Q 26.265625 48.484375 22.1875 42.84375 
Q 18.109375 37.203125 18.109375 27.296875 
Q 18.109375 17.390625 22.1875 11.75 
Q 26.265625 6.109375 33.40625 6.109375 
Q 40.53125 6.109375 44.609375 11.75 
Q 48.6875 17.390625 48.6875 27.296875 
z
" id="DejaVuSans-112"/>
     <path d="M 19.671875 64.796875 
L 19.671875 8.109375 
L 31.59375 8.109375 
Q 46.6875 8.109375 53.6875 14.9375 
Q 60.6875 21.78125 60.6875 36.53125 
Q 60.6875 51.171875 53.6875 57.984375 
Q 46.6875 64.796875 31.59375 64.796875 
z
M 9.8125 72.90625 
L 30.078125 72.90625 
Q 51.265625 72.90625 61.171875 64.09375 
Q 71.09375 55.28125 71.09375 36.53125 
Q 71.09375 17.671875 61.125 8.828125 
Q 51.171875 0 30.078125 0 
L 9.8125 0 
z
" id="DejaVuSans-68"/>
     <path d="M 18.3125 70.21875 
L 18.3125 54.6875 
L 36.8125 54.6875 
L 36.8125 47.703125 
L 18.3125 47.703125 
L 18.3125 18.015625 
Q 18.3125 11.328125 20.140625 9.421875 
Q 21.96875 7.515625 27.59375 7.515625 
L 36.8125 7.515625 
L 36.8125 0 
L 27.59375 0 
Q 17.1875 0 13.234375 3.875 
Q 9.28125 7.765625 9.28125 18.015625 
L 9.28125 47.703125 
L 2.6875 47.703125 
L 2.6875 54.6875 
L 9.28125 54.6875 
L 9.28125 70.21875 
z
" id="DejaVuSans-116"/>
     <path d="M 41.109375 46.296875 
Q 39.59375 47.171875 37.8125 47.578125 
Q 36.03125 48 33.890625 48 
Q 26.265625 48 22.1875 43.046875 
Q 18.109375 38.09375 18.109375 28.8125 
L 18.109375 0 
L 9.078125 0 
L 9.078125 54.6875 
L 18.109375 54.6875 
L 18.109375 46.1875 
Q 20.953125 51.171875 25.484375 53.578125 
Q 30.03125 56 36.53125 56 
Q 37.453125 56 38.578125 55.875 
Q 39.703125 55.765625 41.0625 55.515625 
z
" id="DejaVuSans-114"/>
     <path d="M 48.6875 27.296875 
Q 48.6875 37.203125 44.609375 42.84375 
Q 40.53125 48.484375 33.40625 48.484375 
Q 26.265625 48.484375 22.1875 42.84375 
Q 18.109375 37.203125 18.109375 27.296875 
Q 18.109375 17.390625 22.1875 11.75 
Q 26.265625 6.109375 33.40625 6.109375 
Q 40.53125 6.109375 44.609375 11.75 
Q 48.6875 17.390625 48.6875 27.296875 
z
M 18.109375 46.390625 
Q 20.953125 51.265625 25.265625 53.625 
Q 29.59375 56 35.59375 56 
Q 45.5625 56 51.78125 48.09375 
Q 58.015625 40.1875 58.015625 27.296875 
Q 58.015625 14.40625 51.78125 6.484375 
Q 45.5625 -1.421875 35.59375 -1.421875 
Q 29.59375 -1.421875 25.265625 0.953125 
Q 20.953125 3.328125 18.109375 8.203125 
L 18.109375 0 
L 9.078125 0 
L 9.078125 75.984375 
L 18.109375 75.984375 
z
" id="DejaVuSans-98"/>
     <path d="M 8.5 21.578125 
L 8.5 54.6875 
L 17.484375 54.6875 
L 17.484375 21.921875 
Q 17.484375 14.15625 20.5 10.265625 
Q 23.53125 6.390625 29.59375 6.390625 
Q 36.859375 6.390625 41.078125 11.03125 
Q 45.3125 15.671875 45.3125 23.6875 
L 45.3125 54.6875 
L 54.296875 54.6875 
L 54.296875 0 
L 45.3125 0 
L 45.3125 8.40625 
Q 42.046875 3.421875 37.71875 1 
Q 33.40625 -1.421875 27.6875 -1.421875 
Q 18.265625 -1.421875 13.375 4.4375 
Q 8.5 10.296875 8.5 21.578125 
z
M 31.109375 56 
z
" id="DejaVuSans-117"/>
     <path d="M 30.609375 48.390625 
Q 23.390625 48.390625 19.1875 42.75 
Q 14.984375 37.109375 14.984375 27.296875 
Q 14.984375 17.484375 19.15625 11.84375 
Q 23.34375 6.203125 30.609375 6.203125 
Q 37.796875 6.203125 41.984375 11.859375 
Q 46.1875 17.53125 46.1875 27.296875 
Q 46.1875 37.015625 41.984375 42.703125 
Q 37.796875 48.390625 30.609375 48.390625 
z
M 30.609375 56 
Q 42.328125 56 49.015625 48.375 
Q 55.71875 40.765625 55.71875 27.296875 
Q 55.71875 13.875 49.015625 6.21875 
Q 42.328125 -1.421875 30.609375 -1.421875 
Q 18.84375 -1.421875 12.171875 6.21875 
Q 5.515625 13.875 5.515625 27.296875 
Q 5.515625 40.765625 12.171875 48.375 
Q 18.84375 56 30.609375 56 
z
" id="DejaVuSans-111"/>
     <path d="M 54.890625 33.015625 
L 54.890625 0 
L 45.90625 0 
L 45.90625 32.71875 
Q 45.90625 40.484375 42.875 44.328125 
Q 39.84375 48.1875 33.796875 48.1875 
Q 26.515625 48.1875 22.3125 43.546875 
Q 18.109375 38.921875 18.109375 30.90625 
L 18.109375 0 
L 9.078125 0 
L 9.078125 54.6875 
L 18.109375 54.6875 
L 18.109375 46.1875 
Q 21.34375 51.125 25.703125 53.5625 
Q 30.078125 56 35.796875 56 
Q 45.21875 56 50.046875 50.171875 
Q 54.890625 44.34375 54.890625 33.015625 
z
" id="DejaVuSans-110"/>
    </defs>
    <g transform="translate(185.030625 54.48)scale(0.12 -0.12)">
     <use xlink:href="#DejaVuSans-66"/>
     <use x="68.603516" xlink:href="#DejaVuSans-105"/>
     <use x="96.386719" xlink:href="#DejaVuSans-100"/>
     <use x="159.863281" xlink:href="#DejaVuSans-47"/>
     <use x="193.554688" xlink:href="#DejaVuSans-65"/>
     <use x="261.962891" xlink:href="#DejaVuSans-115"/>
     <use x="314.0625" xlink:href="#DejaVuSans-107"/>
     <use x="371.972656" xlink:href="#DejaVuSans-32"/>
     <use x="403.759766" xlink:href="#DejaVuSans-71"/>
     <use x="481.25" xlink:href="#DejaVuSans-97"/>
     <use x="542.529297" xlink:href="#DejaVuSans-112"/>
     <use x="606.005859" xlink:href="#DejaVuSans-32"/>
     <use x="637.792969" xlink:href="#DejaVuSans-68"/>
     <use x="714.794922" xlink:href="#DejaVuSans-105"/>
     <use x="742.578125" xlink:href="#DejaVuSans-115"/>
     <use x="794.677734" xlink:href="#DejaVuSans-116"/>
     <use x="833.886719" xlink:href="#DejaVuSans-114"/>
     <use x="875" xlink:href="#DejaVuSans-105"/>
     <use x="902.783203" xlink:href="#DejaVuSans-98"/>
     <use x="966.259766" xlink:href="#DejaVuSans-117"/>
     <use x="1029.638672" xlink:href="#DejaVuSans-116"/>
     <use x="1068.847656" xlink:href="#DejaVuSans-105"/>
     <use x="1096.630859" xlink:href="#DejaVuSans-111"/>
     <use x="1157.8125" xlink:href="#DejaVuSans-110"/>
    </g>
   </g>
  </g>
 </g>
 <defs>
  <clipPath id="p2e78e46962">
   <rect height="388.08" width="390.6" x="63" y="60.48"/>
  </clipPath>
 </defs>
</svg>
