<?xml version="1.0" encoding="utf-8" standalone="no"?>
<!DOCTYPE svg PUBLIC "-//W3C//DTD SVG 1.1//EN"
  "http://www.w3.org/Graphics/SVG/1.1/DTD/svg11.dtd">
<!-- Created with matplotlib (http://matplotlib.org/) -->
<svg height="345.6pt" version="1.1" viewBox="0 0 460.8 345.6" width="460.8pt" xmlns="http://www.w3.org/2000/svg" xmlns:xlink="http://www.w3.org/1999/xlink">
 <defs>
  <style type="text/css">
*{stroke-linecap:butt;stroke-linejoin:round;}
  </style>
 </defs>
 <g id="figure_1">
  <g id="patch_1">
   <path d="M 0 345.6 
L 460.8 345.6 
L 460.8 0 
L 0 0 
z
" style="fill:#ffffff;"/>
  </g>
  <g id="axes_1">
   <g id="patch_2">
    <path d="M 57.6 307.584 
L 414.72 307.584 
L 414.72 41.472 
L 57.6 41.472 
z
" style="fill:#ffffff;"/>
   </g>
   <g id="patch_3">
    <path clip-path="url(#p96dfdf66cd)" d="M 73.832727 77242.528281 
L 77.361581 77242.528281 
L 77.361581 53.568 
L 73.832727 53.568 
z
" style="fill:#1f77b4;opacity:0.4;"/>
   </g>
   <g id="patch_4">
    <path clip-path="url(#p96dfdf66cd)" d="M 77.361581 77242.528281 
L 80.890435 77242.528281 
L 80.890435 88.49772 
L 77.361581 88.49772 
z
" style="fill:#1f77b4;opacity:0.4;"/>
   </g>
   <g id="patch_5">
    <path clip-path="url(#p96dfdf66cd)" d="M 80.890435 77242.528281 
L 84.419289 77242.528281 
L 84.419289 82.250071 
L 80.890435 82.250071 
z
" style="fill:#1f77b4;opacity:0.4;"/>
   </g>
   <g id="patch_6">
    <path clip-path="url(#p96dfdf66cd)" d="M 84.419289 77242.528281 
L 87.948142 77242.528281 
L 87.948142 112.439554 
L 84.419289 112.439554 
z
" style="fill:#1f77b4;opacity:0.4;"/>
   </g>
   <g id="patch_7">
    <path clip-path="url(#p96dfdf66cd)" d="M 87.948142 77242.528281 
L 91.476996 77242.528281 
L 91.476996 98.071764 
L 87.948142 98.071764 
z
" style="fill:#1f77b4;opacity:0.4;"/>
   </g>
   <g id="patch_8">
    <path clip-path="url(#p96dfdf66cd)" d="M 91.476996 77242.528281 
L 95.00585 77242.528281 
L 95.00585 118.789812 
L 91.476996 118.789812 
z
" style="fill:#1f77b4;opacity:0.4;"/>
   </g>
   <g id="patch_9">
    <path clip-path="url(#p96dfdf66cd)" d="M 95.00585 77242.528281 
L 98.534704 77242.528281 
L 98.534704 101.12344 
L 95.00585 101.12344 
z
" style="fill:#1f77b4;opacity:0.4;"/>
   </g>
   <g id="patch_10">
    <path clip-path="url(#p96dfdf66cd)" d="M 98.534704 77242.528281 
L 102.063557 77242.528281 
L 102.063557 155.938936 
L 98.534704 155.938936 
z
" style="fill:#1f77b4;opacity:0.4;"/>
   </g>
   <g id="patch_11">
    <path clip-path="url(#p96dfdf66cd)" d="M 102.063557 77242.528281 
L 105.592411 77242.528281 
L 105.592411 141.993322 
L 102.063557 141.993322 
z
" style="fill:#1f77b4;opacity:0.4;"/>
   </g>
   <g id="patch_12">
    <path clip-path="url(#p96dfdf66cd)" d="M 105.592411 77242.528281 
L 109.121265 77242.528281 
L 109.121265 176.041295 
L 105.592411 176.041295 
z
" style="fill:#1f77b4;opacity:0.4;"/>
   </g>
   <g id="patch_13">
    <path clip-path="url(#p96dfdf66cd)" d="M 109.121265 77242.528281 
L 112.650119 77242.528281 
L 112.650119 149.016853 
L 109.121265 149.016853 
z
" style="fill:#1f77b4;opacity:0.4;"/>
   </g>
   <g id="patch_14">
    <path clip-path="url(#p96dfdf66cd)" d="M 112.650119 77242.528281 
L 116.178972 77242.528281 
L 116.178972 146.522231 
L 112.650119 146.522231 
z
" style="fill:#1f77b4;opacity:0.4;"/>
   </g>
   <g id="patch_15">
    <path clip-path="url(#p96dfdf66cd)" d="M 116.178972 77242.528281 
L 119.707826 77242.528281 
L 119.707826 185.63464 
L 116.178972 185.63464 
z
" style="fill:#1f77b4;opacity:0.4;"/>
   </g>
   <g id="patch_16">
    <path clip-path="url(#p96dfdf66cd)" d="M 119.707826 77242.528281 
L 123.23668 77242.528281 
L 123.23668 145.505087 
L 119.707826 145.505087 
z
" style="fill:#1f77b4;opacity:0.4;"/>
   </g>
   <g id="patch_17">
    <path clip-path="url(#p96dfdf66cd)" d="M 123.23668 77242.528281 
L 126.765534 77242.528281 
L 126.765534 168.608339 
L 123.23668 168.608339 
z
" style="fill:#1f77b4;opacity:0.4;"/>
   </g>
   <g id="patch_18">
    <path clip-path="url(#p96dfdf66cd)" d="M 126.765534 77242.528281 
L 130.294387 77242.528281 
L 130.294387 131.990552 
L 126.765534 131.990552 
z
" style="fill:#1f77b4;opacity:0.4;"/>
   </g>
   <g id="patch_19">
    <path clip-path="url(#p96dfdf66cd)" d="M 130.294387 77242.528281 
L 133.823241 77242.528281 
L 133.823241 222.252427 
L 130.294387 222.252427 
z
" style="fill:#1f77b4;opacity:0.4;"/>
   </g>
   <g id="patch_20">
    <path clip-path="url(#p96dfdf66cd)" d="M 133.823241 77242.528281 
L 137.352095 77242.528281 
L 137.352095 77242.528281 
L 133.823241 77242.528281 
z
" style="fill:#1f77b4;opacity:0.4;"/>
   </g>
   <g id="patch_21">
    <path clip-path="url(#p96dfdf66cd)" d="M 137.352095 77242.528281 
L 140.880949 77242.528281 
L 140.880949 199.149175 
L 137.352095 199.149175 
z
" style="fill:#1f77b4;opacity:0.4;"/>
   </g>
   <g id="patch_22">
    <path clip-path="url(#p96dfdf66cd)" d="M 140.880949 77242.528281 
L 144.409802 77242.528281 
L 144.409802 199.149175 
L 140.880949 199.149175 
z
" style="fill:#1f77b4;opacity:0.4;"/>
   </g>
   <g id="patch_23">
    <path clip-path="url(#p96dfdf66cd)" d="M 144.409802 77242.528281 
L 147.938656 77242.528281 
L 147.938656 199.149175 
L 144.409802 199.149175 
z
" style="fill:#1f77b4;opacity:0.4;"/>
   </g>
   <g id="patch_24">
    <path clip-path="url(#p96dfdf66cd)" d="M 147.938656 77242.528281 
L 151.46751 77242.528281 
L 151.46751 295.488 
L 147.938656 295.488 
z
" style="fill:#1f77b4;opacity:0.4;"/>
   </g>
   <g id="patch_25">
    <path clip-path="url(#p96dfdf66cd)" d="M 151.46751 77242.528281 
L 154.996364 77242.528281 
L 154.996364 148.728006 
L 151.46751 148.728006 
z
" style="fill:#1f77b4;opacity:0.4;"/>
   </g>
   <g id="patch_26">
    <path clip-path="url(#p96dfdf66cd)" d="M 154.996364 77242.528281 
L 158.525217 77242.528281 
L 158.525217 222.252427 
L 154.996364 222.252427 
z
" style="fill:#1f77b4;opacity:0.4;"/>
   </g>
   <g id="patch_27">
    <path clip-path="url(#p96dfdf66cd)" d="M 158.525217 77242.528281 
L 162.054071 77242.528281 
L 162.054071 77242.528281 
L 158.525217 77242.528281 
z
" style="fill:#1f77b4;opacity:0.4;"/>
   </g>
   <g id="patch_28">
    <path clip-path="url(#p96dfdf66cd)" d="M 162.054071 77242.528281 
L 165.582925 77242.528281 
L 165.582925 77242.528281 
L 162.054071 77242.528281 
z
" style="fill:#1f77b4;opacity:0.4;"/>
   </g>
   <g id="patch_29">
    <path clip-path="url(#p96dfdf66cd)" d="M 165.582925 77242.528281 
L 169.111779 77242.528281 
L 169.111779 77242.528281 
L 165.582925 77242.528281 
z
" style="fill:#1f77b4;opacity:0.4;"/>
   </g>
   <g id="patch_30">
    <path clip-path="url(#p96dfdf66cd)" d="M 169.111779 77242.528281 
L 172.640632 77242.528281 
L 172.640632 77242.528281 
L 169.111779 77242.528281 
z
" style="fill:#1f77b4;opacity:0.4;"/>
   </g>
   <g id="patch_31">
    <path clip-path="url(#p96dfdf66cd)" d="M 172.640632 77242.528281 
L 176.169486 77242.528281 
L 176.169486 77242.528281 
L 172.640632 77242.528281 
z
" style="fill:#1f77b4;opacity:0.4;"/>
   </g>
   <g id="patch_32">
    <path clip-path="url(#p96dfdf66cd)" d="M 176.169486 77242.528281 
L 179.69834 77242.528281 
L 179.69834 199.149175 
L 176.169486 199.149175 
z
" style="fill:#1f77b4;opacity:0.4;"/>
   </g>
   <g id="patch_33">
    <path clip-path="url(#p96dfdf66cd)" d="M 179.69834 77242.528281 
L 183.227194 77242.528281 
L 183.227194 222.252427 
L 179.69834 222.252427 
z
" style="fill:#1f77b4;opacity:0.4;"/>
   </g>
   <g id="patch_34">
    <path clip-path="url(#p96dfdf66cd)" d="M 183.227194 77242.528281 
L 186.756047 77242.528281 
L 186.756047 77242.528281 
L 183.227194 77242.528281 
z
" style="fill:#1f77b4;opacity:0.4;"/>
   </g>
   <g id="patch_35">
    <path clip-path="url(#p96dfdf66cd)" d="M 186.756047 77242.528281 
L 190.284901 77242.528281 
L 190.284901 222.252427 
L 186.756047 222.252427 
z
" style="fill:#1f77b4;opacity:0.4;"/>
   </g>
   <g id="patch_36">
    <path clip-path="url(#p96dfdf66cd)" d="M 190.284901 77242.528281 
L 193.813755 77242.528281 
L 193.813755 222.252427 
L 190.284901 222.252427 
z
" style="fill:#1f77b4;opacity:0.4;"/>
   </g>
   <g id="patch_37">
    <path clip-path="url(#p96dfdf66cd)" d="M 193.813755 77242.528281 
L 197.342609 77242.528281 
L 197.342609 222.252427 
L 193.813755 222.252427 
z
" style="fill:#1f77b4;opacity:0.4;"/>
   </g>
   <g id="patch_38">
    <path clip-path="url(#p96dfdf66cd)" d="M 197.342609 77242.528281 
L 200.871462 77242.528281 
L 200.871462 77242.528281 
L 197.342609 77242.528281 
z
" style="fill:#1f77b4;opacity:0.4;"/>
   </g>
   <g id="patch_39">
    <path clip-path="url(#p96dfdf66cd)" d="M 200.871462 77242.528281 
L 204.400316 77242.528281 
L 204.400316 77242.528281 
L 200.871462 77242.528281 
z
" style="fill:#1f77b4;opacity:0.4;"/>
   </g>
   <g id="patch_40">
    <path clip-path="url(#p96dfdf66cd)" d="M 204.400316 77242.528281 
L 207.92917 77242.528281 
L 207.92917 77242.528281 
L 204.400316 77242.528281 
z
" style="fill:#1f77b4;opacity:0.4;"/>
   </g>
   <g id="patch_41">
    <path clip-path="url(#p96dfdf66cd)" d="M 207.92917 77242.528281 
L 211.458024 77242.528281 
L 211.458024 222.252427 
L 207.92917 222.252427 
z
" style="fill:#1f77b4;opacity:0.4;"/>
   </g>
   <g id="patch_42">
    <path clip-path="url(#p96dfdf66cd)" d="M 211.458024 77242.528281 
L 214.986877 77242.528281 
L 214.986877 77242.528281 
L 211.458024 77242.528281 
z
" style="fill:#1f77b4;opacity:0.4;"/>
   </g>
   <g id="patch_43">
    <path clip-path="url(#p96dfdf66cd)" d="M 214.986877 77242.528281 
L 218.515731 77242.528281 
L 218.515731 222.252427 
L 214.986877 222.252427 
z
" style="fill:#1f77b4;opacity:0.4;"/>
   </g>
   <g id="patch_44">
    <path clip-path="url(#p96dfdf66cd)" d="M 218.515731 77242.528281 
L 222.044585 77242.528281 
L 222.044585 77242.528281 
L 218.515731 77242.528281 
z
" style="fill:#1f77b4;opacity:0.4;"/>
   </g>
   <g id="patch_45">
    <path clip-path="url(#p96dfdf66cd)" d="M 222.044585 77242.528281 
L 225.573439 77242.528281 
L 225.573439 77242.528281 
L 222.044585 77242.528281 
z
" style="fill:#1f77b4;opacity:0.4;"/>
   </g>
   <g id="patch_46">
    <path clip-path="url(#p96dfdf66cd)" d="M 225.573439 77242.528281 
L 229.102292 77242.528281 
L 229.102292 222.252427 
L 225.573439 222.252427 
z
" style="fill:#1f77b4;opacity:0.4;"/>
   </g>
   <g id="patch_47">
    <path clip-path="url(#p96dfdf66cd)" d="M 229.102292 77242.528281 
L 232.631146 77242.528281 
L 232.631146 77242.528281 
L 229.102292 77242.528281 
z
" style="fill:#1f77b4;opacity:0.4;"/>
   </g>
   <g id="patch_48">
    <path clip-path="url(#p96dfdf66cd)" d="M 232.631146 77242.528281 
L 236.16 77242.528281 
L 236.16 189.741493 
L 232.631146 189.741493 
z
" style="fill:#1f77b4;opacity:0.4;"/>
   </g>
   <g id="patch_49">
    <path clip-path="url(#p96dfdf66cd)" d="M 236.16 77242.528281 
L 239.688854 77242.528281 
L 239.688854 77242.528281 
L 236.16 77242.528281 
z
" style="fill:#1f77b4;opacity:0.4;"/>
   </g>
   <g id="patch_50">
    <path clip-path="url(#p96dfdf66cd)" d="M 239.688854 77242.528281 
L 243.217708 77242.528281 
L 243.217708 77242.528281 
L 239.688854 77242.528281 
z
" style="fill:#1f77b4;opacity:0.4;"/>
   </g>
   <g id="patch_51">
    <path clip-path="url(#p96dfdf66cd)" d="M 243.217708 77242.528281 
L 246.746561 77242.528281 
L 246.746561 77242.528281 
L 243.217708 77242.528281 
z
" style="fill:#1f77b4;opacity:0.4;"/>
   </g>
   <g id="patch_52">
    <path clip-path="url(#p96dfdf66cd)" d="M 246.746561 77242.528281 
L 250.275415 77242.528281 
L 250.275415 77242.528281 
L 246.746561 77242.528281 
z
" style="fill:#1f77b4;opacity:0.4;"/>
   </g>
   <g id="patch_53">
    <path clip-path="url(#p96dfdf66cd)" d="M 250.275415 77242.528281 
L 253.804269 77242.528281 
L 253.804269 77242.528281 
L 250.275415 77242.528281 
z
" style="fill:#1f77b4;opacity:0.4;"/>
   </g>
   <g id="patch_54">
    <path clip-path="url(#p96dfdf66cd)" d="M 253.804269 77242.528281 
L 257.333123 77242.528281 
L 257.333123 77242.528281 
L 253.804269 77242.528281 
z
" style="fill:#1f77b4;opacity:0.4;"/>
   </g>
   <g id="patch_55">
    <path clip-path="url(#p96dfdf66cd)" d="M 257.333123 77242.528281 
L 260.861976 77242.528281 
L 260.861976 77242.528281 
L 257.333123 77242.528281 
z
" style="fill:#1f77b4;opacity:0.4;"/>
   </g>
   <g id="patch_56">
    <path clip-path="url(#p96dfdf66cd)" d="M 260.861976 77242.528281 
L 264.39083 77242.528281 
L 264.39083 77242.528281 
L 260.861976 77242.528281 
z
" style="fill:#1f77b4;opacity:0.4;"/>
   </g>
   <g id="patch_57">
    <path clip-path="url(#p96dfdf66cd)" d="M 264.39083 77242.528281 
L 267.919684 77242.528281 
L 267.919684 77242.528281 
L 264.39083 77242.528281 
z
" style="fill:#1f77b4;opacity:0.4;"/>
   </g>
   <g id="patch_58">
    <path clip-path="url(#p96dfdf66cd)" d="M 267.919684 77242.528281 
L 271.448538 77242.528281 
L 271.448538 77242.528281 
L 267.919684 77242.528281 
z
" style="fill:#1f77b4;opacity:0.4;"/>
   </g>
   <g id="patch_59">
    <path clip-path="url(#p96dfdf66cd)" d="M 271.448538 77242.528281 
L 274.977391 77242.528281 
L 274.977391 77242.528281 
L 271.448538 77242.528281 
z
" style="fill:#1f77b4;opacity:0.4;"/>
   </g>
   <g id="patch_60">
    <path clip-path="url(#p96dfdf66cd)" d="M 274.977391 77242.528281 
L 278.506245 77242.528281 
L 278.506245 77242.528281 
L 274.977391 77242.528281 
z
" style="fill:#1f77b4;opacity:0.4;"/>
   </g>
   <g id="patch_61">
    <path clip-path="url(#p96dfdf66cd)" d="M 278.506245 77242.528281 
L 282.035099 77242.528281 
L 282.035099 77242.528281 
L 278.506245 77242.528281 
z
" style="fill:#1f77b4;opacity:0.4;"/>
   </g>
   <g id="patch_62">
    <path clip-path="url(#p96dfdf66cd)" d="M 282.035099 77242.528281 
L 285.563953 77242.528281 
L 285.563953 295.488 
L 282.035099 295.488 
z
" style="fill:#1f77b4;opacity:0.4;"/>
   </g>
   <g id="patch_63">
    <path clip-path="url(#p96dfdf66cd)" d="M 285.563953 77242.528281 
L 289.092806 77242.528281 
L 289.092806 77242.528281 
L 285.563953 77242.528281 
z
" style="fill:#1f77b4;opacity:0.4;"/>
   </g>
   <g id="patch_64">
    <path clip-path="url(#p96dfdf66cd)" d="M 289.092806 77242.528281 
L 292.62166 77242.528281 
L 292.62166 77242.528281 
L 289.092806 77242.528281 
z
" style="fill:#1f77b4;opacity:0.4;"/>
   </g>
   <g id="patch_65">
    <path clip-path="url(#p96dfdf66cd)" d="M 292.62166 77242.528281 
L 296.150514 77242.528281 
L 296.150514 77242.528281 
L 292.62166 77242.528281 
z
" style="fill:#1f77b4;opacity:0.4;"/>
   </g>
   <g id="patch_66">
    <path clip-path="url(#p96dfdf66cd)" d="M 296.150514 77242.528281 
L 299.679368 77242.528281 
L 299.679368 77242.528281 
L 296.150514 77242.528281 
z
" style="fill:#1f77b4;opacity:0.4;"/>
   </g>
   <g id="patch_67">
    <path clip-path="url(#p96dfdf66cd)" d="M 299.679368 77242.528281 
L 303.208221 77242.528281 
L 303.208221 77242.528281 
L 299.679368 77242.528281 
z
" style="fill:#1f77b4;opacity:0.4;"/>
   </g>
   <g id="patch_68">
    <path clip-path="url(#p96dfdf66cd)" d="M 303.208221 77242.528281 
L 306.737075 77242.528281 
L 306.737075 77242.528281 
L 303.208221 77242.528281 
z
" style="fill:#1f77b4;opacity:0.4;"/>
   </g>
   <g id="patch_69">
    <path clip-path="url(#p96dfdf66cd)" d="M 306.737075 77242.528281 
L 310.265929 77242.528281 
L 310.265929 77242.528281 
L 306.737075 77242.528281 
z
" style="fill:#1f77b4;opacity:0.4;"/>
   </g>
   <g id="patch_70">
    <path clip-path="url(#p96dfdf66cd)" d="M 310.265929 77242.528281 
L 313.794783 77242.528281 
L 313.794783 77242.528281 
L 310.265929 77242.528281 
z
" style="fill:#1f77b4;opacity:0.4;"/>
   </g>
   <g id="patch_71">
    <path clip-path="url(#p96dfdf66cd)" d="M 313.794783 77242.528281 
L 317.323636 77242.528281 
L 317.323636 203.346915 
L 313.794783 203.346915 
z
" style="fill:#1f77b4;opacity:0.4;"/>
   </g>
   <g id="patch_72">
    <path clip-path="url(#p96dfdf66cd)" d="M 317.323636 77242.528281 
L 320.85249 77242.528281 
L 320.85249 77242.528281 
L 317.323636 77242.528281 
z
" style="fill:#1f77b4;opacity:0.4;"/>
   </g>
   <g id="patch_73">
    <path clip-path="url(#p96dfdf66cd)" d="M 320.85249 77242.528281 
L 324.381344 77242.528281 
L 324.381344 222.252427 
L 320.85249 222.252427 
z
" style="fill:#1f77b4;opacity:0.4;"/>
   </g>
   <g id="patch_74">
    <path clip-path="url(#p96dfdf66cd)" d="M 324.381344 77242.528281 
L 327.910198 77242.528281 
L 327.910198 77242.528281 
L 324.381344 77242.528281 
z
" style="fill:#1f77b4;opacity:0.4;"/>
   </g>
   <g id="patch_75">
    <path clip-path="url(#p96dfdf66cd)" d="M 327.910198 77242.528281 
L 331.439051 77242.528281 
L 331.439051 77242.528281 
L 327.910198 77242.528281 
z
" style="fill:#1f77b4;opacity:0.4;"/>
   </g>
   <g id="patch_76">
    <path clip-path="url(#p96dfdf66cd)" d="M 331.439051 77242.528281 
L 334.967905 77242.528281 
L 334.967905 222.737385 
L 331.439051 222.737385 
z
" style="fill:#1f77b4;opacity:0.4;"/>
   </g>
   <g id="patch_77">
    <path clip-path="url(#p96dfdf66cd)" d="M 334.967905 77242.528281 
L 338.496759 77242.528281 
L 338.496759 77242.528281 
L 334.967905 77242.528281 
z
" style="fill:#1f77b4;opacity:0.4;"/>
   </g>
   <g id="patch_78">
    <path clip-path="url(#p96dfdf66cd)" d="M 338.496759 77242.528281 
L 342.025613 77242.528281 
L 342.025613 77242.528281 
L 338.496759 77242.528281 
z
" style="fill:#1f77b4;opacity:0.4;"/>
   </g>
   <g id="patch_79">
    <path clip-path="url(#p96dfdf66cd)" d="M 342.025613 77242.528281 
L 345.554466 77242.528281 
L 345.554466 77242.528281 
L 342.025613 77242.528281 
z
" style="fill:#1f77b4;opacity:0.4;"/>
   </g>
   <g id="patch_80">
    <path clip-path="url(#p96dfdf66cd)" d="M 345.554466 77242.528281 
L 349.08332 77242.528281 
L 349.08332 77242.528281 
L 345.554466 77242.528281 
z
" style="fill:#1f77b4;opacity:0.4;"/>
   </g>
   <g id="patch_81">
    <path clip-path="url(#p96dfdf66cd)" d="M 349.08332 77242.528281 
L 352.612174 77242.528281 
L 352.612174 77242.528281 
L 349.08332 77242.528281 
z
" style="fill:#1f77b4;opacity:0.4;"/>
   </g>
   <g id="patch_82">
    <path clip-path="url(#p96dfdf66cd)" d="M 352.612174 77242.528281 
L 356.141028 77242.528281 
L 356.141028 77242.528281 
L 352.612174 77242.528281 
z
" style="fill:#1f77b4;opacity:0.4;"/>
   </g>
   <g id="patch_83">
    <path clip-path="url(#p96dfdf66cd)" d="M 356.141028 77242.528281 
L 359.669881 77242.528281 
L 359.669881 77242.528281 
L 356.141028 77242.528281 
z
" style="fill:#1f77b4;opacity:0.4;"/>
   </g>
   <g id="patch_84">
    <path clip-path="url(#p96dfdf66cd)" d="M 359.669881 77242.528281 
L 363.198735 77242.528281 
L 363.198735 77242.528281 
L 359.669881 77242.528281 
z
" style="fill:#1f77b4;opacity:0.4;"/>
   </g>
   <g id="patch_85">
    <path clip-path="url(#p96dfdf66cd)" d="M 363.198735 77242.528281 
L 366.727589 77242.528281 
L 366.727589 77242.528281 
L 363.198735 77242.528281 
z
" style="fill:#1f77b4;opacity:0.4;"/>
   </g>
   <g id="patch_86">
    <path clip-path="url(#p96dfdf66cd)" d="M 366.727589 77242.528281 
L 370.256443 77242.528281 
L 370.256443 77242.528281 
L 366.727589 77242.528281 
z
" style="fill:#1f77b4;opacity:0.4;"/>
   </g>
   <g id="patch_87">
    <path clip-path="url(#p96dfdf66cd)" d="M 370.256443 77242.528281 
L 373.785296 77242.528281 
L 373.785296 77242.528281 
L 370.256443 77242.528281 
z
" style="fill:#1f77b4;opacity:0.4;"/>
   </g>
   <g id="patch_88">
    <path clip-path="url(#p96dfdf66cd)" d="M 373.785296 77242.528281 
L 377.31415 77242.528281 
L 377.31415 77242.528281 
L 373.785296 77242.528281 
z
" style="fill:#1f77b4;opacity:0.4;"/>
   </g>
   <g id="patch_89">
    <path clip-path="url(#p96dfdf66cd)" d="M 377.31415 77242.528281 
L 380.843004 77242.528281 
L 380.843004 77242.528281 
L 377.31415 77242.528281 
z
" style="fill:#1f77b4;opacity:0.4;"/>
   </g>
   <g id="patch_90">
    <path clip-path="url(#p96dfdf66cd)" d="M 380.843004 77242.528281 
L 384.371858 77242.528281 
L 384.371858 222.252427 
L 380.843004 222.252427 
z
" style="fill:#1f77b4;opacity:0.4;"/>
   </g>
   <g id="patch_91">
    <path clip-path="url(#p96dfdf66cd)" d="M 384.371858 77242.528281 
L 387.900711 77242.528281 
L 387.900711 77242.528281 
L 384.371858 77242.528281 
z
" style="fill:#1f77b4;opacity:0.4;"/>
   </g>
   <g id="patch_92">
    <path clip-path="url(#p96dfdf66cd)" d="M 387.900711 77242.528281 
L 391.429565 77242.528281 
L 391.429565 222.252427 
L 387.900711 222.252427 
z
" style="fill:#1f77b4;opacity:0.4;"/>
   </g>
   <g id="patch_93">
    <path clip-path="url(#p96dfdf66cd)" d="M 391.429565 77242.528281 
L 394.958419 77242.528281 
L 394.958419 77242.528281 
L 391.429565 77242.528281 
z
" style="fill:#1f77b4;opacity:0.4;"/>
   </g>
   <g id="patch_94">
    <path clip-path="url(#p96dfdf66cd)" d="M 394.958419 77242.528281 
L 398.487273 77242.528281 
L 398.487273 222.252427 
L 394.958419 222.252427 
z
" style="fill:#1f77b4;opacity:0.4;"/>
   </g>
   <g id="matplotlib.axis_1">
    <g id="xtick_1">
     <g id="line2d_1">
      <defs>
       <path d="M 0 0 
L 0 3.5 
" id="m3bfc1157b8" style="stroke:#000000;stroke-width:0.8;"/>
      </defs>
      <g>
       <use style="stroke:#000000;stroke-width:0.8;" x="73.019057" xlink:href="#m3bfc1157b8" y="307.584"/>
      </g>
     </g>
     <g id="text_1">
      <!-- 0.0 -->
      <defs>
       <path d="M 31.78125 66.40625 
Q 24.171875 66.40625 20.328125 58.90625 
Q 16.5 51.421875 16.5 36.375 
Q 16.5 21.390625 20.328125 13.890625 
Q 24.171875 6.390625 31.78125 6.390625 
Q 39.453125 6.390625 43.28125 13.890625 
Q 47.125 21.390625 47.125 36.375 
Q 47.125 51.421875 43.28125 58.90625 
Q 39.453125 66.40625 31.78125 66.40625 
z
M 31.78125 74.21875 
Q 44.046875 74.21875 50.515625 64.515625 
Q 56.984375 54.828125 56.984375 36.375 
Q 56.984375 17.96875 50.515625 8.265625 
Q 44.046875 -1.421875 31.78125 -1.421875 
Q 19.53125 -1.421875 13.0625 8.265625 
Q 6.59375 17.96875 6.59375 36.375 
Q 6.59375 54.828125 13.0625 64.515625 
Q 19.53125 74.21875 31.78125 74.21875 
z
" id="DejaVuSans-30"/>
       <path d="M 10.6875 12.40625 
L 21 12.40625 
L 21 0 
L 10.6875 0 
z
" id="DejaVuSans-2e"/>
      </defs>
      <g transform="translate(65.067494 322.182437)scale(0.1 -0.1)">
       <use xlink:href="#DejaVuSans-30"/>
       <use x="63.623047" xlink:href="#DejaVuSans-2e"/>
       <use x="95.410156" xlink:href="#DejaVuSans-30"/>
      </g>
     </g>
    </g>
    <g id="xtick_2">
     <g id="line2d_2">
      <g>
       <use style="stroke:#000000;stroke-width:0.8;" x="113.702584" xlink:href="#m3bfc1157b8" y="307.584"/>
      </g>
     </g>
     <g id="text_2">
      <!-- 0.5 -->
      <defs>
       <path d="M 10.796875 72.90625 
L 49.515625 72.90625 
L 49.515625 64.59375 
L 19.828125 64.59375 
L 19.828125 46.734375 
Q 21.96875 47.46875 24.109375 47.828125 
Q 26.265625 48.1875 28.421875 48.1875 
Q 40.625 48.1875 47.75 41.5 
Q 54.890625 34.8125 54.890625 23.390625 
Q 54.890625 11.625 47.5625 5.09375 
Q 40.234375 -1.421875 26.90625 -1.421875 
Q 22.3125 -1.421875 17.546875 -0.640625 
Q 12.796875 0.140625 7.71875 1.703125 
L 7.71875 11.625 
Q 12.109375 9.234375 16.796875 8.0625 
Q 21.484375 6.890625 26.703125 6.890625 
Q 35.15625 6.890625 40.078125 11.328125 
Q 45.015625 15.765625 45.015625 23.390625 
Q 45.015625 31 40.078125 35.4375 
Q 35.15625 39.890625 26.703125 39.890625 
Q 22.75 39.890625 18.8125 39.015625 
Q 14.890625 38.140625 10.796875 36.28125 
z
" id="DejaVuSans-35"/>
      </defs>
      <g transform="translate(105.751021 322.182437)scale(0.1 -0.1)">
       <use xlink:href="#DejaVuSans-30"/>
       <use x="63.623047" xlink:href="#DejaVuSans-2e"/>
       <use x="95.410156" xlink:href="#DejaVuSans-35"/>
      </g>
     </g>
    </g>
    <g id="xtick_3">
     <g id="line2d_3">
      <g>
       <use style="stroke:#000000;stroke-width:0.8;" x="154.386111" xlink:href="#m3bfc1157b8" y="307.584"/>
      </g>
     </g>
     <g id="text_3">
      <!-- 1.0 -->
      <defs>
       <path d="M 12.40625 8.296875 
L 28.515625 8.296875 
L 28.515625 63.921875 
L 10.984375 60.40625 
L 10.984375 69.390625 
L 28.421875 72.90625 
L 38.28125 72.90625 
L 38.28125 8.296875 
L 54.390625 8.296875 
L 54.390625 0 
L 12.40625 0 
z
" id="DejaVuSans-31"/>
      </defs>
      <g transform="translate(146.434548 322.182437)scale(0.1 -0.1)">
       <use xlink:href="#DejaVuSans-31"/>
       <use x="63.623047" xlink:href="#DejaVuSans-2e"/>
       <use x="95.410156" xlink:href="#DejaVuSans-30"/>
      </g>
     </g>
    </g>
    <g id="xtick_4">
     <g id="line2d_4">
      <g>
       <use style="stroke:#000000;stroke-width:0.8;" x="195.069638" xlink:href="#m3bfc1157b8" y="307.584"/>
      </g>
     </g>
     <g id="text_4">
      <!-- 1.5 -->
      <g transform="translate(187.118075 322.182437)scale(0.1 -0.1)">
       <use xlink:href="#DejaVuSans-31"/>
       <use x="63.623047" xlink:href="#DejaVuSans-2e"/>
       <use x="95.410156" xlink:href="#DejaVuSans-35"/>
      </g>
     </g>
    </g>
    <g id="xtick_5">
     <g id="line2d_5">
      <g>
       <use style="stroke:#000000;stroke-width:0.8;" x="235.753165" xlink:href="#m3bfc1157b8" y="307.584"/>
      </g>
     </g>
     <g id="text_5">
      <!-- 2.0 -->
      <defs>
       <path d="M 19.1875 8.296875 
L 53.609375 8.296875 
L 53.609375 0 
L 7.328125 0 
L 7.328125 8.296875 
Q 12.9375 14.109375 22.625 23.890625 
Q 32.328125 33.6875 34.8125 36.53125 
Q 39.546875 41.84375 41.421875 45.53125 
Q 43.3125 49.21875 43.3125 52.78125 
Q 43.3125 58.59375 39.234375 62.25 
Q 35.15625 65.921875 28.609375 65.921875 
Q 23.96875 65.921875 18.8125 64.3125 
Q 13.671875 62.703125 7.8125 59.421875 
L 7.8125 69.390625 
Q 13.765625 71.78125 18.9375 73 
Q 24.125 74.21875 28.421875 74.21875 
Q 39.75 74.21875 46.484375 68.546875 
Q 53.21875 62.890625 53.21875 53.421875 
Q 53.21875 48.921875 51.53125 44.890625 
Q 49.859375 40.875 45.40625 35.40625 
Q 44.1875 33.984375 37.640625 27.21875 
Q 31.109375 20.453125 19.1875 8.296875 
z
" id="DejaVuSans-32"/>
      </defs>
      <g transform="translate(227.801602 322.182437)scale(0.1 -0.1)">
       <use xlink:href="#DejaVuSans-32"/>
       <use x="63.623047" xlink:href="#DejaVuSans-2e"/>
       <use x="95.410156" xlink:href="#DejaVuSans-30"/>
      </g>
     </g>
    </g>
    <g id="xtick_6">
     <g id="line2d_6">
      <g>
       <use style="stroke:#000000;stroke-width:0.8;" x="276.436692" xlink:href="#m3bfc1157b8" y="307.584"/>
      </g>
     </g>
     <g id="text_6">
      <!-- 2.5 -->
      <g transform="translate(268.485129 322.182437)scale(0.1 -0.1)">
       <use xlink:href="#DejaVuSans-32"/>
       <use x="63.623047" xlink:href="#DejaVuSans-2e"/>
       <use x="95.410156" xlink:href="#DejaVuSans-35"/>
      </g>
     </g>
    </g>
    <g id="xtick_7">
     <g id="line2d_7">
      <g>
       <use style="stroke:#000000;stroke-width:0.8;" x="317.120219" xlink:href="#m3bfc1157b8" y="307.584"/>
      </g>
     </g>
     <g id="text_7">
      <!-- 3.0 -->
      <defs>
       <path d="M 40.578125 39.3125 
Q 47.65625 37.796875 51.625 33 
Q 55.609375 28.21875 55.609375 21.1875 
Q 55.609375 10.40625 48.1875 4.484375 
Q 40.765625 -1.421875 27.09375 -1.421875 
Q 22.515625 -1.421875 17.65625 -0.515625 
Q 12.796875 0.390625 7.625 2.203125 
L 7.625 11.71875 
Q 11.71875 9.328125 16.59375 8.109375 
Q 21.484375 6.890625 26.8125 6.890625 
Q 36.078125 6.890625 40.9375 10.546875 
Q 45.796875 14.203125 45.796875 21.1875 
Q 45.796875 27.640625 41.28125 31.265625 
Q 36.765625 34.90625 28.71875 34.90625 
L 20.21875 34.90625 
L 20.21875 43.015625 
L 29.109375 43.015625 
Q 36.375 43.015625 40.234375 45.921875 
Q 44.09375 48.828125 44.09375 54.296875 
Q 44.09375 59.90625 40.109375 62.90625 
Q 36.140625 65.921875 28.71875 65.921875 
Q 24.65625 65.921875 20.015625 65.03125 
Q 15.375 64.15625 9.8125 62.3125 
L 9.8125 71.09375 
Q 15.4375 72.65625 20.34375 73.4375 
Q 25.25 74.21875 29.59375 74.21875 
Q 40.828125 74.21875 47.359375 69.109375 
Q 53.90625 64.015625 53.90625 55.328125 
Q 53.90625 49.265625 50.4375 45.09375 
Q 46.96875 40.921875 40.578125 39.3125 
z
" id="DejaVuSans-33"/>
      </defs>
      <g transform="translate(309.168656 322.182437)scale(0.1 -0.1)">
       <use xlink:href="#DejaVuSans-33"/>
       <use x="63.623047" xlink:href="#DejaVuSans-2e"/>
       <use x="95.410156" xlink:href="#DejaVuSans-30"/>
      </g>
     </g>
    </g>
    <g id="xtick_8">
     <g id="line2d_8">
      <g>
       <use style="stroke:#000000;stroke-width:0.8;" x="357.803746" xlink:href="#m3bfc1157b8" y="307.584"/>
      </g>
     </g>
     <g id="text_8">
      <!-- 3.5 -->
      <g transform="translate(349.852183 322.182437)scale(0.1 -0.1)">
       <use xlink:href="#DejaVuSans-33"/>
       <use x="63.623047" xlink:href="#DejaVuSans-2e"/>
       <use x="95.410156" xlink:href="#DejaVuSans-35"/>
      </g>
     </g>
    </g>
    <g id="xtick_9">
     <g id="line2d_9">
      <g>
       <use style="stroke:#000000;stroke-width:0.8;" x="398.487273" xlink:href="#m3bfc1157b8" y="307.584"/>
      </g>
     </g>
     <g id="text_9">
      <!-- 4.0 -->
      <defs>
       <path d="M 37.796875 64.3125 
L 12.890625 25.390625 
L 37.796875 25.390625 
z
M 35.203125 72.90625 
L 47.609375 72.90625 
L 47.609375 25.390625 
L 58.015625 25.390625 
L 58.015625 17.1875 
L 47.609375 17.1875 
L 47.609375 0 
L 37.796875 0 
L 37.796875 17.1875 
L 4.890625 17.1875 
L 4.890625 26.703125 
z
" id="DejaVuSans-34"/>
      </defs>
      <g transform="translate(390.53571 322.182437)scale(0.1 -0.1)">
       <use xlink:href="#DejaVuSans-34"/>
       <use x="63.623047" xlink:href="#DejaVuSans-2e"/>
       <use x="95.410156" xlink:href="#DejaVuSans-30"/>
      </g>
     </g>
    </g>
   </g>
   <g id="matplotlib.axis_2">
    <g id="ytick_1">
     <g id="line2d_10">
      <defs>
       <path d="M 0 0 
L -3.5 0 
" id="m5ed3a0b53e" style="stroke:#000000;stroke-width:0.8;"/>
      </defs>
      <g>
       <use style="stroke:#000000;stroke-width:0.8;" x="57.6" xlink:href="#m5ed3a0b53e" y="264.947163"/>
      </g>
     </g>
     <g id="text_10">
      <!-- $\mathdefault{10^{3}}$ -->
      <g transform="translate(33 268.746382)scale(0.1 -0.1)">
       <use transform="translate(0 0.765625)" xlink:href="#DejaVuSans-31"/>
       <use transform="translate(63.623047 0.765625)" xlink:href="#DejaVuSans-30"/>
       <use transform="translate(128.203125 39.046875)scale(0.7)" xlink:href="#DejaVuSans-33"/>
      </g>
     </g>
    </g>
    <g id="ytick_2">
     <g id="line2d_11">
      <g>
       <use style="stroke:#000000;stroke-width:0.8;" x="57.6" xlink:href="#m5ed3a0b53e" y="188.199824"/>
      </g>
     </g>
     <g id="text_11">
      <!-- $\mathdefault{10^{4}}$ -->
      <g transform="translate(33 191.999043)scale(0.1 -0.1)">
       <use transform="translate(0 0.684375)" xlink:href="#DejaVuSans-31"/>
       <use transform="translate(63.623047 0.684375)" xlink:href="#DejaVuSans-30"/>
       <use transform="translate(128.203125 38.965625)scale(0.7)" xlink:href="#DejaVuSans-34"/>
      </g>
     </g>
    </g>
    <g id="ytick_3">
     <g id="line2d_12">
      <g>
       <use style="stroke:#000000;stroke-width:0.8;" x="57.6" xlink:href="#m5ed3a0b53e" y="111.452485"/>
      </g>
     </g>
     <g id="text_12">
      <!-- $\mathdefault{10^{5}}$ -->
      <g transform="translate(33 115.251704)scale(0.1 -0.1)">
       <use transform="translate(0 0.684375)" xlink:href="#DejaVuSans-31"/>
       <use transform="translate(63.623047 0.684375)" xlink:href="#DejaVuSans-30"/>
       <use transform="translate(128.203125 38.965625)scale(0.7)" xlink:href="#DejaVuSans-35"/>
      </g>
     </g>
    </g>
    <g id="ytick_4">
     <g id="line2d_13">
      <defs>
       <path d="M 0 0 
L -2 0 
" id="m58f739b545" style="stroke:#000000;stroke-width:0.6;"/>
      </defs>
      <g>
       <use style="stroke:#000000;stroke-width:0.6;" x="57.6" xlink:href="#m58f739b545" y="305.076716"/>
      </g>
     </g>
    </g>
    <g id="ytick_5">
     <g id="line2d_14">
      <g>
       <use style="stroke:#000000;stroke-width:0.6;" x="57.6" xlink:href="#m58f739b545" y="295.488"/>
      </g>
     </g>
    </g>
    <g id="ytick_6">
     <g id="line2d_15">
      <g>
       <use style="stroke:#000000;stroke-width:0.6;" x="57.6" xlink:href="#m58f739b545" y="288.050414"/>
      </g>
     </g>
    </g>
    <g id="ytick_7">
     <g id="line2d_16">
      <g>
       <use style="stroke:#000000;stroke-width:0.6;" x="57.6" xlink:href="#m58f739b545" y="281.973464"/>
      </g>
     </g>
    </g>
    <g id="ytick_8">
     <g id="line2d_17">
      <g>
       <use style="stroke:#000000;stroke-width:0.6;" x="57.6" xlink:href="#m58f739b545" y="276.835476"/>
      </g>
     </g>
    </g>
    <g id="ytick_9">
     <g id="line2d_18">
      <g>
       <use style="stroke:#000000;stroke-width:0.6;" x="57.6" xlink:href="#m58f739b545" y="272.384749"/>
      </g>
     </g>
    </g>
    <g id="ytick_10">
     <g id="line2d_19">
      <g>
       <use style="stroke:#000000;stroke-width:0.6;" x="57.6" xlink:href="#m58f739b545" y="268.458929"/>
      </g>
     </g>
    </g>
    <g id="ytick_11">
     <g id="line2d_20">
      <g>
       <use style="stroke:#000000;stroke-width:0.6;" x="57.6" xlink:href="#m58f739b545" y="241.843912"/>
      </g>
     </g>
    </g>
    <g id="ytick_12">
     <g id="line2d_21">
      <g>
       <use style="stroke:#000000;stroke-width:0.6;" x="57.6" xlink:href="#m58f739b545" y="228.329376"/>
      </g>
     </g>
    </g>
    <g id="ytick_13">
     <g id="line2d_22">
      <g>
       <use style="stroke:#000000;stroke-width:0.6;" x="57.6" xlink:href="#m58f739b545" y="218.740661"/>
      </g>
     </g>
    </g>
    <g id="ytick_14">
     <g id="line2d_23">
      <g>
       <use style="stroke:#000000;stroke-width:0.6;" x="57.6" xlink:href="#m58f739b545" y="211.303075"/>
      </g>
     </g>
    </g>
    <g id="ytick_15">
     <g id="line2d_24">
      <g>
       <use style="stroke:#000000;stroke-width:0.6;" x="57.6" xlink:href="#m58f739b545" y="205.226125"/>
      </g>
     </g>
    </g>
    <g id="ytick_16">
     <g id="line2d_25">
      <g>
       <use style="stroke:#000000;stroke-width:0.6;" x="57.6" xlink:href="#m58f739b545" y="200.088137"/>
      </g>
     </g>
    </g>
    <g id="ytick_17">
     <g id="line2d_26">
      <g>
       <use style="stroke:#000000;stroke-width:0.6;" x="57.6" xlink:href="#m58f739b545" y="195.63741"/>
      </g>
     </g>
    </g>
    <g id="ytick_18">
     <g id="line2d_27">
      <g>
       <use style="stroke:#000000;stroke-width:0.6;" x="57.6" xlink:href="#m58f739b545" y="191.71159"/>
      </g>
     </g>
    </g>
    <g id="ytick_19">
     <g id="line2d_28">
      <g>
       <use style="stroke:#000000;stroke-width:0.6;" x="57.6" xlink:href="#m58f739b545" y="165.096573"/>
      </g>
     </g>
    </g>
    <g id="ytick_20">
     <g id="line2d_29">
      <g>
       <use style="stroke:#000000;stroke-width:0.6;" x="57.6" xlink:href="#m58f739b545" y="151.582037"/>
      </g>
     </g>
    </g>
    <g id="ytick_21">
     <g id="line2d_30">
      <g>
       <use style="stroke:#000000;stroke-width:0.6;" x="57.6" xlink:href="#m58f739b545" y="141.993322"/>
      </g>
     </g>
    </g>
    <g id="ytick_22">
     <g id="line2d_31">
      <g>
       <use style="stroke:#000000;stroke-width:0.6;" x="57.6" xlink:href="#m58f739b545" y="134.555736"/>
      </g>
     </g>
    </g>
    <g id="ytick_23">
     <g id="line2d_32">
      <g>
       <use style="stroke:#000000;stroke-width:0.6;" x="57.6" xlink:href="#m58f739b545" y="128.478786"/>
      </g>
     </g>
    </g>
    <g id="ytick_24">
     <g id="line2d_33">
      <g>
       <use style="stroke:#000000;stroke-width:0.6;" x="57.6" xlink:href="#m58f739b545" y="123.340798"/>
      </g>
     </g>
    </g>
    <g id="ytick_25">
     <g id="line2d_34">
      <g>
       <use style="stroke:#000000;stroke-width:0.6;" x="57.6" xlink:href="#m58f739b545" y="118.890071"/>
      </g>
     </g>
    </g>
    <g id="ytick_26">
     <g id="line2d_35">
      <g>
       <use style="stroke:#000000;stroke-width:0.6;" x="57.6" xlink:href="#m58f739b545" y="114.964251"/>
      </g>
     </g>
    </g>
    <g id="ytick_27">
     <g id="line2d_36">
      <g>
       <use style="stroke:#000000;stroke-width:0.6;" x="57.6" xlink:href="#m58f739b545" y="88.349234"/>
      </g>
     </g>
    </g>
    <g id="ytick_28">
     <g id="line2d_37">
      <g>
       <use style="stroke:#000000;stroke-width:0.6;" x="57.6" xlink:href="#m58f739b545" y="74.834698"/>
      </g>
     </g>
    </g>
    <g id="ytick_29">
     <g id="line2d_38">
      <g>
       <use style="stroke:#000000;stroke-width:0.6;" x="57.6" xlink:href="#m58f739b545" y="65.245983"/>
      </g>
     </g>
    </g>
    <g id="ytick_30">
     <g id="line2d_39">
      <g>
       <use style="stroke:#000000;stroke-width:0.6;" x="57.6" xlink:href="#m58f739b545" y="57.808397"/>
      </g>
     </g>
    </g>
    <g id="ytick_31">
     <g id="line2d_40">
      <g>
       <use style="stroke:#000000;stroke-width:0.6;" x="57.6" xlink:href="#m58f739b545" y="51.731447"/>
      </g>
     </g>
    </g>
    <g id="ytick_32">
     <g id="line2d_41">
      <g>
       <use style="stroke:#000000;stroke-width:0.6;" x="57.6" xlink:href="#m58f739b545" y="46.593459"/>
      </g>
     </g>
    </g>
    <g id="ytick_33">
     <g id="line2d_42">
      <g>
       <use style="stroke:#000000;stroke-width:0.6;" x="57.6" xlink:href="#m58f739b545" y="42.142732"/>
      </g>
     </g>
    </g>
   </g>
   <g id="patch_95">
    <path d="M 57.6 307.584 
L 57.6 41.472 
" style="fill:none;stroke:#000000;stroke-linecap:square;stroke-linejoin:miter;stroke-width:0.8;"/>
   </g>
   <g id="patch_96">
    <path d="M 414.72 307.584 
L 414.72 41.472 
" style="fill:none;stroke:#000000;stroke-linecap:square;stroke-linejoin:miter;stroke-width:0.8;"/>
   </g>
   <g id="patch_97">
    <path d="M 57.6 307.584 
L 414.72 307.584 
" style="fill:none;stroke:#000000;stroke-linecap:square;stroke-linejoin:miter;stroke-width:0.8;"/>
   </g>
   <g id="patch_98">
    <path d="M 57.6 41.472 
L 414.72 41.472 
" style="fill:none;stroke:#000000;stroke-linecap:square;stroke-linejoin:miter;stroke-width:0.8;"/>
   </g>
  </g>
 </g>
 <defs>
  <clipPath id="p96dfdf66cd">
   <rect height="266.112" width="357.12" x="57.6" y="41.472"/>
  </clipPath>
 </defs>
</svg>
