<?xml version="1.0" encoding="utf-8" standalone="no"?>
<!DOCTYPE svg PUBLIC "-//W3C//DTD SVG 1.1//EN"
  "http://www.w3.org/Graphics/SVG/1.1/DTD/svg11.dtd">
<!-- Created with matplotlib (http://matplotlib.org/) -->
<svg height="345.6pt" version="1.1" viewBox="0 0 460.8 345.6" width="460.8pt" xmlns="http://www.w3.org/2000/svg" xmlns:xlink="http://www.w3.org/1999/xlink">
 <defs>
  <style type="text/css">
*{stroke-linecap:butt;stroke-linejoin:round;}
  </style>
 </defs>
 <g id="figure_1">
  <g id="patch_1">
   <path d="M 0 345.6 
L 460.8 345.6 
L 460.8 0 
L 0 0 
z
" style="fill:#ffffff;"/>
  </g>
  <g id="axes_1">
   <g id="patch_2">
    <path d="M 57.6 307.584 
L 414.72 307.584 
L 414.72 41.472 
L 57.6 41.472 
z
" style="fill:#ffffff;"/>
   </g>
   <g id="patch_3">
    <path clip-path="url(#p26a9d44d02)" d="M 73.832727 110464.456666 
L 77.564389 110464.456666 
L 77.564389 53.568 
L 73.832727 53.568 
z
" style="fill:#1f77b4;opacity:0.4;"/>
   </g>
   <g id="patch_4">
    <path clip-path="url(#p26a9d44d02)" d="M 77.564389 110464.456666 
L 81.29605 110464.456666 
L 81.29605 82.366301 
L 77.564389 82.366301 
z
" style="fill:#1f77b4;opacity:0.4;"/>
   </g>
   <g id="patch_5">
    <path clip-path="url(#p26a9d44d02)" d="M 81.29605 110464.456666 
L 85.027712 110464.456666 
L 85.027712 122.720833 
L 81.29605 122.720833 
z
" style="fill:#1f77b4;opacity:0.4;"/>
   </g>
   <g id="patch_6">
    <path clip-path="url(#p26a9d44d02)" d="M 85.027712 110464.456666 
L 88.759373 110464.456666 
L 88.759373 128.194885 
L 85.027712 128.194885 
z
" style="fill:#1f77b4;opacity:0.4;"/>
   </g>
   <g id="patch_7">
    <path clip-path="url(#p26a9d44d02)" d="M 88.759373 110464.456666 
L 92.491034 110464.456666 
L 92.491034 118.990703 
L 88.759373 118.990703 
z
" style="fill:#1f77b4;opacity:0.4;"/>
   </g>
   <g id="patch_8">
    <path clip-path="url(#p26a9d44d02)" d="M 92.491034 110464.456666 
L 96.222696 110464.456666 
L 96.222696 149.820464 
L 92.491034 149.820464 
z
" style="fill:#1f77b4;opacity:0.4;"/>
   </g>
   <g id="patch_9">
    <path clip-path="url(#p26a9d44d02)" d="M 96.222696 110464.456666 
L 99.954357 110464.456666 
L 99.954357 120.202053 
L 96.222696 120.202053 
z
" style="fill:#1f77b4;opacity:0.4;"/>
   </g>
   <g id="patch_10">
    <path clip-path="url(#p26a9d44d02)" d="M 99.954357 110464.456666 
L 103.686019 110464.456666 
L 103.686019 209.759879 
L 99.954357 209.759879 
z
" style="fill:#1f77b4;opacity:0.4;"/>
   </g>
   <g id="patch_11">
    <path clip-path="url(#p26a9d44d02)" d="M 103.686019 110464.456666 
L 107.41768 110464.456666 
L 107.41768 176.595715 
L 103.686019 176.595715 
z
" style="fill:#1f77b4;opacity:0.4;"/>
   </g>
   <g id="patch_12">
    <path clip-path="url(#p26a9d44d02)" d="M 107.41768 110464.456666 
L 111.149342 110464.456666 
L 111.149342 218.483195 
L 107.41768 218.483195 
z
" style="fill:#1f77b4;opacity:0.4;"/>
   </g>
   <g id="patch_13">
    <path clip-path="url(#p26a9d44d02)" d="M 111.149342 110464.456666 
L 114.881003 110464.456666 
L 114.881003 185.319031 
L 111.149342 185.319031 
z
" style="fill:#1f77b4;opacity:0.4;"/>
   </g>
   <g id="patch_14">
    <path clip-path="url(#p26a9d44d02)" d="M 114.881003 110464.456666 
L 118.612665 110464.456666 
L 118.612665 202.384421 
L 114.881003 202.384421 
z
" style="fill:#1f77b4;opacity:0.4;"/>
   </g>
   <g id="patch_15">
    <path clip-path="url(#p26a9d44d02)" d="M 118.612665 110464.456666 
L 122.344326 110464.456666 
L 122.344326 190.360087 
L 118.612665 190.360087 
z
" style="fill:#1f77b4;opacity:0.4;"/>
   </g>
   <g id="patch_16">
    <path clip-path="url(#p26a9d44d02)" d="M 122.344326 110464.456666 
L 126.075987 110464.456666 
L 126.075987 209.759879 
L 122.344326 209.759879 
z
" style="fill:#1f77b4;opacity:0.4;"/>
   </g>
   <g id="patch_17">
    <path clip-path="url(#p26a9d44d02)" d="M 126.075987 110464.456666 
L 129.807649 110464.456666 
L 129.807649 295.488 
L 126.075987 295.488 
z
" style="fill:#1f77b4;opacity:0.4;"/>
   </g>
   <g id="patch_18">
    <path clip-path="url(#p26a9d44d02)" d="M 129.807649 110464.456666 
L 133.53931 110464.456666 
L 133.53931 165.919239 
L 129.807649 165.919239 
z
" style="fill:#1f77b4;opacity:0.4;"/>
   </g>
   <g id="patch_19">
    <path clip-path="url(#p26a9d44d02)" d="M 133.53931 110464.456666 
L 137.270972 110464.456666 
L 137.270972 110464.456666 
L 133.53931 110464.456666 
z
" style="fill:#1f77b4;opacity:0.4;"/>
   </g>
   <g id="patch_20">
    <path clip-path="url(#p26a9d44d02)" d="M 137.270972 110464.456666 
L 141.002633 110464.456666 
L 141.002633 262.323836 
L 137.270972 262.323836 
z
" style="fill:#1f77b4;opacity:0.4;"/>
   </g>
   <g id="patch_21">
    <path clip-path="url(#p26a9d44d02)" d="M 141.002633 110464.456666 
L 144.734295 110464.456666 
L 144.734295 242.924043 
L 141.002633 242.924043 
z
" style="fill:#1f77b4;opacity:0.4;"/>
   </g>
   <g id="patch_22">
    <path clip-path="url(#p26a9d44d02)" d="M 144.734295 110464.456666 
L 148.465956 110464.456666 
L 148.465956 295.488 
L 144.734295 295.488 
z
" style="fill:#1f77b4;opacity:0.4;"/>
   </g>
   <g id="patch_23">
    <path clip-path="url(#p26a9d44d02)" d="M 148.465956 110464.456666 
L 152.197618 110464.456666 
L 152.197618 110464.456666 
L 148.465956 110464.456666 
z
" style="fill:#1f77b4;opacity:0.4;"/>
   </g>
   <g id="patch_24">
    <path clip-path="url(#p26a9d44d02)" d="M 152.197618 110464.456666 
L 155.929279 110464.456666 
L 155.929279 202.384421 
L 152.197618 202.384421 
z
" style="fill:#1f77b4;opacity:0.4;"/>
   </g>
   <g id="patch_25">
    <path clip-path="url(#p26a9d44d02)" d="M 155.929279 110464.456666 
L 159.66094 110464.456666 
L 159.66094 295.488 
L 155.929279 295.488 
z
" style="fill:#1f77b4;opacity:0.4;"/>
   </g>
   <g id="patch_26">
    <path clip-path="url(#p26a9d44d02)" d="M 159.66094 110464.456666 
L 163.392602 110464.456666 
L 163.392602 110464.456666 
L 159.66094 110464.456666 
z
" style="fill:#1f77b4;opacity:0.4;"/>
   </g>
   <g id="patch_27">
    <path clip-path="url(#p26a9d44d02)" d="M 163.392602 110464.456666 
L 167.124263 110464.456666 
L 167.124263 110464.456666 
L 163.392602 110464.456666 
z
" style="fill:#1f77b4;opacity:0.4;"/>
   </g>
   <g id="patch_28">
    <path clip-path="url(#p26a9d44d02)" d="M 167.124263 110464.456666 
L 170.855925 110464.456666 
L 170.855925 110464.456666 
L 167.124263 110464.456666 
z
" style="fill:#1f77b4;opacity:0.4;"/>
   </g>
   <g id="patch_29">
    <path clip-path="url(#p26a9d44d02)" d="M 170.855925 110464.456666 
L 174.587586 110464.456666 
L 174.587586 110464.456666 
L 170.855925 110464.456666 
z
" style="fill:#1f77b4;opacity:0.4;"/>
   </g>
   <g id="patch_30">
    <path clip-path="url(#p26a9d44d02)" d="M 174.587586 110464.456666 
L 178.319248 110464.456666 
L 178.319248 295.488 
L 174.587586 295.488 
z
" style="fill:#1f77b4;opacity:0.4;"/>
   </g>
   <g id="patch_31">
    <path clip-path="url(#p26a9d44d02)" d="M 178.319248 110464.456666 
L 182.050909 110464.456666 
L 182.050909 262.323836 
L 178.319248 262.323836 
z
" style="fill:#1f77b4;opacity:0.4;"/>
   </g>
   <g id="patch_32">
    <path clip-path="url(#p26a9d44d02)" d="M 182.050909 110464.456666 
L 185.782571 110464.456666 
L 185.782571 110464.456666 
L 182.050909 110464.456666 
z
" style="fill:#1f77b4;opacity:0.4;"/>
   </g>
   <g id="patch_33">
    <path clip-path="url(#p26a9d44d02)" d="M 185.782571 110464.456666 
L 189.514232 110464.456666 
L 189.514232 295.488 
L 185.782571 295.488 
z
" style="fill:#1f77b4;opacity:0.4;"/>
   </g>
   <g id="patch_34">
    <path clip-path="url(#p26a9d44d02)" d="M 189.514232 110464.456666 
L 193.245893 110464.456666 
L 193.245893 110464.456666 
L 189.514232 110464.456666 
z
" style="fill:#1f77b4;opacity:0.4;"/>
   </g>
   <g id="patch_35">
    <path clip-path="url(#p26a9d44d02)" d="M 193.245893 110464.456666 
L 196.977555 110464.456666 
L 196.977555 262.323836 
L 193.245893 262.323836 
z
" style="fill:#1f77b4;opacity:0.4;"/>
   </g>
   <g id="patch_36">
    <path clip-path="url(#p26a9d44d02)" d="M 196.977555 110464.456666 
L 200.709216 110464.456666 
L 200.709216 110464.456666 
L 196.977555 110464.456666 
z
" style="fill:#1f77b4;opacity:0.4;"/>
   </g>
   <g id="patch_37">
    <path clip-path="url(#p26a9d44d02)" d="M 200.709216 110464.456666 
L 204.440878 110464.456666 
L 204.440878 110464.456666 
L 200.709216 110464.456666 
z
" style="fill:#1f77b4;opacity:0.4;"/>
   </g>
   <g id="patch_38">
    <path clip-path="url(#p26a9d44d02)" d="M 204.440878 110464.456666 
L 208.172539 110464.456666 
L 208.172539 110464.456666 
L 204.440878 110464.456666 
z
" style="fill:#1f77b4;opacity:0.4;"/>
   </g>
   <g id="patch_39">
    <path clip-path="url(#p26a9d44d02)" d="M 208.172539 110464.456666 
L 211.904201 110464.456666 
L 211.904201 295.488 
L 208.172539 295.488 
z
" style="fill:#1f77b4;opacity:0.4;"/>
   </g>
   <g id="patch_40">
    <path clip-path="url(#p26a9d44d02)" d="M 211.904201 110464.456666 
L 215.635862 110464.456666 
L 215.635862 110464.456666 
L 211.904201 110464.456666 
z
" style="fill:#1f77b4;opacity:0.4;"/>
   </g>
   <g id="patch_41">
    <path clip-path="url(#p26a9d44d02)" d="M 215.635862 110464.456666 
L 219.367524 110464.456666 
L 219.367524 295.488 
L 215.635862 295.488 
z
" style="fill:#1f77b4;opacity:0.4;"/>
   </g>
   <g id="patch_42">
    <path clip-path="url(#p26a9d44d02)" d="M 219.367524 110464.456666 
L 223.099185 110464.456666 
L 223.099185 110464.456666 
L 219.367524 110464.456666 
z
" style="fill:#1f77b4;opacity:0.4;"/>
   </g>
   <g id="patch_43">
    <path clip-path="url(#p26a9d44d02)" d="M 223.099185 110464.456666 
L 226.830846 110464.456666 
L 226.830846 110464.456666 
L 223.099185 110464.456666 
z
" style="fill:#1f77b4;opacity:0.4;"/>
   </g>
   <g id="patch_44">
    <path clip-path="url(#p26a9d44d02)" d="M 226.830846 110464.456666 
L 230.562508 110464.456666 
L 230.562508 295.488 
L 226.830846 295.488 
z
" style="fill:#1f77b4;opacity:0.4;"/>
   </g>
   <g id="patch_45">
    <path clip-path="url(#p26a9d44d02)" d="M 230.562508 110464.456666 
L 234.294169 110464.456666 
L 234.294169 110464.456666 
L 230.562508 110464.456666 
z
" style="fill:#1f77b4;opacity:0.4;"/>
   </g>
   <g id="patch_46">
    <path clip-path="url(#p26a9d44d02)" d="M 234.294169 110464.456666 
L 238.025831 110464.456666 
L 238.025831 262.323836 
L 234.294169 262.323836 
z
" style="fill:#1f77b4;opacity:0.4;"/>
   </g>
   <g id="patch_47">
    <path clip-path="url(#p26a9d44d02)" d="M 238.025831 110464.456666 
L 241.757492 110464.456666 
L 241.757492 110464.456666 
L 238.025831 110464.456666 
z
" style="fill:#1f77b4;opacity:0.4;"/>
   </g>
   <g id="patch_48">
    <path clip-path="url(#p26a9d44d02)" d="M 241.757492 110464.456666 
L 245.489154 110464.456666 
L 245.489154 110464.456666 
L 241.757492 110464.456666 
z
" style="fill:#1f77b4;opacity:0.4;"/>
   </g>
   <g id="patch_49">
    <path clip-path="url(#p26a9d44d02)" d="M 245.489154 110464.456666 
L 249.220815 110464.456666 
L 249.220815 110464.456666 
L 245.489154 110464.456666 
z
" style="fill:#1f77b4;opacity:0.4;"/>
   </g>
   <g id="patch_50">
    <path clip-path="url(#p26a9d44d02)" d="M 249.220815 110464.456666 
L 252.952476 110464.456666 
L 252.952476 110464.456666 
L 249.220815 110464.456666 
z
" style="fill:#1f77b4;opacity:0.4;"/>
   </g>
   <g id="patch_51">
    <path clip-path="url(#p26a9d44d02)" d="M 252.952476 110464.456666 
L 256.684138 110464.456666 
L 256.684138 110464.456666 
L 252.952476 110464.456666 
z
" style="fill:#1f77b4;opacity:0.4;"/>
   </g>
   <g id="patch_52">
    <path clip-path="url(#p26a9d44d02)" d="M 256.684138 110464.456666 
L 260.415799 110464.456666 
L 260.415799 110464.456666 
L 256.684138 110464.456666 
z
" style="fill:#1f77b4;opacity:0.4;"/>
   </g>
   <g id="patch_53">
    <path clip-path="url(#p26a9d44d02)" d="M 260.415799 110464.456666 
L 264.147461 110464.456666 
L 264.147461 110464.456666 
L 260.415799 110464.456666 
z
" style="fill:#1f77b4;opacity:0.4;"/>
   </g>
   <g id="patch_54">
    <path clip-path="url(#p26a9d44d02)" d="M 264.147461 110464.456666 
L 267.879122 110464.456666 
L 267.879122 110464.456666 
L 264.147461 110464.456666 
z
" style="fill:#1f77b4;opacity:0.4;"/>
   </g>
   <g id="patch_55">
    <path clip-path="url(#p26a9d44d02)" d="M 267.879122 110464.456666 
L 271.610784 110464.456666 
L 271.610784 110464.456666 
L 267.879122 110464.456666 
z
" style="fill:#1f77b4;opacity:0.4;"/>
   </g>
   <g id="patch_56">
    <path clip-path="url(#p26a9d44d02)" d="M 271.610784 110464.456666 
L 275.342445 110464.456666 
L 275.342445 110464.456666 
L 271.610784 110464.456666 
z
" style="fill:#1f77b4;opacity:0.4;"/>
   </g>
   <g id="patch_57">
    <path clip-path="url(#p26a9d44d02)" d="M 275.342445 110464.456666 
L 279.074107 110464.456666 
L 279.074107 110464.456666 
L 275.342445 110464.456666 
z
" style="fill:#1f77b4;opacity:0.4;"/>
   </g>
   <g id="patch_58">
    <path clip-path="url(#p26a9d44d02)" d="M 279.074107 110464.456666 
L 282.805768 110464.456666 
L 282.805768 110464.456666 
L 279.074107 110464.456666 
z
" style="fill:#1f77b4;opacity:0.4;"/>
   </g>
   <g id="patch_59">
    <path clip-path="url(#p26a9d44d02)" d="M 282.805768 110464.456666 
L 286.537429 110464.456666 
L 286.537429 110464.456666 
L 282.805768 110464.456666 
z
" style="fill:#1f77b4;opacity:0.4;"/>
   </g>
   <g id="patch_60">
    <path clip-path="url(#p26a9d44d02)" d="M 286.537429 110464.456666 
L 290.269091 110464.456666 
L 290.269091 110464.456666 
L 286.537429 110464.456666 
z
" style="fill:#1f77b4;opacity:0.4;"/>
   </g>
   <g id="patch_61">
    <path clip-path="url(#p26a9d44d02)" d="M 290.269091 110464.456666 
L 294.000752 110464.456666 
L 294.000752 110464.456666 
L 290.269091 110464.456666 
z
" style="fill:#1f77b4;opacity:0.4;"/>
   </g>
   <g id="patch_62">
    <path clip-path="url(#p26a9d44d02)" d="M 294.000752 110464.456666 
L 297.732414 110464.456666 
L 297.732414 110464.456666 
L 294.000752 110464.456666 
z
" style="fill:#1f77b4;opacity:0.4;"/>
   </g>
   <g id="patch_63">
    <path clip-path="url(#p26a9d44d02)" d="M 297.732414 110464.456666 
L 301.464075 110464.456666 
L 301.464075 110464.456666 
L 297.732414 110464.456666 
z
" style="fill:#1f77b4;opacity:0.4;"/>
   </g>
   <g id="patch_64">
    <path clip-path="url(#p26a9d44d02)" d="M 301.464075 110464.456666 
L 305.195737 110464.456666 
L 305.195737 110464.456666 
L 301.464075 110464.456666 
z
" style="fill:#1f77b4;opacity:0.4;"/>
   </g>
   <g id="patch_65">
    <path clip-path="url(#p26a9d44d02)" d="M 305.195737 110464.456666 
L 308.927398 110464.456666 
L 308.927398 110464.456666 
L 305.195737 110464.456666 
z
" style="fill:#1f77b4;opacity:0.4;"/>
   </g>
   <g id="patch_66">
    <path clip-path="url(#p26a9d44d02)" d="M 308.927398 110464.456666 
L 312.65906 110464.456666 
L 312.65906 110464.456666 
L 308.927398 110464.456666 
z
" style="fill:#1f77b4;opacity:0.4;"/>
   </g>
   <g id="patch_67">
    <path clip-path="url(#p26a9d44d02)" d="M 312.65906 110464.456666 
L 316.390721 110464.456666 
L 316.390721 110464.456666 
L 312.65906 110464.456666 
z
" style="fill:#1f77b4;opacity:0.4;"/>
   </g>
   <g id="patch_68">
    <path clip-path="url(#p26a9d44d02)" d="M 316.390721 110464.456666 
L 320.122382 110464.456666 
L 320.122382 295.488 
L 316.390721 295.488 
z
" style="fill:#1f77b4;opacity:0.4;"/>
   </g>
   <g id="patch_69">
    <path clip-path="url(#p26a9d44d02)" d="M 320.122382 110464.456666 
L 323.854044 110464.456666 
L 323.854044 295.488 
L 320.122382 295.488 
z
" style="fill:#1f77b4;opacity:0.4;"/>
   </g>
   <g id="patch_70">
    <path clip-path="url(#p26a9d44d02)" d="M 323.854044 110464.456666 
L 327.585705 110464.456666 
L 327.585705 110464.456666 
L 323.854044 110464.456666 
z
" style="fill:#1f77b4;opacity:0.4;"/>
   </g>
   <g id="patch_71">
    <path clip-path="url(#p26a9d44d02)" d="M 327.585705 110464.456666 
L 331.317367 110464.456666 
L 331.317367 110464.456666 
L 327.585705 110464.456666 
z
" style="fill:#1f77b4;opacity:0.4;"/>
   </g>
   <g id="patch_72">
    <path clip-path="url(#p26a9d44d02)" d="M 331.317367 110464.456666 
L 335.049028 110464.456666 
L 335.049028 110464.456666 
L 331.317367 110464.456666 
z
" style="fill:#1f77b4;opacity:0.4;"/>
   </g>
   <g id="patch_73">
    <path clip-path="url(#p26a9d44d02)" d="M 335.049028 110464.456666 
L 338.78069 110464.456666 
L 338.78069 110464.456666 
L 335.049028 110464.456666 
z
" style="fill:#1f77b4;opacity:0.4;"/>
   </g>
   <g id="patch_74">
    <path clip-path="url(#p26a9d44d02)" d="M 338.78069 110464.456666 
L 342.512351 110464.456666 
L 342.512351 110464.456666 
L 338.78069 110464.456666 
z
" style="fill:#1f77b4;opacity:0.4;"/>
   </g>
   <g id="patch_75">
    <path clip-path="url(#p26a9d44d02)" d="M 342.512351 110464.456666 
L 346.244013 110464.456666 
L 346.244013 110464.456666 
L 342.512351 110464.456666 
z
" style="fill:#1f77b4;opacity:0.4;"/>
   </g>
   <g id="patch_76">
    <path clip-path="url(#p26a9d44d02)" d="M 346.244013 110464.456666 
L 349.975674 110464.456666 
L 349.975674 110464.456666 
L 346.244013 110464.456666 
z
" style="fill:#1f77b4;opacity:0.4;"/>
   </g>
   <g id="patch_77">
    <path clip-path="url(#p26a9d44d02)" d="M 349.975674 110464.456666 
L 353.707335 110464.456666 
L 353.707335 110464.456666 
L 349.975674 110464.456666 
z
" style="fill:#1f77b4;opacity:0.4;"/>
   </g>
   <g id="patch_78">
    <path clip-path="url(#p26a9d44d02)" d="M 353.707335 110464.456666 
L 357.438997 110464.456666 
L 357.438997 110464.456666 
L 353.707335 110464.456666 
z
" style="fill:#1f77b4;opacity:0.4;"/>
   </g>
   <g id="patch_79">
    <path clip-path="url(#p26a9d44d02)" d="M 357.438997 110464.456666 
L 361.170658 110464.456666 
L 361.170658 110464.456666 
L 357.438997 110464.456666 
z
" style="fill:#1f77b4;opacity:0.4;"/>
   </g>
   <g id="patch_80">
    <path clip-path="url(#p26a9d44d02)" d="M 361.170658 110464.456666 
L 364.90232 110464.456666 
L 364.90232 110464.456666 
L 361.170658 110464.456666 
z
" style="fill:#1f77b4;opacity:0.4;"/>
   </g>
   <g id="patch_81">
    <path clip-path="url(#p26a9d44d02)" d="M 364.90232 110464.456666 
L 368.633981 110464.456666 
L 368.633981 110464.456666 
L 364.90232 110464.456666 
z
" style="fill:#1f77b4;opacity:0.4;"/>
   </g>
   <g id="patch_82">
    <path clip-path="url(#p26a9d44d02)" d="M 368.633981 110464.456666 
L 372.365643 110464.456666 
L 372.365643 110464.456666 
L 368.633981 110464.456666 
z
" style="fill:#1f77b4;opacity:0.4;"/>
   </g>
   <g id="patch_83">
    <path clip-path="url(#p26a9d44d02)" d="M 372.365643 110464.456666 
L 376.097304 110464.456666 
L 376.097304 110464.456666 
L 372.365643 110464.456666 
z
" style="fill:#1f77b4;opacity:0.4;"/>
   </g>
   <g id="patch_84">
    <path clip-path="url(#p26a9d44d02)" d="M 376.097304 110464.456666 
L 379.828966 110464.456666 
L 379.828966 110464.456666 
L 376.097304 110464.456666 
z
" style="fill:#1f77b4;opacity:0.4;"/>
   </g>
   <g id="patch_85">
    <path clip-path="url(#p26a9d44d02)" d="M 379.828966 110464.456666 
L 383.560627 110464.456666 
L 383.560627 295.488 
L 379.828966 295.488 
z
" style="fill:#1f77b4;opacity:0.4;"/>
   </g>
   <g id="patch_86">
    <path clip-path="url(#p26a9d44d02)" d="M 383.560627 110464.456666 
L 387.292288 110464.456666 
L 387.292288 110464.456666 
L 383.560627 110464.456666 
z
" style="fill:#1f77b4;opacity:0.4;"/>
   </g>
   <g id="patch_87">
    <path clip-path="url(#p26a9d44d02)" d="M 387.292288 110464.456666 
L 391.02395 110464.456666 
L 391.02395 295.488 
L 387.292288 295.488 
z
" style="fill:#1f77b4;opacity:0.4;"/>
   </g>
   <g id="patch_88">
    <path clip-path="url(#p26a9d44d02)" d="M 391.02395 110464.456666 
L 394.755611 110464.456666 
L 394.755611 110464.456666 
L 391.02395 110464.456666 
z
" style="fill:#1f77b4;opacity:0.4;"/>
   </g>
   <g id="patch_89">
    <path clip-path="url(#p26a9d44d02)" d="M 394.755611 110464.456666 
L 398.487273 110464.456666 
L 398.487273 295.488 
L 394.755611 295.488 
z
" style="fill:#1f77b4;opacity:0.4;"/>
   </g>
   <g id="matplotlib.axis_1">
    <g id="xtick_1">
     <g id="line2d_1">
      <defs>
       <path d="M 0 0 
L 0 3.5 
" id="m3e3560fb92" style="stroke:#000000;stroke-width:0.8;"/>
      </defs>
      <g>
       <use style="stroke:#000000;stroke-width:0.8;" x="73.019057" xlink:href="#m3e3560fb92" y="307.584"/>
      </g>
     </g>
     <g id="text_1">
      <!-- 0.0 -->
      <defs>
       <path d="M 31.78125 66.40625 
Q 24.171875 66.40625 20.328125 58.90625 
Q 16.5 51.421875 16.5 36.375 
Q 16.5 21.390625 20.328125 13.890625 
Q 24.171875 6.390625 31.78125 6.390625 
Q 39.453125 6.390625 43.28125 13.890625 
Q 47.125 21.390625 47.125 36.375 
Q 47.125 51.421875 43.28125 58.90625 
Q 39.453125 66.40625 31.78125 66.40625 
z
M 31.78125 74.21875 
Q 44.046875 74.21875 50.515625 64.515625 
Q 56.984375 54.828125 56.984375 36.375 
Q 56.984375 17.96875 50.515625 8.265625 
Q 44.046875 -1.421875 31.78125 -1.421875 
Q 19.53125 -1.421875 13.0625 8.265625 
Q 6.59375 17.96875 6.59375 36.375 
Q 6.59375 54.828125 13.0625 64.515625 
Q 19.53125 74.21875 31.78125 74.21875 
z
" id="DejaVuSans-30"/>
       <path d="M 10.6875 12.40625 
L 21 12.40625 
L 21 0 
L 10.6875 0 
z
" id="DejaVuSans-2e"/>
      </defs>
      <g transform="translate(65.067494 322.182437)scale(0.1 -0.1)">
       <use xlink:href="#DejaVuSans-30"/>
       <use x="63.623047" xlink:href="#DejaVuSans-2e"/>
       <use x="95.410156" xlink:href="#DejaVuSans-30"/>
      </g>
     </g>
    </g>
    <g id="xtick_2">
     <g id="line2d_2">
      <g>
       <use style="stroke:#000000;stroke-width:0.8;" x="113.702584" xlink:href="#m3e3560fb92" y="307.584"/>
      </g>
     </g>
     <g id="text_2">
      <!-- 0.5 -->
      <defs>
       <path d="M 10.796875 72.90625 
L 49.515625 72.90625 
L 49.515625 64.59375 
L 19.828125 64.59375 
L 19.828125 46.734375 
Q 21.96875 47.46875 24.109375 47.828125 
Q 26.265625 48.1875 28.421875 48.1875 
Q 40.625 48.1875 47.75 41.5 
Q 54.890625 34.8125 54.890625 23.390625 
Q 54.890625 11.625 47.5625 5.09375 
Q 40.234375 -1.421875 26.90625 -1.421875 
Q 22.3125 -1.421875 17.546875 -0.640625 
Q 12.796875 0.140625 7.71875 1.703125 
L 7.71875 11.625 
Q 12.109375 9.234375 16.796875 8.0625 
Q 21.484375 6.890625 26.703125 6.890625 
Q 35.15625 6.890625 40.078125 11.328125 
Q 45.015625 15.765625 45.015625 23.390625 
Q 45.015625 31 40.078125 35.4375 
Q 35.15625 39.890625 26.703125 39.890625 
Q 22.75 39.890625 18.8125 39.015625 
Q 14.890625 38.140625 10.796875 36.28125 
z
" id="DejaVuSans-35"/>
      </defs>
      <g transform="translate(105.751021 322.182437)scale(0.1 -0.1)">
       <use xlink:href="#DejaVuSans-30"/>
       <use x="63.623047" xlink:href="#DejaVuSans-2e"/>
       <use x="95.410156" xlink:href="#DejaVuSans-35"/>
      </g>
     </g>
    </g>
    <g id="xtick_3">
     <g id="line2d_3">
      <g>
       <use style="stroke:#000000;stroke-width:0.8;" x="154.386111" xlink:href="#m3e3560fb92" y="307.584"/>
      </g>
     </g>
     <g id="text_3">
      <!-- 1.0 -->
      <defs>
       <path d="M 12.40625 8.296875 
L 28.515625 8.296875 
L 28.515625 63.921875 
L 10.984375 60.40625 
L 10.984375 69.390625 
L 28.421875 72.90625 
L 38.28125 72.90625 
L 38.28125 8.296875 
L 54.390625 8.296875 
L 54.390625 0 
L 12.40625 0 
z
" id="DejaVuSans-31"/>
      </defs>
      <g transform="translate(146.434548 322.182437)scale(0.1 -0.1)">
       <use xlink:href="#DejaVuSans-31"/>
       <use x="63.623047" xlink:href="#DejaVuSans-2e"/>
       <use x="95.410156" xlink:href="#DejaVuSans-30"/>
      </g>
     </g>
    </g>
    <g id="xtick_4">
     <g id="line2d_4">
      <g>
       <use style="stroke:#000000;stroke-width:0.8;" x="195.069638" xlink:href="#m3e3560fb92" y="307.584"/>
      </g>
     </g>
     <g id="text_4">
      <!-- 1.5 -->
      <g transform="translate(187.118075 322.182437)scale(0.1 -0.1)">
       <use xlink:href="#DejaVuSans-31"/>
       <use x="63.623047" xlink:href="#DejaVuSans-2e"/>
       <use x="95.410156" xlink:href="#DejaVuSans-35"/>
      </g>
     </g>
    </g>
    <g id="xtick_5">
     <g id="line2d_5">
      <g>
       <use style="stroke:#000000;stroke-width:0.8;" x="235.753165" xlink:href="#m3e3560fb92" y="307.584"/>
      </g>
     </g>
     <g id="text_5">
      <!-- 2.0 -->
      <defs>
       <path d="M 19.1875 8.296875 
L 53.609375 8.296875 
L 53.609375 0 
L 7.328125 0 
L 7.328125 8.296875 
Q 12.9375 14.109375 22.625 23.890625 
Q 32.328125 33.6875 34.8125 36.53125 
Q 39.546875 41.84375 41.421875 45.53125 
Q 43.3125 49.21875 43.3125 52.78125 
Q 43.3125 58.59375 39.234375 62.25 
Q 35.15625 65.921875 28.609375 65.921875 
Q 23.96875 65.921875 18.8125 64.3125 
Q 13.671875 62.703125 7.8125 59.421875 
L 7.8125 69.390625 
Q 13.765625 71.78125 18.9375 73 
Q 24.125 74.21875 28.421875 74.21875 
Q 39.75 74.21875 46.484375 68.546875 
Q 53.21875 62.890625 53.21875 53.421875 
Q 53.21875 48.921875 51.53125 44.890625 
Q 49.859375 40.875 45.40625 35.40625 
Q 44.1875 33.984375 37.640625 27.21875 
Q 31.109375 20.453125 19.1875 8.296875 
z
" id="DejaVuSans-32"/>
      </defs>
      <g transform="translate(227.801602 322.182437)scale(0.1 -0.1)">
       <use xlink:href="#DejaVuSans-32"/>
       <use x="63.623047" xlink:href="#DejaVuSans-2e"/>
       <use x="95.410156" xlink:href="#DejaVuSans-30"/>
      </g>
     </g>
    </g>
    <g id="xtick_6">
     <g id="line2d_6">
      <g>
       <use style="stroke:#000000;stroke-width:0.8;" x="276.436692" xlink:href="#m3e3560fb92" y="307.584"/>
      </g>
     </g>
     <g id="text_6">
      <!-- 2.5 -->
      <g transform="translate(268.485129 322.182437)scale(0.1 -0.1)">
       <use xlink:href="#DejaVuSans-32"/>
       <use x="63.623047" xlink:href="#DejaVuSans-2e"/>
       <use x="95.410156" xlink:href="#DejaVuSans-35"/>
      </g>
     </g>
    </g>
    <g id="xtick_7">
     <g id="line2d_7">
      <g>
       <use style="stroke:#000000;stroke-width:0.8;" x="317.120219" xlink:href="#m3e3560fb92" y="307.584"/>
      </g>
     </g>
     <g id="text_7">
      <!-- 3.0 -->
      <defs>
       <path d="M 40.578125 39.3125 
Q 47.65625 37.796875 51.625 33 
Q 55.609375 28.21875 55.609375 21.1875 
Q 55.609375 10.40625 48.1875 4.484375 
Q 40.765625 -1.421875 27.09375 -1.421875 
Q 22.515625 -1.421875 17.65625 -0.515625 
Q 12.796875 0.390625 7.625 2.203125 
L 7.625 11.71875 
Q 11.71875 9.328125 16.59375 8.109375 
Q 21.484375 6.890625 26.8125 6.890625 
Q 36.078125 6.890625 40.9375 10.546875 
Q 45.796875 14.203125 45.796875 21.1875 
Q 45.796875 27.640625 41.28125 31.265625 
Q 36.765625 34.90625 28.71875 34.90625 
L 20.21875 34.90625 
L 20.21875 43.015625 
L 29.109375 43.015625 
Q 36.375 43.015625 40.234375 45.921875 
Q 44.09375 48.828125 44.09375 54.296875 
Q 44.09375 59.90625 40.109375 62.90625 
Q 36.140625 65.921875 28.71875 65.921875 
Q 24.65625 65.921875 20.015625 65.03125 
Q 15.375 64.15625 9.8125 62.3125 
L 9.8125 71.09375 
Q 15.4375 72.65625 20.34375 73.4375 
Q 25.25 74.21875 29.59375 74.21875 
Q 40.828125 74.21875 47.359375 69.109375 
Q 53.90625 64.015625 53.90625 55.328125 
Q 53.90625 49.265625 50.4375 45.09375 
Q 46.96875 40.921875 40.578125 39.3125 
z
" id="DejaVuSans-33"/>
      </defs>
      <g transform="translate(309.168656 322.182437)scale(0.1 -0.1)">
       <use xlink:href="#DejaVuSans-33"/>
       <use x="63.623047" xlink:href="#DejaVuSans-2e"/>
       <use x="95.410156" xlink:href="#DejaVuSans-30"/>
      </g>
     </g>
    </g>
    <g id="xtick_8">
     <g id="line2d_8">
      <g>
       <use style="stroke:#000000;stroke-width:0.8;" x="357.803746" xlink:href="#m3e3560fb92" y="307.584"/>
      </g>
     </g>
     <g id="text_8">
      <!-- 3.5 -->
      <g transform="translate(349.852183 322.182437)scale(0.1 -0.1)">
       <use xlink:href="#DejaVuSans-33"/>
       <use x="63.623047" xlink:href="#DejaVuSans-2e"/>
       <use x="95.410156" xlink:href="#DejaVuSans-35"/>
      </g>
     </g>
    </g>
    <g id="xtick_9">
     <g id="line2d_9">
      <g>
       <use style="stroke:#000000;stroke-width:0.8;" x="398.487273" xlink:href="#m3e3560fb92" y="307.584"/>
      </g>
     </g>
     <g id="text_9">
      <!-- 4.0 -->
      <defs>
       <path d="M 37.796875 64.3125 
L 12.890625 25.390625 
L 37.796875 25.390625 
z
M 35.203125 72.90625 
L 47.609375 72.90625 
L 47.609375 25.390625 
L 58.015625 25.390625 
L 58.015625 17.1875 
L 47.609375 17.1875 
L 47.609375 0 
L 37.796875 0 
L 37.796875 17.1875 
L 4.890625 17.1875 
L 4.890625 26.703125 
z
" id="DejaVuSans-34"/>
      </defs>
      <g transform="translate(390.53571 322.182437)scale(0.1 -0.1)">
       <use xlink:href="#DejaVuSans-34"/>
       <use x="63.623047" xlink:href="#DejaVuSans-2e"/>
       <use x="95.410156" xlink:href="#DejaVuSans-30"/>
      </g>
     </g>
    </g>
   </g>
   <g id="matplotlib.axis_2">
    <g id="ytick_1">
     <g id="line2d_10">
      <defs>
       <path d="M 0 0 
L -3.5 0 
" id="m8c4c69b5de" style="stroke:#000000;stroke-width:0.8;"/>
      </defs>
      <g>
       <use style="stroke:#000000;stroke-width:0.8;" x="57.6" xlink:href="#m8c4c69b5de" y="295.488"/>
      </g>
     </g>
     <g id="text_10">
      <!-- $\mathdefault{10^{0}}$ -->
      <g transform="translate(33 299.287219)scale(0.1 -0.1)">
       <use transform="translate(0 0.765625)" xlink:href="#DejaVuSans-31"/>
       <use transform="translate(63.623047 0.765625)" xlink:href="#DejaVuSans-30"/>
       <use transform="translate(128.203125 39.046875)scale(0.7)" xlink:href="#DejaVuSans-30"/>
      </g>
     </g>
    </g>
    <g id="ytick_2">
     <g id="line2d_11">
      <g>
       <use style="stroke:#000000;stroke-width:0.8;" x="57.6" xlink:href="#m8c4c69b5de" y="185.319031"/>
      </g>
     </g>
     <g id="text_11">
      <!-- $\mathdefault{10^{1}}$ -->
      <g transform="translate(33 189.11825)scale(0.1 -0.1)">
       <use transform="translate(0 0.684375)" xlink:href="#DejaVuSans-31"/>
       <use transform="translate(63.623047 0.684375)" xlink:href="#DejaVuSans-30"/>
       <use transform="translate(128.203125 38.965625)scale(0.7)" xlink:href="#DejaVuSans-31"/>
      </g>
     </g>
    </g>
    <g id="ytick_3">
     <g id="line2d_12">
      <g>
       <use style="stroke:#000000;stroke-width:0.8;" x="57.6" xlink:href="#m8c4c69b5de" y="75.150063"/>
      </g>
     </g>
     <g id="text_12">
      <!-- $\mathdefault{10^{2}}$ -->
      <g transform="translate(33 78.949281)scale(0.1 -0.1)">
       <use transform="translate(0 0.765625)" xlink:href="#DejaVuSans-31"/>
       <use transform="translate(63.623047 0.765625)" xlink:href="#DejaVuSans-30"/>
       <use transform="translate(128.203125 39.046875)scale(0.7)" xlink:href="#DejaVuSans-32"/>
      </g>
     </g>
    </g>
    <g id="ytick_4">
     <g id="line2d_13">
      <defs>
       <path d="M 0 0 
L -2 0 
" id="meef92d7737" style="stroke:#000000;stroke-width:0.6;"/>
      </defs>
      <g>
       <use style="stroke:#000000;stroke-width:0.6;" x="57.6" xlink:href="#meef92d7737" y="306.164476"/>
      </g>
     </g>
    </g>
    <g id="ytick_5">
     <g id="line2d_14">
      <g>
       <use style="stroke:#000000;stroke-width:0.6;" x="57.6" xlink:href="#meef92d7737" y="300.529056"/>
      </g>
     </g>
    </g>
    <g id="ytick_6">
     <g id="line2d_15">
      <g>
       <use style="stroke:#000000;stroke-width:0.6;" x="57.6" xlink:href="#meef92d7737" y="262.323836"/>
      </g>
     </g>
    </g>
    <g id="ytick_7">
     <g id="line2d_16">
      <g>
       <use style="stroke:#000000;stroke-width:0.6;" x="57.6" xlink:href="#meef92d7737" y="242.924043"/>
      </g>
     </g>
    </g>
    <g id="ytick_8">
     <g id="line2d_17">
      <g>
       <use style="stroke:#000000;stroke-width:0.6;" x="57.6" xlink:href="#meef92d7737" y="229.159672"/>
      </g>
     </g>
    </g>
    <g id="ytick_9">
     <g id="line2d_18">
      <g>
       <use style="stroke:#000000;stroke-width:0.6;" x="57.6" xlink:href="#meef92d7737" y="218.483195"/>
      </g>
     </g>
    </g>
    <g id="ytick_10">
     <g id="line2d_19">
      <g>
       <use style="stroke:#000000;stroke-width:0.6;" x="57.6" xlink:href="#meef92d7737" y="209.759879"/>
      </g>
     </g>
    </g>
    <g id="ytick_11">
     <g id="line2d_20">
      <g>
       <use style="stroke:#000000;stroke-width:0.6;" x="57.6" xlink:href="#meef92d7737" y="202.384421"/>
      </g>
     </g>
    </g>
    <g id="ytick_12">
     <g id="line2d_21">
      <g>
       <use style="stroke:#000000;stroke-width:0.6;" x="57.6" xlink:href="#meef92d7737" y="195.995508"/>
      </g>
     </g>
    </g>
    <g id="ytick_13">
     <g id="line2d_22">
      <g>
       <use style="stroke:#000000;stroke-width:0.6;" x="57.6" xlink:href="#meef92d7737" y="190.360087"/>
      </g>
     </g>
    </g>
    <g id="ytick_14">
     <g id="line2d_23">
      <g>
       <use style="stroke:#000000;stroke-width:0.6;" x="57.6" xlink:href="#meef92d7737" y="152.154867"/>
      </g>
     </g>
    </g>
    <g id="ytick_15">
     <g id="line2d_24">
      <g>
       <use style="stroke:#000000;stroke-width:0.6;" x="57.6" xlink:href="#meef92d7737" y="132.755075"/>
      </g>
     </g>
    </g>
    <g id="ytick_16">
     <g id="line2d_25">
      <g>
       <use style="stroke:#000000;stroke-width:0.6;" x="57.6" xlink:href="#meef92d7737" y="118.990703"/>
      </g>
     </g>
    </g>
    <g id="ytick_17">
     <g id="line2d_26">
      <g>
       <use style="stroke:#000000;stroke-width:0.6;" x="57.6" xlink:href="#meef92d7737" y="108.314227"/>
      </g>
     </g>
    </g>
    <g id="ytick_18">
     <g id="line2d_27">
      <g>
       <use style="stroke:#000000;stroke-width:0.6;" x="57.6" xlink:href="#meef92d7737" y="99.590911"/>
      </g>
     </g>
    </g>
    <g id="ytick_19">
     <g id="line2d_28">
      <g>
       <use style="stroke:#000000;stroke-width:0.6;" x="57.6" xlink:href="#meef92d7737" y="92.215452"/>
      </g>
     </g>
    </g>
    <g id="ytick_20">
     <g id="line2d_29">
      <g>
       <use style="stroke:#000000;stroke-width:0.6;" x="57.6" xlink:href="#meef92d7737" y="85.826539"/>
      </g>
     </g>
    </g>
    <g id="ytick_21">
     <g id="line2d_30">
      <g>
       <use style="stroke:#000000;stroke-width:0.6;" x="57.6" xlink:href="#meef92d7737" y="80.191118"/>
      </g>
     </g>
    </g>
    <g id="ytick_22">
     <g id="line2d_31">
      <g>
       <use style="stroke:#000000;stroke-width:0.6;" x="57.6" xlink:href="#meef92d7737" y="41.985899"/>
      </g>
     </g>
    </g>
   </g>
   <g id="patch_90">
    <path d="M 57.6 307.584 
L 57.6 41.472 
" style="fill:none;stroke:#000000;stroke-linecap:square;stroke-linejoin:miter;stroke-width:0.8;"/>
   </g>
   <g id="patch_91">
    <path d="M 414.72 307.584 
L 414.72 41.472 
" style="fill:none;stroke:#000000;stroke-linecap:square;stroke-linejoin:miter;stroke-width:0.8;"/>
   </g>
   <g id="patch_92">
    <path d="M 57.6 307.584 
L 414.72 307.584 
" style="fill:none;stroke:#000000;stroke-linecap:square;stroke-linejoin:miter;stroke-width:0.8;"/>
   </g>
   <g id="patch_93">
    <path d="M 57.6 41.472 
L 414.72 41.472 
" style="fill:none;stroke:#000000;stroke-linecap:square;stroke-linejoin:miter;stroke-width:0.8;"/>
   </g>
  </g>
 </g>
 <defs>
  <clipPath id="p26a9d44d02">
   <rect height="266.112" width="357.12" x="57.6" y="41.472"/>
  </clipPath>
 </defs>
</svg>
