<?xml version="1.0" encoding="utf-8" standalone="no"?>
<!DOCTYPE svg PUBLIC "-//W3C//DTD SVG 1.1//EN"
  "http://www.w3.org/Graphics/SVG/1.1/DTD/svg11.dtd">
<!-- Created with matplotlib (http://matplotlib.org/) -->
<svg height="504pt" version="1.1" viewBox="0 0 504 504" width="504pt" xmlns="http://www.w3.org/2000/svg" xmlns:xlink="http://www.w3.org/1999/xlink">
 <defs>
  <style type="text/css">
*{stroke-linecap:butt;stroke-linejoin:round;}
  </style>
 </defs>
 <g id="figure_1">
  <g id="patch_1">
   <path d="M 0 504 
L 504 504 
L 504 0 
L 0 0 
z
" style="fill:#ffffff;"/>
  </g>
  <g id="axes_1">
   <g id="patch_2">
    <path d="M 63 448.56 
L 453.6 448.56 
L 453.6 60.48 
L 63 60.48 
z
" style="fill:#ffffff;"/>
   </g>
   <g id="patch_3">
    <path clip-path="url(#p3dd4656e31)" d="M 80.754545 100931.973929 
L 87.856364 100931.973929 
L 87.856364 430.92 
L 80.754545 430.92 
z
" style="fill:#c17a70;opacity:0.4;"/>
   </g>
   <g id="patch_4">
    <path clip-path="url(#p3dd4656e31)" d="M 87.856364 100931.973929 
L 94.958182 100931.973929 
L 94.958182 100931.973929 
L 87.856364 100931.973929 
z
" style="fill:#c17a70;opacity:0.4;"/>
   </g>
   <g id="patch_5">
    <path clip-path="url(#p3dd4656e31)" d="M 94.958182 100931.973929 
L 102.06 100931.973929 
L 102.06 100931.973929 
L 94.958182 100931.973929 
z
" style="fill:#c17a70;opacity:0.4;"/>
   </g>
   <g id="patch_6">
    <path clip-path="url(#p3dd4656e31)" d="M 102.06 100931.973929 
L 109.161818 100931.973929 
L 109.161818 430.92 
L 102.06 430.92 
z
" style="fill:#c17a70;opacity:0.4;"/>
   </g>
   <g id="patch_7">
    <path clip-path="url(#p3dd4656e31)" d="M 109.161818 100931.973929 
L 116.263636 100931.973929 
L 116.263636 430.92 
L 109.161818 430.92 
z
" style="fill:#c17a70;opacity:0.4;"/>
   </g>
   <g id="patch_8">
    <path clip-path="url(#p3dd4656e31)" d="M 116.263636 100931.973929 
L 123.365455 100931.973929 
L 123.365455 100931.973929 
L 116.263636 100931.973929 
z
" style="fill:#c17a70;opacity:0.4;"/>
   </g>
   <g id="patch_9">
    <path clip-path="url(#p3dd4656e31)" d="M 123.365455 100931.973929 
L 130.467273 100931.973929 
L 130.467273 360.672778 
L 123.365455 360.672778 
z
" style="fill:#c17a70;opacity:0.4;"/>
   </g>
   <g id="patch_10">
    <path clip-path="url(#p3dd4656e31)" d="M 130.467273 100931.973929 
L 137.569091 100931.973929 
L 137.569091 100931.973929 
L 130.467273 100931.973929 
z
" style="fill:#c17a70;opacity:0.4;"/>
   </g>
   <g id="patch_11">
    <path clip-path="url(#p3dd4656e31)" d="M 137.569091 100931.973929 
L 144.670909 100931.973929 
L 144.670909 360.672778 
L 137.569091 360.672778 
z
" style="fill:#c17a70;opacity:0.4;"/>
   </g>
   <g id="patch_12">
    <path clip-path="url(#p3dd4656e31)" d="M 144.670909 100931.973929 
L 151.772727 100931.973929 
L 151.772727 265.751274 
L 144.670909 265.751274 
z
" style="fill:#c17a70;opacity:0.4;"/>
   </g>
   <g id="patch_13">
    <path clip-path="url(#p3dd4656e31)" d="M 151.772727 100931.973929 
L 158.874545 100931.973929 
L 158.874545 100931.973929 
L 151.772727 100931.973929 
z
" style="fill:#c17a70;opacity:0.4;"/>
   </g>
   <g id="patch_14">
    <path clip-path="url(#p3dd4656e31)" d="M 158.874545 100931.973929 
L 165.976364 100931.973929 
L 165.976364 209.131674 
L 158.874545 209.131674 
z
" style="fill:#c17a70;opacity:0.4;"/>
   </g>
   <g id="patch_15">
    <path clip-path="url(#p3dd4656e31)" d="M 165.976364 100931.973929 
L 173.078182 100931.973929 
L 173.078182 78.12 
L 165.976364 78.12 
z
" style="fill:#c17a70;opacity:0.4;"/>
   </g>
   <g id="patch_16">
    <path clip-path="url(#p3dd4656e31)" d="M 173.078182 100931.973929 
L 180.18 100931.973929 
L 180.18 100931.973929 
L 173.078182 100931.973929 
z
" style="fill:#c17a70;opacity:0.4;"/>
   </g>
   <g id="patch_17">
    <path clip-path="url(#p3dd4656e31)" d="M 180.18 100931.973929 
L 187.281818 100931.973929 
L 187.281818 243.654089 
L 180.18 243.654089 
z
" style="fill:#c17a70;opacity:0.4;"/>
   </g>
   <g id="patch_18">
    <path clip-path="url(#p3dd4656e31)" d="M 187.281818 100931.973929 
L 194.383636 100931.973929 
L 194.383636 100931.973929 
L 187.281818 100931.973929 
z
" style="fill:#c17a70;opacity:0.4;"/>
   </g>
   <g id="patch_19">
    <path clip-path="url(#p3dd4656e31)" d="M 194.383636 100931.973929 
L 201.485455 100931.973929 
L 201.485455 302.403915 
L 194.383636 302.403915 
z
" style="fill:#c17a70;opacity:0.4;"/>
   </g>
   <g id="patch_20">
    <path clip-path="url(#p3dd4656e31)" d="M 201.485455 100931.973929 
L 208.587273 100931.973929 
L 208.587273 309.904673 
L 201.485455 309.904673 
z
" style="fill:#c17a70;opacity:0.4;"/>
   </g>
   <g id="patch_21">
    <path clip-path="url(#p3dd4656e31)" d="M 208.587273 100931.973929 
L 215.689091 100931.973929 
L 215.689091 100931.973929 
L 208.587273 100931.973929 
z
" style="fill:#c17a70;opacity:0.4;"/>
   </g>
   <g id="patch_22">
    <path clip-path="url(#p3dd4656e31)" d="M 215.689091 100931.973929 
L 222.790909 100931.973929 
L 222.790909 318.967519 
L 215.689091 318.967519 
z
" style="fill:#c17a70;opacity:0.4;"/>
   </g>
   <g id="patch_23">
    <path clip-path="url(#p3dd4656e31)" d="M 222.790909 100931.973929 
L 229.892727 100931.973929 
L 229.892727 352.714979 
L 222.790909 352.714979 
z
" style="fill:#c17a70;opacity:0.4;"/>
   </g>
   <g id="patch_24">
    <path clip-path="url(#p3dd4656e31)" d="M 229.892727 100931.973929 
L 236.994545 100931.973929 
L 236.994545 100931.973929 
L 229.892727 100931.973929 
z
" style="fill:#c17a70;opacity:0.4;"/>
   </g>
   <g id="patch_25">
    <path clip-path="url(#p3dd4656e31)" d="M 236.994545 100931.973929 
L 244.096364 100931.973929 
L 244.096364 360.672778 
L 236.994545 360.672778 
z
" style="fill:#c17a70;opacity:0.4;"/>
   </g>
   <g id="patch_26">
    <path clip-path="url(#p3dd4656e31)" d="M 244.096364 100931.973929 
L 251.198182 100931.973929 
L 251.198182 100931.973929 
L 244.096364 100931.973929 
z
" style="fill:#c17a70;opacity:0.4;"/>
   </g>
   <g id="patch_27">
    <path clip-path="url(#p3dd4656e31)" d="M 251.198182 100931.973929 
L 258.3 100931.973929 
L 258.3 370.412336 
L 251.198182 370.412336 
z
" style="fill:#c17a70;opacity:0.4;"/>
   </g>
   <g id="patch_28">
    <path clip-path="url(#p3dd4656e31)" d="M 258.3 100931.973929 
L 265.401818 100931.973929 
L 265.401818 430.92 
L 258.3 430.92 
z
" style="fill:#c17a70;opacity:0.4;"/>
   </g>
   <g id="patch_29">
    <path clip-path="url(#p3dd4656e31)" d="M 265.401818 100931.973929 
L 272.503636 100931.973929 
L 272.503636 100931.973929 
L 265.401818 100931.973929 
z
" style="fill:#c17a70;opacity:0.4;"/>
   </g>
   <g id="patch_30">
    <path clip-path="url(#p3dd4656e31)" d="M 272.503636 100931.973929 
L 279.605455 100931.973929 
L 279.605455 400.666168 
L 272.503636 400.666168 
z
" style="fill:#c17a70;opacity:0.4;"/>
   </g>
   <g id="patch_31">
    <path clip-path="url(#p3dd4656e31)" d="M 279.605455 100931.973929 
L 286.707273 100931.973929 
L 286.707273 100931.973929 
L 279.605455 100931.973929 
z
" style="fill:#c17a70;opacity:0.4;"/>
   </g>
   <g id="patch_32">
    <path clip-path="url(#p3dd4656e31)" d="M 286.707273 100931.973929 
L 293.809091 100931.973929 
L 293.809091 100931.973929 
L 286.707273 100931.973929 
z
" style="fill:#c17a70;opacity:0.4;"/>
   </g>
   <g id="patch_33">
    <path clip-path="url(#p3dd4656e31)" d="M 293.809091 100931.973929 
L 300.910909 100931.973929 
L 300.910909 100931.973929 
L 293.809091 100931.973929 
z
" style="fill:#c17a70;opacity:0.4;"/>
   </g>
   <g id="patch_34">
    <path clip-path="url(#p3dd4656e31)" d="M 300.910909 100931.973929 
L 308.012727 100931.973929 
L 308.012727 100931.973929 
L 300.910909 100931.973929 
z
" style="fill:#c17a70;opacity:0.4;"/>
   </g>
   <g id="patch_35">
    <path clip-path="url(#p3dd4656e31)" d="M 308.012727 100931.973929 
L 315.114545 100931.973929 
L 315.114545 100931.973929 
L 308.012727 100931.973929 
z
" style="fill:#c17a70;opacity:0.4;"/>
   </g>
   <g id="patch_36">
    <path clip-path="url(#p3dd4656e31)" d="M 315.114545 100931.973929 
L 322.216364 100931.973929 
L 322.216364 100931.973929 
L 315.114545 100931.973929 
z
" style="fill:#c17a70;opacity:0.4;"/>
   </g>
   <g id="patch_37">
    <path clip-path="url(#p3dd4656e31)" d="M 322.216364 100931.973929 
L 329.318182 100931.973929 
L 329.318182 100931.973929 
L 322.216364 100931.973929 
z
" style="fill:#c17a70;opacity:0.4;"/>
   </g>
   <g id="patch_38">
    <path clip-path="url(#p3dd4656e31)" d="M 329.318182 100931.973929 
L 336.42 100931.973929 
L 336.42 430.92 
L 329.318182 430.92 
z
" style="fill:#c17a70;opacity:0.4;"/>
   </g>
   <g id="patch_39">
    <path clip-path="url(#p3dd4656e31)" d="M 336.42 100931.973929 
L 343.521818 100931.973929 
L 343.521818 100931.973929 
L 336.42 100931.973929 
z
" style="fill:#c17a70;opacity:0.4;"/>
   </g>
   <g id="patch_40">
    <path clip-path="url(#p3dd4656e31)" d="M 343.521818 100931.973929 
L 350.623636 100931.973929 
L 350.623636 100931.973929 
L 343.521818 100931.973929 
z
" style="fill:#c17a70;opacity:0.4;"/>
   </g>
   <g id="patch_41">
    <path clip-path="url(#p3dd4656e31)" d="M 350.623636 100931.973929 
L 357.725455 100931.973929 
L 357.725455 100931.973929 
L 350.623636 100931.973929 
z
" style="fill:#c17a70;opacity:0.4;"/>
   </g>
   <g id="patch_42">
    <path clip-path="url(#p3dd4656e31)" d="M 357.725455 100931.973929 
L 364.827273 100931.973929 
L 364.827273 100931.973929 
L 357.725455 100931.973929 
z
" style="fill:#c17a70;opacity:0.4;"/>
   </g>
   <g id="patch_43">
    <path clip-path="url(#p3dd4656e31)" d="M 364.827273 100931.973929 
L 371.929091 100931.973929 
L 371.929091 430.92 
L 364.827273 430.92 
z
" style="fill:#c17a70;opacity:0.4;"/>
   </g>
   <g id="patch_44">
    <path clip-path="url(#p3dd4656e31)" d="M 371.929091 100931.973929 
L 379.030909 100931.973929 
L 379.030909 100931.973929 
L 371.929091 100931.973929 
z
" style="fill:#c17a70;opacity:0.4;"/>
   </g>
   <g id="patch_45">
    <path clip-path="url(#p3dd4656e31)" d="M 379.030909 100931.973929 
L 386.132727 100931.973929 
L 386.132727 100931.973929 
L 379.030909 100931.973929 
z
" style="fill:#c17a70;opacity:0.4;"/>
   </g>
   <g id="patch_46">
    <path clip-path="url(#p3dd4656e31)" d="M 386.132727 100931.973929 
L 393.234545 100931.973929 
L 393.234545 100931.973929 
L 386.132727 100931.973929 
z
" style="fill:#c17a70;opacity:0.4;"/>
   </g>
   <g id="patch_47">
    <path clip-path="url(#p3dd4656e31)" d="M 393.234545 100931.973929 
L 400.336364 100931.973929 
L 400.336364 100931.973929 
L 393.234545 100931.973929 
z
" style="fill:#c17a70;opacity:0.4;"/>
   </g>
   <g id="patch_48">
    <path clip-path="url(#p3dd4656e31)" d="M 400.336364 100931.973929 
L 407.438182 100931.973929 
L 407.438182 100931.973929 
L 400.336364 100931.973929 
z
" style="fill:#c17a70;opacity:0.4;"/>
   </g>
   <g id="patch_49">
    <path clip-path="url(#p3dd4656e31)" d="M 407.438182 100931.973929 
L 414.54 100931.973929 
L 414.54 100931.973929 
L 407.438182 100931.973929 
z
" style="fill:#c17a70;opacity:0.4;"/>
   </g>
   <g id="patch_50">
    <path clip-path="url(#p3dd4656e31)" d="M 414.54 100931.973929 
L 421.641818 100931.973929 
L 421.641818 100931.973929 
L 414.54 100931.973929 
z
" style="fill:#c17a70;opacity:0.4;"/>
   </g>
   <g id="patch_51">
    <path clip-path="url(#p3dd4656e31)" d="M 421.641818 100931.973929 
L 428.743636 100931.973929 
L 428.743636 100931.973929 
L 421.641818 100931.973929 
z
" style="fill:#c17a70;opacity:0.4;"/>
   </g>
   <g id="patch_52">
    <path clip-path="url(#p3dd4656e31)" d="M 428.743636 100931.973929 
L 435.845455 100931.973929 
L 435.845455 430.92 
L 428.743636 430.92 
z
" style="fill:#c17a70;opacity:0.4;"/>
   </g>
   <g id="matplotlib.axis_1">
    <g id="xtick_1">
     <g id="line2d_1">
      <defs>
       <path d="M 0 0 
L 0 3.5 
" id="m9a1f1a103e" style="stroke:#000000;stroke-width:0.8;"/>
      </defs>
      <g>
       <use style="stroke:#000000;stroke-width:0.8;" x="115.118182" xlink:href="#m9a1f1a103e" y="448.56"/>
      </g>
     </g>
     <g id="text_1">
      <!-- −0.05 -->
      <defs>
       <path d="M 10.59375 35.5 
L 73.1875 35.5 
L 73.1875 27.203125 
L 10.59375 27.203125 
z
" id="DejaVuSans-2212"/>
       <path d="M 31.78125 66.40625 
Q 24.171875 66.40625 20.328125 58.90625 
Q 16.5 51.421875 16.5 36.375 
Q 16.5 21.390625 20.328125 13.890625 
Q 24.171875 6.390625 31.78125 6.390625 
Q 39.453125 6.390625 43.28125 13.890625 
Q 47.125 21.390625 47.125 36.375 
Q 47.125 51.421875 43.28125 58.90625 
Q 39.453125 66.40625 31.78125 66.40625 
z
M 31.78125 74.21875 
Q 44.046875 74.21875 50.515625 64.515625 
Q 56.984375 54.828125 56.984375 36.375 
Q 56.984375 17.96875 50.515625 8.265625 
Q 44.046875 -1.421875 31.78125 -1.421875 
Q 19.53125 -1.421875 13.0625 8.265625 
Q 6.59375 17.96875 6.59375 36.375 
Q 6.59375 54.828125 13.0625 64.515625 
Q 19.53125 74.21875 31.78125 74.21875 
z
" id="DejaVuSans-30"/>
       <path d="M 10.6875 12.40625 
L 21 12.40625 
L 21 0 
L 10.6875 0 
z
" id="DejaVuSans-2e"/>
       <path d="M 10.796875 72.90625 
L 49.515625 72.90625 
L 49.515625 64.59375 
L 19.828125 64.59375 
L 19.828125 46.734375 
Q 21.96875 47.46875 24.109375 47.828125 
Q 26.265625 48.1875 28.421875 48.1875 
Q 40.625 48.1875 47.75 41.5 
Q 54.890625 34.8125 54.890625 23.390625 
Q 54.890625 11.625 47.5625 5.09375 
Q 40.234375 -1.421875 26.90625 -1.421875 
Q 22.3125 -1.421875 17.546875 -0.640625 
Q 12.796875 0.140625 7.71875 1.703125 
L 7.71875 11.625 
Q 12.109375 9.234375 16.796875 8.0625 
Q 21.484375 6.890625 26.703125 6.890625 
Q 35.15625 6.890625 40.078125 11.328125 
Q 45.015625 15.765625 45.015625 23.390625 
Q 45.015625 31 40.078125 35.4375 
Q 35.15625 39.890625 26.703125 39.890625 
Q 22.75 39.890625 18.8125 39.015625 
Q 14.890625 38.140625 10.796875 36.28125 
z
" id="DejaVuSans-35"/>
      </defs>
      <g transform="translate(99.795526 463.158437)scale(0.1 -0.1)">
       <use xlink:href="#DejaVuSans-2212"/>
       <use x="83.789062" xlink:href="#DejaVuSans-30"/>
       <use x="147.412109" xlink:href="#DejaVuSans-2e"/>
       <use x="179.199219" xlink:href="#DejaVuSans-30"/>
       <use x="242.822266" xlink:href="#DejaVuSans-35"/>
      </g>
     </g>
    </g>
    <g id="xtick_2">
     <g id="line2d_2">
      <g>
       <use style="stroke:#000000;stroke-width:0.8;" x="172.390909" xlink:href="#m9a1f1a103e" y="448.56"/>
      </g>
     </g>
     <g id="text_2">
      <!-- 0.00 -->
      <g transform="translate(161.258097 463.158437)scale(0.1 -0.1)">
       <use xlink:href="#DejaVuSans-30"/>
       <use x="63.623047" xlink:href="#DejaVuSans-2e"/>
       <use x="95.410156" xlink:href="#DejaVuSans-30"/>
       <use x="159.033203" xlink:href="#DejaVuSans-30"/>
      </g>
     </g>
    </g>
    <g id="xtick_3">
     <g id="line2d_3">
      <g>
       <use style="stroke:#000000;stroke-width:0.8;" x="229.663636" xlink:href="#m9a1f1a103e" y="448.56"/>
      </g>
     </g>
     <g id="text_3">
      <!-- 0.05 -->
      <g transform="translate(218.530824 463.158437)scale(0.1 -0.1)">
       <use xlink:href="#DejaVuSans-30"/>
       <use x="63.623047" xlink:href="#DejaVuSans-2e"/>
       <use x="95.410156" xlink:href="#DejaVuSans-30"/>
       <use x="159.033203" xlink:href="#DejaVuSans-35"/>
      </g>
     </g>
    </g>
    <g id="xtick_4">
     <g id="line2d_4">
      <g>
       <use style="stroke:#000000;stroke-width:0.8;" x="286.936364" xlink:href="#m9a1f1a103e" y="448.56"/>
      </g>
     </g>
     <g id="text_4">
      <!-- 0.10 -->
      <defs>
       <path d="M 12.40625 8.296875 
L 28.515625 8.296875 
L 28.515625 63.921875 
L 10.984375 60.40625 
L 10.984375 69.390625 
L 28.421875 72.90625 
L 38.28125 72.90625 
L 38.28125 8.296875 
L 54.390625 8.296875 
L 54.390625 0 
L 12.40625 0 
z
" id="DejaVuSans-31"/>
      </defs>
      <g transform="translate(275.803551 463.158437)scale(0.1 -0.1)">
       <use xlink:href="#DejaVuSans-30"/>
       <use x="63.623047" xlink:href="#DejaVuSans-2e"/>
       <use x="95.410156" xlink:href="#DejaVuSans-31"/>
       <use x="159.033203" xlink:href="#DejaVuSans-30"/>
      </g>
     </g>
    </g>
    <g id="xtick_5">
     <g id="line2d_5">
      <g>
       <use style="stroke:#000000;stroke-width:0.8;" x="344.209091" xlink:href="#m9a1f1a103e" y="448.56"/>
      </g>
     </g>
     <g id="text_5">
      <!-- 0.15 -->
      <g transform="translate(333.076278 463.158437)scale(0.1 -0.1)">
       <use xlink:href="#DejaVuSans-30"/>
       <use x="63.623047" xlink:href="#DejaVuSans-2e"/>
       <use x="95.410156" xlink:href="#DejaVuSans-31"/>
       <use x="159.033203" xlink:href="#DejaVuSans-35"/>
      </g>
     </g>
    </g>
    <g id="xtick_6">
     <g id="line2d_6">
      <g>
       <use style="stroke:#000000;stroke-width:0.8;" x="401.481818" xlink:href="#m9a1f1a103e" y="448.56"/>
      </g>
     </g>
     <g id="text_6">
      <!-- 0.20 -->
      <defs>
       <path d="M 19.1875 8.296875 
L 53.609375 8.296875 
L 53.609375 0 
L 7.328125 0 
L 7.328125 8.296875 
Q 12.9375 14.109375 22.625 23.890625 
Q 32.328125 33.6875 34.8125 36.53125 
Q 39.546875 41.84375 41.421875 45.53125 
Q 43.3125 49.21875 43.3125 52.78125 
Q 43.3125 58.59375 39.234375 62.25 
Q 35.15625 65.921875 28.609375 65.921875 
Q 23.96875 65.921875 18.8125 64.3125 
Q 13.671875 62.703125 7.8125 59.421875 
L 7.8125 69.390625 
Q 13.765625 71.78125 18.9375 73 
Q 24.125 74.21875 28.421875 74.21875 
Q 39.75 74.21875 46.484375 68.546875 
Q 53.21875 62.890625 53.21875 53.421875 
Q 53.21875 48.921875 51.53125 44.890625 
Q 49.859375 40.875 45.40625 35.40625 
Q 44.1875 33.984375 37.640625 27.21875 
Q 31.109375 20.453125 19.1875 8.296875 
z
" id="DejaVuSans-32"/>
      </defs>
      <g transform="translate(390.349006 463.158437)scale(0.1 -0.1)">
       <use xlink:href="#DejaVuSans-30"/>
       <use x="63.623047" xlink:href="#DejaVuSans-2e"/>
       <use x="95.410156" xlink:href="#DejaVuSans-32"/>
       <use x="159.033203" xlink:href="#DejaVuSans-30"/>
      </g>
     </g>
    </g>
   </g>
   <g id="matplotlib.axis_2">
    <g id="ytick_1">
     <g id="line2d_7">
      <defs>
       <path d="M 0 0 
L -3.5 0 
" id="m154f255e22" style="stroke:#000000;stroke-width:0.8;"/>
      </defs>
      <g>
       <use style="stroke:#000000;stroke-width:0.8;" x="63" xlink:href="#m154f255e22" y="430.92"/>
      </g>
     </g>
     <g id="text_7">
      <!-- $\mathdefault{10^{0}}$ -->
      <g transform="translate(38.4 434.719219)scale(0.1 -0.1)">
       <use transform="translate(0 0.765625)" xlink:href="#DejaVuSans-31"/>
       <use transform="translate(63.623047 0.765625)" xlink:href="#DejaVuSans-30"/>
       <use transform="translate(128.203125 39.046875)scale(0.7)" xlink:href="#DejaVuSans-30"/>
      </g>
     </g>
    </g>
    <g id="ytick_2">
     <g id="line2d_8">
      <g>
       <use style="stroke:#000000;stroke-width:0.8;" x="63" xlink:href="#m154f255e22" y="330.418946"/>
      </g>
     </g>
     <g id="text_8">
      <!-- $\mathdefault{10^{1}}$ -->
      <g transform="translate(38.4 334.218165)scale(0.1 -0.1)">
       <use transform="translate(0 0.684375)" xlink:href="#DejaVuSans-31"/>
       <use transform="translate(63.623047 0.684375)" xlink:href="#DejaVuSans-30"/>
       <use transform="translate(128.203125 38.965625)scale(0.7)" xlink:href="#DejaVuSans-31"/>
      </g>
     </g>
    </g>
    <g id="ytick_3">
     <g id="line2d_9">
      <g>
       <use style="stroke:#000000;stroke-width:0.8;" x="63" xlink:href="#m154f255e22" y="229.917892"/>
      </g>
     </g>
     <g id="text_9">
      <!-- $\mathdefault{10^{2}}$ -->
      <g transform="translate(38.4 233.717111)scale(0.1 -0.1)">
       <use transform="translate(0 0.765625)" xlink:href="#DejaVuSans-31"/>
       <use transform="translate(63.623047 0.765625)" xlink:href="#DejaVuSans-30"/>
       <use transform="translate(128.203125 39.046875)scale(0.7)" xlink:href="#DejaVuSans-32"/>
      </g>
     </g>
    </g>
    <g id="ytick_4">
     <g id="line2d_10">
      <g>
       <use style="stroke:#000000;stroke-width:0.8;" x="63" xlink:href="#m154f255e22" y="129.416838"/>
      </g>
     </g>
     <g id="text_10">
      <!-- $\mathdefault{10^{3}}$ -->
      <defs>
       <path d="M 40.578125 39.3125 
Q 47.65625 37.796875 51.625 33 
Q 55.609375 28.21875 55.609375 21.1875 
Q 55.609375 10.40625 48.1875 4.484375 
Q 40.765625 -1.421875 27.09375 -1.421875 
Q 22.515625 -1.421875 17.65625 -0.515625 
Q 12.796875 0.390625 7.625 2.203125 
L 7.625 11.71875 
Q 11.71875 9.328125 16.59375 8.109375 
Q 21.484375 6.890625 26.8125 6.890625 
Q 36.078125 6.890625 40.9375 10.546875 
Q 45.796875 14.203125 45.796875 21.1875 
Q 45.796875 27.640625 41.28125 31.265625 
Q 36.765625 34.90625 28.71875 34.90625 
L 20.21875 34.90625 
L 20.21875 43.015625 
L 29.109375 43.015625 
Q 36.375 43.015625 40.234375 45.921875 
Q 44.09375 48.828125 44.09375 54.296875 
Q 44.09375 59.90625 40.109375 62.90625 
Q 36.140625 65.921875 28.71875 65.921875 
Q 24.65625 65.921875 20.015625 65.03125 
Q 15.375 64.15625 9.8125 62.3125 
L 9.8125 71.09375 
Q 15.4375 72.65625 20.34375 73.4375 
Q 25.25 74.21875 29.59375 74.21875 
Q 40.828125 74.21875 47.359375 69.109375 
Q 53.90625 64.015625 53.90625 55.328125 
Q 53.90625 49.265625 50.4375 45.09375 
Q 46.96875 40.921875 40.578125 39.3125 
z
" id="DejaVuSans-33"/>
      </defs>
      <g transform="translate(38.4 133.216057)scale(0.1 -0.1)">
       <use transform="translate(0 0.765625)" xlink:href="#DejaVuSans-31"/>
       <use transform="translate(63.623047 0.765625)" xlink:href="#DejaVuSans-30"/>
       <use transform="translate(128.203125 39.046875)scale(0.7)" xlink:href="#DejaVuSans-33"/>
      </g>
     </g>
    </g>
    <g id="ytick_5">
     <g id="line2d_11">
      <defs>
       <path d="M 0 0 
L -2 0 
" id="m6fc1454aa1" style="stroke:#000000;stroke-width:0.6;"/>
      </defs>
      <g>
       <use style="stroke:#000000;stroke-width:0.6;" x="63" xlink:href="#m6fc1454aa1" y="446.48781"/>
      </g>
     </g>
    </g>
    <g id="ytick_6">
     <g id="line2d_12">
      <g>
       <use style="stroke:#000000;stroke-width:0.6;" x="63" xlink:href="#m6fc1454aa1" y="440.659558"/>
      </g>
     </g>
    </g>
    <g id="ytick_7">
     <g id="line2d_13">
      <g>
       <use style="stroke:#000000;stroke-width:0.6;" x="63" xlink:href="#m6fc1454aa1" y="435.518676"/>
      </g>
     </g>
    </g>
    <g id="ytick_8">
     <g id="line2d_14">
      <g>
       <use style="stroke:#000000;stroke-width:0.6;" x="63" xlink:href="#m6fc1454aa1" y="400.666168"/>
      </g>
     </g>
    </g>
    <g id="ytick_9">
     <g id="line2d_15">
      <g>
       <use style="stroke:#000000;stroke-width:0.6;" x="63" xlink:href="#m6fc1454aa1" y="382.968811"/>
      </g>
     </g>
    </g>
    <g id="ytick_10">
     <g id="line2d_16">
      <g>
       <use style="stroke:#000000;stroke-width:0.6;" x="63" xlink:href="#m6fc1454aa1" y="370.412336"/>
      </g>
     </g>
    </g>
    <g id="ytick_11">
     <g id="line2d_17">
      <g>
       <use style="stroke:#000000;stroke-width:0.6;" x="63" xlink:href="#m6fc1454aa1" y="360.672778"/>
      </g>
     </g>
    </g>
    <g id="ytick_12">
     <g id="line2d_18">
      <g>
       <use style="stroke:#000000;stroke-width:0.6;" x="63" xlink:href="#m6fc1454aa1" y="352.714979"/>
      </g>
     </g>
    </g>
    <g id="ytick_13">
     <g id="line2d_19">
      <g>
       <use style="stroke:#000000;stroke-width:0.6;" x="63" xlink:href="#m6fc1454aa1" y="345.986756"/>
      </g>
     </g>
    </g>
    <g id="ytick_14">
     <g id="line2d_20">
      <g>
       <use style="stroke:#000000;stroke-width:0.6;" x="63" xlink:href="#m6fc1454aa1" y="340.158505"/>
      </g>
     </g>
    </g>
    <g id="ytick_15">
     <g id="line2d_21">
      <g>
       <use style="stroke:#000000;stroke-width:0.6;" x="63" xlink:href="#m6fc1454aa1" y="335.017622"/>
      </g>
     </g>
    </g>
    <g id="ytick_16">
     <g id="line2d_22">
      <g>
       <use style="stroke:#000000;stroke-width:0.6;" x="63" xlink:href="#m6fc1454aa1" y="300.165114"/>
      </g>
     </g>
    </g>
    <g id="ytick_17">
     <g id="line2d_23">
      <g>
       <use style="stroke:#000000;stroke-width:0.6;" x="63" xlink:href="#m6fc1454aa1" y="282.467757"/>
      </g>
     </g>
    </g>
    <g id="ytick_18">
     <g id="line2d_24">
      <g>
       <use style="stroke:#000000;stroke-width:0.6;" x="63" xlink:href="#m6fc1454aa1" y="269.911282"/>
      </g>
     </g>
    </g>
    <g id="ytick_19">
     <g id="line2d_25">
      <g>
       <use style="stroke:#000000;stroke-width:0.6;" x="63" xlink:href="#m6fc1454aa1" y="260.171724"/>
      </g>
     </g>
    </g>
    <g id="ytick_20">
     <g id="line2d_26">
      <g>
       <use style="stroke:#000000;stroke-width:0.6;" x="63" xlink:href="#m6fc1454aa1" y="252.213925"/>
      </g>
     </g>
    </g>
    <g id="ytick_21">
     <g id="line2d_27">
      <g>
       <use style="stroke:#000000;stroke-width:0.6;" x="63" xlink:href="#m6fc1454aa1" y="245.485702"/>
      </g>
     </g>
    </g>
    <g id="ytick_22">
     <g id="line2d_28">
      <g>
       <use style="stroke:#000000;stroke-width:0.6;" x="63" xlink:href="#m6fc1454aa1" y="239.657451"/>
      </g>
     </g>
    </g>
    <g id="ytick_23">
     <g id="line2d_29">
      <g>
       <use style="stroke:#000000;stroke-width:0.6;" x="63" xlink:href="#m6fc1454aa1" y="234.516568"/>
      </g>
     </g>
    </g>
    <g id="ytick_24">
     <g id="line2d_30">
      <g>
       <use style="stroke:#000000;stroke-width:0.6;" x="63" xlink:href="#m6fc1454aa1" y="199.66406"/>
      </g>
     </g>
    </g>
    <g id="ytick_25">
     <g id="line2d_31">
      <g>
       <use style="stroke:#000000;stroke-width:0.6;" x="63" xlink:href="#m6fc1454aa1" y="181.966703"/>
      </g>
     </g>
    </g>
    <g id="ytick_26">
     <g id="line2d_32">
      <g>
       <use style="stroke:#000000;stroke-width:0.6;" x="63" xlink:href="#m6fc1454aa1" y="169.410228"/>
      </g>
     </g>
    </g>
    <g id="ytick_27">
     <g id="line2d_33">
      <g>
       <use style="stroke:#000000;stroke-width:0.6;" x="63" xlink:href="#m6fc1454aa1" y="159.67067"/>
      </g>
     </g>
    </g>
    <g id="ytick_28">
     <g id="line2d_34">
      <g>
       <use style="stroke:#000000;stroke-width:0.6;" x="63" xlink:href="#m6fc1454aa1" y="151.712871"/>
      </g>
     </g>
    </g>
    <g id="ytick_29">
     <g id="line2d_35">
      <g>
       <use style="stroke:#000000;stroke-width:0.6;" x="63" xlink:href="#m6fc1454aa1" y="144.984648"/>
      </g>
     </g>
    </g>
    <g id="ytick_30">
     <g id="line2d_36">
      <g>
       <use style="stroke:#000000;stroke-width:0.6;" x="63" xlink:href="#m6fc1454aa1" y="139.156397"/>
      </g>
     </g>
    </g>
    <g id="ytick_31">
     <g id="line2d_37">
      <g>
       <use style="stroke:#000000;stroke-width:0.6;" x="63" xlink:href="#m6fc1454aa1" y="134.015514"/>
      </g>
     </g>
    </g>
    <g id="ytick_32">
     <g id="line2d_38">
      <g>
       <use style="stroke:#000000;stroke-width:0.6;" x="63" xlink:href="#m6fc1454aa1" y="99.163006"/>
      </g>
     </g>
    </g>
    <g id="ytick_33">
     <g id="line2d_39">
      <g>
       <use style="stroke:#000000;stroke-width:0.6;" x="63" xlink:href="#m6fc1454aa1" y="81.465649"/>
      </g>
     </g>
    </g>
    <g id="ytick_34">
     <g id="line2d_40">
      <g>
       <use style="stroke:#000000;stroke-width:0.6;" x="63" xlink:href="#m6fc1454aa1" y="68.909175"/>
      </g>
     </g>
    </g>
   </g>
   <g id="patch_53">
    <path d="M 63 448.56 
L 63 60.48 
" style="fill:none;stroke:#000000;stroke-linecap:square;stroke-linejoin:miter;stroke-width:0.8;"/>
   </g>
   <g id="patch_54">
    <path d="M 453.6 448.56 
L 453.6 60.48 
" style="fill:none;stroke:#000000;stroke-linecap:square;stroke-linejoin:miter;stroke-width:0.8;"/>
   </g>
   <g id="patch_55">
    <path d="M 63 448.56 
L 453.6 448.56 
" style="fill:none;stroke:#000000;stroke-linecap:square;stroke-linejoin:miter;stroke-width:0.8;"/>
   </g>
   <g id="patch_56">
    <path d="M 63 60.48 
L 453.6 60.48 
" style="fill:none;stroke:#000000;stroke-linecap:square;stroke-linejoin:miter;stroke-width:0.8;"/>
   </g>
  </g>
 </g>
 <defs>
  <clipPath id="p3dd4656e31">
   <rect height="388.08" width="390.6" x="63" y="60.48"/>
  </clipPath>
 </defs>
</svg>
