<?xml version="1.0" encoding="utf-8" standalone="no"?>
<!DOCTYPE svg PUBLIC "-//W3C//DTD SVG 1.1//EN"
  "http://www.w3.org/Graphics/SVG/1.1/DTD/svg11.dtd">
<!-- Created with matplotlib (https://matplotlib.org/) -->
<svg height="504pt" version="1.1" viewBox="0 0 504 504" width="504pt" xmlns="http://www.w3.org/2000/svg" xmlns:xlink="http://www.w3.org/1999/xlink">
 <defs>
  <style type="text/css">
*{stroke-linecap:butt;stroke-linejoin:round;}
  </style>
 </defs>
 <g id="figure_1">
  <g id="patch_1">
   <path d="M 0 504 
L 504 504 
L 504 0 
L 0 0 
z
" style="fill:#ffffff;"/>
  </g>
  <g id="axes_1">
   <g id="patch_2">
    <path d="M 63 448.56 
L 453.6 448.56 
L 453.6 60.48 
L 63 60.48 
z
" style="fill:#ffffff;"/>
   </g>
   <g id="patch_3">
    <path clip-path="url(#pa4033d0851)" d="M 80.754545 101059.462821 
L 87.856364 101059.462821 
L 87.856364 430.92 
L 80.754545 430.92 
z
" style="fill:#c17a70;opacity:0.4;"/>
   </g>
   <g id="patch_4">
    <path clip-path="url(#pa4033d0851)" d="M 87.856364 101059.462821 
L 94.958182 101059.462821 
L 94.958182 101059.462821 
L 87.856364 101059.462821 
z
" style="fill:#c17a70;opacity:0.4;"/>
   </g>
   <g id="patch_5">
    <path clip-path="url(#pa4033d0851)" d="M 94.958182 101059.462821 
L 102.06 101059.462821 
L 102.06 101059.462821 
L 94.958182 101059.462821 
z
" style="fill:#c17a70;opacity:0.4;"/>
   </g>
   <g id="patch_6">
    <path clip-path="url(#pa4033d0851)" d="M 102.06 101059.462821 
L 109.161818 101059.462821 
L 109.161818 101059.462821 
L 102.06 101059.462821 
z
" style="fill:#c17a70;opacity:0.4;"/>
   </g>
   <g id="patch_7">
    <path clip-path="url(#pa4033d0851)" d="M 109.161818 101059.462821 
L 116.263636 101059.462821 
L 116.263636 101059.462821 
L 109.161818 101059.462821 
z
" style="fill:#c17a70;opacity:0.4;"/>
   </g>
   <g id="patch_8">
    <path clip-path="url(#pa4033d0851)" d="M 116.263636 101059.462821 
L 123.365455 101059.462821 
L 123.365455 101059.462821 
L 116.263636 101059.462821 
z
" style="fill:#c17a70;opacity:0.4;"/>
   </g>
   <g id="patch_9">
    <path clip-path="url(#pa4033d0851)" d="M 123.365455 101059.462821 
L 130.467273 101059.462821 
L 130.467273 101059.462821 
L 123.365455 101059.462821 
z
" style="fill:#c17a70;opacity:0.4;"/>
   </g>
   <g id="patch_10">
    <path clip-path="url(#pa4033d0851)" d="M 130.467273 101059.462821 
L 137.569091 101059.462821 
L 137.569091 101059.462821 
L 130.467273 101059.462821 
z
" style="fill:#c17a70;opacity:0.4;"/>
   </g>
   <g id="patch_11">
    <path clip-path="url(#pa4033d0851)" d="M 137.569091 101059.462821 
L 144.670909 101059.462821 
L 144.670909 101059.462821 
L 137.569091 101059.462821 
z
" style="fill:#c17a70;opacity:0.4;"/>
   </g>
   <g id="patch_12">
    <path clip-path="url(#pa4033d0851)" d="M 144.670909 101059.462821 
L 151.772727 101059.462821 
L 151.772727 101059.462821 
L 144.670909 101059.462821 
z
" style="fill:#c17a70;opacity:0.4;"/>
   </g>
   <g id="patch_13">
    <path clip-path="url(#pa4033d0851)" d="M 151.772727 101059.462821 
L 158.874545 101059.462821 
L 158.874545 430.92 
L 151.772727 430.92 
z
" style="fill:#c17a70;opacity:0.4;"/>
   </g>
   <g id="patch_14">
    <path clip-path="url(#pa4033d0851)" d="M 158.874545 101059.462821 
L 165.976364 101059.462821 
L 165.976364 101059.462821 
L 158.874545 101059.462821 
z
" style="fill:#c17a70;opacity:0.4;"/>
   </g>
   <g id="patch_15">
    <path clip-path="url(#pa4033d0851)" d="M 165.976364 101059.462821 
L 173.078182 101059.462821 
L 173.078182 101059.462821 
L 165.976364 101059.462821 
z
" style="fill:#c17a70;opacity:0.4;"/>
   </g>
   <g id="patch_16">
    <path clip-path="url(#pa4033d0851)" d="M 173.078182 101059.462821 
L 180.18 101059.462821 
L 180.18 101059.462821 
L 173.078182 101059.462821 
z
" style="fill:#c17a70;opacity:0.4;"/>
   </g>
   <g id="patch_17">
    <path clip-path="url(#pa4033d0851)" d="M 180.18 101059.462821 
L 187.281818 101059.462821 
L 187.281818 101059.462821 
L 180.18 101059.462821 
z
" style="fill:#c17a70;opacity:0.4;"/>
   </g>
   <g id="patch_18">
    <path clip-path="url(#pa4033d0851)" d="M 187.281818 101059.462821 
L 194.383636 101059.462821 
L 194.383636 101059.462821 
L 187.281818 101059.462821 
z
" style="fill:#c17a70;opacity:0.4;"/>
   </g>
   <g id="patch_19">
    <path clip-path="url(#pa4033d0851)" d="M 194.383636 101059.462821 
L 201.485455 101059.462821 
L 201.485455 101059.462821 
L 194.383636 101059.462821 
z
" style="fill:#c17a70;opacity:0.4;"/>
   </g>
   <g id="patch_20">
    <path clip-path="url(#pa4033d0851)" d="M 201.485455 101059.462821 
L 208.587273 101059.462821 
L 208.587273 101059.462821 
L 201.485455 101059.462821 
z
" style="fill:#c17a70;opacity:0.4;"/>
   </g>
   <g id="patch_21">
    <path clip-path="url(#pa4033d0851)" d="M 208.587273 101059.462821 
L 215.689091 101059.462821 
L 215.689091 101059.462821 
L 208.587273 101059.462821 
z
" style="fill:#c17a70;opacity:0.4;"/>
   </g>
   <g id="patch_22">
    <path clip-path="url(#pa4033d0851)" d="M 215.689091 101059.462821 
L 222.790909 101059.462821 
L 222.790909 101059.462821 
L 215.689091 101059.462821 
z
" style="fill:#c17a70;opacity:0.4;"/>
   </g>
   <g id="patch_23">
    <path clip-path="url(#pa4033d0851)" d="M 222.790909 101059.462821 
L 229.892727 101059.462821 
L 229.892727 101059.462821 
L 222.790909 101059.462821 
z
" style="fill:#c17a70;opacity:0.4;"/>
   </g>
   <g id="patch_24">
    <path clip-path="url(#pa4033d0851)" d="M 229.892727 101059.462821 
L 236.994545 101059.462821 
L 236.994545 101059.462821 
L 229.892727 101059.462821 
z
" style="fill:#c17a70;opacity:0.4;"/>
   </g>
   <g id="patch_25">
    <path clip-path="url(#pa4033d0851)" d="M 236.994545 101059.462821 
L 244.096364 101059.462821 
L 244.096364 400.62779 
L 236.994545 400.62779 
z
" style="fill:#c17a70;opacity:0.4;"/>
   </g>
   <g id="patch_26">
    <path clip-path="url(#pa4033d0851)" d="M 244.096364 101059.462821 
L 251.198182 101059.462821 
L 251.198182 400.62779 
L 244.096364 400.62779 
z
" style="fill:#c17a70;opacity:0.4;"/>
   </g>
   <g id="patch_27">
    <path clip-path="url(#pa4033d0851)" d="M 251.198182 101059.462821 
L 258.3 101059.462821 
L 258.3 382.907983 
L 251.198182 382.907983 
z
" style="fill:#c17a70;opacity:0.4;"/>
   </g>
   <g id="patch_28">
    <path clip-path="url(#pa4033d0851)" d="M 258.3 101059.462821 
L 265.401818 101059.462821 
L 265.401818 101059.462821 
L 258.3 101059.462821 
z
" style="fill:#c17a70;opacity:0.4;"/>
   </g>
   <g id="patch_29">
    <path clip-path="url(#pa4033d0851)" d="M 265.401818 101059.462821 
L 272.503636 101059.462821 
L 272.503636 322.323564 
L 265.401818 322.323564 
z
" style="fill:#c17a70;opacity:0.4;"/>
   </g>
   <g id="patch_30">
    <path clip-path="url(#pa4033d0851)" d="M 272.503636 101059.462821 
L 279.605455 101059.462821 
L 279.605455 326.126172 
L 272.503636 326.126172 
z
" style="fill:#c17a70;opacity:0.4;"/>
   </g>
   <g id="patch_31">
    <path clip-path="url(#pa4033d0851)" d="M 279.605455 101059.462821 
L 286.707273 101059.462821 
L 286.707273 282.279441 
L 279.605455 282.279441 
z
" style="fill:#c17a70;opacity:0.4;"/>
   </g>
   <g id="patch_32">
    <path clip-path="url(#pa4033d0851)" d="M 286.707273 101059.462821 
L 293.809091 101059.462821 
L 293.809091 101059.462821 
L 286.707273 101059.462821 
z
" style="fill:#c17a70;opacity:0.4;"/>
   </g>
   <g id="patch_33">
    <path clip-path="url(#pa4033d0851)" d="M 293.809091 101059.462821 
L 300.910909 101059.462821 
L 300.910909 244.63057 
L 293.809091 244.63057 
z
" style="fill:#c17a70;opacity:0.4;"/>
   </g>
   <g id="patch_34">
    <path clip-path="url(#pa4033d0851)" d="M 300.910909 101059.462821 
L 308.012727 101059.462821 
L 308.012727 78.12 
L 300.910909 78.12 
z
" style="fill:#c17a70;opacity:0.4;"/>
   </g>
   <g id="patch_35">
    <path clip-path="url(#pa4033d0851)" d="M 308.012727 101059.462821 
L 315.114545 101059.462821 
L 315.114545 197.030843 
L 308.012727 197.030843 
z
" style="fill:#c17a70;opacity:0.4;"/>
   </g>
   <g id="patch_36">
    <path clip-path="url(#pa4033d0851)" d="M 315.114545 101059.462821 
L 322.216364 101059.462821 
L 322.216364 101059.462821 
L 315.114545 101059.462821 
z
" style="fill:#c17a70;opacity:0.4;"/>
   </g>
   <g id="patch_37">
    <path clip-path="url(#pa4033d0851)" d="M 322.216364 101059.462821 
L 329.318182 101059.462821 
L 329.318182 285.294596 
L 322.216364 285.294596 
z
" style="fill:#c17a70;opacity:0.4;"/>
   </g>
   <g id="patch_38">
    <path clip-path="url(#pa4033d0851)" d="M 329.318182 101059.462821 
L 336.42 101059.462821 
L 336.42 334.895967 
L 329.318182 334.895967 
z
" style="fill:#c17a70;opacity:0.4;"/>
   </g>
   <g id="patch_39">
    <path clip-path="url(#pa4033d0851)" d="M 336.42 101059.462821 
L 343.521818 101059.462821 
L 343.521818 360.583667 
L 336.42 360.583667 
z
" style="fill:#c17a70;opacity:0.4;"/>
   </g>
   <g id="patch_40">
    <path clip-path="url(#pa4033d0851)" d="M 343.521818 101059.462821 
L 350.623636 101059.462821 
L 350.623636 101059.462821 
L 343.521818 101059.462821 
z
" style="fill:#c17a70;opacity:0.4;"/>
   </g>
   <g id="patch_41">
    <path clip-path="url(#pa4033d0851)" d="M 350.623636 101059.462821 
L 357.725455 101059.462821 
L 357.725455 360.583667 
L 350.623636 360.583667 
z
" style="fill:#c17a70;opacity:0.4;"/>
   </g>
   <g id="patch_42">
    <path clip-path="url(#pa4033d0851)" d="M 357.725455 101059.462821 
L 364.827273 101059.462821 
L 364.827273 430.92 
L 357.725455 430.92 
z
" style="fill:#c17a70;opacity:0.4;"/>
   </g>
   <g id="patch_43">
    <path clip-path="url(#pa4033d0851)" d="M 364.827273 101059.462821 
L 371.929091 101059.462821 
L 371.929091 101059.462821 
L 364.827273 101059.462821 
z
" style="fill:#c17a70;opacity:0.4;"/>
   </g>
   <g id="patch_44">
    <path clip-path="url(#pa4033d0851)" d="M 371.929091 101059.462821 
L 379.030909 101059.462821 
L 379.030909 101059.462821 
L 371.929091 101059.462821 
z
" style="fill:#c17a70;opacity:0.4;"/>
   </g>
   <g id="patch_45">
    <path clip-path="url(#pa4033d0851)" d="M 379.030909 101059.462821 
L 386.132727 101059.462821 
L 386.132727 101059.462821 
L 379.030909 101059.462821 
z
" style="fill:#c17a70;opacity:0.4;"/>
   </g>
   <g id="patch_46">
    <path clip-path="url(#pa4033d0851)" d="M 386.132727 101059.462821 
L 393.234545 101059.462821 
L 393.234545 101059.462821 
L 386.132727 101059.462821 
z
" style="fill:#c17a70;opacity:0.4;"/>
   </g>
   <g id="patch_47">
    <path clip-path="url(#pa4033d0851)" d="M 393.234545 101059.462821 
L 400.336364 101059.462821 
L 400.336364 101059.462821 
L 393.234545 101059.462821 
z
" style="fill:#c17a70;opacity:0.4;"/>
   </g>
   <g id="patch_48">
    <path clip-path="url(#pa4033d0851)" d="M 400.336364 101059.462821 
L 407.438182 101059.462821 
L 407.438182 101059.462821 
L 400.336364 101059.462821 
z
" style="fill:#c17a70;opacity:0.4;"/>
   </g>
   <g id="patch_49">
    <path clip-path="url(#pa4033d0851)" d="M 407.438182 101059.462821 
L 414.54 101059.462821 
L 414.54 101059.462821 
L 407.438182 101059.462821 
z
" style="fill:#c17a70;opacity:0.4;"/>
   </g>
   <g id="patch_50">
    <path clip-path="url(#pa4033d0851)" d="M 414.54 101059.462821 
L 421.641818 101059.462821 
L 421.641818 101059.462821 
L 414.54 101059.462821 
z
" style="fill:#c17a70;opacity:0.4;"/>
   </g>
   <g id="patch_51">
    <path clip-path="url(#pa4033d0851)" d="M 421.641818 101059.462821 
L 428.743636 101059.462821 
L 428.743636 101059.462821 
L 421.641818 101059.462821 
z
" style="fill:#c17a70;opacity:0.4;"/>
   </g>
   <g id="patch_52">
    <path clip-path="url(#pa4033d0851)" d="M 428.743636 101059.462821 
L 435.845455 101059.462821 
L 435.845455 430.92 
L 428.743636 430.92 
z
" style="fill:#c17a70;opacity:0.4;"/>
   </g>
   <g id="matplotlib.axis_1">
    <g id="xtick_1">
     <g id="line2d_1">
      <defs>
       <path d="M 0 0 
L 0 3.5 
" id="mfbfdb7acf5" style="stroke:#000000;stroke-width:0.8;"/>
      </defs>
      <g>
       <use style="stroke:#000000;stroke-width:0.8;" x="71.410048" xlink:href="#mfbfdb7acf5" y="448.56"/>
      </g>
     </g>
     <g id="text_1">
      <!-- −0.25 -->
      <defs>
       <path d="M 10.59375 35.5 
L 73.1875 35.5 
L 73.1875 27.203125 
L 10.59375 27.203125 
z
" id="DejaVuSans-8722"/>
       <path d="M 31.78125 66.40625 
Q 24.171875 66.40625 20.328125 58.90625 
Q 16.5 51.421875 16.5 36.375 
Q 16.5 21.390625 20.328125 13.890625 
Q 24.171875 6.390625 31.78125 6.390625 
Q 39.453125 6.390625 43.28125 13.890625 
Q 47.125 21.390625 47.125 36.375 
Q 47.125 51.421875 43.28125 58.90625 
Q 39.453125 66.40625 31.78125 66.40625 
z
M 31.78125 74.21875 
Q 44.046875 74.21875 50.515625 64.515625 
Q 56.984375 54.828125 56.984375 36.375 
Q 56.984375 17.96875 50.515625 8.265625 
Q 44.046875 -1.421875 31.78125 -1.421875 
Q 19.53125 -1.421875 13.0625 8.265625 
Q 6.59375 17.96875 6.59375 36.375 
Q 6.59375 54.828125 13.0625 64.515625 
Q 19.53125 74.21875 31.78125 74.21875 
z
" id="DejaVuSans-48"/>
       <path d="M 10.6875 12.40625 
L 21 12.40625 
L 21 0 
L 10.6875 0 
z
" id="DejaVuSans-46"/>
       <path d="M 19.1875 8.296875 
L 53.609375 8.296875 
L 53.609375 0 
L 7.328125 0 
L 7.328125 8.296875 
Q 12.9375 14.109375 22.625 23.890625 
Q 32.328125 33.6875 34.8125 36.53125 
Q 39.546875 41.84375 41.421875 45.53125 
Q 43.3125 49.21875 43.3125 52.78125 
Q 43.3125 58.59375 39.234375 62.25 
Q 35.15625 65.921875 28.609375 65.921875 
Q 23.96875 65.921875 18.8125 64.3125 
Q 13.671875 62.703125 7.8125 59.421875 
L 7.8125 69.390625 
Q 13.765625 71.78125 18.9375 73 
Q 24.125 74.21875 28.421875 74.21875 
Q 39.75 74.21875 46.484375 68.546875 
Q 53.21875 62.890625 53.21875 53.421875 
Q 53.21875 48.921875 51.53125 44.890625 
Q 49.859375 40.875 45.40625 35.40625 
Q 44.1875 33.984375 37.640625 27.21875 
Q 31.109375 20.453125 19.1875 8.296875 
z
" id="DejaVuSans-50"/>
       <path d="M 10.796875 72.90625 
L 49.515625 72.90625 
L 49.515625 64.59375 
L 19.828125 64.59375 
L 19.828125 46.734375 
Q 21.96875 47.46875 24.109375 47.828125 
Q 26.265625 48.1875 28.421875 48.1875 
Q 40.625 48.1875 47.75 41.5 
Q 54.890625 34.8125 54.890625 23.390625 
Q 54.890625 11.625 47.5625 5.09375 
Q 40.234375 -1.421875 26.90625 -1.421875 
Q 22.3125 -1.421875 17.546875 -0.640625 
Q 12.796875 0.140625 7.71875 1.703125 
L 7.71875 11.625 
Q 12.109375 9.234375 16.796875 8.0625 
Q 21.484375 6.890625 26.703125 6.890625 
Q 35.15625 6.890625 40.078125 11.328125 
Q 45.015625 15.765625 45.015625 23.390625 
Q 45.015625 31 40.078125 35.4375 
Q 35.15625 39.890625 26.703125 39.890625 
Q 22.75 39.890625 18.8125 39.015625 
Q 14.890625 38.140625 10.796875 36.28125 
z
" id="DejaVuSans-53"/>
      </defs>
      <g transform="translate(56.087392 463.158437)scale(0.1 -0.1)">
       <use xlink:href="#DejaVuSans-8722"/>
       <use x="83.789062" xlink:href="#DejaVuSans-48"/>
       <use x="147.412109" xlink:href="#DejaVuSans-46"/>
       <use x="179.199219" xlink:href="#DejaVuSans-50"/>
       <use x="242.822266" xlink:href="#DejaVuSans-53"/>
      </g>
     </g>
    </g>
    <g id="xtick_2">
     <g id="line2d_2">
      <g>
       <use style="stroke:#000000;stroke-width:0.8;" x="118.132536" xlink:href="#mfbfdb7acf5" y="448.56"/>
      </g>
     </g>
     <g id="text_2">
      <!-- −0.20 -->
      <g transform="translate(102.80988 463.158437)scale(0.1 -0.1)">
       <use xlink:href="#DejaVuSans-8722"/>
       <use x="83.789062" xlink:href="#DejaVuSans-48"/>
       <use x="147.412109" xlink:href="#DejaVuSans-46"/>
       <use x="179.199219" xlink:href="#DejaVuSans-50"/>
       <use x="242.822266" xlink:href="#DejaVuSans-48"/>
      </g>
     </g>
    </g>
    <g id="xtick_3">
     <g id="line2d_3">
      <g>
       <use style="stroke:#000000;stroke-width:0.8;" x="164.855024" xlink:href="#mfbfdb7acf5" y="448.56"/>
      </g>
     </g>
     <g id="text_3">
      <!-- −0.15 -->
      <defs>
       <path d="M 12.40625 8.296875 
L 28.515625 8.296875 
L 28.515625 63.921875 
L 10.984375 60.40625 
L 10.984375 69.390625 
L 28.421875 72.90625 
L 38.28125 72.90625 
L 38.28125 8.296875 
L 54.390625 8.296875 
L 54.390625 0 
L 12.40625 0 
z
" id="DejaVuSans-49"/>
      </defs>
      <g transform="translate(149.532368 463.158437)scale(0.1 -0.1)">
       <use xlink:href="#DejaVuSans-8722"/>
       <use x="83.789062" xlink:href="#DejaVuSans-48"/>
       <use x="147.412109" xlink:href="#DejaVuSans-46"/>
       <use x="179.199219" xlink:href="#DejaVuSans-49"/>
       <use x="242.822266" xlink:href="#DejaVuSans-53"/>
      </g>
     </g>
    </g>
    <g id="xtick_4">
     <g id="line2d_4">
      <g>
       <use style="stroke:#000000;stroke-width:0.8;" x="211.577512" xlink:href="#mfbfdb7acf5" y="448.56"/>
      </g>
     </g>
     <g id="text_4">
      <!-- −0.10 -->
      <g transform="translate(196.254856 463.158437)scale(0.1 -0.1)">
       <use xlink:href="#DejaVuSans-8722"/>
       <use x="83.789062" xlink:href="#DejaVuSans-48"/>
       <use x="147.412109" xlink:href="#DejaVuSans-46"/>
       <use x="179.199219" xlink:href="#DejaVuSans-49"/>
       <use x="242.822266" xlink:href="#DejaVuSans-48"/>
      </g>
     </g>
    </g>
    <g id="xtick_5">
     <g id="line2d_5">
      <g>
       <use style="stroke:#000000;stroke-width:0.8;" x="258.3" xlink:href="#mfbfdb7acf5" y="448.56"/>
      </g>
     </g>
     <g id="text_5">
      <!-- −0.05 -->
      <g transform="translate(242.977344 463.158437)scale(0.1 -0.1)">
       <use xlink:href="#DejaVuSans-8722"/>
       <use x="83.789062" xlink:href="#DejaVuSans-48"/>
       <use x="147.412109" xlink:href="#DejaVuSans-46"/>
       <use x="179.199219" xlink:href="#DejaVuSans-48"/>
       <use x="242.822266" xlink:href="#DejaVuSans-53"/>
      </g>
     </g>
    </g>
    <g id="xtick_6">
     <g id="line2d_6">
      <g>
       <use style="stroke:#000000;stroke-width:0.8;" x="305.022488" xlink:href="#mfbfdb7acf5" y="448.56"/>
      </g>
     </g>
     <g id="text_6">
      <!-- 0.00 -->
      <g transform="translate(293.889676 463.158437)scale(0.1 -0.1)">
       <use xlink:href="#DejaVuSans-48"/>
       <use x="63.623047" xlink:href="#DejaVuSans-46"/>
       <use x="95.410156" xlink:href="#DejaVuSans-48"/>
       <use x="159.033203" xlink:href="#DejaVuSans-48"/>
      </g>
     </g>
    </g>
    <g id="xtick_7">
     <g id="line2d_7">
      <g>
       <use style="stroke:#000000;stroke-width:0.8;" x="351.744976" xlink:href="#mfbfdb7acf5" y="448.56"/>
      </g>
     </g>
     <g id="text_7">
      <!-- 0.05 -->
      <g transform="translate(340.612164 463.158437)scale(0.1 -0.1)">
       <use xlink:href="#DejaVuSans-48"/>
       <use x="63.623047" xlink:href="#DejaVuSans-46"/>
       <use x="95.410156" xlink:href="#DejaVuSans-48"/>
       <use x="159.033203" xlink:href="#DejaVuSans-53"/>
      </g>
     </g>
    </g>
    <g id="xtick_8">
     <g id="line2d_8">
      <g>
       <use style="stroke:#000000;stroke-width:0.8;" x="398.467464" xlink:href="#mfbfdb7acf5" y="448.56"/>
      </g>
     </g>
     <g id="text_8">
      <!-- 0.10 -->
      <g transform="translate(387.334652 463.158437)scale(0.1 -0.1)">
       <use xlink:href="#DejaVuSans-48"/>
       <use x="63.623047" xlink:href="#DejaVuSans-46"/>
       <use x="95.410156" xlink:href="#DejaVuSans-49"/>
       <use x="159.033203" xlink:href="#DejaVuSans-48"/>
      </g>
     </g>
    </g>
    <g id="xtick_9">
     <g id="line2d_9">
      <g>
       <use style="stroke:#000000;stroke-width:0.8;" x="445.189952" xlink:href="#mfbfdb7acf5" y="448.56"/>
      </g>
     </g>
     <g id="text_9">
      <!-- 0.15 -->
      <g transform="translate(434.05714 463.158437)scale(0.1 -0.1)">
       <use xlink:href="#DejaVuSans-48"/>
       <use x="63.623047" xlink:href="#DejaVuSans-46"/>
       <use x="95.410156" xlink:href="#DejaVuSans-49"/>
       <use x="159.033203" xlink:href="#DejaVuSans-53"/>
      </g>
     </g>
    </g>
   </g>
   <g id="matplotlib.axis_2">
    <g id="ytick_1">
     <g id="line2d_10">
      <defs>
       <path d="M 0 0 
L -3.5 0 
" id="m489a739be5" style="stroke:#000000;stroke-width:0.8;"/>
      </defs>
      <g>
       <use style="stroke:#000000;stroke-width:0.8;" x="63" xlink:href="#m489a739be5" y="430.92"/>
      </g>
     </g>
     <g id="text_10">
      <!-- $\mathdefault{10^{0}}$ -->
      <g transform="translate(38.4 434.719219)scale(0.1 -0.1)">
       <use transform="translate(0 0.765625)" xlink:href="#DejaVuSans-49"/>
       <use transform="translate(63.623047 0.765625)" xlink:href="#DejaVuSans-48"/>
       <use transform="translate(128.203125 39.046875)scale(0.7)" xlink:href="#DejaVuSans-48"/>
      </g>
     </g>
    </g>
    <g id="ytick_2">
     <g id="line2d_11">
      <g>
       <use style="stroke:#000000;stroke-width:0.8;" x="63" xlink:href="#m489a739be5" y="330.291457"/>
      </g>
     </g>
     <g id="text_11">
      <!-- $\mathdefault{10^{1}}$ -->
      <g transform="translate(38.4 334.090676)scale(0.1 -0.1)">
       <use transform="translate(0 0.684375)" xlink:href="#DejaVuSans-49"/>
       <use transform="translate(63.623047 0.684375)" xlink:href="#DejaVuSans-48"/>
       <use transform="translate(128.203125 38.965625)scale(0.7)" xlink:href="#DejaVuSans-49"/>
      </g>
     </g>
    </g>
    <g id="ytick_3">
     <g id="line2d_12">
      <g>
       <use style="stroke:#000000;stroke-width:0.8;" x="63" xlink:href="#m489a739be5" y="229.662914"/>
      </g>
     </g>
     <g id="text_12">
      <!-- $\mathdefault{10^{2}}$ -->
      <g transform="translate(38.4 233.462133)scale(0.1 -0.1)">
       <use transform="translate(0 0.765625)" xlink:href="#DejaVuSans-49"/>
       <use transform="translate(63.623047 0.765625)" xlink:href="#DejaVuSans-48"/>
       <use transform="translate(128.203125 39.046875)scale(0.7)" xlink:href="#DejaVuSans-50"/>
      </g>
     </g>
    </g>
    <g id="ytick_4">
     <g id="line2d_13">
      <g>
       <use style="stroke:#000000;stroke-width:0.8;" x="63" xlink:href="#m489a739be5" y="129.034372"/>
      </g>
     </g>
     <g id="text_13">
      <!-- $\mathdefault{10^{3}}$ -->
      <defs>
       <path d="M 40.578125 39.3125 
Q 47.65625 37.796875 51.625 33 
Q 55.609375 28.21875 55.609375 21.1875 
Q 55.609375 10.40625 48.1875 4.484375 
Q 40.765625 -1.421875 27.09375 -1.421875 
Q 22.515625 -1.421875 17.65625 -0.515625 
Q 12.796875 0.390625 7.625 2.203125 
L 7.625 11.71875 
Q 11.71875 9.328125 16.59375 8.109375 
Q 21.484375 6.890625 26.8125 6.890625 
Q 36.078125 6.890625 40.9375 10.546875 
Q 45.796875 14.203125 45.796875 21.1875 
Q 45.796875 27.640625 41.28125 31.265625 
Q 36.765625 34.90625 28.71875 34.90625 
L 20.21875 34.90625 
L 20.21875 43.015625 
L 29.109375 43.015625 
Q 36.375 43.015625 40.234375 45.921875 
Q 44.09375 48.828125 44.09375 54.296875 
Q 44.09375 59.90625 40.109375 62.90625 
Q 36.140625 65.921875 28.71875 65.921875 
Q 24.65625 65.921875 20.015625 65.03125 
Q 15.375 64.15625 9.8125 62.3125 
L 9.8125 71.09375 
Q 15.4375 72.65625 20.34375 73.4375 
Q 25.25 74.21875 29.59375 74.21875 
Q 40.828125 74.21875 47.359375 69.109375 
Q 53.90625 64.015625 53.90625 55.328125 
Q 53.90625 49.265625 50.4375 45.09375 
Q 46.96875 40.921875 40.578125 39.3125 
z
" id="DejaVuSans-51"/>
      </defs>
      <g transform="translate(38.4 132.83359)scale(0.1 -0.1)">
       <use transform="translate(0 0.765625)" xlink:href="#DejaVuSans-49"/>
       <use transform="translate(63.623047 0.765625)" xlink:href="#DejaVuSans-48"/>
       <use transform="translate(128.203125 39.046875)scale(0.7)" xlink:href="#DejaVuSans-51"/>
      </g>
     </g>
    </g>
    <g id="ytick_5">
     <g id="line2d_14">
      <defs>
       <path d="M 0 0 
L -2 0 
" id="mcb53474c24" style="stroke:#000000;stroke-width:0.6;"/>
      </defs>
      <g>
       <use style="stroke:#000000;stroke-width:0.6;" x="63" xlink:href="#mcb53474c24" y="446.507559"/>
      </g>
     </g>
    </g>
    <g id="ytick_6">
     <g id="line2d_15">
      <g>
       <use style="stroke:#000000;stroke-width:0.6;" x="63" xlink:href="#mcb53474c24" y="440.671913"/>
      </g>
     </g>
    </g>
    <g id="ytick_7">
     <g id="line2d_16">
      <g>
       <use style="stroke:#000000;stroke-width:0.6;" x="63" xlink:href="#mcb53474c24" y="435.52451"/>
      </g>
     </g>
    </g>
    <g id="ytick_8">
     <g id="line2d_17">
      <g>
       <use style="stroke:#000000;stroke-width:0.6;" x="63" xlink:href="#mcb53474c24" y="400.62779"/>
      </g>
     </g>
    </g>
    <g id="ytick_9">
     <g id="line2d_18">
      <g>
       <use style="stroke:#000000;stroke-width:0.6;" x="63" xlink:href="#mcb53474c24" y="382.907983"/>
      </g>
     </g>
    </g>
    <g id="ytick_10">
     <g id="line2d_19">
      <g>
       <use style="stroke:#000000;stroke-width:0.6;" x="63" xlink:href="#mcb53474c24" y="370.33558"/>
      </g>
     </g>
    </g>
    <g id="ytick_11">
     <g id="line2d_20">
      <g>
       <use style="stroke:#000000;stroke-width:0.6;" x="63" xlink:href="#mcb53474c24" y="360.583667"/>
      </g>
     </g>
    </g>
    <g id="ytick_12">
     <g id="line2d_21">
      <g>
       <use style="stroke:#000000;stroke-width:0.6;" x="63" xlink:href="#mcb53474c24" y="352.615774"/>
      </g>
     </g>
    </g>
    <g id="ytick_13">
     <g id="line2d_22">
      <g>
       <use style="stroke:#000000;stroke-width:0.6;" x="63" xlink:href="#mcb53474c24" y="345.879016"/>
      </g>
     </g>
    </g>
    <g id="ytick_14">
     <g id="line2d_23">
      <g>
       <use style="stroke:#000000;stroke-width:0.6;" x="63" xlink:href="#mcb53474c24" y="340.043371"/>
      </g>
     </g>
    </g>
    <g id="ytick_15">
     <g id="line2d_24">
      <g>
       <use style="stroke:#000000;stroke-width:0.6;" x="63" xlink:href="#mcb53474c24" y="334.895967"/>
      </g>
     </g>
    </g>
    <g id="ytick_16">
     <g id="line2d_25">
      <g>
       <use style="stroke:#000000;stroke-width:0.6;" x="63" xlink:href="#mcb53474c24" y="299.999247"/>
      </g>
     </g>
    </g>
    <g id="ytick_17">
     <g id="line2d_26">
      <g>
       <use style="stroke:#000000;stroke-width:0.6;" x="63" xlink:href="#mcb53474c24" y="282.279441"/>
      </g>
     </g>
    </g>
    <g id="ytick_18">
     <g id="line2d_27">
      <g>
       <use style="stroke:#000000;stroke-width:0.6;" x="63" xlink:href="#mcb53474c24" y="269.707038"/>
      </g>
     </g>
    </g>
    <g id="ytick_19">
     <g id="line2d_28">
      <g>
       <use style="stroke:#000000;stroke-width:0.6;" x="63" xlink:href="#mcb53474c24" y="259.955124"/>
      </g>
     </g>
    </g>
    <g id="ytick_20">
     <g id="line2d_29">
      <g>
       <use style="stroke:#000000;stroke-width:0.6;" x="63" xlink:href="#mcb53474c24" y="251.987231"/>
      </g>
     </g>
    </g>
    <g id="ytick_21">
     <g id="line2d_30">
      <g>
       <use style="stroke:#000000;stroke-width:0.6;" x="63" xlink:href="#mcb53474c24" y="245.250473"/>
      </g>
     </g>
    </g>
    <g id="ytick_22">
     <g id="line2d_31">
      <g>
       <use style="stroke:#000000;stroke-width:0.6;" x="63" xlink:href="#mcb53474c24" y="239.414828"/>
      </g>
     </g>
    </g>
    <g id="ytick_23">
     <g id="line2d_32">
      <g>
       <use style="stroke:#000000;stroke-width:0.6;" x="63" xlink:href="#mcb53474c24" y="234.267424"/>
      </g>
     </g>
    </g>
    <g id="ytick_24">
     <g id="line2d_33">
      <g>
       <use style="stroke:#000000;stroke-width:0.6;" x="63" xlink:href="#mcb53474c24" y="199.370705"/>
      </g>
     </g>
    </g>
    <g id="ytick_25">
     <g id="line2d_34">
      <g>
       <use style="stroke:#000000;stroke-width:0.6;" x="63" xlink:href="#mcb53474c24" y="181.650898"/>
      </g>
     </g>
    </g>
    <g id="ytick_26">
     <g id="line2d_35">
      <g>
       <use style="stroke:#000000;stroke-width:0.6;" x="63" xlink:href="#mcb53474c24" y="169.078495"/>
      </g>
     </g>
    </g>
    <g id="ytick_27">
     <g id="line2d_36">
      <g>
       <use style="stroke:#000000;stroke-width:0.6;" x="63" xlink:href="#mcb53474c24" y="159.326581"/>
      </g>
     </g>
    </g>
    <g id="ytick_28">
     <g id="line2d_37">
      <g>
       <use style="stroke:#000000;stroke-width:0.6;" x="63" xlink:href="#mcb53474c24" y="151.358688"/>
      </g>
     </g>
    </g>
    <g id="ytick_29">
     <g id="line2d_38">
      <g>
       <use style="stroke:#000000;stroke-width:0.6;" x="63" xlink:href="#mcb53474c24" y="144.62193"/>
      </g>
     </g>
    </g>
    <g id="ytick_30">
     <g id="line2d_39">
      <g>
       <use style="stroke:#000000;stroke-width:0.6;" x="63" xlink:href="#mcb53474c24" y="138.786285"/>
      </g>
     </g>
    </g>
    <g id="ytick_31">
     <g id="line2d_40">
      <g>
       <use style="stroke:#000000;stroke-width:0.6;" x="63" xlink:href="#mcb53474c24" y="133.638881"/>
      </g>
     </g>
    </g>
    <g id="ytick_32">
     <g id="line2d_41">
      <g>
       <use style="stroke:#000000;stroke-width:0.6;" x="63" xlink:href="#mcb53474c24" y="98.742162"/>
      </g>
     </g>
    </g>
    <g id="ytick_33">
     <g id="line2d_42">
      <g>
       <use style="stroke:#000000;stroke-width:0.6;" x="63" xlink:href="#mcb53474c24" y="81.022355"/>
      </g>
     </g>
    </g>
    <g id="ytick_34">
     <g id="line2d_43">
      <g>
       <use style="stroke:#000000;stroke-width:0.6;" x="63" xlink:href="#mcb53474c24" y="68.449952"/>
      </g>
     </g>
    </g>
   </g>
   <g id="patch_53">
    <path d="M 63 448.56 
L 63 60.48 
" style="fill:none;stroke:#000000;stroke-linecap:square;stroke-linejoin:miter;stroke-width:0.8;"/>
   </g>
   <g id="patch_54">
    <path d="M 453.6 448.56 
L 453.6 60.48 
" style="fill:none;stroke:#000000;stroke-linecap:square;stroke-linejoin:miter;stroke-width:0.8;"/>
   </g>
   <g id="patch_55">
    <path d="M 63 448.56 
L 453.6 448.56 
" style="fill:none;stroke:#000000;stroke-linecap:square;stroke-linejoin:miter;stroke-width:0.8;"/>
   </g>
   <g id="patch_56">
    <path d="M 63 60.48 
L 453.6 60.48 
" style="fill:none;stroke:#000000;stroke-linecap:square;stroke-linejoin:miter;stroke-width:0.8;"/>
   </g>
   <g id="text_14">
    <!-- Best Bid Delta Distribution -->
    <defs>
     <path d="M 19.671875 34.8125 
L 19.671875 8.109375 
L 35.5 8.109375 
Q 43.453125 8.109375 47.28125 11.40625 
Q 51.125 14.703125 51.125 21.484375 
Q 51.125 28.328125 47.28125 31.5625 
Q 43.453125 34.8125 35.5 34.8125 
z
M 19.671875 64.796875 
L 19.671875 42.828125 
L 34.28125 42.828125 
Q 41.5 42.828125 45.03125 45.53125 
Q 48.578125 48.25 48.578125 53.8125 
Q 48.578125 59.328125 45.03125 62.0625 
Q 41.5 64.796875 34.28125 64.796875 
z
M 9.8125 72.90625 
L 35.015625 72.90625 
Q 46.296875 72.90625 52.390625 68.21875 
Q 58.5 63.53125 58.5 54.890625 
Q 58.5 48.1875 55.375 44.234375 
Q 52.25 40.28125 46.1875 39.3125 
Q 53.46875 37.75 57.5 32.78125 
Q 61.53125 27.828125 61.53125 20.40625 
Q 61.53125 10.640625 54.890625 5.3125 
Q 48.25 0 35.984375 0 
L 9.8125 0 
z
" id="DejaVuSans-66"/>
     <path d="M 56.203125 29.59375 
L 56.203125 25.203125 
L 14.890625 25.203125 
Q 15.484375 15.921875 20.484375 11.0625 
Q 25.484375 6.203125 34.421875 6.203125 
Q 39.59375 6.203125 44.453125 7.46875 
Q 49.3125 8.734375 54.109375 11.28125 
L 54.109375 2.78125 
Q 49.265625 0.734375 44.1875 -0.34375 
Q 39.109375 -1.421875 33.890625 -1.421875 
Q 20.796875 -1.421875 13.15625 6.1875 
Q 5.515625 13.8125 5.515625 26.8125 
Q 5.515625 40.234375 12.765625 48.109375 
Q 20.015625 56 32.328125 56 
Q 43.359375 56 49.78125 48.890625 
Q 56.203125 41.796875 56.203125 29.59375 
z
M 47.21875 32.234375 
Q 47.125 39.59375 43.09375 43.984375 
Q 39.0625 48.390625 32.421875 48.390625 
Q 24.90625 48.390625 20.390625 44.140625 
Q 15.875 39.890625 15.1875 32.171875 
z
" id="DejaVuSans-101"/>
     <path d="M 44.28125 53.078125 
L 44.28125 44.578125 
Q 40.484375 46.53125 36.375 47.5 
Q 32.28125 48.484375 27.875 48.484375 
Q 21.1875 48.484375 17.84375 46.4375 
Q 14.5 44.390625 14.5 40.28125 
Q 14.5 37.15625 16.890625 35.375 
Q 19.28125 33.59375 26.515625 31.984375 
L 29.59375 31.296875 
Q 39.15625 29.25 43.1875 25.515625 
Q 47.21875 21.78125 47.21875 15.09375 
Q 47.21875 7.46875 41.1875 3.015625 
Q 35.15625 -1.421875 24.609375 -1.421875 
Q 20.21875 -1.421875 15.453125 -0.5625 
Q 10.6875 0.296875 5.421875 2 
L 5.421875 11.28125 
Q 10.40625 8.6875 15.234375 7.390625 
Q 20.0625 6.109375 24.8125 6.109375 
Q 31.15625 6.109375 34.5625 8.28125 
Q 37.984375 10.453125 37.984375 14.40625 
Q 37.984375 18.0625 35.515625 20.015625 
Q 33.0625 21.96875 24.703125 23.78125 
L 21.578125 24.515625 
Q 13.234375 26.265625 9.515625 29.90625 
Q 5.8125 33.546875 5.8125 39.890625 
Q 5.8125 47.609375 11.28125 51.796875 
Q 16.75 56 26.8125 56 
Q 31.78125 56 36.171875 55.265625 
Q 40.578125 54.546875 44.28125 53.078125 
z
" id="DejaVuSans-115"/>
     <path d="M 18.3125 70.21875 
L 18.3125 54.6875 
L 36.8125 54.6875 
L 36.8125 47.703125 
L 18.3125 47.703125 
L 18.3125 18.015625 
Q 18.3125 11.328125 20.140625 9.421875 
Q 21.96875 7.515625 27.59375 7.515625 
L 36.8125 7.515625 
L 36.8125 0 
L 27.59375 0 
Q 17.1875 0 13.234375 3.875 
Q 9.28125 7.765625 9.28125 18.015625 
L 9.28125 47.703125 
L 2.6875 47.703125 
L 2.6875 54.6875 
L 9.28125 54.6875 
L 9.28125 70.21875 
z
" id="DejaVuSans-116"/>
     <path id="DejaVuSans-32"/>
     <path d="M 9.421875 54.6875 
L 18.40625 54.6875 
L 18.40625 0 
L 9.421875 0 
z
M 9.421875 75.984375 
L 18.40625 75.984375 
L 18.40625 64.59375 
L 9.421875 64.59375 
z
" id="DejaVuSans-105"/>
     <path d="M 45.40625 46.390625 
L 45.40625 75.984375 
L 54.390625 75.984375 
L 54.390625 0 
L 45.40625 0 
L 45.40625 8.203125 
Q 42.578125 3.328125 38.25 0.953125 
Q 33.9375 -1.421875 27.875 -1.421875 
Q 17.96875 -1.421875 11.734375 6.484375 
Q 5.515625 14.40625 5.515625 27.296875 
Q 5.515625 40.1875 11.734375 48.09375 
Q 17.96875 56 27.875 56 
Q 33.9375 56 38.25 53.625 
Q 42.578125 51.265625 45.40625 46.390625 
z
M 14.796875 27.296875 
Q 14.796875 17.390625 18.875 11.75 
Q 22.953125 6.109375 30.078125 6.109375 
Q 37.203125 6.109375 41.296875 11.75 
Q 45.40625 17.390625 45.40625 27.296875 
Q 45.40625 37.203125 41.296875 42.84375 
Q 37.203125 48.484375 30.078125 48.484375 
Q 22.953125 48.484375 18.875 42.84375 
Q 14.796875 37.203125 14.796875 27.296875 
z
" id="DejaVuSans-100"/>
     <path d="M 19.671875 64.796875 
L 19.671875 8.109375 
L 31.59375 8.109375 
Q 46.6875 8.109375 53.6875 14.9375 
Q 60.6875 21.78125 60.6875 36.53125 
Q 60.6875 51.171875 53.6875 57.984375 
Q 46.6875 64.796875 31.59375 64.796875 
z
M 9.8125 72.90625 
L 30.078125 72.90625 
Q 51.265625 72.90625 61.171875 64.09375 
Q 71.09375 55.28125 71.09375 36.53125 
Q 71.09375 17.671875 61.125 8.828125 
Q 51.171875 0 30.078125 0 
L 9.8125 0 
z
" id="DejaVuSans-68"/>
     <path d="M 9.421875 75.984375 
L 18.40625 75.984375 
L 18.40625 0 
L 9.421875 0 
z
" id="DejaVuSans-108"/>
     <path d="M 34.28125 27.484375 
Q 23.390625 27.484375 19.1875 25 
Q 14.984375 22.515625 14.984375 16.5 
Q 14.984375 11.71875 18.140625 8.90625 
Q 21.296875 6.109375 26.703125 6.109375 
Q 34.1875 6.109375 38.703125 11.40625 
Q 43.21875 16.703125 43.21875 25.484375 
L 43.21875 27.484375 
z
M 52.203125 31.203125 
L 52.203125 0 
L 43.21875 0 
L 43.21875 8.296875 
Q 40.140625 3.328125 35.546875 0.953125 
Q 30.953125 -1.421875 24.3125 -1.421875 
Q 15.921875 -1.421875 10.953125 3.296875 
Q 6 8.015625 6 15.921875 
Q 6 25.140625 12.171875 29.828125 
Q 18.359375 34.515625 30.609375 34.515625 
L 43.21875 34.515625 
L 43.21875 35.40625 
Q 43.21875 41.609375 39.140625 45 
Q 35.0625 48.390625 27.6875 48.390625 
Q 23 48.390625 18.546875 47.265625 
Q 14.109375 46.140625 10.015625 43.890625 
L 10.015625 52.203125 
Q 14.9375 54.109375 19.578125 55.046875 
Q 24.21875 56 28.609375 56 
Q 40.484375 56 46.34375 49.84375 
Q 52.203125 43.703125 52.203125 31.203125 
z
" id="DejaVuSans-97"/>
     <path d="M 41.109375 46.296875 
Q 39.59375 47.171875 37.8125 47.578125 
Q 36.03125 48 33.890625 48 
Q 26.265625 48 22.1875 43.046875 
Q 18.109375 38.09375 18.109375 28.8125 
L 18.109375 0 
L 9.078125 0 
L 9.078125 54.6875 
L 18.109375 54.6875 
L 18.109375 46.1875 
Q 20.953125 51.171875 25.484375 53.578125 
Q 30.03125 56 36.53125 56 
Q 37.453125 56 38.578125 55.875 
Q 39.703125 55.765625 41.0625 55.515625 
z
" id="DejaVuSans-114"/>
     <path d="M 48.6875 27.296875 
Q 48.6875 37.203125 44.609375 42.84375 
Q 40.53125 48.484375 33.40625 48.484375 
Q 26.265625 48.484375 22.1875 42.84375 
Q 18.109375 37.203125 18.109375 27.296875 
Q 18.109375 17.390625 22.1875 11.75 
Q 26.265625 6.109375 33.40625 6.109375 
Q 40.53125 6.109375 44.609375 11.75 
Q 48.6875 17.390625 48.6875 27.296875 
z
M 18.109375 46.390625 
Q 20.953125 51.265625 25.265625 53.625 
Q 29.59375 56 35.59375 56 
Q 45.5625 56 51.78125 48.09375 
Q 58.015625 40.1875 58.015625 27.296875 
Q 58.015625 14.40625 51.78125 6.484375 
Q 45.5625 -1.421875 35.59375 -1.421875 
Q 29.59375 -1.421875 25.265625 0.953125 
Q 20.953125 3.328125 18.109375 8.203125 
L 18.109375 0 
L 9.078125 0 
L 9.078125 75.984375 
L 18.109375 75.984375 
z
" id="DejaVuSans-98"/>
     <path d="M 8.5 21.578125 
L 8.5 54.6875 
L 17.484375 54.6875 
L 17.484375 21.921875 
Q 17.484375 14.15625 20.5 10.265625 
Q 23.53125 6.390625 29.59375 6.390625 
Q 36.859375 6.390625 41.078125 11.03125 
Q 45.3125 15.671875 45.3125 23.6875 
L 45.3125 54.6875 
L 54.296875 54.6875 
L 54.296875 0 
L 45.3125 0 
L 45.3125 8.40625 
Q 42.046875 3.421875 37.71875 1 
Q 33.40625 -1.421875 27.6875 -1.421875 
Q 18.265625 -1.421875 13.375 4.4375 
Q 8.5 10.296875 8.5 21.578125 
z
M 31.109375 56 
z
" id="DejaVuSans-117"/>
     <path d="M 30.609375 48.390625 
Q 23.390625 48.390625 19.1875 42.75 
Q 14.984375 37.109375 14.984375 27.296875 
Q 14.984375 17.484375 19.15625 11.84375 
Q 23.34375 6.203125 30.609375 6.203125 
Q 37.796875 6.203125 41.984375 11.859375 
Q 46.1875 17.53125 46.1875 27.296875 
Q 46.1875 37.015625 41.984375 42.703125 
Q 37.796875 48.390625 30.609375 48.390625 
z
M 30.609375 56 
Q 42.328125 56 49.015625 48.375 
Q 55.71875 40.765625 55.71875 27.296875 
Q 55.71875 13.875 49.015625 6.21875 
Q 42.328125 -1.421875 30.609375 -1.421875 
Q 18.84375 -1.421875 12.171875 6.21875 
Q 5.515625 13.875 5.515625 27.296875 
Q 5.515625 40.765625 12.171875 48.375 
Q 18.84375 56 30.609375 56 
z
" id="DejaVuSans-111"/>
     <path d="M 54.890625 33.015625 
L 54.890625 0 
L 45.90625 0 
L 45.90625 32.71875 
Q 45.90625 40.484375 42.875 44.328125 
Q 39.84375 48.1875 33.796875 48.1875 
Q 26.515625 48.1875 22.3125 43.546875 
Q 18.109375 38.921875 18.109375 30.90625 
L 18.109375 0 
L 9.078125 0 
L 9.078125 54.6875 
L 18.109375 54.6875 
L 18.109375 46.1875 
Q 21.34375 51.125 25.703125 53.5625 
Q 30.078125 56 35.796875 56 
Q 45.21875 56 50.046875 50.171875 
Q 54.890625 44.34375 54.890625 33.015625 
z
" id="DejaVuSans-110"/>
    </defs>
    <g transform="translate(178.690313 54.48)scale(0.12 -0.12)">
     <use xlink:href="#DejaVuSans-66"/>
     <use x="68.603516" xlink:href="#DejaVuSans-101"/>
     <use x="130.126953" xlink:href="#DejaVuSans-115"/>
     <use x="182.226562" xlink:href="#DejaVuSans-116"/>
     <use x="221.435547" xlink:href="#DejaVuSans-32"/>
     <use x="253.222656" xlink:href="#DejaVuSans-66"/>
     <use x="321.826172" xlink:href="#DejaVuSans-105"/>
     <use x="349.609375" xlink:href="#DejaVuSans-100"/>
     <use x="413.085938" xlink:href="#DejaVuSans-32"/>
     <use x="444.873047" xlink:href="#DejaVuSans-68"/>
     <use x="521.875" xlink:href="#DejaVuSans-101"/>
     <use x="583.398438" xlink:href="#DejaVuSans-108"/>
     <use x="611.181641" xlink:href="#DejaVuSans-116"/>
     <use x="650.390625" xlink:href="#DejaVuSans-97"/>
     <use x="711.669922" xlink:href="#DejaVuSans-32"/>
     <use x="743.457031" xlink:href="#DejaVuSans-68"/>
     <use x="820.458984" xlink:href="#DejaVuSans-105"/>
     <use x="848.242188" xlink:href="#DejaVuSans-115"/>
     <use x="900.341797" xlink:href="#DejaVuSans-116"/>
     <use x="939.550781" xlink:href="#DejaVuSans-114"/>
     <use x="980.664062" xlink:href="#DejaVuSans-105"/>
     <use x="1008.447266" xlink:href="#DejaVuSans-98"/>
     <use x="1071.923828" xlink:href="#DejaVuSans-117"/>
     <use x="1135.302734" xlink:href="#DejaVuSans-116"/>
     <use x="1174.511719" xlink:href="#DejaVuSans-105"/>
     <use x="1202.294922" xlink:href="#DejaVuSans-111"/>
     <use x="1263.476562" xlink:href="#DejaVuSans-110"/>
    </g>
   </g>
  </g>
 </g>
 <defs>
  <clipPath id="pa4033d0851">
   <rect height="388.08" width="390.6" x="63" y="60.48"/>
  </clipPath>
 </defs>
</svg>
