<?xml version="1.0" encoding="utf-8" standalone="no"?>
<!DOCTYPE svg PUBLIC "-//W3C//DTD SVG 1.1//EN"
  "http://www.w3.org/Graphics/SVG/1.1/DTD/svg11.dtd">
<!-- Created with matplotlib (https://matplotlib.org/) -->
<svg height="504pt" version="1.1" viewBox="0 0 504 504" width="504pt" xmlns="http://www.w3.org/2000/svg" xmlns:xlink="http://www.w3.org/1999/xlink">
 <defs>
  <style type="text/css">
*{stroke-linecap:butt;stroke-linejoin:round;}
  </style>
 </defs>
 <g id="figure_1">
  <g id="patch_1">
   <path d="M 0 504 
L 504 504 
L 504 0 
L 0 0 
z
" style="fill:#ffffff;"/>
  </g>
  <g id="axes_1">
   <g id="patch_2">
    <path d="M 63 448.56 
L 453.6 448.56 
L 453.6 60.48 
L 63 60.48 
z
" style="fill:#ffffff;"/>
   </g>
   <g id="patch_3">
    <path clip-path="url(#p9f4e2cae44)" d="M 270.329949 112645.353744 
L 272.129031 112645.353744 
L 272.129031 78.12 
L 270.329949 78.12 
z
" style="fill:#d490c6;opacity:0.4;"/>
   </g>
   <g id="patch_4">
    <path clip-path="url(#p9f4e2cae44)" d="M 272.129031 112645.353744 
L 273.928112 112645.353744 
L 273.928112 129.059175 
L 272.129031 129.059175 
z
" style="fill:#d490c6;opacity:0.4;"/>
   </g>
   <g id="patch_5">
    <path clip-path="url(#p9f4e2cae44)" d="M 273.928112 112645.353744 
L 275.727194 112645.353744 
L 275.727194 119.94802 
L 273.928112 119.94802 
z
" style="fill:#d490c6;opacity:0.4;"/>
   </g>
   <g id="patch_6">
    <path clip-path="url(#p9f4e2cae44)" d="M 275.727194 112645.353744 
L 277.526275 112645.353744 
L 277.526275 163.97435 
L 275.727194 163.97435 
z
" style="fill:#d490c6;opacity:0.4;"/>
   </g>
   <g id="patch_7">
    <path clip-path="url(#p9f4e2cae44)" d="M 277.526275 112645.353744 
L 279.325357 112645.353744 
L 279.325357 143.021322 
L 277.526275 143.021322 
z
" style="fill:#d490c6;opacity:0.4;"/>
   </g>
   <g id="patch_8">
    <path clip-path="url(#p9f4e2cae44)" d="M 279.325357 112645.353744 
L 281.124439 112645.353744 
L 281.124439 173.235143 
L 279.325357 173.235143 
z
" style="fill:#d490c6;opacity:0.4;"/>
   </g>
   <g id="patch_9">
    <path clip-path="url(#p9f4e2cae44)" d="M 281.124439 112645.353744 
L 282.92352 112645.353744 
L 282.92352 147.471683 
L 281.124439 147.471683 
z
" style="fill:#d490c6;opacity:0.4;"/>
   </g>
   <g id="patch_10">
    <path clip-path="url(#p9f4e2cae44)" d="M 282.92352 112645.353744 
L 284.722602 112645.353744 
L 284.722602 227.410948 
L 282.92352 227.410948 
z
" style="fill:#d490c6;opacity:0.4;"/>
   </g>
   <g id="patch_11">
    <path clip-path="url(#p9f4e2cae44)" d="M 284.722602 112645.353744 
L 286.521683 112645.353744 
L 286.521683 207.073594 
L 284.722602 207.073594 
z
" style="fill:#d490c6;opacity:0.4;"/>
   </g>
   <g id="patch_12">
    <path clip-path="url(#p9f4e2cae44)" d="M 286.521683 112645.353744 
L 288.320765 112645.353744 
L 288.320765 256.726889 
L 286.521683 256.726889 
z
" style="fill:#d490c6;opacity:0.4;"/>
   </g>
   <g id="patch_13">
    <path clip-path="url(#p9f4e2cae44)" d="M 288.320765 112645.353744 
L 290.119846 112645.353744 
L 290.119846 217.316244 
L 288.320765 217.316244 
z
" style="fill:#d490c6;opacity:0.4;"/>
   </g>
   <g id="patch_14">
    <path clip-path="url(#p9f4e2cae44)" d="M 290.119846 112645.353744 
L 291.918928 112645.353744 
L 291.918928 213.678253 
L 290.119846 213.678253 
z
" style="fill:#d490c6;opacity:0.4;"/>
   </g>
   <g id="patch_15">
    <path clip-path="url(#p9f4e2cae44)" d="M 291.918928 112645.353744 
L 293.71801 112645.353744 
L 293.71801 270.717183 
L 291.918928 270.717183 
z
" style="fill:#d490c6;opacity:0.4;"/>
   </g>
   <g id="patch_16">
    <path clip-path="url(#p9f4e2cae44)" d="M 293.71801 112645.353744 
L 295.517091 112645.353744 
L 295.517091 212.194919 
L 293.71801 212.194919 
z
" style="fill:#d490c6;opacity:0.4;"/>
   </g>
   <g id="patch_17">
    <path clip-path="url(#p9f4e2cae44)" d="M 295.517091 112645.353744 
L 297.316173 112645.353744 
L 297.316173 245.88716 
L 295.517091 245.88716 
z
" style="fill:#d490c6;opacity:0.4;"/>
   </g>
   <g id="patch_18">
    <path clip-path="url(#p9f4e2cae44)" d="M 297.316173 112645.353744 
L 299.115254 112645.353744 
L 299.115254 192.486221 
L 297.316173 192.486221 
z
" style="fill:#d490c6;opacity:0.4;"/>
   </g>
   <g id="patch_19">
    <path clip-path="url(#p9f4e2cae44)" d="M 299.115254 112645.353744 
L 300.914336 112645.353744 
L 300.914336 324.118122 
L 299.115254 324.118122 
z
" style="fill:#d490c6;opacity:0.4;"/>
   </g>
   <g id="patch_20">
    <path clip-path="url(#p9f4e2cae44)" d="M 300.914336 112645.353744 
L 302.713417 112645.353744 
L 302.713417 112645.353744 
L 300.914336 112645.353744 
z
" style="fill:#d490c6;opacity:0.4;"/>
   </g>
   <g id="patch_21">
    <path clip-path="url(#p9f4e2cae44)" d="M 302.713417 112645.353744 
L 304.512499 112645.353744 
L 304.512499 290.425881 
L 302.713417 290.425881 
z
" style="fill:#d490c6;opacity:0.4;"/>
   </g>
   <g id="patch_22">
    <path clip-path="url(#p9f4e2cae44)" d="M 304.512499 112645.353744 
L 306.311581 112645.353744 
L 306.311581 290.425881 
L 304.512499 290.425881 
z
" style="fill:#d490c6;opacity:0.4;"/>
   </g>
   <g id="patch_23">
    <path clip-path="url(#p9f4e2cae44)" d="M 306.311581 112645.353744 
L 308.110662 112645.353744 
L 308.110662 290.425881 
L 306.311581 290.425881 
z
" style="fill:#d490c6;opacity:0.4;"/>
   </g>
   <g id="patch_24">
    <path clip-path="url(#p9f4e2cae44)" d="M 308.110662 112645.353744 
L 309.909744 112645.353744 
L 309.909744 430.92 
L 308.110662 430.92 
z
" style="fill:#d490c6;opacity:0.4;"/>
   </g>
   <g id="patch_25">
    <path clip-path="url(#p9f4e2cae44)" d="M 309.909744 112645.353744 
L 311.708825 112645.353744 
L 311.708825 216.895008 
L 309.909744 216.895008 
z
" style="fill:#d490c6;opacity:0.4;"/>
   </g>
   <g id="patch_26">
    <path clip-path="url(#p9f4e2cae44)" d="M 311.708825 112645.353744 
L 313.507907 112645.353744 
L 313.507907 324.118122 
L 311.708825 324.118122 
z
" style="fill:#d490c6;opacity:0.4;"/>
   </g>
   <g id="patch_27">
    <path clip-path="url(#p9f4e2cae44)" d="M 313.507907 112645.353744 
L 315.306989 112645.353744 
L 315.306989 112645.353744 
L 313.507907 112645.353744 
z
" style="fill:#d490c6;opacity:0.4;"/>
   </g>
   <g id="patch_28">
    <path clip-path="url(#p9f4e2cae44)" d="M 315.306989 112645.353744 
L 317.10607 112645.353744 
L 317.10607 112645.353744 
L 315.306989 112645.353744 
z
" style="fill:#d490c6;opacity:0.4;"/>
   </g>
   <g id="patch_29">
    <path clip-path="url(#p9f4e2cae44)" d="M 317.10607 112645.353744 
L 318.905152 112645.353744 
L 318.905152 112645.353744 
L 317.10607 112645.353744 
z
" style="fill:#d490c6;opacity:0.4;"/>
   </g>
   <g id="patch_30">
    <path clip-path="url(#p9f4e2cae44)" d="M 318.905152 112645.353744 
L 320.704233 112645.353744 
L 320.704233 112645.353744 
L 318.905152 112645.353744 
z
" style="fill:#d490c6;opacity:0.4;"/>
   </g>
   <g id="patch_31">
    <path clip-path="url(#p9f4e2cae44)" d="M 320.704233 112645.353744 
L 322.503315 112645.353744 
L 322.503315 112645.353744 
L 320.704233 112645.353744 
z
" style="fill:#d490c6;opacity:0.4;"/>
   </g>
   <g id="patch_32">
    <path clip-path="url(#p9f4e2cae44)" d="M 322.503315 112645.353744 
L 324.302396 112645.353744 
L 324.302396 290.425881 
L 322.503315 290.425881 
z
" style="fill:#d490c6;opacity:0.4;"/>
   </g>
   <g id="patch_33">
    <path clip-path="url(#p9f4e2cae44)" d="M 324.302396 112645.353744 
L 326.101478 112645.353744 
L 326.101478 324.118122 
L 324.302396 324.118122 
z
" style="fill:#d490c6;opacity:0.4;"/>
   </g>
   <g id="patch_34">
    <path clip-path="url(#p9f4e2cae44)" d="M 326.101478 112645.353744 
L 327.90056 112645.353744 
L 327.90056 112645.353744 
L 326.101478 112645.353744 
z
" style="fill:#d490c6;opacity:0.4;"/>
   </g>
   <g id="patch_35">
    <path clip-path="url(#p9f4e2cae44)" d="M 327.90056 112645.353744 
L 329.699641 112645.353744 
L 329.699641 324.118122 
L 327.90056 324.118122 
z
" style="fill:#d490c6;opacity:0.4;"/>
   </g>
   <g id="patch_36">
    <path clip-path="url(#p9f4e2cae44)" d="M 329.699641 112645.353744 
L 331.498723 112645.353744 
L 331.498723 324.118122 
L 329.699641 324.118122 
z
" style="fill:#d490c6;opacity:0.4;"/>
   </g>
   <g id="patch_37">
    <path clip-path="url(#p9f4e2cae44)" d="M 331.498723 112645.353744 
L 333.297804 112645.353744 
L 333.297804 324.118122 
L 331.498723 324.118122 
z
" style="fill:#d490c6;opacity:0.4;"/>
   </g>
   <g id="patch_38">
    <path clip-path="url(#p9f4e2cae44)" d="M 333.297804 112645.353744 
L 335.096886 112645.353744 
L 335.096886 112645.353744 
L 333.297804 112645.353744 
z
" style="fill:#d490c6;opacity:0.4;"/>
   </g>
   <g id="patch_39">
    <path clip-path="url(#p9f4e2cae44)" d="M 335.096886 112645.353744 
L 336.895968 112645.353744 
L 336.895968 112645.353744 
L 335.096886 112645.353744 
z
" style="fill:#d490c6;opacity:0.4;"/>
   </g>
   <g id="patch_40">
    <path clip-path="url(#p9f4e2cae44)" d="M 336.895968 112645.353744 
L 338.695049 112645.353744 
L 338.695049 112645.353744 
L 336.895968 112645.353744 
z
" style="fill:#d490c6;opacity:0.4;"/>
   </g>
   <g id="patch_41">
    <path clip-path="url(#p9f4e2cae44)" d="M 338.695049 112645.353744 
L 340.494131 112645.353744 
L 340.494131 324.118122 
L 338.695049 324.118122 
z
" style="fill:#d490c6;opacity:0.4;"/>
   </g>
   <g id="patch_42">
    <path clip-path="url(#p9f4e2cae44)" d="M 340.494131 112645.353744 
L 342.293212 112645.353744 
L 342.293212 112645.353744 
L 340.494131 112645.353744 
z
" style="fill:#d490c6;opacity:0.4;"/>
   </g>
   <g id="patch_43">
    <path clip-path="url(#p9f4e2cae44)" d="M 342.293212 112645.353744 
L 344.092294 112645.353744 
L 344.092294 324.118122 
L 342.293212 324.118122 
z
" style="fill:#d490c6;opacity:0.4;"/>
   </g>
   <g id="patch_44">
    <path clip-path="url(#p9f4e2cae44)" d="M 344.092294 112645.353744 
L 345.891375 112645.353744 
L 345.891375 112645.353744 
L 344.092294 112645.353744 
z
" style="fill:#d490c6;opacity:0.4;"/>
   </g>
   <g id="patch_45">
    <path clip-path="url(#p9f4e2cae44)" d="M 345.891375 112645.353744 
L 347.690457 112645.353744 
L 347.690457 112645.353744 
L 345.891375 112645.353744 
z
" style="fill:#d490c6;opacity:0.4;"/>
   </g>
   <g id="patch_46">
    <path clip-path="url(#p9f4e2cae44)" d="M 347.690457 112645.353744 
L 349.489539 112645.353744 
L 349.489539 324.118122 
L 347.690457 324.118122 
z
" style="fill:#d490c6;opacity:0.4;"/>
   </g>
   <g id="patch_47">
    <path clip-path="url(#p9f4e2cae44)" d="M 349.489539 112645.353744 
L 351.28862 112645.353744 
L 351.28862 112645.353744 
L 349.489539 112645.353744 
z
" style="fill:#d490c6;opacity:0.4;"/>
   </g>
   <g id="patch_48">
    <path clip-path="url(#p9f4e2cae44)" d="M 351.28862 112645.353744 
L 353.087702 112645.353744 
L 353.087702 276.706344 
L 351.28862 276.706344 
z
" style="fill:#d490c6;opacity:0.4;"/>
   </g>
   <g id="patch_49">
    <path clip-path="url(#p9f4e2cae44)" d="M 353.087702 112645.353744 
L 354.886783 112645.353744 
L 354.886783 112645.353744 
L 353.087702 112645.353744 
z
" style="fill:#d490c6;opacity:0.4;"/>
   </g>
   <g id="patch_50">
    <path clip-path="url(#p9f4e2cae44)" d="M 354.886783 112645.353744 
L 356.685865 112645.353744 
L 356.685865 112645.353744 
L 354.886783 112645.353744 
z
" style="fill:#d490c6;opacity:0.4;"/>
   </g>
   <g id="patch_51">
    <path clip-path="url(#p9f4e2cae44)" d="M 356.685865 112645.353744 
L 358.484947 112645.353744 
L 358.484947 112645.353744 
L 356.685865 112645.353744 
z
" style="fill:#d490c6;opacity:0.4;"/>
   </g>
   <g id="patch_52">
    <path clip-path="url(#p9f4e2cae44)" d="M 358.484947 112645.353744 
L 360.284028 112645.353744 
L 360.284028 112645.353744 
L 358.484947 112645.353744 
z
" style="fill:#d490c6;opacity:0.4;"/>
   </g>
   <g id="patch_53">
    <path clip-path="url(#p9f4e2cae44)" d="M 360.284028 112645.353744 
L 362.08311 112645.353744 
L 362.08311 112645.353744 
L 360.284028 112645.353744 
z
" style="fill:#d490c6;opacity:0.4;"/>
   </g>
   <g id="patch_54">
    <path clip-path="url(#p9f4e2cae44)" d="M 362.08311 112645.353744 
L 363.882191 112645.353744 
L 363.882191 112645.353744 
L 362.08311 112645.353744 
z
" style="fill:#d490c6;opacity:0.4;"/>
   </g>
   <g id="patch_55">
    <path clip-path="url(#p9f4e2cae44)" d="M 363.882191 112645.353744 
L 365.681273 112645.353744 
L 365.681273 112645.353744 
L 363.882191 112645.353744 
z
" style="fill:#d490c6;opacity:0.4;"/>
   </g>
   <g id="patch_56">
    <path clip-path="url(#p9f4e2cae44)" d="M 365.681273 112645.353744 
L 367.480354 112645.353744 
L 367.480354 112645.353744 
L 365.681273 112645.353744 
z
" style="fill:#d490c6;opacity:0.4;"/>
   </g>
   <g id="patch_57">
    <path clip-path="url(#p9f4e2cae44)" d="M 367.480354 112645.353744 
L 369.279436 112645.353744 
L 369.279436 112645.353744 
L 367.480354 112645.353744 
z
" style="fill:#d490c6;opacity:0.4;"/>
   </g>
   <g id="patch_58">
    <path clip-path="url(#p9f4e2cae44)" d="M 369.279436 112645.353744 
L 371.078518 112645.353744 
L 371.078518 112645.353744 
L 369.279436 112645.353744 
z
" style="fill:#d490c6;opacity:0.4;"/>
   </g>
   <g id="patch_59">
    <path clip-path="url(#p9f4e2cae44)" d="M 371.078518 112645.353744 
L 372.877599 112645.353744 
L 372.877599 112645.353744 
L 371.078518 112645.353744 
z
" style="fill:#d490c6;opacity:0.4;"/>
   </g>
   <g id="patch_60">
    <path clip-path="url(#p9f4e2cae44)" d="M 372.877599 112645.353744 
L 374.676681 112645.353744 
L 374.676681 112645.353744 
L 372.877599 112645.353744 
z
" style="fill:#d490c6;opacity:0.4;"/>
   </g>
   <g id="patch_61">
    <path clip-path="url(#p9f4e2cae44)" d="M 374.676681 112645.353744 
L 376.475762 112645.353744 
L 376.475762 112645.353744 
L 374.676681 112645.353744 
z
" style="fill:#d490c6;opacity:0.4;"/>
   </g>
   <g id="patch_62">
    <path clip-path="url(#p9f4e2cae44)" d="M 376.475762 112645.353744 
L 378.274844 112645.353744 
L 378.274844 430.92 
L 376.475762 430.92 
z
" style="fill:#d490c6;opacity:0.4;"/>
   </g>
   <g id="patch_63">
    <path clip-path="url(#p9f4e2cae44)" d="M 378.274844 112645.353744 
L 380.073926 112645.353744 
L 380.073926 112645.353744 
L 378.274844 112645.353744 
z
" style="fill:#d490c6;opacity:0.4;"/>
   </g>
   <g id="patch_64">
    <path clip-path="url(#p9f4e2cae44)" d="M 380.073926 112645.353744 
L 381.873007 112645.353744 
L 381.873007 112645.353744 
L 380.073926 112645.353744 
z
" style="fill:#d490c6;opacity:0.4;"/>
   </g>
   <g id="patch_65">
    <path clip-path="url(#p9f4e2cae44)" d="M 381.873007 112645.353744 
L 383.672089 112645.353744 
L 383.672089 112645.353744 
L 381.873007 112645.353744 
z
" style="fill:#d490c6;opacity:0.4;"/>
   </g>
   <g id="patch_66">
    <path clip-path="url(#p9f4e2cae44)" d="M 383.672089 112645.353744 
L 385.47117 112645.353744 
L 385.47117 112645.353744 
L 383.672089 112645.353744 
z
" style="fill:#d490c6;opacity:0.4;"/>
   </g>
   <g id="patch_67">
    <path clip-path="url(#p9f4e2cae44)" d="M 385.47117 112645.353744 
L 387.270252 112645.353744 
L 387.270252 112645.353744 
L 385.47117 112645.353744 
z
" style="fill:#d490c6;opacity:0.4;"/>
   </g>
   <g id="patch_68">
    <path clip-path="url(#p9f4e2cae44)" d="M 387.270252 112645.353744 
L 389.069333 112645.353744 
L 389.069333 112645.353744 
L 387.270252 112645.353744 
z
" style="fill:#d490c6;opacity:0.4;"/>
   </g>
   <g id="patch_69">
    <path clip-path="url(#p9f4e2cae44)" d="M 389.069333 112645.353744 
L 390.868415 112645.353744 
L 390.868415 112645.353744 
L 389.069333 112645.353744 
z
" style="fill:#d490c6;opacity:0.4;"/>
   </g>
   <g id="patch_70">
    <path clip-path="url(#p9f4e2cae44)" d="M 390.868415 112645.353744 
L 392.667497 112645.353744 
L 392.667497 112645.353744 
L 390.868415 112645.353744 
z
" style="fill:#d490c6;opacity:0.4;"/>
   </g>
   <g id="patch_71">
    <path clip-path="url(#p9f4e2cae44)" d="M 392.667497 112645.353744 
L 394.466578 112645.353744 
L 394.466578 296.547585 
L 392.667497 296.547585 
z
" style="fill:#d490c6;opacity:0.4;"/>
   </g>
   <g id="patch_72">
    <path clip-path="url(#p9f4e2cae44)" d="M 394.466578 112645.353744 
L 396.26566 112645.353744 
L 396.26566 112645.353744 
L 394.466578 112645.353744 
z
" style="fill:#d490c6;opacity:0.4;"/>
   </g>
   <g id="patch_73">
    <path clip-path="url(#p9f4e2cae44)" d="M 396.26566 112645.353744 
L 398.064741 112645.353744 
L 398.064741 324.118122 
L 396.26566 324.118122 
z
" style="fill:#d490c6;opacity:0.4;"/>
   </g>
   <g id="patch_74">
    <path clip-path="url(#p9f4e2cae44)" d="M 398.064741 112645.353744 
L 399.863823 112645.353744 
L 399.863823 112645.353744 
L 398.064741 112645.353744 
z
" style="fill:#d490c6;opacity:0.4;"/>
   </g>
   <g id="patch_75">
    <path clip-path="url(#p9f4e2cae44)" d="M 399.863823 112645.353744 
L 401.662904 112645.353744 
L 401.662904 112645.353744 
L 399.863823 112645.353744 
z
" style="fill:#d490c6;opacity:0.4;"/>
   </g>
   <g id="patch_76">
    <path clip-path="url(#p9f4e2cae44)" d="M 401.662904 112645.353744 
L 403.461986 112645.353744 
L 403.461986 324.825352 
L 401.662904 324.825352 
z
" style="fill:#d490c6;opacity:0.4;"/>
   </g>
   <g id="patch_77">
    <path clip-path="url(#p9f4e2cae44)" d="M 403.461986 112645.353744 
L 405.261068 112645.353744 
L 405.261068 112645.353744 
L 403.461986 112645.353744 
z
" style="fill:#d490c6;opacity:0.4;"/>
   </g>
   <g id="patch_78">
    <path clip-path="url(#p9f4e2cae44)" d="M 405.261068 112645.353744 
L 407.060149 112645.353744 
L 407.060149 112645.353744 
L 405.261068 112645.353744 
z
" style="fill:#d490c6;opacity:0.4;"/>
   </g>
   <g id="patch_79">
    <path clip-path="url(#p9f4e2cae44)" d="M 407.060149 112645.353744 
L 408.859231 112645.353744 
L 408.859231 112645.353744 
L 407.060149 112645.353744 
z
" style="fill:#d490c6;opacity:0.4;"/>
   </g>
   <g id="patch_80">
    <path clip-path="url(#p9f4e2cae44)" d="M 408.859231 112645.353744 
L 410.658312 112645.353744 
L 410.658312 112645.353744 
L 408.859231 112645.353744 
z
" style="fill:#d490c6;opacity:0.4;"/>
   </g>
   <g id="patch_81">
    <path clip-path="url(#p9f4e2cae44)" d="M 410.658312 112645.353744 
L 412.457394 112645.353744 
L 412.457394 112645.353744 
L 410.658312 112645.353744 
z
" style="fill:#d490c6;opacity:0.4;"/>
   </g>
   <g id="patch_82">
    <path clip-path="url(#p9f4e2cae44)" d="M 412.457394 112645.353744 
L 414.256476 112645.353744 
L 414.256476 112645.353744 
L 412.457394 112645.353744 
z
" style="fill:#d490c6;opacity:0.4;"/>
   </g>
   <g id="patch_83">
    <path clip-path="url(#p9f4e2cae44)" d="M 414.256476 112645.353744 
L 416.055557 112645.353744 
L 416.055557 112645.353744 
L 414.256476 112645.353744 
z
" style="fill:#d490c6;opacity:0.4;"/>
   </g>
   <g id="patch_84">
    <path clip-path="url(#p9f4e2cae44)" d="M 416.055557 112645.353744 
L 417.854639 112645.353744 
L 417.854639 112645.353744 
L 416.055557 112645.353744 
z
" style="fill:#d490c6;opacity:0.4;"/>
   </g>
   <g id="patch_85">
    <path clip-path="url(#p9f4e2cae44)" d="M 417.854639 112645.353744 
L 419.65372 112645.353744 
L 419.65372 112645.353744 
L 417.854639 112645.353744 
z
" style="fill:#d490c6;opacity:0.4;"/>
   </g>
   <g id="patch_86">
    <path clip-path="url(#p9f4e2cae44)" d="M 419.65372 112645.353744 
L 421.452802 112645.353744 
L 421.452802 112645.353744 
L 419.65372 112645.353744 
z
" style="fill:#d490c6;opacity:0.4;"/>
   </g>
   <g id="patch_87">
    <path clip-path="url(#p9f4e2cae44)" d="M 421.452802 112645.353744 
L 423.251883 112645.353744 
L 423.251883 112645.353744 
L 421.452802 112645.353744 
z
" style="fill:#d490c6;opacity:0.4;"/>
   </g>
   <g id="patch_88">
    <path clip-path="url(#p9f4e2cae44)" d="M 423.251883 112645.353744 
L 425.050965 112645.353744 
L 425.050965 112645.353744 
L 423.251883 112645.353744 
z
" style="fill:#d490c6;opacity:0.4;"/>
   </g>
   <g id="patch_89">
    <path clip-path="url(#p9f4e2cae44)" d="M 425.050965 112645.353744 
L 426.850047 112645.353744 
L 426.850047 112645.353744 
L 425.050965 112645.353744 
z
" style="fill:#d490c6;opacity:0.4;"/>
   </g>
   <g id="patch_90">
    <path clip-path="url(#p9f4e2cae44)" d="M 426.850047 112645.353744 
L 428.649128 112645.353744 
L 428.649128 324.118122 
L 426.850047 324.118122 
z
" style="fill:#d490c6;opacity:0.4;"/>
   </g>
   <g id="patch_91">
    <path clip-path="url(#p9f4e2cae44)" d="M 428.649128 112645.353744 
L 430.44821 112645.353744 
L 430.44821 112645.353744 
L 428.649128 112645.353744 
z
" style="fill:#d490c6;opacity:0.4;"/>
   </g>
   <g id="patch_92">
    <path clip-path="url(#p9f4e2cae44)" d="M 430.44821 112645.353744 
L 432.247291 112645.353744 
L 432.247291 324.118122 
L 430.44821 324.118122 
z
" style="fill:#d490c6;opacity:0.4;"/>
   </g>
   <g id="patch_93">
    <path clip-path="url(#p9f4e2cae44)" d="M 432.247291 112645.353744 
L 434.046373 112645.353744 
L 434.046373 112645.353744 
L 432.247291 112645.353744 
z
" style="fill:#d490c6;opacity:0.4;"/>
   </g>
   <g id="patch_94">
    <path clip-path="url(#p9f4e2cae44)" d="M 434.046373 112645.353744 
L 435.845455 112645.353744 
L 435.845455 324.118122 
L 434.046373 324.118122 
z
" style="fill:#d490c6;opacity:0.4;"/>
   </g>
   <g id="patch_95">
    <path clip-path="url(#p9f4e2cae44)" d="M 80.754545 112645.353744 
L 82.486158 112645.353744 
L 82.486158 324.118122 
L 80.754545 324.118122 
z
" style="fill:#c3c1f2;opacity:0.4;"/>
   </g>
   <g id="patch_96">
    <path clip-path="url(#p9f4e2cae44)" d="M 82.486158 112645.353744 
L 84.21777 112645.353744 
L 84.21777 112645.353744 
L 82.486158 112645.353744 
z
" style="fill:#c3c1f2;opacity:0.4;"/>
   </g>
   <g id="patch_97">
    <path clip-path="url(#p9f4e2cae44)" d="M 84.21777 112645.353744 
L 85.949383 112645.353744 
L 85.949383 112645.353744 
L 84.21777 112645.353744 
z
" style="fill:#c3c1f2;opacity:0.4;"/>
   </g>
   <g id="patch_98">
    <path clip-path="url(#p9f4e2cae44)" d="M 85.949383 112645.353744 
L 87.680995 112645.353744 
L 87.680995 112645.353744 
L 85.949383 112645.353744 
z
" style="fill:#c3c1f2;opacity:0.4;"/>
   </g>
   <g id="patch_99">
    <path clip-path="url(#p9f4e2cae44)" d="M 87.680995 112645.353744 
L 89.412607 112645.353744 
L 89.412607 112645.353744 
L 87.680995 112645.353744 
z
" style="fill:#c3c1f2;opacity:0.4;"/>
   </g>
   <g id="patch_100">
    <path clip-path="url(#p9f4e2cae44)" d="M 89.412607 112645.353744 
L 91.14422 112645.353744 
L 91.14422 112645.353744 
L 89.412607 112645.353744 
z
" style="fill:#c3c1f2;opacity:0.4;"/>
   </g>
   <g id="patch_101">
    <path clip-path="url(#p9f4e2cae44)" d="M 91.14422 112645.353744 
L 92.875832 112645.353744 
L 92.875832 112645.353744 
L 91.14422 112645.353744 
z
" style="fill:#c3c1f2;opacity:0.4;"/>
   </g>
   <g id="patch_102">
    <path clip-path="url(#p9f4e2cae44)" d="M 92.875832 112645.353744 
L 94.607445 112645.353744 
L 94.607445 112645.353744 
L 92.875832 112645.353744 
z
" style="fill:#c3c1f2;opacity:0.4;"/>
   </g>
   <g id="patch_103">
    <path clip-path="url(#p9f4e2cae44)" d="M 94.607445 112645.353744 
L 96.339057 112645.353744 
L 96.339057 112645.353744 
L 94.607445 112645.353744 
z
" style="fill:#c3c1f2;opacity:0.4;"/>
   </g>
   <g id="patch_104">
    <path clip-path="url(#p9f4e2cae44)" d="M 96.339057 112645.353744 
L 98.070669 112645.353744 
L 98.070669 112645.353744 
L 96.339057 112645.353744 
z
" style="fill:#c3c1f2;opacity:0.4;"/>
   </g>
   <g id="patch_105">
    <path clip-path="url(#p9f4e2cae44)" d="M 98.070669 112645.353744 
L 99.802282 112645.353744 
L 99.802282 112645.353744 
L 98.070669 112645.353744 
z
" style="fill:#c3c1f2;opacity:0.4;"/>
   </g>
   <g id="patch_106">
    <path clip-path="url(#p9f4e2cae44)" d="M 99.802282 112645.353744 
L 101.533894 112645.353744 
L 101.533894 112645.353744 
L 99.802282 112645.353744 
z
" style="fill:#c3c1f2;opacity:0.4;"/>
   </g>
   <g id="patch_107">
    <path clip-path="url(#p9f4e2cae44)" d="M 101.533894 112645.353744 
L 103.265507 112645.353744 
L 103.265507 112645.353744 
L 101.533894 112645.353744 
z
" style="fill:#c3c1f2;opacity:0.4;"/>
   </g>
   <g id="patch_108">
    <path clip-path="url(#p9f4e2cae44)" d="M 103.265507 112645.353744 
L 104.997119 112645.353744 
L 104.997119 112645.353744 
L 103.265507 112645.353744 
z
" style="fill:#c3c1f2;opacity:0.4;"/>
   </g>
   <g id="patch_109">
    <path clip-path="url(#p9f4e2cae44)" d="M 104.997119 112645.353744 
L 106.728731 112645.353744 
L 106.728731 112645.353744 
L 104.997119 112645.353744 
z
" style="fill:#c3c1f2;opacity:0.4;"/>
   </g>
   <g id="patch_110">
    <path clip-path="url(#p9f4e2cae44)" d="M 106.728731 112645.353744 
L 108.460344 112645.353744 
L 108.460344 112645.353744 
L 106.728731 112645.353744 
z
" style="fill:#c3c1f2;opacity:0.4;"/>
   </g>
   <g id="patch_111">
    <path clip-path="url(#p9f4e2cae44)" d="M 108.460344 112645.353744 
L 110.191956 112645.353744 
L 110.191956 324.118122 
L 108.460344 324.118122 
z
" style="fill:#c3c1f2;opacity:0.4;"/>
   </g>
   <g id="patch_112">
    <path clip-path="url(#p9f4e2cae44)" d="M 110.191956 112645.353744 
L 111.923569 112645.353744 
L 111.923569 112645.353744 
L 110.191956 112645.353744 
z
" style="fill:#c3c1f2;opacity:0.4;"/>
   </g>
   <g id="patch_113">
    <path clip-path="url(#p9f4e2cae44)" d="M 111.923569 112645.353744 
L 113.655181 112645.353744 
L 113.655181 112645.353744 
L 111.923569 112645.353744 
z
" style="fill:#c3c1f2;opacity:0.4;"/>
   </g>
   <g id="patch_114">
    <path clip-path="url(#p9f4e2cae44)" d="M 113.655181 112645.353744 
L 115.386794 112645.353744 
L 115.386794 112645.353744 
L 113.655181 112645.353744 
z
" style="fill:#c3c1f2;opacity:0.4;"/>
   </g>
   <g id="patch_115">
    <path clip-path="url(#p9f4e2cae44)" d="M 115.386794 112645.353744 
L 117.118406 112645.353744 
L 117.118406 112645.353744 
L 115.386794 112645.353744 
z
" style="fill:#c3c1f2;opacity:0.4;"/>
   </g>
   <g id="patch_116">
    <path clip-path="url(#p9f4e2cae44)" d="M 117.118406 112645.353744 
L 118.850018 112645.353744 
L 118.850018 112645.353744 
L 117.118406 112645.353744 
z
" style="fill:#c3c1f2;opacity:0.4;"/>
   </g>
   <g id="patch_117">
    <path clip-path="url(#p9f4e2cae44)" d="M 118.850018 112645.353744 
L 120.581631 112645.353744 
L 120.581631 112645.353744 
L 118.850018 112645.353744 
z
" style="fill:#c3c1f2;opacity:0.4;"/>
   </g>
   <g id="patch_118">
    <path clip-path="url(#p9f4e2cae44)" d="M 120.581631 112645.353744 
L 122.313243 112645.353744 
L 122.313243 112645.353744 
L 120.581631 112645.353744 
z
" style="fill:#c3c1f2;opacity:0.4;"/>
   </g>
   <g id="patch_119">
    <path clip-path="url(#p9f4e2cae44)" d="M 122.313243 112645.353744 
L 124.044856 112645.353744 
L 124.044856 112645.353744 
L 122.313243 112645.353744 
z
" style="fill:#c3c1f2;opacity:0.4;"/>
   </g>
   <g id="patch_120">
    <path clip-path="url(#p9f4e2cae44)" d="M 124.044856 112645.353744 
L 125.776468 112645.353744 
L 125.776468 112645.353744 
L 124.044856 112645.353744 
z
" style="fill:#c3c1f2;opacity:0.4;"/>
   </g>
   <g id="patch_121">
    <path clip-path="url(#p9f4e2cae44)" d="M 125.776468 112645.353744 
L 127.50808 112645.353744 
L 127.50808 112645.353744 
L 125.776468 112645.353744 
z
" style="fill:#c3c1f2;opacity:0.4;"/>
   </g>
   <g id="patch_122">
    <path clip-path="url(#p9f4e2cae44)" d="M 127.50808 112645.353744 
L 129.239693 112645.353744 
L 129.239693 112645.353744 
L 127.50808 112645.353744 
z
" style="fill:#c3c1f2;opacity:0.4;"/>
   </g>
   <g id="patch_123">
    <path clip-path="url(#p9f4e2cae44)" d="M 129.239693 112645.353744 
L 130.971305 112645.353744 
L 130.971305 112645.353744 
L 129.239693 112645.353744 
z
" style="fill:#c3c1f2;opacity:0.4;"/>
   </g>
   <g id="patch_124">
    <path clip-path="url(#p9f4e2cae44)" d="M 130.971305 112645.353744 
L 132.702918 112645.353744 
L 132.702918 112645.353744 
L 130.971305 112645.353744 
z
" style="fill:#c3c1f2;opacity:0.4;"/>
   </g>
   <g id="patch_125">
    <path clip-path="url(#p9f4e2cae44)" d="M 132.702918 112645.353744 
L 134.43453 112645.353744 
L 134.43453 112645.353744 
L 132.702918 112645.353744 
z
" style="fill:#c3c1f2;opacity:0.4;"/>
   </g>
   <g id="patch_126">
    <path clip-path="url(#p9f4e2cae44)" d="M 134.43453 112645.353744 
L 136.166142 112645.353744 
L 136.166142 112645.353744 
L 134.43453 112645.353744 
z
" style="fill:#c3c1f2;opacity:0.4;"/>
   </g>
   <g id="patch_127">
    <path clip-path="url(#p9f4e2cae44)" d="M 136.166142 112645.353744 
L 137.897755 112645.353744 
L 137.897755 112645.353744 
L 136.166142 112645.353744 
z
" style="fill:#c3c1f2;opacity:0.4;"/>
   </g>
   <g id="patch_128">
    <path clip-path="url(#p9f4e2cae44)" d="M 137.897755 112645.353744 
L 139.629367 112645.353744 
L 139.629367 112645.353744 
L 137.897755 112645.353744 
z
" style="fill:#c3c1f2;opacity:0.4;"/>
   </g>
   <g id="patch_129">
    <path clip-path="url(#p9f4e2cae44)" d="M 139.629367 112645.353744 
L 141.36098 112645.353744 
L 141.36098 112645.353744 
L 139.629367 112645.353744 
z
" style="fill:#c3c1f2;opacity:0.4;"/>
   </g>
   <g id="patch_130">
    <path clip-path="url(#p9f4e2cae44)" d="M 141.36098 112645.353744 
L 143.092592 112645.353744 
L 143.092592 112645.353744 
L 141.36098 112645.353744 
z
" style="fill:#c3c1f2;opacity:0.4;"/>
   </g>
   <g id="patch_131">
    <path clip-path="url(#p9f4e2cae44)" d="M 143.092592 112645.353744 
L 144.824204 112645.353744 
L 144.824204 112645.353744 
L 143.092592 112645.353744 
z
" style="fill:#c3c1f2;opacity:0.4;"/>
   </g>
   <g id="patch_132">
    <path clip-path="url(#p9f4e2cae44)" d="M 144.824204 112645.353744 
L 146.555817 112645.353744 
L 146.555817 112645.353744 
L 144.824204 112645.353744 
z
" style="fill:#c3c1f2;opacity:0.4;"/>
   </g>
   <g id="patch_133">
    <path clip-path="url(#p9f4e2cae44)" d="M 146.555817 112645.353744 
L 148.287429 112645.353744 
L 148.287429 112645.353744 
L 146.555817 112645.353744 
z
" style="fill:#c3c1f2;opacity:0.4;"/>
   </g>
   <g id="patch_134">
    <path clip-path="url(#p9f4e2cae44)" d="M 148.287429 112645.353744 
L 150.019042 112645.353744 
L 150.019042 112645.353744 
L 148.287429 112645.353744 
z
" style="fill:#c3c1f2;opacity:0.4;"/>
   </g>
   <g id="patch_135">
    <path clip-path="url(#p9f4e2cae44)" d="M 150.019042 112645.353744 
L 151.750654 112645.353744 
L 151.750654 112645.353744 
L 150.019042 112645.353744 
z
" style="fill:#c3c1f2;opacity:0.4;"/>
   </g>
   <g id="patch_136">
    <path clip-path="url(#p9f4e2cae44)" d="M 151.750654 112645.353744 
L 153.482266 112645.353744 
L 153.482266 112645.353744 
L 151.750654 112645.353744 
z
" style="fill:#c3c1f2;opacity:0.4;"/>
   </g>
   <g id="patch_137">
    <path clip-path="url(#p9f4e2cae44)" d="M 153.482266 112645.353744 
L 155.213879 112645.353744 
L 155.213879 112645.353744 
L 153.482266 112645.353744 
z
" style="fill:#c3c1f2;opacity:0.4;"/>
   </g>
   <g id="patch_138">
    <path clip-path="url(#p9f4e2cae44)" d="M 155.213879 112645.353744 
L 156.945491 112645.353744 
L 156.945491 324.118122 
L 155.213879 324.118122 
z
" style="fill:#c3c1f2;opacity:0.4;"/>
   </g>
   <g id="patch_139">
    <path clip-path="url(#p9f4e2cae44)" d="M 156.945491 112645.353744 
L 158.677104 112645.353744 
L 158.677104 112645.353744 
L 156.945491 112645.353744 
z
" style="fill:#c3c1f2;opacity:0.4;"/>
   </g>
   <g id="patch_140">
    <path clip-path="url(#p9f4e2cae44)" d="M 158.677104 112645.353744 
L 160.408716 112645.353744 
L 160.408716 112645.353744 
L 158.677104 112645.353744 
z
" style="fill:#c3c1f2;opacity:0.4;"/>
   </g>
   <g id="patch_141">
    <path clip-path="url(#p9f4e2cae44)" d="M 160.408716 112645.353744 
L 162.140328 112645.353744 
L 162.140328 112645.353744 
L 160.408716 112645.353744 
z
" style="fill:#c3c1f2;opacity:0.4;"/>
   </g>
   <g id="patch_142">
    <path clip-path="url(#p9f4e2cae44)" d="M 162.140328 112645.353744 
L 163.871941 112645.353744 
L 163.871941 112645.353744 
L 162.140328 112645.353744 
z
" style="fill:#c3c1f2;opacity:0.4;"/>
   </g>
   <g id="patch_143">
    <path clip-path="url(#p9f4e2cae44)" d="M 163.871941 112645.353744 
L 165.603553 112645.353744 
L 165.603553 324.118122 
L 163.871941 324.118122 
z
" style="fill:#c3c1f2;opacity:0.4;"/>
   </g>
   <g id="patch_144">
    <path clip-path="url(#p9f4e2cae44)" d="M 165.603553 112645.353744 
L 167.335166 112645.353744 
L 167.335166 324.118122 
L 165.603553 324.118122 
z
" style="fill:#c3c1f2;opacity:0.4;"/>
   </g>
   <g id="patch_145">
    <path clip-path="url(#p9f4e2cae44)" d="M 167.335166 112645.353744 
L 169.066778 112645.353744 
L 169.066778 112645.353744 
L 167.335166 112645.353744 
z
" style="fill:#c3c1f2;opacity:0.4;"/>
   </g>
   <g id="patch_146">
    <path clip-path="url(#p9f4e2cae44)" d="M 169.066778 112645.353744 
L 170.79839 112645.353744 
L 170.79839 112645.353744 
L 169.066778 112645.353744 
z
" style="fill:#c3c1f2;opacity:0.4;"/>
   </g>
   <g id="patch_147">
    <path clip-path="url(#p9f4e2cae44)" d="M 170.79839 112645.353744 
L 172.530003 112645.353744 
L 172.530003 112645.353744 
L 170.79839 112645.353744 
z
" style="fill:#c3c1f2;opacity:0.4;"/>
   </g>
   <g id="patch_148">
    <path clip-path="url(#p9f4e2cae44)" d="M 172.530003 112645.353744 
L 174.261615 112645.353744 
L 174.261615 112645.353744 
L 172.530003 112645.353744 
z
" style="fill:#c3c1f2;opacity:0.4;"/>
   </g>
   <g id="patch_149">
    <path clip-path="url(#p9f4e2cae44)" d="M 174.261615 112645.353744 
L 175.993228 112645.353744 
L 175.993228 324.118122 
L 174.261615 324.118122 
z
" style="fill:#c3c1f2;opacity:0.4;"/>
   </g>
   <g id="patch_150">
    <path clip-path="url(#p9f4e2cae44)" d="M 175.993228 112645.353744 
L 177.72484 112645.353744 
L 177.72484 112645.353744 
L 175.993228 112645.353744 
z
" style="fill:#c3c1f2;opacity:0.4;"/>
   </g>
   <g id="patch_151">
    <path clip-path="url(#p9f4e2cae44)" d="M 177.72484 112645.353744 
L 179.456452 112645.353744 
L 179.456452 112645.353744 
L 177.72484 112645.353744 
z
" style="fill:#c3c1f2;opacity:0.4;"/>
   </g>
   <g id="patch_152">
    <path clip-path="url(#p9f4e2cae44)" d="M 179.456452 112645.353744 
L 181.188065 112645.353744 
L 181.188065 112645.353744 
L 179.456452 112645.353744 
z
" style="fill:#c3c1f2;opacity:0.4;"/>
   </g>
   <g id="patch_153">
    <path clip-path="url(#p9f4e2cae44)" d="M 181.188065 112645.353744 
L 182.919677 112645.353744 
L 182.919677 112645.353744 
L 181.188065 112645.353744 
z
" style="fill:#c3c1f2;opacity:0.4;"/>
   </g>
   <g id="patch_154">
    <path clip-path="url(#p9f4e2cae44)" d="M 182.919677 112645.353744 
L 184.65129 112645.353744 
L 184.65129 112645.353744 
L 182.919677 112645.353744 
z
" style="fill:#c3c1f2;opacity:0.4;"/>
   </g>
   <g id="patch_155">
    <path clip-path="url(#p9f4e2cae44)" d="M 184.65129 112645.353744 
L 186.382902 112645.353744 
L 186.382902 112645.353744 
L 184.65129 112645.353744 
z
" style="fill:#c3c1f2;opacity:0.4;"/>
   </g>
   <g id="patch_156">
    <path clip-path="url(#p9f4e2cae44)" d="M 186.382902 112645.353744 
L 188.114514 112645.353744 
L 188.114514 256.73364 
L 186.382902 256.73364 
z
" style="fill:#c3c1f2;opacity:0.4;"/>
   </g>
   <g id="patch_157">
    <path clip-path="url(#p9f4e2cae44)" d="M 188.114514 112645.353744 
L 189.846127 112645.353744 
L 189.846127 324.118122 
L 188.114514 324.118122 
z
" style="fill:#c3c1f2;opacity:0.4;"/>
   </g>
   <g id="patch_158">
    <path clip-path="url(#p9f4e2cae44)" d="M 189.846127 112645.353744 
L 191.577739 112645.353744 
L 191.577739 112645.353744 
L 189.846127 112645.353744 
z
" style="fill:#c3c1f2;opacity:0.4;"/>
   </g>
   <g id="patch_159">
    <path clip-path="url(#p9f4e2cae44)" d="M 191.577739 112645.353744 
L 193.309352 112645.353744 
L 193.309352 324.118122 
L 191.577739 324.118122 
z
" style="fill:#c3c1f2;opacity:0.4;"/>
   </g>
   <g id="patch_160">
    <path clip-path="url(#p9f4e2cae44)" d="M 193.309352 112645.353744 
L 195.040964 112645.353744 
L 195.040964 112645.353744 
L 193.309352 112645.353744 
z
" style="fill:#c3c1f2;opacity:0.4;"/>
   </g>
   <g id="patch_161">
    <path clip-path="url(#p9f4e2cae44)" d="M 195.040964 112645.353744 
L 196.772576 112645.353744 
L 196.772576 112645.353744 
L 195.040964 112645.353744 
z
" style="fill:#c3c1f2;opacity:0.4;"/>
   </g>
   <g id="patch_162">
    <path clip-path="url(#p9f4e2cae44)" d="M 196.772576 112645.353744 
L 198.504189 112645.353744 
L 198.504189 324.118122 
L 196.772576 324.118122 
z
" style="fill:#c3c1f2;opacity:0.4;"/>
   </g>
   <g id="patch_163">
    <path clip-path="url(#p9f4e2cae44)" d="M 198.504189 112645.353744 
L 200.235801 112645.353744 
L 200.235801 324.118122 
L 198.504189 324.118122 
z
" style="fill:#c3c1f2;opacity:0.4;"/>
   </g>
   <g id="patch_164">
    <path clip-path="url(#p9f4e2cae44)" d="M 200.235801 112645.353744 
L 201.967414 112645.353744 
L 201.967414 112645.353744 
L 200.235801 112645.353744 
z
" style="fill:#c3c1f2;opacity:0.4;"/>
   </g>
   <g id="patch_165">
    <path clip-path="url(#p9f4e2cae44)" d="M 201.967414 112645.353744 
L 203.699026 112645.353744 
L 203.699026 290.425881 
L 201.967414 290.425881 
z
" style="fill:#c3c1f2;opacity:0.4;"/>
   </g>
   <g id="patch_166">
    <path clip-path="url(#p9f4e2cae44)" d="M 203.699026 112645.353744 
L 205.430638 112645.353744 
L 205.430638 112645.353744 
L 203.699026 112645.353744 
z
" style="fill:#c3c1f2;opacity:0.4;"/>
   </g>
   <g id="patch_167">
    <path clip-path="url(#p9f4e2cae44)" d="M 205.430638 112645.353744 
L 207.162251 112645.353744 
L 207.162251 112645.353744 
L 205.430638 112645.353744 
z
" style="fill:#c3c1f2;opacity:0.4;"/>
   </g>
   <g id="patch_168">
    <path clip-path="url(#p9f4e2cae44)" d="M 207.162251 112645.353744 
L 208.893863 112645.353744 
L 208.893863 324.118122 
L 207.162251 324.118122 
z
" style="fill:#c3c1f2;opacity:0.4;"/>
   </g>
   <g id="patch_169">
    <path clip-path="url(#p9f4e2cae44)" d="M 208.893863 112645.353744 
L 210.625476 112645.353744 
L 210.625476 324.118122 
L 208.893863 324.118122 
z
" style="fill:#c3c1f2;opacity:0.4;"/>
   </g>
   <g id="patch_170">
    <path clip-path="url(#p9f4e2cae44)" d="M 210.625476 112645.353744 
L 212.357088 112645.353744 
L 212.357088 290.425881 
L 210.625476 290.425881 
z
" style="fill:#c3c1f2;opacity:0.4;"/>
   </g>
   <g id="patch_171">
    <path clip-path="url(#p9f4e2cae44)" d="M 212.357088 112645.353744 
L 214.0887 112645.353744 
L 214.0887 324.118122 
L 212.357088 324.118122 
z
" style="fill:#c3c1f2;opacity:0.4;"/>
   </g>
   <g id="patch_172">
    <path clip-path="url(#p9f4e2cae44)" d="M 214.0887 112645.353744 
L 215.820313 112645.353744 
L 215.820313 270.717183 
L 214.0887 270.717183 
z
" style="fill:#c3c1f2;opacity:0.4;"/>
   </g>
   <g id="patch_173">
    <path clip-path="url(#p9f4e2cae44)" d="M 215.820313 112645.353744 
L 217.551925 112645.353744 
L 217.551925 290.425881 
L 215.820313 290.425881 
z
" style="fill:#c3c1f2;opacity:0.4;"/>
   </g>
   <g id="patch_174">
    <path clip-path="url(#p9f4e2cae44)" d="M 217.551925 112645.353744 
L 219.283538 112645.353744 
L 219.283538 324.118122 
L 217.551925 324.118122 
z
" style="fill:#c3c1f2;opacity:0.4;"/>
   </g>
   <g id="patch_175">
    <path clip-path="url(#p9f4e2cae44)" d="M 219.283538 112645.353744 
L 221.01515 112645.353744 
L 221.01515 324.118122 
L 219.283538 324.118122 
z
" style="fill:#c3c1f2;opacity:0.4;"/>
   </g>
   <g id="patch_176">
    <path clip-path="url(#p9f4e2cae44)" d="M 221.01515 112645.353744 
L 222.746762 112645.353744 
L 222.746762 112645.353744 
L 221.01515 112645.353744 
z
" style="fill:#c3c1f2;opacity:0.4;"/>
   </g>
   <g id="patch_177">
    <path clip-path="url(#p9f4e2cae44)" d="M 222.746762 112645.353744 
L 224.478375 112645.353744 
L 224.478375 324.118122 
L 222.746762 324.118122 
z
" style="fill:#c3c1f2;opacity:0.4;"/>
   </g>
   <g id="patch_178">
    <path clip-path="url(#p9f4e2cae44)" d="M 224.478375 112645.353744 
L 226.209987 112645.353744 
L 226.209987 112645.353744 
L 224.478375 112645.353744 
z
" style="fill:#c3c1f2;opacity:0.4;"/>
   </g>
   <g id="patch_179">
    <path clip-path="url(#p9f4e2cae44)" d="M 226.209987 112645.353744 
L 227.9416 112645.353744 
L 227.9416 324.118122 
L 226.209987 324.118122 
z
" style="fill:#c3c1f2;opacity:0.4;"/>
   </g>
   <g id="patch_180">
    <path clip-path="url(#p9f4e2cae44)" d="M 227.9416 112645.353744 
L 229.673212 112645.353744 
L 229.673212 169.640459 
L 227.9416 169.640459 
z
" style="fill:#c3c1f2;opacity:0.4;"/>
   </g>
   <g id="patch_181">
    <path clip-path="url(#p9f4e2cae44)" d="M 229.673212 112645.353744 
L 231.404825 112645.353744 
L 231.404825 237.024942 
L 229.673212 237.024942 
z
" style="fill:#c3c1f2;opacity:0.4;"/>
   </g>
   <g id="patch_182">
    <path clip-path="url(#p9f4e2cae44)" d="M 231.404825 112645.353744 
L 233.136437 112645.353744 
L 233.136437 290.425881 
L 231.404825 290.425881 
z
" style="fill:#c3c1f2;opacity:0.4;"/>
   </g>
   <g id="patch_183">
    <path clip-path="url(#p9f4e2cae44)" d="M 233.136437 112645.353744 
L 234.868049 112645.353744 
L 234.868049 237.024942 
L 233.136437 237.024942 
z
" style="fill:#c3c1f2;opacity:0.4;"/>
   </g>
   <g id="patch_184">
    <path clip-path="url(#p9f4e2cae44)" d="M 234.868049 112645.353744 
L 236.599662 112645.353744 
L 236.599662 270.717183 
L 234.868049 270.717183 
z
" style="fill:#c3c1f2;opacity:0.4;"/>
   </g>
   <g id="patch_185">
    <path clip-path="url(#p9f4e2cae44)" d="M 236.599662 112645.353744 
L 238.331274 112645.353744 
L 238.331274 245.88716 
L 236.599662 245.88716 
z
" style="fill:#c3c1f2;opacity:0.4;"/>
   </g>
   <g id="patch_186">
    <path clip-path="url(#p9f4e2cae44)" d="M 238.331274 112645.353744 
L 240.062887 112645.353744 
L 240.062887 245.88716 
L 238.331274 245.88716 
z
" style="fill:#c3c1f2;opacity:0.4;"/>
   </g>
   <g id="patch_187">
    <path clip-path="url(#p9f4e2cae44)" d="M 240.062887 112645.353744 
L 241.794499 112645.353744 
L 241.794499 245.88716 
L 240.062887 245.88716 
z
" style="fill:#c3c1f2;opacity:0.4;"/>
   </g>
   <g id="patch_188">
    <path clip-path="url(#p9f4e2cae44)" d="M 241.794499 112645.353744 
L 243.526111 112645.353744 
L 243.526111 245.88716 
L 241.794499 245.88716 
z
" style="fill:#c3c1f2;opacity:0.4;"/>
   </g>
   <g id="patch_189">
    <path clip-path="url(#p9f4e2cae44)" d="M 243.526111 112645.353744 
L 245.257724 112645.353744 
L 245.257724 245.88716 
L 243.526111 245.88716 
z
" style="fill:#c3c1f2;opacity:0.4;"/>
   </g>
   <g id="patch_190">
    <path clip-path="url(#p9f4e2cae44)" d="M 245.257724 112645.353744 
L 246.989336 112645.353744 
L 246.989336 322.237669 
L 245.257724 322.237669 
z
" style="fill:#c3c1f2;opacity:0.4;"/>
   </g>
   <g id="patch_191">
    <path clip-path="url(#p9f4e2cae44)" d="M 246.989336 112645.353744 
L 248.720949 112645.353744 
L 248.720949 269.411665 
L 246.989336 269.411665 
z
" style="fill:#c3c1f2;opacity:0.4;"/>
   </g>
   <g id="patch_192">
    <path clip-path="url(#p9f4e2cae44)" d="M 248.720949 112645.353744 
L 250.452561 112645.353744 
L 250.452561 175.539341 
L 248.720949 175.539341 
z
" style="fill:#c3c1f2;opacity:0.4;"/>
   </g>
   <g id="patch_193">
    <path clip-path="url(#p9f4e2cae44)" d="M 250.452561 112645.353744 
L 252.184173 112645.353744 
L 252.184173 228.59975 
L 250.452561 228.59975 
z
" style="fill:#c3c1f2;opacity:0.4;"/>
   </g>
   <g id="patch_194">
    <path clip-path="url(#p9f4e2cae44)" d="M 252.184173 112645.353744 
L 253.915786 112645.353744 
L 253.915786 202.582402 
L 252.184173 202.582402 
z
" style="fill:#c3c1f2;opacity:0.4;"/>
   </g>
   <g id="patch_195">
    <path clip-path="url(#p9f4e2cae44)" d="M 253.915786 112645.353744 
L 255.647398 112645.353744 
L 255.647398 200.649223 
L 253.915786 200.649223 
z
" style="fill:#c3c1f2;opacity:0.4;"/>
   </g>
   <g id="patch_196">
    <path clip-path="url(#p9f4e2cae44)" d="M 255.647398 112645.353744 
L 257.379011 112645.353744 
L 257.379011 231.572594 
L 255.647398 231.572594 
z
" style="fill:#c3c1f2;opacity:0.4;"/>
   </g>
   <g id="patch_197">
    <path clip-path="url(#p9f4e2cae44)" d="M 257.379011 112645.353744 
L 259.110623 112645.353744 
L 259.110623 187.833784 
L 257.379011 187.833784 
z
" style="fill:#c3c1f2;opacity:0.4;"/>
   </g>
   <g id="patch_198">
    <path clip-path="url(#p9f4e2cae44)" d="M 259.110623 112645.353744 
L 260.842235 112645.353744 
L 260.842235 161.849021 
L 259.110623 161.849021 
z
" style="fill:#c3c1f2;opacity:0.4;"/>
   </g>
   <g id="patch_199">
    <path clip-path="url(#p9f4e2cae44)" d="M 260.842235 112645.353744 
L 262.573848 112645.353744 
L 262.573848 168.366169 
L 260.842235 168.366169 
z
" style="fill:#c3c1f2;opacity:0.4;"/>
   </g>
   <g id="patch_200">
    <path clip-path="url(#p9f4e2cae44)" d="M 262.573848 112645.353744 
L 264.30546 112645.353744 
L 264.30546 178.031049 
L 262.573848 178.031049 
z
" style="fill:#c3c1f2;opacity:0.4;"/>
   </g>
   <g id="patch_201">
    <path clip-path="url(#p9f4e2cae44)" d="M 264.30546 112645.353744 
L 266.037073 112645.353744 
L 266.037073 126.798525 
L 264.30546 126.798525 
z
" style="fill:#c3c1f2;opacity:0.4;"/>
   </g>
   <g id="patch_202">
    <path clip-path="url(#p9f4e2cae44)" d="M 266.037073 112645.353744 
L 267.768685 112645.353744 
L 267.768685 137.908457 
L 266.037073 137.908457 
z
" style="fill:#c3c1f2;opacity:0.4;"/>
   </g>
   <g id="patch_203">
    <path clip-path="url(#p9f4e2cae44)" d="M 267.768685 112645.353744 
L 269.500297 112645.353744 
L 269.500297 89.054643 
L 267.768685 89.054643 
z
" style="fill:#c3c1f2;opacity:0.4;"/>
   </g>
   <g id="matplotlib.axis_1">
    <g id="xtick_1">
     <g id="line2d_1">
      <defs>
       <path d="M 0 0 
L 0 3.5 
" id="m80bd276b5d" style="stroke:#000000;stroke-width:0.8;"/>
      </defs>
      <g>
       <use style="stroke:#000000;stroke-width:0.8;" x="103.984792" xlink:href="#m80bd276b5d" y="448.56"/>
      </g>
     </g>
     <g id="text_1">
      <!-- −4 -->
      <defs>
       <path d="M 10.59375 35.5 
L 73.1875 35.5 
L 73.1875 27.203125 
L 10.59375 27.203125 
z
" id="DejaVuSans-8722"/>
       <path d="M 37.796875 64.3125 
L 12.890625 25.390625 
L 37.796875 25.390625 
z
M 35.203125 72.90625 
L 47.609375 72.90625 
L 47.609375 25.390625 
L 58.015625 25.390625 
L 58.015625 17.1875 
L 47.609375 17.1875 
L 47.609375 0 
L 37.796875 0 
L 37.796875 17.1875 
L 4.890625 17.1875 
L 4.890625 26.703125 
z
" id="DejaVuSans-52"/>
      </defs>
      <g transform="translate(96.613698 463.158437)scale(0.1 -0.1)">
       <use xlink:href="#DejaVuSans-8722"/>
       <use x="83.789062" xlink:href="#DejaVuSans-52"/>
      </g>
     </g>
    </g>
    <g id="xtick_2">
     <g id="line2d_2">
      <g>
       <use style="stroke:#000000;stroke-width:0.8;" x="186.949958" xlink:href="#m80bd276b5d" y="448.56"/>
      </g>
     </g>
     <g id="text_2">
      <!-- −2 -->
      <defs>
       <path d="M 19.1875 8.296875 
L 53.609375 8.296875 
L 53.609375 0 
L 7.328125 0 
L 7.328125 8.296875 
Q 12.9375 14.109375 22.625 23.890625 
Q 32.328125 33.6875 34.8125 36.53125 
Q 39.546875 41.84375 41.421875 45.53125 
Q 43.3125 49.21875 43.3125 52.78125 
Q 43.3125 58.59375 39.234375 62.25 
Q 35.15625 65.921875 28.609375 65.921875 
Q 23.96875 65.921875 18.8125 64.3125 
Q 13.671875 62.703125 7.8125 59.421875 
L 7.8125 69.390625 
Q 13.765625 71.78125 18.9375 73 
Q 24.125 74.21875 28.421875 74.21875 
Q 39.75 74.21875 46.484375 68.546875 
Q 53.21875 62.890625 53.21875 53.421875 
Q 53.21875 48.921875 51.53125 44.890625 
Q 49.859375 40.875 45.40625 35.40625 
Q 44.1875 33.984375 37.640625 27.21875 
Q 31.109375 20.453125 19.1875 8.296875 
z
" id="DejaVuSans-50"/>
      </defs>
      <g transform="translate(179.578864 463.158437)scale(0.1 -0.1)">
       <use xlink:href="#DejaVuSans-8722"/>
       <use x="83.789062" xlink:href="#DejaVuSans-50"/>
      </g>
     </g>
    </g>
    <g id="xtick_3">
     <g id="line2d_3">
      <g>
       <use style="stroke:#000000;stroke-width:0.8;" x="269.915123" xlink:href="#m80bd276b5d" y="448.56"/>
      </g>
     </g>
     <g id="text_3">
      <!-- 0 -->
      <defs>
       <path d="M 31.78125 66.40625 
Q 24.171875 66.40625 20.328125 58.90625 
Q 16.5 51.421875 16.5 36.375 
Q 16.5 21.390625 20.328125 13.890625 
Q 24.171875 6.390625 31.78125 6.390625 
Q 39.453125 6.390625 43.28125 13.890625 
Q 47.125 21.390625 47.125 36.375 
Q 47.125 51.421875 43.28125 58.90625 
Q 39.453125 66.40625 31.78125 66.40625 
z
M 31.78125 74.21875 
Q 44.046875 74.21875 50.515625 64.515625 
Q 56.984375 54.828125 56.984375 36.375 
Q 56.984375 17.96875 50.515625 8.265625 
Q 44.046875 -1.421875 31.78125 -1.421875 
Q 19.53125 -1.421875 13.0625 8.265625 
Q 6.59375 17.96875 6.59375 36.375 
Q 6.59375 54.828125 13.0625 64.515625 
Q 19.53125 74.21875 31.78125 74.21875 
z
" id="DejaVuSans-48"/>
      </defs>
      <g transform="translate(266.733873 463.158437)scale(0.1 -0.1)">
       <use xlink:href="#DejaVuSans-48"/>
      </g>
     </g>
    </g>
    <g id="xtick_4">
     <g id="line2d_4">
      <g>
       <use style="stroke:#000000;stroke-width:0.8;" x="352.880289" xlink:href="#m80bd276b5d" y="448.56"/>
      </g>
     </g>
     <g id="text_4">
      <!-- 2 -->
      <g transform="translate(349.699039 463.158437)scale(0.1 -0.1)">
       <use xlink:href="#DejaVuSans-50"/>
      </g>
     </g>
    </g>
    <g id="xtick_5">
     <g id="line2d_5">
      <g>
       <use style="stroke:#000000;stroke-width:0.8;" x="435.845455" xlink:href="#m80bd276b5d" y="448.56"/>
      </g>
     </g>
     <g id="text_5">
      <!-- 4 -->
      <g transform="translate(432.664205 463.158437)scale(0.1 -0.1)">
       <use xlink:href="#DejaVuSans-52"/>
      </g>
     </g>
    </g>
   </g>
   <g id="matplotlib.axis_2">
    <g id="ytick_1">
     <g id="line2d_6">
      <defs>
       <path d="M 0 0 
L -3.5 0 
" id="ma8724a52d7" style="stroke:#000000;stroke-width:0.8;"/>
      </defs>
      <g>
       <use style="stroke:#000000;stroke-width:0.8;" x="63" xlink:href="#ma8724a52d7" y="386.38128"/>
      </g>
     </g>
     <g id="text_6">
      <!-- $\mathdefault{10^{3}}$ -->
      <defs>
       <path d="M 12.40625 8.296875 
L 28.515625 8.296875 
L 28.515625 63.921875 
L 10.984375 60.40625 
L 10.984375 69.390625 
L 28.421875 72.90625 
L 38.28125 72.90625 
L 38.28125 8.296875 
L 54.390625 8.296875 
L 54.390625 0 
L 12.40625 0 
z
" id="DejaVuSans-49"/>
       <path d="M 40.578125 39.3125 
Q 47.65625 37.796875 51.625 33 
Q 55.609375 28.21875 55.609375 21.1875 
Q 55.609375 10.40625 48.1875 4.484375 
Q 40.765625 -1.421875 27.09375 -1.421875 
Q 22.515625 -1.421875 17.65625 -0.515625 
Q 12.796875 0.390625 7.625 2.203125 
L 7.625 11.71875 
Q 11.71875 9.328125 16.59375 8.109375 
Q 21.484375 6.890625 26.8125 6.890625 
Q 36.078125 6.890625 40.9375 10.546875 
Q 45.796875 14.203125 45.796875 21.1875 
Q 45.796875 27.640625 41.28125 31.265625 
Q 36.765625 34.90625 28.71875 34.90625 
L 20.21875 34.90625 
L 20.21875 43.015625 
L 29.109375 43.015625 
Q 36.375 43.015625 40.234375 45.921875 
Q 44.09375 48.828125 44.09375 54.296875 
Q 44.09375 59.90625 40.109375 62.90625 
Q 36.140625 65.921875 28.71875 65.921875 
Q 24.65625 65.921875 20.015625 65.03125 
Q 15.375 64.15625 9.8125 62.3125 
L 9.8125 71.09375 
Q 15.4375 72.65625 20.34375 73.4375 
Q 25.25 74.21875 29.59375 74.21875 
Q 40.828125 74.21875 47.359375 69.109375 
Q 53.90625 64.015625 53.90625 55.328125 
Q 53.90625 49.265625 50.4375 45.09375 
Q 46.96875 40.921875 40.578125 39.3125 
z
" id="DejaVuSans-51"/>
      </defs>
      <g transform="translate(38.4 390.180498)scale(0.1 -0.1)">
       <use transform="translate(0 0.765625)" xlink:href="#DejaVuSans-49"/>
       <use transform="translate(63.623047 0.765625)" xlink:href="#DejaVuSans-48"/>
       <use transform="translate(128.203125 39.046875)scale(0.7)" xlink:href="#DejaVuSans-51"/>
      </g>
     </g>
    </g>
    <g id="ytick_2">
     <g id="line2d_7">
      <g>
       <use style="stroke:#000000;stroke-width:0.8;" x="63" xlink:href="#ma8724a52d7" y="274.458077"/>
      </g>
     </g>
     <g id="text_7">
      <!-- $\mathdefault{10^{4}}$ -->
      <g transform="translate(38.4 278.257296)scale(0.1 -0.1)">
       <use transform="translate(0 0.684375)" xlink:href="#DejaVuSans-49"/>
       <use transform="translate(63.623047 0.684375)" xlink:href="#DejaVuSans-48"/>
       <use transform="translate(128.203125 38.965625)scale(0.7)" xlink:href="#DejaVuSans-52"/>
      </g>
     </g>
    </g>
    <g id="ytick_3">
     <g id="line2d_8">
      <g>
       <use style="stroke:#000000;stroke-width:0.8;" x="63" xlink:href="#ma8724a52d7" y="162.534874"/>
      </g>
     </g>
     <g id="text_8">
      <!-- $\mathdefault{10^{5}}$ -->
      <defs>
       <path d="M 10.796875 72.90625 
L 49.515625 72.90625 
L 49.515625 64.59375 
L 19.828125 64.59375 
L 19.828125 46.734375 
Q 21.96875 47.46875 24.109375 47.828125 
Q 26.265625 48.1875 28.421875 48.1875 
Q 40.625 48.1875 47.75 41.5 
Q 54.890625 34.8125 54.890625 23.390625 
Q 54.890625 11.625 47.5625 5.09375 
Q 40.234375 -1.421875 26.90625 -1.421875 
Q 22.3125 -1.421875 17.546875 -0.640625 
Q 12.796875 0.140625 7.71875 1.703125 
L 7.71875 11.625 
Q 12.109375 9.234375 16.796875 8.0625 
Q 21.484375 6.890625 26.703125 6.890625 
Q 35.15625 6.890625 40.078125 11.328125 
Q 45.015625 15.765625 45.015625 23.390625 
Q 45.015625 31 40.078125 35.4375 
Q 35.15625 39.890625 26.703125 39.890625 
Q 22.75 39.890625 18.8125 39.015625 
Q 14.890625 38.140625 10.796875 36.28125 
z
" id="DejaVuSans-53"/>
      </defs>
      <g transform="translate(38.4 166.334093)scale(0.1 -0.1)">
       <use transform="translate(0 0.684375)" xlink:href="#DejaVuSans-49"/>
       <use transform="translate(63.623047 0.684375)" xlink:href="#DejaVuSans-48"/>
       <use transform="translate(128.203125 38.965625)scale(0.7)" xlink:href="#DejaVuSans-53"/>
      </g>
     </g>
    </g>
    <g id="ytick_4">
     <g id="line2d_9">
      <defs>
       <path d="M 0 0 
L -2 0 
" id="m60a95c4831" style="stroke:#000000;stroke-width:0.6;"/>
      </defs>
      <g>
       <use style="stroke:#000000;stroke-width:0.6;" x="63" xlink:href="#m60a95c4831" y="444.903544"/>
      </g>
     </g>
    </g>
    <g id="ytick_5">
     <g id="line2d_10">
      <g>
       <use style="stroke:#000000;stroke-width:0.6;" x="63" xlink:href="#m60a95c4831" y="430.92"/>
      </g>
     </g>
    </g>
    <g id="ytick_6">
     <g id="line2d_11">
      <g>
       <use style="stroke:#000000;stroke-width:0.6;" x="63" xlink:href="#m60a95c4831" y="420.073521"/>
      </g>
     </g>
    </g>
    <g id="ytick_7">
     <g id="line2d_12">
      <g>
       <use style="stroke:#000000;stroke-width:0.6;" x="63" xlink:href="#m60a95c4831" y="411.211302"/>
      </g>
     </g>
    </g>
    <g id="ytick_8">
     <g id="line2d_13">
      <g>
       <use style="stroke:#000000;stroke-width:0.6;" x="63" xlink:href="#m60a95c4831" y="403.718403"/>
      </g>
     </g>
    </g>
    <g id="ytick_9">
     <g id="line2d_14">
      <g>
       <use style="stroke:#000000;stroke-width:0.6;" x="63" xlink:href="#m60a95c4831" y="397.227759"/>
      </g>
     </g>
    </g>
    <g id="ytick_10">
     <g id="line2d_15">
      <g>
       <use style="stroke:#000000;stroke-width:0.6;" x="63" xlink:href="#m60a95c4831" y="391.502605"/>
      </g>
     </g>
    </g>
    <g id="ytick_11">
     <g id="line2d_16">
      <g>
       <use style="stroke:#000000;stroke-width:0.6;" x="63" xlink:href="#m60a95c4831" y="352.689038"/>
      </g>
     </g>
    </g>
    <g id="ytick_12">
     <g id="line2d_17">
      <g>
       <use style="stroke:#000000;stroke-width:0.6;" x="63" xlink:href="#m60a95c4831" y="332.980341"/>
      </g>
     </g>
    </g>
    <g id="ytick_13">
     <g id="line2d_18">
      <g>
       <use style="stroke:#000000;stroke-width:0.6;" x="63" xlink:href="#m60a95c4831" y="318.996797"/>
      </g>
     </g>
    </g>
    <g id="ytick_14">
     <g id="line2d_19">
      <g>
       <use style="stroke:#000000;stroke-width:0.6;" x="63" xlink:href="#m60a95c4831" y="308.150318"/>
      </g>
     </g>
    </g>
    <g id="ytick_15">
     <g id="line2d_20">
      <g>
       <use style="stroke:#000000;stroke-width:0.6;" x="63" xlink:href="#m60a95c4831" y="299.288099"/>
      </g>
     </g>
    </g>
    <g id="ytick_16">
     <g id="line2d_21">
      <g>
       <use style="stroke:#000000;stroke-width:0.6;" x="63" xlink:href="#m60a95c4831" y="291.7952"/>
      </g>
     </g>
    </g>
    <g id="ytick_17">
     <g id="line2d_22">
      <g>
       <use style="stroke:#000000;stroke-width:0.6;" x="63" xlink:href="#m60a95c4831" y="285.304556"/>
      </g>
     </g>
    </g>
    <g id="ytick_18">
     <g id="line2d_23">
      <g>
       <use style="stroke:#000000;stroke-width:0.6;" x="63" xlink:href="#m60a95c4831" y="279.579402"/>
      </g>
     </g>
    </g>
    <g id="ytick_19">
     <g id="line2d_24">
      <g>
       <use style="stroke:#000000;stroke-width:0.6;" x="63" xlink:href="#m60a95c4831" y="240.765836"/>
      </g>
     </g>
    </g>
    <g id="ytick_20">
     <g id="line2d_25">
      <g>
       <use style="stroke:#000000;stroke-width:0.6;" x="63" xlink:href="#m60a95c4831" y="221.057138"/>
      </g>
     </g>
    </g>
    <g id="ytick_21">
     <g id="line2d_26">
      <g>
       <use style="stroke:#000000;stroke-width:0.6;" x="63" xlink:href="#m60a95c4831" y="207.073594"/>
      </g>
     </g>
    </g>
    <g id="ytick_22">
     <g id="line2d_27">
      <g>
       <use style="stroke:#000000;stroke-width:0.6;" x="63" xlink:href="#m60a95c4831" y="196.227115"/>
      </g>
     </g>
    </g>
    <g id="ytick_23">
     <g id="line2d_28">
      <g>
       <use style="stroke:#000000;stroke-width:0.6;" x="63" xlink:href="#m60a95c4831" y="187.364897"/>
      </g>
     </g>
    </g>
    <g id="ytick_24">
     <g id="line2d_29">
      <g>
       <use style="stroke:#000000;stroke-width:0.6;" x="63" xlink:href="#m60a95c4831" y="179.871997"/>
      </g>
     </g>
    </g>
    <g id="ytick_25">
     <g id="line2d_30">
      <g>
       <use style="stroke:#000000;stroke-width:0.6;" x="63" xlink:href="#m60a95c4831" y="173.381353"/>
      </g>
     </g>
    </g>
    <g id="ytick_26">
     <g id="line2d_31">
      <g>
       <use style="stroke:#000000;stroke-width:0.6;" x="63" xlink:href="#m60a95c4831" y="167.656199"/>
      </g>
     </g>
    </g>
    <g id="ytick_27">
     <g id="line2d_32">
      <g>
       <use style="stroke:#000000;stroke-width:0.6;" x="63" xlink:href="#m60a95c4831" y="128.842633"/>
      </g>
     </g>
    </g>
    <g id="ytick_28">
     <g id="line2d_33">
      <g>
       <use style="stroke:#000000;stroke-width:0.6;" x="63" xlink:href="#m60a95c4831" y="109.133935"/>
      </g>
     </g>
    </g>
    <g id="ytick_29">
     <g id="line2d_34">
      <g>
       <use style="stroke:#000000;stroke-width:0.6;" x="63" xlink:href="#m60a95c4831" y="95.150391"/>
      </g>
     </g>
    </g>
    <g id="ytick_30">
     <g id="line2d_35">
      <g>
       <use style="stroke:#000000;stroke-width:0.6;" x="63" xlink:href="#m60a95c4831" y="84.303912"/>
      </g>
     </g>
    </g>
    <g id="ytick_31">
     <g id="line2d_36">
      <g>
       <use style="stroke:#000000;stroke-width:0.6;" x="63" xlink:href="#m60a95c4831" y="75.441694"/>
      </g>
     </g>
    </g>
    <g id="ytick_32">
     <g id="line2d_37">
      <g>
       <use style="stroke:#000000;stroke-width:0.6;" x="63" xlink:href="#m60a95c4831" y="67.948795"/>
      </g>
     </g>
    </g>
    <g id="ytick_33">
     <g id="line2d_38">
      <g>
       <use style="stroke:#000000;stroke-width:0.6;" x="63" xlink:href="#m60a95c4831" y="61.45815"/>
      </g>
     </g>
    </g>
   </g>
   <g id="patch_204">
    <path d="M 63 448.56 
L 63 60.48 
" style="fill:none;stroke:#000000;stroke-linecap:square;stroke-linejoin:miter;stroke-width:0.8;"/>
   </g>
   <g id="patch_205">
    <path d="M 453.6 448.56 
L 453.6 60.48 
" style="fill:none;stroke:#000000;stroke-linecap:square;stroke-linejoin:miter;stroke-width:0.8;"/>
   </g>
   <g id="patch_206">
    <path d="M 63 448.56 
L 453.6 448.56 
" style="fill:none;stroke:#000000;stroke-linecap:square;stroke-linejoin:miter;stroke-width:0.8;"/>
   </g>
   <g id="patch_207">
    <path d="M 63 60.48 
L 453.6 60.48 
" style="fill:none;stroke:#000000;stroke-linecap:square;stroke-linejoin:miter;stroke-width:0.8;"/>
   </g>
   <g id="text_9">
    <!-- Bid/Ask Gap Distribution -->
    <defs>
     <path d="M 19.671875 34.8125 
L 19.671875 8.109375 
L 35.5 8.109375 
Q 43.453125 8.109375 47.28125 11.40625 
Q 51.125 14.703125 51.125 21.484375 
Q 51.125 28.328125 47.28125 31.5625 
Q 43.453125 34.8125 35.5 34.8125 
z
M 19.671875 64.796875 
L 19.671875 42.828125 
L 34.28125 42.828125 
Q 41.5 42.828125 45.03125 45.53125 
Q 48.578125 48.25 48.578125 53.8125 
Q 48.578125 59.328125 45.03125 62.0625 
Q 41.5 64.796875 34.28125 64.796875 
z
M 9.8125 72.90625 
L 35.015625 72.90625 
Q 46.296875 72.90625 52.390625 68.21875 
Q 58.5 63.53125 58.5 54.890625 
Q 58.5 48.1875 55.375 44.234375 
Q 52.25 40.28125 46.1875 39.3125 
Q 53.46875 37.75 57.5 32.78125 
Q 61.53125 27.828125 61.53125 20.40625 
Q 61.53125 10.640625 54.890625 5.3125 
Q 48.25 0 35.984375 0 
L 9.8125 0 
z
" id="DejaVuSans-66"/>
     <path d="M 9.421875 54.6875 
L 18.40625 54.6875 
L 18.40625 0 
L 9.421875 0 
z
M 9.421875 75.984375 
L 18.40625 75.984375 
L 18.40625 64.59375 
L 9.421875 64.59375 
z
" id="DejaVuSans-105"/>
     <path d="M 45.40625 46.390625 
L 45.40625 75.984375 
L 54.390625 75.984375 
L 54.390625 0 
L 45.40625 0 
L 45.40625 8.203125 
Q 42.578125 3.328125 38.25 0.953125 
Q 33.9375 -1.421875 27.875 -1.421875 
Q 17.96875 -1.421875 11.734375 6.484375 
Q 5.515625 14.40625 5.515625 27.296875 
Q 5.515625 40.1875 11.734375 48.09375 
Q 17.96875 56 27.875 56 
Q 33.9375 56 38.25 53.625 
Q 42.578125 51.265625 45.40625 46.390625 
z
M 14.796875 27.296875 
Q 14.796875 17.390625 18.875 11.75 
Q 22.953125 6.109375 30.078125 6.109375 
Q 37.203125 6.109375 41.296875 11.75 
Q 45.40625 17.390625 45.40625 27.296875 
Q 45.40625 37.203125 41.296875 42.84375 
Q 37.203125 48.484375 30.078125 48.484375 
Q 22.953125 48.484375 18.875 42.84375 
Q 14.796875 37.203125 14.796875 27.296875 
z
" id="DejaVuSans-100"/>
     <path d="M 25.390625 72.90625 
L 33.6875 72.90625 
L 8.296875 -9.28125 
L 0 -9.28125 
z
" id="DejaVuSans-47"/>
     <path d="M 34.1875 63.1875 
L 20.796875 26.90625 
L 47.609375 26.90625 
z
M 28.609375 72.90625 
L 39.796875 72.90625 
L 67.578125 0 
L 57.328125 0 
L 50.6875 18.703125 
L 17.828125 18.703125 
L 11.1875 0 
L 0.78125 0 
z
" id="DejaVuSans-65"/>
     <path d="M 44.28125 53.078125 
L 44.28125 44.578125 
Q 40.484375 46.53125 36.375 47.5 
Q 32.28125 48.484375 27.875 48.484375 
Q 21.1875 48.484375 17.84375 46.4375 
Q 14.5 44.390625 14.5 40.28125 
Q 14.5 37.15625 16.890625 35.375 
Q 19.28125 33.59375 26.515625 31.984375 
L 29.59375 31.296875 
Q 39.15625 29.25 43.1875 25.515625 
Q 47.21875 21.78125 47.21875 15.09375 
Q 47.21875 7.46875 41.1875 3.015625 
Q 35.15625 -1.421875 24.609375 -1.421875 
Q 20.21875 -1.421875 15.453125 -0.5625 
Q 10.6875 0.296875 5.421875 2 
L 5.421875 11.28125 
Q 10.40625 8.6875 15.234375 7.390625 
Q 20.0625 6.109375 24.8125 6.109375 
Q 31.15625 6.109375 34.5625 8.28125 
Q 37.984375 10.453125 37.984375 14.40625 
Q 37.984375 18.0625 35.515625 20.015625 
Q 33.0625 21.96875 24.703125 23.78125 
L 21.578125 24.515625 
Q 13.234375 26.265625 9.515625 29.90625 
Q 5.8125 33.546875 5.8125 39.890625 
Q 5.8125 47.609375 11.28125 51.796875 
Q 16.75 56 26.8125 56 
Q 31.78125 56 36.171875 55.265625 
Q 40.578125 54.546875 44.28125 53.078125 
z
" id="DejaVuSans-115"/>
     <path d="M 9.078125 75.984375 
L 18.109375 75.984375 
L 18.109375 31.109375 
L 44.921875 54.6875 
L 56.390625 54.6875 
L 27.390625 29.109375 
L 57.625 0 
L 45.90625 0 
L 18.109375 26.703125 
L 18.109375 0 
L 9.078125 0 
z
" id="DejaVuSans-107"/>
     <path id="DejaVuSans-32"/>
     <path d="M 59.515625 10.40625 
L 59.515625 29.984375 
L 43.40625 29.984375 
L 43.40625 38.09375 
L 69.28125 38.09375 
L 69.28125 6.78125 
Q 63.578125 2.734375 56.6875 0.65625 
Q 49.8125 -1.421875 42 -1.421875 
Q 24.90625 -1.421875 15.25 8.5625 
Q 5.609375 18.5625 5.609375 36.375 
Q 5.609375 54.25 15.25 64.234375 
Q 24.90625 74.21875 42 74.21875 
Q 49.125 74.21875 55.546875 72.453125 
Q 61.96875 70.703125 67.390625 67.28125 
L 67.390625 56.78125 
Q 61.921875 61.421875 55.765625 63.765625 
Q 49.609375 66.109375 42.828125 66.109375 
Q 29.4375 66.109375 22.71875 58.640625 
Q 16.015625 51.171875 16.015625 36.375 
Q 16.015625 21.625 22.71875 14.15625 
Q 29.4375 6.6875 42.828125 6.6875 
Q 48.046875 6.6875 52.140625 7.59375 
Q 56.25 8.5 59.515625 10.40625 
z
" id="DejaVuSans-71"/>
     <path d="M 34.28125 27.484375 
Q 23.390625 27.484375 19.1875 25 
Q 14.984375 22.515625 14.984375 16.5 
Q 14.984375 11.71875 18.140625 8.90625 
Q 21.296875 6.109375 26.703125 6.109375 
Q 34.1875 6.109375 38.703125 11.40625 
Q 43.21875 16.703125 43.21875 25.484375 
L 43.21875 27.484375 
z
M 52.203125 31.203125 
L 52.203125 0 
L 43.21875 0 
L 43.21875 8.296875 
Q 40.140625 3.328125 35.546875 0.953125 
Q 30.953125 -1.421875 24.3125 -1.421875 
Q 15.921875 -1.421875 10.953125 3.296875 
Q 6 8.015625 6 15.921875 
Q 6 25.140625 12.171875 29.828125 
Q 18.359375 34.515625 30.609375 34.515625 
L 43.21875 34.515625 
L 43.21875 35.40625 
Q 43.21875 41.609375 39.140625 45 
Q 35.0625 48.390625 27.6875 48.390625 
Q 23 48.390625 18.546875 47.265625 
Q 14.109375 46.140625 10.015625 43.890625 
L 10.015625 52.203125 
Q 14.9375 54.109375 19.578125 55.046875 
Q 24.21875 56 28.609375 56 
Q 40.484375 56 46.34375 49.84375 
Q 52.203125 43.703125 52.203125 31.203125 
z
" id="DejaVuSans-97"/>
     <path d="M 18.109375 8.203125 
L 18.109375 -20.796875 
L 9.078125 -20.796875 
L 9.078125 54.6875 
L 18.109375 54.6875 
L 18.109375 46.390625 
Q 20.953125 51.265625 25.265625 53.625 
Q 29.59375 56 35.59375 56 
Q 45.5625 56 51.78125 48.09375 
Q 58.015625 40.1875 58.015625 27.296875 
Q 58.015625 14.40625 51.78125 6.484375 
Q 45.5625 -1.421875 35.59375 -1.421875 
Q 29.59375 -1.421875 25.265625 0.953125 
Q 20.953125 3.328125 18.109375 8.203125 
z
M 48.6875 27.296875 
Q 48.6875 37.203125 44.609375 42.84375 
Q 40.53125 48.484375 33.40625 48.484375 
Q 26.265625 48.484375 22.1875 42.84375 
Q 18.109375 37.203125 18.109375 27.296875 
Q 18.109375 17.390625 22.1875 11.75 
Q 26.265625 6.109375 33.40625 6.109375 
Q 40.53125 6.109375 44.609375 11.75 
Q 48.6875 17.390625 48.6875 27.296875 
z
" id="DejaVuSans-112"/>
     <path d="M 19.671875 64.796875 
L 19.671875 8.109375 
L 31.59375 8.109375 
Q 46.6875 8.109375 53.6875 14.9375 
Q 60.6875 21.78125 60.6875 36.53125 
Q 60.6875 51.171875 53.6875 57.984375 
Q 46.6875 64.796875 31.59375 64.796875 
z
M 9.8125 72.90625 
L 30.078125 72.90625 
Q 51.265625 72.90625 61.171875 64.09375 
Q 71.09375 55.28125 71.09375 36.53125 
Q 71.09375 17.671875 61.125 8.828125 
Q 51.171875 0 30.078125 0 
L 9.8125 0 
z
" id="DejaVuSans-68"/>
     <path d="M 18.3125 70.21875 
L 18.3125 54.6875 
L 36.8125 54.6875 
L 36.8125 47.703125 
L 18.3125 47.703125 
L 18.3125 18.015625 
Q 18.3125 11.328125 20.140625 9.421875 
Q 21.96875 7.515625 27.59375 7.515625 
L 36.8125 7.515625 
L 36.8125 0 
L 27.59375 0 
Q 17.1875 0 13.234375 3.875 
Q 9.28125 7.765625 9.28125 18.015625 
L 9.28125 47.703125 
L 2.6875 47.703125 
L 2.6875 54.6875 
L 9.28125 54.6875 
L 9.28125 70.21875 
z
" id="DejaVuSans-116"/>
     <path d="M 41.109375 46.296875 
Q 39.59375 47.171875 37.8125 47.578125 
Q 36.03125 48 33.890625 48 
Q 26.265625 48 22.1875 43.046875 
Q 18.109375 38.09375 18.109375 28.8125 
L 18.109375 0 
L 9.078125 0 
L 9.078125 54.6875 
L 18.109375 54.6875 
L 18.109375 46.1875 
Q 20.953125 51.171875 25.484375 53.578125 
Q 30.03125 56 36.53125 56 
Q 37.453125 56 38.578125 55.875 
Q 39.703125 55.765625 41.0625 55.515625 
z
" id="DejaVuSans-114"/>
     <path d="M 48.6875 27.296875 
Q 48.6875 37.203125 44.609375 42.84375 
Q 40.53125 48.484375 33.40625 48.484375 
Q 26.265625 48.484375 22.1875 42.84375 
Q 18.109375 37.203125 18.109375 27.296875 
Q 18.109375 17.390625 22.1875 11.75 
Q 26.265625 6.109375 33.40625 6.109375 
Q 40.53125 6.109375 44.609375 11.75 
Q 48.6875 17.390625 48.6875 27.296875 
z
M 18.109375 46.390625 
Q 20.953125 51.265625 25.265625 53.625 
Q 29.59375 56 35.59375 56 
Q 45.5625 56 51.78125 48.09375 
Q 58.015625 40.1875 58.015625 27.296875 
Q 58.015625 14.40625 51.78125 6.484375 
Q 45.5625 -1.421875 35.59375 -1.421875 
Q 29.59375 -1.421875 25.265625 0.953125 
Q 20.953125 3.328125 18.109375 8.203125 
L 18.109375 0 
L 9.078125 0 
L 9.078125 75.984375 
L 18.109375 75.984375 
z
" id="DejaVuSans-98"/>
     <path d="M 8.5 21.578125 
L 8.5 54.6875 
L 17.484375 54.6875 
L 17.484375 21.921875 
Q 17.484375 14.15625 20.5 10.265625 
Q 23.53125 6.390625 29.59375 6.390625 
Q 36.859375 6.390625 41.078125 11.03125 
Q 45.3125 15.671875 45.3125 23.6875 
L 45.3125 54.6875 
L 54.296875 54.6875 
L 54.296875 0 
L 45.3125 0 
L 45.3125 8.40625 
Q 42.046875 3.421875 37.71875 1 
Q 33.40625 -1.421875 27.6875 -1.421875 
Q 18.265625 -1.421875 13.375 4.4375 
Q 8.5 10.296875 8.5 21.578125 
z
M 31.109375 56 
z
" id="DejaVuSans-117"/>
     <path d="M 30.609375 48.390625 
Q 23.390625 48.390625 19.1875 42.75 
Q 14.984375 37.109375 14.984375 27.296875 
Q 14.984375 17.484375 19.15625 11.84375 
Q 23.34375 6.203125 30.609375 6.203125 
Q 37.796875 6.203125 41.984375 11.859375 
Q 46.1875 17.53125 46.1875 27.296875 
Q 46.1875 37.015625 41.984375 42.703125 
Q 37.796875 48.390625 30.609375 48.390625 
z
M 30.609375 56 
Q 42.328125 56 49.015625 48.375 
Q 55.71875 40.765625 55.71875 27.296875 
Q 55.71875 13.875 49.015625 6.21875 
Q 42.328125 -1.421875 30.609375 -1.421875 
Q 18.84375 -1.421875 12.171875 6.21875 
Q 5.515625 13.875 5.515625 27.296875 
Q 5.515625 40.765625 12.171875 48.375 
Q 18.84375 56 30.609375 56 
z
" id="DejaVuSans-111"/>
     <path d="M 54.890625 33.015625 
L 54.890625 0 
L 45.90625 0 
L 45.90625 32.71875 
Q 45.90625 40.484375 42.875 44.328125 
Q 39.84375 48.1875 33.796875 48.1875 
Q 26.515625 48.1875 22.3125 43.546875 
Q 18.109375 38.921875 18.109375 30.90625 
L 18.109375 0 
L 9.078125 0 
L 9.078125 54.6875 
L 18.109375 54.6875 
L 18.109375 46.1875 
Q 21.34375 51.125 25.703125 53.5625 
Q 30.078125 56 35.796875 56 
Q 45.21875 56 50.046875 50.171875 
Q 54.890625 44.34375 54.890625 33.015625 
z
" id="DejaVuSans-110"/>
    </defs>
    <g transform="translate(185.030625 54.48)scale(0.12 -0.12)">
     <use xlink:href="#DejaVuSans-66"/>
     <use x="68.603516" xlink:href="#DejaVuSans-105"/>
     <use x="96.386719" xlink:href="#DejaVuSans-100"/>
     <use x="159.863281" xlink:href="#DejaVuSans-47"/>
     <use x="193.554688" xlink:href="#DejaVuSans-65"/>
     <use x="261.962891" xlink:href="#DejaVuSans-115"/>
     <use x="314.0625" xlink:href="#DejaVuSans-107"/>
     <use x="371.972656" xlink:href="#DejaVuSans-32"/>
     <use x="403.759766" xlink:href="#DejaVuSans-71"/>
     <use x="481.25" xlink:href="#DejaVuSans-97"/>
     <use x="542.529297" xlink:href="#DejaVuSans-112"/>
     <use x="606.005859" xlink:href="#DejaVuSans-32"/>
     <use x="637.792969" xlink:href="#DejaVuSans-68"/>
     <use x="714.794922" xlink:href="#DejaVuSans-105"/>
     <use x="742.578125" xlink:href="#DejaVuSans-115"/>
     <use x="794.677734" xlink:href="#DejaVuSans-116"/>
     <use x="833.886719" xlink:href="#DejaVuSans-114"/>
     <use x="875" xlink:href="#DejaVuSans-105"/>
     <use x="902.783203" xlink:href="#DejaVuSans-98"/>
     <use x="966.259766" xlink:href="#DejaVuSans-117"/>
     <use x="1029.638672" xlink:href="#DejaVuSans-116"/>
     <use x="1068.847656" xlink:href="#DejaVuSans-105"/>
     <use x="1096.630859" xlink:href="#DejaVuSans-111"/>
     <use x="1157.8125" xlink:href="#DejaVuSans-110"/>
    </g>
   </g>
  </g>
 </g>
 <defs>
  <clipPath id="p9f4e2cae44">
   <rect height="388.08" width="390.6" x="63" y="60.48"/>
  </clipPath>
 </defs>
</svg>
