<?xml version="1.0" encoding="utf-8" standalone="no"?>
<!DOCTYPE svg PUBLIC "-//W3C//DTD SVG 1.1//EN"
  "http://www.w3.org/Graphics/SVG/1.1/DTD/svg11.dtd">
<!-- Created with matplotlib (http://matplotlib.org/) -->
<svg height="504pt" version="1.1" viewBox="0 0 504 504" width="504pt" xmlns="http://www.w3.org/2000/svg" xmlns:xlink="http://www.w3.org/1999/xlink">
 <defs>
  <style type="text/css">
*{stroke-linecap:butt;stroke-linejoin:round;}
  </style>
 </defs>
 <g id="figure_1">
  <g id="patch_1">
   <path d="M 0 504 
L 504 504 
L 504 0 
L 0 0 
z
" style="fill:#ffffff;"/>
  </g>
  <g id="axes_1">
   <g id="patch_2">
    <path d="M 63 448.56 
L 453.6 448.56 
L 453.6 60.48 
L 63 60.48 
z
" style="fill:#ffffff;"/>
   </g>
   <g id="patch_3">
    <path clip-path="url(#pd6f8379f81)" d="M 173.167157 143718.26743 
L 175.393244 143718.26743 
L 175.393244 78.12 
L 173.167157 78.12 
z
" style="fill:#d490c6;opacity:0.4;"/>
   </g>
   <g id="patch_4">
    <path clip-path="url(#pd6f8379f81)" d="M 175.393244 143718.26743 
L 177.619331 143718.26743 
L 177.619331 141.838982 
L 175.393244 141.838982 
z
" style="fill:#d490c6;opacity:0.4;"/>
   </g>
   <g id="patch_5">
    <path clip-path="url(#pd6f8379f81)" d="M 177.619331 143718.26743 
L 179.845419 143718.26743 
L 179.845419 157.756314 
L 177.619331 157.756314 
z
" style="fill:#d490c6;opacity:0.4;"/>
   </g>
   <g id="patch_6">
    <path clip-path="url(#pd6f8379f81)" d="M 179.845419 143718.26743 
L 182.071506 143718.26743 
L 182.071506 215.537621 
L 179.845419 215.537621 
z
" style="fill:#d490c6;opacity:0.4;"/>
   </g>
   <g id="patch_7">
    <path clip-path="url(#pd6f8379f81)" d="M 182.071506 143718.26743 
L 184.297593 143718.26743 
L 184.297593 212.415252 
L 182.071506 212.415252 
z
" style="fill:#d490c6;opacity:0.4;"/>
   </g>
   <g id="patch_8">
    <path clip-path="url(#pd6f8379f81)" d="M 184.297593 143718.26743 
L 186.52368 143718.26743 
L 186.52368 246.780782 
L 184.297593 246.780782 
z
" style="fill:#d490c6;opacity:0.4;"/>
   </g>
   <g id="patch_9">
    <path clip-path="url(#pd6f8379f81)" d="M 186.52368 143718.26743 
L 188.749768 143718.26743 
L 188.749768 228.260507 
L 186.52368 228.260507 
z
" style="fill:#d490c6;opacity:0.4;"/>
   </g>
   <g id="patch_10">
    <path clip-path="url(#pd6f8379f81)" d="M 188.749768 143718.26743 
L 190.975855 143718.26743 
L 190.975855 270.967754 
L 188.749768 270.967754 
z
" style="fill:#d490c6;opacity:0.4;"/>
   </g>
   <g id="patch_11">
    <path clip-path="url(#pd6f8379f81)" d="M 190.975855 143718.26743 
L 193.201942 143718.26743 
L 193.201942 189.908238 
L 190.975855 189.908238 
z
" style="fill:#d490c6;opacity:0.4;"/>
   </g>
   <g id="patch_12">
    <path clip-path="url(#pd6f8379f81)" d="M 193.201942 143718.26743 
L 195.428029 143718.26743 
L 195.428029 327.792264 
L 193.201942 327.792264 
z
" style="fill:#d490c6;opacity:0.4;"/>
   </g>
   <g id="patch_13">
    <path clip-path="url(#pd6f8379f81)" d="M 195.428029 143718.26743 
L 197.654117 143718.26743 
L 197.654117 413.764428 
L 195.428029 413.764428 
z
" style="fill:#d490c6;opacity:0.4;"/>
   </g>
   <g id="patch_14">
    <path clip-path="url(#pd6f8379f81)" d="M 197.654117 143718.26743 
L 199.880204 143718.26743 
L 199.880204 327.792264 
L 197.654117 327.792264 
z
" style="fill:#d490c6;opacity:0.4;"/>
   </g>
   <g id="patch_15">
    <path clip-path="url(#pd6f8379f81)" d="M 199.880204 143718.26743 
L 202.106291 143718.26743 
L 202.106291 413.764428 
L 199.880204 413.764428 
z
" style="fill:#d490c6;opacity:0.4;"/>
   </g>
   <g id="patch_16">
    <path clip-path="url(#pd6f8379f81)" d="M 202.106291 143718.26743 
L 204.332379 143718.26743 
L 204.332379 413.764428 
L 202.106291 413.764428 
z
" style="fill:#d490c6;opacity:0.4;"/>
   </g>
   <g id="patch_17">
    <path clip-path="url(#pd6f8379f81)" d="M 204.332379 143718.26743 
L 206.558466 143718.26743 
L 206.558466 413.764428 
L 204.332379 413.764428 
z
" style="fill:#d490c6;opacity:0.4;"/>
   </g>
   <g id="patch_18">
    <path clip-path="url(#pd6f8379f81)" d="M 206.558466 143718.26743 
L 208.784553 143718.26743 
L 208.784553 370.778346 
L 206.558466 370.778346 
z
" style="fill:#d490c6;opacity:0.4;"/>
   </g>
   <g id="patch_19">
    <path clip-path="url(#pd6f8379f81)" d="M 208.784553 143718.26743 
L 211.01064 143718.26743 
L 211.01064 143718.26743 
L 208.784553 143718.26743 
z
" style="fill:#d490c6;opacity:0.4;"/>
   </g>
   <g id="patch_20">
    <path clip-path="url(#pd6f8379f81)" d="M 211.01064 143718.26743 
L 213.236728 143718.26743 
L 213.236728 345.6331 
L 211.01064 345.6331 
z
" style="fill:#d490c6;opacity:0.4;"/>
   </g>
   <g id="patch_21">
    <path clip-path="url(#pd6f8379f81)" d="M 213.236728 143718.26743 
L 215.462815 143718.26743 
L 215.462815 269.245123 
L 213.236728 269.245123 
z
" style="fill:#d490c6;opacity:0.4;"/>
   </g>
   <g id="patch_22">
    <path clip-path="url(#pd6f8379f81)" d="M 215.462815 143718.26743 
L 217.688902 143718.26743 
L 217.688902 143718.26743 
L 215.462815 143718.26743 
z
" style="fill:#d490c6;opacity:0.4;"/>
   </g>
   <g id="patch_23">
    <path clip-path="url(#pd6f8379f81)" d="M 217.688902 143718.26743 
L 219.914989 143718.26743 
L 219.914989 143718.26743 
L 217.688902 143718.26743 
z
" style="fill:#d490c6;opacity:0.4;"/>
   </g>
   <g id="patch_24">
    <path clip-path="url(#pd6f8379f81)" d="M 219.914989 143718.26743 
L 222.141077 143718.26743 
L 222.141077 143718.26743 
L 219.914989 143718.26743 
z
" style="fill:#d490c6;opacity:0.4;"/>
   </g>
   <g id="patch_25">
    <path clip-path="url(#pd6f8379f81)" d="M 222.141077 143718.26743 
L 224.367164 143718.26743 
L 224.367164 430.783851 
L 222.141077 430.783851 
z
" style="fill:#d490c6;opacity:0.4;"/>
   </g>
   <g id="patch_26">
    <path clip-path="url(#pd6f8379f81)" d="M 224.367164 143718.26743 
L 226.593251 143718.26743 
L 226.593251 143718.26743 
L 224.367164 143718.26743 
z
" style="fill:#d490c6;opacity:0.4;"/>
   </g>
   <g id="patch_27">
    <path clip-path="url(#pd6f8379f81)" d="M 226.593251 143718.26743 
L 228.819338 143718.26743 
L 228.819338 143718.26743 
L 226.593251 143718.26743 
z
" style="fill:#d490c6;opacity:0.4;"/>
   </g>
   <g id="patch_28">
    <path clip-path="url(#pd6f8379f81)" d="M 228.819338 143718.26743 
L 231.045426 143718.26743 
L 231.045426 143718.26743 
L 228.819338 143718.26743 
z
" style="fill:#d490c6;opacity:0.4;"/>
   </g>
   <g id="patch_29">
    <path clip-path="url(#pd6f8379f81)" d="M 231.045426 143718.26743 
L 233.271513 143718.26743 
L 233.271513 143718.26743 
L 231.045426 143718.26743 
z
" style="fill:#d490c6;opacity:0.4;"/>
   </g>
   <g id="patch_30">
    <path clip-path="url(#pd6f8379f81)" d="M 233.271513 143718.26743 
L 235.4976 143718.26743 
L 235.4976 356.459439 
L 233.271513 356.459439 
z
" style="fill:#d490c6;opacity:0.4;"/>
   </g>
   <g id="patch_31">
    <path clip-path="url(#pd6f8379f81)" d="M 235.4976 143718.26743 
L 237.723688 143718.26743 
L 237.723688 413.764428 
L 235.4976 413.764428 
z
" style="fill:#d490c6;opacity:0.4;"/>
   </g>
   <g id="patch_32">
    <path clip-path="url(#pd6f8379f81)" d="M 237.723688 143718.26743 
L 239.949775 143718.26743 
L 239.949775 143718.26743 
L 237.723688 143718.26743 
z
" style="fill:#d490c6;opacity:0.4;"/>
   </g>
   <g id="patch_33">
    <path clip-path="url(#pd6f8379f81)" d="M 239.949775 143718.26743 
L 242.175862 143718.26743 
L 242.175862 143718.26743 
L 239.949775 143718.26743 
z
" style="fill:#d490c6;opacity:0.4;"/>
   </g>
   <g id="patch_34">
    <path clip-path="url(#pd6f8379f81)" d="M 242.175862 143718.26743 
L 244.401949 143718.26743 
L 244.401949 378.725615 
L 242.175862 378.725615 
z
" style="fill:#d490c6;opacity:0.4;"/>
   </g>
   <g id="patch_35">
    <path clip-path="url(#pd6f8379f81)" d="M 244.401949 143718.26743 
L 246.628037 143718.26743 
L 246.628037 143718.26743 
L 244.401949 143718.26743 
z
" style="fill:#d490c6;opacity:0.4;"/>
   </g>
   <g id="patch_36">
    <path clip-path="url(#pd6f8379f81)" d="M 246.628037 143718.26743 
L 248.854124 143718.26743 
L 248.854124 143718.26743 
L 246.628037 143718.26743 
z
" style="fill:#d490c6;opacity:0.4;"/>
   </g>
   <g id="patch_37">
    <path clip-path="url(#pd6f8379f81)" d="M 248.854124 143718.26743 
L 251.080211 143718.26743 
L 251.080211 143718.26743 
L 248.854124 143718.26743 
z
" style="fill:#d490c6;opacity:0.4;"/>
   </g>
   <g id="patch_38">
    <path clip-path="url(#pd6f8379f81)" d="M 251.080211 143718.26743 
L 253.306298 143718.26743 
L 253.306298 143718.26743 
L 251.080211 143718.26743 
z
" style="fill:#d490c6;opacity:0.4;"/>
   </g>
   <g id="patch_39">
    <path clip-path="url(#pd6f8379f81)" d="M 253.306298 143718.26743 
L 255.532386 143718.26743 
L 255.532386 331.63868 
L 253.306298 331.63868 
z
" style="fill:#d490c6;opacity:0.4;"/>
   </g>
   <g id="patch_40">
    <path clip-path="url(#pd6f8379f81)" d="M 255.532386 143718.26743 
L 257.758473 143718.26743 
L 257.758473 143718.26743 
L 255.532386 143718.26743 
z
" style="fill:#d490c6;opacity:0.4;"/>
   </g>
   <g id="patch_41">
    <path clip-path="url(#pd6f8379f81)" d="M 257.758473 143718.26743 
L 259.98456 143718.26743 
L 259.98456 143718.26743 
L 257.758473 143718.26743 
z
" style="fill:#d490c6;opacity:0.4;"/>
   </g>
   <g id="patch_42">
    <path clip-path="url(#pd6f8379f81)" d="M 259.98456 143718.26743 
L 262.210648 143718.26743 
L 262.210648 143718.26743 
L 259.98456 143718.26743 
z
" style="fill:#d490c6;opacity:0.4;"/>
   </g>
   <g id="patch_43">
    <path clip-path="url(#pd6f8379f81)" d="M 262.210648 143718.26743 
L 264.436735 143718.26743 
L 264.436735 143718.26743 
L 262.210648 143718.26743 
z
" style="fill:#d490c6;opacity:0.4;"/>
   </g>
   <g id="patch_44">
    <path clip-path="url(#pd6f8379f81)" d="M 264.436735 143718.26743 
L 266.662822 143718.26743 
L 266.662822 430.829201 
L 264.436735 430.829201 
z
" style="fill:#d490c6;opacity:0.4;"/>
   </g>
   <g id="patch_45">
    <path clip-path="url(#pd6f8379f81)" d="M 266.662822 143718.26743 
L 268.888909 143718.26743 
L 268.888909 143718.26743 
L 266.662822 143718.26743 
z
" style="fill:#d490c6;opacity:0.4;"/>
   </g>
   <g id="patch_46">
    <path clip-path="url(#pd6f8379f81)" d="M 268.888909 143718.26743 
L 271.114997 143718.26743 
L 271.114997 143718.26743 
L 268.888909 143718.26743 
z
" style="fill:#d490c6;opacity:0.4;"/>
   </g>
   <g id="patch_47">
    <path clip-path="url(#pd6f8379f81)" d="M 271.114997 143718.26743 
L 273.341084 143718.26743 
L 273.341084 378.725615 
L 271.114997 378.725615 
z
" style="fill:#d490c6;opacity:0.4;"/>
   </g>
   <g id="patch_48">
    <path clip-path="url(#pd6f8379f81)" d="M 273.341084 143718.26743 
L 275.567171 143718.26743 
L 275.567171 430.693251 
L 273.341084 430.693251 
z
" style="fill:#d490c6;opacity:0.4;"/>
   </g>
   <g id="patch_49">
    <path clip-path="url(#pd6f8379f81)" d="M 275.567171 143718.26743 
L 277.793258 143718.26743 
L 277.793258 143718.26743 
L 275.567171 143718.26743 
z
" style="fill:#d490c6;opacity:0.4;"/>
   </g>
   <g id="patch_50">
    <path clip-path="url(#pd6f8379f81)" d="M 277.793258 143718.26743 
L 280.019346 143718.26743 
L 280.019346 143718.26743 
L 277.793258 143718.26743 
z
" style="fill:#d490c6;opacity:0.4;"/>
   </g>
   <g id="patch_51">
    <path clip-path="url(#pd6f8379f81)" d="M 280.019346 143718.26743 
L 282.245433 143718.26743 
L 282.245433 143718.26743 
L 280.019346 143718.26743 
z
" style="fill:#d490c6;opacity:0.4;"/>
   </g>
   <g id="patch_52">
    <path clip-path="url(#pd6f8379f81)" d="M 282.245433 143718.26743 
L 284.47152 143718.26743 
L 284.47152 143718.26743 
L 282.245433 143718.26743 
z
" style="fill:#d490c6;opacity:0.4;"/>
   </g>
   <g id="patch_53">
    <path clip-path="url(#pd6f8379f81)" d="M 284.47152 143718.26743 
L 286.697607 143718.26743 
L 286.697607 143718.26743 
L 284.47152 143718.26743 
z
" style="fill:#d490c6;opacity:0.4;"/>
   </g>
   <g id="patch_54">
    <path clip-path="url(#pd6f8379f81)" d="M 286.697607 143718.26743 
L 288.923695 143718.26743 
L 288.923695 143718.26743 
L 286.697607 143718.26743 
z
" style="fill:#d490c6;opacity:0.4;"/>
   </g>
   <g id="patch_55">
    <path clip-path="url(#pd6f8379f81)" d="M 288.923695 143718.26743 
L 291.149782 143718.26743 
L 291.149782 143718.26743 
L 288.923695 143718.26743 
z
" style="fill:#d490c6;opacity:0.4;"/>
   </g>
   <g id="patch_56">
    <path clip-path="url(#pd6f8379f81)" d="M 291.149782 143718.26743 
L 293.375869 143718.26743 
L 293.375869 430.92 
L 291.149782 430.92 
z
" style="fill:#d490c6;opacity:0.4;"/>
   </g>
   <g id="patch_57">
    <path clip-path="url(#pd6f8379f81)" d="M 293.375869 143718.26743 
L 295.601957 143718.26743 
L 295.601957 143718.26743 
L 293.375869 143718.26743 
z
" style="fill:#d490c6;opacity:0.4;"/>
   </g>
   <g id="patch_58">
    <path clip-path="url(#pd6f8379f81)" d="M 295.601957 143718.26743 
L 297.828044 143718.26743 
L 297.828044 143718.26743 
L 295.601957 143718.26743 
z
" style="fill:#d490c6;opacity:0.4;"/>
   </g>
   <g id="patch_59">
    <path clip-path="url(#pd6f8379f81)" d="M 297.828044 143718.26743 
L 300.054131 143718.26743 
L 300.054131 143718.26743 
L 297.828044 143718.26743 
z
" style="fill:#d490c6;opacity:0.4;"/>
   </g>
   <g id="patch_60">
    <path clip-path="url(#pd6f8379f81)" d="M 300.054131 143718.26743 
L 302.280218 143718.26743 
L 302.280218 143718.26743 
L 300.054131 143718.26743 
z
" style="fill:#d490c6;opacity:0.4;"/>
   </g>
   <g id="patch_61">
    <path clip-path="url(#pd6f8379f81)" d="M 302.280218 143718.26743 
L 304.506306 143718.26743 
L 304.506306 143718.26743 
L 302.280218 143718.26743 
z
" style="fill:#d490c6;opacity:0.4;"/>
   </g>
   <g id="patch_62">
    <path clip-path="url(#pd6f8379f81)" d="M 304.506306 143718.26743 
L 306.732393 143718.26743 
L 306.732393 143718.26743 
L 304.506306 143718.26743 
z
" style="fill:#d490c6;opacity:0.4;"/>
   </g>
   <g id="patch_63">
    <path clip-path="url(#pd6f8379f81)" d="M 306.732393 143718.26743 
L 308.95848 143718.26743 
L 308.95848 143718.26743 
L 306.732393 143718.26743 
z
" style="fill:#d490c6;opacity:0.4;"/>
   </g>
   <g id="patch_64">
    <path clip-path="url(#pd6f8379f81)" d="M 308.95848 143718.26743 
L 311.184567 143718.26743 
L 311.184567 143718.26743 
L 308.95848 143718.26743 
z
" style="fill:#d490c6;opacity:0.4;"/>
   </g>
   <g id="patch_65">
    <path clip-path="url(#pd6f8379f81)" d="M 311.184567 143718.26743 
L 313.410655 143718.26743 
L 313.410655 143718.26743 
L 311.184567 143718.26743 
z
" style="fill:#d490c6;opacity:0.4;"/>
   </g>
   <g id="patch_66">
    <path clip-path="url(#pd6f8379f81)" d="M 313.410655 143718.26743 
L 315.636742 143718.26743 
L 315.636742 387.797769 
L 313.410655 387.797769 
z
" style="fill:#d490c6;opacity:0.4;"/>
   </g>
   <g id="patch_67">
    <path clip-path="url(#pd6f8379f81)" d="M 315.636742 143718.26743 
L 317.862829 143718.26743 
L 317.862829 143718.26743 
L 315.636742 143718.26743 
z
" style="fill:#d490c6;opacity:0.4;"/>
   </g>
   <g id="patch_68">
    <path clip-path="url(#pd6f8379f81)" d="M 317.862829 143718.26743 
L 320.088917 143718.26743 
L 320.088917 143718.26743 
L 317.862829 143718.26743 
z
" style="fill:#d490c6;opacity:0.4;"/>
   </g>
   <g id="patch_69">
    <path clip-path="url(#pd6f8379f81)" d="M 320.088917 143718.26743 
L 322.315004 143718.26743 
L 322.315004 143718.26743 
L 320.088917 143718.26743 
z
" style="fill:#d490c6;opacity:0.4;"/>
   </g>
   <g id="patch_70">
    <path clip-path="url(#pd6f8379f81)" d="M 322.315004 143718.26743 
L 324.541091 143718.26743 
L 324.541091 143718.26743 
L 322.315004 143718.26743 
z
" style="fill:#d490c6;opacity:0.4;"/>
   </g>
   <g id="patch_71">
    <path clip-path="url(#pd6f8379f81)" d="M 324.541091 143718.26743 
L 326.767178 143718.26743 
L 326.767178 143718.26743 
L 324.541091 143718.26743 
z
" style="fill:#d490c6;opacity:0.4;"/>
   </g>
   <g id="patch_72">
    <path clip-path="url(#pd6f8379f81)" d="M 326.767178 143718.26743 
L 328.993266 143718.26743 
L 328.993266 143718.26743 
L 326.767178 143718.26743 
z
" style="fill:#d490c6;opacity:0.4;"/>
   </g>
   <g id="patch_73">
    <path clip-path="url(#pd6f8379f81)" d="M 328.993266 143718.26743 
L 331.219353 143718.26743 
L 331.219353 143718.26743 
L 328.993266 143718.26743 
z
" style="fill:#d490c6;opacity:0.4;"/>
   </g>
   <g id="patch_74">
    <path clip-path="url(#pd6f8379f81)" d="M 331.219353 143718.26743 
L 333.44544 143718.26743 
L 333.44544 143718.26743 
L 331.219353 143718.26743 
z
" style="fill:#d490c6;opacity:0.4;"/>
   </g>
   <g id="patch_75">
    <path clip-path="url(#pd6f8379f81)" d="M 333.44544 143718.26743 
L 335.671527 143718.26743 
L 335.671527 430.829201 
L 333.44544 430.829201 
z
" style="fill:#d490c6;opacity:0.4;"/>
   </g>
   <g id="patch_76">
    <path clip-path="url(#pd6f8379f81)" d="M 335.671527 143718.26743 
L 337.897615 143718.26743 
L 337.897615 143718.26743 
L 335.671527 143718.26743 
z
" style="fill:#d490c6;opacity:0.4;"/>
   </g>
   <g id="patch_77">
    <path clip-path="url(#pd6f8379f81)" d="M 337.897615 143718.26743 
L 340.123702 143718.26743 
L 340.123702 143718.26743 
L 337.897615 143718.26743 
z
" style="fill:#d490c6;opacity:0.4;"/>
   </g>
   <g id="patch_78">
    <path clip-path="url(#pd6f8379f81)" d="M 340.123702 143718.26743 
L 342.349789 143718.26743 
L 342.349789 143718.26743 
L 340.123702 143718.26743 
z
" style="fill:#d490c6;opacity:0.4;"/>
   </g>
   <g id="patch_79">
    <path clip-path="url(#pd6f8379f81)" d="M 342.349789 143718.26743 
L 344.575877 143718.26743 
L 344.575877 143718.26743 
L 342.349789 143718.26743 
z
" style="fill:#d490c6;opacity:0.4;"/>
   </g>
   <g id="patch_80">
    <path clip-path="url(#pd6f8379f81)" d="M 344.575877 143718.26743 
L 346.801964 143718.26743 
L 346.801964 143718.26743 
L 344.575877 143718.26743 
z
" style="fill:#d490c6;opacity:0.4;"/>
   </g>
   <g id="patch_81">
    <path clip-path="url(#pd6f8379f81)" d="M 346.801964 143718.26743 
L 349.028051 143718.26743 
L 349.028051 143718.26743 
L 346.801964 143718.26743 
z
" style="fill:#d490c6;opacity:0.4;"/>
   </g>
   <g id="patch_82">
    <path clip-path="url(#pd6f8379f81)" d="M 349.028051 143718.26743 
L 351.254138 143718.26743 
L 351.254138 143718.26743 
L 349.028051 143718.26743 
z
" style="fill:#d490c6;opacity:0.4;"/>
   </g>
   <g id="patch_83">
    <path clip-path="url(#pd6f8379f81)" d="M 351.254138 143718.26743 
L 353.480226 143718.26743 
L 353.480226 143718.26743 
L 351.254138 143718.26743 
z
" style="fill:#d490c6;opacity:0.4;"/>
   </g>
   <g id="patch_84">
    <path clip-path="url(#pd6f8379f81)" d="M 353.480226 143718.26743 
L 355.706313 143718.26743 
L 355.706313 143718.26743 
L 353.480226 143718.26743 
z
" style="fill:#d490c6;opacity:0.4;"/>
   </g>
   <g id="patch_85">
    <path clip-path="url(#pd6f8379f81)" d="M 355.706313 143718.26743 
L 357.9324 143718.26743 
L 357.9324 143718.26743 
L 355.706313 143718.26743 
z
" style="fill:#d490c6;opacity:0.4;"/>
   </g>
   <g id="patch_86">
    <path clip-path="url(#pd6f8379f81)" d="M 357.9324 143718.26743 
L 360.158487 143718.26743 
L 360.158487 143718.26743 
L 357.9324 143718.26743 
z
" style="fill:#d490c6;opacity:0.4;"/>
   </g>
   <g id="patch_87">
    <path clip-path="url(#pd6f8379f81)" d="M 360.158487 143718.26743 
L 362.384575 143718.26743 
L 362.384575 143718.26743 
L 360.158487 143718.26743 
z
" style="fill:#d490c6;opacity:0.4;"/>
   </g>
   <g id="patch_88">
    <path clip-path="url(#pd6f8379f81)" d="M 362.384575 143718.26743 
L 364.610662 143718.26743 
L 364.610662 143718.26743 
L 362.384575 143718.26743 
z
" style="fill:#d490c6;opacity:0.4;"/>
   </g>
   <g id="patch_89">
    <path clip-path="url(#pd6f8379f81)" d="M 364.610662 143718.26743 
L 366.836749 143718.26743 
L 366.836749 143718.26743 
L 364.610662 143718.26743 
z
" style="fill:#d490c6;opacity:0.4;"/>
   </g>
   <g id="patch_90">
    <path clip-path="url(#pd6f8379f81)" d="M 366.836749 143718.26743 
L 369.062836 143718.26743 
L 369.062836 143718.26743 
L 366.836749 143718.26743 
z
" style="fill:#d490c6;opacity:0.4;"/>
   </g>
   <g id="patch_91">
    <path clip-path="url(#pd6f8379f81)" d="M 369.062836 143718.26743 
L 371.288924 143718.26743 
L 371.288924 143718.26743 
L 369.062836 143718.26743 
z
" style="fill:#d490c6;opacity:0.4;"/>
   </g>
   <g id="patch_92">
    <path clip-path="url(#pd6f8379f81)" d="M 371.288924 143718.26743 
L 373.515011 143718.26743 
L 373.515011 143718.26743 
L 371.288924 143718.26743 
z
" style="fill:#d490c6;opacity:0.4;"/>
   </g>
   <g id="patch_93">
    <path clip-path="url(#pd6f8379f81)" d="M 373.515011 143718.26743 
L 375.741098 143718.26743 
L 375.741098 387.843118 
L 373.515011 387.843118 
z
" style="fill:#d490c6;opacity:0.4;"/>
   </g>
   <g id="patch_94">
    <path clip-path="url(#pd6f8379f81)" d="M 375.741098 143718.26743 
L 377.967186 143718.26743 
L 377.967186 143718.26743 
L 375.741098 143718.26743 
z
" style="fill:#d490c6;opacity:0.4;"/>
   </g>
   <g id="patch_95">
    <path clip-path="url(#pd6f8379f81)" d="M 377.967186 143718.26743 
L 380.193273 143718.26743 
L 380.193273 143718.26743 
L 377.967186 143718.26743 
z
" style="fill:#d490c6;opacity:0.4;"/>
   </g>
   <g id="patch_96">
    <path clip-path="url(#pd6f8379f81)" d="M 380.193273 143718.26743 
L 382.41936 143718.26743 
L 382.41936 143718.26743 
L 380.193273 143718.26743 
z
" style="fill:#d490c6;opacity:0.4;"/>
   </g>
   <g id="patch_97">
    <path clip-path="url(#pd6f8379f81)" d="M 382.41936 143718.26743 
L 384.645447 143718.26743 
L 384.645447 143718.26743 
L 382.41936 143718.26743 
z
" style="fill:#d490c6;opacity:0.4;"/>
   </g>
   <g id="patch_98">
    <path clip-path="url(#pd6f8379f81)" d="M 384.645447 143718.26743 
L 386.871535 143718.26743 
L 386.871535 143718.26743 
L 384.645447 143718.26743 
z
" style="fill:#d490c6;opacity:0.4;"/>
   </g>
   <g id="patch_99">
    <path clip-path="url(#pd6f8379f81)" d="M 386.871535 143718.26743 
L 389.097622 143718.26743 
L 389.097622 143718.26743 
L 386.871535 143718.26743 
z
" style="fill:#d490c6;opacity:0.4;"/>
   </g>
   <g id="patch_100">
    <path clip-path="url(#pd6f8379f81)" d="M 389.097622 143718.26743 
L 391.323709 143718.26743 
L 391.323709 143718.26743 
L 389.097622 143718.26743 
z
" style="fill:#d490c6;opacity:0.4;"/>
   </g>
   <g id="patch_101">
    <path clip-path="url(#pd6f8379f81)" d="M 391.323709 143718.26743 
L 393.549796 143718.26743 
L 393.549796 143718.26743 
L 391.323709 143718.26743 
z
" style="fill:#d490c6;opacity:0.4;"/>
   </g>
   <g id="patch_102">
    <path clip-path="url(#pd6f8379f81)" d="M 393.549796 143718.26743 
L 395.775884 143718.26743 
L 395.775884 143718.26743 
L 393.549796 143718.26743 
z
" style="fill:#d490c6;opacity:0.4;"/>
   </g>
   <g id="patch_103">
    <path clip-path="url(#pd6f8379f81)" d="M 395.775884 143718.26743 
L 398.001971 143718.26743 
L 398.001971 143718.26743 
L 395.775884 143718.26743 
z
" style="fill:#d490c6;opacity:0.4;"/>
   </g>
   <g id="patch_104">
    <path clip-path="url(#pd6f8379f81)" d="M 398.001971 143718.26743 
L 400.228058 143718.26743 
L 400.228058 143718.26743 
L 398.001971 143718.26743 
z
" style="fill:#d490c6;opacity:0.4;"/>
   </g>
   <g id="patch_105">
    <path clip-path="url(#pd6f8379f81)" d="M 400.228058 143718.26743 
L 402.454146 143718.26743 
L 402.454146 143718.26743 
L 400.228058 143718.26743 
z
" style="fill:#d490c6;opacity:0.4;"/>
   </g>
   <g id="patch_106">
    <path clip-path="url(#pd6f8379f81)" d="M 402.454146 143718.26743 
L 404.680233 143718.26743 
L 404.680233 143718.26743 
L 402.454146 143718.26743 
z
" style="fill:#d490c6;opacity:0.4;"/>
   </g>
   <g id="patch_107">
    <path clip-path="url(#pd6f8379f81)" d="M 404.680233 143718.26743 
L 406.90632 143718.26743 
L 406.90632 143718.26743 
L 404.680233 143718.26743 
z
" style="fill:#d490c6;opacity:0.4;"/>
   </g>
   <g id="patch_108">
    <path clip-path="url(#pd6f8379f81)" d="M 406.90632 143718.26743 
L 409.132407 143718.26743 
L 409.132407 143718.26743 
L 406.90632 143718.26743 
z
" style="fill:#d490c6;opacity:0.4;"/>
   </g>
   <g id="patch_109">
    <path clip-path="url(#pd6f8379f81)" d="M 409.132407 143718.26743 
L 411.358495 143718.26743 
L 411.358495 143718.26743 
L 409.132407 143718.26743 
z
" style="fill:#d490c6;opacity:0.4;"/>
   </g>
   <g id="patch_110">
    <path clip-path="url(#pd6f8379f81)" d="M 411.358495 143718.26743 
L 413.584582 143718.26743 
L 413.584582 143718.26743 
L 411.358495 143718.26743 
z
" style="fill:#d490c6;opacity:0.4;"/>
   </g>
   <g id="patch_111">
    <path clip-path="url(#pd6f8379f81)" d="M 413.584582 143718.26743 
L 415.810669 143718.26743 
L 415.810669 143718.26743 
L 413.584582 143718.26743 
z
" style="fill:#d490c6;opacity:0.4;"/>
   </g>
   <g id="patch_112">
    <path clip-path="url(#pd6f8379f81)" d="M 415.810669 143718.26743 
L 418.036756 143718.26743 
L 418.036756 143718.26743 
L 415.810669 143718.26743 
z
" style="fill:#d490c6;opacity:0.4;"/>
   </g>
   <g id="patch_113">
    <path clip-path="url(#pd6f8379f81)" d="M 418.036756 143718.26743 
L 420.262844 143718.26743 
L 420.262844 143718.26743 
L 418.036756 143718.26743 
z
" style="fill:#d490c6;opacity:0.4;"/>
   </g>
   <g id="patch_114">
    <path clip-path="url(#pd6f8379f81)" d="M 420.262844 143718.26743 
L 422.488931 143718.26743 
L 422.488931 387.865806 
L 420.262844 387.865806 
z
" style="fill:#d490c6;opacity:0.4;"/>
   </g>
   <g id="patch_115">
    <path clip-path="url(#pd6f8379f81)" d="M 422.488931 143718.26743 
L 424.715018 143718.26743 
L 424.715018 143718.26743 
L 422.488931 143718.26743 
z
" style="fill:#d490c6;opacity:0.4;"/>
   </g>
   <g id="patch_116">
    <path clip-path="url(#pd6f8379f81)" d="M 424.715018 143718.26743 
L 426.941105 143718.26743 
L 426.941105 143718.26743 
L 424.715018 143718.26743 
z
" style="fill:#d490c6;opacity:0.4;"/>
   </g>
   <g id="patch_117">
    <path clip-path="url(#pd6f8379f81)" d="M 426.941105 143718.26743 
L 429.167193 143718.26743 
L 429.167193 143718.26743 
L 426.941105 143718.26743 
z
" style="fill:#d490c6;opacity:0.4;"/>
   </g>
   <g id="patch_118">
    <path clip-path="url(#pd6f8379f81)" d="M 429.167193 143718.26743 
L 431.39328 143718.26743 
L 431.39328 143718.26743 
L 429.167193 143718.26743 
z
" style="fill:#d490c6;opacity:0.4;"/>
   </g>
   <g id="patch_119">
    <path clip-path="url(#pd6f8379f81)" d="M 431.39328 143718.26743 
L 433.619367 143718.26743 
L 433.619367 143718.26743 
L 431.39328 143718.26743 
z
" style="fill:#d490c6;opacity:0.4;"/>
   </g>
   <g id="patch_120">
    <path clip-path="url(#pd6f8379f81)" d="M 433.619367 143718.26743 
L 435.845455 143718.26743 
L 435.845455 430.829201 
L 433.619367 430.829201 
z
" style="fill:#d490c6;opacity:0.4;"/>
   </g>
   <g id="patch_121">
    <path clip-path="url(#pd6f8379f81)" d="M 80.754545 143718.26743 
L 81.527723 143718.26743 
L 81.527723 413.764428 
L 80.754545 413.764428 
z
" style="fill:#c3c1f2;opacity:0.4;"/>
   </g>
   <g id="patch_122">
    <path clip-path="url(#pd6f8379f81)" d="M 81.527723 143718.26743 
L 82.300901 143718.26743 
L 82.300901 143718.26743 
L 81.527723 143718.26743 
z
" style="fill:#c3c1f2;opacity:0.4;"/>
   </g>
   <g id="patch_123">
    <path clip-path="url(#pd6f8379f81)" d="M 82.300901 143718.26743 
L 83.074079 143718.26743 
L 83.074079 143718.26743 
L 82.300901 143718.26743 
z
" style="fill:#c3c1f2;opacity:0.4;"/>
   </g>
   <g id="patch_124">
    <path clip-path="url(#pd6f8379f81)" d="M 83.074079 143718.26743 
L 83.847257 143718.26743 
L 83.847257 143718.26743 
L 83.074079 143718.26743 
z
" style="fill:#c3c1f2;opacity:0.4;"/>
   </g>
   <g id="patch_125">
    <path clip-path="url(#pd6f8379f81)" d="M 83.847257 143718.26743 
L 84.620435 143718.26743 
L 84.620435 143718.26743 
L 83.847257 143718.26743 
z
" style="fill:#c3c1f2;opacity:0.4;"/>
   </g>
   <g id="patch_126">
    <path clip-path="url(#pd6f8379f81)" d="M 84.620435 143718.26743 
L 85.393613 143718.26743 
L 85.393613 143718.26743 
L 84.620435 143718.26743 
z
" style="fill:#c3c1f2;opacity:0.4;"/>
   </g>
   <g id="patch_127">
    <path clip-path="url(#pd6f8379f81)" d="M 85.393613 143718.26743 
L 86.166791 143718.26743 
L 86.166791 143718.26743 
L 85.393613 143718.26743 
z
" style="fill:#c3c1f2;opacity:0.4;"/>
   </g>
   <g id="patch_128">
    <path clip-path="url(#pd6f8379f81)" d="M 86.166791 143718.26743 
L 86.939969 143718.26743 
L 86.939969 143718.26743 
L 86.166791 143718.26743 
z
" style="fill:#c3c1f2;opacity:0.4;"/>
   </g>
   <g id="patch_129">
    <path clip-path="url(#pd6f8379f81)" d="M 86.939969 143718.26743 
L 87.713147 143718.26743 
L 87.713147 143718.26743 
L 86.939969 143718.26743 
z
" style="fill:#c3c1f2;opacity:0.4;"/>
   </g>
   <g id="patch_130">
    <path clip-path="url(#pd6f8379f81)" d="M 87.713147 143718.26743 
L 88.486325 143718.26743 
L 88.486325 143718.26743 
L 87.713147 143718.26743 
z
" style="fill:#c3c1f2;opacity:0.4;"/>
   </g>
   <g id="patch_131">
    <path clip-path="url(#pd6f8379f81)" d="M 88.486325 143718.26743 
L 89.259503 143718.26743 
L 89.259503 143718.26743 
L 88.486325 143718.26743 
z
" style="fill:#c3c1f2;opacity:0.4;"/>
   </g>
   <g id="patch_132">
    <path clip-path="url(#pd6f8379f81)" d="M 89.259503 143718.26743 
L 90.032681 143718.26743 
L 90.032681 143718.26743 
L 89.259503 143718.26743 
z
" style="fill:#c3c1f2;opacity:0.4;"/>
   </g>
   <g id="patch_133">
    <path clip-path="url(#pd6f8379f81)" d="M 90.032681 143718.26743 
L 90.805859 143718.26743 
L 90.805859 143718.26743 
L 90.032681 143718.26743 
z
" style="fill:#c3c1f2;opacity:0.4;"/>
   </g>
   <g id="patch_134">
    <path clip-path="url(#pd6f8379f81)" d="M 90.805859 143718.26743 
L 91.579037 143718.26743 
L 91.579037 143718.26743 
L 90.805859 143718.26743 
z
" style="fill:#c3c1f2;opacity:0.4;"/>
   </g>
   <g id="patch_135">
    <path clip-path="url(#pd6f8379f81)" d="M 91.579037 143718.26743 
L 92.352215 143718.26743 
L 92.352215 143718.26743 
L 91.579037 143718.26743 
z
" style="fill:#c3c1f2;opacity:0.4;"/>
   </g>
   <g id="patch_136">
    <path clip-path="url(#pd6f8379f81)" d="M 92.352215 143718.26743 
L 93.125393 143718.26743 
L 93.125393 143718.26743 
L 92.352215 143718.26743 
z
" style="fill:#c3c1f2;opacity:0.4;"/>
   </g>
   <g id="patch_137">
    <path clip-path="url(#pd6f8379f81)" d="M 93.125393 143718.26743 
L 93.898571 143718.26743 
L 93.898571 143718.26743 
L 93.125393 143718.26743 
z
" style="fill:#c3c1f2;opacity:0.4;"/>
   </g>
   <g id="patch_138">
    <path clip-path="url(#pd6f8379f81)" d="M 93.898571 143718.26743 
L 94.671749 143718.26743 
L 94.671749 413.764428 
L 93.898571 413.764428 
z
" style="fill:#c3c1f2;opacity:0.4;"/>
   </g>
   <g id="patch_139">
    <path clip-path="url(#pd6f8379f81)" d="M 94.671749 143718.26743 
L 95.444927 143718.26743 
L 95.444927 143718.26743 
L 94.671749 143718.26743 
z
" style="fill:#c3c1f2;opacity:0.4;"/>
   </g>
   <g id="patch_140">
    <path clip-path="url(#pd6f8379f81)" d="M 95.444927 143718.26743 
L 96.218105 143718.26743 
L 96.218105 143718.26743 
L 95.444927 143718.26743 
z
" style="fill:#c3c1f2;opacity:0.4;"/>
   </g>
   <g id="patch_141">
    <path clip-path="url(#pd6f8379f81)" d="M 96.218105 143718.26743 
L 96.991283 143718.26743 
L 96.991283 143718.26743 
L 96.218105 143718.26743 
z
" style="fill:#c3c1f2;opacity:0.4;"/>
   </g>
   <g id="patch_142">
    <path clip-path="url(#pd6f8379f81)" d="M 96.991283 143718.26743 
L 97.764461 143718.26743 
L 97.764461 143718.26743 
L 96.991283 143718.26743 
z
" style="fill:#c3c1f2;opacity:0.4;"/>
   </g>
   <g id="patch_143">
    <path clip-path="url(#pd6f8379f81)" d="M 97.764461 143718.26743 
L 98.537639 143718.26743 
L 98.537639 143718.26743 
L 97.764461 143718.26743 
z
" style="fill:#c3c1f2;opacity:0.4;"/>
   </g>
   <g id="patch_144">
    <path clip-path="url(#pd6f8379f81)" d="M 98.537639 143718.26743 
L 99.310817 143718.26743 
L 99.310817 143718.26743 
L 98.537639 143718.26743 
z
" style="fill:#c3c1f2;opacity:0.4;"/>
   </g>
   <g id="patch_145">
    <path clip-path="url(#pd6f8379f81)" d="M 99.310817 143718.26743 
L 100.083995 143718.26743 
L 100.083995 143718.26743 
L 99.310817 143718.26743 
z
" style="fill:#c3c1f2;opacity:0.4;"/>
   </g>
   <g id="patch_146">
    <path clip-path="url(#pd6f8379f81)" d="M 100.083995 143718.26743 
L 100.857173 143718.26743 
L 100.857173 143718.26743 
L 100.083995 143718.26743 
z
" style="fill:#c3c1f2;opacity:0.4;"/>
   </g>
   <g id="patch_147">
    <path clip-path="url(#pd6f8379f81)" d="M 100.857173 143718.26743 
L 101.630351 143718.26743 
L 101.630351 143718.26743 
L 100.857173 143718.26743 
z
" style="fill:#c3c1f2;opacity:0.4;"/>
   </g>
   <g id="patch_148">
    <path clip-path="url(#pd6f8379f81)" d="M 101.630351 143718.26743 
L 102.403529 143718.26743 
L 102.403529 143718.26743 
L 101.630351 143718.26743 
z
" style="fill:#c3c1f2;opacity:0.4;"/>
   </g>
   <g id="patch_149">
    <path clip-path="url(#pd6f8379f81)" d="M 102.403529 143718.26743 
L 103.176707 143718.26743 
L 103.176707 143718.26743 
L 102.403529 143718.26743 
z
" style="fill:#c3c1f2;opacity:0.4;"/>
   </g>
   <g id="patch_150">
    <path clip-path="url(#pd6f8379f81)" d="M 103.176707 143718.26743 
L 103.949885 143718.26743 
L 103.949885 143718.26743 
L 103.176707 143718.26743 
z
" style="fill:#c3c1f2;opacity:0.4;"/>
   </g>
   <g id="patch_151">
    <path clip-path="url(#pd6f8379f81)" d="M 103.949885 143718.26743 
L 104.723063 143718.26743 
L 104.723063 143718.26743 
L 103.949885 143718.26743 
z
" style="fill:#c3c1f2;opacity:0.4;"/>
   </g>
   <g id="patch_152">
    <path clip-path="url(#pd6f8379f81)" d="M 104.723063 143718.26743 
L 105.496241 143718.26743 
L 105.496241 143718.26743 
L 104.723063 143718.26743 
z
" style="fill:#c3c1f2;opacity:0.4;"/>
   </g>
   <g id="patch_153">
    <path clip-path="url(#pd6f8379f81)" d="M 105.496241 143718.26743 
L 106.269419 143718.26743 
L 106.269419 143718.26743 
L 105.496241 143718.26743 
z
" style="fill:#c3c1f2;opacity:0.4;"/>
   </g>
   <g id="patch_154">
    <path clip-path="url(#pd6f8379f81)" d="M 106.269419 143718.26743 
L 107.042597 143718.26743 
L 107.042597 143718.26743 
L 106.269419 143718.26743 
z
" style="fill:#c3c1f2;opacity:0.4;"/>
   </g>
   <g id="patch_155">
    <path clip-path="url(#pd6f8379f81)" d="M 107.042597 143718.26743 
L 107.815775 143718.26743 
L 107.815775 143718.26743 
L 107.042597 143718.26743 
z
" style="fill:#c3c1f2;opacity:0.4;"/>
   </g>
   <g id="patch_156">
    <path clip-path="url(#pd6f8379f81)" d="M 107.815775 143718.26743 
L 108.588953 143718.26743 
L 108.588953 143718.26743 
L 107.815775 143718.26743 
z
" style="fill:#c3c1f2;opacity:0.4;"/>
   </g>
   <g id="patch_157">
    <path clip-path="url(#pd6f8379f81)" d="M 108.588953 143718.26743 
L 109.362131 143718.26743 
L 109.362131 143718.26743 
L 108.588953 143718.26743 
z
" style="fill:#c3c1f2;opacity:0.4;"/>
   </g>
   <g id="patch_158">
    <path clip-path="url(#pd6f8379f81)" d="M 109.362131 143718.26743 
L 110.135309 143718.26743 
L 110.135309 143718.26743 
L 109.362131 143718.26743 
z
" style="fill:#c3c1f2;opacity:0.4;"/>
   </g>
   <g id="patch_159">
    <path clip-path="url(#pd6f8379f81)" d="M 110.135309 143718.26743 
L 110.908487 143718.26743 
L 110.908487 143718.26743 
L 110.135309 143718.26743 
z
" style="fill:#c3c1f2;opacity:0.4;"/>
   </g>
   <g id="patch_160">
    <path clip-path="url(#pd6f8379f81)" d="M 110.908487 143718.26743 
L 111.681665 143718.26743 
L 111.681665 143718.26743 
L 110.908487 143718.26743 
z
" style="fill:#c3c1f2;opacity:0.4;"/>
   </g>
   <g id="patch_161">
    <path clip-path="url(#pd6f8379f81)" d="M 111.681665 143718.26743 
L 112.454843 143718.26743 
L 112.454843 143718.26743 
L 111.681665 143718.26743 
z
" style="fill:#c3c1f2;opacity:0.4;"/>
   </g>
   <g id="patch_162">
    <path clip-path="url(#pd6f8379f81)" d="M 112.454843 143718.26743 
L 113.228021 143718.26743 
L 113.228021 143718.26743 
L 112.454843 143718.26743 
z
" style="fill:#c3c1f2;opacity:0.4;"/>
   </g>
   <g id="patch_163">
    <path clip-path="url(#pd6f8379f81)" d="M 113.228021 143718.26743 
L 114.001199 143718.26743 
L 114.001199 143718.26743 
L 113.228021 143718.26743 
z
" style="fill:#c3c1f2;opacity:0.4;"/>
   </g>
   <g id="patch_164">
    <path clip-path="url(#pd6f8379f81)" d="M 114.001199 143718.26743 
L 114.774377 143718.26743 
L 114.774377 143718.26743 
L 114.001199 143718.26743 
z
" style="fill:#c3c1f2;opacity:0.4;"/>
   </g>
   <g id="patch_165">
    <path clip-path="url(#pd6f8379f81)" d="M 114.774377 143718.26743 
L 115.547555 143718.26743 
L 115.547555 143718.26743 
L 114.774377 143718.26743 
z
" style="fill:#c3c1f2;opacity:0.4;"/>
   </g>
   <g id="patch_166">
    <path clip-path="url(#pd6f8379f81)" d="M 115.547555 143718.26743 
L 116.320733 143718.26743 
L 116.320733 143718.26743 
L 115.547555 143718.26743 
z
" style="fill:#c3c1f2;opacity:0.4;"/>
   </g>
   <g id="patch_167">
    <path clip-path="url(#pd6f8379f81)" d="M 116.320733 143718.26743 
L 117.093911 143718.26743 
L 117.093911 143718.26743 
L 116.320733 143718.26743 
z
" style="fill:#c3c1f2;opacity:0.4;"/>
   </g>
   <g id="patch_168">
    <path clip-path="url(#pd6f8379f81)" d="M 117.093911 143718.26743 
L 117.867089 143718.26743 
L 117.867089 413.764428 
L 117.093911 413.764428 
z
" style="fill:#c3c1f2;opacity:0.4;"/>
   </g>
   <g id="patch_169">
    <path clip-path="url(#pd6f8379f81)" d="M 117.867089 143718.26743 
L 118.640267 143718.26743 
L 118.640267 143718.26743 
L 117.867089 143718.26743 
z
" style="fill:#c3c1f2;opacity:0.4;"/>
   </g>
   <g id="patch_170">
    <path clip-path="url(#pd6f8379f81)" d="M 118.640267 143718.26743 
L 119.413445 143718.26743 
L 119.413445 143718.26743 
L 118.640267 143718.26743 
z
" style="fill:#c3c1f2;opacity:0.4;"/>
   </g>
   <g id="patch_171">
    <path clip-path="url(#pd6f8379f81)" d="M 119.413445 143718.26743 
L 120.186622 143718.26743 
L 120.186622 143718.26743 
L 119.413445 143718.26743 
z
" style="fill:#c3c1f2;opacity:0.4;"/>
   </g>
   <g id="patch_172">
    <path clip-path="url(#pd6f8379f81)" d="M 120.186622 143718.26743 
L 120.9598 143718.26743 
L 120.9598 143718.26743 
L 120.186622 143718.26743 
z
" style="fill:#c3c1f2;opacity:0.4;"/>
   </g>
   <g id="patch_173">
    <path clip-path="url(#pd6f8379f81)" d="M 120.9598 143718.26743 
L 121.732978 143718.26743 
L 121.732978 143718.26743 
L 120.9598 143718.26743 
z
" style="fill:#c3c1f2;opacity:0.4;"/>
   </g>
   <g id="patch_174">
    <path clip-path="url(#pd6f8379f81)" d="M 121.732978 143718.26743 
L 122.506156 143718.26743 
L 122.506156 370.778346 
L 121.732978 370.778346 
z
" style="fill:#c3c1f2;opacity:0.4;"/>
   </g>
   <g id="patch_175">
    <path clip-path="url(#pd6f8379f81)" d="M 122.506156 143718.26743 
L 123.279334 143718.26743 
L 123.279334 143718.26743 
L 122.506156 143718.26743 
z
" style="fill:#c3c1f2;opacity:0.4;"/>
   </g>
   <g id="patch_176">
    <path clip-path="url(#pd6f8379f81)" d="M 123.279334 143718.26743 
L 124.052512 143718.26743 
L 124.052512 143718.26743 
L 123.279334 143718.26743 
z
" style="fill:#c3c1f2;opacity:0.4;"/>
   </g>
   <g id="patch_177">
    <path clip-path="url(#pd6f8379f81)" d="M 124.052512 143718.26743 
L 124.82569 143718.26743 
L 124.82569 143718.26743 
L 124.052512 143718.26743 
z
" style="fill:#c3c1f2;opacity:0.4;"/>
   </g>
   <g id="patch_178">
    <path clip-path="url(#pd6f8379f81)" d="M 124.82569 143718.26743 
L 125.598868 143718.26743 
L 125.598868 143718.26743 
L 124.82569 143718.26743 
z
" style="fill:#c3c1f2;opacity:0.4;"/>
   </g>
   <g id="patch_179">
    <path clip-path="url(#pd6f8379f81)" d="M 125.598868 143718.26743 
L 126.372046 143718.26743 
L 126.372046 143718.26743 
L 125.598868 143718.26743 
z
" style="fill:#c3c1f2;opacity:0.4;"/>
   </g>
   <g id="patch_180">
    <path clip-path="url(#pd6f8379f81)" d="M 126.372046 143718.26743 
L 127.145224 143718.26743 
L 127.145224 413.764428 
L 126.372046 413.764428 
z
" style="fill:#c3c1f2;opacity:0.4;"/>
   </g>
   <g id="patch_181">
    <path clip-path="url(#pd6f8379f81)" d="M 127.145224 143718.26743 
L 127.918402 143718.26743 
L 127.918402 143718.26743 
L 127.145224 143718.26743 
z
" style="fill:#c3c1f2;opacity:0.4;"/>
   </g>
   <g id="patch_182">
    <path clip-path="url(#pd6f8379f81)" d="M 127.918402 143718.26743 
L 128.69158 143718.26743 
L 128.69158 143718.26743 
L 127.918402 143718.26743 
z
" style="fill:#c3c1f2;opacity:0.4;"/>
   </g>
   <g id="patch_183">
    <path clip-path="url(#pd6f8379f81)" d="M 128.69158 143718.26743 
L 129.464758 143718.26743 
L 129.464758 143718.26743 
L 128.69158 143718.26743 
z
" style="fill:#c3c1f2;opacity:0.4;"/>
   </g>
   <g id="patch_184">
    <path clip-path="url(#pd6f8379f81)" d="M 129.464758 143718.26743 
L 130.237936 143718.26743 
L 130.237936 413.764428 
L 129.464758 413.764428 
z
" style="fill:#c3c1f2;opacity:0.4;"/>
   </g>
   <g id="patch_185">
    <path clip-path="url(#pd6f8379f81)" d="M 130.237936 143718.26743 
L 131.011114 143718.26743 
L 131.011114 143718.26743 
L 130.237936 143718.26743 
z
" style="fill:#c3c1f2;opacity:0.4;"/>
   </g>
   <g id="patch_186">
    <path clip-path="url(#pd6f8379f81)" d="M 131.011114 143718.26743 
L 131.784292 143718.26743 
L 131.784292 143718.26743 
L 131.011114 143718.26743 
z
" style="fill:#c3c1f2;opacity:0.4;"/>
   </g>
   <g id="patch_187">
    <path clip-path="url(#pd6f8379f81)" d="M 131.784292 143718.26743 
L 132.55747 143718.26743 
L 132.55747 313.953836 
L 131.784292 313.953836 
z
" style="fill:#c3c1f2;opacity:0.4;"/>
   </g>
   <g id="patch_188">
    <path clip-path="url(#pd6f8379f81)" d="M 132.55747 143718.26743 
L 133.330648 143718.26743 
L 133.330648 143718.26743 
L 132.55747 143718.26743 
z
" style="fill:#c3c1f2;opacity:0.4;"/>
   </g>
   <g id="patch_189">
    <path clip-path="url(#pd6f8379f81)" d="M 133.330648 143718.26743 
L 134.103826 143718.26743 
L 134.103826 413.764428 
L 133.330648 413.764428 
z
" style="fill:#c3c1f2;opacity:0.4;"/>
   </g>
   <g id="patch_190">
    <path clip-path="url(#pd6f8379f81)" d="M 134.103826 143718.26743 
L 134.877004 143718.26743 
L 134.877004 143718.26743 
L 134.103826 143718.26743 
z
" style="fill:#c3c1f2;opacity:0.4;"/>
   </g>
   <g id="patch_191">
    <path clip-path="url(#pd6f8379f81)" d="M 134.877004 143718.26743 
L 135.650182 143718.26743 
L 135.650182 413.764428 
L 134.877004 413.764428 
z
" style="fill:#c3c1f2;opacity:0.4;"/>
   </g>
   <g id="patch_192">
    <path clip-path="url(#pd6f8379f81)" d="M 135.650182 143718.26743 
L 136.42336 143718.26743 
L 136.42336 143718.26743 
L 135.650182 143718.26743 
z
" style="fill:#c3c1f2;opacity:0.4;"/>
   </g>
   <g id="patch_193">
    <path clip-path="url(#pd6f8379f81)" d="M 136.42336 143718.26743 
L 137.196538 143718.26743 
L 137.196538 143718.26743 
L 136.42336 143718.26743 
z
" style="fill:#c3c1f2;opacity:0.4;"/>
   </g>
   <g id="patch_194">
    <path clip-path="url(#pd6f8379f81)" d="M 137.196538 143718.26743 
L 137.969716 143718.26743 
L 137.969716 143718.26743 
L 137.196538 143718.26743 
z
" style="fill:#c3c1f2;opacity:0.4;"/>
   </g>
   <g id="patch_195">
    <path clip-path="url(#pd6f8379f81)" d="M 137.969716 143718.26743 
L 138.742894 143718.26743 
L 138.742894 370.778346 
L 137.969716 370.778346 
z
" style="fill:#c3c1f2;opacity:0.4;"/>
   </g>
   <g id="patch_196">
    <path clip-path="url(#pd6f8379f81)" d="M 138.742894 143718.26743 
L 139.516072 143718.26743 
L 139.516072 143718.26743 
L 138.742894 143718.26743 
z
" style="fill:#c3c1f2;opacity:0.4;"/>
   </g>
   <g id="patch_197">
    <path clip-path="url(#pd6f8379f81)" d="M 139.516072 143718.26743 
L 140.28925 143718.26743 
L 140.28925 143718.26743 
L 139.516072 143718.26743 
z
" style="fill:#c3c1f2;opacity:0.4;"/>
   </g>
   <g id="patch_198">
    <path clip-path="url(#pd6f8379f81)" d="M 140.28925 143718.26743 
L 141.062428 143718.26743 
L 141.062428 370.778346 
L 140.28925 370.778346 
z
" style="fill:#c3c1f2;opacity:0.4;"/>
   </g>
   <g id="patch_199">
    <path clip-path="url(#pd6f8379f81)" d="M 141.062428 143718.26743 
L 141.835606 143718.26743 
L 141.835606 143718.26743 
L 141.062428 143718.26743 
z
" style="fill:#c3c1f2;opacity:0.4;"/>
   </g>
   <g id="patch_200">
    <path clip-path="url(#pd6f8379f81)" d="M 141.835606 143718.26743 
L 142.608784 143718.26743 
L 142.608784 143718.26743 
L 141.835606 143718.26743 
z
" style="fill:#c3c1f2;opacity:0.4;"/>
   </g>
   <g id="patch_201">
    <path clip-path="url(#pd6f8379f81)" d="M 142.608784 143718.26743 
L 143.381962 143718.26743 
L 143.381962 413.764428 
L 142.608784 413.764428 
z
" style="fill:#c3c1f2;opacity:0.4;"/>
   </g>
   <g id="patch_202">
    <path clip-path="url(#pd6f8379f81)" d="M 143.381962 143718.26743 
L 144.15514 143718.26743 
L 144.15514 143718.26743 
L 143.381962 143718.26743 
z
" style="fill:#c3c1f2;opacity:0.4;"/>
   </g>
   <g id="patch_203">
    <path clip-path="url(#pd6f8379f81)" d="M 144.15514 143718.26743 
L 144.928318 143718.26743 
L 144.928318 370.778346 
L 144.15514 370.778346 
z
" style="fill:#c3c1f2;opacity:0.4;"/>
   </g>
   <g id="patch_204">
    <path clip-path="url(#pd6f8379f81)" d="M 144.928318 143718.26743 
L 145.701496 143718.26743 
L 145.701496 143718.26743 
L 144.928318 143718.26743 
z
" style="fill:#c3c1f2;opacity:0.4;"/>
   </g>
   <g id="patch_205">
    <path clip-path="url(#pd6f8379f81)" d="M 145.701496 143718.26743 
L 146.474674 143718.26743 
L 146.474674 370.778346 
L 145.701496 370.778346 
z
" style="fill:#c3c1f2;opacity:0.4;"/>
   </g>
   <g id="patch_206">
    <path clip-path="url(#pd6f8379f81)" d="M 146.474674 143718.26743 
L 147.247852 143718.26743 
L 147.247852 413.764428 
L 146.474674 413.764428 
z
" style="fill:#c3c1f2;opacity:0.4;"/>
   </g>
   <g id="patch_207">
    <path clip-path="url(#pd6f8379f81)" d="M 147.247852 143718.26743 
L 148.02103 143718.26743 
L 148.02103 370.778346 
L 147.247852 370.778346 
z
" style="fill:#c3c1f2;opacity:0.4;"/>
   </g>
   <g id="patch_208">
    <path clip-path="url(#pd6f8379f81)" d="M 148.02103 143718.26743 
L 148.794208 143718.26743 
L 148.794208 370.778346 
L 148.02103 370.778346 
z
" style="fill:#c3c1f2;opacity:0.4;"/>
   </g>
   <g id="patch_209">
    <path clip-path="url(#pd6f8379f81)" d="M 148.794208 143718.26743 
L 149.567386 143718.26743 
L 149.567386 143718.26743 
L 148.794208 143718.26743 
z
" style="fill:#c3c1f2;opacity:0.4;"/>
   </g>
   <g id="patch_210">
    <path clip-path="url(#pd6f8379f81)" d="M 149.567386 143718.26743 
L 150.340564 143718.26743 
L 150.340564 143718.26743 
L 149.567386 143718.26743 
z
" style="fill:#c3c1f2;opacity:0.4;"/>
   </g>
   <g id="patch_211">
    <path clip-path="url(#pd6f8379f81)" d="M 150.340564 143718.26743 
L 151.113742 143718.26743 
L 151.113742 413.764428 
L 150.340564 413.764428 
z
" style="fill:#c3c1f2;opacity:0.4;"/>
   </g>
   <g id="patch_212">
    <path clip-path="url(#pd6f8379f81)" d="M 151.113742 143718.26743 
L 151.88692 143718.26743 
L 151.88692 413.764428 
L 151.113742 413.764428 
z
" style="fill:#c3c1f2;opacity:0.4;"/>
   </g>
   <g id="patch_213">
    <path clip-path="url(#pd6f8379f81)" d="M 151.88692 143718.26743 
L 152.660098 143718.26743 
L 152.660098 143718.26743 
L 151.88692 143718.26743 
z
" style="fill:#c3c1f2;opacity:0.4;"/>
   </g>
   <g id="patch_214">
    <path clip-path="url(#pd6f8379f81)" d="M 152.660098 143718.26743 
L 153.433276 143718.26743 
L 153.433276 214.212188 
L 152.660098 214.212188 
z
" style="fill:#c3c1f2;opacity:0.4;"/>
   </g>
   <g id="patch_215">
    <path clip-path="url(#pd6f8379f81)" d="M 153.433276 143718.26743 
L 154.206454 143718.26743 
L 154.206454 313.795553 
L 153.433276 313.795553 
z
" style="fill:#c3c1f2;opacity:0.4;"/>
   </g>
   <g id="patch_216">
    <path clip-path="url(#pd6f8379f81)" d="M 154.206454 143718.26743 
L 154.979632 143718.26743 
L 154.979632 345.564232 
L 154.206454 345.564232 
z
" style="fill:#c3c1f2;opacity:0.4;"/>
   </g>
   <g id="patch_217">
    <path clip-path="url(#pd6f8379f81)" d="M 154.979632 143718.26743 
L 155.75281 143718.26743 
L 155.75281 313.953836 
L 154.979632 313.953836 
z
" style="fill:#c3c1f2;opacity:0.4;"/>
   </g>
   <g id="patch_218">
    <path clip-path="url(#pd6f8379f81)" d="M 155.75281 143718.26743 
L 156.525988 143718.26743 
L 156.525988 345.610135 
L 155.75281 345.610135 
z
" style="fill:#c3c1f2;opacity:0.4;"/>
   </g>
   <g id="patch_219">
    <path clip-path="url(#pd6f8379f81)" d="M 156.525988 143718.26743 
L 157.299166 143718.26743 
L 157.299166 302.647017 
L 156.525988 302.647017 
z
" style="fill:#c3c1f2;opacity:0.4;"/>
   </g>
   <g id="patch_220">
    <path clip-path="url(#pd6f8379f81)" d="M 157.299166 143718.26743 
L 158.072344 143718.26743 
L 158.072344 324.227444 
L 157.299166 324.227444 
z
" style="fill:#c3c1f2;opacity:0.4;"/>
   </g>
   <g id="patch_221">
    <path clip-path="url(#pd6f8379f81)" d="M 158.072344 143718.26743 
L 158.845522 143718.26743 
L 158.845522 304.957706 
L 158.072344 304.957706 
z
" style="fill:#c3c1f2;opacity:0.4;"/>
   </g>
   <g id="patch_222">
    <path clip-path="url(#pd6f8379f81)" d="M 158.845522 143718.26743 
L 159.6187 143718.26743 
L 159.6187 327.474387 
L 158.845522 327.474387 
z
" style="fill:#c3c1f2;opacity:0.4;"/>
   </g>
   <g id="patch_223">
    <path clip-path="url(#pd6f8379f81)" d="M 159.6187 143718.26743 
L 160.391878 143718.26743 
L 160.391878 315.569895 
L 159.6187 315.569895 
z
" style="fill:#c3c1f2;opacity:0.4;"/>
   </g>
   <g id="patch_224">
    <path clip-path="url(#pd6f8379f81)" d="M 160.391878 143718.26743 
L 161.165055 143718.26743 
L 161.165055 301.571127 
L 160.391878 301.571127 
z
" style="fill:#c3c1f2;opacity:0.4;"/>
   </g>
   <g id="patch_225">
    <path clip-path="url(#pd6f8379f81)" d="M 161.165055 143718.26743 
L 161.938233 143718.26743 
L 161.938233 394.962088 
L 161.165055 394.962088 
z
" style="fill:#c3c1f2;opacity:0.4;"/>
   </g>
   <g id="patch_226">
    <path clip-path="url(#pd6f8379f81)" d="M 161.938233 143718.26743 
L 162.711411 143718.26743 
L 162.711411 323.211165 
L 161.938233 323.211165 
z
" style="fill:#c3c1f2;opacity:0.4;"/>
   </g>
   <g id="patch_227">
    <path clip-path="url(#pd6f8379f81)" d="M 162.711411 143718.26743 
L 163.484589 143718.26743 
L 163.484589 232.897584 
L 162.711411 232.897584 
z
" style="fill:#c3c1f2;opacity:0.4;"/>
   </g>
   <g id="patch_228">
    <path clip-path="url(#pd6f8379f81)" d="M 163.484589 143718.26743 
L 164.257767 143718.26743 
L 164.257767 300.319708 
L 163.484589 300.319708 
z
" style="fill:#c3c1f2;opacity:0.4;"/>
   </g>
   <g id="patch_229">
    <path clip-path="url(#pd6f8379f81)" d="M 164.257767 143718.26743 
L 165.030945 143718.26743 
L 165.030945 245.921352 
L 164.257767 245.921352 
z
" style="fill:#c3c1f2;opacity:0.4;"/>
   </g>
   <g id="patch_230">
    <path clip-path="url(#pd6f8379f81)" d="M 165.030945 143718.26743 
L 165.804123 143718.26743 
L 165.804123 269.571019 
L 165.030945 269.571019 
z
" style="fill:#c3c1f2;opacity:0.4;"/>
   </g>
   <g id="patch_231">
    <path clip-path="url(#pd6f8379f81)" d="M 165.804123 143718.26743 
L 166.577301 143718.26743 
L 166.577301 276.450341 
L 165.804123 276.450341 
z
" style="fill:#c3c1f2;opacity:0.4;"/>
   </g>
   <g id="patch_232">
    <path clip-path="url(#pd6f8379f81)" d="M 166.577301 143718.26743 
L 167.350479 143718.26743 
L 167.350479 234.566432 
L 166.577301 234.566432 
z
" style="fill:#c3c1f2;opacity:0.4;"/>
   </g>
   <g id="patch_233">
    <path clip-path="url(#pd6f8379f81)" d="M 167.350479 143718.26743 
L 168.123657 143718.26743 
L 168.123657 223.426178 
L 167.350479 223.426178 
z
" style="fill:#c3c1f2;opacity:0.4;"/>
   </g>
   <g id="patch_234">
    <path clip-path="url(#pd6f8379f81)" d="M 168.123657 143718.26743 
L 168.896835 143718.26743 
L 168.896835 228.225043 
L 168.123657 228.225043 
z
" style="fill:#c3c1f2;opacity:0.4;"/>
   </g>
   <g id="patch_235">
    <path clip-path="url(#pd6f8379f81)" d="M 168.896835 143718.26743 
L 169.670013 143718.26743 
L 169.670013 213.259302 
L 168.896835 213.259302 
z
" style="fill:#c3c1f2;opacity:0.4;"/>
   </g>
   <g id="patch_236">
    <path clip-path="url(#pd6f8379f81)" d="M 169.670013 143718.26743 
L 170.443191 143718.26743 
L 170.443191 215.100818 
L 169.670013 215.100818 
z
" style="fill:#c3c1f2;opacity:0.4;"/>
   </g>
   <g id="patch_237">
    <path clip-path="url(#pd6f8379f81)" d="M 170.443191 143718.26743 
L 171.216369 143718.26743 
L 171.216369 150.162972 
L 170.443191 150.162972 
z
" style="fill:#c3c1f2;opacity:0.4;"/>
   </g>
   <g id="patch_238">
    <path clip-path="url(#pd6f8379f81)" d="M 171.216369 143718.26743 
L 171.989547 143718.26743 
L 171.989547 175.021176 
L 171.216369 175.021176 
z
" style="fill:#c3c1f2;opacity:0.4;"/>
   </g>
   <g id="patch_239">
    <path clip-path="url(#pd6f8379f81)" d="M 171.989547 143718.26743 
L 172.762725 143718.26743 
L 172.762725 120.636032 
L 171.989547 120.636032 
z
" style="fill:#c3c1f2;opacity:0.4;"/>
   </g>
   <g id="matplotlib.axis_1">
    <g id="xtick_1">
     <g id="line2d_1">
      <defs>
       <path d="M 0 0 
L 0 3.5 
" id="m2b7d445f91" style="stroke:#000000;stroke-width:0.8;"/>
      </defs>
      <g>
       <use style="stroke:#000000;stroke-width:0.8;" x="71.857051" xlink:href="#m2b7d445f91" y="448.56"/>
      </g>
     </g>
     <g id="text_1">
      <!-- 5.0 -->
      <defs>
       <path d="M 10.59375 35.5 
L 73.1875 35.5 
L 73.1875 27.203125 
L 10.59375 27.203125 
z
" id="DejaVuSans-2212"/>
       <path d="M 10.796875 72.90625 
L 49.515625 72.90625 
L 49.515625 64.59375 
L 19.828125 64.59375 
L 19.828125 46.734375 
Q 21.96875 47.46875 24.109375 47.828125 
Q 26.265625 48.1875 28.421875 48.1875 
Q 40.625 48.1875 47.75 41.5 
Q 54.890625 34.8125 54.890625 23.390625 
Q 54.890625 11.625 47.5625 5.09375 
Q 40.234375 -1.421875 26.90625 -1.421875 
Q 22.3125 -1.421875 17.546875 -0.640625 
Q 12.796875 0.140625 7.71875 1.703125 
L 7.71875 11.625 
Q 12.109375 9.234375 16.796875 8.0625 
Q 21.484375 6.890625 26.703125 6.890625 
Q 35.15625 6.890625 40.078125 11.328125 
Q 45.015625 15.765625 45.015625 23.390625 
Q 45.015625 31 40.078125 35.4375 
Q 35.15625 39.890625 26.703125 39.890625 
Q 22.75 39.890625 18.8125 39.015625 
Q 14.890625 38.140625 10.796875 36.28125 
z
" id="DejaVuSans-35"/>
       <path d="M 10.6875 12.40625 
L 21 12.40625 
L 21 0 
L 10.6875 0 
z
" id="DejaVuSans-2e"/>
       <path d="M 31.78125 66.40625 
Q 24.171875 66.40625 20.328125 58.90625 
Q 16.5 51.421875 16.5 36.375 
Q 16.5 21.390625 20.328125 13.890625 
Q 24.171875 6.390625 31.78125 6.390625 
Q 39.453125 6.390625 43.28125 13.890625 
Q 47.125 21.390625 47.125 36.375 
Q 47.125 51.421875 43.28125 58.90625 
Q 39.453125 66.40625 31.78125 66.40625 
z
M 31.78125 74.21875 
Q 44.046875 74.21875 50.515625 64.515625 
Q 56.984375 54.828125 56.984375 36.375 
Q 56.984375 17.96875 50.515625 8.265625 
Q 44.046875 -1.421875 31.78125 -1.421875 
Q 19.53125 -1.421875 13.0625 8.265625 
Q 6.59375 17.96875 6.59375 36.375 
Q 6.59375 54.828125 13.0625 64.515625 
Q 19.53125 74.21875 31.78125 74.21875 
z
" id="DejaVuSans-30"/>
      </defs>
      <g transform="translate(59.715645 463.158437)scale(0.1 -0.1)">
       <use xlink:href="#DejaVuSans-2212"/>
       <use x="83.789062" xlink:href="#DejaVuSans-35"/>
       <use x="147.412109" xlink:href="#DejaVuSans-2e"/>
       <use x="179.199219" xlink:href="#DejaVuSans-30"/>
      </g>
     </g>
    </g>
    <g id="xtick_2">
     <g id="line2d_2">
      <g>
       <use style="stroke:#000000;stroke-width:0.8;" x="122.410996" xlink:href="#m2b7d445f91" y="448.56"/>
      </g>
     </g>
     <g id="text_2">
      <!-- 2.5 -->
      <defs>
       <path d="M 19.1875 8.296875 
L 53.609375 8.296875 
L 53.609375 0 
L 7.328125 0 
L 7.328125 8.296875 
Q 12.9375 14.109375 22.625 23.890625 
Q 32.328125 33.6875 34.8125 36.53125 
Q 39.546875 41.84375 41.421875 45.53125 
Q 43.3125 49.21875 43.3125 52.78125 
Q 43.3125 58.59375 39.234375 62.25 
Q 35.15625 65.921875 28.609375 65.921875 
Q 23.96875 65.921875 18.8125 64.3125 
Q 13.671875 62.703125 7.8125 59.421875 
L 7.8125 69.390625 
Q 13.765625 71.78125 18.9375 73 
Q 24.125 74.21875 28.421875 74.21875 
Q 39.75 74.21875 46.484375 68.546875 
Q 53.21875 62.890625 53.21875 53.421875 
Q 53.21875 48.921875 51.53125 44.890625 
Q 49.859375 40.875 45.40625 35.40625 
Q 44.1875 33.984375 37.640625 27.21875 
Q 31.109375 20.453125 19.1875 8.296875 
z
" id="DejaVuSans-32"/>
      </defs>
      <g transform="translate(110.26959 463.158437)scale(0.1 -0.1)">
       <use xlink:href="#DejaVuSans-2212"/>
       <use x="83.789062" xlink:href="#DejaVuSans-32"/>
       <use x="147.412109" xlink:href="#DejaVuSans-2e"/>
       <use x="179.199219" xlink:href="#DejaVuSans-35"/>
      </g>
     </g>
    </g>
    <g id="xtick_3">
     <g id="line2d_3">
      <g>
       <use style="stroke:#000000;stroke-width:0.8;" x="172.964941" xlink:href="#m2b7d445f91" y="448.56"/>
      </g>
     </g>
     <g id="text_3">
      <!-- 0.0 -->
      <g transform="translate(165.013378 463.158437)scale(0.1 -0.1)">
       <use xlink:href="#DejaVuSans-30"/>
       <use x="63.623047" xlink:href="#DejaVuSans-2e"/>
       <use x="95.410156" xlink:href="#DejaVuSans-30"/>
      </g>
     </g>
    </g>
    <g id="xtick_4">
     <g id="line2d_4">
      <g>
       <use style="stroke:#000000;stroke-width:0.8;" x="223.518886" xlink:href="#m2b7d445f91" y="448.56"/>
      </g>
     </g>
     <g id="text_4">
      <!-- 2.5 -->
      <g transform="translate(215.567323 463.158437)scale(0.1 -0.1)">
       <use xlink:href="#DejaVuSans-32"/>
       <use x="63.623047" xlink:href="#DejaVuSans-2e"/>
       <use x="95.410156" xlink:href="#DejaVuSans-35"/>
      </g>
     </g>
    </g>
    <g id="xtick_5">
     <g id="line2d_5">
      <g>
       <use style="stroke:#000000;stroke-width:0.8;" x="274.072831" xlink:href="#m2b7d445f91" y="448.56"/>
      </g>
     </g>
     <g id="text_5">
      <!-- 5.0 -->
      <g transform="translate(266.121268 463.158437)scale(0.1 -0.1)">
       <use xlink:href="#DejaVuSans-35"/>
       <use x="63.623047" xlink:href="#DejaVuSans-2e"/>
       <use x="95.410156" xlink:href="#DejaVuSans-30"/>
      </g>
     </g>
    </g>
    <g id="xtick_6">
     <g id="line2d_6">
      <g>
       <use style="stroke:#000000;stroke-width:0.8;" x="324.626776" xlink:href="#m2b7d445f91" y="448.56"/>
      </g>
     </g>
     <g id="text_6">
      <!-- 7.5 -->
      <defs>
       <path d="M 8.203125 72.90625 
L 55.078125 72.90625 
L 55.078125 68.703125 
L 28.609375 0 
L 18.3125 0 
L 43.21875 64.59375 
L 8.203125 64.59375 
z
" id="DejaVuSans-37"/>
      </defs>
      <g transform="translate(316.675213 463.158437)scale(0.1 -0.1)">
       <use xlink:href="#DejaVuSans-37"/>
       <use x="63.623047" xlink:href="#DejaVuSans-2e"/>
       <use x="95.410156" xlink:href="#DejaVuSans-35"/>
      </g>
     </g>
    </g>
    <g id="xtick_7">
     <g id="line2d_7">
      <g>
       <use style="stroke:#000000;stroke-width:0.8;" x="375.180721" xlink:href="#m2b7d445f91" y="448.56"/>
      </g>
     </g>
     <g id="text_7">
      <!-- 10.0 -->
      <defs>
       <path d="M 12.40625 8.296875 
L 28.515625 8.296875 
L 28.515625 63.921875 
L 10.984375 60.40625 
L 10.984375 69.390625 
L 28.421875 72.90625 
L 38.28125 72.90625 
L 38.28125 8.296875 
L 54.390625 8.296875 
L 54.390625 0 
L 12.40625 0 
z
" id="DejaVuSans-31"/>
      </defs>
      <g transform="translate(364.047908 463.158437)scale(0.1 -0.1)">
       <use xlink:href="#DejaVuSans-31"/>
       <use x="63.623047" xlink:href="#DejaVuSans-30"/>
       <use x="127.246094" xlink:href="#DejaVuSans-2e"/>
       <use x="159.033203" xlink:href="#DejaVuSans-30"/>
      </g>
     </g>
    </g>
    <g id="xtick_8">
     <g id="line2d_8">
      <g>
       <use style="stroke:#000000;stroke-width:0.8;" x="425.734666" xlink:href="#m2b7d445f91" y="448.56"/>
      </g>
     </g>
     <g id="text_8">
      <!-- 12.5 -->
      <g transform="translate(414.601853 463.158437)scale(0.1 -0.1)">
       <use xlink:href="#DejaVuSans-31"/>
       <use x="63.623047" xlink:href="#DejaVuSans-32"/>
       <use x="127.246094" xlink:href="#DejaVuSans-2e"/>
       <use x="159.033203" xlink:href="#DejaVuSans-35"/>
      </g>
     </g>
    </g>
   </g>
   <g id="matplotlib.axis_2">
    <g id="ytick_1">
     <g id="line2d_9">
      <defs>
       <path d="M 0 0 
L -3.5 0 
" id="m107b188643" style="stroke:#000000;stroke-width:0.8;"/>
      </defs>
      <g>
       <use style="stroke:#000000;stroke-width:0.8;" x="63" xlink:href="#m107b188643" y="350.405901"/>
      </g>
     </g>
     <g id="text_9">
      <!-- $\mathdefault{10^{4}}$ -->
      <defs>
       <path d="M 37.796875 64.3125 
L 12.890625 25.390625 
L 37.796875 25.390625 
z
M 35.203125 72.90625 
L 47.609375 72.90625 
L 47.609375 25.390625 
L 58.015625 25.390625 
L 58.015625 17.1875 
L 47.609375 17.1875 
L 47.609375 0 
L 37.796875 0 
L 37.796875 17.1875 
L 4.890625 17.1875 
L 4.890625 26.703125 
z
" id="DejaVuSans-34"/>
      </defs>
      <g transform="translate(38.4 354.20512)scale(0.1 -0.1)">
       <use transform="translate(0 0.684375)" xlink:href="#DejaVuSans-31"/>
       <use transform="translate(63.623047 0.684375)" xlink:href="#DejaVuSans-30"/>
       <use transform="translate(128.203125 38.965625)scale(0.7)" xlink:href="#DejaVuSans-34"/>
      </g>
     </g>
    </g>
    <g id="ytick_2">
     <g id="line2d_10">
      <g>
       <use style="stroke:#000000;stroke-width:0.8;" x="63" xlink:href="#m107b188643" y="207.609226"/>
      </g>
     </g>
     <g id="text_10">
      <!-- $\mathdefault{10^{5}}$ -->
      <g transform="translate(38.4 211.408445)scale(0.1 -0.1)">
       <use transform="translate(0 0.684375)" xlink:href="#DejaVuSans-31"/>
       <use transform="translate(63.623047 0.684375)" xlink:href="#DejaVuSans-30"/>
       <use transform="translate(128.203125 38.965625)scale(0.7)" xlink:href="#DejaVuSans-35"/>
      </g>
     </g>
    </g>
    <g id="ytick_3">
     <g id="line2d_11">
      <g>
       <use style="stroke:#000000;stroke-width:0.8;" x="63" xlink:href="#m107b188643" y="64.812551"/>
      </g>
     </g>
     <g id="text_11">
      <!-- $\mathdefault{10^{6}}$ -->
      <defs>
       <path d="M 33.015625 40.375 
Q 26.375 40.375 22.484375 35.828125 
Q 18.609375 31.296875 18.609375 23.390625 
Q 18.609375 15.53125 22.484375 10.953125 
Q 26.375 6.390625 33.015625 6.390625 
Q 39.65625 6.390625 43.53125 10.953125 
Q 47.40625 15.53125 47.40625 23.390625 
Q 47.40625 31.296875 43.53125 35.828125 
Q 39.65625 40.375 33.015625 40.375 
z
M 52.59375 71.296875 
L 52.59375 62.3125 
Q 48.875 64.0625 45.09375 64.984375 
Q 41.3125 65.921875 37.59375 65.921875 
Q 27.828125 65.921875 22.671875 59.328125 
Q 17.53125 52.734375 16.796875 39.40625 
Q 19.671875 43.65625 24.015625 45.921875 
Q 28.375 48.1875 33.59375 48.1875 
Q 44.578125 48.1875 50.953125 41.515625 
Q 57.328125 34.859375 57.328125 23.390625 
Q 57.328125 12.15625 50.6875 5.359375 
Q 44.046875 -1.421875 33.015625 -1.421875 
Q 20.359375 -1.421875 13.671875 8.265625 
Q 6.984375 17.96875 6.984375 36.375 
Q 6.984375 53.65625 15.1875 63.9375 
Q 23.390625 74.21875 37.203125 74.21875 
Q 40.921875 74.21875 44.703125 73.484375 
Q 48.484375 72.75 52.59375 71.296875 
z
" id="DejaVuSans-36"/>
      </defs>
      <g transform="translate(38.4 68.61177)scale(0.1 -0.1)">
       <use transform="translate(0 0.765625)" xlink:href="#DejaVuSans-31"/>
       <use transform="translate(63.623047 0.765625)" xlink:href="#DejaVuSans-30"/>
       <use transform="translate(128.203125 39.046875)scale(0.7)" xlink:href="#DejaVuSans-36"/>
      </g>
     </g>
    </g>
    <g id="ytick_4">
     <g id="line2d_12">
      <defs>
       <path d="M 0 0 
L -2 0 
" id="mb2feb8dfa8" style="stroke:#000000;stroke-width:0.6;"/>
      </defs>
      <g>
       <use style="stroke:#000000;stroke-width:0.6;" x="63" xlink:href="#mb2feb8dfa8" y="425.071247"/>
      </g>
     </g>
    </g>
    <g id="ytick_5">
     <g id="line2d_13">
      <g>
       <use style="stroke:#000000;stroke-width:0.6;" x="63" xlink:href="#mb2feb8dfa8" y="407.230411"/>
      </g>
     </g>
    </g>
    <g id="ytick_6">
     <g id="line2d_14">
      <g>
       <use style="stroke:#000000;stroke-width:0.6;" x="63" xlink:href="#mb2feb8dfa8" y="393.391983"/>
      </g>
     </g>
    </g>
    <g id="ytick_7">
     <g id="line2d_15">
      <g>
       <use style="stroke:#000000;stroke-width:0.6;" x="63" xlink:href="#mb2feb8dfa8" y="382.085165"/>
      </g>
     </g>
    </g>
    <g id="ytick_8">
     <g id="line2d_16">
      <g>
       <use style="stroke:#000000;stroke-width:0.6;" x="63" xlink:href="#mb2feb8dfa8" y="372.525386"/>
      </g>
     </g>
    </g>
    <g id="ytick_9">
     <g id="line2d_17">
      <g>
       <use style="stroke:#000000;stroke-width:0.6;" x="63" xlink:href="#mb2feb8dfa8" y="364.244328"/>
      </g>
     </g>
    </g>
    <g id="ytick_10">
     <g id="line2d_18">
      <g>
       <use style="stroke:#000000;stroke-width:0.6;" x="63" xlink:href="#mb2feb8dfa8" y="356.939918"/>
      </g>
     </g>
    </g>
    <g id="ytick_11">
     <g id="line2d_19">
      <g>
       <use style="stroke:#000000;stroke-width:0.6;" x="63" xlink:href="#mb2feb8dfa8" y="307.419818"/>
      </g>
     </g>
    </g>
    <g id="ytick_12">
     <g id="line2d_20">
      <g>
       <use style="stroke:#000000;stroke-width:0.6;" x="63" xlink:href="#mb2feb8dfa8" y="282.274572"/>
      </g>
     </g>
    </g>
    <g id="ytick_13">
     <g id="line2d_21">
      <g>
       <use style="stroke:#000000;stroke-width:0.6;" x="63" xlink:href="#mb2feb8dfa8" y="264.433736"/>
      </g>
     </g>
    </g>
    <g id="ytick_14">
     <g id="line2d_22">
      <g>
       <use style="stroke:#000000;stroke-width:0.6;" x="63" xlink:href="#mb2feb8dfa8" y="250.595308"/>
      </g>
     </g>
    </g>
    <g id="ytick_15">
     <g id="line2d_23">
      <g>
       <use style="stroke:#000000;stroke-width:0.6;" x="63" xlink:href="#mb2feb8dfa8" y="239.28849"/>
      </g>
     </g>
    </g>
    <g id="ytick_16">
     <g id="line2d_24">
      <g>
       <use style="stroke:#000000;stroke-width:0.6;" x="63" xlink:href="#mb2feb8dfa8" y="229.728711"/>
      </g>
     </g>
    </g>
    <g id="ytick_17">
     <g id="line2d_25">
      <g>
       <use style="stroke:#000000;stroke-width:0.6;" x="63" xlink:href="#mb2feb8dfa8" y="221.447654"/>
      </g>
     </g>
    </g>
    <g id="ytick_18">
     <g id="line2d_26">
      <g>
       <use style="stroke:#000000;stroke-width:0.6;" x="63" xlink:href="#mb2feb8dfa8" y="214.143244"/>
      </g>
     </g>
    </g>
    <g id="ytick_19">
     <g id="line2d_27">
      <g>
       <use style="stroke:#000000;stroke-width:0.6;" x="63" xlink:href="#mb2feb8dfa8" y="164.623144"/>
      </g>
     </g>
    </g>
    <g id="ytick_20">
     <g id="line2d_28">
      <g>
       <use style="stroke:#000000;stroke-width:0.6;" x="63" xlink:href="#mb2feb8dfa8" y="139.477897"/>
      </g>
     </g>
    </g>
    <g id="ytick_21">
     <g id="line2d_29">
      <g>
       <use style="stroke:#000000;stroke-width:0.6;" x="63" xlink:href="#mb2feb8dfa8" y="121.637061"/>
      </g>
     </g>
    </g>
    <g id="ytick_22">
     <g id="line2d_30">
      <g>
       <use style="stroke:#000000;stroke-width:0.6;" x="63" xlink:href="#mb2feb8dfa8" y="107.798634"/>
      </g>
     </g>
    </g>
    <g id="ytick_23">
     <g id="line2d_31">
      <g>
       <use style="stroke:#000000;stroke-width:0.6;" x="63" xlink:href="#mb2feb8dfa8" y="96.491815"/>
      </g>
     </g>
    </g>
    <g id="ytick_24">
     <g id="line2d_32">
      <g>
       <use style="stroke:#000000;stroke-width:0.6;" x="63" xlink:href="#mb2feb8dfa8" y="86.932036"/>
      </g>
     </g>
    </g>
    <g id="ytick_25">
     <g id="line2d_33">
      <g>
       <use style="stroke:#000000;stroke-width:0.6;" x="63" xlink:href="#mb2feb8dfa8" y="78.650979"/>
      </g>
     </g>
    </g>
    <g id="ytick_26">
     <g id="line2d_34">
      <g>
       <use style="stroke:#000000;stroke-width:0.6;" x="63" xlink:href="#mb2feb8dfa8" y="71.346569"/>
      </g>
     </g>
    </g>
   </g>
   <g id="patch_240">
    <path d="M 63 448.56 
L 63 60.48 
" style="fill:none;stroke:#000000;stroke-linecap:square;stroke-linejoin:miter;stroke-width:0.8;"/>
   </g>
   <g id="patch_241">
    <path d="M 453.6 448.56 
L 453.6 60.48 
" style="fill:none;stroke:#000000;stroke-linecap:square;stroke-linejoin:miter;stroke-width:0.8;"/>
   </g>
   <g id="patch_242">
    <path d="M 63 448.56 
L 453.6 448.56 
" style="fill:none;stroke:#000000;stroke-linecap:square;stroke-linejoin:miter;stroke-width:0.8;"/>
   </g>
   <g id="patch_243">
    <path d="M 63 60.48 
L 453.6 60.48 
" style="fill:none;stroke:#000000;stroke-linecap:square;stroke-linejoin:miter;stroke-width:0.8;"/>
   </g>
   <g id="text_12">
    <!-- Bid/Ask Gap Distribution -->
    <defs>
     <path d="M 19.671875 34.8125 
L 19.671875 8.109375 
L 35.5 8.109375 
Q 43.453125 8.109375 47.28125 11.40625 
Q 51.125 14.703125 51.125 21.484375 
Q 51.125 28.328125 47.28125 31.5625 
Q 43.453125 34.8125 35.5 34.8125 
z
M 19.671875 64.796875 
L 19.671875 42.828125 
L 34.28125 42.828125 
Q 41.5 42.828125 45.03125 45.53125 
Q 48.578125 48.25 48.578125 53.8125 
Q 48.578125 59.328125 45.03125 62.0625 
Q 41.5 64.796875 34.28125 64.796875 
z
M 9.8125 72.90625 
L 35.015625 72.90625 
Q 46.296875 72.90625 52.390625 68.21875 
Q 58.5 63.53125 58.5 54.890625 
Q 58.5 48.1875 55.375 44.234375 
Q 52.25 40.28125 46.1875 39.3125 
Q 53.46875 37.75 57.5 32.78125 
Q 61.53125 27.828125 61.53125 20.40625 
Q 61.53125 10.640625 54.890625 5.3125 
Q 48.25 0 35.984375 0 
L 9.8125 0 
z
" id="DejaVuSans-42"/>
     <path d="M 9.421875 54.6875 
L 18.40625 54.6875 
L 18.40625 0 
L 9.421875 0 
z
M 9.421875 75.984375 
L 18.40625 75.984375 
L 18.40625 64.59375 
L 9.421875 64.59375 
z
" id="DejaVuSans-69"/>
     <path d="M 45.40625 46.390625 
L 45.40625 75.984375 
L 54.390625 75.984375 
L 54.390625 0 
L 45.40625 0 
L 45.40625 8.203125 
Q 42.578125 3.328125 38.25 0.953125 
Q 33.9375 -1.421875 27.875 -1.421875 
Q 17.96875 -1.421875 11.734375 6.484375 
Q 5.515625 14.40625 5.515625 27.296875 
Q 5.515625 40.1875 11.734375 48.09375 
Q 17.96875 56 27.875 56 
Q 33.9375 56 38.25 53.625 
Q 42.578125 51.265625 45.40625 46.390625 
z
M 14.796875 27.296875 
Q 14.796875 17.390625 18.875 11.75 
Q 22.953125 6.109375 30.078125 6.109375 
Q 37.203125 6.109375 41.296875 11.75 
Q 45.40625 17.390625 45.40625 27.296875 
Q 45.40625 37.203125 41.296875 42.84375 
Q 37.203125 48.484375 30.078125 48.484375 
Q 22.953125 48.484375 18.875 42.84375 
Q 14.796875 37.203125 14.796875 27.296875 
z
" id="DejaVuSans-64"/>
     <path d="M 25.390625 72.90625 
L 33.6875 72.90625 
L 8.296875 -9.28125 
L 0 -9.28125 
z
" id="DejaVuSans-2f"/>
     <path d="M 34.1875 63.1875 
L 20.796875 26.90625 
L 47.609375 26.90625 
z
M 28.609375 72.90625 
L 39.796875 72.90625 
L 67.578125 0 
L 57.328125 0 
L 50.6875 18.703125 
L 17.828125 18.703125 
L 11.1875 0 
L 0.78125 0 
z
" id="DejaVuSans-41"/>
     <path d="M 44.28125 53.078125 
L 44.28125 44.578125 
Q 40.484375 46.53125 36.375 47.5 
Q 32.28125 48.484375 27.875 48.484375 
Q 21.1875 48.484375 17.84375 46.4375 
Q 14.5 44.390625 14.5 40.28125 
Q 14.5 37.15625 16.890625 35.375 
Q 19.28125 33.59375 26.515625 31.984375 
L 29.59375 31.296875 
Q 39.15625 29.25 43.1875 25.515625 
Q 47.21875 21.78125 47.21875 15.09375 
Q 47.21875 7.46875 41.1875 3.015625 
Q 35.15625 -1.421875 24.609375 -1.421875 
Q 20.21875 -1.421875 15.453125 -0.5625 
Q 10.6875 0.296875 5.421875 2 
L 5.421875 11.28125 
Q 10.40625 8.6875 15.234375 7.390625 
Q 20.0625 6.109375 24.8125 6.109375 
Q 31.15625 6.109375 34.5625 8.28125 
Q 37.984375 10.453125 37.984375 14.40625 
Q 37.984375 18.0625 35.515625 20.015625 
Q 33.0625 21.96875 24.703125 23.78125 
L 21.578125 24.515625 
Q 13.234375 26.265625 9.515625 29.90625 
Q 5.8125 33.546875 5.8125 39.890625 
Q 5.8125 47.609375 11.28125 51.796875 
Q 16.75 56 26.8125 56 
Q 31.78125 56 36.171875 55.265625 
Q 40.578125 54.546875 44.28125 53.078125 
z
" id="DejaVuSans-73"/>
     <path d="M 9.078125 75.984375 
L 18.109375 75.984375 
L 18.109375 31.109375 
L 44.921875 54.6875 
L 56.390625 54.6875 
L 27.390625 29.109375 
L 57.625 0 
L 45.90625 0 
L 18.109375 26.703125 
L 18.109375 0 
L 9.078125 0 
z
" id="DejaVuSans-6b"/>
     <path id="DejaVuSans-20"/>
     <path d="M 59.515625 10.40625 
L 59.515625 29.984375 
L 43.40625 29.984375 
L 43.40625 38.09375 
L 69.28125 38.09375 
L 69.28125 6.78125 
Q 63.578125 2.734375 56.6875 0.65625 
Q 49.8125 -1.421875 42 -1.421875 
Q 24.90625 -1.421875 15.25 8.5625 
Q 5.609375 18.5625 5.609375 36.375 
Q 5.609375 54.25 15.25 64.234375 
Q 24.90625 74.21875 42 74.21875 
Q 49.125 74.21875 55.546875 72.453125 
Q 61.96875 70.703125 67.390625 67.28125 
L 67.390625 56.78125 
Q 61.921875 61.421875 55.765625 63.765625 
Q 49.609375 66.109375 42.828125 66.109375 
Q 29.4375 66.109375 22.71875 58.640625 
Q 16.015625 51.171875 16.015625 36.375 
Q 16.015625 21.625 22.71875 14.15625 
Q 29.4375 6.6875 42.828125 6.6875 
Q 48.046875 6.6875 52.140625 7.59375 
Q 56.25 8.5 59.515625 10.40625 
z
" id="DejaVuSans-47"/>
     <path d="M 34.28125 27.484375 
Q 23.390625 27.484375 19.1875 25 
Q 14.984375 22.515625 14.984375 16.5 
Q 14.984375 11.71875 18.140625 8.90625 
Q 21.296875 6.109375 26.703125 6.109375 
Q 34.1875 6.109375 38.703125 11.40625 
Q 43.21875 16.703125 43.21875 25.484375 
L 43.21875 27.484375 
z
M 52.203125 31.203125 
L 52.203125 0 
L 43.21875 0 
L 43.21875 8.296875 
Q 40.140625 3.328125 35.546875 0.953125 
Q 30.953125 -1.421875 24.3125 -1.421875 
Q 15.921875 -1.421875 10.953125 3.296875 
Q 6 8.015625 6 15.921875 
Q 6 25.140625 12.171875 29.828125 
Q 18.359375 34.515625 30.609375 34.515625 
L 43.21875 34.515625 
L 43.21875 35.40625 
Q 43.21875 41.609375 39.140625 45 
Q 35.0625 48.390625 27.6875 48.390625 
Q 23 48.390625 18.546875 47.265625 
Q 14.109375 46.140625 10.015625 43.890625 
L 10.015625 52.203125 
Q 14.9375 54.109375 19.578125 55.046875 
Q 24.21875 56 28.609375 56 
Q 40.484375 56 46.34375 49.84375 
Q 52.203125 43.703125 52.203125 31.203125 
z
" id="DejaVuSans-61"/>
     <path d="M 18.109375 8.203125 
L 18.109375 -20.796875 
L 9.078125 -20.796875 
L 9.078125 54.6875 
L 18.109375 54.6875 
L 18.109375 46.390625 
Q 20.953125 51.265625 25.265625 53.625 
Q 29.59375 56 35.59375 56 
Q 45.5625 56 51.78125 48.09375 
Q 58.015625 40.1875 58.015625 27.296875 
Q 58.015625 14.40625 51.78125 6.484375 
Q 45.5625 -1.421875 35.59375 -1.421875 
Q 29.59375 -1.421875 25.265625 0.953125 
Q 20.953125 3.328125 18.109375 8.203125 
z
M 48.6875 27.296875 
Q 48.6875 37.203125 44.609375 42.84375 
Q 40.53125 48.484375 33.40625 48.484375 
Q 26.265625 48.484375 22.1875 42.84375 
Q 18.109375 37.203125 18.109375 27.296875 
Q 18.109375 17.390625 22.1875 11.75 
Q 26.265625 6.109375 33.40625 6.109375 
Q 40.53125 6.109375 44.609375 11.75 
Q 48.6875 17.390625 48.6875 27.296875 
z
" id="DejaVuSans-70"/>
     <path d="M 19.671875 64.796875 
L 19.671875 8.109375 
L 31.59375 8.109375 
Q 46.6875 8.109375 53.6875 14.9375 
Q 60.6875 21.78125 60.6875 36.53125 
Q 60.6875 51.171875 53.6875 57.984375 
Q 46.6875 64.796875 31.59375 64.796875 
z
M 9.8125 72.90625 
L 30.078125 72.90625 
Q 51.265625 72.90625 61.171875 64.09375 
Q 71.09375 55.28125 71.09375 36.53125 
Q 71.09375 17.671875 61.125 8.828125 
Q 51.171875 0 30.078125 0 
L 9.8125 0 
z
" id="DejaVuSans-44"/>
     <path d="M 18.3125 70.21875 
L 18.3125 54.6875 
L 36.8125 54.6875 
L 36.8125 47.703125 
L 18.3125 47.703125 
L 18.3125 18.015625 
Q 18.3125 11.328125 20.140625 9.421875 
Q 21.96875 7.515625 27.59375 7.515625 
L 36.8125 7.515625 
L 36.8125 0 
L 27.59375 0 
Q 17.1875 0 13.234375 3.875 
Q 9.28125 7.765625 9.28125 18.015625 
L 9.28125 47.703125 
L 2.6875 47.703125 
L 2.6875 54.6875 
L 9.28125 54.6875 
L 9.28125 70.21875 
z
" id="DejaVuSans-74"/>
     <path d="M 41.109375 46.296875 
Q 39.59375 47.171875 37.8125 47.578125 
Q 36.03125 48 33.890625 48 
Q 26.265625 48 22.1875 43.046875 
Q 18.109375 38.09375 18.109375 28.8125 
L 18.109375 0 
L 9.078125 0 
L 9.078125 54.6875 
L 18.109375 54.6875 
L 18.109375 46.1875 
Q 20.953125 51.171875 25.484375 53.578125 
Q 30.03125 56 36.53125 56 
Q 37.453125 56 38.578125 55.875 
Q 39.703125 55.765625 41.0625 55.515625 
z
" id="DejaVuSans-72"/>
     <path d="M 48.6875 27.296875 
Q 48.6875 37.203125 44.609375 42.84375 
Q 40.53125 48.484375 33.40625 48.484375 
Q 26.265625 48.484375 22.1875 42.84375 
Q 18.109375 37.203125 18.109375 27.296875 
Q 18.109375 17.390625 22.1875 11.75 
Q 26.265625 6.109375 33.40625 6.109375 
Q 40.53125 6.109375 44.609375 11.75 
Q 48.6875 17.390625 48.6875 27.296875 
z
M 18.109375 46.390625 
Q 20.953125 51.265625 25.265625 53.625 
Q 29.59375 56 35.59375 56 
Q 45.5625 56 51.78125 48.09375 
Q 58.015625 40.1875 58.015625 27.296875 
Q 58.015625 14.40625 51.78125 6.484375 
Q 45.5625 -1.421875 35.59375 -1.421875 
Q 29.59375 -1.421875 25.265625 0.953125 
Q 20.953125 3.328125 18.109375 8.203125 
L 18.109375 0 
L 9.078125 0 
L 9.078125 75.984375 
L 18.109375 75.984375 
z
" id="DejaVuSans-62"/>
     <path d="M 8.5 21.578125 
L 8.5 54.6875 
L 17.484375 54.6875 
L 17.484375 21.921875 
Q 17.484375 14.15625 20.5 10.265625 
Q 23.53125 6.390625 29.59375 6.390625 
Q 36.859375 6.390625 41.078125 11.03125 
Q 45.3125 15.671875 45.3125 23.6875 
L 45.3125 54.6875 
L 54.296875 54.6875 
L 54.296875 0 
L 45.3125 0 
L 45.3125 8.40625 
Q 42.046875 3.421875 37.71875 1 
Q 33.40625 -1.421875 27.6875 -1.421875 
Q 18.265625 -1.421875 13.375 4.4375 
Q 8.5 10.296875 8.5 21.578125 
z
M 31.109375 56 
z
" id="DejaVuSans-75"/>
     <path d="M 30.609375 48.390625 
Q 23.390625 48.390625 19.1875 42.75 
Q 14.984375 37.109375 14.984375 27.296875 
Q 14.984375 17.484375 19.15625 11.84375 
Q 23.34375 6.203125 30.609375 6.203125 
Q 37.796875 6.203125 41.984375 11.859375 
Q 46.1875 17.53125 46.1875 27.296875 
Q 46.1875 37.015625 41.984375 42.703125 
Q 37.796875 48.390625 30.609375 48.390625 
z
M 30.609375 56 
Q 42.328125 56 49.015625 48.375 
Q 55.71875 40.765625 55.71875 27.296875 
Q 55.71875 13.875 49.015625 6.21875 
Q 42.328125 -1.421875 30.609375 -1.421875 
Q 18.84375 -1.421875 12.171875 6.21875 
Q 5.515625 13.875 5.515625 27.296875 
Q 5.515625 40.765625 12.171875 48.375 
Q 18.84375 56 30.609375 56 
z
" id="DejaVuSans-6f"/>
     <path d="M 54.890625 33.015625 
L 54.890625 0 
L 45.90625 0 
L 45.90625 32.71875 
Q 45.90625 40.484375 42.875 44.328125 
Q 39.84375 48.1875 33.796875 48.1875 
Q 26.515625 48.1875 22.3125 43.546875 
Q 18.109375 38.921875 18.109375 30.90625 
L 18.109375 0 
L 9.078125 0 
L 9.078125 54.6875 
L 18.109375 54.6875 
L 18.109375 46.1875 
Q 21.34375 51.125 25.703125 53.5625 
Q 30.078125 56 35.796875 56 
Q 45.21875 56 50.046875 50.171875 
Q 54.890625 44.34375 54.890625 33.015625 
z
" id="DejaVuSans-6e"/>
    </defs>
    <g transform="translate(185.030625 54.48)scale(0.12 -0.12)">
     <use xlink:href="#DejaVuSans-42"/>
     <use x="68.603516" xlink:href="#DejaVuSans-69"/>
     <use x="96.386719" xlink:href="#DejaVuSans-64"/>
     <use x="159.863281" xlink:href="#DejaVuSans-2f"/>
     <use x="193.554688" xlink:href="#DejaVuSans-41"/>
     <use x="261.962891" xlink:href="#DejaVuSans-73"/>
     <use x="314.0625" xlink:href="#DejaVuSans-6b"/>
     <use x="371.972656" xlink:href="#DejaVuSans-20"/>
     <use x="403.759766" xlink:href="#DejaVuSans-47"/>
     <use x="481.25" xlink:href="#DejaVuSans-61"/>
     <use x="542.529297" xlink:href="#DejaVuSans-70"/>
     <use x="606.005859" xlink:href="#DejaVuSans-20"/>
     <use x="637.792969" xlink:href="#DejaVuSans-44"/>
     <use x="714.794922" xlink:href="#DejaVuSans-69"/>
     <use x="742.578125" xlink:href="#DejaVuSans-73"/>
     <use x="794.677734" xlink:href="#DejaVuSans-74"/>
     <use x="833.886719" xlink:href="#DejaVuSans-72"/>
     <use x="875" xlink:href="#DejaVuSans-69"/>
     <use x="902.783203" xlink:href="#DejaVuSans-62"/>
     <use x="966.259766" xlink:href="#DejaVuSans-75"/>
     <use x="1029.638672" xlink:href="#DejaVuSans-74"/>
     <use x="1068.847656" xlink:href="#DejaVuSans-69"/>
     <use x="1096.630859" xlink:href="#DejaVuSans-6f"/>
     <use x="1157.8125" xlink:href="#DejaVuSans-6e"/>
    </g>
   </g>
  </g>
 </g>
 <defs>
  <clipPath id="pd6f8379f81">
   <rect height="388.08" width="390.6" x="63" y="60.48"/>
  </clipPath>
 </defs>
</svg>
