<?xml version="1.0" encoding="utf-8" standalone="no"?>
<!DOCTYPE svg PUBLIC "-//W3C//DTD SVG 1.1//EN"
  "http://www.w3.org/Graphics/SVG/1.1/DTD/svg11.dtd">
<!-- Created with matplotlib (http://matplotlib.org/) -->
<svg height="345.6pt" version="1.1" viewBox="0 0 460.8 345.6" width="460.8pt" xmlns="http://www.w3.org/2000/svg" xmlns:xlink="http://www.w3.org/1999/xlink">
 <defs>
  <style type="text/css">
*{stroke-linecap:butt;stroke-linejoin:round;}
  </style>
 </defs>
 <g id="figure_1">
  <g id="patch_1">
   <path d="M 0 345.6 
L 460.8 345.6 
L 460.8 0 
L 0 0 
z
" style="fill:#ffffff;"/>
  </g>
  <g id="axes_1">
   <g id="patch_2">
    <path d="M 57.6 307.584 
L 414.72 307.584 
L 414.72 41.472 
L 57.6 41.472 
z
" style="fill:#ffffff;"/>
   </g>
   <g id="patch_3">
    <path clip-path="url(#p1be03cff8e)" d="M 247.158811 77242.528281 
L 248.803685 77242.528281 
L 248.803685 53.568 
L 247.158811 53.568 
z
" style="fill:#1f77b4;opacity:0.4;"/>
   </g>
   <g id="patch_4">
    <path clip-path="url(#p1be03cff8e)" d="M 248.803685 77242.528281 
L 250.44856 77242.528281 
L 250.44856 88.49772 
L 248.803685 88.49772 
z
" style="fill:#1f77b4;opacity:0.4;"/>
   </g>
   <g id="patch_5">
    <path clip-path="url(#p1be03cff8e)" d="M 250.44856 77242.528281 
L 252.093434 77242.528281 
L 252.093434 82.250071 
L 250.44856 82.250071 
z
" style="fill:#1f77b4;opacity:0.4;"/>
   </g>
   <g id="patch_6">
    <path clip-path="url(#p1be03cff8e)" d="M 252.093434 77242.528281 
L 253.738309 77242.528281 
L 253.738309 112.439554 
L 252.093434 112.439554 
z
" style="fill:#1f77b4;opacity:0.4;"/>
   </g>
   <g id="patch_7">
    <path clip-path="url(#p1be03cff8e)" d="M 253.738309 77242.528281 
L 255.383183 77242.528281 
L 255.383183 98.071764 
L 253.738309 98.071764 
z
" style="fill:#1f77b4;opacity:0.4;"/>
   </g>
   <g id="patch_8">
    <path clip-path="url(#p1be03cff8e)" d="M 255.383183 77242.528281 
L 257.028058 77242.528281 
L 257.028058 118.789812 
L 255.383183 118.789812 
z
" style="fill:#1f77b4;opacity:0.4;"/>
   </g>
   <g id="patch_9">
    <path clip-path="url(#p1be03cff8e)" d="M 257.028058 77242.528281 
L 258.672933 77242.528281 
L 258.672933 101.12344 
L 257.028058 101.12344 
z
" style="fill:#1f77b4;opacity:0.4;"/>
   </g>
   <g id="patch_10">
    <path clip-path="url(#p1be03cff8e)" d="M 258.672933 77242.528281 
L 260.317807 77242.528281 
L 260.317807 155.938936 
L 258.672933 155.938936 
z
" style="fill:#1f77b4;opacity:0.4;"/>
   </g>
   <g id="patch_11">
    <path clip-path="url(#p1be03cff8e)" d="M 260.317807 77242.528281 
L 261.962682 77242.528281 
L 261.962682 141.993322 
L 260.317807 141.993322 
z
" style="fill:#1f77b4;opacity:0.4;"/>
   </g>
   <g id="patch_12">
    <path clip-path="url(#p1be03cff8e)" d="M 261.962682 77242.528281 
L 263.607556 77242.528281 
L 263.607556 176.041295 
L 261.962682 176.041295 
z
" style="fill:#1f77b4;opacity:0.4;"/>
   </g>
   <g id="patch_13">
    <path clip-path="url(#p1be03cff8e)" d="M 263.607556 77242.528281 
L 265.252431 77242.528281 
L 265.252431 149.016853 
L 263.607556 149.016853 
z
" style="fill:#1f77b4;opacity:0.4;"/>
   </g>
   <g id="patch_14">
    <path clip-path="url(#p1be03cff8e)" d="M 265.252431 77242.528281 
L 266.897306 77242.528281 
L 266.897306 146.522231 
L 265.252431 146.522231 
z
" style="fill:#1f77b4;opacity:0.4;"/>
   </g>
   <g id="patch_15">
    <path clip-path="url(#p1be03cff8e)" d="M 266.897306 77242.528281 
L 268.54218 77242.528281 
L 268.54218 185.63464 
L 266.897306 185.63464 
z
" style="fill:#1f77b4;opacity:0.4;"/>
   </g>
   <g id="patch_16">
    <path clip-path="url(#p1be03cff8e)" d="M 268.54218 77242.528281 
L 270.187055 77242.528281 
L 270.187055 145.505087 
L 268.54218 145.505087 
z
" style="fill:#1f77b4;opacity:0.4;"/>
   </g>
   <g id="patch_17">
    <path clip-path="url(#p1be03cff8e)" d="M 270.187055 77242.528281 
L 271.831929 77242.528281 
L 271.831929 168.608339 
L 270.187055 168.608339 
z
" style="fill:#1f77b4;opacity:0.4;"/>
   </g>
   <g id="patch_18">
    <path clip-path="url(#p1be03cff8e)" d="M 271.831929 77242.528281 
L 273.476804 77242.528281 
L 273.476804 131.990552 
L 271.831929 131.990552 
z
" style="fill:#1f77b4;opacity:0.4;"/>
   </g>
   <g id="patch_19">
    <path clip-path="url(#p1be03cff8e)" d="M 273.476804 77242.528281 
L 275.121679 77242.528281 
L 275.121679 222.252427 
L 273.476804 222.252427 
z
" style="fill:#1f77b4;opacity:0.4;"/>
   </g>
   <g id="patch_20">
    <path clip-path="url(#p1be03cff8e)" d="M 275.121679 77242.528281 
L 276.766553 77242.528281 
L 276.766553 77242.528281 
L 275.121679 77242.528281 
z
" style="fill:#1f77b4;opacity:0.4;"/>
   </g>
   <g id="patch_21">
    <path clip-path="url(#p1be03cff8e)" d="M 276.766553 77242.528281 
L 278.411428 77242.528281 
L 278.411428 199.149175 
L 276.766553 199.149175 
z
" style="fill:#1f77b4;opacity:0.4;"/>
   </g>
   <g id="patch_22">
    <path clip-path="url(#p1be03cff8e)" d="M 278.411428 77242.528281 
L 280.056302 77242.528281 
L 280.056302 199.149175 
L 278.411428 199.149175 
z
" style="fill:#1f77b4;opacity:0.4;"/>
   </g>
   <g id="patch_23">
    <path clip-path="url(#p1be03cff8e)" d="M 280.056302 77242.528281 
L 281.701177 77242.528281 
L 281.701177 199.149175 
L 280.056302 199.149175 
z
" style="fill:#1f77b4;opacity:0.4;"/>
   </g>
   <g id="patch_24">
    <path clip-path="url(#p1be03cff8e)" d="M 281.701177 77242.528281 
L 283.346051 77242.528281 
L 283.346051 295.488 
L 281.701177 295.488 
z
" style="fill:#1f77b4;opacity:0.4;"/>
   </g>
   <g id="patch_25">
    <path clip-path="url(#p1be03cff8e)" d="M 283.346051 77242.528281 
L 284.990926 77242.528281 
L 284.990926 148.728006 
L 283.346051 148.728006 
z
" style="fill:#1f77b4;opacity:0.4;"/>
   </g>
   <g id="patch_26">
    <path clip-path="url(#p1be03cff8e)" d="M 284.990926 77242.528281 
L 286.635801 77242.528281 
L 286.635801 222.252427 
L 284.990926 222.252427 
z
" style="fill:#1f77b4;opacity:0.4;"/>
   </g>
   <g id="patch_27">
    <path clip-path="url(#p1be03cff8e)" d="M 286.635801 77242.528281 
L 288.280675 77242.528281 
L 288.280675 77242.528281 
L 286.635801 77242.528281 
z
" style="fill:#1f77b4;opacity:0.4;"/>
   </g>
   <g id="patch_28">
    <path clip-path="url(#p1be03cff8e)" d="M 288.280675 77242.528281 
L 289.92555 77242.528281 
L 289.92555 77242.528281 
L 288.280675 77242.528281 
z
" style="fill:#1f77b4;opacity:0.4;"/>
   </g>
   <g id="patch_29">
    <path clip-path="url(#p1be03cff8e)" d="M 289.92555 77242.528281 
L 291.570424 77242.528281 
L 291.570424 77242.528281 
L 289.92555 77242.528281 
z
" style="fill:#1f77b4;opacity:0.4;"/>
   </g>
   <g id="patch_30">
    <path clip-path="url(#p1be03cff8e)" d="M 291.570424 77242.528281 
L 293.215299 77242.528281 
L 293.215299 77242.528281 
L 291.570424 77242.528281 
z
" style="fill:#1f77b4;opacity:0.4;"/>
   </g>
   <g id="patch_31">
    <path clip-path="url(#p1be03cff8e)" d="M 293.215299 77242.528281 
L 294.860174 77242.528281 
L 294.860174 77242.528281 
L 293.215299 77242.528281 
z
" style="fill:#1f77b4;opacity:0.4;"/>
   </g>
   <g id="patch_32">
    <path clip-path="url(#p1be03cff8e)" d="M 294.860174 77242.528281 
L 296.505048 77242.528281 
L 296.505048 199.149175 
L 294.860174 199.149175 
z
" style="fill:#1f77b4;opacity:0.4;"/>
   </g>
   <g id="patch_33">
    <path clip-path="url(#p1be03cff8e)" d="M 296.505048 77242.528281 
L 298.149923 77242.528281 
L 298.149923 222.252427 
L 296.505048 222.252427 
z
" style="fill:#1f77b4;opacity:0.4;"/>
   </g>
   <g id="patch_34">
    <path clip-path="url(#p1be03cff8e)" d="M 298.149923 77242.528281 
L 299.794797 77242.528281 
L 299.794797 77242.528281 
L 298.149923 77242.528281 
z
" style="fill:#1f77b4;opacity:0.4;"/>
   </g>
   <g id="patch_35">
    <path clip-path="url(#p1be03cff8e)" d="M 299.794797 77242.528281 
L 301.439672 77242.528281 
L 301.439672 222.252427 
L 299.794797 222.252427 
z
" style="fill:#1f77b4;opacity:0.4;"/>
   </g>
   <g id="patch_36">
    <path clip-path="url(#p1be03cff8e)" d="M 301.439672 77242.528281 
L 303.084547 77242.528281 
L 303.084547 222.252427 
L 301.439672 222.252427 
z
" style="fill:#1f77b4;opacity:0.4;"/>
   </g>
   <g id="patch_37">
    <path clip-path="url(#p1be03cff8e)" d="M 303.084547 77242.528281 
L 304.729421 77242.528281 
L 304.729421 222.252427 
L 303.084547 222.252427 
z
" style="fill:#1f77b4;opacity:0.4;"/>
   </g>
   <g id="patch_38">
    <path clip-path="url(#p1be03cff8e)" d="M 304.729421 77242.528281 
L 306.374296 77242.528281 
L 306.374296 77242.528281 
L 304.729421 77242.528281 
z
" style="fill:#1f77b4;opacity:0.4;"/>
   </g>
   <g id="patch_39">
    <path clip-path="url(#p1be03cff8e)" d="M 306.374296 77242.528281 
L 308.01917 77242.528281 
L 308.01917 77242.528281 
L 306.374296 77242.528281 
z
" style="fill:#1f77b4;opacity:0.4;"/>
   </g>
   <g id="patch_40">
    <path clip-path="url(#p1be03cff8e)" d="M 308.01917 77242.528281 
L 309.664045 77242.528281 
L 309.664045 77242.528281 
L 308.01917 77242.528281 
z
" style="fill:#1f77b4;opacity:0.4;"/>
   </g>
   <g id="patch_41">
    <path clip-path="url(#p1be03cff8e)" d="M 309.664045 77242.528281 
L 311.30892 77242.528281 
L 311.30892 222.252427 
L 309.664045 222.252427 
z
" style="fill:#1f77b4;opacity:0.4;"/>
   </g>
   <g id="patch_42">
    <path clip-path="url(#p1be03cff8e)" d="M 311.30892 77242.528281 
L 312.953794 77242.528281 
L 312.953794 77242.528281 
L 311.30892 77242.528281 
z
" style="fill:#1f77b4;opacity:0.4;"/>
   </g>
   <g id="patch_43">
    <path clip-path="url(#p1be03cff8e)" d="M 312.953794 77242.528281 
L 314.598669 77242.528281 
L 314.598669 222.252427 
L 312.953794 222.252427 
z
" style="fill:#1f77b4;opacity:0.4;"/>
   </g>
   <g id="patch_44">
    <path clip-path="url(#p1be03cff8e)" d="M 314.598669 77242.528281 
L 316.243543 77242.528281 
L 316.243543 77242.528281 
L 314.598669 77242.528281 
z
" style="fill:#1f77b4;opacity:0.4;"/>
   </g>
   <g id="patch_45">
    <path clip-path="url(#p1be03cff8e)" d="M 316.243543 77242.528281 
L 317.888418 77242.528281 
L 317.888418 77242.528281 
L 316.243543 77242.528281 
z
" style="fill:#1f77b4;opacity:0.4;"/>
   </g>
   <g id="patch_46">
    <path clip-path="url(#p1be03cff8e)" d="M 317.888418 77242.528281 
L 319.533292 77242.528281 
L 319.533292 222.252427 
L 317.888418 222.252427 
z
" style="fill:#1f77b4;opacity:0.4;"/>
   </g>
   <g id="patch_47">
    <path clip-path="url(#p1be03cff8e)" d="M 319.533292 77242.528281 
L 321.178167 77242.528281 
L 321.178167 77242.528281 
L 319.533292 77242.528281 
z
" style="fill:#1f77b4;opacity:0.4;"/>
   </g>
   <g id="patch_48">
    <path clip-path="url(#p1be03cff8e)" d="M 321.178167 77242.528281 
L 322.823042 77242.528281 
L 322.823042 189.741493 
L 321.178167 189.741493 
z
" style="fill:#1f77b4;opacity:0.4;"/>
   </g>
   <g id="patch_49">
    <path clip-path="url(#p1be03cff8e)" d="M 322.823042 77242.528281 
L 324.467916 77242.528281 
L 324.467916 77242.528281 
L 322.823042 77242.528281 
z
" style="fill:#1f77b4;opacity:0.4;"/>
   </g>
   <g id="patch_50">
    <path clip-path="url(#p1be03cff8e)" d="M 324.467916 77242.528281 
L 326.112791 77242.528281 
L 326.112791 77242.528281 
L 324.467916 77242.528281 
z
" style="fill:#1f77b4;opacity:0.4;"/>
   </g>
   <g id="patch_51">
    <path clip-path="url(#p1be03cff8e)" d="M 326.112791 77242.528281 
L 327.757665 77242.528281 
L 327.757665 77242.528281 
L 326.112791 77242.528281 
z
" style="fill:#1f77b4;opacity:0.4;"/>
   </g>
   <g id="patch_52">
    <path clip-path="url(#p1be03cff8e)" d="M 327.757665 77242.528281 
L 329.40254 77242.528281 
L 329.40254 77242.528281 
L 327.757665 77242.528281 
z
" style="fill:#1f77b4;opacity:0.4;"/>
   </g>
   <g id="patch_53">
    <path clip-path="url(#p1be03cff8e)" d="M 329.40254 77242.528281 
L 331.047415 77242.528281 
L 331.047415 77242.528281 
L 329.40254 77242.528281 
z
" style="fill:#1f77b4;opacity:0.4;"/>
   </g>
   <g id="patch_54">
    <path clip-path="url(#p1be03cff8e)" d="M 331.047415 77242.528281 
L 332.692289 77242.528281 
L 332.692289 77242.528281 
L 331.047415 77242.528281 
z
" style="fill:#1f77b4;opacity:0.4;"/>
   </g>
   <g id="patch_55">
    <path clip-path="url(#p1be03cff8e)" d="M 332.692289 77242.528281 
L 334.337164 77242.528281 
L 334.337164 77242.528281 
L 332.692289 77242.528281 
z
" style="fill:#1f77b4;opacity:0.4;"/>
   </g>
   <g id="patch_56">
    <path clip-path="url(#p1be03cff8e)" d="M 334.337164 77242.528281 
L 335.982038 77242.528281 
L 335.982038 77242.528281 
L 334.337164 77242.528281 
z
" style="fill:#1f77b4;opacity:0.4;"/>
   </g>
   <g id="patch_57">
    <path clip-path="url(#p1be03cff8e)" d="M 335.982038 77242.528281 
L 337.626913 77242.528281 
L 337.626913 77242.528281 
L 335.982038 77242.528281 
z
" style="fill:#1f77b4;opacity:0.4;"/>
   </g>
   <g id="patch_58">
    <path clip-path="url(#p1be03cff8e)" d="M 337.626913 77242.528281 
L 339.271788 77242.528281 
L 339.271788 77242.528281 
L 337.626913 77242.528281 
z
" style="fill:#1f77b4;opacity:0.4;"/>
   </g>
   <g id="patch_59">
    <path clip-path="url(#p1be03cff8e)" d="M 339.271788 77242.528281 
L 340.916662 77242.528281 
L 340.916662 77242.528281 
L 339.271788 77242.528281 
z
" style="fill:#1f77b4;opacity:0.4;"/>
   </g>
   <g id="patch_60">
    <path clip-path="url(#p1be03cff8e)" d="M 340.916662 77242.528281 
L 342.561537 77242.528281 
L 342.561537 77242.528281 
L 340.916662 77242.528281 
z
" style="fill:#1f77b4;opacity:0.4;"/>
   </g>
   <g id="patch_61">
    <path clip-path="url(#p1be03cff8e)" d="M 342.561537 77242.528281 
L 344.206411 77242.528281 
L 344.206411 77242.528281 
L 342.561537 77242.528281 
z
" style="fill:#1f77b4;opacity:0.4;"/>
   </g>
   <g id="patch_62">
    <path clip-path="url(#p1be03cff8e)" d="M 344.206411 77242.528281 
L 345.851286 77242.528281 
L 345.851286 295.488 
L 344.206411 295.488 
z
" style="fill:#1f77b4;opacity:0.4;"/>
   </g>
   <g id="patch_63">
    <path clip-path="url(#p1be03cff8e)" d="M 345.851286 77242.528281 
L 347.49616 77242.528281 
L 347.49616 77242.528281 
L 345.851286 77242.528281 
z
" style="fill:#1f77b4;opacity:0.4;"/>
   </g>
   <g id="patch_64">
    <path clip-path="url(#p1be03cff8e)" d="M 347.49616 77242.528281 
L 349.141035 77242.528281 
L 349.141035 77242.528281 
L 347.49616 77242.528281 
z
" style="fill:#1f77b4;opacity:0.4;"/>
   </g>
   <g id="patch_65">
    <path clip-path="url(#p1be03cff8e)" d="M 349.141035 77242.528281 
L 350.78591 77242.528281 
L 350.78591 77242.528281 
L 349.141035 77242.528281 
z
" style="fill:#1f77b4;opacity:0.4;"/>
   </g>
   <g id="patch_66">
    <path clip-path="url(#p1be03cff8e)" d="M 350.78591 77242.528281 
L 352.430784 77242.528281 
L 352.430784 77242.528281 
L 350.78591 77242.528281 
z
" style="fill:#1f77b4;opacity:0.4;"/>
   </g>
   <g id="patch_67">
    <path clip-path="url(#p1be03cff8e)" d="M 352.430784 77242.528281 
L 354.075659 77242.528281 
L 354.075659 77242.528281 
L 352.430784 77242.528281 
z
" style="fill:#1f77b4;opacity:0.4;"/>
   </g>
   <g id="patch_68">
    <path clip-path="url(#p1be03cff8e)" d="M 354.075659 77242.528281 
L 355.720533 77242.528281 
L 355.720533 77242.528281 
L 354.075659 77242.528281 
z
" style="fill:#1f77b4;opacity:0.4;"/>
   </g>
   <g id="patch_69">
    <path clip-path="url(#p1be03cff8e)" d="M 355.720533 77242.528281 
L 357.365408 77242.528281 
L 357.365408 77242.528281 
L 355.720533 77242.528281 
z
" style="fill:#1f77b4;opacity:0.4;"/>
   </g>
   <g id="patch_70">
    <path clip-path="url(#p1be03cff8e)" d="M 357.365408 77242.528281 
L 359.010283 77242.528281 
L 359.010283 77242.528281 
L 357.365408 77242.528281 
z
" style="fill:#1f77b4;opacity:0.4;"/>
   </g>
   <g id="patch_71">
    <path clip-path="url(#p1be03cff8e)" d="M 359.010283 77242.528281 
L 360.655157 77242.528281 
L 360.655157 203.346915 
L 359.010283 203.346915 
z
" style="fill:#1f77b4;opacity:0.4;"/>
   </g>
   <g id="patch_72">
    <path clip-path="url(#p1be03cff8e)" d="M 360.655157 77242.528281 
L 362.300032 77242.528281 
L 362.300032 77242.528281 
L 360.655157 77242.528281 
z
" style="fill:#1f77b4;opacity:0.4;"/>
   </g>
   <g id="patch_73">
    <path clip-path="url(#p1be03cff8e)" d="M 362.300032 77242.528281 
L 363.944906 77242.528281 
L 363.944906 222.252427 
L 362.300032 222.252427 
z
" style="fill:#1f77b4;opacity:0.4;"/>
   </g>
   <g id="patch_74">
    <path clip-path="url(#p1be03cff8e)" d="M 363.944906 77242.528281 
L 365.589781 77242.528281 
L 365.589781 77242.528281 
L 363.944906 77242.528281 
z
" style="fill:#1f77b4;opacity:0.4;"/>
   </g>
   <g id="patch_75">
    <path clip-path="url(#p1be03cff8e)" d="M 365.589781 77242.528281 
L 367.234656 77242.528281 
L 367.234656 77242.528281 
L 365.589781 77242.528281 
z
" style="fill:#1f77b4;opacity:0.4;"/>
   </g>
   <g id="patch_76">
    <path clip-path="url(#p1be03cff8e)" d="M 367.234656 77242.528281 
L 368.87953 77242.528281 
L 368.87953 222.737385 
L 367.234656 222.737385 
z
" style="fill:#1f77b4;opacity:0.4;"/>
   </g>
   <g id="patch_77">
    <path clip-path="url(#p1be03cff8e)" d="M 368.87953 77242.528281 
L 370.524405 77242.528281 
L 370.524405 77242.528281 
L 368.87953 77242.528281 
z
" style="fill:#1f77b4;opacity:0.4;"/>
   </g>
   <g id="patch_78">
    <path clip-path="url(#p1be03cff8e)" d="M 370.524405 77242.528281 
L 372.169279 77242.528281 
L 372.169279 77242.528281 
L 370.524405 77242.528281 
z
" style="fill:#1f77b4;opacity:0.4;"/>
   </g>
   <g id="patch_79">
    <path clip-path="url(#p1be03cff8e)" d="M 372.169279 77242.528281 
L 373.814154 77242.528281 
L 373.814154 77242.528281 
L 372.169279 77242.528281 
z
" style="fill:#1f77b4;opacity:0.4;"/>
   </g>
   <g id="patch_80">
    <path clip-path="url(#p1be03cff8e)" d="M 373.814154 77242.528281 
L 375.459028 77242.528281 
L 375.459028 77242.528281 
L 373.814154 77242.528281 
z
" style="fill:#1f77b4;opacity:0.4;"/>
   </g>
   <g id="patch_81">
    <path clip-path="url(#p1be03cff8e)" d="M 375.459028 77242.528281 
L 377.103903 77242.528281 
L 377.103903 77242.528281 
L 375.459028 77242.528281 
z
" style="fill:#1f77b4;opacity:0.4;"/>
   </g>
   <g id="patch_82">
    <path clip-path="url(#p1be03cff8e)" d="M 377.103903 77242.528281 
L 378.748778 77242.528281 
L 378.748778 77242.528281 
L 377.103903 77242.528281 
z
" style="fill:#1f77b4;opacity:0.4;"/>
   </g>
   <g id="patch_83">
    <path clip-path="url(#p1be03cff8e)" d="M 378.748778 77242.528281 
L 380.393652 77242.528281 
L 380.393652 77242.528281 
L 378.748778 77242.528281 
z
" style="fill:#1f77b4;opacity:0.4;"/>
   </g>
   <g id="patch_84">
    <path clip-path="url(#p1be03cff8e)" d="M 380.393652 77242.528281 
L 382.038527 77242.528281 
L 382.038527 77242.528281 
L 380.393652 77242.528281 
z
" style="fill:#1f77b4;opacity:0.4;"/>
   </g>
   <g id="patch_85">
    <path clip-path="url(#p1be03cff8e)" d="M 382.038527 77242.528281 
L 383.683401 77242.528281 
L 383.683401 77242.528281 
L 382.038527 77242.528281 
z
" style="fill:#1f77b4;opacity:0.4;"/>
   </g>
   <g id="patch_86">
    <path clip-path="url(#p1be03cff8e)" d="M 383.683401 77242.528281 
L 385.328276 77242.528281 
L 385.328276 77242.528281 
L 383.683401 77242.528281 
z
" style="fill:#1f77b4;opacity:0.4;"/>
   </g>
   <g id="patch_87">
    <path clip-path="url(#p1be03cff8e)" d="M 385.328276 77242.528281 
L 386.973151 77242.528281 
L 386.973151 77242.528281 
L 385.328276 77242.528281 
z
" style="fill:#1f77b4;opacity:0.4;"/>
   </g>
   <g id="patch_88">
    <path clip-path="url(#p1be03cff8e)" d="M 386.973151 77242.528281 
L 388.618025 77242.528281 
L 388.618025 77242.528281 
L 386.973151 77242.528281 
z
" style="fill:#1f77b4;opacity:0.4;"/>
   </g>
   <g id="patch_89">
    <path clip-path="url(#p1be03cff8e)" d="M 388.618025 77242.528281 
L 390.2629 77242.528281 
L 390.2629 77242.528281 
L 388.618025 77242.528281 
z
" style="fill:#1f77b4;opacity:0.4;"/>
   </g>
   <g id="patch_90">
    <path clip-path="url(#p1be03cff8e)" d="M 390.2629 77242.528281 
L 391.907774 77242.528281 
L 391.907774 222.252427 
L 390.2629 222.252427 
z
" style="fill:#1f77b4;opacity:0.4;"/>
   </g>
   <g id="patch_91">
    <path clip-path="url(#p1be03cff8e)" d="M 391.907774 77242.528281 
L 393.552649 77242.528281 
L 393.552649 77242.528281 
L 391.907774 77242.528281 
z
" style="fill:#1f77b4;opacity:0.4;"/>
   </g>
   <g id="patch_92">
    <path clip-path="url(#p1be03cff8e)" d="M 393.552649 77242.528281 
L 395.197524 77242.528281 
L 395.197524 222.252427 
L 393.552649 222.252427 
z
" style="fill:#1f77b4;opacity:0.4;"/>
   </g>
   <g id="patch_93">
    <path clip-path="url(#p1be03cff8e)" d="M 395.197524 77242.528281 
L 396.842398 77242.528281 
L 396.842398 77242.528281 
L 395.197524 77242.528281 
z
" style="fill:#1f77b4;opacity:0.4;"/>
   </g>
   <g id="patch_94">
    <path clip-path="url(#p1be03cff8e)" d="M 396.842398 77242.528281 
L 398.487273 77242.528281 
L 398.487273 222.252427 
L 396.842398 222.252427 
z
" style="fill:#1f77b4;opacity:0.4;"/>
   </g>
   <g id="patch_95">
    <path clip-path="url(#p1be03cff8e)" d="M 73.832727 77242.528281 
L 75.415916 77242.528281 
L 75.415916 222.252427 
L 73.832727 222.252427 
z
" style="fill:#ff7f0e;opacity:0.4;"/>
   </g>
   <g id="patch_96">
    <path clip-path="url(#p1be03cff8e)" d="M 75.415916 77242.528281 
L 76.999104 77242.528281 
L 76.999104 77242.528281 
L 75.415916 77242.528281 
z
" style="fill:#ff7f0e;opacity:0.4;"/>
   </g>
   <g id="patch_97">
    <path clip-path="url(#p1be03cff8e)" d="M 76.999104 77242.528281 
L 78.582293 77242.528281 
L 78.582293 77242.528281 
L 76.999104 77242.528281 
z
" style="fill:#ff7f0e;opacity:0.4;"/>
   </g>
   <g id="patch_98">
    <path clip-path="url(#p1be03cff8e)" d="M 78.582293 77242.528281 
L 80.165481 77242.528281 
L 80.165481 77242.528281 
L 78.582293 77242.528281 
z
" style="fill:#ff7f0e;opacity:0.4;"/>
   </g>
   <g id="patch_99">
    <path clip-path="url(#p1be03cff8e)" d="M 80.165481 77242.528281 
L 81.74867 77242.528281 
L 81.74867 77242.528281 
L 80.165481 77242.528281 
z
" style="fill:#ff7f0e;opacity:0.4;"/>
   </g>
   <g id="patch_100">
    <path clip-path="url(#p1be03cff8e)" d="M 81.74867 77242.528281 
L 83.331858 77242.528281 
L 83.331858 77242.528281 
L 81.74867 77242.528281 
z
" style="fill:#ff7f0e;opacity:0.4;"/>
   </g>
   <g id="patch_101">
    <path clip-path="url(#p1be03cff8e)" d="M 83.331858 77242.528281 
L 84.915047 77242.528281 
L 84.915047 77242.528281 
L 83.331858 77242.528281 
z
" style="fill:#ff7f0e;opacity:0.4;"/>
   </g>
   <g id="patch_102">
    <path clip-path="url(#p1be03cff8e)" d="M 84.915047 77242.528281 
L 86.498235 77242.528281 
L 86.498235 77242.528281 
L 84.915047 77242.528281 
z
" style="fill:#ff7f0e;opacity:0.4;"/>
   </g>
   <g id="patch_103">
    <path clip-path="url(#p1be03cff8e)" d="M 86.498235 77242.528281 
L 88.081424 77242.528281 
L 88.081424 77242.528281 
L 86.498235 77242.528281 
z
" style="fill:#ff7f0e;opacity:0.4;"/>
   </g>
   <g id="patch_104">
    <path clip-path="url(#p1be03cff8e)" d="M 88.081424 77242.528281 
L 89.664612 77242.528281 
L 89.664612 77242.528281 
L 88.081424 77242.528281 
z
" style="fill:#ff7f0e;opacity:0.4;"/>
   </g>
   <g id="patch_105">
    <path clip-path="url(#p1be03cff8e)" d="M 89.664612 77242.528281 
L 91.247801 77242.528281 
L 91.247801 77242.528281 
L 89.664612 77242.528281 
z
" style="fill:#ff7f0e;opacity:0.4;"/>
   </g>
   <g id="patch_106">
    <path clip-path="url(#p1be03cff8e)" d="M 91.247801 77242.528281 
L 92.830989 77242.528281 
L 92.830989 77242.528281 
L 91.247801 77242.528281 
z
" style="fill:#ff7f0e;opacity:0.4;"/>
   </g>
   <g id="patch_107">
    <path clip-path="url(#p1be03cff8e)" d="M 92.830989 77242.528281 
L 94.414178 77242.528281 
L 94.414178 77242.528281 
L 92.830989 77242.528281 
z
" style="fill:#ff7f0e;opacity:0.4;"/>
   </g>
   <g id="patch_108">
    <path clip-path="url(#p1be03cff8e)" d="M 94.414178 77242.528281 
L 95.997366 77242.528281 
L 95.997366 77242.528281 
L 94.414178 77242.528281 
z
" style="fill:#ff7f0e;opacity:0.4;"/>
   </g>
   <g id="patch_109">
    <path clip-path="url(#p1be03cff8e)" d="M 95.997366 77242.528281 
L 97.580555 77242.528281 
L 97.580555 77242.528281 
L 95.997366 77242.528281 
z
" style="fill:#ff7f0e;opacity:0.4;"/>
   </g>
   <g id="patch_110">
    <path clip-path="url(#p1be03cff8e)" d="M 97.580555 77242.528281 
L 99.163743 77242.528281 
L 99.163743 77242.528281 
L 97.580555 77242.528281 
z
" style="fill:#ff7f0e;opacity:0.4;"/>
   </g>
   <g id="patch_111">
    <path clip-path="url(#p1be03cff8e)" d="M 99.163743 77242.528281 
L 100.746931 77242.528281 
L 100.746931 222.252427 
L 99.163743 222.252427 
z
" style="fill:#ff7f0e;opacity:0.4;"/>
   </g>
   <g id="patch_112">
    <path clip-path="url(#p1be03cff8e)" d="M 100.746931 77242.528281 
L 102.33012 77242.528281 
L 102.33012 77242.528281 
L 100.746931 77242.528281 
z
" style="fill:#ff7f0e;opacity:0.4;"/>
   </g>
   <g id="patch_113">
    <path clip-path="url(#p1be03cff8e)" d="M 102.33012 77242.528281 
L 103.913308 77242.528281 
L 103.913308 77242.528281 
L 102.33012 77242.528281 
z
" style="fill:#ff7f0e;opacity:0.4;"/>
   </g>
   <g id="patch_114">
    <path clip-path="url(#p1be03cff8e)" d="M 103.913308 77242.528281 
L 105.496497 77242.528281 
L 105.496497 77242.528281 
L 103.913308 77242.528281 
z
" style="fill:#ff7f0e;opacity:0.4;"/>
   </g>
   <g id="patch_115">
    <path clip-path="url(#p1be03cff8e)" d="M 105.496497 77242.528281 
L 107.079685 77242.528281 
L 107.079685 77242.528281 
L 105.496497 77242.528281 
z
" style="fill:#ff7f0e;opacity:0.4;"/>
   </g>
   <g id="patch_116">
    <path clip-path="url(#p1be03cff8e)" d="M 107.079685 77242.528281 
L 108.662874 77242.528281 
L 108.662874 77242.528281 
L 107.079685 77242.528281 
z
" style="fill:#ff7f0e;opacity:0.4;"/>
   </g>
   <g id="patch_117">
    <path clip-path="url(#p1be03cff8e)" d="M 108.662874 77242.528281 
L 110.246062 77242.528281 
L 110.246062 77242.528281 
L 108.662874 77242.528281 
z
" style="fill:#ff7f0e;opacity:0.4;"/>
   </g>
   <g id="patch_118">
    <path clip-path="url(#p1be03cff8e)" d="M 110.246062 77242.528281 
L 111.829251 77242.528281 
L 111.829251 77242.528281 
L 110.246062 77242.528281 
z
" style="fill:#ff7f0e;opacity:0.4;"/>
   </g>
   <g id="patch_119">
    <path clip-path="url(#p1be03cff8e)" d="M 111.829251 77242.528281 
L 113.412439 77242.528281 
L 113.412439 77242.528281 
L 111.829251 77242.528281 
z
" style="fill:#ff7f0e;opacity:0.4;"/>
   </g>
   <g id="patch_120">
    <path clip-path="url(#p1be03cff8e)" d="M 113.412439 77242.528281 
L 114.995628 77242.528281 
L 114.995628 77242.528281 
L 113.412439 77242.528281 
z
" style="fill:#ff7f0e;opacity:0.4;"/>
   </g>
   <g id="patch_121">
    <path clip-path="url(#p1be03cff8e)" d="M 114.995628 77242.528281 
L 116.578816 77242.528281 
L 116.578816 77242.528281 
L 114.995628 77242.528281 
z
" style="fill:#ff7f0e;opacity:0.4;"/>
   </g>
   <g id="patch_122">
    <path clip-path="url(#p1be03cff8e)" d="M 116.578816 77242.528281 
L 118.162005 77242.528281 
L 118.162005 77242.528281 
L 116.578816 77242.528281 
z
" style="fill:#ff7f0e;opacity:0.4;"/>
   </g>
   <g id="patch_123">
    <path clip-path="url(#p1be03cff8e)" d="M 118.162005 77242.528281 
L 119.745193 77242.528281 
L 119.745193 77242.528281 
L 118.162005 77242.528281 
z
" style="fill:#ff7f0e;opacity:0.4;"/>
   </g>
   <g id="patch_124">
    <path clip-path="url(#p1be03cff8e)" d="M 119.745193 77242.528281 
L 121.328382 77242.528281 
L 121.328382 77242.528281 
L 119.745193 77242.528281 
z
" style="fill:#ff7f0e;opacity:0.4;"/>
   </g>
   <g id="patch_125">
    <path clip-path="url(#p1be03cff8e)" d="M 121.328382 77242.528281 
L 122.91157 77242.528281 
L 122.91157 77242.528281 
L 121.328382 77242.528281 
z
" style="fill:#ff7f0e;opacity:0.4;"/>
   </g>
   <g id="patch_126">
    <path clip-path="url(#p1be03cff8e)" d="M 122.91157 77242.528281 
L 124.494759 77242.528281 
L 124.494759 77242.528281 
L 122.91157 77242.528281 
z
" style="fill:#ff7f0e;opacity:0.4;"/>
   </g>
   <g id="patch_127">
    <path clip-path="url(#p1be03cff8e)" d="M 124.494759 77242.528281 
L 126.077947 77242.528281 
L 126.077947 77242.528281 
L 124.494759 77242.528281 
z
" style="fill:#ff7f0e;opacity:0.4;"/>
   </g>
   <g id="patch_128">
    <path clip-path="url(#p1be03cff8e)" d="M 126.077947 77242.528281 
L 127.661136 77242.528281 
L 127.661136 77242.528281 
L 126.077947 77242.528281 
z
" style="fill:#ff7f0e;opacity:0.4;"/>
   </g>
   <g id="patch_129">
    <path clip-path="url(#p1be03cff8e)" d="M 127.661136 77242.528281 
L 129.244324 77242.528281 
L 129.244324 77242.528281 
L 127.661136 77242.528281 
z
" style="fill:#ff7f0e;opacity:0.4;"/>
   </g>
   <g id="patch_130">
    <path clip-path="url(#p1be03cff8e)" d="M 129.244324 77242.528281 
L 130.827513 77242.528281 
L 130.827513 77242.528281 
L 129.244324 77242.528281 
z
" style="fill:#ff7f0e;opacity:0.4;"/>
   </g>
   <g id="patch_131">
    <path clip-path="url(#p1be03cff8e)" d="M 130.827513 77242.528281 
L 132.410701 77242.528281 
L 132.410701 77242.528281 
L 130.827513 77242.528281 
z
" style="fill:#ff7f0e;opacity:0.4;"/>
   </g>
   <g id="patch_132">
    <path clip-path="url(#p1be03cff8e)" d="M 132.410701 77242.528281 
L 133.99389 77242.528281 
L 133.99389 77242.528281 
L 132.410701 77242.528281 
z
" style="fill:#ff7f0e;opacity:0.4;"/>
   </g>
   <g id="patch_133">
    <path clip-path="url(#p1be03cff8e)" d="M 133.99389 77242.528281 
L 135.577078 77242.528281 
L 135.577078 77242.528281 
L 133.99389 77242.528281 
z
" style="fill:#ff7f0e;opacity:0.4;"/>
   </g>
   <g id="patch_134">
    <path clip-path="url(#p1be03cff8e)" d="M 135.577078 77242.528281 
L 137.160267 77242.528281 
L 137.160267 77242.528281 
L 135.577078 77242.528281 
z
" style="fill:#ff7f0e;opacity:0.4;"/>
   </g>
   <g id="patch_135">
    <path clip-path="url(#p1be03cff8e)" d="M 137.160267 77242.528281 
L 138.743455 77242.528281 
L 138.743455 77242.528281 
L 137.160267 77242.528281 
z
" style="fill:#ff7f0e;opacity:0.4;"/>
   </g>
   <g id="patch_136">
    <path clip-path="url(#p1be03cff8e)" d="M 138.743455 77242.528281 
L 140.326644 77242.528281 
L 140.326644 77242.528281 
L 138.743455 77242.528281 
z
" style="fill:#ff7f0e;opacity:0.4;"/>
   </g>
   <g id="patch_137">
    <path clip-path="url(#p1be03cff8e)" d="M 140.326644 77242.528281 
L 141.909832 77242.528281 
L 141.909832 77242.528281 
L 140.326644 77242.528281 
z
" style="fill:#ff7f0e;opacity:0.4;"/>
   </g>
   <g id="patch_138">
    <path clip-path="url(#p1be03cff8e)" d="M 141.909832 77242.528281 
L 143.493021 77242.528281 
L 143.493021 222.252427 
L 141.909832 222.252427 
z
" style="fill:#ff7f0e;opacity:0.4;"/>
   </g>
   <g id="patch_139">
    <path clip-path="url(#p1be03cff8e)" d="M 143.493021 77242.528281 
L 145.076209 77242.528281 
L 145.076209 77242.528281 
L 143.493021 77242.528281 
z
" style="fill:#ff7f0e;opacity:0.4;"/>
   </g>
   <g id="patch_140">
    <path clip-path="url(#p1be03cff8e)" d="M 145.076209 77242.528281 
L 146.659397 77242.528281 
L 146.659397 77242.528281 
L 145.076209 77242.528281 
z
" style="fill:#ff7f0e;opacity:0.4;"/>
   </g>
   <g id="patch_141">
    <path clip-path="url(#p1be03cff8e)" d="M 146.659397 77242.528281 
L 148.242586 77242.528281 
L 148.242586 77242.528281 
L 146.659397 77242.528281 
z
" style="fill:#ff7f0e;opacity:0.4;"/>
   </g>
   <g id="patch_142">
    <path clip-path="url(#p1be03cff8e)" d="M 148.242586 77242.528281 
L 149.825774 77242.528281 
L 149.825774 77242.528281 
L 148.242586 77242.528281 
z
" style="fill:#ff7f0e;opacity:0.4;"/>
   </g>
   <g id="patch_143">
    <path clip-path="url(#p1be03cff8e)" d="M 149.825774 77242.528281 
L 151.408963 77242.528281 
L 151.408963 222.252427 
L 149.825774 222.252427 
z
" style="fill:#ff7f0e;opacity:0.4;"/>
   </g>
   <g id="patch_144">
    <path clip-path="url(#p1be03cff8e)" d="M 151.408963 77242.528281 
L 152.992151 77242.528281 
L 152.992151 222.252427 
L 151.408963 222.252427 
z
" style="fill:#ff7f0e;opacity:0.4;"/>
   </g>
   <g id="patch_145">
    <path clip-path="url(#p1be03cff8e)" d="M 152.992151 77242.528281 
L 154.57534 77242.528281 
L 154.57534 77242.528281 
L 152.992151 77242.528281 
z
" style="fill:#ff7f0e;opacity:0.4;"/>
   </g>
   <g id="patch_146">
    <path clip-path="url(#p1be03cff8e)" d="M 154.57534 77242.528281 
L 156.158528 77242.528281 
L 156.158528 77242.528281 
L 154.57534 77242.528281 
z
" style="fill:#ff7f0e;opacity:0.4;"/>
   </g>
   <g id="patch_147">
    <path clip-path="url(#p1be03cff8e)" d="M 156.158528 77242.528281 
L 157.741717 77242.528281 
L 157.741717 77242.528281 
L 156.158528 77242.528281 
z
" style="fill:#ff7f0e;opacity:0.4;"/>
   </g>
   <g id="patch_148">
    <path clip-path="url(#p1be03cff8e)" d="M 157.741717 77242.528281 
L 159.324905 77242.528281 
L 159.324905 77242.528281 
L 157.741717 77242.528281 
z
" style="fill:#ff7f0e;opacity:0.4;"/>
   </g>
   <g id="patch_149">
    <path clip-path="url(#p1be03cff8e)" d="M 159.324905 77242.528281 
L 160.908094 77242.528281 
L 160.908094 222.252427 
L 159.324905 222.252427 
z
" style="fill:#ff7f0e;opacity:0.4;"/>
   </g>
   <g id="patch_150">
    <path clip-path="url(#p1be03cff8e)" d="M 160.908094 77242.528281 
L 162.491282 77242.528281 
L 162.491282 77242.528281 
L 160.908094 77242.528281 
z
" style="fill:#ff7f0e;opacity:0.4;"/>
   </g>
   <g id="patch_151">
    <path clip-path="url(#p1be03cff8e)" d="M 162.491282 77242.528281 
L 164.074471 77242.528281 
L 164.074471 77242.528281 
L 162.491282 77242.528281 
z
" style="fill:#ff7f0e;opacity:0.4;"/>
   </g>
   <g id="patch_152">
    <path clip-path="url(#p1be03cff8e)" d="M 164.074471 77242.528281 
L 165.657659 77242.528281 
L 165.657659 77242.528281 
L 164.074471 77242.528281 
z
" style="fill:#ff7f0e;opacity:0.4;"/>
   </g>
   <g id="patch_153">
    <path clip-path="url(#p1be03cff8e)" d="M 165.657659 77242.528281 
L 167.240848 77242.528281 
L 167.240848 77242.528281 
L 165.657659 77242.528281 
z
" style="fill:#ff7f0e;opacity:0.4;"/>
   </g>
   <g id="patch_154">
    <path clip-path="url(#p1be03cff8e)" d="M 167.240848 77242.528281 
L 168.824036 77242.528281 
L 168.824036 77242.528281 
L 167.240848 77242.528281 
z
" style="fill:#ff7f0e;opacity:0.4;"/>
   </g>
   <g id="patch_155">
    <path clip-path="url(#p1be03cff8e)" d="M 168.824036 77242.528281 
L 170.407225 77242.528281 
L 170.407225 77242.528281 
L 168.824036 77242.528281 
z
" style="fill:#ff7f0e;opacity:0.4;"/>
   </g>
   <g id="patch_156">
    <path clip-path="url(#p1be03cff8e)" d="M 170.407225 77242.528281 
L 171.990413 77242.528281 
L 171.990413 176.045924 
L 170.407225 176.045924 
z
" style="fill:#ff7f0e;opacity:0.4;"/>
   </g>
   <g id="patch_157">
    <path clip-path="url(#p1be03cff8e)" d="M 171.990413 77242.528281 
L 173.573602 77242.528281 
L 173.573602 222.252427 
L 171.990413 222.252427 
z
" style="fill:#ff7f0e;opacity:0.4;"/>
   </g>
   <g id="patch_158">
    <path clip-path="url(#p1be03cff8e)" d="M 173.573602 77242.528281 
L 175.15679 77242.528281 
L 175.15679 77242.528281 
L 173.573602 77242.528281 
z
" style="fill:#ff7f0e;opacity:0.4;"/>
   </g>
   <g id="patch_159">
    <path clip-path="url(#p1be03cff8e)" d="M 175.15679 77242.528281 
L 176.739979 77242.528281 
L 176.739979 222.252427 
L 175.15679 222.252427 
z
" style="fill:#ff7f0e;opacity:0.4;"/>
   </g>
   <g id="patch_160">
    <path clip-path="url(#p1be03cff8e)" d="M 176.739979 77242.528281 
L 178.323167 77242.528281 
L 178.323167 77242.528281 
L 176.739979 77242.528281 
z
" style="fill:#ff7f0e;opacity:0.4;"/>
   </g>
   <g id="patch_161">
    <path clip-path="url(#p1be03cff8e)" d="M 178.323167 77242.528281 
L 179.906356 77242.528281 
L 179.906356 77242.528281 
L 178.323167 77242.528281 
z
" style="fill:#ff7f0e;opacity:0.4;"/>
   </g>
   <g id="patch_162">
    <path clip-path="url(#p1be03cff8e)" d="M 179.906356 77242.528281 
L 181.489544 77242.528281 
L 181.489544 222.252427 
L 179.906356 222.252427 
z
" style="fill:#ff7f0e;opacity:0.4;"/>
   </g>
   <g id="patch_163">
    <path clip-path="url(#p1be03cff8e)" d="M 181.489544 77242.528281 
L 183.072733 77242.528281 
L 183.072733 222.252427 
L 181.489544 222.252427 
z
" style="fill:#ff7f0e;opacity:0.4;"/>
   </g>
   <g id="patch_164">
    <path clip-path="url(#p1be03cff8e)" d="M 183.072733 77242.528281 
L 184.655921 77242.528281 
L 184.655921 77242.528281 
L 183.072733 77242.528281 
z
" style="fill:#ff7f0e;opacity:0.4;"/>
   </g>
   <g id="patch_165">
    <path clip-path="url(#p1be03cff8e)" d="M 184.655921 77242.528281 
L 186.23911 77242.528281 
L 186.23911 199.149175 
L 184.655921 199.149175 
z
" style="fill:#ff7f0e;opacity:0.4;"/>
   </g>
   <g id="patch_166">
    <path clip-path="url(#p1be03cff8e)" d="M 186.23911 77242.528281 
L 187.822298 77242.528281 
L 187.822298 77242.528281 
L 186.23911 77242.528281 
z
" style="fill:#ff7f0e;opacity:0.4;"/>
   </g>
   <g id="patch_167">
    <path clip-path="url(#p1be03cff8e)" d="M 187.822298 77242.528281 
L 189.405487 77242.528281 
L 189.405487 77242.528281 
L 187.822298 77242.528281 
z
" style="fill:#ff7f0e;opacity:0.4;"/>
   </g>
   <g id="patch_168">
    <path clip-path="url(#p1be03cff8e)" d="M 189.405487 77242.528281 
L 190.988675 77242.528281 
L 190.988675 222.252427 
L 189.405487 222.252427 
z
" style="fill:#ff7f0e;opacity:0.4;"/>
   </g>
   <g id="patch_169">
    <path clip-path="url(#p1be03cff8e)" d="M 190.988675 77242.528281 
L 192.571863 77242.528281 
L 192.571863 222.252427 
L 190.988675 222.252427 
z
" style="fill:#ff7f0e;opacity:0.4;"/>
   </g>
   <g id="patch_170">
    <path clip-path="url(#p1be03cff8e)" d="M 192.571863 77242.528281 
L 194.155052 77242.528281 
L 194.155052 199.149175 
L 192.571863 199.149175 
z
" style="fill:#ff7f0e;opacity:0.4;"/>
   </g>
   <g id="patch_171">
    <path clip-path="url(#p1be03cff8e)" d="M 194.155052 77242.528281 
L 195.73824 77242.528281 
L 195.73824 222.252427 
L 194.155052 222.252427 
z
" style="fill:#ff7f0e;opacity:0.4;"/>
   </g>
   <g id="patch_172">
    <path clip-path="url(#p1be03cff8e)" d="M 195.73824 77242.528281 
L 197.321429 77242.528281 
L 197.321429 185.63464 
L 195.73824 185.63464 
z
" style="fill:#ff7f0e;opacity:0.4;"/>
   </g>
   <g id="patch_173">
    <path clip-path="url(#p1be03cff8e)" d="M 197.321429 77242.528281 
L 198.904617 77242.528281 
L 198.904617 199.149175 
L 197.321429 199.149175 
z
" style="fill:#ff7f0e;opacity:0.4;"/>
   </g>
   <g id="patch_174">
    <path clip-path="url(#p1be03cff8e)" d="M 198.904617 77242.528281 
L 200.487806 77242.528281 
L 200.487806 222.252427 
L 198.904617 222.252427 
z
" style="fill:#ff7f0e;opacity:0.4;"/>
   </g>
   <g id="patch_175">
    <path clip-path="url(#p1be03cff8e)" d="M 200.487806 77242.528281 
L 202.070994 77242.528281 
L 202.070994 222.252427 
L 200.487806 222.252427 
z
" style="fill:#ff7f0e;opacity:0.4;"/>
   </g>
   <g id="patch_176">
    <path clip-path="url(#p1be03cff8e)" d="M 202.070994 77242.528281 
L 203.654183 77242.528281 
L 203.654183 77242.528281 
L 202.070994 77242.528281 
z
" style="fill:#ff7f0e;opacity:0.4;"/>
   </g>
   <g id="patch_177">
    <path clip-path="url(#p1be03cff8e)" d="M 203.654183 77242.528281 
L 205.237371 77242.528281 
L 205.237371 222.252427 
L 203.654183 222.252427 
z
" style="fill:#ff7f0e;opacity:0.4;"/>
   </g>
   <g id="patch_178">
    <path clip-path="url(#p1be03cff8e)" d="M 205.237371 77242.528281 
L 206.82056 77242.528281 
L 206.82056 77242.528281 
L 205.237371 77242.528281 
z
" style="fill:#ff7f0e;opacity:0.4;"/>
   </g>
   <g id="patch_179">
    <path clip-path="url(#p1be03cff8e)" d="M 206.82056 77242.528281 
L 208.403748 77242.528281 
L 208.403748 222.252427 
L 206.82056 222.252427 
z
" style="fill:#ff7f0e;opacity:0.4;"/>
   </g>
   <g id="patch_180">
    <path clip-path="url(#p1be03cff8e)" d="M 208.403748 77242.528281 
L 209.986937 77242.528281 
L 209.986937 116.324886 
L 208.403748 116.324886 
z
" style="fill:#ff7f0e;opacity:0.4;"/>
   </g>
   <g id="patch_181">
    <path clip-path="url(#p1be03cff8e)" d="M 209.986937 77242.528281 
L 211.570125 77242.528281 
L 211.570125 162.531389 
L 209.986937 162.531389 
z
" style="fill:#ff7f0e;opacity:0.4;"/>
   </g>
   <g id="patch_182">
    <path clip-path="url(#p1be03cff8e)" d="M 211.570125 77242.528281 
L 213.153314 77242.528281 
L 213.153314 199.149175 
L 211.570125 199.149175 
z
" style="fill:#ff7f0e;opacity:0.4;"/>
   </g>
   <g id="patch_183">
    <path clip-path="url(#p1be03cff8e)" d="M 213.153314 77242.528281 
L 214.736502 77242.528281 
L 214.736502 162.531389 
L 213.153314 162.531389 
z
" style="fill:#ff7f0e;opacity:0.4;"/>
   </g>
   <g id="patch_184">
    <path clip-path="url(#p1be03cff8e)" d="M 214.736502 77242.528281 
L 216.319691 77242.528281 
L 216.319691 185.63464 
L 214.736502 185.63464 
z
" style="fill:#ff7f0e;opacity:0.4;"/>
   </g>
   <g id="patch_185">
    <path clip-path="url(#p1be03cff8e)" d="M 216.319691 77242.528281 
L 217.902879 77242.528281 
L 217.902879 168.608339 
L 216.319691 168.608339 
z
" style="fill:#ff7f0e;opacity:0.4;"/>
   </g>
   <g id="patch_186">
    <path clip-path="url(#p1be03cff8e)" d="M 217.902879 77242.528281 
L 219.486068 77242.528281 
L 219.486068 168.608339 
L 217.902879 168.608339 
z
" style="fill:#ff7f0e;opacity:0.4;"/>
   </g>
   <g id="patch_187">
    <path clip-path="url(#p1be03cff8e)" d="M 219.486068 77242.528281 
L 221.069256 77242.528281 
L 221.069256 168.608339 
L 219.486068 168.608339 
z
" style="fill:#ff7f0e;opacity:0.4;"/>
   </g>
   <g id="patch_188">
    <path clip-path="url(#p1be03cff8e)" d="M 221.069256 77242.528281 
L 222.652445 77242.528281 
L 222.652445 168.608339 
L 221.069256 168.608339 
z
" style="fill:#ff7f0e;opacity:0.4;"/>
   </g>
   <g id="patch_189">
    <path clip-path="url(#p1be03cff8e)" d="M 222.652445 77242.528281 
L 224.235633 77242.528281 
L 224.235633 168.608339 
L 222.652445 168.608339 
z
" style="fill:#ff7f0e;opacity:0.4;"/>
   </g>
   <g id="patch_190">
    <path clip-path="url(#p1be03cff8e)" d="M 224.235633 77242.528281 
L 225.818822 77242.528281 
L 225.818822 220.962973 
L 224.235633 220.962973 
z
" style="fill:#ff7f0e;opacity:0.4;"/>
   </g>
   <g id="patch_191">
    <path clip-path="url(#p1be03cff8e)" d="M 225.818822 77242.528281 
L 227.40201 77242.528281 
L 227.40201 184.739428 
L 225.818822 184.739428 
z
" style="fill:#ff7f0e;opacity:0.4;"/>
   </g>
   <g id="patch_192">
    <path clip-path="url(#p1be03cff8e)" d="M 227.40201 77242.528281 
L 228.985199 77242.528281 
L 228.985199 120.369834 
L 227.40201 120.369834 
z
" style="fill:#ff7f0e;opacity:0.4;"/>
   </g>
   <g id="patch_193">
    <path clip-path="url(#p1be03cff8e)" d="M 228.985199 77242.528281 
L 230.568387 77242.528281 
L 230.568387 156.754114 
L 228.985199 156.754114 
z
" style="fill:#ff7f0e;opacity:0.4;"/>
   </g>
   <g id="patch_194">
    <path clip-path="url(#p1be03cff8e)" d="M 230.568387 77242.528281 
L 232.151576 77242.528281 
L 232.151576 138.913647 
L 230.568387 138.913647 
z
" style="fill:#ff7f0e;opacity:0.4;"/>
   </g>
   <g id="patch_195">
    <path clip-path="url(#p1be03cff8e)" d="M 232.151576 77242.528281 
L 233.734764 77242.528281 
L 233.734764 137.588039 
L 232.151576 137.588039 
z
" style="fill:#ff7f0e;opacity:0.4;"/>
   </g>
   <g id="patch_196">
    <path clip-path="url(#p1be03cff8e)" d="M 233.734764 77242.528281 
L 235.317952 77242.528281 
L 235.317952 158.792636 
L 233.734764 158.792636 
z
" style="fill:#ff7f0e;opacity:0.4;"/>
   </g>
   <g id="patch_197">
    <path clip-path="url(#p1be03cff8e)" d="M 235.317952 77242.528281 
L 236.901141 77242.528281 
L 236.901141 128.800309 
L 235.317952 128.800309 
z
" style="fill:#ff7f0e;opacity:0.4;"/>
   </g>
   <g id="patch_198">
    <path clip-path="url(#p1be03cff8e)" d="M 236.901141 77242.528281 
L 238.484329 77242.528281 
L 238.484329 110.982186 
L 236.901141 110.982186 
z
" style="fill:#ff7f0e;opacity:0.4;"/>
   </g>
   <g id="patch_199">
    <path clip-path="url(#p1be03cff8e)" d="M 238.484329 77242.528281 
L 240.067518 77242.528281 
L 240.067518 115.451088 
L 238.484329 115.451088 
z
" style="fill:#ff7f0e;opacity:0.4;"/>
   </g>
   <g id="patch_200">
    <path clip-path="url(#p1be03cff8e)" d="M 240.067518 77242.528281 
L 241.650706 77242.528281 
L 241.650706 122.078434 
L 240.067518 122.078434 
z
" style="fill:#ff7f0e;opacity:0.4;"/>
   </g>
   <g id="patch_201">
    <path clip-path="url(#p1be03cff8e)" d="M 241.650706 77242.528281 
L 243.233895 77242.528281 
L 243.233895 86.94756 
L 241.650706 86.94756 
z
" style="fill:#ff7f0e;opacity:0.4;"/>
   </g>
   <g id="patch_202">
    <path clip-path="url(#p1be03cff8e)" d="M 243.233895 77242.528281 
L 244.817083 77242.528281 
L 244.817083 94.565799 
L 243.233895 94.565799 
z
" style="fill:#ff7f0e;opacity:0.4;"/>
   </g>
   <g id="patch_203">
    <path clip-path="url(#p1be03cff8e)" d="M 244.817083 77242.528281 
L 246.400272 77242.528281 
L 246.400272 61.066041 
L 244.817083 61.066041 
z
" style="fill:#ff7f0e;opacity:0.4;"/>
   </g>
   <g id="matplotlib.axis_1">
    <g id="xtick_1">
     <g id="line2d_1">
      <defs>
       <path d="M 0 0 
L 0 3.5 
" id="m910a18bf11" style="stroke:#000000;stroke-width:0.8;"/>
      </defs>
      <g>
       <use style="stroke:#000000;stroke-width:0.8;" x="95.07181" xlink:href="#m910a18bf11" y="307.584"/>
      </g>
     </g>
     <g id="text_1">
      <!-- −4 -->
      <defs>
       <path d="M 10.59375 35.5 
L 73.1875 35.5 
L 73.1875 27.203125 
L 10.59375 27.203125 
z
" id="DejaVuSans-2212"/>
       <path d="M 37.796875 64.3125 
L 12.890625 25.390625 
L 37.796875 25.390625 
z
M 35.203125 72.90625 
L 47.609375 72.90625 
L 47.609375 25.390625 
L 58.015625 25.390625 
L 58.015625 17.1875 
L 47.609375 17.1875 
L 47.609375 0 
L 37.796875 0 
L 37.796875 17.1875 
L 4.890625 17.1875 
L 4.890625 26.703125 
z
" id="DejaVuSans-34"/>
      </defs>
      <g transform="translate(87.700716 322.182437)scale(0.1 -0.1)">
       <use xlink:href="#DejaVuSans-2212"/>
       <use x="83.789062" xlink:href="#DejaVuSans-34"/>
      </g>
     </g>
    </g>
    <g id="xtick_2">
     <g id="line2d_2">
      <g>
       <use style="stroke:#000000;stroke-width:0.8;" x="170.925675" xlink:href="#m910a18bf11" y="307.584"/>
      </g>
     </g>
     <g id="text_2">
      <!-- −2 -->
      <defs>
       <path d="M 19.1875 8.296875 
L 53.609375 8.296875 
L 53.609375 0 
L 7.328125 0 
L 7.328125 8.296875 
Q 12.9375 14.109375 22.625 23.890625 
Q 32.328125 33.6875 34.8125 36.53125 
Q 39.546875 41.84375 41.421875 45.53125 
Q 43.3125 49.21875 43.3125 52.78125 
Q 43.3125 58.59375 39.234375 62.25 
Q 35.15625 65.921875 28.609375 65.921875 
Q 23.96875 65.921875 18.8125 64.3125 
Q 13.671875 62.703125 7.8125 59.421875 
L 7.8125 69.390625 
Q 13.765625 71.78125 18.9375 73 
Q 24.125 74.21875 28.421875 74.21875 
Q 39.75 74.21875 46.484375 68.546875 
Q 53.21875 62.890625 53.21875 53.421875 
Q 53.21875 48.921875 51.53125 44.890625 
Q 49.859375 40.875 45.40625 35.40625 
Q 44.1875 33.984375 37.640625 27.21875 
Q 31.109375 20.453125 19.1875 8.296875 
z
" id="DejaVuSans-32"/>
      </defs>
      <g transform="translate(163.554582 322.182437)scale(0.1 -0.1)">
       <use xlink:href="#DejaVuSans-2212"/>
       <use x="83.789062" xlink:href="#DejaVuSans-32"/>
      </g>
     </g>
    </g>
    <g id="xtick_3">
     <g id="line2d_3">
      <g>
       <use style="stroke:#000000;stroke-width:0.8;" x="246.779541" xlink:href="#m910a18bf11" y="307.584"/>
      </g>
     </g>
     <g id="text_3">
      <!-- 0 -->
      <defs>
       <path d="M 31.78125 66.40625 
Q 24.171875 66.40625 20.328125 58.90625 
Q 16.5 51.421875 16.5 36.375 
Q 16.5 21.390625 20.328125 13.890625 
Q 24.171875 6.390625 31.78125 6.390625 
Q 39.453125 6.390625 43.28125 13.890625 
Q 47.125 21.390625 47.125 36.375 
Q 47.125 51.421875 43.28125 58.90625 
Q 39.453125 66.40625 31.78125 66.40625 
z
M 31.78125 74.21875 
Q 44.046875 74.21875 50.515625 64.515625 
Q 56.984375 54.828125 56.984375 36.375 
Q 56.984375 17.96875 50.515625 8.265625 
Q 44.046875 -1.421875 31.78125 -1.421875 
Q 19.53125 -1.421875 13.0625 8.265625 
Q 6.59375 17.96875 6.59375 36.375 
Q 6.59375 54.828125 13.0625 64.515625 
Q 19.53125 74.21875 31.78125 74.21875 
z
" id="DejaVuSans-30"/>
      </defs>
      <g transform="translate(243.598291 322.182437)scale(0.1 -0.1)">
       <use xlink:href="#DejaVuSans-30"/>
      </g>
     </g>
    </g>
    <g id="xtick_4">
     <g id="line2d_4">
      <g>
       <use style="stroke:#000000;stroke-width:0.8;" x="322.633407" xlink:href="#m910a18bf11" y="307.584"/>
      </g>
     </g>
     <g id="text_4">
      <!-- 2 -->
      <g transform="translate(319.452157 322.182437)scale(0.1 -0.1)">
       <use xlink:href="#DejaVuSans-32"/>
      </g>
     </g>
    </g>
    <g id="xtick_5">
     <g id="line2d_5">
      <g>
       <use style="stroke:#000000;stroke-width:0.8;" x="398.487273" xlink:href="#m910a18bf11" y="307.584"/>
      </g>
     </g>
     <g id="text_5">
      <!-- 4 -->
      <g transform="translate(395.306023 322.182437)scale(0.1 -0.1)">
       <use xlink:href="#DejaVuSans-34"/>
      </g>
     </g>
    </g>
   </g>
   <g id="matplotlib.axis_2">
    <g id="ytick_1">
     <g id="line2d_6">
      <defs>
       <path d="M 0 0 
L -3.5 0 
" id="m4cbd754580" style="stroke:#000000;stroke-width:0.8;"/>
      </defs>
      <g>
       <use style="stroke:#000000;stroke-width:0.8;" x="57.6" xlink:href="#m4cbd754580" y="264.947163"/>
      </g>
     </g>
     <g id="text_6">
      <!-- $\mathdefault{10^{3}}$ -->
      <defs>
       <path d="M 12.40625 8.296875 
L 28.515625 8.296875 
L 28.515625 63.921875 
L 10.984375 60.40625 
L 10.984375 69.390625 
L 28.421875 72.90625 
L 38.28125 72.90625 
L 38.28125 8.296875 
L 54.390625 8.296875 
L 54.390625 0 
L 12.40625 0 
z
" id="DejaVuSans-31"/>
       <path d="M 40.578125 39.3125 
Q 47.65625 37.796875 51.625 33 
Q 55.609375 28.21875 55.609375 21.1875 
Q 55.609375 10.40625 48.1875 4.484375 
Q 40.765625 -1.421875 27.09375 -1.421875 
Q 22.515625 -1.421875 17.65625 -0.515625 
Q 12.796875 0.390625 7.625 2.203125 
L 7.625 11.71875 
Q 11.71875 9.328125 16.59375 8.109375 
Q 21.484375 6.890625 26.8125 6.890625 
Q 36.078125 6.890625 40.9375 10.546875 
Q 45.796875 14.203125 45.796875 21.1875 
Q 45.796875 27.640625 41.28125 31.265625 
Q 36.765625 34.90625 28.71875 34.90625 
L 20.21875 34.90625 
L 20.21875 43.015625 
L 29.109375 43.015625 
Q 36.375 43.015625 40.234375 45.921875 
Q 44.09375 48.828125 44.09375 54.296875 
Q 44.09375 59.90625 40.109375 62.90625 
Q 36.140625 65.921875 28.71875 65.921875 
Q 24.65625 65.921875 20.015625 65.03125 
Q 15.375 64.15625 9.8125 62.3125 
L 9.8125 71.09375 
Q 15.4375 72.65625 20.34375 73.4375 
Q 25.25 74.21875 29.59375 74.21875 
Q 40.828125 74.21875 47.359375 69.109375 
Q 53.90625 64.015625 53.90625 55.328125 
Q 53.90625 49.265625 50.4375 45.09375 
Q 46.96875 40.921875 40.578125 39.3125 
z
" id="DejaVuSans-33"/>
      </defs>
      <g transform="translate(33 268.746382)scale(0.1 -0.1)">
       <use transform="translate(0 0.765625)" xlink:href="#DejaVuSans-31"/>
       <use transform="translate(63.623047 0.765625)" xlink:href="#DejaVuSans-30"/>
       <use transform="translate(128.203125 39.046875)scale(0.7)" xlink:href="#DejaVuSans-33"/>
      </g>
     </g>
    </g>
    <g id="ytick_2">
     <g id="line2d_7">
      <g>
       <use style="stroke:#000000;stroke-width:0.8;" x="57.6" xlink:href="#m4cbd754580" y="188.199824"/>
      </g>
     </g>
     <g id="text_7">
      <!-- $\mathdefault{10^{4}}$ -->
      <g transform="translate(33 191.999043)scale(0.1 -0.1)">
       <use transform="translate(0 0.684375)" xlink:href="#DejaVuSans-31"/>
       <use transform="translate(63.623047 0.684375)" xlink:href="#DejaVuSans-30"/>
       <use transform="translate(128.203125 38.965625)scale(0.7)" xlink:href="#DejaVuSans-34"/>
      </g>
     </g>
    </g>
    <g id="ytick_3">
     <g id="line2d_8">
      <g>
       <use style="stroke:#000000;stroke-width:0.8;" x="57.6" xlink:href="#m4cbd754580" y="111.452485"/>
      </g>
     </g>
     <g id="text_8">
      <!-- $\mathdefault{10^{5}}$ -->
      <defs>
       <path d="M 10.796875 72.90625 
L 49.515625 72.90625 
L 49.515625 64.59375 
L 19.828125 64.59375 
L 19.828125 46.734375 
Q 21.96875 47.46875 24.109375 47.828125 
Q 26.265625 48.1875 28.421875 48.1875 
Q 40.625 48.1875 47.75 41.5 
Q 54.890625 34.8125 54.890625 23.390625 
Q 54.890625 11.625 47.5625 5.09375 
Q 40.234375 -1.421875 26.90625 -1.421875 
Q 22.3125 -1.421875 17.546875 -0.640625 
Q 12.796875 0.140625 7.71875 1.703125 
L 7.71875 11.625 
Q 12.109375 9.234375 16.796875 8.0625 
Q 21.484375 6.890625 26.703125 6.890625 
Q 35.15625 6.890625 40.078125 11.328125 
Q 45.015625 15.765625 45.015625 23.390625 
Q 45.015625 31 40.078125 35.4375 
Q 35.15625 39.890625 26.703125 39.890625 
Q 22.75 39.890625 18.8125 39.015625 
Q 14.890625 38.140625 10.796875 36.28125 
z
" id="DejaVuSans-35"/>
      </defs>
      <g transform="translate(33 115.251704)scale(0.1 -0.1)">
       <use transform="translate(0 0.684375)" xlink:href="#DejaVuSans-31"/>
       <use transform="translate(63.623047 0.684375)" xlink:href="#DejaVuSans-30"/>
       <use transform="translate(128.203125 38.965625)scale(0.7)" xlink:href="#DejaVuSans-35"/>
      </g>
     </g>
    </g>
    <g id="ytick_4">
     <g id="line2d_9">
      <defs>
       <path d="M 0 0 
L -2 0 
" id="m712a5d440d" style="stroke:#000000;stroke-width:0.6;"/>
      </defs>
      <g>
       <use style="stroke:#000000;stroke-width:0.6;" x="57.6" xlink:href="#m712a5d440d" y="305.076716"/>
      </g>
     </g>
    </g>
    <g id="ytick_5">
     <g id="line2d_10">
      <g>
       <use style="stroke:#000000;stroke-width:0.6;" x="57.6" xlink:href="#m712a5d440d" y="295.488"/>
      </g>
     </g>
    </g>
    <g id="ytick_6">
     <g id="line2d_11">
      <g>
       <use style="stroke:#000000;stroke-width:0.6;" x="57.6" xlink:href="#m712a5d440d" y="288.050414"/>
      </g>
     </g>
    </g>
    <g id="ytick_7">
     <g id="line2d_12">
      <g>
       <use style="stroke:#000000;stroke-width:0.6;" x="57.6" xlink:href="#m712a5d440d" y="281.973464"/>
      </g>
     </g>
    </g>
    <g id="ytick_8">
     <g id="line2d_13">
      <g>
       <use style="stroke:#000000;stroke-width:0.6;" x="57.6" xlink:href="#m712a5d440d" y="276.835476"/>
      </g>
     </g>
    </g>
    <g id="ytick_9">
     <g id="line2d_14">
      <g>
       <use style="stroke:#000000;stroke-width:0.6;" x="57.6" xlink:href="#m712a5d440d" y="272.384749"/>
      </g>
     </g>
    </g>
    <g id="ytick_10">
     <g id="line2d_15">
      <g>
       <use style="stroke:#000000;stroke-width:0.6;" x="57.6" xlink:href="#m712a5d440d" y="268.458929"/>
      </g>
     </g>
    </g>
    <g id="ytick_11">
     <g id="line2d_16">
      <g>
       <use style="stroke:#000000;stroke-width:0.6;" x="57.6" xlink:href="#m712a5d440d" y="241.843912"/>
      </g>
     </g>
    </g>
    <g id="ytick_12">
     <g id="line2d_17">
      <g>
       <use style="stroke:#000000;stroke-width:0.6;" x="57.6" xlink:href="#m712a5d440d" y="228.329376"/>
      </g>
     </g>
    </g>
    <g id="ytick_13">
     <g id="line2d_18">
      <g>
       <use style="stroke:#000000;stroke-width:0.6;" x="57.6" xlink:href="#m712a5d440d" y="218.740661"/>
      </g>
     </g>
    </g>
    <g id="ytick_14">
     <g id="line2d_19">
      <g>
       <use style="stroke:#000000;stroke-width:0.6;" x="57.6" xlink:href="#m712a5d440d" y="211.303075"/>
      </g>
     </g>
    </g>
    <g id="ytick_15">
     <g id="line2d_20">
      <g>
       <use style="stroke:#000000;stroke-width:0.6;" x="57.6" xlink:href="#m712a5d440d" y="205.226125"/>
      </g>
     </g>
    </g>
    <g id="ytick_16">
     <g id="line2d_21">
      <g>
       <use style="stroke:#000000;stroke-width:0.6;" x="57.6" xlink:href="#m712a5d440d" y="200.088137"/>
      </g>
     </g>
    </g>
    <g id="ytick_17">
     <g id="line2d_22">
      <g>
       <use style="stroke:#000000;stroke-width:0.6;" x="57.6" xlink:href="#m712a5d440d" y="195.63741"/>
      </g>
     </g>
    </g>
    <g id="ytick_18">
     <g id="line2d_23">
      <g>
       <use style="stroke:#000000;stroke-width:0.6;" x="57.6" xlink:href="#m712a5d440d" y="191.71159"/>
      </g>
     </g>
    </g>
    <g id="ytick_19">
     <g id="line2d_24">
      <g>
       <use style="stroke:#000000;stroke-width:0.6;" x="57.6" xlink:href="#m712a5d440d" y="165.096573"/>
      </g>
     </g>
    </g>
    <g id="ytick_20">
     <g id="line2d_25">
      <g>
       <use style="stroke:#000000;stroke-width:0.6;" x="57.6" xlink:href="#m712a5d440d" y="151.582037"/>
      </g>
     </g>
    </g>
    <g id="ytick_21">
     <g id="line2d_26">
      <g>
       <use style="stroke:#000000;stroke-width:0.6;" x="57.6" xlink:href="#m712a5d440d" y="141.993322"/>
      </g>
     </g>
    </g>
    <g id="ytick_22">
     <g id="line2d_27">
      <g>
       <use style="stroke:#000000;stroke-width:0.6;" x="57.6" xlink:href="#m712a5d440d" y="134.555736"/>
      </g>
     </g>
    </g>
    <g id="ytick_23">
     <g id="line2d_28">
      <g>
       <use style="stroke:#000000;stroke-width:0.6;" x="57.6" xlink:href="#m712a5d440d" y="128.478786"/>
      </g>
     </g>
    </g>
    <g id="ytick_24">
     <g id="line2d_29">
      <g>
       <use style="stroke:#000000;stroke-width:0.6;" x="57.6" xlink:href="#m712a5d440d" y="123.340798"/>
      </g>
     </g>
    </g>
    <g id="ytick_25">
     <g id="line2d_30">
      <g>
       <use style="stroke:#000000;stroke-width:0.6;" x="57.6" xlink:href="#m712a5d440d" y="118.890071"/>
      </g>
     </g>
    </g>
    <g id="ytick_26">
     <g id="line2d_31">
      <g>
       <use style="stroke:#000000;stroke-width:0.6;" x="57.6" xlink:href="#m712a5d440d" y="114.964251"/>
      </g>
     </g>
    </g>
    <g id="ytick_27">
     <g id="line2d_32">
      <g>
       <use style="stroke:#000000;stroke-width:0.6;" x="57.6" xlink:href="#m712a5d440d" y="88.349234"/>
      </g>
     </g>
    </g>
    <g id="ytick_28">
     <g id="line2d_33">
      <g>
       <use style="stroke:#000000;stroke-width:0.6;" x="57.6" xlink:href="#m712a5d440d" y="74.834698"/>
      </g>
     </g>
    </g>
    <g id="ytick_29">
     <g id="line2d_34">
      <g>
       <use style="stroke:#000000;stroke-width:0.6;" x="57.6" xlink:href="#m712a5d440d" y="65.245983"/>
      </g>
     </g>
    </g>
    <g id="ytick_30">
     <g id="line2d_35">
      <g>
       <use style="stroke:#000000;stroke-width:0.6;" x="57.6" xlink:href="#m712a5d440d" y="57.808397"/>
      </g>
     </g>
    </g>
    <g id="ytick_31">
     <g id="line2d_36">
      <g>
       <use style="stroke:#000000;stroke-width:0.6;" x="57.6" xlink:href="#m712a5d440d" y="51.731447"/>
      </g>
     </g>
    </g>
    <g id="ytick_32">
     <g id="line2d_37">
      <g>
       <use style="stroke:#000000;stroke-width:0.6;" x="57.6" xlink:href="#m712a5d440d" y="46.593459"/>
      </g>
     </g>
    </g>
    <g id="ytick_33">
     <g id="line2d_38">
      <g>
       <use style="stroke:#000000;stroke-width:0.6;" x="57.6" xlink:href="#m712a5d440d" y="42.142732"/>
      </g>
     </g>
    </g>
   </g>
   <g id="patch_204">
    <path d="M 57.6 307.584 
L 57.6 41.472 
" style="fill:none;stroke:#000000;stroke-linecap:square;stroke-linejoin:miter;stroke-width:0.8;"/>
   </g>
   <g id="patch_205">
    <path d="M 414.72 307.584 
L 414.72 41.472 
" style="fill:none;stroke:#000000;stroke-linecap:square;stroke-linejoin:miter;stroke-width:0.8;"/>
   </g>
   <g id="patch_206">
    <path d="M 57.6 307.584 
L 414.72 307.584 
" style="fill:none;stroke:#000000;stroke-linecap:square;stroke-linejoin:miter;stroke-width:0.8;"/>
   </g>
   <g id="patch_207">
    <path d="M 57.6 41.472 
L 414.72 41.472 
" style="fill:none;stroke:#000000;stroke-linecap:square;stroke-linejoin:miter;stroke-width:0.8;"/>
   </g>
  </g>
 </g>
 <defs>
  <clipPath id="p1be03cff8e">
   <rect height="266.112" width="357.12" x="57.6" y="41.472"/>
  </clipPath>
 </defs>
</svg>
