<?xml version="1.0" encoding="utf-8" standalone="no"?>
<!DOCTYPE svg PUBLIC "-//W3C//DTD SVG 1.1//EN"
  "http://www.w3.org/Graphics/SVG/1.1/DTD/svg11.dtd">
<!-- Created with matplotlib (http://matplotlib.org/) -->
<svg height="504pt" version="1.1" viewBox="0 0 504 504" width="504pt" xmlns="http://www.w3.org/2000/svg" xmlns:xlink="http://www.w3.org/1999/xlink">
 <defs>
  <style type="text/css">
*{stroke-linecap:butt;stroke-linejoin:round;}
  </style>
 </defs>
 <g id="figure_1">
  <g id="patch_1">
   <path d="M 0 504 
L 504 504 
L 504 0 
L 0 0 
z
" style="fill:#ffffff;"/>
  </g>
  <g id="axes_1">
   <g id="patch_2">
    <path d="M 63 236.88 
L 240.545455 236.88 
L 240.545455 60.48 
L 63 60.48 
z
" style="fill:#ffffff;"/>
   </g>
   <g id="patch_3">
    <path clip-path="url(#pa6a6614f90)" d="M 157.240886 51235.422611 
L 158.05865 51235.422611 
L 158.05865 68.498182 
L 157.240886 68.498182 
z
" style="fill:#d490c6;opacity:0.4;"/>
   </g>
   <g id="patch_4">
    <path clip-path="url(#pa6a6614f90)" d="M 158.05865 51235.422611 
L 158.876415 51235.422611 
L 158.876415 91.652352 
L 158.05865 91.652352 
z
" style="fill:#d490c6;opacity:0.4;"/>
   </g>
   <g id="patch_5">
    <path clip-path="url(#pa6a6614f90)" d="M 158.876415 51235.422611 
L 159.694179 51235.422611 
L 159.694179 87.510918 
L 158.876415 87.510918 
z
" style="fill:#d490c6;opacity:0.4;"/>
   </g>
   <g id="patch_6">
    <path clip-path="url(#pa6a6614f90)" d="M 159.694179 51235.422611 
L 160.511943 51235.422611 
L 160.511943 107.522886 
L 159.694179 107.522886 
z
" style="fill:#d490c6;opacity:0.4;"/>
   </g>
   <g id="patch_7">
    <path clip-path="url(#pa6a6614f90)" d="M 160.511943 51235.422611 
L 161.329708 51235.422611 
L 161.329708 97.998783 
L 160.511943 97.998783 
z
" style="fill:#d490c6;opacity:0.4;"/>
   </g>
   <g id="patch_8">
    <path clip-path="url(#pa6a6614f90)" d="M 161.329708 51235.422611 
L 162.147472 51235.422611 
L 162.147472 111.732338 
L 161.329708 111.732338 
z
" style="fill:#d490c6;opacity:0.4;"/>
   </g>
   <g id="patch_9">
    <path clip-path="url(#pa6a6614f90)" d="M 162.147472 51235.422611 
L 162.965236 51235.422611 
L 162.965236 100.021674 
L 162.147472 100.021674 
z
" style="fill:#d490c6;opacity:0.4;"/>
   </g>
   <g id="patch_10">
    <path clip-path="url(#pa6a6614f90)" d="M 162.965236 51235.422611 
L 163.783001 51235.422611 
L 163.783001 136.357704 
L 162.965236 136.357704 
z
" style="fill:#d490c6;opacity:0.4;"/>
   </g>
   <g id="patch_11">
    <path clip-path="url(#pa6a6614f90)" d="M 163.783001 51235.422611 
L 164.600765 51235.422611 
L 164.600765 127.113452 
L 163.783001 127.113452 
z
" style="fill:#d490c6;opacity:0.4;"/>
   </g>
   <g id="patch_12">
    <path clip-path="url(#pa6a6614f90)" d="M 164.600765 51235.422611 
L 165.418529 51235.422611 
L 165.418529 149.683131 
L 164.600765 149.683131 
z
" style="fill:#d490c6;opacity:0.4;"/>
   </g>
   <g id="patch_13">
    <path clip-path="url(#pa6a6614f90)" d="M 165.418529 51235.422611 
L 166.236294 51235.422611 
L 166.236294 131.769202 
L 165.418529 131.769202 
z
" style="fill:#d490c6;opacity:0.4;"/>
   </g>
   <g id="patch_14">
    <path clip-path="url(#pa6a6614f90)" d="M 166.236294 51235.422611 
L 167.054058 51235.422611 
L 167.054058 130.11557 
L 166.236294 130.11557 
z
" style="fill:#d490c6;opacity:0.4;"/>
   </g>
   <g id="patch_15">
    <path clip-path="url(#pa6a6614f90)" d="M 167.054058 51235.422611 
L 167.871823 51235.422611 
L 167.871823 156.042356 
L 167.054058 156.042356 
z
" style="fill:#d490c6;opacity:0.4;"/>
   </g>
   <g id="patch_16">
    <path clip-path="url(#pa6a6614f90)" d="M 167.871823 51235.422611 
L 168.689587 51235.422611 
L 168.689587 129.441327 
L 167.871823 129.441327 
z
" style="fill:#d490c6;opacity:0.4;"/>
   </g>
   <g id="patch_17">
    <path clip-path="url(#pa6a6614f90)" d="M 168.689587 51235.422611 
L 169.507351 51235.422611 
L 169.507351 144.755982 
L 168.689587 144.755982 
z
" style="fill:#d490c6;opacity:0.4;"/>
   </g>
   <g id="patch_18">
    <path clip-path="url(#pa6a6614f90)" d="M 169.507351 51235.422611 
L 170.325116 51235.422611 
L 170.325116 120.482828 
L 169.507351 120.482828 
z
" style="fill:#d490c6;opacity:0.4;"/>
   </g>
   <g id="patch_19">
    <path clip-path="url(#pa6a6614f90)" d="M 170.325116 51235.422611 
L 171.14288 51235.422611 
L 171.14288 180.31551 
L 170.325116 180.31551 
z
" style="fill:#d490c6;opacity:0.4;"/>
   </g>
   <g id="patch_20">
    <path clip-path="url(#pa6a6614f90)" d="M 171.14288 51235.422611 
L 171.960644 51235.422611 
L 171.960644 51235.422611 
L 171.14288 51235.422611 
z
" style="fill:#d490c6;opacity:0.4;"/>
   </g>
   <g id="patch_21">
    <path clip-path="url(#pa6a6614f90)" d="M 171.960644 51235.422611 
L 172.778409 51235.422611 
L 172.778409 165.000855 
L 171.960644 165.000855 
z
" style="fill:#d490c6;opacity:0.4;"/>
   </g>
   <g id="patch_22">
    <path clip-path="url(#pa6a6614f90)" d="M 172.778409 51235.422611 
L 173.596173 51235.422611 
L 173.596173 165.000855 
L 172.778409 165.000855 
z
" style="fill:#d490c6;opacity:0.4;"/>
   </g>
   <g id="patch_23">
    <path clip-path="url(#pa6a6614f90)" d="M 173.596173 51235.422611 
L 174.413937 51235.422611 
L 174.413937 165.000855 
L 173.596173 165.000855 
z
" style="fill:#d490c6;opacity:0.4;"/>
   </g>
   <g id="patch_24">
    <path clip-path="url(#pa6a6614f90)" d="M 174.413937 51235.422611 
L 175.231702 51235.422611 
L 175.231702 228.861818 
L 174.413937 228.861818 
z
" style="fill:#d490c6;opacity:0.4;"/>
   </g>
   <g id="patch_25">
    <path clip-path="url(#pa6a6614f90)" d="M 175.231702 51235.422611 
L 176.049466 51235.422611 
L 176.049466 131.577731 
L 175.231702 131.577731 
z
" style="fill:#d490c6;opacity:0.4;"/>
   </g>
   <g id="patch_26">
    <path clip-path="url(#pa6a6614f90)" d="M 176.049466 51235.422611 
L 176.86723 51235.422611 
L 176.86723 180.31551 
L 176.049466 180.31551 
z
" style="fill:#d490c6;opacity:0.4;"/>
   </g>
   <g id="patch_27">
    <path clip-path="url(#pa6a6614f90)" d="M 176.86723 51235.422611 
L 177.684995 51235.422611 
L 177.684995 51235.422611 
L 176.86723 51235.422611 
z
" style="fill:#d490c6;opacity:0.4;"/>
   </g>
   <g id="patch_28">
    <path clip-path="url(#pa6a6614f90)" d="M 177.684995 51235.422611 
L 178.502759 51235.422611 
L 178.502759 51235.422611 
L 177.684995 51235.422611 
z
" style="fill:#d490c6;opacity:0.4;"/>
   </g>
   <g id="patch_29">
    <path clip-path="url(#pa6a6614f90)" d="M 178.502759 51235.422611 
L 179.320524 51235.422611 
L 179.320524 51235.422611 
L 178.502759 51235.422611 
z
" style="fill:#d490c6;opacity:0.4;"/>
   </g>
   <g id="patch_30">
    <path clip-path="url(#pa6a6614f90)" d="M 179.320524 51235.422611 
L 180.138288 51235.422611 
L 180.138288 51235.422611 
L 179.320524 51235.422611 
z
" style="fill:#d490c6;opacity:0.4;"/>
   </g>
   <g id="patch_31">
    <path clip-path="url(#pa6a6614f90)" d="M 180.138288 51235.422611 
L 180.956052 51235.422611 
L 180.956052 51235.422611 
L 180.138288 51235.422611 
z
" style="fill:#d490c6;opacity:0.4;"/>
   </g>
   <g id="patch_32">
    <path clip-path="url(#pa6a6614f90)" d="M 180.956052 51235.422611 
L 181.773817 51235.422611 
L 181.773817 165.000855 
L 180.956052 165.000855 
z
" style="fill:#d490c6;opacity:0.4;"/>
   </g>
   <g id="patch_33">
    <path clip-path="url(#pa6a6614f90)" d="M 181.773817 51235.422611 
L 182.591581 51235.422611 
L 182.591581 180.31551 
L 181.773817 180.31551 
z
" style="fill:#d490c6;opacity:0.4;"/>
   </g>
   <g id="patch_34">
    <path clip-path="url(#pa6a6614f90)" d="M 182.591581 51235.422611 
L 183.409345 51235.422611 
L 183.409345 51235.422611 
L 182.591581 51235.422611 
z
" style="fill:#d490c6;opacity:0.4;"/>
   </g>
   <g id="patch_35">
    <path clip-path="url(#pa6a6614f90)" d="M 183.409345 51235.422611 
L 184.22711 51235.422611 
L 184.22711 180.31551 
L 183.409345 180.31551 
z
" style="fill:#d490c6;opacity:0.4;"/>
   </g>
   <g id="patch_36">
    <path clip-path="url(#pa6a6614f90)" d="M 184.22711 51235.422611 
L 185.044874 51235.422611 
L 185.044874 180.31551 
L 184.22711 180.31551 
z
" style="fill:#d490c6;opacity:0.4;"/>
   </g>
   <g id="patch_37">
    <path clip-path="url(#pa6a6614f90)" d="M 185.044874 51235.422611 
L 185.862638 51235.422611 
L 185.862638 180.31551 
L 185.044874 180.31551 
z
" style="fill:#d490c6;opacity:0.4;"/>
   </g>
   <g id="patch_38">
    <path clip-path="url(#pa6a6614f90)" d="M 185.862638 51235.422611 
L 186.680403 51235.422611 
L 186.680403 51235.422611 
L 185.862638 51235.422611 
z
" style="fill:#d490c6;opacity:0.4;"/>
   </g>
   <g id="patch_39">
    <path clip-path="url(#pa6a6614f90)" d="M 186.680403 51235.422611 
L 187.498167 51235.422611 
L 187.498167 51235.422611 
L 186.680403 51235.422611 
z
" style="fill:#d490c6;opacity:0.4;"/>
   </g>
   <g id="patch_40">
    <path clip-path="url(#pa6a6614f90)" d="M 187.498167 51235.422611 
L 188.315931 51235.422611 
L 188.315931 51235.422611 
L 187.498167 51235.422611 
z
" style="fill:#d490c6;opacity:0.4;"/>
   </g>
   <g id="patch_41">
    <path clip-path="url(#pa6a6614f90)" d="M 188.315931 51235.422611 
L 189.133696 51235.422611 
L 189.133696 180.31551 
L 188.315931 180.31551 
z
" style="fill:#d490c6;opacity:0.4;"/>
   </g>
   <g id="patch_42">
    <path clip-path="url(#pa6a6614f90)" d="M 189.133696 51235.422611 
L 189.95146 51235.422611 
L 189.95146 51235.422611 
L 189.133696 51235.422611 
z
" style="fill:#d490c6;opacity:0.4;"/>
   </g>
   <g id="patch_43">
    <path clip-path="url(#pa6a6614f90)" d="M 189.95146 51235.422611 
L 190.769224 51235.422611 
L 190.769224 180.31551 
L 189.95146 180.31551 
z
" style="fill:#d490c6;opacity:0.4;"/>
   </g>
   <g id="patch_44">
    <path clip-path="url(#pa6a6614f90)" d="M 190.769224 51235.422611 
L 191.586989 51235.422611 
L 191.586989 51235.422611 
L 190.769224 51235.422611 
z
" style="fill:#d490c6;opacity:0.4;"/>
   </g>
   <g id="patch_45">
    <path clip-path="url(#pa6a6614f90)" d="M 191.586989 51235.422611 
L 192.404753 51235.422611 
L 192.404753 51235.422611 
L 191.586989 51235.422611 
z
" style="fill:#d490c6;opacity:0.4;"/>
   </g>
   <g id="patch_46">
    <path clip-path="url(#pa6a6614f90)" d="M 192.404753 51235.422611 
L 193.222518 51235.422611 
L 193.222518 180.31551 
L 192.404753 180.31551 
z
" style="fill:#d490c6;opacity:0.4;"/>
   </g>
   <g id="patch_47">
    <path clip-path="url(#pa6a6614f90)" d="M 193.222518 51235.422611 
L 194.040282 51235.422611 
L 194.040282 51235.422611 
L 193.222518 51235.422611 
z
" style="fill:#d490c6;opacity:0.4;"/>
   </g>
   <g id="patch_48">
    <path clip-path="url(#pa6a6614f90)" d="M 194.040282 51235.422611 
L 194.858046 51235.422611 
L 194.858046 158.764702 
L 194.040282 158.764702 
z
" style="fill:#d490c6;opacity:0.4;"/>
   </g>
   <g id="patch_49">
    <path clip-path="url(#pa6a6614f90)" d="M 194.858046 51235.422611 
L 195.675811 51235.422611 
L 195.675811 51235.422611 
L 194.858046 51235.422611 
z
" style="fill:#d490c6;opacity:0.4;"/>
   </g>
   <g id="patch_50">
    <path clip-path="url(#pa6a6614f90)" d="M 195.675811 51235.422611 
L 196.493575 51235.422611 
L 196.493575 51235.422611 
L 195.675811 51235.422611 
z
" style="fill:#d490c6;opacity:0.4;"/>
   </g>
   <g id="patch_51">
    <path clip-path="url(#pa6a6614f90)" d="M 196.493575 51235.422611 
L 197.311339 51235.422611 
L 197.311339 51235.422611 
L 196.493575 51235.422611 
z
" style="fill:#d490c6;opacity:0.4;"/>
   </g>
   <g id="patch_52">
    <path clip-path="url(#pa6a6614f90)" d="M 197.311339 51235.422611 
L 198.129104 51235.422611 
L 198.129104 51235.422611 
L 197.311339 51235.422611 
z
" style="fill:#d490c6;opacity:0.4;"/>
   </g>
   <g id="patch_53">
    <path clip-path="url(#pa6a6614f90)" d="M 198.129104 51235.422611 
L 198.946868 51235.422611 
L 198.946868 51235.422611 
L 198.129104 51235.422611 
z
" style="fill:#d490c6;opacity:0.4;"/>
   </g>
   <g id="patch_54">
    <path clip-path="url(#pa6a6614f90)" d="M 198.946868 51235.422611 
L 199.764632 51235.422611 
L 199.764632 51235.422611 
L 198.946868 51235.422611 
z
" style="fill:#d490c6;opacity:0.4;"/>
   </g>
   <g id="patch_55">
    <path clip-path="url(#pa6a6614f90)" d="M 199.764632 51235.422611 
L 200.582397 51235.422611 
L 200.582397 51235.422611 
L 199.764632 51235.422611 
z
" style="fill:#d490c6;opacity:0.4;"/>
   </g>
   <g id="patch_56">
    <path clip-path="url(#pa6a6614f90)" d="M 200.582397 51235.422611 
L 201.400161 51235.422611 
L 201.400161 51235.422611 
L 200.582397 51235.422611 
z
" style="fill:#d490c6;opacity:0.4;"/>
   </g>
   <g id="patch_57">
    <path clip-path="url(#pa6a6614f90)" d="M 201.400161 51235.422611 
L 202.217925 51235.422611 
L 202.217925 51235.422611 
L 201.400161 51235.422611 
z
" style="fill:#d490c6;opacity:0.4;"/>
   </g>
   <g id="patch_58">
    <path clip-path="url(#pa6a6614f90)" d="M 202.217925 51235.422611 
L 203.03569 51235.422611 
L 203.03569 51235.422611 
L 202.217925 51235.422611 
z
" style="fill:#d490c6;opacity:0.4;"/>
   </g>
   <g id="patch_59">
    <path clip-path="url(#pa6a6614f90)" d="M 203.03569 51235.422611 
L 203.853454 51235.422611 
L 203.853454 51235.422611 
L 203.03569 51235.422611 
z
" style="fill:#d490c6;opacity:0.4;"/>
   </g>
   <g id="patch_60">
    <path clip-path="url(#pa6a6614f90)" d="M 203.853454 51235.422611 
L 204.671219 51235.422611 
L 204.671219 51235.422611 
L 203.853454 51235.422611 
z
" style="fill:#d490c6;opacity:0.4;"/>
   </g>
   <g id="patch_61">
    <path clip-path="url(#pa6a6614f90)" d="M 204.671219 51235.422611 
L 205.488983 51235.422611 
L 205.488983 51235.422611 
L 204.671219 51235.422611 
z
" style="fill:#d490c6;opacity:0.4;"/>
   </g>
   <g id="patch_62">
    <path clip-path="url(#pa6a6614f90)" d="M 205.488983 51235.422611 
L 206.306747 51235.422611 
L 206.306747 228.861818 
L 205.488983 228.861818 
z
" style="fill:#d490c6;opacity:0.4;"/>
   </g>
   <g id="patch_63">
    <path clip-path="url(#pa6a6614f90)" d="M 206.306747 51235.422611 
L 207.124512 51235.422611 
L 207.124512 51235.422611 
L 206.306747 51235.422611 
z
" style="fill:#d490c6;opacity:0.4;"/>
   </g>
   <g id="patch_64">
    <path clip-path="url(#pa6a6614f90)" d="M 207.124512 51235.422611 
L 207.942276 51235.422611 
L 207.942276 51235.422611 
L 207.124512 51235.422611 
z
" style="fill:#d490c6;opacity:0.4;"/>
   </g>
   <g id="patch_65">
    <path clip-path="url(#pa6a6614f90)" d="M 207.942276 51235.422611 
L 208.76004 51235.422611 
L 208.76004 51235.422611 
L 207.942276 51235.422611 
z
" style="fill:#d490c6;opacity:0.4;"/>
   </g>
   <g id="patch_66">
    <path clip-path="url(#pa6a6614f90)" d="M 208.76004 51235.422611 
L 209.577805 51235.422611 
L 209.577805 51235.422611 
L 208.76004 51235.422611 
z
" style="fill:#d490c6;opacity:0.4;"/>
   </g>
   <g id="patch_67">
    <path clip-path="url(#pa6a6614f90)" d="M 209.577805 51235.422611 
L 210.395569 51235.422611 
L 210.395569 51235.422611 
L 209.577805 51235.422611 
z
" style="fill:#d490c6;opacity:0.4;"/>
   </g>
   <g id="patch_68">
    <path clip-path="url(#pa6a6614f90)" d="M 210.395569 51235.422611 
L 211.213333 51235.422611 
L 211.213333 51235.422611 
L 210.395569 51235.422611 
z
" style="fill:#d490c6;opacity:0.4;"/>
   </g>
   <g id="patch_69">
    <path clip-path="url(#pa6a6614f90)" d="M 211.213333 51235.422611 
L 212.031098 51235.422611 
L 212.031098 51235.422611 
L 211.213333 51235.422611 
z
" style="fill:#d490c6;opacity:0.4;"/>
   </g>
   <g id="patch_70">
    <path clip-path="url(#pa6a6614f90)" d="M 212.031098 51235.422611 
L 212.848862 51235.422611 
L 212.848862 51235.422611 
L 212.031098 51235.422611 
z
" style="fill:#d490c6;opacity:0.4;"/>
   </g>
   <g id="patch_71">
    <path clip-path="url(#pa6a6614f90)" d="M 212.848862 51235.422611 
L 213.666626 51235.422611 
L 213.666626 167.783448 
L 212.848862 167.783448 
z
" style="fill:#d490c6;opacity:0.4;"/>
   </g>
   <g id="patch_72">
    <path clip-path="url(#pa6a6614f90)" d="M 213.666626 51235.422611 
L 214.484391 51235.422611 
L 214.484391 51235.422611 
L 213.666626 51235.422611 
z
" style="fill:#d490c6;opacity:0.4;"/>
   </g>
   <g id="patch_73">
    <path clip-path="url(#pa6a6614f90)" d="M 214.484391 51235.422611 
L 215.302155 51235.422611 
L 215.302155 180.31551 
L 214.484391 180.31551 
z
" style="fill:#d490c6;opacity:0.4;"/>
   </g>
   <g id="patch_74">
    <path clip-path="url(#pa6a6614f90)" d="M 215.302155 51235.422611 
L 216.11992 51235.422611 
L 216.11992 51235.422611 
L 215.302155 51235.422611 
z
" style="fill:#d490c6;opacity:0.4;"/>
   </g>
   <g id="patch_75">
    <path clip-path="url(#pa6a6614f90)" d="M 216.11992 51235.422611 
L 216.937684 51235.422611 
L 216.937684 51235.422611 
L 216.11992 51235.422611 
z
" style="fill:#d490c6;opacity:0.4;"/>
   </g>
   <g id="patch_76">
    <path clip-path="url(#pa6a6614f90)" d="M 216.937684 51235.422611 
L 217.755448 51235.422611 
L 217.755448 180.636978 
L 216.937684 180.636978 
z
" style="fill:#d490c6;opacity:0.4;"/>
   </g>
   <g id="patch_77">
    <path clip-path="url(#pa6a6614f90)" d="M 217.755448 51235.422611 
L 218.573213 51235.422611 
L 218.573213 51235.422611 
L 217.755448 51235.422611 
z
" style="fill:#d490c6;opacity:0.4;"/>
   </g>
   <g id="patch_78">
    <path clip-path="url(#pa6a6614f90)" d="M 218.573213 51235.422611 
L 219.390977 51235.422611 
L 219.390977 51235.422611 
L 218.573213 51235.422611 
z
" style="fill:#d490c6;opacity:0.4;"/>
   </g>
   <g id="patch_79">
    <path clip-path="url(#pa6a6614f90)" d="M 219.390977 51235.422611 
L 220.208741 51235.422611 
L 220.208741 51235.422611 
L 219.390977 51235.422611 
z
" style="fill:#d490c6;opacity:0.4;"/>
   </g>
   <g id="patch_80">
    <path clip-path="url(#pa6a6614f90)" d="M 220.208741 51235.422611 
L 221.026506 51235.422611 
L 221.026506 51235.422611 
L 220.208741 51235.422611 
z
" style="fill:#d490c6;opacity:0.4;"/>
   </g>
   <g id="patch_81">
    <path clip-path="url(#pa6a6614f90)" d="M 221.026506 51235.422611 
L 221.84427 51235.422611 
L 221.84427 51235.422611 
L 221.026506 51235.422611 
z
" style="fill:#d490c6;opacity:0.4;"/>
   </g>
   <g id="patch_82">
    <path clip-path="url(#pa6a6614f90)" d="M 221.84427 51235.422611 
L 222.662034 51235.422611 
L 222.662034 51235.422611 
L 221.84427 51235.422611 
z
" style="fill:#d490c6;opacity:0.4;"/>
   </g>
   <g id="patch_83">
    <path clip-path="url(#pa6a6614f90)" d="M 222.662034 51235.422611 
L 223.479799 51235.422611 
L 223.479799 51235.422611 
L 222.662034 51235.422611 
z
" style="fill:#d490c6;opacity:0.4;"/>
   </g>
   <g id="patch_84">
    <path clip-path="url(#pa6a6614f90)" d="M 223.479799 51235.422611 
L 224.297563 51235.422611 
L 224.297563 51235.422611 
L 223.479799 51235.422611 
z
" style="fill:#d490c6;opacity:0.4;"/>
   </g>
   <g id="patch_85">
    <path clip-path="url(#pa6a6614f90)" d="M 224.297563 51235.422611 
L 225.115327 51235.422611 
L 225.115327 51235.422611 
L 224.297563 51235.422611 
z
" style="fill:#d490c6;opacity:0.4;"/>
   </g>
   <g id="patch_86">
    <path clip-path="url(#pa6a6614f90)" d="M 225.115327 51235.422611 
L 225.933092 51235.422611 
L 225.933092 51235.422611 
L 225.115327 51235.422611 
z
" style="fill:#d490c6;opacity:0.4;"/>
   </g>
   <g id="patch_87">
    <path clip-path="url(#pa6a6614f90)" d="M 225.933092 51235.422611 
L 226.750856 51235.422611 
L 226.750856 51235.422611 
L 225.933092 51235.422611 
z
" style="fill:#d490c6;opacity:0.4;"/>
   </g>
   <g id="patch_88">
    <path clip-path="url(#pa6a6614f90)" d="M 226.750856 51235.422611 
L 227.56862 51235.422611 
L 227.56862 51235.422611 
L 226.750856 51235.422611 
z
" style="fill:#d490c6;opacity:0.4;"/>
   </g>
   <g id="patch_89">
    <path clip-path="url(#pa6a6614f90)" d="M 227.56862 51235.422611 
L 228.386385 51235.422611 
L 228.386385 51235.422611 
L 227.56862 51235.422611 
z
" style="fill:#d490c6;opacity:0.4;"/>
   </g>
   <g id="patch_90">
    <path clip-path="url(#pa6a6614f90)" d="M 228.386385 51235.422611 
L 229.204149 51235.422611 
L 229.204149 180.31551 
L 228.386385 180.31551 
z
" style="fill:#d490c6;opacity:0.4;"/>
   </g>
   <g id="patch_91">
    <path clip-path="url(#pa6a6614f90)" d="M 229.204149 51235.422611 
L 230.021914 51235.422611 
L 230.021914 51235.422611 
L 229.204149 51235.422611 
z
" style="fill:#d490c6;opacity:0.4;"/>
   </g>
   <g id="patch_92">
    <path clip-path="url(#pa6a6614f90)" d="M 230.021914 51235.422611 
L 230.839678 51235.422611 
L 230.839678 180.31551 
L 230.021914 180.31551 
z
" style="fill:#d490c6;opacity:0.4;"/>
   </g>
   <g id="patch_93">
    <path clip-path="url(#pa6a6614f90)" d="M 230.839678 51235.422611 
L 231.657442 51235.422611 
L 231.657442 51235.422611 
L 230.839678 51235.422611 
z
" style="fill:#d490c6;opacity:0.4;"/>
   </g>
   <g id="patch_94">
    <path clip-path="url(#pa6a6614f90)" d="M 231.657442 51235.422611 
L 232.475207 51235.422611 
L 232.475207 180.31551 
L 231.657442 180.31551 
z
" style="fill:#d490c6;opacity:0.4;"/>
   </g>
   <g id="patch_95">
    <path clip-path="url(#pa6a6614f90)" d="M 71.070248 51235.422611 
L 71.857344 51235.422611 
L 71.857344 180.31551 
L 71.070248 180.31551 
z
" style="fill:#c3c1f2;opacity:0.4;"/>
   </g>
   <g id="patch_96">
    <path clip-path="url(#pa6a6614f90)" d="M 71.857344 51235.422611 
L 72.644441 51235.422611 
L 72.644441 51235.422611 
L 71.857344 51235.422611 
z
" style="fill:#c3c1f2;opacity:0.4;"/>
   </g>
   <g id="patch_97">
    <path clip-path="url(#pa6a6614f90)" d="M 72.644441 51235.422611 
L 73.431538 51235.422611 
L 73.431538 51235.422611 
L 72.644441 51235.422611 
z
" style="fill:#c3c1f2;opacity:0.4;"/>
   </g>
   <g id="patch_98">
    <path clip-path="url(#pa6a6614f90)" d="M 73.431538 51235.422611 
L 74.218634 51235.422611 
L 74.218634 51235.422611 
L 73.431538 51235.422611 
z
" style="fill:#c3c1f2;opacity:0.4;"/>
   </g>
   <g id="patch_99">
    <path clip-path="url(#pa6a6614f90)" d="M 74.218634 51235.422611 
L 75.005731 51235.422611 
L 75.005731 51235.422611 
L 74.218634 51235.422611 
z
" style="fill:#c3c1f2;opacity:0.4;"/>
   </g>
   <g id="patch_100">
    <path clip-path="url(#pa6a6614f90)" d="M 75.005731 51235.422611 
L 75.792827 51235.422611 
L 75.792827 51235.422611 
L 75.005731 51235.422611 
z
" style="fill:#c3c1f2;opacity:0.4;"/>
   </g>
   <g id="patch_101">
    <path clip-path="url(#pa6a6614f90)" d="M 75.792827 51235.422611 
L 76.579924 51235.422611 
L 76.579924 51235.422611 
L 75.792827 51235.422611 
z
" style="fill:#c3c1f2;opacity:0.4;"/>
   </g>
   <g id="patch_102">
    <path clip-path="url(#pa6a6614f90)" d="M 76.579924 51235.422611 
L 77.36702 51235.422611 
L 77.36702 51235.422611 
L 76.579924 51235.422611 
z
" style="fill:#c3c1f2;opacity:0.4;"/>
   </g>
   <g id="patch_103">
    <path clip-path="url(#pa6a6614f90)" d="M 77.36702 51235.422611 
L 78.154117 51235.422611 
L 78.154117 51235.422611 
L 77.36702 51235.422611 
z
" style="fill:#c3c1f2;opacity:0.4;"/>
   </g>
   <g id="patch_104">
    <path clip-path="url(#pa6a6614f90)" d="M 78.154117 51235.422611 
L 78.941213 51235.422611 
L 78.941213 51235.422611 
L 78.154117 51235.422611 
z
" style="fill:#c3c1f2;opacity:0.4;"/>
   </g>
   <g id="patch_105">
    <path clip-path="url(#pa6a6614f90)" d="M 78.941213 51235.422611 
L 79.72831 51235.422611 
L 79.72831 51235.422611 
L 78.941213 51235.422611 
z
" style="fill:#c3c1f2;opacity:0.4;"/>
   </g>
   <g id="patch_106">
    <path clip-path="url(#pa6a6614f90)" d="M 79.72831 51235.422611 
L 80.515406 51235.422611 
L 80.515406 51235.422611 
L 79.72831 51235.422611 
z
" style="fill:#c3c1f2;opacity:0.4;"/>
   </g>
   <g id="patch_107">
    <path clip-path="url(#pa6a6614f90)" d="M 80.515406 51235.422611 
L 81.302503 51235.422611 
L 81.302503 51235.422611 
L 80.515406 51235.422611 
z
" style="fill:#c3c1f2;opacity:0.4;"/>
   </g>
   <g id="patch_108">
    <path clip-path="url(#pa6a6614f90)" d="M 81.302503 51235.422611 
L 82.0896 51235.422611 
L 82.0896 51235.422611 
L 81.302503 51235.422611 
z
" style="fill:#c3c1f2;opacity:0.4;"/>
   </g>
   <g id="patch_109">
    <path clip-path="url(#pa6a6614f90)" d="M 82.0896 51235.422611 
L 82.876696 51235.422611 
L 82.876696 51235.422611 
L 82.0896 51235.422611 
z
" style="fill:#c3c1f2;opacity:0.4;"/>
   </g>
   <g id="patch_110">
    <path clip-path="url(#pa6a6614f90)" d="M 82.876696 51235.422611 
L 83.663793 51235.422611 
L 83.663793 51235.422611 
L 82.876696 51235.422611 
z
" style="fill:#c3c1f2;opacity:0.4;"/>
   </g>
   <g id="patch_111">
    <path clip-path="url(#pa6a6614f90)" d="M 83.663793 51235.422611 
L 84.450889 51235.422611 
L 84.450889 180.31551 
L 83.663793 180.31551 
z
" style="fill:#c3c1f2;opacity:0.4;"/>
   </g>
   <g id="patch_112">
    <path clip-path="url(#pa6a6614f90)" d="M 84.450889 51235.422611 
L 85.237986 51235.422611 
L 85.237986 51235.422611 
L 84.450889 51235.422611 
z
" style="fill:#c3c1f2;opacity:0.4;"/>
   </g>
   <g id="patch_113">
    <path clip-path="url(#pa6a6614f90)" d="M 85.237986 51235.422611 
L 86.025082 51235.422611 
L 86.025082 51235.422611 
L 85.237986 51235.422611 
z
" style="fill:#c3c1f2;opacity:0.4;"/>
   </g>
   <g id="patch_114">
    <path clip-path="url(#pa6a6614f90)" d="M 86.025082 51235.422611 
L 86.812179 51235.422611 
L 86.812179 51235.422611 
L 86.025082 51235.422611 
z
" style="fill:#c3c1f2;opacity:0.4;"/>
   </g>
   <g id="patch_115">
    <path clip-path="url(#pa6a6614f90)" d="M 86.812179 51235.422611 
L 87.599275 51235.422611 
L 87.599275 51235.422611 
L 86.812179 51235.422611 
z
" style="fill:#c3c1f2;opacity:0.4;"/>
   </g>
   <g id="patch_116">
    <path clip-path="url(#pa6a6614f90)" d="M 87.599275 51235.422611 
L 88.386372 51235.422611 
L 88.386372 51235.422611 
L 87.599275 51235.422611 
z
" style="fill:#c3c1f2;opacity:0.4;"/>
   </g>
   <g id="patch_117">
    <path clip-path="url(#pa6a6614f90)" d="M 88.386372 51235.422611 
L 89.173469 51235.422611 
L 89.173469 51235.422611 
L 88.386372 51235.422611 
z
" style="fill:#c3c1f2;opacity:0.4;"/>
   </g>
   <g id="patch_118">
    <path clip-path="url(#pa6a6614f90)" d="M 89.173469 51235.422611 
L 89.960565 51235.422611 
L 89.960565 51235.422611 
L 89.173469 51235.422611 
z
" style="fill:#c3c1f2;opacity:0.4;"/>
   </g>
   <g id="patch_119">
    <path clip-path="url(#pa6a6614f90)" d="M 89.960565 51235.422611 
L 90.747662 51235.422611 
L 90.747662 51235.422611 
L 89.960565 51235.422611 
z
" style="fill:#c3c1f2;opacity:0.4;"/>
   </g>
   <g id="patch_120">
    <path clip-path="url(#pa6a6614f90)" d="M 90.747662 51235.422611 
L 91.534758 51235.422611 
L 91.534758 51235.422611 
L 90.747662 51235.422611 
z
" style="fill:#c3c1f2;opacity:0.4;"/>
   </g>
   <g id="patch_121">
    <path clip-path="url(#pa6a6614f90)" d="M 91.534758 51235.422611 
L 92.321855 51235.422611 
L 92.321855 51235.422611 
L 91.534758 51235.422611 
z
" style="fill:#c3c1f2;opacity:0.4;"/>
   </g>
   <g id="patch_122">
    <path clip-path="url(#pa6a6614f90)" d="M 92.321855 51235.422611 
L 93.108951 51235.422611 
L 93.108951 51235.422611 
L 92.321855 51235.422611 
z
" style="fill:#c3c1f2;opacity:0.4;"/>
   </g>
   <g id="patch_123">
    <path clip-path="url(#pa6a6614f90)" d="M 93.108951 51235.422611 
L 93.896048 51235.422611 
L 93.896048 51235.422611 
L 93.108951 51235.422611 
z
" style="fill:#c3c1f2;opacity:0.4;"/>
   </g>
   <g id="patch_124">
    <path clip-path="url(#pa6a6614f90)" d="M 93.896048 51235.422611 
L 94.683144 51235.422611 
L 94.683144 51235.422611 
L 93.896048 51235.422611 
z
" style="fill:#c3c1f2;opacity:0.4;"/>
   </g>
   <g id="patch_125">
    <path clip-path="url(#pa6a6614f90)" d="M 94.683144 51235.422611 
L 95.470241 51235.422611 
L 95.470241 51235.422611 
L 94.683144 51235.422611 
z
" style="fill:#c3c1f2;opacity:0.4;"/>
   </g>
   <g id="patch_126">
    <path clip-path="url(#pa6a6614f90)" d="M 95.470241 51235.422611 
L 96.257337 51235.422611 
L 96.257337 51235.422611 
L 95.470241 51235.422611 
z
" style="fill:#c3c1f2;opacity:0.4;"/>
   </g>
   <g id="patch_127">
    <path clip-path="url(#pa6a6614f90)" d="M 96.257337 51235.422611 
L 97.044434 51235.422611 
L 97.044434 51235.422611 
L 96.257337 51235.422611 
z
" style="fill:#c3c1f2;opacity:0.4;"/>
   </g>
   <g id="patch_128">
    <path clip-path="url(#pa6a6614f90)" d="M 97.044434 51235.422611 
L 97.831531 51235.422611 
L 97.831531 51235.422611 
L 97.044434 51235.422611 
z
" style="fill:#c3c1f2;opacity:0.4;"/>
   </g>
   <g id="patch_129">
    <path clip-path="url(#pa6a6614f90)" d="M 97.831531 51235.422611 
L 98.618627 51235.422611 
L 98.618627 51235.422611 
L 97.831531 51235.422611 
z
" style="fill:#c3c1f2;opacity:0.4;"/>
   </g>
   <g id="patch_130">
    <path clip-path="url(#pa6a6614f90)" d="M 98.618627 51235.422611 
L 99.405724 51235.422611 
L 99.405724 51235.422611 
L 98.618627 51235.422611 
z
" style="fill:#c3c1f2;opacity:0.4;"/>
   </g>
   <g id="patch_131">
    <path clip-path="url(#pa6a6614f90)" d="M 99.405724 51235.422611 
L 100.19282 51235.422611 
L 100.19282 51235.422611 
L 99.405724 51235.422611 
z
" style="fill:#c3c1f2;opacity:0.4;"/>
   </g>
   <g id="patch_132">
    <path clip-path="url(#pa6a6614f90)" d="M 100.19282 51235.422611 
L 100.979917 51235.422611 
L 100.979917 51235.422611 
L 100.19282 51235.422611 
z
" style="fill:#c3c1f2;opacity:0.4;"/>
   </g>
   <g id="patch_133">
    <path clip-path="url(#pa6a6614f90)" d="M 100.979917 51235.422611 
L 101.767013 51235.422611 
L 101.767013 51235.422611 
L 100.979917 51235.422611 
z
" style="fill:#c3c1f2;opacity:0.4;"/>
   </g>
   <g id="patch_134">
    <path clip-path="url(#pa6a6614f90)" d="M 101.767013 51235.422611 
L 102.55411 51235.422611 
L 102.55411 51235.422611 
L 101.767013 51235.422611 
z
" style="fill:#c3c1f2;opacity:0.4;"/>
   </g>
   <g id="patch_135">
    <path clip-path="url(#pa6a6614f90)" d="M 102.55411 51235.422611 
L 103.341206 51235.422611 
L 103.341206 51235.422611 
L 102.55411 51235.422611 
z
" style="fill:#c3c1f2;opacity:0.4;"/>
   </g>
   <g id="patch_136">
    <path clip-path="url(#pa6a6614f90)" d="M 103.341206 51235.422611 
L 104.128303 51235.422611 
L 104.128303 51235.422611 
L 103.341206 51235.422611 
z
" style="fill:#c3c1f2;opacity:0.4;"/>
   </g>
   <g id="patch_137">
    <path clip-path="url(#pa6a6614f90)" d="M 104.128303 51235.422611 
L 104.915399 51235.422611 
L 104.915399 51235.422611 
L 104.128303 51235.422611 
z
" style="fill:#c3c1f2;opacity:0.4;"/>
   </g>
   <g id="patch_138">
    <path clip-path="url(#pa6a6614f90)" d="M 104.915399 51235.422611 
L 105.702496 51235.422611 
L 105.702496 180.31551 
L 104.915399 180.31551 
z
" style="fill:#c3c1f2;opacity:0.4;"/>
   </g>
   <g id="patch_139">
    <path clip-path="url(#pa6a6614f90)" d="M 105.702496 51235.422611 
L 106.489593 51235.422611 
L 106.489593 51235.422611 
L 105.702496 51235.422611 
z
" style="fill:#c3c1f2;opacity:0.4;"/>
   </g>
   <g id="patch_140">
    <path clip-path="url(#pa6a6614f90)" d="M 106.489593 51235.422611 
L 107.276689 51235.422611 
L 107.276689 51235.422611 
L 106.489593 51235.422611 
z
" style="fill:#c3c1f2;opacity:0.4;"/>
   </g>
   <g id="patch_141">
    <path clip-path="url(#pa6a6614f90)" d="M 107.276689 51235.422611 
L 108.063786 51235.422611 
L 108.063786 51235.422611 
L 107.276689 51235.422611 
z
" style="fill:#c3c1f2;opacity:0.4;"/>
   </g>
   <g id="patch_142">
    <path clip-path="url(#pa6a6614f90)" d="M 108.063786 51235.422611 
L 108.850882 51235.422611 
L 108.850882 51235.422611 
L 108.063786 51235.422611 
z
" style="fill:#c3c1f2;opacity:0.4;"/>
   </g>
   <g id="patch_143">
    <path clip-path="url(#pa6a6614f90)" d="M 108.850882 51235.422611 
L 109.637979 51235.422611 
L 109.637979 180.31551 
L 108.850882 180.31551 
z
" style="fill:#c3c1f2;opacity:0.4;"/>
   </g>
   <g id="patch_144">
    <path clip-path="url(#pa6a6614f90)" d="M 109.637979 51235.422611 
L 110.425075 51235.422611 
L 110.425075 180.31551 
L 109.637979 180.31551 
z
" style="fill:#c3c1f2;opacity:0.4;"/>
   </g>
   <g id="patch_145">
    <path clip-path="url(#pa6a6614f90)" d="M 110.425075 51235.422611 
L 111.212172 51235.422611 
L 111.212172 51235.422611 
L 110.425075 51235.422611 
z
" style="fill:#c3c1f2;opacity:0.4;"/>
   </g>
   <g id="patch_146">
    <path clip-path="url(#pa6a6614f90)" d="M 111.212172 51235.422611 
L 111.999268 51235.422611 
L 111.999268 51235.422611 
L 111.212172 51235.422611 
z
" style="fill:#c3c1f2;opacity:0.4;"/>
   </g>
   <g id="patch_147">
    <path clip-path="url(#pa6a6614f90)" d="M 111.999268 51235.422611 
L 112.786365 51235.422611 
L 112.786365 51235.422611 
L 111.999268 51235.422611 
z
" style="fill:#c3c1f2;opacity:0.4;"/>
   </g>
   <g id="patch_148">
    <path clip-path="url(#pa6a6614f90)" d="M 112.786365 51235.422611 
L 113.573461 51235.422611 
L 113.573461 51235.422611 
L 112.786365 51235.422611 
z
" style="fill:#c3c1f2;opacity:0.4;"/>
   </g>
   <g id="patch_149">
    <path clip-path="url(#pa6a6614f90)" d="M 113.573461 51235.422611 
L 114.360558 51235.422611 
L 114.360558 180.31551 
L 113.573461 180.31551 
z
" style="fill:#c3c1f2;opacity:0.4;"/>
   </g>
   <g id="patch_150">
    <path clip-path="url(#pa6a6614f90)" d="M 114.360558 51235.422611 
L 115.147655 51235.422611 
L 115.147655 51235.422611 
L 114.360558 51235.422611 
z
" style="fill:#c3c1f2;opacity:0.4;"/>
   </g>
   <g id="patch_151">
    <path clip-path="url(#pa6a6614f90)" d="M 115.147655 51235.422611 
L 115.934751 51235.422611 
L 115.934751 51235.422611 
L 115.147655 51235.422611 
z
" style="fill:#c3c1f2;opacity:0.4;"/>
   </g>
   <g id="patch_152">
    <path clip-path="url(#pa6a6614f90)" d="M 115.934751 51235.422611 
L 116.721848 51235.422611 
L 116.721848 51235.422611 
L 115.934751 51235.422611 
z
" style="fill:#c3c1f2;opacity:0.4;"/>
   </g>
   <g id="patch_153">
    <path clip-path="url(#pa6a6614f90)" d="M 116.721848 51235.422611 
L 117.508944 51235.422611 
L 117.508944 51235.422611 
L 116.721848 51235.422611 
z
" style="fill:#c3c1f2;opacity:0.4;"/>
   </g>
   <g id="patch_154">
    <path clip-path="url(#pa6a6614f90)" d="M 117.508944 51235.422611 
L 118.296041 51235.422611 
L 118.296041 51235.422611 
L 117.508944 51235.422611 
z
" style="fill:#c3c1f2;opacity:0.4;"/>
   </g>
   <g id="patch_155">
    <path clip-path="url(#pa6a6614f90)" d="M 118.296041 51235.422611 
L 119.083137 51235.422611 
L 119.083137 51235.422611 
L 118.296041 51235.422611 
z
" style="fill:#c3c1f2;opacity:0.4;"/>
   </g>
   <g id="patch_156">
    <path clip-path="url(#pa6a6614f90)" d="M 119.083137 51235.422611 
L 119.870234 51235.422611 
L 119.870234 149.6862 
L 119.083137 149.6862 
z
" style="fill:#c3c1f2;opacity:0.4;"/>
   </g>
   <g id="patch_157">
    <path clip-path="url(#pa6a6614f90)" d="M 119.870234 51235.422611 
L 120.65733 51235.422611 
L 120.65733 180.31551 
L 119.870234 180.31551 
z
" style="fill:#c3c1f2;opacity:0.4;"/>
   </g>
   <g id="patch_158">
    <path clip-path="url(#pa6a6614f90)" d="M 120.65733 51235.422611 
L 121.444427 51235.422611 
L 121.444427 51235.422611 
L 120.65733 51235.422611 
z
" style="fill:#c3c1f2;opacity:0.4;"/>
   </g>
   <g id="patch_159">
    <path clip-path="url(#pa6a6614f90)" d="M 121.444427 51235.422611 
L 122.231523 51235.422611 
L 122.231523 180.31551 
L 121.444427 180.31551 
z
" style="fill:#c3c1f2;opacity:0.4;"/>
   </g>
   <g id="patch_160">
    <path clip-path="url(#pa6a6614f90)" d="M 122.231523 51235.422611 
L 123.01862 51235.422611 
L 123.01862 51235.422611 
L 122.231523 51235.422611 
z
" style="fill:#c3c1f2;opacity:0.4;"/>
   </g>
   <g id="patch_161">
    <path clip-path="url(#pa6a6614f90)" d="M 123.01862 51235.422611 
L 123.805717 51235.422611 
L 123.805717 51235.422611 
L 123.01862 51235.422611 
z
" style="fill:#c3c1f2;opacity:0.4;"/>
   </g>
   <g id="patch_162">
    <path clip-path="url(#pa6a6614f90)" d="M 123.805717 51235.422611 
L 124.592813 51235.422611 
L 124.592813 180.31551 
L 123.805717 180.31551 
z
" style="fill:#c3c1f2;opacity:0.4;"/>
   </g>
   <g id="patch_163">
    <path clip-path="url(#pa6a6614f90)" d="M 124.592813 51235.422611 
L 125.37991 51235.422611 
L 125.37991 180.31551 
L 124.592813 180.31551 
z
" style="fill:#c3c1f2;opacity:0.4;"/>
   </g>
   <g id="patch_164">
    <path clip-path="url(#pa6a6614f90)" d="M 125.37991 51235.422611 
L 126.167006 51235.422611 
L 126.167006 51235.422611 
L 125.37991 51235.422611 
z
" style="fill:#c3c1f2;opacity:0.4;"/>
   </g>
   <g id="patch_165">
    <path clip-path="url(#pa6a6614f90)" d="M 126.167006 51235.422611 
L 126.954103 51235.422611 
L 126.954103 165.000855 
L 126.167006 165.000855 
z
" style="fill:#c3c1f2;opacity:0.4;"/>
   </g>
   <g id="patch_166">
    <path clip-path="url(#pa6a6614f90)" d="M 126.954103 51235.422611 
L 127.741199 51235.422611 
L 127.741199 51235.422611 
L 126.954103 51235.422611 
z
" style="fill:#c3c1f2;opacity:0.4;"/>
   </g>
   <g id="patch_167">
    <path clip-path="url(#pa6a6614f90)" d="M 127.741199 51235.422611 
L 128.528296 51235.422611 
L 128.528296 51235.422611 
L 127.741199 51235.422611 
z
" style="fill:#c3c1f2;opacity:0.4;"/>
   </g>
   <g id="patch_168">
    <path clip-path="url(#pa6a6614f90)" d="M 128.528296 51235.422611 
L 129.315392 51235.422611 
L 129.315392 180.31551 
L 128.528296 180.31551 
z
" style="fill:#c3c1f2;opacity:0.4;"/>
   </g>
   <g id="patch_169">
    <path clip-path="url(#pa6a6614f90)" d="M 129.315392 51235.422611 
L 130.102489 51235.422611 
L 130.102489 180.31551 
L 129.315392 180.31551 
z
" style="fill:#c3c1f2;opacity:0.4;"/>
   </g>
   <g id="patch_170">
    <path clip-path="url(#pa6a6614f90)" d="M 130.102489 51235.422611 
L 130.889585 51235.422611 
L 130.889585 165.000855 
L 130.102489 165.000855 
z
" style="fill:#c3c1f2;opacity:0.4;"/>
   </g>
   <g id="patch_171">
    <path clip-path="url(#pa6a6614f90)" d="M 130.889585 51235.422611 
L 131.676682 51235.422611 
L 131.676682 180.31551 
L 130.889585 180.31551 
z
" style="fill:#c3c1f2;opacity:0.4;"/>
   </g>
   <g id="patch_172">
    <path clip-path="url(#pa6a6614f90)" d="M 131.676682 51235.422611 
L 132.463779 51235.422611 
L 132.463779 156.042356 
L 131.676682 156.042356 
z
" style="fill:#c3c1f2;opacity:0.4;"/>
   </g>
   <g id="patch_173">
    <path clip-path="url(#pa6a6614f90)" d="M 132.463779 51235.422611 
L 133.250875 51235.422611 
L 133.250875 165.000855 
L 132.463779 165.000855 
z
" style="fill:#c3c1f2;opacity:0.4;"/>
   </g>
   <g id="patch_174">
    <path clip-path="url(#pa6a6614f90)" d="M 133.250875 51235.422611 
L 134.037972 51235.422611 
L 134.037972 180.31551 
L 133.250875 180.31551 
z
" style="fill:#c3c1f2;opacity:0.4;"/>
   </g>
   <g id="patch_175">
    <path clip-path="url(#pa6a6614f90)" d="M 134.037972 51235.422611 
L 134.825068 51235.422611 
L 134.825068 180.31551 
L 134.037972 180.31551 
z
" style="fill:#c3c1f2;opacity:0.4;"/>
   </g>
   <g id="patch_176">
    <path clip-path="url(#pa6a6614f90)" d="M 134.825068 51235.422611 
L 135.612165 51235.422611 
L 135.612165 51235.422611 
L 134.825068 51235.422611 
z
" style="fill:#c3c1f2;opacity:0.4;"/>
   </g>
   <g id="patch_177">
    <path clip-path="url(#pa6a6614f90)" d="M 135.612165 51235.422611 
L 136.399261 51235.422611 
L 136.399261 180.31551 
L 135.612165 180.31551 
z
" style="fill:#c3c1f2;opacity:0.4;"/>
   </g>
   <g id="patch_178">
    <path clip-path="url(#pa6a6614f90)" d="M 136.399261 51235.422611 
L 137.186358 51235.422611 
L 137.186358 51235.422611 
L 136.399261 51235.422611 
z
" style="fill:#c3c1f2;opacity:0.4;"/>
   </g>
   <g id="patch_179">
    <path clip-path="url(#pa6a6614f90)" d="M 137.186358 51235.422611 
L 137.973454 51235.422611 
L 137.973454 180.31551 
L 137.186358 180.31551 
z
" style="fill:#c3c1f2;opacity:0.4;"/>
   </g>
   <g id="patch_180">
    <path clip-path="url(#pa6a6614f90)" d="M 137.973454 51235.422611 
L 138.760551 51235.422611 
L 138.760551 110.098391 
L 137.973454 110.098391 
z
" style="fill:#c3c1f2;opacity:0.4;"/>
   </g>
   <g id="patch_181">
    <path clip-path="url(#pa6a6614f90)" d="M 138.760551 51235.422611 
L 139.547648 51235.422611 
L 139.547648 140.727701 
L 138.760551 140.727701 
z
" style="fill:#c3c1f2;opacity:0.4;"/>
   </g>
   <g id="patch_182">
    <path clip-path="url(#pa6a6614f90)" d="M 139.547648 51235.422611 
L 140.334744 51235.422611 
L 140.334744 165.000855 
L 139.547648 165.000855 
z
" style="fill:#c3c1f2;opacity:0.4;"/>
   </g>
   <g id="patch_183">
    <path clip-path="url(#pa6a6614f90)" d="M 140.334744 51235.422611 
L 141.121841 51235.422611 
L 141.121841 140.727701 
L 140.334744 140.727701 
z
" style="fill:#c3c1f2;opacity:0.4;"/>
   </g>
   <g id="patch_184">
    <path clip-path="url(#pa6a6614f90)" d="M 141.121841 51235.422611 
L 141.908937 51235.422611 
L 141.908937 156.042356 
L 141.121841 156.042356 
z
" style="fill:#c3c1f2;opacity:0.4;"/>
   </g>
   <g id="patch_185">
    <path clip-path="url(#pa6a6614f90)" d="M 141.908937 51235.422611 
L 142.696034 51235.422611 
L 142.696034 144.755982 
L 141.908937 144.755982 
z
" style="fill:#c3c1f2;opacity:0.4;"/>
   </g>
   <g id="patch_186">
    <path clip-path="url(#pa6a6614f90)" d="M 142.696034 51235.422611 
L 143.48313 51235.422611 
L 143.48313 144.755982 
L 142.696034 144.755982 
z
" style="fill:#c3c1f2;opacity:0.4;"/>
   </g>
   <g id="patch_187">
    <path clip-path="url(#pa6a6614f90)" d="M 143.48313 51235.422611 
L 144.270227 51235.422611 
L 144.270227 144.755982 
L 143.48313 144.755982 
z
" style="fill:#c3c1f2;opacity:0.4;"/>
   </g>
   <g id="patch_188">
    <path clip-path="url(#pa6a6614f90)" d="M 144.270227 51235.422611 
L 145.057323 51235.422611 
L 145.057323 144.755982 
L 144.270227 144.755982 
z
" style="fill:#c3c1f2;opacity:0.4;"/>
   </g>
   <g id="patch_189">
    <path clip-path="url(#pa6a6614f90)" d="M 145.057323 51235.422611 
L 145.84442 51235.422611 
L 145.84442 144.755982 
L 145.057323 144.755982 
z
" style="fill:#c3c1f2;opacity:0.4;"/>
   </g>
   <g id="patch_190">
    <path clip-path="url(#pa6a6614f90)" d="M 145.84442 51235.422611 
L 146.631516 51235.422611 
L 146.631516 179.460759 
L 145.84442 179.460759 
z
" style="fill:#c3c1f2;opacity:0.4;"/>
   </g>
   <g id="patch_191">
    <path clip-path="url(#pa6a6614f90)" d="M 146.631516 51235.422611 
L 147.418613 51235.422611 
L 147.418613 155.448939 
L 146.631516 155.448939 
z
" style="fill:#c3c1f2;opacity:0.4;"/>
   </g>
   <g id="patch_192">
    <path clip-path="url(#pa6a6614f90)" d="M 147.418613 51235.422611 
L 148.20571 51235.422611 
L 148.20571 112.779701 
L 147.418613 112.779701 
z
" style="fill:#c3c1f2;opacity:0.4;"/>
   </g>
   <g id="patch_193">
    <path clip-path="url(#pa6a6614f90)" d="M 148.20571 51235.422611 
L 148.992806 51235.422611 
L 148.992806 136.898068 
L 148.20571 136.898068 
z
" style="fill:#c3c1f2;opacity:0.4;"/>
   </g>
   <g id="patch_194">
    <path clip-path="url(#pa6a6614f90)" d="M 148.992806 51235.422611 
L 149.779903 51235.422611 
L 149.779903 125.072001 
L 148.992806 125.072001 
z
" style="fill:#c3c1f2;opacity:0.4;"/>
   </g>
   <g id="patch_195">
    <path clip-path="url(#pa6a6614f90)" d="M 149.779903 51235.422611 
L 150.566999 51235.422611 
L 150.566999 124.193283 
L 149.779903 124.193283 
z
" style="fill:#c3c1f2;opacity:0.4;"/>
   </g>
   <g id="patch_196">
    <path clip-path="url(#pa6a6614f90)" d="M 150.566999 51235.422611 
L 151.354096 51235.422611 
L 151.354096 138.249361 
L 150.566999 138.249361 
z
" style="fill:#c3c1f2;opacity:0.4;"/>
   </g>
   <g id="patch_197">
    <path clip-path="url(#pa6a6614f90)" d="M 151.354096 51235.422611 
L 152.141192 51235.422611 
L 152.141192 118.368084 
L 151.354096 118.368084 
z
" style="fill:#c3c1f2;opacity:0.4;"/>
   </g>
   <g id="patch_198">
    <path clip-path="url(#pa6a6614f90)" d="M 152.141192 51235.422611 
L 152.928289 51235.422611 
L 152.928289 106.556828 
L 152.141192 106.556828 
z
" style="fill:#c3c1f2;opacity:0.4;"/>
   </g>
   <g id="patch_199">
    <path clip-path="url(#pa6a6614f90)" d="M 152.928289 51235.422611 
L 153.715385 51235.422611 
L 153.715385 109.519168 
L 152.928289 109.519168 
z
" style="fill:#c3c1f2;opacity:0.4;"/>
   </g>
   <g id="patch_200">
    <path clip-path="url(#pa6a6614f90)" d="M 153.715385 51235.422611 
L 154.502482 51235.422611 
L 154.502482 113.912295 
L 153.715385 113.912295 
z
" style="fill:#c3c1f2;opacity:0.4;"/>
   </g>
   <g id="patch_201">
    <path clip-path="url(#pa6a6614f90)" d="M 154.502482 51235.422611 
L 155.289578 51235.422611 
L 155.289578 90.624784 
L 154.502482 90.624784 
z
" style="fill:#c3c1f2;opacity:0.4;"/>
   </g>
   <g id="patch_202">
    <path clip-path="url(#pa6a6614f90)" d="M 155.289578 51235.422611 
L 156.076675 51235.422611 
L 156.076675 95.674753 
L 155.289578 95.674753 
z
" style="fill:#c3c1f2;opacity:0.4;"/>
   </g>
   <g id="patch_203">
    <path clip-path="url(#pa6a6614f90)" d="M 156.076675 51235.422611 
L 156.863772 51235.422611 
L 156.863772 73.468474 
L 156.076675 73.468474 
z
" style="fill:#c3c1f2;opacity:0.4;"/>
   </g>
   <g id="matplotlib.axis_1">
    <g id="xtick_1">
     <g id="line2d_1">
      <defs>
       <path d="M 0 0 
L 0 3.5 
" id="m38916909d5" style="stroke:#000000;stroke-width:0.8;"/>
      </defs>
      <g>
       <use style="stroke:#000000;stroke-width:0.8;" x="81.629451" xlink:href="#m38916909d5" y="236.88"/>
      </g>
     </g>
    </g>
    <g id="xtick_2">
     <g id="line2d_2">
      <g>
       <use style="stroke:#000000;stroke-width:0.8;" x="119.34089" xlink:href="#m38916909d5" y="236.88"/>
      </g>
     </g>
    </g>
    <g id="xtick_3">
     <g id="line2d_3">
      <g>
       <use style="stroke:#000000;stroke-width:0.8;" x="157.052329" xlink:href="#m38916909d5" y="236.88"/>
      </g>
     </g>
    </g>
    <g id="xtick_4">
     <g id="line2d_4">
      <g>
       <use style="stroke:#000000;stroke-width:0.8;" x="194.763768" xlink:href="#m38916909d5" y="236.88"/>
      </g>
     </g>
    </g>
    <g id="xtick_5">
     <g id="line2d_5">
      <g>
       <use style="stroke:#000000;stroke-width:0.8;" x="232.475207" xlink:href="#m38916909d5" y="236.88"/>
      </g>
     </g>
    </g>
   </g>
   <g id="matplotlib.axis_2">
    <g id="ytick_1">
     <g id="line2d_6">
      <defs>
       <path d="M 0 0 
L -3.5 0 
" id="m5f6b802368" style="stroke:#000000;stroke-width:0.8;"/>
      </defs>
      <g>
       <use style="stroke:#000000;stroke-width:0.8;" x="63" xlink:href="#m5f6b802368" y="208.616945"/>
      </g>
     </g>
     <g id="text_1">
      <!-- $\mathdefault{10^{3}}$ -->
      <defs>
       <path d="M 12.40625 8.296875 
L 28.515625 8.296875 
L 28.515625 63.921875 
L 10.984375 60.40625 
L 10.984375 69.390625 
L 28.421875 72.90625 
L 38.28125 72.90625 
L 38.28125 8.296875 
L 54.390625 8.296875 
L 54.390625 0 
L 12.40625 0 
z
" id="DejaVuSans-31"/>
       <path d="M 31.78125 66.40625 
Q 24.171875 66.40625 20.328125 58.90625 
Q 16.5 51.421875 16.5 36.375 
Q 16.5 21.390625 20.328125 13.890625 
Q 24.171875 6.390625 31.78125 6.390625 
Q 39.453125 6.390625 43.28125 13.890625 
Q 47.125 21.390625 47.125 36.375 
Q 47.125 51.421875 43.28125 58.90625 
Q 39.453125 66.40625 31.78125 66.40625 
z
M 31.78125 74.21875 
Q 44.046875 74.21875 50.515625 64.515625 
Q 56.984375 54.828125 56.984375 36.375 
Q 56.984375 17.96875 50.515625 8.265625 
Q 44.046875 -1.421875 31.78125 -1.421875 
Q 19.53125 -1.421875 13.0625 8.265625 
Q 6.59375 17.96875 6.59375 36.375 
Q 6.59375 54.828125 13.0625 64.515625 
Q 19.53125 74.21875 31.78125 74.21875 
z
" id="DejaVuSans-30"/>
       <path d="M 40.578125 39.3125 
Q 47.65625 37.796875 51.625 33 
Q 55.609375 28.21875 55.609375 21.1875 
Q 55.609375 10.40625 48.1875 4.484375 
Q 40.765625 -1.421875 27.09375 -1.421875 
Q 22.515625 -1.421875 17.65625 -0.515625 
Q 12.796875 0.390625 7.625 2.203125 
L 7.625 11.71875 
Q 11.71875 9.328125 16.59375 8.109375 
Q 21.484375 6.890625 26.8125 6.890625 
Q 36.078125 6.890625 40.9375 10.546875 
Q 45.796875 14.203125 45.796875 21.1875 
Q 45.796875 27.640625 41.28125 31.265625 
Q 36.765625 34.90625 28.71875 34.90625 
L 20.21875 34.90625 
L 20.21875 43.015625 
L 29.109375 43.015625 
Q 36.375 43.015625 40.234375 45.921875 
Q 44.09375 48.828125 44.09375 54.296875 
Q 44.09375 59.90625 40.109375 62.90625 
Q 36.140625 65.921875 28.71875 65.921875 
Q 24.65625 65.921875 20.015625 65.03125 
Q 15.375 64.15625 9.8125 62.3125 
L 9.8125 71.09375 
Q 15.4375 72.65625 20.34375 73.4375 
Q 25.25 74.21875 29.59375 74.21875 
Q 40.828125 74.21875 47.359375 69.109375 
Q 53.90625 64.015625 53.90625 55.328125 
Q 53.90625 49.265625 50.4375 45.09375 
Q 46.96875 40.921875 40.578125 39.3125 
z
" id="DejaVuSans-33"/>
      </defs>
      <g transform="translate(38.4 212.416164)scale(0.1 -0.1)">
       <use transform="translate(0 0.765625)" xlink:href="#DejaVuSans-31"/>
       <use transform="translate(63.623047 0.765625)" xlink:href="#DejaVuSans-30"/>
       <use transform="translate(128.203125 39.046875)scale(0.7)" xlink:href="#DejaVuSans-33"/>
      </g>
     </g>
    </g>
    <g id="ytick_2">
     <g id="line2d_7">
      <g>
       <use style="stroke:#000000;stroke-width:0.8;" x="63" xlink:href="#m5f6b802368" y="157.742762"/>
      </g>
     </g>
     <g id="text_2">
      <!-- $\mathdefault{10^{4}}$ -->
      <defs>
       <path d="M 37.796875 64.3125 
L 12.890625 25.390625 
L 37.796875 25.390625 
z
M 35.203125 72.90625 
L 47.609375 72.90625 
L 47.609375 25.390625 
L 58.015625 25.390625 
L 58.015625 17.1875 
L 47.609375 17.1875 
L 47.609375 0 
L 37.796875 0 
L 37.796875 17.1875 
L 4.890625 17.1875 
L 4.890625 26.703125 
z
" id="DejaVuSans-34"/>
      </defs>
      <g transform="translate(38.4 161.541981)scale(0.1 -0.1)">
       <use transform="translate(0 0.684375)" xlink:href="#DejaVuSans-31"/>
       <use transform="translate(63.623047 0.684375)" xlink:href="#DejaVuSans-30"/>
       <use transform="translate(128.203125 38.965625)scale(0.7)" xlink:href="#DejaVuSans-34"/>
      </g>
     </g>
    </g>
    <g id="ytick_3">
     <g id="line2d_8">
      <g>
       <use style="stroke:#000000;stroke-width:0.8;" x="63" xlink:href="#m5f6b802368" y="106.868579"/>
      </g>
     </g>
     <g id="text_3">
      <!-- $\mathdefault{10^{5}}$ -->
      <defs>
       <path d="M 10.796875 72.90625 
L 49.515625 72.90625 
L 49.515625 64.59375 
L 19.828125 64.59375 
L 19.828125 46.734375 
Q 21.96875 47.46875 24.109375 47.828125 
Q 26.265625 48.1875 28.421875 48.1875 
Q 40.625 48.1875 47.75 41.5 
Q 54.890625 34.8125 54.890625 23.390625 
Q 54.890625 11.625 47.5625 5.09375 
Q 40.234375 -1.421875 26.90625 -1.421875 
Q 22.3125 -1.421875 17.546875 -0.640625 
Q 12.796875 0.140625 7.71875 1.703125 
L 7.71875 11.625 
Q 12.109375 9.234375 16.796875 8.0625 
Q 21.484375 6.890625 26.703125 6.890625 
Q 35.15625 6.890625 40.078125 11.328125 
Q 45.015625 15.765625 45.015625 23.390625 
Q 45.015625 31 40.078125 35.4375 
Q 35.15625 39.890625 26.703125 39.890625 
Q 22.75 39.890625 18.8125 39.015625 
Q 14.890625 38.140625 10.796875 36.28125 
z
" id="DejaVuSans-35"/>
      </defs>
      <g transform="translate(38.4 110.667798)scale(0.1 -0.1)">
       <use transform="translate(0 0.684375)" xlink:href="#DejaVuSans-31"/>
       <use transform="translate(63.623047 0.684375)" xlink:href="#DejaVuSans-30"/>
       <use transform="translate(128.203125 38.965625)scale(0.7)" xlink:href="#DejaVuSans-35"/>
      </g>
     </g>
    </g>
    <g id="ytick_4">
     <g id="line2d_9">
      <defs>
       <path d="M 0 0 
L -2 0 
" id="m98ae08b9ce" style="stroke:#000000;stroke-width:0.6;"/>
      </defs>
      <g>
       <use style="stroke:#000000;stroke-width:0.6;" x="63" xlink:href="#m98ae08b9ce" y="235.217974"/>
      </g>
     </g>
    </g>
    <g id="ytick_5">
     <g id="line2d_10">
      <g>
       <use style="stroke:#000000;stroke-width:0.6;" x="63" xlink:href="#m98ae08b9ce" y="228.861818"/>
      </g>
     </g>
    </g>
    <g id="ytick_6">
     <g id="line2d_11">
      <g>
       <use style="stroke:#000000;stroke-width:0.6;" x="63" xlink:href="#m98ae08b9ce" y="223.9316"/>
      </g>
     </g>
    </g>
    <g id="ytick_7">
     <g id="line2d_12">
      <g>
       <use style="stroke:#000000;stroke-width:0.6;" x="63" xlink:href="#m98ae08b9ce" y="219.903319"/>
      </g>
     </g>
    </g>
    <g id="ytick_8">
     <g id="line2d_13">
      <g>
       <use style="stroke:#000000;stroke-width:0.6;" x="63" xlink:href="#m98ae08b9ce" y="216.497456"/>
      </g>
     </g>
    </g>
    <g id="ytick_9">
     <g id="line2d_14">
      <g>
       <use style="stroke:#000000;stroke-width:0.6;" x="63" xlink:href="#m98ae08b9ce" y="213.547163"/>
      </g>
     </g>
    </g>
    <g id="ytick_10">
     <g id="line2d_15">
      <g>
       <use style="stroke:#000000;stroke-width:0.6;" x="63" xlink:href="#m98ae08b9ce" y="210.94482"/>
      </g>
     </g>
    </g>
    <g id="ytick_11">
     <g id="line2d_16">
      <g>
       <use style="stroke:#000000;stroke-width:0.6;" x="63" xlink:href="#m98ae08b9ce" y="193.30229"/>
      </g>
     </g>
    </g>
    <g id="ytick_12">
     <g id="line2d_17">
      <g>
       <use style="stroke:#000000;stroke-width:0.6;" x="63" xlink:href="#m98ae08b9ce" y="184.343791"/>
      </g>
     </g>
    </g>
    <g id="ytick_13">
     <g id="line2d_18">
      <g>
       <use style="stroke:#000000;stroke-width:0.6;" x="63" xlink:href="#m98ae08b9ce" y="177.987635"/>
      </g>
     </g>
    </g>
    <g id="ytick_14">
     <g id="line2d_19">
      <g>
       <use style="stroke:#000000;stroke-width:0.6;" x="63" xlink:href="#m98ae08b9ce" y="173.057417"/>
      </g>
     </g>
    </g>
    <g id="ytick_15">
     <g id="line2d_20">
      <g>
       <use style="stroke:#000000;stroke-width:0.6;" x="63" xlink:href="#m98ae08b9ce" y="169.029136"/>
      </g>
     </g>
    </g>
    <g id="ytick_16">
     <g id="line2d_21">
      <g>
       <use style="stroke:#000000;stroke-width:0.6;" x="63" xlink:href="#m98ae08b9ce" y="165.623273"/>
      </g>
     </g>
    </g>
    <g id="ytick_17">
     <g id="line2d_22">
      <g>
       <use style="stroke:#000000;stroke-width:0.6;" x="63" xlink:href="#m98ae08b9ce" y="162.67298"/>
      </g>
     </g>
    </g>
    <g id="ytick_18">
     <g id="line2d_23">
      <g>
       <use style="stroke:#000000;stroke-width:0.6;" x="63" xlink:href="#m98ae08b9ce" y="160.070637"/>
      </g>
     </g>
    </g>
    <g id="ytick_19">
     <g id="line2d_24">
      <g>
       <use style="stroke:#000000;stroke-width:0.6;" x="63" xlink:href="#m98ae08b9ce" y="142.428107"/>
      </g>
     </g>
    </g>
    <g id="ytick_20">
     <g id="line2d_25">
      <g>
       <use style="stroke:#000000;stroke-width:0.6;" x="63" xlink:href="#m98ae08b9ce" y="133.469608"/>
      </g>
     </g>
    </g>
    <g id="ytick_21">
     <g id="line2d_26">
      <g>
       <use style="stroke:#000000;stroke-width:0.6;" x="63" xlink:href="#m98ae08b9ce" y="127.113452"/>
      </g>
     </g>
    </g>
    <g id="ytick_22">
     <g id="line2d_27">
      <g>
       <use style="stroke:#000000;stroke-width:0.6;" x="63" xlink:href="#m98ae08b9ce" y="122.183234"/>
      </g>
     </g>
    </g>
    <g id="ytick_23">
     <g id="line2d_28">
      <g>
       <use style="stroke:#000000;stroke-width:0.6;" x="63" xlink:href="#m98ae08b9ce" y="118.154953"/>
      </g>
     </g>
    </g>
    <g id="ytick_24">
     <g id="line2d_29">
      <g>
       <use style="stroke:#000000;stroke-width:0.6;" x="63" xlink:href="#m98ae08b9ce" y="114.74909"/>
      </g>
     </g>
    </g>
    <g id="ytick_25">
     <g id="line2d_30">
      <g>
       <use style="stroke:#000000;stroke-width:0.6;" x="63" xlink:href="#m98ae08b9ce" y="111.798797"/>
      </g>
     </g>
    </g>
    <g id="ytick_26">
     <g id="line2d_31">
      <g>
       <use style="stroke:#000000;stroke-width:0.6;" x="63" xlink:href="#m98ae08b9ce" y="109.196454"/>
      </g>
     </g>
    </g>
    <g id="ytick_27">
     <g id="line2d_32">
      <g>
       <use style="stroke:#000000;stroke-width:0.6;" x="63" xlink:href="#m98ae08b9ce" y="91.553924"/>
      </g>
     </g>
    </g>
    <g id="ytick_28">
     <g id="line2d_33">
      <g>
       <use style="stroke:#000000;stroke-width:0.6;" x="63" xlink:href="#m98ae08b9ce" y="82.595425"/>
      </g>
     </g>
    </g>
    <g id="ytick_29">
     <g id="line2d_34">
      <g>
       <use style="stroke:#000000;stroke-width:0.6;" x="63" xlink:href="#m98ae08b9ce" y="76.239269"/>
      </g>
     </g>
    </g>
    <g id="ytick_30">
     <g id="line2d_35">
      <g>
       <use style="stroke:#000000;stroke-width:0.6;" x="63" xlink:href="#m98ae08b9ce" y="71.309051"/>
      </g>
     </g>
    </g>
    <g id="ytick_31">
     <g id="line2d_36">
      <g>
       <use style="stroke:#000000;stroke-width:0.6;" x="63" xlink:href="#m98ae08b9ce" y="67.28077"/>
      </g>
     </g>
    </g>
    <g id="ytick_32">
     <g id="line2d_37">
      <g>
       <use style="stroke:#000000;stroke-width:0.6;" x="63" xlink:href="#m98ae08b9ce" y="63.874907"/>
      </g>
     </g>
    </g>
    <g id="ytick_33">
     <g id="line2d_38">
      <g>
       <use style="stroke:#000000;stroke-width:0.6;" x="63" xlink:href="#m98ae08b9ce" y="60.924614"/>
      </g>
     </g>
    </g>
   </g>
   <g id="patch_204">
    <path d="M 63 236.88 
L 63 60.48 
" style="fill:none;stroke:#000000;stroke-linecap:square;stroke-linejoin:miter;stroke-width:0.8;"/>
   </g>
   <g id="patch_205">
    <path d="M 240.545455 236.88 
L 240.545455 60.48 
" style="fill:none;stroke:#000000;stroke-linecap:square;stroke-linejoin:miter;stroke-width:0.8;"/>
   </g>
   <g id="patch_206">
    <path d="M 63 236.88 
L 240.545455 236.88 
" style="fill:none;stroke:#000000;stroke-linecap:square;stroke-linejoin:miter;stroke-width:0.8;"/>
   </g>
   <g id="patch_207">
    <path d="M 63 60.48 
L 240.545455 60.48 
" style="fill:none;stroke:#000000;stroke-linecap:square;stroke-linejoin:miter;stroke-width:0.8;"/>
   </g>
  </g>
  <g id="axes_2">
   <g id="patch_208">
    <path d="M 276.054545 236.88 
L 453.6 236.88 
L 453.6 60.48 
L 276.054545 60.48 
z
" style="fill:#ffffff;"/>
   </g>
   <g id="patch_209">
    <path clip-path="url(#p065db67887)" d="M 368.598417 45911.159059 
L 368.715322 45911.159059 
L 368.715322 228.861818 
L 368.598417 228.861818 
z
" style="fill:#c17a70;opacity:0.4;"/>
   </g>
   <g id="patch_210">
    <path clip-path="url(#p065db67887)" d="M 368.715322 45911.159059 
L 368.832228 45911.159059 
L 368.832228 45911.159059 
L 368.715322 45911.159059 
z
" style="fill:#c17a70;opacity:0.4;"/>
   </g>
   <g id="patch_211">
    <path clip-path="url(#p065db67887)" d="M 368.832228 45911.159059 
L 368.949133 45911.159059 
L 368.949133 45911.159059 
L 368.832228 45911.159059 
z
" style="fill:#c17a70;opacity:0.4;"/>
   </g>
   <g id="patch_212">
    <path clip-path="url(#p065db67887)" d="M 368.949133 45911.159059 
L 369.066038 45911.159059 
L 369.066038 228.861818 
L 368.949133 228.861818 
z
" style="fill:#c17a70;opacity:0.4;"/>
   </g>
   <g id="patch_213">
    <path clip-path="url(#p065db67887)" d="M 369.066038 45911.159059 
L 369.182944 45911.159059 
L 369.182944 228.861818 
L 369.066038 228.861818 
z
" style="fill:#c17a70;opacity:0.4;"/>
   </g>
   <g id="patch_214">
    <path clip-path="url(#p065db67887)" d="M 369.182944 45911.159059 
L 369.299849 45911.159059 
L 369.299849 45911.159059 
L 369.182944 45911.159059 
z
" style="fill:#c17a70;opacity:0.4;"/>
   </g>
   <g id="patch_215">
    <path clip-path="url(#p065db67887)" d="M 369.299849 45911.159059 
L 369.416755 45911.159059 
L 369.416755 196.931263 
L 369.299849 196.931263 
z
" style="fill:#c17a70;opacity:0.4;"/>
   </g>
   <g id="patch_216">
    <path clip-path="url(#p065db67887)" d="M 369.416755 45911.159059 
L 369.53366 45911.159059 
L 369.53366 45911.159059 
L 369.416755 45911.159059 
z
" style="fill:#c17a70;opacity:0.4;"/>
   </g>
   <g id="patch_217">
    <path clip-path="url(#p065db67887)" d="M 369.53366 45911.159059 
L 369.650566 45911.159059 
L 369.650566 196.931263 
L 369.53366 196.931263 
z
" style="fill:#c17a70;opacity:0.4;"/>
   </g>
   <g id="patch_218">
    <path clip-path="url(#p065db67887)" d="M 369.650566 45911.159059 
L 369.767471 45911.159059 
L 369.767471 153.785125 
L 369.650566 153.785125 
z
" style="fill:#c17a70;opacity:0.4;"/>
   </g>
   <g id="patch_219">
    <path clip-path="url(#p065db67887)" d="M 369.767471 45911.159059 
L 369.884377 45911.159059 
L 369.884377 45911.159059 
L 369.767471 45911.159059 
z
" style="fill:#c17a70;opacity:0.4;"/>
   </g>
   <g id="patch_220">
    <path clip-path="url(#p065db67887)" d="M 369.884377 45911.159059 
L 370.001282 45911.159059 
L 370.001282 128.048943 
L 369.884377 128.048943 
z
" style="fill:#c17a70;opacity:0.4;"/>
   </g>
   <g id="patch_221">
    <path clip-path="url(#p065db67887)" d="M 370.001282 45911.159059 
L 370.118188 45911.159059 
L 370.118188 68.498182 
L 370.001282 68.498182 
z
" style="fill:#c17a70;opacity:0.4;"/>
   </g>
   <g id="patch_222">
    <path clip-path="url(#p065db67887)" d="M 370.118188 45911.159059 
L 370.235093 45911.159059 
L 370.235093 45911.159059 
L 370.118188 45911.159059 
z
" style="fill:#c17a70;opacity:0.4;"/>
   </g>
   <g id="patch_223">
    <path clip-path="url(#p065db67887)" d="M 370.235093 45911.159059 
L 370.351999 45911.159059 
L 370.351999 143.740949 
L 370.235093 143.740949 
z
" style="fill:#c17a70;opacity:0.4;"/>
   </g>
   <g id="patch_224">
    <path clip-path="url(#p065db67887)" d="M 370.351999 45911.159059 
L 370.468904 45911.159059 
L 370.468904 45911.159059 
L 370.351999 45911.159059 
z
" style="fill:#c17a70;opacity:0.4;"/>
   </g>
   <g id="patch_225">
    <path clip-path="url(#p065db67887)" d="M 370.468904 45911.159059 
L 370.585809 45911.159059 
L 370.585809 170.445416 
L 370.468904 170.445416 
z
" style="fill:#c17a70;opacity:0.4;"/>
   </g>
   <g id="patch_226">
    <path clip-path="url(#p065db67887)" d="M 370.585809 45911.159059 
L 370.702715 45911.159059 
L 370.702715 173.854851 
L 370.585809 173.854851 
z
" style="fill:#c17a70;opacity:0.4;"/>
   </g>
   <g id="patch_227">
    <path clip-path="url(#p065db67887)" d="M 370.702715 45911.159059 
L 370.81962 45911.159059 
L 370.81962 45911.159059 
L 370.702715 45911.159059 
z
" style="fill:#c17a70;opacity:0.4;"/>
   </g>
   <g id="patch_228">
    <path clip-path="url(#p065db67887)" d="M 370.81962 45911.159059 
L 370.936526 45911.159059 
L 370.936526 177.974327 
L 370.81962 177.974327 
z
" style="fill:#c17a70;opacity:0.4;"/>
   </g>
   <g id="patch_229">
    <path clip-path="url(#p065db67887)" d="M 370.936526 45911.159059 
L 371.053431 45911.159059 
L 371.053431 193.314081 
L 370.936526 193.314081 
z
" style="fill:#c17a70;opacity:0.4;"/>
   </g>
   <g id="patch_230">
    <path clip-path="url(#p065db67887)" d="M 371.053431 45911.159059 
L 371.170337 45911.159059 
L 371.170337 45911.159059 
L 371.053431 45911.159059 
z
" style="fill:#c17a70;opacity:0.4;"/>
   </g>
   <g id="patch_231">
    <path clip-path="url(#p065db67887)" d="M 371.170337 45911.159059 
L 371.287242 45911.159059 
L 371.287242 196.931263 
L 371.170337 196.931263 
z
" style="fill:#c17a70;opacity:0.4;"/>
   </g>
   <g id="patch_232">
    <path clip-path="url(#p065db67887)" d="M 371.287242 45911.159059 
L 371.404148 45911.159059 
L 371.404148 45911.159059 
L 371.287242 45911.159059 
z
" style="fill:#c17a70;opacity:0.4;"/>
   </g>
   <g id="patch_233">
    <path clip-path="url(#p065db67887)" d="M 371.404148 45911.159059 
L 371.521053 45911.159059 
L 371.521053 201.358335 
L 371.404148 201.358335 
z
" style="fill:#c17a70;opacity:0.4;"/>
   </g>
   <g id="patch_234">
    <path clip-path="url(#p065db67887)" d="M 371.521053 45911.159059 
L 371.637959 45911.159059 
L 371.637959 228.861818 
L 371.521053 228.861818 
z
" style="fill:#c17a70;opacity:0.4;"/>
   </g>
   <g id="patch_235">
    <path clip-path="url(#p065db67887)" d="M 371.637959 45911.159059 
L 371.754864 45911.159059 
L 371.754864 45911.159059 
L 371.637959 45911.159059 
z
" style="fill:#c17a70;opacity:0.4;"/>
   </g>
   <g id="patch_236">
    <path clip-path="url(#p065db67887)" d="M 371.754864 45911.159059 
L 371.87177 45911.159059 
L 371.87177 215.110076 
L 371.754864 215.110076 
z
" style="fill:#c17a70;opacity:0.4;"/>
   </g>
   <g id="patch_237">
    <path clip-path="url(#p065db67887)" d="M 371.87177 45911.159059 
L 371.988675 45911.159059 
L 371.988675 45911.159059 
L 371.87177 45911.159059 
z
" style="fill:#c17a70;opacity:0.4;"/>
   </g>
   <g id="patch_238">
    <path clip-path="url(#p065db67887)" d="M 371.988675 45911.159059 
L 372.10558 45911.159059 
L 372.10558 45911.159059 
L 371.988675 45911.159059 
z
" style="fill:#c17a70;opacity:0.4;"/>
   </g>
   <g id="patch_239">
    <path clip-path="url(#p065db67887)" d="M 372.10558 45911.159059 
L 372.222486 45911.159059 
L 372.222486 45911.159059 
L 372.10558 45911.159059 
z
" style="fill:#c17a70;opacity:0.4;"/>
   </g>
   <g id="patch_240">
    <path clip-path="url(#p065db67887)" d="M 372.222486 45911.159059 
L 372.339391 45911.159059 
L 372.339391 45911.159059 
L 372.222486 45911.159059 
z
" style="fill:#c17a70;opacity:0.4;"/>
   </g>
   <g id="patch_241">
    <path clip-path="url(#p065db67887)" d="M 372.339391 45911.159059 
L 372.456297 45911.159059 
L 372.456297 45911.159059 
L 372.339391 45911.159059 
z
" style="fill:#c17a70;opacity:0.4;"/>
   </g>
   <g id="patch_242">
    <path clip-path="url(#p065db67887)" d="M 372.456297 45911.159059 
L 372.573202 45911.159059 
L 372.573202 45911.159059 
L 372.456297 45911.159059 
z
" style="fill:#c17a70;opacity:0.4;"/>
   </g>
   <g id="patch_243">
    <path clip-path="url(#p065db67887)" d="M 372.573202 45911.159059 
L 372.690108 45911.159059 
L 372.690108 45911.159059 
L 372.573202 45911.159059 
z
" style="fill:#c17a70;opacity:0.4;"/>
   </g>
   <g id="patch_244">
    <path clip-path="url(#p065db67887)" d="M 372.690108 45911.159059 
L 372.807013 45911.159059 
L 372.807013 228.861818 
L 372.690108 228.861818 
z
" style="fill:#c17a70;opacity:0.4;"/>
   </g>
   <g id="patch_245">
    <path clip-path="url(#p065db67887)" d="M 372.807013 45911.159059 
L 372.923919 45911.159059 
L 372.923919 45911.159059 
L 372.807013 45911.159059 
z
" style="fill:#c17a70;opacity:0.4;"/>
   </g>
   <g id="patch_246">
    <path clip-path="url(#p065db67887)" d="M 372.923919 45911.159059 
L 373.040824 45911.159059 
L 373.040824 45911.159059 
L 372.923919 45911.159059 
z
" style="fill:#c17a70;opacity:0.4;"/>
   </g>
   <g id="patch_247">
    <path clip-path="url(#p065db67887)" d="M 373.040824 45911.159059 
L 373.15773 45911.159059 
L 373.15773 45911.159059 
L 373.040824 45911.159059 
z
" style="fill:#c17a70;opacity:0.4;"/>
   </g>
   <g id="patch_248">
    <path clip-path="url(#p065db67887)" d="M 373.15773 45911.159059 
L 373.274635 45911.159059 
L 373.274635 45911.159059 
L 373.15773 45911.159059 
z
" style="fill:#c17a70;opacity:0.4;"/>
   </g>
   <g id="patch_249">
    <path clip-path="url(#p065db67887)" d="M 373.274635 45911.159059 
L 373.391541 45911.159059 
L 373.391541 228.861818 
L 373.274635 228.861818 
z
" style="fill:#c17a70;opacity:0.4;"/>
   </g>
   <g id="patch_250">
    <path clip-path="url(#p065db67887)" d="M 373.391541 45911.159059 
L 373.508446 45911.159059 
L 373.508446 45911.159059 
L 373.391541 45911.159059 
z
" style="fill:#c17a70;opacity:0.4;"/>
   </g>
   <g id="patch_251">
    <path clip-path="url(#p065db67887)" d="M 373.508446 45911.159059 
L 373.625351 45911.159059 
L 373.625351 45911.159059 
L 373.508446 45911.159059 
z
" style="fill:#c17a70;opacity:0.4;"/>
   </g>
   <g id="patch_252">
    <path clip-path="url(#p065db67887)" d="M 373.625351 45911.159059 
L 373.742257 45911.159059 
L 373.742257 45911.159059 
L 373.625351 45911.159059 
z
" style="fill:#c17a70;opacity:0.4;"/>
   </g>
   <g id="patch_253">
    <path clip-path="url(#p065db67887)" d="M 373.742257 45911.159059 
L 373.859162 45911.159059 
L 373.859162 45911.159059 
L 373.742257 45911.159059 
z
" style="fill:#c17a70;opacity:0.4;"/>
   </g>
   <g id="patch_254">
    <path clip-path="url(#p065db67887)" d="M 373.859162 45911.159059 
L 373.976068 45911.159059 
L 373.976068 45911.159059 
L 373.859162 45911.159059 
z
" style="fill:#c17a70;opacity:0.4;"/>
   </g>
   <g id="patch_255">
    <path clip-path="url(#p065db67887)" d="M 373.976068 45911.159059 
L 374.092973 45911.159059 
L 374.092973 45911.159059 
L 373.976068 45911.159059 
z
" style="fill:#c17a70;opacity:0.4;"/>
   </g>
   <g id="patch_256">
    <path clip-path="url(#p065db67887)" d="M 374.092973 45911.159059 
L 374.209879 45911.159059 
L 374.209879 45911.159059 
L 374.092973 45911.159059 
z
" style="fill:#c17a70;opacity:0.4;"/>
   </g>
   <g id="patch_257">
    <path clip-path="url(#p065db67887)" d="M 374.209879 45911.159059 
L 374.326784 45911.159059 
L 374.326784 45911.159059 
L 374.209879 45911.159059 
z
" style="fill:#c17a70;opacity:0.4;"/>
   </g>
   <g id="patch_258">
    <path clip-path="url(#p065db67887)" d="M 374.326784 45911.159059 
L 374.44369 45911.159059 
L 374.44369 228.861818 
L 374.326784 228.861818 
z
" style="fill:#c17a70;opacity:0.4;"/>
   </g>
   <g id="matplotlib.axis_3">
    <g id="xtick_6">
     <g id="line2d_39">
      <g>
       <use style="stroke:#000000;stroke-width:0.8;" x="294.683996" xlink:href="#m38916909d5" y="236.88"/>
      </g>
     </g>
    </g>
    <g id="xtick_7">
     <g id="line2d_40">
      <g>
       <use style="stroke:#000000;stroke-width:0.8;" x="332.395435" xlink:href="#m38916909d5" y="236.88"/>
      </g>
     </g>
    </g>
    <g id="xtick_8">
     <g id="line2d_41">
      <g>
       <use style="stroke:#000000;stroke-width:0.8;" x="370.106874" xlink:href="#m38916909d5" y="236.88"/>
      </g>
     </g>
    </g>
    <g id="xtick_9">
     <g id="line2d_42">
      <g>
       <use style="stroke:#000000;stroke-width:0.8;" x="407.818313" xlink:href="#m38916909d5" y="236.88"/>
      </g>
     </g>
    </g>
    <g id="xtick_10">
     <g id="line2d_43">
      <g>
       <use style="stroke:#000000;stroke-width:0.8;" x="445.529752" xlink:href="#m38916909d5" y="236.88"/>
      </g>
     </g>
    </g>
   </g>
   <g id="matplotlib.axis_4">
    <g id="ytick_34">
     <g id="line2d_44">
      <g>
       <use style="stroke:#000000;stroke-width:0.8;" x="276.054545" xlink:href="#m5f6b802368" y="228.861818"/>
      </g>
     </g>
     <g id="text_4">
      <!-- $\mathdefault{10^{0}}$ -->
      <g transform="translate(251.454545 232.661037)scale(0.1 -0.1)">
       <use transform="translate(0 0.765625)" xlink:href="#DejaVuSans-31"/>
       <use transform="translate(63.623047 0.765625)" xlink:href="#DejaVuSans-30"/>
       <use transform="translate(128.203125 39.046875)scale(0.7)" xlink:href="#DejaVuSans-30"/>
      </g>
     </g>
    </g>
    <g id="ytick_35">
     <g id="line2d_45">
      <g>
       <use style="stroke:#000000;stroke-width:0.8;" x="276.054545" xlink:href="#m5f6b802368" y="183.179521"/>
      </g>
     </g>
     <g id="text_5">
      <!-- $\mathdefault{10^{1}}$ -->
      <g transform="translate(251.454545 186.97874)scale(0.1 -0.1)">
       <use transform="translate(0 0.684375)" xlink:href="#DejaVuSans-31"/>
       <use transform="translate(63.623047 0.684375)" xlink:href="#DejaVuSans-30"/>
       <use transform="translate(128.203125 38.965625)scale(0.7)" xlink:href="#DejaVuSans-31"/>
      </g>
     </g>
    </g>
    <g id="ytick_36">
     <g id="line2d_46">
      <g>
       <use style="stroke:#000000;stroke-width:0.8;" x="276.054545" xlink:href="#m5f6b802368" y="137.497224"/>
      </g>
     </g>
     <g id="text_6">
      <!-- $\mathdefault{10^{2}}$ -->
      <defs>
       <path d="M 19.1875 8.296875 
L 53.609375 8.296875 
L 53.609375 0 
L 7.328125 0 
L 7.328125 8.296875 
Q 12.9375 14.109375 22.625 23.890625 
Q 32.328125 33.6875 34.8125 36.53125 
Q 39.546875 41.84375 41.421875 45.53125 
Q 43.3125 49.21875 43.3125 52.78125 
Q 43.3125 58.59375 39.234375 62.25 
Q 35.15625 65.921875 28.609375 65.921875 
Q 23.96875 65.921875 18.8125 64.3125 
Q 13.671875 62.703125 7.8125 59.421875 
L 7.8125 69.390625 
Q 13.765625 71.78125 18.9375 73 
Q 24.125 74.21875 28.421875 74.21875 
Q 39.75 74.21875 46.484375 68.546875 
Q 53.21875 62.890625 53.21875 53.421875 
Q 53.21875 48.921875 51.53125 44.890625 
Q 49.859375 40.875 45.40625 35.40625 
Q 44.1875 33.984375 37.640625 27.21875 
Q 31.109375 20.453125 19.1875 8.296875 
z
" id="DejaVuSans-32"/>
      </defs>
      <g transform="translate(251.454545 141.296442)scale(0.1 -0.1)">
       <use transform="translate(0 0.765625)" xlink:href="#DejaVuSans-31"/>
       <use transform="translate(63.623047 0.765625)" xlink:href="#DejaVuSans-30"/>
       <use transform="translate(128.203125 39.046875)scale(0.7)" xlink:href="#DejaVuSans-32"/>
      </g>
     </g>
    </g>
    <g id="ytick_37">
     <g id="line2d_47">
      <g>
       <use style="stroke:#000000;stroke-width:0.8;" x="276.054545" xlink:href="#m5f6b802368" y="91.814926"/>
      </g>
     </g>
     <g id="text_7">
      <!-- $\mathdefault{10^{3}}$ -->
      <g transform="translate(251.454545 95.614145)scale(0.1 -0.1)">
       <use transform="translate(0 0.765625)" xlink:href="#DejaVuSans-31"/>
       <use transform="translate(63.623047 0.765625)" xlink:href="#DejaVuSans-30"/>
       <use transform="translate(128.203125 39.046875)scale(0.7)" xlink:href="#DejaVuSans-33"/>
      </g>
     </g>
    </g>
    <g id="ytick_38">
     <g id="line2d_48">
      <g>
       <use style="stroke:#000000;stroke-width:0.6;" x="276.054545" xlink:href="#m98ae08b9ce" y="235.938096"/>
      </g>
     </g>
    </g>
    <g id="ytick_39">
     <g id="line2d_49">
      <g>
       <use style="stroke:#000000;stroke-width:0.6;" x="276.054545" xlink:href="#m98ae08b9ce" y="233.28889"/>
      </g>
     </g>
    </g>
    <g id="ytick_40">
     <g id="line2d_50">
      <g>
       <use style="stroke:#000000;stroke-width:0.6;" x="276.054545" xlink:href="#m98ae08b9ce" y="230.952125"/>
      </g>
     </g>
    </g>
    <g id="ytick_41">
     <g id="line2d_51">
      <g>
       <use style="stroke:#000000;stroke-width:0.6;" x="276.054545" xlink:href="#m98ae08b9ce" y="215.110076"/>
      </g>
     </g>
    </g>
    <g id="ytick_42">
     <g id="line2d_52">
      <g>
       <use style="stroke:#000000;stroke-width:0.6;" x="276.054545" xlink:href="#m98ae08b9ce" y="207.065823"/>
      </g>
     </g>
    </g>
    <g id="ytick_43">
     <g id="line2d_53">
      <g>
       <use style="stroke:#000000;stroke-width:0.6;" x="276.054545" xlink:href="#m98ae08b9ce" y="201.358335"/>
      </g>
     </g>
    </g>
    <g id="ytick_44">
     <g id="line2d_54">
      <g>
       <use style="stroke:#000000;stroke-width:0.6;" x="276.054545" xlink:href="#m98ae08b9ce" y="196.931263"/>
      </g>
     </g>
    </g>
    <g id="ytick_45">
     <g id="line2d_55">
      <g>
       <use style="stroke:#000000;stroke-width:0.6;" x="276.054545" xlink:href="#m98ae08b9ce" y="193.314081"/>
      </g>
     </g>
    </g>
    <g id="ytick_46">
     <g id="line2d_56">
      <g>
       <use style="stroke:#000000;stroke-width:0.6;" x="276.054545" xlink:href="#m98ae08b9ce" y="190.255798"/>
      </g>
     </g>
    </g>
    <g id="ytick_47">
     <g id="line2d_57">
      <g>
       <use style="stroke:#000000;stroke-width:0.6;" x="276.054545" xlink:href="#m98ae08b9ce" y="187.606593"/>
      </g>
     </g>
    </g>
    <g id="ytick_48">
     <g id="line2d_58">
      <g>
       <use style="stroke:#000000;stroke-width:0.6;" x="276.054545" xlink:href="#m98ae08b9ce" y="185.269828"/>
      </g>
     </g>
    </g>
    <g id="ytick_49">
     <g id="line2d_59">
      <g>
       <use style="stroke:#000000;stroke-width:0.6;" x="276.054545" xlink:href="#m98ae08b9ce" y="169.427779"/>
      </g>
     </g>
    </g>
    <g id="ytick_50">
     <g id="line2d_60">
      <g>
       <use style="stroke:#000000;stroke-width:0.6;" x="276.054545" xlink:href="#m98ae08b9ce" y="161.383526"/>
      </g>
     </g>
    </g>
    <g id="ytick_51">
     <g id="line2d_61">
      <g>
       <use style="stroke:#000000;stroke-width:0.6;" x="276.054545" xlink:href="#m98ae08b9ce" y="155.676037"/>
      </g>
     </g>
    </g>
    <g id="ytick_52">
     <g id="line2d_62">
      <g>
       <use style="stroke:#000000;stroke-width:0.6;" x="276.054545" xlink:href="#m98ae08b9ce" y="151.248965"/>
      </g>
     </g>
    </g>
    <g id="ytick_53">
     <g id="line2d_63">
      <g>
       <use style="stroke:#000000;stroke-width:0.6;" x="276.054545" xlink:href="#m98ae08b9ce" y="147.631784"/>
      </g>
     </g>
    </g>
    <g id="ytick_54">
     <g id="line2d_64">
      <g>
       <use style="stroke:#000000;stroke-width:0.6;" x="276.054545" xlink:href="#m98ae08b9ce" y="144.573501"/>
      </g>
     </g>
    </g>
    <g id="ytick_55">
     <g id="line2d_65">
      <g>
       <use style="stroke:#000000;stroke-width:0.6;" x="276.054545" xlink:href="#m98ae08b9ce" y="141.924296"/>
      </g>
     </g>
    </g>
    <g id="ytick_56">
     <g id="line2d_66">
      <g>
       <use style="stroke:#000000;stroke-width:0.6;" x="276.054545" xlink:href="#m98ae08b9ce" y="139.587531"/>
      </g>
     </g>
    </g>
    <g id="ytick_57">
     <g id="line2d_67">
      <g>
       <use style="stroke:#000000;stroke-width:0.6;" x="276.054545" xlink:href="#m98ae08b9ce" y="123.745482"/>
      </g>
     </g>
    </g>
    <g id="ytick_58">
     <g id="line2d_68">
      <g>
       <use style="stroke:#000000;stroke-width:0.6;" x="276.054545" xlink:href="#m98ae08b9ce" y="115.701229"/>
      </g>
     </g>
    </g>
    <g id="ytick_59">
     <g id="line2d_69">
      <g>
       <use style="stroke:#000000;stroke-width:0.6;" x="276.054545" xlink:href="#m98ae08b9ce" y="109.99374"/>
      </g>
     </g>
    </g>
    <g id="ytick_60">
     <g id="line2d_70">
      <g>
       <use style="stroke:#000000;stroke-width:0.6;" x="276.054545" xlink:href="#m98ae08b9ce" y="105.566668"/>
      </g>
     </g>
    </g>
    <g id="ytick_61">
     <g id="line2d_71">
      <g>
       <use style="stroke:#000000;stroke-width:0.6;" x="276.054545" xlink:href="#m98ae08b9ce" y="101.949487"/>
      </g>
     </g>
    </g>
    <g id="ytick_62">
     <g id="line2d_72">
      <g>
       <use style="stroke:#000000;stroke-width:0.6;" x="276.054545" xlink:href="#m98ae08b9ce" y="98.891204"/>
      </g>
     </g>
    </g>
    <g id="ytick_63">
     <g id="line2d_73">
      <g>
       <use style="stroke:#000000;stroke-width:0.6;" x="276.054545" xlink:href="#m98ae08b9ce" y="96.241998"/>
      </g>
     </g>
    </g>
    <g id="ytick_64">
     <g id="line2d_74">
      <g>
       <use style="stroke:#000000;stroke-width:0.6;" x="276.054545" xlink:href="#m98ae08b9ce" y="93.905234"/>
      </g>
     </g>
    </g>
    <g id="ytick_65">
     <g id="line2d_75">
      <g>
       <use style="stroke:#000000;stroke-width:0.6;" x="276.054545" xlink:href="#m98ae08b9ce" y="78.063185"/>
      </g>
     </g>
    </g>
    <g id="ytick_66">
     <g id="line2d_76">
      <g>
       <use style="stroke:#000000;stroke-width:0.6;" x="276.054545" xlink:href="#m98ae08b9ce" y="70.018931"/>
      </g>
     </g>
    </g>
    <g id="ytick_67">
     <g id="line2d_77">
      <g>
       <use style="stroke:#000000;stroke-width:0.6;" x="276.054545" xlink:href="#m98ae08b9ce" y="64.311443"/>
      </g>
     </g>
    </g>
   </g>
   <g id="patch_259">
    <path d="M 276.054545 236.88 
L 276.054545 60.48 
" style="fill:none;stroke:#000000;stroke-linecap:square;stroke-linejoin:miter;stroke-width:0.8;"/>
   </g>
   <g id="patch_260">
    <path d="M 453.6 236.88 
L 453.6 60.48 
" style="fill:none;stroke:#000000;stroke-linecap:square;stroke-linejoin:miter;stroke-width:0.8;"/>
   </g>
   <g id="patch_261">
    <path d="M 276.054545 236.88 
L 453.6 236.88 
" style="fill:none;stroke:#000000;stroke-linecap:square;stroke-linejoin:miter;stroke-width:0.8;"/>
   </g>
   <g id="patch_262">
    <path d="M 276.054545 60.48 
L 453.6 60.48 
" style="fill:none;stroke:#000000;stroke-linecap:square;stroke-linejoin:miter;stroke-width:0.8;"/>
   </g>
  </g>
  <g id="axes_3">
   <g id="patch_263">
    <path d="M 63 448.56 
L 240.545455 448.56 
L 240.545455 272.16 
L 63 272.16 
z
" style="fill:#ffffff;"/>
   </g>
   <g id="matplotlib.axis_5">
    <g id="xtick_11">
     <g id="line2d_78">
      <g>
       <use style="stroke:#000000;stroke-width:0.8;" x="81.629451" xlink:href="#m38916909d5" y="448.56"/>
      </g>
     </g>
     <g id="text_8">
      <!-- 4 -->
      <defs>
       <path d="M 10.59375 35.5 
L 73.1875 35.5 
L 73.1875 27.203125 
L 10.59375 27.203125 
z
" id="DejaVuSans-2212"/>
      </defs>
      <g transform="translate(74.258357 463.158437)scale(0.1 -0.1)">
       <use xlink:href="#DejaVuSans-2212"/>
       <use x="83.789062" xlink:href="#DejaVuSans-34"/>
      </g>
     </g>
    </g>
    <g id="xtick_12">
     <g id="line2d_79">
      <g>
       <use style="stroke:#000000;stroke-width:0.8;" x="119.34089" xlink:href="#m38916909d5" y="448.56"/>
      </g>
     </g>
     <g id="text_9">
      <!-- 2 -->
      <g transform="translate(111.969796 463.158437)scale(0.1 -0.1)">
       <use xlink:href="#DejaVuSans-2212"/>
       <use x="83.789062" xlink:href="#DejaVuSans-32"/>
      </g>
     </g>
    </g>
    <g id="xtick_13">
     <g id="line2d_80">
      <g>
       <use style="stroke:#000000;stroke-width:0.8;" x="157.052329" xlink:href="#m38916909d5" y="448.56"/>
      </g>
     </g>
     <g id="text_10">
      <!-- 0 -->
      <g transform="translate(153.871079 463.158437)scale(0.1 -0.1)">
       <use xlink:href="#DejaVuSans-30"/>
      </g>
     </g>
    </g>
    <g id="xtick_14">
     <g id="line2d_81">
      <g>
       <use style="stroke:#000000;stroke-width:0.8;" x="194.763768" xlink:href="#m38916909d5" y="448.56"/>
      </g>
     </g>
     <g id="text_11">
      <!-- 2 -->
      <g transform="translate(191.582518 463.158437)scale(0.1 -0.1)">
       <use xlink:href="#DejaVuSans-32"/>
      </g>
     </g>
    </g>
    <g id="xtick_15">
     <g id="line2d_82">
      <g>
       <use style="stroke:#000000;stroke-width:0.8;" x="232.475207" xlink:href="#m38916909d5" y="448.56"/>
      </g>
     </g>
     <g id="text_12">
      <!-- 4 -->
      <g transform="translate(229.293957 463.158437)scale(0.1 -0.1)">
       <use xlink:href="#DejaVuSans-34"/>
      </g>
     </g>
    </g>
   </g>
   <g id="matplotlib.axis_6">
    <g id="ytick_68">
     <g id="line2d_83">
      <g>
       <use style="stroke:#000000;stroke-width:0.8;" x="63" xlink:href="#m5f6b802368" y="448.56"/>
      </g>
     </g>
     <g id="text_13">
      <!-- 0.0 -->
      <defs>
       <path d="M 10.6875 12.40625 
L 21 12.40625 
L 21 0 
L 10.6875 0 
z
" id="DejaVuSans-2e"/>
      </defs>
      <g transform="translate(40.096875 452.359219)scale(0.1 -0.1)">
       <use xlink:href="#DejaVuSans-30"/>
       <use x="63.623047" xlink:href="#DejaVuSans-2e"/>
       <use x="95.410156" xlink:href="#DejaVuSans-30"/>
      </g>
     </g>
    </g>
    <g id="ytick_69">
     <g id="line2d_84">
      <g>
       <use style="stroke:#000000;stroke-width:0.8;" x="63" xlink:href="#m5f6b802368" y="413.28"/>
      </g>
     </g>
     <g id="text_14">
      <!-- 0.2 -->
      <g transform="translate(40.096875 417.079219)scale(0.1 -0.1)">
       <use xlink:href="#DejaVuSans-30"/>
       <use x="63.623047" xlink:href="#DejaVuSans-2e"/>
       <use x="95.410156" xlink:href="#DejaVuSans-32"/>
      </g>
     </g>
    </g>
    <g id="ytick_70">
     <g id="line2d_85">
      <g>
       <use style="stroke:#000000;stroke-width:0.8;" x="63" xlink:href="#m5f6b802368" y="378"/>
      </g>
     </g>
     <g id="text_15">
      <!-- 0.4 -->
      <g transform="translate(40.096875 381.799219)scale(0.1 -0.1)">
       <use xlink:href="#DejaVuSans-30"/>
       <use x="63.623047" xlink:href="#DejaVuSans-2e"/>
       <use x="95.410156" xlink:href="#DejaVuSans-34"/>
      </g>
     </g>
    </g>
    <g id="ytick_71">
     <g id="line2d_86">
      <g>
       <use style="stroke:#000000;stroke-width:0.8;" x="63" xlink:href="#m5f6b802368" y="342.72"/>
      </g>
     </g>
     <g id="text_16">
      <!-- 0.6 -->
      <defs>
       <path d="M 33.015625 40.375 
Q 26.375 40.375 22.484375 35.828125 
Q 18.609375 31.296875 18.609375 23.390625 
Q 18.609375 15.53125 22.484375 10.953125 
Q 26.375 6.390625 33.015625 6.390625 
Q 39.65625 6.390625 43.53125 10.953125 
Q 47.40625 15.53125 47.40625 23.390625 
Q 47.40625 31.296875 43.53125 35.828125 
Q 39.65625 40.375 33.015625 40.375 
z
M 52.59375 71.296875 
L 52.59375 62.3125 
Q 48.875 64.0625 45.09375 64.984375 
Q 41.3125 65.921875 37.59375 65.921875 
Q 27.828125 65.921875 22.671875 59.328125 
Q 17.53125 52.734375 16.796875 39.40625 
Q 19.671875 43.65625 24.015625 45.921875 
Q 28.375 48.1875 33.59375 48.1875 
Q 44.578125 48.1875 50.953125 41.515625 
Q 57.328125 34.859375 57.328125 23.390625 
Q 57.328125 12.15625 50.6875 5.359375 
Q 44.046875 -1.421875 33.015625 -1.421875 
Q 20.359375 -1.421875 13.671875 8.265625 
Q 6.984375 17.96875 6.984375 36.375 
Q 6.984375 53.65625 15.1875 63.9375 
Q 23.390625 74.21875 37.203125 74.21875 
Q 40.921875 74.21875 44.703125 73.484375 
Q 48.484375 72.75 52.59375 71.296875 
z
" id="DejaVuSans-36"/>
      </defs>
      <g transform="translate(40.096875 346.519219)scale(0.1 -0.1)">
       <use xlink:href="#DejaVuSans-30"/>
       <use x="63.623047" xlink:href="#DejaVuSans-2e"/>
       <use x="95.410156" xlink:href="#DejaVuSans-36"/>
      </g>
     </g>
    </g>
    <g id="ytick_72">
     <g id="line2d_87">
      <g>
       <use style="stroke:#000000;stroke-width:0.8;" x="63" xlink:href="#m5f6b802368" y="307.44"/>
      </g>
     </g>
     <g id="text_17">
      <!-- 0.8 -->
      <defs>
       <path d="M 31.78125 34.625 
Q 24.75 34.625 20.71875 30.859375 
Q 16.703125 27.09375 16.703125 20.515625 
Q 16.703125 13.921875 20.71875 10.15625 
Q 24.75 6.390625 31.78125 6.390625 
Q 38.8125 6.390625 42.859375 10.171875 
Q 46.921875 13.96875 46.921875 20.515625 
Q 46.921875 27.09375 42.890625 30.859375 
Q 38.875 34.625 31.78125 34.625 
z
M 21.921875 38.8125 
Q 15.578125 40.375 12.03125 44.71875 
Q 8.5 49.078125 8.5 55.328125 
Q 8.5 64.0625 14.71875 69.140625 
Q 20.953125 74.21875 31.78125 74.21875 
Q 42.671875 74.21875 48.875 69.140625 
Q 55.078125 64.0625 55.078125 55.328125 
Q 55.078125 49.078125 51.53125 44.71875 
Q 48 40.375 41.703125 38.8125 
Q 48.828125 37.15625 52.796875 32.3125 
Q 56.78125 27.484375 56.78125 20.515625 
Q 56.78125 9.90625 50.3125 4.234375 
Q 43.84375 -1.421875 31.78125 -1.421875 
Q 19.734375 -1.421875 13.25 4.234375 
Q 6.78125 9.90625 6.78125 20.515625 
Q 6.78125 27.484375 10.78125 32.3125 
Q 14.796875 37.15625 21.921875 38.8125 
z
M 18.3125 54.390625 
Q 18.3125 48.734375 21.84375 45.5625 
Q 25.390625 42.390625 31.78125 42.390625 
Q 38.140625 42.390625 41.71875 45.5625 
Q 45.3125 48.734375 45.3125 54.390625 
Q 45.3125 60.0625 41.71875 63.234375 
Q 38.140625 66.40625 31.78125 66.40625 
Q 25.390625 66.40625 21.84375 63.234375 
Q 18.3125 60.0625 18.3125 54.390625 
z
" id="DejaVuSans-38"/>
      </defs>
      <g transform="translate(40.096875 311.239219)scale(0.1 -0.1)">
       <use xlink:href="#DejaVuSans-30"/>
       <use x="63.623047" xlink:href="#DejaVuSans-2e"/>
       <use x="95.410156" xlink:href="#DejaVuSans-38"/>
      </g>
     </g>
    </g>
    <g id="ytick_73">
     <g id="line2d_88">
      <g>
       <use style="stroke:#000000;stroke-width:0.8;" x="63" xlink:href="#m5f6b802368" y="272.16"/>
      </g>
     </g>
     <g id="text_18">
      <!-- 1.0 -->
      <g transform="translate(40.096875 275.959219)scale(0.1 -0.1)">
       <use xlink:href="#DejaVuSans-31"/>
       <use x="63.623047" xlink:href="#DejaVuSans-2e"/>
       <use x="95.410156" xlink:href="#DejaVuSans-30"/>
      </g>
     </g>
    </g>
   </g>
   <g id="patch_264">
    <path d="M 63 448.56 
L 63 272.16 
" style="fill:none;stroke:#000000;stroke-linecap:square;stroke-linejoin:miter;stroke-width:0.8;"/>
   </g>
   <g id="patch_265">
    <path d="M 240.545455 448.56 
L 240.545455 272.16 
" style="fill:none;stroke:#000000;stroke-linecap:square;stroke-linejoin:miter;stroke-width:0.8;"/>
   </g>
   <g id="patch_266">
    <path d="M 63 448.56 
L 240.545455 448.56 
" style="fill:none;stroke:#000000;stroke-linecap:square;stroke-linejoin:miter;stroke-width:0.8;"/>
   </g>
   <g id="patch_267">
    <path d="M 63 272.16 
L 240.545455 272.16 
" style="fill:none;stroke:#000000;stroke-linecap:square;stroke-linejoin:miter;stroke-width:0.8;"/>
   </g>
  </g>
  <g id="axes_4">
   <g id="patch_268">
    <path d="M 276.054545 448.56 
L 453.6 448.56 
L 453.6 272.16 
L 276.054545 272.16 
z
" style="fill:#ffffff;"/>
   </g>
   <g id="matplotlib.axis_7">
    <g id="xtick_16">
     <g id="line2d_89">
      <g>
       <use style="stroke:#000000;stroke-width:0.8;" x="294.683996" xlink:href="#m38916909d5" y="448.56"/>
      </g>
     </g>
     <g id="text_19">
      <!-- 4 -->
      <g transform="translate(287.312903 463.158437)scale(0.1 -0.1)">
       <use xlink:href="#DejaVuSans-2212"/>
       <use x="83.789062" xlink:href="#DejaVuSans-34"/>
      </g>
     </g>
    </g>
    <g id="xtick_17">
     <g id="line2d_90">
      <g>
       <use style="stroke:#000000;stroke-width:0.8;" x="332.395435" xlink:href="#m38916909d5" y="448.56"/>
      </g>
     </g>
     <g id="text_20">
      <!-- 2 -->
      <g transform="translate(325.024341 463.158437)scale(0.1 -0.1)">
       <use xlink:href="#DejaVuSans-2212"/>
       <use x="83.789062" xlink:href="#DejaVuSans-32"/>
      </g>
     </g>
    </g>
    <g id="xtick_18">
     <g id="line2d_91">
      <g>
       <use style="stroke:#000000;stroke-width:0.8;" x="370.106874" xlink:href="#m38916909d5" y="448.56"/>
      </g>
     </g>
     <g id="text_21">
      <!-- 0 -->
      <g transform="translate(366.925624 463.158437)scale(0.1 -0.1)">
       <use xlink:href="#DejaVuSans-30"/>
      </g>
     </g>
    </g>
    <g id="xtick_19">
     <g id="line2d_92">
      <g>
       <use style="stroke:#000000;stroke-width:0.8;" x="407.818313" xlink:href="#m38916909d5" y="448.56"/>
      </g>
     </g>
     <g id="text_22">
      <!-- 2 -->
      <g transform="translate(404.637063 463.158437)scale(0.1 -0.1)">
       <use xlink:href="#DejaVuSans-32"/>
      </g>
     </g>
    </g>
    <g id="xtick_20">
     <g id="line2d_93">
      <g>
       <use style="stroke:#000000;stroke-width:0.8;" x="445.529752" xlink:href="#m38916909d5" y="448.56"/>
      </g>
     </g>
     <g id="text_23">
      <!-- 4 -->
      <g transform="translate(442.348502 463.158437)scale(0.1 -0.1)">
       <use xlink:href="#DejaVuSans-34"/>
      </g>
     </g>
    </g>
   </g>
   <g id="matplotlib.axis_8">
    <g id="ytick_74">
     <g id="line2d_94">
      <g>
       <use style="stroke:#000000;stroke-width:0.8;" x="276.054545" xlink:href="#m5f6b802368" y="448.56"/>
      </g>
     </g>
     <g id="text_24">
      <!-- 0.0 -->
      <g transform="translate(253.15142 452.359219)scale(0.1 -0.1)">
       <use xlink:href="#DejaVuSans-30"/>
       <use x="63.623047" xlink:href="#DejaVuSans-2e"/>
       <use x="95.410156" xlink:href="#DejaVuSans-30"/>
      </g>
     </g>
    </g>
    <g id="ytick_75">
     <g id="line2d_95">
      <g>
       <use style="stroke:#000000;stroke-width:0.8;" x="276.054545" xlink:href="#m5f6b802368" y="413.28"/>
      </g>
     </g>
     <g id="text_25">
      <!-- 0.2 -->
      <g transform="translate(253.15142 417.079219)scale(0.1 -0.1)">
       <use xlink:href="#DejaVuSans-30"/>
       <use x="63.623047" xlink:href="#DejaVuSans-2e"/>
       <use x="95.410156" xlink:href="#DejaVuSans-32"/>
      </g>
     </g>
    </g>
    <g id="ytick_76">
     <g id="line2d_96">
      <g>
       <use style="stroke:#000000;stroke-width:0.8;" x="276.054545" xlink:href="#m5f6b802368" y="378"/>
      </g>
     </g>
     <g id="text_26">
      <!-- 0.4 -->
      <g transform="translate(253.15142 381.799219)scale(0.1 -0.1)">
       <use xlink:href="#DejaVuSans-30"/>
       <use x="63.623047" xlink:href="#DejaVuSans-2e"/>
       <use x="95.410156" xlink:href="#DejaVuSans-34"/>
      </g>
     </g>
    </g>
    <g id="ytick_77">
     <g id="line2d_97">
      <g>
       <use style="stroke:#000000;stroke-width:0.8;" x="276.054545" xlink:href="#m5f6b802368" y="342.72"/>
      </g>
     </g>
     <g id="text_27">
      <!-- 0.6 -->
      <g transform="translate(253.15142 346.519219)scale(0.1 -0.1)">
       <use xlink:href="#DejaVuSans-30"/>
       <use x="63.623047" xlink:href="#DejaVuSans-2e"/>
       <use x="95.410156" xlink:href="#DejaVuSans-36"/>
      </g>
     </g>
    </g>
    <g id="ytick_78">
     <g id="line2d_98">
      <g>
       <use style="stroke:#000000;stroke-width:0.8;" x="276.054545" xlink:href="#m5f6b802368" y="307.44"/>
      </g>
     </g>
     <g id="text_28">
      <!-- 0.8 -->
      <g transform="translate(253.15142 311.239219)scale(0.1 -0.1)">
       <use xlink:href="#DejaVuSans-30"/>
       <use x="63.623047" xlink:href="#DejaVuSans-2e"/>
       <use x="95.410156" xlink:href="#DejaVuSans-38"/>
      </g>
     </g>
    </g>
    <g id="ytick_79">
     <g id="line2d_99">
      <g>
       <use style="stroke:#000000;stroke-width:0.8;" x="276.054545" xlink:href="#m5f6b802368" y="272.16"/>
      </g>
     </g>
     <g id="text_29">
      <!-- 1.0 -->
      <g transform="translate(253.15142 275.959219)scale(0.1 -0.1)">
       <use xlink:href="#DejaVuSans-31"/>
       <use x="63.623047" xlink:href="#DejaVuSans-2e"/>
       <use x="95.410156" xlink:href="#DejaVuSans-30"/>
      </g>
     </g>
    </g>
   </g>
   <g id="patch_269">
    <path d="M 276.054545 448.56 
L 276.054545 272.16 
" style="fill:none;stroke:#000000;stroke-linecap:square;stroke-linejoin:miter;stroke-width:0.8;"/>
   </g>
   <g id="patch_270">
    <path d="M 453.6 448.56 
L 453.6 272.16 
" style="fill:none;stroke:#000000;stroke-linecap:square;stroke-linejoin:miter;stroke-width:0.8;"/>
   </g>
   <g id="patch_271">
    <path d="M 276.054545 448.56 
L 453.6 448.56 
" style="fill:none;stroke:#000000;stroke-linecap:square;stroke-linejoin:miter;stroke-width:0.8;"/>
   </g>
   <g id="patch_272">
    <path d="M 276.054545 272.16 
L 453.6 272.16 
" style="fill:none;stroke:#000000;stroke-linecap:square;stroke-linejoin:miter;stroke-width:0.8;"/>
   </g>
  </g>
 </g>
 <defs>
  <clipPath id="pa6a6614f90">
   <rect height="176.4" width="177.545455" x="63" y="60.48"/>
  </clipPath>
  <clipPath id="p065db67887">
   <rect height="176.4" width="177.545455" x="276.054545" y="60.48"/>
  </clipPath>
 </defs>
</svg>
